<svg width="161" height="128" viewBox="0 0 161 128" fill="none" xmlns="http://www.w3.org/2000/svg">
<g filter="url(#filter0_d_11_39455)">
<path d="M36.7649 18.9567L42.9835 22.3697C44.3046 23.0943 44.3046 24.9986 42.9835 25.7232L36.7649 29.1362C34.7785 30.2268 33.146 31.8649 32.0592 33.8583L28.6581 40.0986C27.936 41.4244 26.0383 41.4244 25.3162 40.0986L21.9151 33.8583C20.8284 31.8649 19.1959 30.2268 17.2094 29.1362L10.9909 25.7232C9.66972 24.9986 9.66972 23.0943 10.9909 22.3697L17.2094 18.9567C19.1959 17.8662 20.8284 16.228 21.9151 14.2346L25.3162 7.99431C26.0383 6.66856 27.936 6.66856 28.6581 7.99431L32.0592 14.2346C33.146 16.228 34.7785 17.8662 36.7649 18.9567Z" fill="url(#paint0_linear_11_39455)"/>
</g>
<path d="M77.8928 7H86.691V42.3177H67.3841C63.0265 42.3177 59.2892 40.7532 56.1722 37.6253C53.0552 34.4974 51.4961 30.7471 51.4961 26.3742V7H60.2942V26.3742C60.2942 28.3248 60.9891 29.9987 62.3813 31.3945C63.7723 32.7903 65.4403 33.4889 67.3841 33.4889H77.8917V7H77.8928Z" fill="white"/>
<path d="M100.064 42.3177H91.2661V7H100.064V42.3177Z" fill="white"/>
<path d="M60.2942 85.1595H51.4961C51.4961 81.4935 51.9815 78.0033 52.9546 74.6901C53.9265 71.3769 55.2583 68.451 56.9511 65.9112C58.6428 63.3725 60.6209 61.0762 62.8844 59.0246C65.1467 56.973 67.5936 55.2826 70.2253 53.9545C72.8557 52.6263 75.5631 51.6083 78.3451 50.9014C81.127 50.1946 83.909 49.8418 86.691 49.8418V85.1595H77.8928V60.2352C74.5071 61.4124 71.4576 63.1955 68.7419 65.5833C66.2275 67.8036 64.2505 70.4099 62.8086 73.4036C61.1998 77.1705 60.3617 81.0896 60.2942 85.1595Z" fill="white"/>
<path d="M101.372 49.8415H125.557V58.6704H101.372C100.769 58.6704 100.257 58.8889 99.8395 59.3261C99.4204 59.7644 99.2108 60.2848 99.2108 60.8906C99.2108 61.2613 99.3032 61.6141 99.4879 61.9503C99.6713 62.2876 99.9318 62.5561 100.267 62.7581C100.602 62.96 100.971 63.0776 101.372 63.1109H114.546C117.596 63.1109 120.194 64.1884 122.339 66.3397C124.484 68.4923 125.557 71.0915 125.557 74.135C125.557 77.1786 124.484 79.7778 122.339 81.9304C120.194 84.0829 117.596 85.1592 114.546 85.1592H90.3618V76.3304H114.546C115.15 76.3304 115.668 76.1118 116.105 75.6746C116.542 75.2375 116.759 74.716 116.759 74.1101C116.759 73.5043 116.541 72.9922 116.105 72.5705C115.669 72.1512 115.15 71.9397 114.546 71.9397H101.372C98.3561 71.8732 95.792 70.772 93.6801 68.6349C91.5681 66.4989 90.5122 63.9175 90.5122 60.8906C90.5122 57.8637 91.5681 55.274 93.6801 53.1203C95.792 50.9677 98.3561 49.8748 101.372 49.8403V49.8415Z" fill="white"/>
<path d="M51.4961 101.512V92.6836H86.691V101.512H73.5186V128H64.6696V101.512H51.4961Z" fill="white"/>
<path d="M97.9026 128H89.1045V92.6821H111.327C113.271 92.6821 115.124 93.1027 116.883 93.9437C118.642 94.7848 120.142 95.962 121.382 97.4755C122.622 98.9889 123.46 100.704 123.897 102.622C124.601 105.548 124.333 108.374 123.092 111.098C121.851 113.822 119.907 115.874 117.259 117.254L124.348 128H113.789L107.655 118.716H97.9014V128H97.9026ZM111.327 101.512H97.9026V109.887H111.327C112.466 109.887 113.446 109.476 114.269 108.651C115.089 107.826 115.5 106.842 115.5 105.698C115.5 104.554 115.089 103.572 114.269 102.746C113.447 101.922 112.467 101.51 111.327 101.51V101.512Z" fill="white"/>
<path d="M134.405 128H125.607C125.607 124.334 126.092 120.844 127.065 117.53C128.037 114.217 129.369 111.291 131.062 108.751C132.754 106.213 134.732 103.917 136.995 101.865C139.258 99.8134 141.704 98.1229 144.336 96.7948C146.967 95.4667 149.674 94.4486 152.456 93.7418C155.238 93.0349 158.02 92.6821 160.802 92.6821V128H152.004V103.075C148.618 104.253 145.568 106.036 142.853 108.424C140.338 110.644 138.361 113.25 136.919 116.244C135.311 120.011 134.473 123.93 134.405 128Z" fill="white"/>
<defs>
<filter id="filter0_d_11_39455" x="0" y="0" width="53.9741" height="54.0928" filterUnits="userSpaceOnUse" color-interpolation-filters="sRGB">
<feFlood flood-opacity="0" result="BackgroundImageFix"/>
<feColorMatrix in="SourceAlpha" type="matrix" values="0 0 0 0 0 0 0 0 0 0 0 0 0 0 0 0 0 0 127 0" result="hardAlpha"/>
<feOffset dy="3"/>
<feGaussianBlur stdDeviation="5"/>
<feComposite in2="hardAlpha" operator="out"/>
<feColorMatrix type="matrix" values="0 0 0 0 0.0588235 0 0 0 0 0.917647 0 0 0 0 0.713726 0 0 0 0.24 0"/>
<feBlend mode="normal" in2="BackgroundImageFix" result="effect1_dropShadow_11_39455"/>
<feBlend mode="normal" in="SourceGraphic" in2="effect1_dropShadow_11_39455" result="shape"/>
</filter>
<linearGradient id="paint0_linear_11_39455" x1="27.2858" y1="2.67856" x2="26.2054" y2="48.0537" gradientUnits="userSpaceOnUse">
<stop stop-color="#37F3FF"/>
<stop offset="1" stop-color="#0FEAB6"/>
</linearGradient>
</defs>
</svg>
