<svg width="162" height="128" viewBox="0 0 162 128" fill="none" xmlns="http://www.w3.org/2000/svg">
<g filter="url(#filter0_d_11_39467)">
<path d="M37.1658 18.9567L43.3844 22.3697C44.7055 23.0943 44.7055 24.9986 43.3844 25.7232L37.1658 29.1362C35.1793 30.2268 33.5469 31.8649 32.4601 33.8583L29.059 40.0986C28.3369 41.4244 26.4392 41.4244 25.7171 40.0986L22.316 33.8583C21.2292 31.8649 19.5968 30.2268 17.6103 29.1362L11.3917 25.7232C10.0706 24.9986 10.0706 23.0943 11.3917 22.3697L17.6103 18.9567C19.5968 17.8662 21.2292 16.228 22.316 14.2346L25.7171 7.99431C26.4392 6.66856 28.3369 6.66856 29.059 7.99431L32.4601 14.2346C33.5469 16.228 35.1793 17.8662 37.1658 18.9567Z" fill="url(#paint0_linear_11_39467)"/>
</g>
<path d="M78.2937 7H87.0918V42.3177H67.785C63.4273 42.3177 59.69 40.7532 56.573 37.6253C53.4561 34.4974 51.897 30.7471 51.897 26.3742V7H60.6951V26.3742C60.6951 28.3248 61.39 29.9987 62.7822 31.3945C64.1732 32.7903 65.8411 33.4889 67.785 33.4889H78.2925V7H78.2937Z" fill="#121212"/>
<path d="M100.465 42.3177H91.667V7H100.465V42.3177Z" fill="#121212"/>
<path d="M60.6951 85.1595H51.897C51.897 81.4935 52.3823 78.0033 53.3554 74.6901C54.3273 71.3769 55.6591 68.451 57.352 65.9112C59.0437 63.3725 61.0218 61.0762 63.2853 59.0246C65.5476 56.973 67.9945 55.2826 70.6261 53.9545C73.2566 52.6263 75.964 51.6083 78.7459 50.9014C81.5279 50.1946 84.3099 49.8418 87.0918 49.8418V85.1595H78.2937V60.2352C74.908 61.4124 71.8585 63.1955 69.1428 65.5833C66.6284 67.8036 64.6514 70.4099 63.2095 73.4036C61.6007 77.1705 60.7626 81.0896 60.6951 85.1595Z" fill="#121212"/>
<path d="M101.773 49.8415H125.958V58.6704H101.773C101.17 58.6704 100.658 58.8889 100.24 59.3261C99.8213 59.7644 99.6117 60.2848 99.6117 60.8906C99.6117 61.2613 99.7041 61.6141 99.8887 61.9503C100.072 62.2876 100.333 62.5561 100.668 62.7581C101.003 62.96 101.372 63.0776 101.773 63.1109H114.947C117.996 63.1109 120.595 64.1884 122.74 66.3397C124.885 68.4923 125.958 71.0915 125.958 74.135C125.958 77.1786 124.885 79.7778 122.74 81.9304C120.595 84.0829 117.996 85.1592 114.947 85.1592H90.7627V76.3304H114.947C115.551 76.3304 116.069 76.1118 116.506 75.6746C116.943 75.2375 117.159 74.716 117.159 74.1101C117.159 73.5043 116.942 72.9922 116.506 72.5705C116.07 72.1512 115.551 71.9397 114.947 71.9397H101.773C98.757 71.8732 96.1929 70.772 94.0809 68.6349C91.969 66.4989 90.913 63.9175 90.913 60.8906C90.913 57.8637 91.969 55.274 94.0809 53.1203C96.1929 50.9677 98.757 49.8748 101.773 49.8403V49.8415Z" fill="#121212"/>
<path d="M51.897 101.512V92.6836H87.0918V101.512H73.9195V128H65.0705V101.512H51.897Z" fill="#121212"/>
<path d="M98.3035 128H89.5054V92.6821H111.728C113.672 92.6821 115.524 93.1027 117.284 93.9437C119.043 94.7848 120.543 95.962 121.783 97.4755C123.023 98.9889 123.861 100.704 124.298 102.622C125.002 105.548 124.733 108.374 123.493 111.098C122.252 113.822 120.308 115.874 117.66 117.254L124.749 128H114.19L108.056 118.716H98.3023V128H98.3035ZM111.728 101.512H98.3035V109.887H111.728C112.867 109.887 113.847 109.476 114.67 108.651C115.49 107.826 115.901 106.842 115.901 105.698C115.901 104.554 115.49 103.572 114.67 102.746C113.848 101.922 112.868 101.51 111.728 101.51V101.512Z" fill="#121212"/>
<path d="M134.806 128H126.008C126.008 124.334 126.493 120.844 127.466 117.53C128.438 114.217 129.77 111.291 131.463 108.751C133.155 106.213 135.133 103.917 137.396 101.865C139.658 99.8134 142.105 98.1229 144.737 96.7948C147.367 95.4667 150.075 94.4486 152.857 93.7418C155.639 93.0349 158.421 92.6821 161.203 92.6821V128H152.405V103.075C149.019 104.253 145.969 106.036 143.254 108.424C140.739 110.644 138.762 113.25 137.32 116.244C135.712 120.011 134.873 123.93 134.806 128Z" fill="#121212"/>
<defs>
<filter id="filter0_d_11_39467" x="0.400879" y="0" width="53.9741" height="54.0928" filterUnits="userSpaceOnUse" color-interpolation-filters="sRGB">
<feFlood flood-opacity="0" result="BackgroundImageFix"/>
<feColorMatrix in="SourceAlpha" type="matrix" values="0 0 0 0 0 0 0 0 0 0 0 0 0 0 0 0 0 0 127 0" result="hardAlpha"/>
<feOffset dy="3"/>
<feGaussianBlur stdDeviation="5"/>
<feComposite in2="hardAlpha" operator="out"/>
<feColorMatrix type="matrix" values="0 0 0 0 0.0588235 0 0 0 0 0.917647 0 0 0 0 0.713726 0 0 0 0.24 0"/>
<feBlend mode="normal" in2="BackgroundImageFix" result="effect1_dropShadow_11_39467"/>
<feBlend mode="normal" in="SourceGraphic" in2="effect1_dropShadow_11_39467" result="shape"/>
</filter>
<linearGradient id="paint0_linear_11_39467" x1="27.6866" y1="2.67856" x2="26.6063" y2="48.0537" gradientUnits="userSpaceOnUse">
<stop stop-color="#37F3FF"/>
<stop offset="1" stop-color="#0FEAB6"/>
</linearGradient>
</defs>
</svg>
