<svg width="24" height="24" viewBox="0 0 24 24" fill="none" xmlns="http://www.w3.org/2000/svg">
<path d="M6.25 18.5908C6.25 16.8825 7.16723 15.3052 8.65234 14.4609L14.6064 11.0771C15.6224 10.4995 16.2499 9.42064 16.25 8.25195V7C16.25 5.20507 14.7949 3.75 13 3.75H11C9.20507 3.75 7.75 5.20507 7.75 7V8.21094C7.74978 8.62496 7.41408 8.96094 7 8.96094C6.58592 8.96094 6.25022 8.62496 6.25 8.21094V7C6.25 4.37665 8.37665 2.25 11 2.25H13C15.6234 2.25 17.75 4.37665 17.75 7V8.25195C17.7499 9.9601 16.8326 11.5366 15.3477 12.3809L9.39355 15.7646C8.3774 16.3423 7.75 17.4219 7.75 18.5908V20.25H17C17.4142 20.25 17.75 20.5858 17.75 21C17.75 21.4142 17.4142 21.75 17 21.75H7C6.58579 21.75 6.25 21.4142 6.25 21V18.5908Z" fill="#4E5964"/>
</svg>
