<svg width="24" height="24" viewBox="0 0 24 24" fill="none" xmlns="http://www.w3.org/2000/svg">
<path d="M6.25 17V16C6.25 15.5858 6.58579 15.25 7 15.25C7.41421 15.25 7.75 15.5858 7.75 16V17C7.75 18.7949 9.20507 20.25 11 20.25H13C14.7949 20.25 16.25 18.7949 16.25 17V16.1768C16.2499 14.7059 15.2616 13.4188 13.8408 13.0381L10.8057 12.2246C10.4423 12.1271 10.2078 11.7754 10.2568 11.4023C10.306 11.0292 10.6236 10.75 11 10.75H13C14.7949 10.75 16.25 9.29493 16.25 7.5V7C16.25 5.20507 14.7949 3.75 13 3.75H11C9.20507 3.75 7.75 5.20507 7.75 7V7.5C7.75 7.91421 7.41421 8.25 7 8.25C6.58579 8.25 6.25 7.91421 6.25 7.5V7C6.25 4.37665 8.37665 2.25 11 2.25H13C15.6234 2.25 17.75 4.37665 17.75 7V7.5C17.75 9.4348 16.5923 11.0974 14.9326 11.8379C16.6247 12.5906 17.7499 14.2792 17.75 16.1768V17C17.75 19.6234 15.6234 21.75 13 21.75H11C8.37665 21.75 6.25 19.6234 6.25 17Z" fill="#4E5964"/>
</svg>
