<svg width="24" height="24" viewBox="0 0 24 24" fill="none" xmlns="http://www.w3.org/2000/svg">
<path d="M14.545 2.46489C14.8405 2.17489 15.3153 2.17933 15.6056 2.47466L18.5792 5.50005C18.6297 5.55146 18.6676 5.61058 18.7003 5.67095C18.7096 5.68816 18.7197 5.70483 18.7276 5.72271C18.7406 5.75198 18.7498 5.78216 18.7589 5.81255C18.7639 5.82945 18.7697 5.84608 18.7735 5.86333C18.7806 5.89501 18.7843 5.92684 18.7872 5.95903C18.7885 5.97368 18.7906 5.98821 18.7911 6.00298C18.7923 6.04095 18.7898 6.07851 18.7852 6.11626C18.7839 6.12731 18.7832 6.13842 18.7813 6.14946C18.7788 6.16448 18.7769 6.17952 18.7735 6.19439C18.7665 6.22484 18.7573 6.25511 18.7462 6.28521C18.7455 6.28713 18.744 6.28915 18.7432 6.29107C18.7371 6.30731 18.73 6.32305 18.7227 6.33892C18.709 6.36886 18.694 6.39757 18.6768 6.42485C18.6523 6.46369 18.6242 6.50048 18.5919 6.53521C18.59 6.53724 18.5879 6.53906 18.586 6.54107C18.5802 6.54723 18.5755 6.55459 18.5694 6.5606C18.5426 6.58692 18.5139 6.6104 18.4845 6.63189C18.4823 6.63342 18.4797 6.63428 18.4776 6.63579C18.4489 6.65626 18.4185 6.67259 18.3878 6.68853C18.3731 6.69615 18.3589 6.70434 18.3438 6.71099C18.3167 6.72287 18.2889 6.73178 18.2608 6.74028C18.2411 6.74634 18.2215 6.75247 18.2013 6.75689C18.1757 6.76237 18.15 6.76582 18.1241 6.7686C18.1023 6.77101 18.0807 6.77398 18.0587 6.77446C18.0328 6.77497 18.0073 6.77173 17.9815 6.76958C17.9536 6.76727 17.9255 6.76635 17.8975 6.76079C17.8956 6.76041 17.8936 6.76022 17.8917 6.75982C17.8554 6.75231 17.8191 6.74274 17.7833 6.72954H17.7813C17.7796 6.72891 17.7763 6.72797 17.7725 6.72661C17.7652 6.72391 17.7542 6.71929 17.7393 6.71392C17.7091 6.70295 17.6633 6.68694 17.6046 6.66607C17.4871 6.62431 17.3156 6.56358 17.1026 6.49126C16.6763 6.3465 16.0842 6.15335 15.4229 5.95903C14.0737 5.56258 12.5254 5.18944 11.4854 5.16997C10.4007 5.14967 9.13958 5.4879 8.1075 5.85942C7.60059 6.04191 7.16627 6.22615 6.85946 6.36431C6.70631 6.43327 6.58535 6.49089 6.50399 6.53032C6.46363 6.54988 6.43315 6.56526 6.41317 6.57524C6.40315 6.58025 6.39523 6.58369 6.39071 6.58599C6.38853 6.58709 6.38665 6.58752 6.38582 6.58794C6.01754 6.77718 5.5655 6.63281 5.37606 6.2647C5.18675 5.89628 5.33186 5.44327 5.70028 5.25396C5.70094 5.25361 5.70315 5.25253 5.70418 5.252C5.70624 5.25095 5.7095 5.24986 5.71297 5.2481L5.84969 5.17974C5.94246 5.13478 6.07609 5.07142 6.24325 4.99614C6.57716 4.84578 7.04856 4.6467 7.59969 4.44829C8.68427 4.05787 10.1523 3.64546 11.5138 3.67095C12.6359 3.69201 14.1206 4.03344 15.3819 4.38677L14.5352 3.52544C14.2451 3.22999 14.2496 2.75516 14.545 2.46489Z" fill="#4E5964"/>
<path d="M6.13856 17.2569C6.16066 17.259 6.18286 17.2597 6.20497 17.2638C6.21314 17.2653 6.22126 17.2669 6.22939 17.2686C6.26293 17.276 6.29684 17.2838 6.32997 17.296L6.33192 17.297C6.33366 17.2976 6.33699 17.2985 6.34071 17.2999C6.34812 17.3026 6.35911 17.3072 6.37392 17.3126C6.40418 17.3236 6.44997 17.3396 6.50868 17.3604C6.62602 17.4022 6.79701 17.4621 7.00966 17.5343C7.43598 17.679 8.02796 17.8731 8.68935 18.0675C10.0387 18.464 11.5877 18.8361 12.6278 18.8556C13.7123 18.8758 14.9728 18.5385 16.0048 18.1671C16.5119 17.9845 16.9469 17.8004 17.2538 17.6622C17.4069 17.5932 17.5279 17.5356 17.6093 17.4962C17.6496 17.4766 17.6801 17.4612 17.7001 17.4513C17.7101 17.4463 17.718 17.4428 17.7225 17.4405L17.7274 17.4376L17.7977 17.4063C18.1515 17.2679 18.5597 17.4167 18.7372 17.7618C18.9265 18.1301 18.7812 18.5822 18.413 18.7716L18.411 18.7725C18.4104 18.7729 18.41 18.774 18.4091 18.7745C18.407 18.7756 18.4038 18.7766 18.4003 18.7784C18.3933 18.782 18.3835 18.7868 18.371 18.7931C18.3457 18.8057 18.309 18.8233 18.2626 18.8458C18.1698 18.8908 18.0361 18.9541 17.869 19.0294C17.5351 19.1797 17.0645 19.3799 16.5136 19.5782C15.429 19.9686 13.961 20.381 12.5995 20.3556C11.477 20.3345 9.99189 19.9922 8.73036 19.6388L9.57802 20.5011C9.86803 20.7965 9.86359 21.2714 9.56825 21.5616C9.27279 21.8516 8.79791 21.8472 8.50771 21.5518L5.53407 18.5255C5.47769 18.468 5.43542 18.4024 5.40126 18.3341C5.39592 18.3234 5.39046 18.3128 5.38564 18.3018C5.37283 18.2728 5.36333 18.2431 5.35439 18.213C5.34934 18.1961 5.34358 18.1795 5.33974 18.1622C5.3328 18.1308 5.32893 18.0993 5.32606 18.0675C5.3247 18.0525 5.32262 18.0376 5.32216 18.0225C5.32097 17.9826 5.32287 17.9431 5.32802 17.9034C5.32917 17.8946 5.33045 17.8858 5.33192 17.877C5.33459 17.861 5.33701 17.845 5.34071 17.8292C5.34768 17.7996 5.35629 17.7696 5.36708 17.7403C5.36809 17.7376 5.36995 17.7352 5.37099 17.7325C5.37667 17.7176 5.38288 17.7031 5.38954 17.6886C5.4034 17.6582 5.41908 17.6293 5.43642 17.6016C5.46679 17.5535 5.50149 17.5065 5.54384 17.4649C5.5984 17.4114 5.66098 17.3715 5.72548 17.338C5.74012 17.3303 5.75431 17.3222 5.76942 17.3155C5.79657 17.3036 5.82433 17.2947 5.85243 17.2862C5.8722 17.2802 5.89174 17.274 5.912 17.2696C5.9376 17.2641 5.96321 17.2607 5.98915 17.2579C6.01092 17.2555 6.03253 17.2525 6.05458 17.252C6.08272 17.2515 6.11052 17.2543 6.13856 17.2569Z" fill="#4E5964"/>
<path d="M8.18394 11.2281H8.79594C9.05994 11.2281 9.24794 11.1761 9.35994 11.0721C9.47994 10.9601 9.53994 10.7801 9.53994 10.5321V9.96805C9.53994 9.72005 9.47994 9.54405 9.35994 9.44005C9.24794 9.32805 9.05994 9.27205 8.79594 9.27205H8.21994C7.96394 9.27205 7.78394 9.32805 7.67994 9.44005C7.57594 9.54405 7.52394 9.72005 7.52394 9.96805V10.268C7.52394 10.436 7.43994 10.5201 7.27194 10.5201H6.25194C6.08394 10.5201 5.99994 10.436 5.99994 10.268V9.94405C5.99994 9.32005 6.17194 8.84005 6.51594 8.50405C6.85994 8.16805 7.34794 8.00005 7.97994 8.00005H9.04794C9.67994 8.00005 10.1679 8.16805 10.5119 8.50405C10.8559 8.84005 11.0279 9.32005 11.0279 9.94405V10.544C11.0279 11.216 10.7119 11.6521 10.0799 11.852C10.7119 11.9881 11.0279 12.424 11.0279 13.16V13.772C11.0279 14.396 10.8559 14.876 10.5119 15.212C10.1679 15.548 9.67994 15.7161 9.04794 15.7161H7.97994C7.34794 15.7161 6.85994 15.548 6.51594 15.212C6.17194 14.876 5.99994 14.396 5.99994 13.772V13.436C5.99994 13.26 6.08394 13.172 6.25194 13.172H7.27194C7.43994 13.172 7.52394 13.26 7.52394 13.436V13.748C7.52394 14.004 7.57594 14.184 7.67994 14.288C7.78394 14.392 7.96394 14.444 8.21994 14.444H8.79594C9.05994 14.444 9.24794 14.392 9.35994 14.288C9.47994 14.1761 9.53994 13.996 9.53994 13.748V13.16C9.53994 12.912 9.47994 12.736 9.35994 12.632C9.24794 12.52 9.05994 12.464 8.79594 12.464H8.18394C8.01594 12.464 7.93194 12.38 7.93194 12.212V11.492C7.93194 11.316 8.01594 11.2281 8.18394 11.2281Z" fill="#4E5964"/>
<path d="M14.0974 14.396H15.4054C15.6614 14.396 15.8414 14.3441 15.9454 14.2401C16.0574 14.128 16.1134 13.944 16.1134 13.688V10.028C16.1134 9.77205 16.0574 9.59205 15.9454 9.48805C15.8414 9.37605 15.6614 9.32005 15.4054 9.32005H14.0974C14.0094 9.32005 13.9654 9.36405 13.9654 9.45205V14.264C13.9654 14.352 14.0094 14.396 14.0974 14.396ZM12.4414 15.4641V8.25205C12.4414 8.08405 12.5254 8.00005 12.6934 8.00005H15.6574C16.2814 8.00005 16.7654 8.17205 17.1094 8.51605C17.4614 8.85205 17.6374 9.33205 17.6374 9.95605V13.76C17.6374 14.384 17.4614 14.868 17.1094 15.212C16.7654 15.548 16.2814 15.7161 15.6574 15.7161H12.6934C12.5254 15.7161 12.4414 15.6321 12.4414 15.4641Z" fill="#4E5964"/>
</svg>
