<svg width="24" height="24" viewBox="0 0 24 24" fill="none" xmlns="http://www.w3.org/2000/svg">
<path d="M14.1384 20.9999V18.0576H5.99969C5.7274 18.0576 5.47673 17.9098 5.34441 17.6718C5.21217 17.4339 5.2193 17.1433 5.36297 16.912L14.2516 2.60443C14.4284 2.31993 14.7723 2.18639 15.0944 2.27825C15.4165 2.37016 15.6384 2.66498 15.6384 2.99993V16.5576H17.9997C18.4139 16.5576 18.7496 16.8934 18.7497 17.3076C18.7497 17.7218 18.4139 18.0576 17.9997 18.0576H15.6384V20.9999C15.6384 21.4141 15.3026 21.7499 14.8884 21.7499C14.4742 21.7498 14.1384 21.4141 14.1384 20.9999ZM7.34832 16.5576H14.1384V5.62884L7.34832 16.5576Z" fill="#4E5964"/>
</svg>
