<svg width="24" height="24" viewBox="0 0 24 24" fill="none" xmlns="http://www.w3.org/2000/svg">
<path fill-rule="evenodd" clip-rule="evenodd" d="M2.25 7.5C2.25 4.60051 4.60051 2.25 7.5 2.25H16.5C19.3995 2.25 21.75 4.60051 21.75 7.5V16.5C21.75 19.3995 19.3995 21.75 16.5 21.75H7.5C4.60051 21.75 2.25 19.3995 2.25 16.5V7.5ZM8.48594 7.63733C8.72183 7.38997 9.04873 7.25 9.39054 7.25H10.5306C11.1326 7.25 11.6206 7.73801 11.6206 8.34V11.25H12C12.4142 11.25 12.75 11.5858 12.75 12C12.75 12.4142 12.4142 12.75 12 12.75H11.6206V16C11.6206 16.4142 11.2848 16.75 10.8706 16.75C10.4564 16.75 10.1206 16.4142 10.1206 16V12.75H6.3C5.7201 12.75 5.25 12.2799 5.25 11.7V11.531C5.25 11.2098 5.37369 10.9008 5.5954 10.6683L8.48594 7.63733ZM10.1206 11.25V8.75H9.49758L7.11345 11.25H10.1206ZM18.4848 8.57228C18.8008 8.30456 18.84 7.83131 18.5723 7.51524C18.3046 7.19918 17.8313 7.15999 17.5152 7.42772L13.4703 10.854C12.6139 11.5794 12.6522 12.9122 13.5488 13.5873L17.5489 16.5992C17.8798 16.8483 18.35 16.782 18.5992 16.4511C18.8483 16.1202 18.782 15.65 18.4511 15.4008L14.4511 12.389C14.323 12.2926 14.3175 12.1022 14.4399 11.9986L18.4848 8.57228Z" fill="#4E5964"/>
</svg>
