<svg width="24" height="24" viewBox="0 0 24 24" fill="none" xmlns="http://www.w3.org/2000/svg">
<path d="M16.5 2.25C19.3995 2.25 21.75 4.60051 21.75 7.5V16.5C21.75 19.3995 19.3995 21.75 16.5 21.75H7.5C4.60051 21.75 2.25 19.3995 2.25 16.5V7.5C2.25 4.60051 4.60051 2.25 7.5 2.25H16.5ZM8.53613 8C8.40013 8 8.29563 8.02798 8.22363 8.08398C8.15969 8.13204 8.08772 8.22824 8.00781 8.37207L5.62012 12.8115C5.54012 12.9635 5.5 13.1604 5.5 13.4004V13.8682C5.50003 14.0041 5.54015 14.1124 5.62012 14.1924C5.70009 14.2722 5.80848 14.3115 5.94434 14.3115H8.91992V15.4639C8.91992 15.6318 9.00396 15.7158 9.17188 15.7158H10.1084C10.1962 15.7158 10.2561 15.6999 10.2881 15.668C10.328 15.628 10.3477 15.5598 10.3477 15.4639V14.3115H11.2119C11.3719 14.3115 11.4521 14.22 11.4521 14.0361V13.2324C11.4521 13.0724 11.3719 12.9922 11.2119 12.9922H10.3477V8.44434C10.3477 8.30834 10.3038 8.20012 10.2158 8.12012C10.1358 8.04014 10.0276 8 9.8916 8H8.53613ZM12.6279 8C12.4601 8.00009 12.376 8.08407 12.376 8.25195V15.4639C12.376 15.6318 12.4601 15.7157 12.6279 15.7158H13.6484C13.8163 15.7157 13.9004 15.6318 13.9004 15.4639V13.4121L14.6562 12.5244L16.4922 15.4639C16.5882 15.6319 16.7766 15.7158 17.0566 15.7158H17.9326C18.0444 15.7158 18.1165 15.6915 18.1484 15.6436C18.1881 15.5876 18.1799 15.5118 18.124 15.416L15.5801 11.4316L17.8604 8.27637C17.9244 8.19637 17.9439 8.13198 17.9199 8.08398C17.9039 8.02814 17.8523 8.0001 17.7646 8H16.5879C16.38 8.00008 16.2241 8.08403 16.1201 8.25195L14.2959 10.9277C14.1119 11.2317 13.9878 11.4799 13.9238 11.6719H13.9004V8.25195C13.9004 8.08407 13.8163 8.00008 13.6484 8H12.6279ZM8.91992 12.9922H6.97559L8.91992 9.28418V12.9922Z" fill="#4E5964"/>
</svg>
