<svg width="24" height="24" viewBox="0 0 24 24" fill="none" xmlns="http://www.w3.org/2000/svg">
<path d="M16.5 2.25C19.3995 2.25 21.75 4.60051 21.75 7.5V16.5C21.75 19.3995 19.3995 21.75 16.5 21.75H7.5C4.60051 21.75 2.25 19.3995 2.25 16.5V7.5C2.25 4.60051 4.60051 2.25 7.5 2.25H16.5ZM9.66211 7.7793C9.34017 7.6877 8.996 7.82112 8.81934 8.10547L5.36328 13.6689C5.21991 13.9001 5.21251 14.1919 5.34473 14.4297C5.4772 14.667 5.72814 14.8154 6 14.8154H8.70703V15.501C8.70754 15.9148 9.04314 16.251 9.45703 16.251C9.87065 16.2506 10.2065 15.9145 10.207 15.501V14.8154H10.667C11.0805 14.8151 11.4163 14.4788 11.417 14.0654C11.417 13.6515 11.0809 13.3158 10.667 13.3154H10.207V8.50098C10.207 8.16622 9.98389 7.8714 9.66211 7.7793ZM12.666 7.75C12.2521 7.75016 11.9163 8.08609 11.916 8.5V15.5C11.9163 15.9139 12.2521 16.2498 12.666 16.25C13.0799 16.2498 13.4158 15.9139 13.416 15.5V13.8301L14.418 12.6455L16.7168 15.9307C16.9545 16.2695 17.4226 16.3517 17.7617 16.1143C18.1006 15.8768 18.1831 15.4095 17.9463 15.0703L15.4199 11.4619L17.5166 8.98535C17.7837 8.66949 17.7439 8.19637 17.4287 7.92871C17.1125 7.66115 16.6387 7.7004 16.3711 8.0166L13.416 11.5088V8.5C13.4158 8.08612 13.0799 7.7502 12.666 7.75ZM8.70703 13.3154H7.34863L8.70703 11.1279V13.3154Z" fill="#4E5964"/>
</svg>
