<svg width="24" height="24" viewBox="0 0 24 24" fill="none" xmlns="http://www.w3.org/2000/svg">
<path d="M6.25 17V16.6221C6.25 16.2079 6.58579 15.8721 7 15.8721C7.41421 15.8721 7.75 16.2079 7.75 16.6221V17C7.75 18.7949 9.20507 20.25 11 20.25H13C14.7949 20.25 16.25 18.7949 16.25 17V14.2969C16.2498 12.5021 14.7948 11.0469 13 11.0469H9.30566L7.52344 12.7812C7.30736 12.9915 6.98573 13.0518 6.70801 12.9346C6.43031 12.8173 6.25 12.5446 6.25 12.2432V3C6.25 2.58579 6.58579 2.25 7 2.25H17C17.4142 2.25 17.75 2.58579 17.75 3C17.75 3.41421 17.4142 3.75 17 3.75H7.75V10.4668L8.47656 9.75977L8.58984 9.66895C8.7109 9.58993 8.85338 9.54688 9 9.54688H13C15.6232 9.54688 17.7498 11.6737 17.75 14.2969V17C17.75 19.6234 15.6234 21.75 13 21.75H11C8.37665 21.75 6.25 19.6234 6.25 17Z" fill="#4E5964"/>
</svg>
