<svg width="24" height="24" viewBox="0 0 24 24" fill="none" xmlns="http://www.w3.org/2000/svg">
<path d="M16.25 15C16.25 13.2051 14.7949 11.75 13 11.75H7.75V17C7.75 18.7949 9.20507 20.25 11 20.25H13C14.7949 20.25 16.25 18.7949 16.25 17V15ZM17.75 17C17.75 19.6234 15.6234 21.75 13 21.75H11C8.37665 21.75 6.25 19.6234 6.25 17V7C6.25 4.37665 8.37665 2.25 11 2.25H17C17.4142 2.25 17.75 2.58579 17.75 3C17.75 3.41421 17.4142 3.75 17 3.75H11C9.20507 3.75 7.75 5.20507 7.75 7V10.25H13C15.6234 10.25 17.75 12.3766 17.75 15V17Z" fill="#4E5964"/>
</svg>
