<svg width="24" height="24" viewBox="0 0 24 24" fill="none" xmlns="http://www.w3.org/2000/svg">
<path d="M17.25 16C17.25 14.2051 15.7949 12.75 14 12.75H10C8.20507 12.75 6.75 14.2051 6.75 16V17C6.75 18.7949 8.20507 20.25 10 20.25H14C15.7949 20.25 17.25 18.7949 17.25 17V16ZM16.25 7C16.25 5.20507 14.7949 3.75 13 3.75H11C9.20507 3.75 7.75 5.20507 7.75 7V8C7.75 9.79493 9.20507 11.25 11 11.25H13C14.7949 11.25 16.25 9.79493 16.25 8V7ZM17.75 8C17.75 9.48909 17.0635 10.8166 15.9912 11.6875C17.6197 12.4407 18.75 14.0879 18.75 16V17C18.75 19.6234 16.6234 21.75 14 21.75H10C7.37665 21.75 5.25 19.6234 5.25 17V16C5.25 14.0882 6.37976 12.4408 8.00781 11.6875C6.93583 10.8166 6.25 9.48882 6.25 8V7C6.25 4.37665 8.37665 2.25 11 2.25H13C15.6234 2.25 17.75 4.37665 17.75 7V8Z" fill="#4E5964"/>
</svg>
