<svg width="24" height="24" viewBox="0 0 24 24" fill="none" xmlns="http://www.w3.org/2000/svg">
<path d="M7.75 9C7.75 10.7949 9.20508 12.25 11 12.25L16.25 12.25L16.25 7C16.25 5.20507 14.7949 3.75 13 3.75L11 3.75C9.20508 3.75 7.75 5.20507 7.75 7L7.75 9ZM6.25 7C6.25 4.37665 8.37665 2.25 11 2.25L13 2.25C15.6234 2.25 17.75 4.37665 17.75 7L17.75 17C17.75 19.6234 15.6234 21.75 13 21.75L7 21.75C6.58579 21.75 6.25 21.4142 6.25 21C6.25 20.5858 6.58579 20.25 7 20.25L13 20.25C14.7949 20.25 16.25 18.7949 16.25 17L16.25 13.75L11 13.75C8.37665 13.75 6.25 11.6234 6.25 9L6.25 7Z" fill="#4E5964"/>
</svg>
