<svg width="24" height="24" viewBox="0 0 24 24" fill="none" xmlns="http://www.w3.org/2000/svg">
<path d="M12.2572 3.25391C13.4615 3.28631 14.6509 3.54383 15.763 4.01465C16.1444 4.17613 16.3238 4.61667 16.1624 4.99805C16.001 5.37925 15.5603 5.55765 15.179 5.39648C14.1059 4.94212 12.9475 4.72215 11.7826 4.75293C8.28755 4.85631 5.23789 7.15321 4.17221 10.4834C3.10674 13.8138 4.25723 17.4544 7.0433 19.5674C7.37313 19.8177 7.4379 20.2882 7.18783 20.6182C6.93756 20.9482 6.46709 21.0129 6.13705 20.7627C2.84394 18.2654 1.48404 13.9627 2.7435 10.0264C3.96364 6.21296 7.38528 3.5471 11.3538 3.27344L11.7386 3.25391H12.2572Z" fill="#4E5964"/>
<path d="M19.7699 8.39746C20.141 8.21364 20.5919 8.36521 20.7757 8.73633C22.7459 12.7147 21.7547 17.5239 18.3724 20.3994C18.0568 20.6675 17.583 20.629 17.3148 20.3135C17.0468 19.9979 17.0853 19.5241 17.4007 19.2559C20.2584 16.8263 21.0964 12.7637 19.432 9.40234C19.2482 9.03136 19.3991 8.58148 19.7699 8.39746Z" fill="#4E5964"/>
<path fill-rule="evenodd" clip-rule="evenodd" d="M16.3275 5.88184C16.9885 5.27422 17.9643 5.0837 18.7054 5.66016C19.3998 6.20075 19.4914 7.1061 19.1488 7.86816L19.0746 8.01758L19.0247 8.09766L15.0814 13.6152L14.8001 14.0098C14.7832 14.0335 14.7648 14.0559 14.7455 14.0771C14.7046 15.5602 13.4923 16.75 11.9994 16.75C10.4808 16.7498 9.24936 15.5186 9.24936 14C9.24936 12.6502 10.2226 11.529 11.5052 11.2959L16.2747 5.93457L16.3275 5.88184ZM11.9994 12.75C11.3092 12.7502 10.7494 13.3098 10.7494 14C10.7494 14.6902 11.3092 15.2498 11.9994 15.25C12.6897 15.25 13.2494 14.6904 13.2494 14C13.2494 13.3096 12.6897 12.75 11.9994 12.75Z" fill="#4E5964"/>
</svg>
