<svg width="24" height="24" viewBox="0 0 24 24" fill="none" xmlns="http://www.w3.org/2000/svg">
<path fill-rule="evenodd" clip-rule="evenodd" d="M14.25 3.20026C14.25 2.68023 14.6768 2.23595 15.225 2.25395C18.7738 2.37045 21.6298 5.22641 21.7463 8.77527C21.7643 9.32344 21.32 9.75026 20.8 9.75026H15.2C14.6753 9.75026 14.25 9.32493 14.25 8.80026V3.20026Z" fill="#4E5964"/>
<path fill-rule="evenodd" clip-rule="evenodd" d="M11.675 2.25567C12.2808 2.23548 12.75 2.72713 12.75 3.30026V11.2503H20.7C21.2731 11.2503 21.7648 11.7195 21.7446 12.3252C21.6841 14.1398 21.1179 15.9039 20.1068 17.4171C19.0355 19.0204 17.5127 20.2701 15.7312 21.0081C13.9496 21.746 11.9892 21.9391 10.0979 21.5629C8.20656 21.1867 6.46927 20.2581 5.10571 18.8945C3.74215 17.531 2.81355 15.7937 2.43735 13.9024C2.06114 12.0111 2.25422 10.0507 2.99218 8.26909C3.73013 6.48751 4.97982 4.96477 6.58319 3.89343C8.09639 2.88235 9.86046 2.31617 11.675 2.25567Z" fill="#4E5964"/>
</svg>
