<svg width="24" height="24" viewBox="0 0 24 24" fill="none" xmlns="http://www.w3.org/2000/svg">
<circle cx="12" cy="14" r="2" stroke="#4E5964" stroke-width="1.5" stroke-linecap="round" stroke-linejoin="round"/>
<path d="M20.1035 9.06919C21.9211 12.7391 21.0071 17.1752 17.8869 19.8278" stroke="#4E5964" stroke-width="1.5" stroke-linecap="round" stroke-linejoin="round"/>
<path d="M15.4715 4.7055C14.2991 4.20908 13.034 3.96975 11.7612 4.00363C7.94798 4.11616 4.62026 6.62141 3.45771 10.2549C2.29516 13.8884 3.55058 17.86 6.5903 20.1652" stroke="#4E5964" stroke-width="1.5" stroke-linecap="round" stroke-linejoin="round"/>
<path d="M11.9504 11.9246L16.8359 6.43398C17.3026 6.00502 17.8664 5.95757 18.2446 6.25169C18.6227 6.5458 18.7154 7.104 18.4145 7.66191L16.1615 10.8145L15.035 12.3907L14.4717 13.1789L14.1901 13.5729L13 12L11.9504 11.9246Z" fill="#4E5964" stroke="#4E5964" stroke-width="1.5" stroke-linecap="round" stroke-linejoin="round"/>
</svg>
