<svg width="24" height="24" viewBox="0 0 24 24" fill="none" xmlns="http://www.w3.org/2000/svg">
<path fill-rule="evenodd" clip-rule="evenodd" d="M16.5 21H7.5C4.46243 21 2 18.5376 2 15.5V8.5C2 5.46243 4.46243 3 7.5 3H13.5C14.3097 3 14.9547 3.69023 14.9996 4.49873C15.0618 5.62078 15.2878 7.1097 16 8C16.8066 9.00827 18.5941 9.20041 20.0094 9.17455C21.0531 9.15549 22 9.95615 22 11V15.5C22 18.5376 19.5376 21 16.5 21ZM8.60876 13.9381C8.36682 14.2743 7.89813 14.3507 7.56192 14.1088C7.22572 13.8668 7.1493 13.3981 7.39124 13.0619L8.60876 13.9381ZM10.2889 11.6033L12.5213 13.915C12.9288 14.3369 13.6175 14.2924 13.9673 13.8215L16.1017 10.9477C16.3487 10.6152 16.2797 10.1449 15.9472 9.89789C15.6147 9.65091 15.1449 9.72026 14.8979 10.0528L13.1498 12.4065L10.9104 10.0877C10.4989 9.66153 9.802 9.71186 9.45597 10.1927L7.39124 13.0619L8.60876 13.9381L10.2889 11.6033Z" fill="#4E5964"/>
<path d="M22 5C22 6.10457 21.1046 7 20 7C18.8954 7 18 6.10457 18 5C18 3.89543 18.8954 3 20 3C21.1046 3 22 3.89543 22 5Z" fill="#4E5964"/>
</svg>
