<svg width="24" height="24" viewBox="0 0 24 24" fill="none" xmlns="http://www.w3.org/2000/svg">
<path fill-rule="evenodd" clip-rule="evenodd" d="M13.3496 3C14.0784 3 14.6589 3.69052 14.6992 4.49902C14.7552 5.62096 14.9588 7.10975 15.5996 8C16.3255 9.00814 17.9343 9.2006 19.208 9.1748C20.1473 9.15574 21 9.95615 21 11V15.5C21 18.5376 18.7836 21 16.0498 21H7.9502C5.21639 21 3 18.5376 3 15.5V8.5C3 5.46243 5.21639 3 7.9502 3H13.3496ZM15.5527 9.89746C15.2535 9.65059 14.8307 9.72037 14.6084 10.0527C13.816 11.2382 12.1132 11.3458 11.1777 10.2695L11.0195 10.0879C10.6492 9.66177 10.0214 9.71158 9.70996 10.1924L7.85254 13.0615C7.63482 13.3977 7.70336 13.8664 8.00586 14.1084C8.30841 14.3503 8.73047 14.2746 8.94824 13.9385C9.70531 12.7695 11.3715 12.652 12.2852 13.7031L12.4688 13.915C12.8355 14.337 13.4557 14.2922 13.7705 13.8213L15.6914 10.9473C15.9135 10.6148 15.8519 10.1444 15.5527 9.89746Z" fill="#4E5964"/>
<path d="M19 3C20.1046 3 21 3.89543 21 5C21 6.10457 20.1046 7 19 7C17.8954 7 17 6.10457 17 5C17 3.89543 17.8954 3 19 3Z" fill="#4E5964"/>
</svg>
