<svg width="24" height="24" viewBox="0 0 24 24" fill="none" xmlns="http://www.w3.org/2000/svg">
<path fill-rule="evenodd" clip-rule="evenodd" d="M16.5 21H7.5C4.46243 21 2 18.5376 2 15.5V8.5C2 5.46243 4.46243 3 7.5 3H12.5H13.5C14.3097 3 14.9547 3.69023 14.9996 4.49873C15.0618 5.62078 15.2878 7.1097 16 8C16.8066 9.00827 18.5941 9.20041 20.0094 9.17455C21.0531 9.15549 22 9.95615 22 11V15.5C22 18.5376 19.5376 21 16.5 21ZM8.60876 13.9381C8.36682 14.2743 7.89813 14.3507 7.56192 14.1088C7.22572 13.8668 7.1493 13.3981 7.39124 13.0619L8 13.5L8.60876 13.9381ZM9.61381 12.5414L10.2889 11.6033L12.5213 13.915L12.5213 13.915C12.9288 14.3369 13.6175 14.2924 13.9673 13.8215L15.0623 12.3471L15.7789 11.3823L16.0134 11.0666L16.0789 10.9784L16.0962 10.9551L16.1006 10.9492L16.1017 10.9477L16.1019 10.9475L16.102 10.9473L16.1021 10.9472L15.5 10.5L16.1021 10.9472C16.3491 10.6147 16.2797 10.1449 15.9472 9.89789C15.6147 9.65091 15.1449 9.72026 14.8979 10.0528L15.5 10.5L14.8979 10.0528L14.8978 10.0529L14.8975 10.0533L14.8964 10.0548L14.892 10.0608L14.8748 10.084L14.8092 10.1722L14.5747 10.488L13.8581 11.4528L13.1498 12.4065L10.9104 10.0877C10.4989 9.66153 9.802 9.71186 9.45597 10.1927L8.39629 11.6653L7.70361 12.6278L7.47697 12.9428L7.41363 13.0308L7.39696 13.054L7.39268 13.0599L7.3916 13.0614L7.39133 13.0618L7.39126 13.0619L8 13.5L8.60878 13.938L8.60885 13.9379L8.60912 13.9376L8.61021 13.9361L8.61448 13.9301L8.63115 13.907L8.69449 13.8189L8.92113 13.504L9.61381 12.5414Z" fill="#4E5964"/>
<circle cx="19.5" cy="4.5" r="1.5" stroke="#4E5964" stroke-width="1.5"/>
</svg>
