<svg width="24" height="25" viewBox="0 0 24 25" fill="none" xmlns="http://www.w3.org/2000/svg">
<path fill-rule="evenodd" clip-rule="evenodd" d="M2.25783 7.77595C2.25846 4.87646 4.60948 2.52646 7.50898 2.5271L16.509 2.52907C19.4085 2.52971 21.7585 4.88072 21.7578 7.78022L21.7559 16.7802C21.7552 19.6797 19.4042 22.0297 16.5047 22.0291L7.50471 22.0271C4.60522 22.0265 2.25522 19.6754 2.25586 16.776L2.25783 7.77595ZM5.47881 5.7364C5.77177 5.44357 6.24664 5.44368 6.53947 5.73663L6.54947 5.74664C6.8423 6.03959 6.84219 6.51447 6.54924 6.8073L6.53923 6.81729C6.24628 7.11012 5.7714 7.11002 5.47857 6.81706L5.46858 6.80706C5.17575 6.5141 5.17585 6.03923 5.46881 5.7464L5.47881 5.7364ZM8.54924 5.73712C8.25641 5.44416 7.78153 5.44406 7.48858 5.73689L7.47857 5.74689C7.18562 6.03972 7.18551 6.51459 7.47834 6.80755L7.48834 6.81755C7.78117 7.11051 8.25604 7.11061 8.549 6.81778L8.559 6.80778C8.85196 6.51496 8.85206 6.04008 8.55923 5.74712L8.54924 5.73712ZM9.25879 6.27742C9.25888 5.86321 9.59474 5.5275 10.009 5.52759L18.009 5.52934C18.4232 5.52943 18.7589 5.86529 18.7588 6.2795C18.7587 6.69372 18.4228 7.02943 18.0086 7.02934L10.0086 7.02759C9.59441 7.0275 9.2587 6.69164 9.25879 6.27742ZM6.008 11.5766C5.6214 11.5765 5.30793 11.8899 5.30784 12.2765C5.30776 12.6631 5.62109 12.9765 6.00769 12.9766L7.85306 12.977L7.85292 13.6136L6.68065 13.6133C6.59764 13.3195 6.32753 13.1041 6.00708 13.104C5.62048 13.1039 5.30701 13.4173 5.30693 13.8039L5.30682 14.2891C5.30656 14.297 5.30642 14.305 5.30642 14.313C5.30642 14.321 5.30655 14.329 5.30681 14.337L5.30637 16.3492C5.30629 16.7358 5.61962 17.0493 6.00622 17.0494C6.39282 17.0495 6.70629 16.7361 6.70637 16.3495L6.70667 15.0133L7.85262 15.0136L7.85232 16.3496C7.85224 16.7362 8.16557 17.0497 8.55217 17.0498C8.93877 17.0499 9.25224 16.7365 9.25232 16.3499L9.25318 12.4257C9.25329 11.9572 8.87355 11.5773 8.40501 11.5772L6.008 11.5766ZM14.7615 12.4272C14.7616 11.9587 15.1415 11.5789 15.61 11.579L18.007 11.5796C18.3936 11.5796 18.707 11.8931 18.7069 12.2797C18.7068 12.6663 18.3933 12.9796 18.0067 12.9796L16.1613 12.9792L16.1612 13.5792L17.8586 13.5796C18.3271 13.5797 18.7069 13.9596 18.7068 14.4281L18.7065 15.9797C18.7064 16.532 18.2586 16.9797 17.7063 16.9796L15.5063 16.9791C15.1197 16.979 14.8063 16.6655 14.8064 16.2789C14.8065 15.8923 15.12 15.579 15.5066 15.5791L17.3066 15.5795L17.3067 14.9795L15.5067 14.9791C15.1952 14.979 14.9312 14.7754 14.8405 14.4941C14.7897 14.3971 14.761 14.2867 14.761 14.1697L14.7615 12.4272ZM10.7345 11.5776C10.3479 11.5775 10.0344 11.8908 10.0343 12.2774C10.0342 12.664 10.3476 12.9775 10.7342 12.9776L12.3033 12.9779C12.4263 12.978 12.5259 13.0777 12.5259 13.2006L12.5254 15.3968C12.5254 15.537 12.4118 15.6506 12.2716 15.6505L11.4337 15.6503L11.4341 13.805C11.4341 13.4184 11.1208 13.1049 10.7342 13.1048C10.3476 13.1047 10.0341 13.4181 10.0341 13.8047L10.0336 15.9137C10.0335 16.5413 10.5421 17.0501 11.1697 17.0503L12.2713 17.0505C13.1847 17.0507 13.9252 16.3105 13.9254 15.3971L13.9259 13.2009C13.9261 12.3048 13.1998 11.5781 12.3036 11.5779L10.7345 11.5776Z" fill="#4E5964"/>
</svg>
