<svg width="24" height="24" viewBox="0 0 24 24" fill="none" xmlns="http://www.w3.org/2000/svg">
<path d="M16.5051 2.25344C19.4045 2.25407 21.7544 4.60523 21.7539 7.50458L21.752 16.5046C21.7513 19.4041 19.4003 21.7541 16.5008 21.7534L7.5008 21.7515C4.6014 21.7507 2.25132 19.3997 2.25195 16.5003L2.25392 7.50032C2.25473 4.60103 4.60577 2.25093 7.50507 2.25146L16.5051 2.25344ZM5.89303 10.0001C5.73982 10.0002 5.63982 10.0701 5.59317 10.21L4.01276 16.2204C3.97302 16.36 4.01328 16.4303 4.13283 16.4304L5.09279 16.4296C5.15946 16.4296 5.20676 16.4163 5.23342 16.3896C5.26659 16.3563 5.2895 16.2995 5.3028 16.2197L5.58331 15.1202L7.53351 15.1196L7.81354 16.2203C7.82687 16.3001 7.84643 16.3569 7.87307 16.3902C7.89974 16.4169 7.95012 16.4303 8.02345 16.4303L8.98341 16.4305C9.10328 16.4304 9.14356 16.3595 9.10358 16.2196L7.52286 10.2105C7.48953 10.0705 7.38977 10.0004 7.2231 10.0004L5.89303 10.0001ZM10.1997 10.0001C10.0597 10.0001 9.98968 10.0701 9.98966 10.21L9.98932 16.2198C9.98932 16.3596 10.0595 16.4297 10.1992 16.4298L12.6699 16.4303C13.1898 16.4303 13.5934 16.2896 13.88 16.0097C14.1731 15.7231 14.3197 15.3196 14.3197 14.7998L14.3194 11.6299C14.3194 11.11 14.1726 10.7096 13.8793 10.4296C13.5926 10.1432 13.1891 9.99967 12.6694 9.99967L10.1997 10.0001ZM17.0073 9.99964C16.4874 9.99964 16.0808 10.1435 15.7875 10.43C15.4942 10.7167 15.3468 11.12 15.3468 11.6399L15.3467 11.9905C15.3467 12.4036 15.4237 12.7435 15.5769 13.0101C15.7369 13.27 15.9334 13.4471 16.1667 13.5405C16.3999 13.6271 16.6501 13.7004 16.9166 13.7604C17.1899 13.8137 17.444 13.8499 17.6773 13.8699C17.9105 13.8899 18.1041 13.9538 18.2574 14.0605C18.417 14.1604 18.4965 14.3069 18.4965 14.5L18.4965 14.6201C18.4965 14.8931 18.4436 15.0795 18.3372 15.1796C18.2372 15.2796 18.0571 15.3299 17.7971 15.3299L17.3274 15.3298C17.0607 15.3298 16.8767 15.2834 16.7767 15.19C16.6768 15.0967 16.6274 14.9234 16.6274 14.6705L16.6274 14.5904C16.6274 14.4505 16.5571 14.3805 16.4175 14.3804L15.5669 14.3802C15.4269 14.3802 15.3569 14.4501 15.3569 14.5901L15.3568 14.7903C15.3569 15.3102 15.5037 15.7137 15.797 16.0004C16.0902 16.2869 16.4969 16.4302 17.0166 16.4303L18.1074 16.4305C18.6272 16.4305 19.034 16.2867 19.3273 16.0001C19.6205 15.7135 19.7669 15.3101 19.767 14.7903L19.7671 14.4504C19.7671 14.0504 19.687 13.7233 19.527 13.4699C19.3737 13.21 19.1804 13.0297 18.9471 12.9298C18.5072 12.7498 18.0039 12.6372 17.4374 12.5906C16.8909 12.5439 16.6173 12.3635 16.6172 12.0503L16.6172 11.8599C16.6172 11.5601 16.6638 11.3604 16.757 11.2603C16.857 11.1537 17.0435 11.1003 17.3166 11.1003L17.7072 11.1004C17.9738 11.1004 18.157 11.1468 18.257 11.2401C18.357 11.3335 18.4073 11.5105 18.4073 11.7705L18.4073 11.83C18.4073 11.97 18.4772 12.04 18.6172 12.04L19.4668 12.0402C19.6067 12.0402 19.6767 11.9701 19.6768 11.8303L19.6768 11.6399C19.6768 11.12 19.53 10.7164 19.2367 10.4298C18.9434 10.1434 18.5336 9.99991 18.0073 9.99986L17.0073 9.99964ZM12.4592 11.1002C12.6724 11.1002 12.8227 11.1468 12.9094 11.24C13.0027 11.3266 13.0499 11.4768 13.0499 11.6902L13.0492 14.74C13.0492 14.9533 13.0028 15.1066 12.9095 15.1999C12.8228 15.2866 12.6726 15.3297 12.4592 15.3297L11.3694 15.3304C11.2962 15.3304 11.26 15.2933 11.26 15.2201L11.2599 11.2103C11.2599 11.1371 11.2962 11.1001 11.3693 11.1L12.4592 11.1002ZM6.58319 11.2102L7.30326 14.1001L5.82279 14.0997L6.54315 11.2102L6.58319 11.2102ZM6.53464 5.46121C6.26025 5.18682 5.82631 5.16945 5.53173 5.40924L5.4741 5.46098L5.46433 5.47074C5.17141 5.76353 5.17139 6.23832 5.4641 6.53129L5.47386 6.54204C5.76659 6.83461 6.24151 6.83464 6.53441 6.54227L6.54515 6.53153C6.83762 6.23875 6.83782 5.76382 6.54538 5.47098L6.53464 5.46121ZM8.54441 5.46165C8.27002 5.18726 7.83607 5.16991 7.54149 5.40968L7.48386 5.46142L7.47409 5.47118C7.18118 5.76397 7.18115 6.23876 7.47386 6.53173L7.48363 6.54248C7.77635 6.83508 8.25126 6.83509 8.54417 6.54271L8.55492 6.53197C8.84737 6.23918 8.8476 5.76425 8.55515 5.47142L8.54441 5.46165ZM10.0044 5.25201C9.59029 5.25192 9.25448 5.58775 9.25425 6.00185C9.25416 6.41606 9.58987 6.75192 10.0041 6.75201L18.0041 6.75376C18.4182 6.75377 18.7542 6.41809 18.7543 6.00393C18.7542 5.58988 18.4185 5.25394 18.0044 5.25376L10.0044 5.25201Z" fill="#4E5964"/>
</svg>
