<svg width="24" height="24" viewBox="0 0 24 24" fill="none" xmlns="http://www.w3.org/2000/svg">
<g clip-path="url(#clip0_3923_1097)">
<path d="M19.2841 19.93L15.0063 22.2351C13.1138 23.2549 10.8862 23.255 8.99373 22.2351L4.71595 19.93C2.43857 18.7028 1 16.1942 1 13.45V10.55C1 9.22333 1.33622 7.95173 1.9409 6.85336C2.58699 5.67977 3.53956 4.70394 4.71595 4.07002L8.99373 1.76485C10.7761 0.804396 12.8556 0.748502 14.6726 1.59717C14.8959 1.70147 15.0859 1.86378 15.2403 2.0558C15.7016 2.62906 15.7737 3.42033 15.5137 4.10865C15.2175 4.89293 14.9126 5.95966 15.0063 6.85336C15.1622 8.34008 15.8894 8.63551 16.5 10C18.3017 10.8708 20.2837 11.417 21.5796 11.7144C22.3933 11.9012 23 12.6152 23 13.45C23 16.1942 21.5614 18.7028 19.2841 19.93Z" fill="#4E5964"/>
<path d="M12 12.5928L1.9409 6.85336M12 12.5928V22.6696M12 12.5928C12 12.5928 15.2113 10.7978 16.5 10M1.9409 6.85336C2.58699 5.67977 3.53956 4.70394 4.71595 4.07002L8.99373 1.76485C10.7761 0.804396 12.8556 0.748502 14.6726 1.59717C14.8959 1.70147 15.0859 1.86378 15.2403 2.0558C15.7016 2.62906 15.7737 3.42033 15.5137 4.10865C15.2175 4.89293 14.9126 5.95966 15.0063 6.85336C15.1622 8.34008 15.8894 8.63551 16.5 10M1.9409 6.85336C1.33622 7.95173 1 9.22333 1 10.55V13.45C1 16.1942 2.43857 18.7028 4.71595 19.93L8.99373 22.2351C10.8862 23.255 13.1138 23.2549 15.0063 22.2351L19.2841 19.93C21.5614 18.7028 23 16.1942 23 13.45C23 12.6152 22.3933 11.9012 21.5796 11.7144C20.2837 11.417 18.3017 10.8708 16.5 10" stroke="#F9FAFB" stroke-width="1.5" stroke-linecap="round" stroke-linejoin="round"/>
<path d="M16 6L22 6" stroke="#4E5964" stroke-width="1.5" stroke-linecap="round" stroke-linejoin="round"/>
<path d="M19 9V3" stroke="#4E5964" stroke-width="1.5" stroke-linecap="round" stroke-linejoin="round"/>
</g>
<defs>
<clipPath id="clip0_3923_1097">
<rect width="24" height="24" fill="white"/>
</clipPath>
</defs>
</svg>
