<svg width="24" height="24" viewBox="0 0 24 24" fill="none" xmlns="http://www.w3.org/2000/svg">
<path d="M12 2.5C16.3088 2.5 19.75 6.12985 19.75 10.542C19.7499 13.2961 18.2237 16.015 16.6055 17.9951C15.7868 18.9969 14.917 19.8444 14.1475 20.4482C13.7635 20.7495 13.3916 20.9996 13.0537 21.1787C12.7411 21.3444 12.3655 21.5 12 21.5C11.6345 21.5 11.2589 21.3444 10.9463 21.1787C10.6084 20.9996 10.2365 20.7495 9.85254 20.4482C9.08298 19.8444 8.21322 18.9969 7.39453 17.9951C5.77625 16.015 4.25012 13.2961 4.25 10.542C4.25 6.12985 7.69123 2.5 12 2.5ZM12 6.875C11.5858 6.875 11.25 7.21079 11.25 7.625V9.5H9.375C8.96079 9.5 8.625 9.83579 8.625 10.25C8.625 10.6642 8.96079 11 9.375 11H11.25V12.875C11.25 13.2892 11.5858 13.625 12 13.625C12.4142 13.625 12.75 13.2892 12.75 12.875V11H14.625C15.0392 11 15.375 10.6642 15.375 10.25C15.375 9.83579 15.0392 9.5 14.625 9.5H12.75V7.625C12.75 7.21079 12.4142 6.875 12 6.875Z" fill="#4E5964"/>
</svg>
