<svg width="24" height="24" viewBox="0 0 24 24" fill="none" xmlns="http://www.w3.org/2000/svg">
<path d="M9.34951 2.41029C10.9233 1.58082 12.7532 1.53331 14.3552 2.26515C14.4557 2.31107 14.5589 2.39093 14.656 2.50891C14.9246 2.83547 14.9939 3.32697 14.8121 3.79776C14.5093 4.58183 14.1472 5.76256 14.2604 6.8179C14.3536 7.68727 14.6286 8.23188 14.9524 8.72276C15.0361 8.84965 15.1165 8.9649 15.1946 9.07674C15.3033 9.23264 15.4075 9.38191 15.5096 9.54691C14.8913 9.90546 14.1039 10.3479 13.3958 10.742C12.9152 11.0095 12.4746 11.2527 12.1541 11.4291L12.0032 11.5121L2.99013 6.48238C3.53724 5.72633 4.24454 5.10086 5.07174 4.66488L9.34951 2.41029Z" fill="#4E5964"/>
<path d="M14.1376 12.0171C14.9464 11.567 15.8787 11.0427 16.5462 10.6503C18.3145 11.4369 20.1791 11.9341 21.4119 12.2108C21.9084 12.3223 22.25 12.7418 22.25 13.1934C22.25 15.6279 20.9451 17.8225 18.9283 18.8854L14.6505 21.14C14.0458 21.4587 13.4031 21.662 12.75 21.75V12.7845L12.8897 12.7077C13.2116 12.5305 13.6544 12.2861 14.1376 12.0171Z" fill="#4E5964"/>
<path d="M11.25 21.75V12.7809L2.26844 7.76874C1.93288 8.56791 1.75 9.44684 1.75 10.3569V13.1934C1.75 15.6279 3.05495 17.8225 5.07174 18.8854L9.34952 21.14C9.9542 21.4587 10.5969 21.662 11.25 21.75Z" fill="#4E5964"/>
<path d="M20.7524 3.95135C20.7528 3.54622 20.4174 3.21749 20.0032 3.2171C19.5889 3.2167 19.2528 3.54481 19.2524 3.94993L19.2512 5.17301L18.0007 5.17183C17.5865 5.17144 17.2504 5.49954 17.25 5.90467C17.2496 6.30979 17.5851 6.63853 17.9993 6.63892L19.2498 6.6401L19.2486 7.86219C19.2482 8.26731 19.5836 8.59605 19.9979 8.59644C20.4121 8.59683 20.7482 8.26873 20.7486 7.8636L20.7498 6.64152L21.9993 6.6427C22.4135 6.64309 22.7496 6.31499 22.75 5.90986C22.7504 5.50473 22.4149 5.17599 22.0007 5.1756L20.7512 5.17442L20.7524 3.95135Z" fill="#4E5964"/>
</svg>
