<svg width="24" height="24" viewBox="0 0 24 24" fill="none" xmlns="http://www.w3.org/2000/svg">
<path d="M9.34951 2.42509C10.9233 1.57703 12.7532 1.52845 14.3552 2.2767C14.4557 2.32365 14.5589 2.40531 14.656 2.52593C14.9246 2.85982 14.9939 3.36234 14.8121 3.84369C14.5093 4.64535 14.1472 5.85256 14.2604 6.93157C14.3536 7.82044 14.6286 8.37726 14.9524 8.87915C15.0361 9.00889 15.1165 9.12672 15.1946 9.24107C15.3033 9.40046 15.4075 9.55309 15.5096 9.72178C14.8913 10.0884 14.1039 10.5408 13.3958 10.9437C12.9152 11.2172 12.4746 11.4659 12.1541 11.6462L12.0032 11.7311L2.99013 6.58852C3.53724 5.81551 4.24454 5.17601 5.07174 4.73026L9.34951 2.42509Z" fill="#4E5964"/>
<path d="M14.1376 12.2474C14.9464 11.7872 15.8787 11.2511 16.5462 10.8499C18.3145 11.6542 20.1791 12.1625 21.4119 12.4454C21.9084 12.5594 22.25 12.9883 22.25 13.45C22.25 15.9391 20.9451 18.183 18.9283 19.2697L14.6505 21.5749C14.0458 21.9008 13.4031 22.1086 12.75 22.1986V13.032L12.8897 12.9534C13.2116 12.7723 13.6544 12.5224 14.1376 12.2474Z" fill="#4E5964"/>
<path d="M11.25 22.1986V13.0283L2.26844 7.90373C1.93288 8.72083 1.75 9.61947 1.75 10.55V13.45C1.75 15.9391 3.05495 18.183 5.07174 19.2697L9.34952 21.5749C9.9542 21.9008 10.5969 22.1086 11.25 22.1986Z" fill="#4E5964"/>
<path d="M20.7524 4.00072C20.7528 3.58651 20.4174 3.2504 20.0032 3.25C19.5889 3.2496 19.2528 3.58506 19.2524 3.99928L19.2512 5.24978L18.0007 5.24858C17.5865 5.24818 17.2504 5.58364 17.25 5.99785C17.2496 6.41206 17.5851 6.74817 17.9993 6.74857L19.2498 6.74978L19.2486 7.99927C19.2482 8.41349 19.5836 8.7496 19.9979 8.75C20.4121 8.7504 20.7482 8.41494 20.7486 8.00072L20.7498 6.75123L21.9993 6.75244C22.4135 6.75283 22.7496 6.41737 22.75 6.00316C22.7504 5.58895 22.4149 5.25284 22.0007 5.25244L20.7512 5.25123L20.7524 4.00072Z" fill="#4E5964"/>
</svg>
