<svg width="24" height="25" viewBox="0 0 24 25" fill="none" xmlns="http://www.w3.org/2000/svg">
<path d="M17.9597 18.4882L14.4597 20.3742C13.9736 20.6362 13.4605 20.8159 12.9373 20.9133C12.8352 20.9324 12.75 20.8335 12.75 20.7297V13.447C12.75 13.1047 12.9251 12.7861 13.2141 12.6027L16.0019 10.8332C16.0115 10.8271 16.021 10.8208 16.0303 10.8143L16.0907 10.772C16.4231 10.5392 16.8632 10.5303 17.2047 10.7496L20.5403 12.8912C20.8268 13.0752 21.0057 13.393 20.9767 13.7322C20.8032 15.7599 19.6708 17.5661 17.9597 18.4882Z" fill="#4E5964"/>
<path d="M11.25 20.7297C11.25 20.8335 11.1648 20.9324 11.0627 20.9133C10.5395 20.8159 10.0264 20.6362 9.54033 20.3742L6.04032 18.4882C4.17701 17.4841 3 15.4316 3 13.1864V10.8136C3 10.39 3.0419 9.9732 3.12242 9.56903C3.24102 8.97366 3.91885 8.73764 4.44613 9.03849L10.7456 12.6327C11.0575 12.8107 11.25 13.1422 11.25 13.5013V20.7297Z" fill="#4E5964"/>
<path d="M12.4878 11.287C12.175 11.4856 11.7781 11.4949 11.4564 11.3113L5.14263 7.7089C4.62501 7.41356 4.47526 6.72591 4.91219 6.32064C5.25129 6.0061 5.62909 5.73344 6.04032 5.51183L9.54033 3.62579C11.0887 2.7914 12.9113 2.7914 14.4597 3.62579L15.1361 4.05539C15.425 4.23886 15.6 4.55731 15.6 4.89954V8.77609C15.6 9.09464 15.4446 9.39317 15.1837 9.57592L12.4878 11.287Z" fill="#4E5964"/>
<path d="M19.75 5.5C19.75 5.08579 19.4142 4.75 19 4.75C18.5858 4.75 18.25 5.08579 18.25 5.5V6.75H17C16.5858 6.75 16.25 7.08579 16.25 7.5C16.25 7.91421 16.5858 8.25 17 8.25H18.25V9.5C18.25 9.91421 18.5858 10.25 19 10.25C19.4142 10.25 19.75 9.91421 19.75 9.5V8.25H21C21.4142 8.25 21.75 7.91421 21.75 7.5C21.75 7.08579 21.4142 6.75 21 6.75H19.75V5.5Z" fill="#4E5964"/>
</svg>
