<svg width="24" height="24" viewBox="0 0 24 24" fill="none" xmlns="http://www.w3.org/2000/svg">
<g clip-path="url(#clip0_3923_1097)">
<path d="M19.2841 19.93L15.0063 22.2351C13.1138 23.2549 10.8862 23.255 8.99373 22.2351L4.71595 19.93C2.43857 18.7028 1 16.1942 1 13.45V10.55C1 9.22333 1.33622 7.95173 1.9409 6.85336C2.58699 5.67977 3.53956 4.70394 4.71595 4.07002L8.99373 1.76485C10.7761 0.804396 12.8556 0.748502 14.6726 1.59717C14.8959 1.70147 15.0859 1.86378 15.2403 2.0558C15.7016 2.62906 15.7737 3.42033 15.5137 4.10865C15.2175 4.89293 14.9126 5.95966 15.0063 6.85336C15.1622 8.34008 15.8894 8.63551 16.5 10C18.3017 10.8708 20.2837 11.417 21.5796 11.7144C22.3933 11.9012 23 12.6152 23 13.45C23 16.1942 21.5614 18.7028 19.2841 19.93Z" fill="#F50800"/>
<path fill-rule="evenodd" clip-rule="evenodd" d="M14.3552 2.2767C12.7532 1.52845 10.9233 1.57703 9.34951 2.4251L5.07174 4.73026C4.24454 5.17601 3.53724 5.81552 2.99013 6.58852L12.0032 11.7311C12.0498 11.7049 12.1003 11.6765 12.1541 11.6462C12.4746 11.4659 12.9152 11.2172 13.3958 10.9437C14.1039 10.5408 14.8913 10.0884 15.5096 9.72179C15.4075 9.55309 15.3033 9.40046 15.1946 9.24107C15.1165 9.12672 15.0361 9.00889 14.9524 8.87915C14.6286 8.37726 14.3536 7.82044 14.2604 6.93157C14.1472 5.85256 14.5093 4.64535 14.8121 3.84369C14.9939 3.36234 14.9246 2.85982 14.656 2.52593L15.2297 2.06438L14.656 2.52593C14.5589 2.40531 14.4557 2.32365 14.3552 2.2767ZM16.5462 10.8499C15.8787 11.2511 14.9464 11.7872 14.1376 12.2474C13.6544 12.5224 13.2116 12.7723 12.8897 12.9534C12.8402 12.9813 12.7935 13.0075 12.75 13.032V22.1986C13.4031 22.1086 14.0458 21.9008 14.6505 21.5749L18.9283 19.2697C20.9451 18.183 22.25 15.9391 22.25 13.45C22.25 12.9883 21.9084 12.5594 21.4119 12.4454C20.1791 12.1625 18.3145 11.6542 16.5462 10.8499ZM11.25 22.1986V13.0283L2.26844 7.90373C1.93288 8.72083 1.75 9.61947 1.75 10.55V13.45C1.75 15.9391 3.05495 18.183 5.07174 19.2697L9.34952 21.5749C9.9542 21.9008 10.5969 22.1086 11.25 22.1986ZM17.0628 9.43661C18.7281 10.208 20.533 10.7047 21.7474 10.9834C22.8783 11.243 23.75 12.242 23.75 13.45C23.75 16.4492 22.1778 19.2226 19.6398 20.5902L15.3621 22.8954C13.2475 24.0349 10.7525 24.0349 8.63795 22.8954L4.36017 20.5902C1.8222 19.2226 0.25 16.4492 0.25 13.45V10.55C0.25 9.09686 0.618205 7.70084 1.28389 6.49166C1.99513 5.19972 3.04886 4.1164 4.36017 3.40978L8.63795 1.10461C10.6289 0.0317661 12.958 -0.0314468 14.99 0.917645L14.675 1.59211L14.99 0.917645C15.3361 1.07929 15.6128 1.32225 15.8247 1.58566L15.2403 2.0558L15.8247 1.58566C16.4785 2.3983 16.5534 3.47832 16.2154 4.37362C15.9257 5.14051 15.6779 6.06677 15.7522 6.77515C15.8149 7.373 15.9814 7.70725 16.2128 8.06588C16.2651 8.14689 16.3252 8.23479 16.3908 8.33068C16.5873 8.6179 16.8328 8.97679 17.0628 9.43661Z" fill="#F9FAFB"/>
<path fill-rule="evenodd" clip-rule="evenodd" d="M15.25 6C15.25 5.58579 15.5858 5.25 16 5.25L22 5.25C22.4142 5.25 22.75 5.58579 22.75 6C22.75 6.41421 22.4142 6.75 22 6.75L16 6.75C15.5858 6.75 15.25 6.41421 15.25 6Z" fill="#F50800"/>
<path fill-rule="evenodd" clip-rule="evenodd" d="M19 2.25C19.4142 2.25 19.75 2.58579 19.75 3V9C19.75 9.41421 19.4142 9.75 19 9.75C18.5858 9.75 18.25 9.41421 18.25 9V3C18.25 2.58579 18.5858 2.25 19 2.25Z" fill="#F50800"/>
</g>
<defs>
<clipPath id="clip0_3923_1097">
<rect width="24" height="24" fill="white"/>
</clipPath>
</defs>
</svg>
