<svg width="24" height="24" viewBox="0 0 24 24" fill="none" xmlns="http://www.w3.org/2000/svg">
<path d="M15.75 15.125C13.0889 17.9257 6.20374 11.0614 8.875 8.25C10.506 6.53344 9.0107 4.38563 7.99089 2.94371C6.07693 0.237529 1.87524 3.97379 2.00284 6.35049C2.40525 13.8454 10.5128 22.7273 18.3639 21.9527C20.8201 21.7103 23.642 17.2746 20.8248 15.6535L20.7873 15.632C19.3776 14.8206 17.2194 13.5785 15.75 15.125Z" fill="#4E5964"/>
<path d="M14.25 7.49609C14.25 7.08188 14.5858 6.74609 15 6.74609H15.7461V6C15.7461 5.58579 16.0819 5.25 16.4961 5.25C16.9103 5.25 17.2461 5.58579 17.2461 6V6.74609H17.9937C18.4079 6.74609 18.7437 7.08188 18.7437 7.49609C18.7437 7.91031 18.4079 8.24609 17.9937 8.24609H17.2461V8.99368C17.2461 9.4079 16.9103 9.74368 16.4961 9.74368C16.0819 9.74368 15.7461 9.4079 15.7461 8.99368V8.24609H15C14.5858 8.24609 14.25 7.91031 14.25 7.49609Z" fill="#4E5964"/>
</svg>
