<svg width="24" height="24" viewBox="0 0 24 24" fill="none" xmlns="http://www.w3.org/2000/svg">
<path d="M17.9597 18.2074L14.4597 20.0934C13.9736 20.3554 13.4605 20.5351 12.9373 20.6326C12.8352 20.6516 12.75 20.5528 12.75 20.4489V13.1662C12.75 12.8239 12.9251 12.5054 13.2141 12.3219L16.0019 10.5525C16.0115 10.5464 16.021 10.5401 16.0303 10.5336L16.0907 10.4912C16.4231 10.2584 16.8632 10.2495 17.2047 10.4688L20.5403 12.6105C20.8268 12.7944 21.0057 13.1122 20.9767 13.4514C20.8032 15.4791 19.6708 17.2853 17.9597 18.2074Z" fill="#4E5964"/>
<path d="M11.25 20.4489C11.25 20.5528 11.1648 20.6516 11.0627 20.6326C10.5395 20.5351 10.0264 20.3554 9.54033 20.0935L6.04032 18.2074C4.17701 17.2033 3 15.1508 3 12.9056V10.5328C3 10.1092 3.0419 9.69244 3.12242 9.28827C3.24102 8.6929 3.91885 8.45688 4.44613 8.75772L10.7456 12.352C11.0575 12.5299 11.25 12.8615 11.25 13.2206V20.4489Z" fill="#4E5964"/>
<path d="M12.4878 11.0063C12.175 11.2048 11.7781 11.2141 11.4564 11.0306L5.14263 7.42814C4.62501 7.1328 4.47526 6.44515 4.91219 6.03988C5.25129 5.72534 5.62909 5.45267 6.04032 5.23107L9.54033 3.34503C11.0887 2.51064 12.9113 2.51064 14.4597 3.34503L15.1361 3.77463C15.425 3.9581 15.6 4.27655 15.6 4.61877V8.49532C15.6 8.81388 15.4446 9.11241 15.1837 9.29516L12.4878 11.0063Z" fill="#4E5964"/>
<path d="M19.75 5.21924C19.75 4.80502 19.4142 4.46924 19 4.46924C18.5858 4.46924 18.25 4.80502 18.25 5.21924V6.46924H17C16.5858 6.46924 16.25 6.80502 16.25 7.21924C16.25 7.63345 16.5858 7.96924 17 7.96924H18.25V9.21924C18.25 9.63345 18.5858 9.96924 19 9.96924C19.4142 9.96924 19.75 9.63345 19.75 9.21924V7.96924H21C21.4142 7.96924 21.75 7.63345 21.75 7.21924C21.75 6.80502 21.4142 6.46924 21 6.46924H19.75V5.21924Z" fill="#4E5964"/>
</svg>
