<svg width="24" height="24" viewBox="0 0 24 24" fill="none" xmlns="http://www.w3.org/2000/svg">
<path d="M9.55491 5.10634C10.1795 3.96411 11.821 3.96411 12.4455 5.10634L14.0471 8.03505C14.4901 8.84476 15.1554 9.51003 15.9651 9.95302L18.8938 11.5546C20.036 12.1792 20.036 13.8206 18.8938 14.4452L15.9651 16.0468C15.1554 16.4897 14.4901 17.155 14.0471 17.9647L12.4455 20.8934C11.821 22.0357 10.1795 22.0357 9.55491 20.8934L7.95335 17.9647C7.51037 17.155 6.8451 16.4897 6.03538 16.0468L3.10667 14.4452C1.96444 13.8206 1.96444 12.1792 3.10667 11.5546L6.03538 9.95302C6.8451 9.51003 7.51037 8.84476 7.95335 8.03505L9.55491 5.10634Z" fill="#4E5964"/>
<path fill-rule="evenodd" clip-rule="evenodd" d="M18.9534 2.81532C18.5672 2.10882 17.592 2.06449 17.1321 2.68251L17.0471 2.81532L16.4465 3.91298C16.3234 4.13801 16.1383 4.32307 15.9133 4.44618L14.8157 5.04677C14.062 5.45873 14.062 6.54105 14.8157 6.95302L15.9133 7.5536C16.1383 7.67672 16.3234 7.86177 16.4465 8.08681L17.0471 9.18446L17.1321 9.31727C17.592 9.93529 18.5672 9.89096 18.9534 9.18446L19.5539 8.08681C19.677 7.86177 19.8621 7.67672 20.0871 7.5536L21.1848 6.95302L21.3176 6.86806C21.8943 6.43883 21.8943 5.56096 21.3176 5.13173L21.1848 5.04677L20.0871 4.44618C19.8621 4.32307 19.677 4.13801 19.5539 3.91298L18.9534 2.81532Z" fill="#4E5964"/>
</svg>
