<svg width="24" height="24" viewBox="0 0 24 24" fill="none" xmlns="http://www.w3.org/2000/svg">
<path d="M9.55474 4.10639C10.1793 2.96419 11.8208 2.96425 12.4454 4.10639L14.0469 7.0351C14.4899 7.84476 15.1553 8.51009 15.9649 8.95307L18.8936 10.5546C20.0358 11.1792 20.0358 12.8207 18.8936 13.4453L15.9649 15.0468C15.1553 15.4898 14.4899 16.1551 14.0469 16.9648L12.4454 19.8935C11.8207 21.0356 10.1793 21.0357 9.55474 19.8935L7.95318 16.9648C7.5102 16.1551 6.8449 15.4898 6.03521 15.0468L3.1065 13.4453C1.9645 12.8207 1.96451 11.1793 3.1065 10.5546L6.03521 8.95307C6.84489 8.51011 7.5102 7.84477 7.95318 7.0351L9.55474 4.10639Z" fill="#4E5964"/>
<path d="M16.3106 17.5937C16.6512 17.1354 17.3488 17.1355 17.6895 17.5937L17.7569 17.6982L17.9493 18.0498L18.3018 18.2431C18.8998 18.5701 18.8998 19.4298 18.3018 19.7568L17.9493 19.9492L17.7569 20.3017C17.4299 20.8996 16.5702 20.8997 16.2432 20.3017L16.0499 19.9492L15.6983 19.7568C15.1006 19.4298 15.1006 18.5701 15.6983 18.2431L16.0499 18.0498L16.2432 17.6982L16.3106 17.5937Z" fill="#4E5964"/>
<path d="M17.5958 2.78608C17.962 2.11609 18.887 2.07413 19.3233 2.6601L19.4043 2.78608L19.9043 3.70112C19.9955 3.86763 20.1324 4.00454 20.2989 4.09565L21.2139 4.59565C21.9287 4.98638 21.9287 6.01354 21.2139 6.40424L20.2989 6.90424C20.1323 6.99536 19.9955 7.13224 19.9043 7.29878L19.4043 8.21381C19.0136 8.92858 17.9865 8.92856 17.5958 8.21381L17.0958 7.29878C17.0046 7.13225 16.8677 6.99536 16.7012 6.90424L15.7862 6.40424C15.0714 6.01353 15.0714 4.98636 15.7862 4.59565L16.7012 4.09565C16.8678 4.00454 17.0046 3.86764 17.0958 3.70112L17.5958 2.78608Z" fill="#4E5964"/>
</svg>
