<svg width="24" height="24" viewBox="0 0 24 24" fill="none" xmlns="http://www.w3.org/2000/svg">
<path d="M16.5 2.25C19.3995 2.25 21.75 4.60051 21.75 7.5V16.5C21.75 19.3995 19.3995 21.75 16.5 21.75H7.5C4.60051 21.75 2.25 19.3995 2.25 16.5V7.5C2.25 4.60051 4.60051 2.25 7.5 2.25H16.5ZM15.584 7.25C15.1699 7.25017 14.834 7.58589 14.834 8V16C14.834 16.4141 15.1699 16.7498 15.584 16.75C15.998 16.7498 16.334 16.4141 16.334 16V8C16.334 7.58592 15.998 7.25022 15.584 7.25ZM9.91797 7.25C9.63545 7.25 9.38057 7.40854 9.25293 7.65332L9.20605 7.7627L6.53906 15.7627C6.40808 16.1557 6.62071 16.5809 7.01367 16.7119C7.40653 16.8427 7.83194 16.6301 7.96289 16.2373L8.53223 14.5283H11.3037L11.873 16.2373C12.0041 16.63 12.4285 16.8427 12.8213 16.7119C13.214 16.5808 13.4268 16.1555 13.2959 15.7627L10.6289 7.7627C10.5268 7.45678 10.2404 7.25031 9.91797 7.25ZM10.8037 13.0283H9.03223L9.91699 10.3711L10.8037 13.0283Z" fill="#4E5964"/>
</svg>
