<svg width="24" height="24" viewBox="0 0 24 24" fill="none" xmlns="http://www.w3.org/2000/svg">
<path fill-rule="evenodd" clip-rule="evenodd" d="M7.5 2.25C4.60051 2.25 2.25 4.60051 2.25 7.5V16.5C2.25 19.3995 4.60051 21.75 7.5 21.75H16.5C19.3995 21.75 21.75 19.3995 21.75 16.5V7.5C21.75 4.60051 19.3995 2.25 16.5 2.25H7.5ZM16 7.25C16.4142 7.25 16.75 7.58579 16.75 8V16C16.75 16.4142 16.4142 16.75 16 16.75C15.5858 16.75 15.25 16.4142 15.25 16V8C15.25 7.58579 15.5858 7.25 16 7.25ZM7.25 8C7.25 7.58579 7.58579 7.25 8 7.25H12.7086C13.2837 7.25 13.75 7.71626 13.75 8.29143V16C13.75 16.4142 13.4142 16.75 13 16.75C12.5858 16.75 12.25 16.4142 12.25 16V12.75H8.75V16C8.75 16.4142 8.41421 16.75 8 16.75C7.58579 16.75 7.25 16.4142 7.25 16V12.0003V11C7.25 10.5858 7.58579 10.25 8 10.25C8.41421 10.25 8.75 10.5858 8.75 11V11.25H12.25V8.75H8C7.58579 8.75 7.25 8.41421 7.25 8Z" fill="#4E5964"/>
</svg>
