<svg width="24" height="24" viewBox="0 0 24 24" fill="none" xmlns="http://www.w3.org/2000/svg">
<path d="M16.5 2.25C19.3995 2.25 21.75 4.60051 21.75 7.5V16.5C21.75 19.3995 19.3995 21.75 16.5 21.75H7.5C4.60051 21.75 2.25 19.3995 2.25 16.5V7.5C2.25 4.60051 4.60051 2.25 7.5 2.25H16.5ZM9.27441 8C9.09044 8 8.97007 8.08399 8.91406 8.25195L7.01758 15.4639C6.96958 15.6319 7.01811 15.7158 7.16211 15.7158H8.31445C8.39421 15.7158 8.45048 15.6999 8.48242 15.668C8.5223 15.6279 8.55044 15.5597 8.56641 15.4639L8.90234 14.1436H11.2422L11.5781 15.4639C11.5941 15.5599 11.6184 15.628 11.6504 15.668C11.6824 15.6998 11.7422 15.7158 11.8301 15.7158H12.9824C13.1261 15.7157 13.1739 15.6317 13.126 15.4639L11.2305 8.25195C11.1905 8.08399 11.07 8.00003 10.8701 8H9.27441ZM14.502 8C14.334 8 14.25 8.08398 14.25 8.25195V15.4639C14.25 15.6319 14.334 15.7158 14.502 15.7158H15.5215C15.6895 15.7158 15.7734 15.6319 15.7734 15.4639V8.25195C15.7734 8.08398 15.6895 8 15.5215 8H14.502ZM10.1016 9.45215L10.9658 12.9199H9.19043L10.0537 9.45215H10.1016Z" fill="#4E5964"/>
</svg>
