<svg width="24" height="24" viewBox="0 0 24 24" fill="none" xmlns="http://www.w3.org/2000/svg">
<path fill-rule="evenodd" clip-rule="evenodd" d="M10.0005 21C9.64003 21 9.30745 20.8182 9.12987 20.5242C8.95228 20.2301 8.95713 19.8693 9.14256 19.5795L11.1421 16.4553C11.3229 16.1728 11.6485 16 12 16C12.3514 16 12.6771 16.1728 12.8579 16.4553L14.8574 19.5795C15.0429 19.8693 15.0477 20.2301 14.8701 20.5242C14.6925 20.8182 14.3599 21 13.9995 21H10.0005Z" fill="#4E5964"/>
<path d="M3 14.5V7.5C3 5.01472 5.01472 3 7.5 3H12H16.5C18.9853 3 21 5.01472 21 7.5V14.5C21 16.433 19.433 18 17.5 18H15L13.6647 15.9947C12.8732 14.806 11.1268 14.806 10.3353 15.9947L9 18H6.5C4.567 18 3 16.433 3 14.5Z" fill="#4E5964"/>
</svg>
