<svg width="24" height="24" viewBox="0 0 24 24" fill="none" xmlns="http://www.w3.org/2000/svg">
<path fill-rule="evenodd" clip-rule="evenodd" d="M16.5012 2.19995C19.4283 2.19995 21.8012 4.57284 21.8012 7.49995V13.5C21.8012 16.4271 19.4283 18.8 16.5012 18.8H15.249L13.4896 16.051C13.1631 15.541 12.5924 15.2499 12 15.2499C11.4075 15.2499 10.8368 15.541 10.5104 16.051L8.75099 18.8H6.50117C4.12635 18.8 2.20117 16.8748 2.20117 14.5V7.49995C2.20117 4.57284 4.57406 2.19995 7.50117 2.19995H16.5012ZM10.5319 18.8H8.75099L8.51086 19.1751C8.1718 19.705 8.16238 20.3729 8.48787 20.9118C8.8092 21.4439 9.3931 21.7499 10.0004 21.7499H13.9995C14.6068 21.7499 15.1908 21.4439 15.5121 20.9119C15.8376 20.3729 15.8282 19.705 15.4891 19.1751L15.249 18.8H13.4681L12.2262 16.8596C12.191 16.8046 12.1104 16.7499 12 16.7499C11.8896 16.7499 11.809 16.8046 11.7738 16.8596L10.5319 18.8ZM10.5319 18.8L9.77428 19.9837C9.74249 20.0334 9.74218 20.0872 9.77186 20.1364C9.8057 20.1924 9.88694 20.2499 10.0005 20.2499H13.9995C14.113 20.2499 14.1943 20.1924 14.2281 20.1364C14.2578 20.0872 14.2575 20.0334 14.2257 19.9837L13.4681 18.8H10.5319Z" fill="#4E5964"/>
</svg>
