<svg width="24" height="24" viewBox="0 0 24 24" fill="none" xmlns="http://www.w3.org/2000/svg">
<path fill-rule="evenodd" clip-rule="evenodd" d="M14.2784 2.69985C14.8706 2.67219 15.3623 3.16268 15.3311 3.75747L15.3163 3.88651L15.2619 4.16687C15.1983 4.47682 15.1048 4.86686 14.9727 5.2618C14.8026 5.76991 14.5412 6.37458 14.1349 6.81054L12.745 8.30121C12.7656 8.74427 12.614 9.19484 12.2855 9.54305L8.02884 14.0541C7.67809 14.4256 7.13499 14.5053 6.70064 14.2857L5.69837 15.3607L5.77551 15.4326C6.07845 15.7151 6.09508 16.1897 5.81262 16.4926C5.53012 16.7953 5.05546 16.8121 4.7526 16.5297L1.98839 13.9525C1.68554 13.6701 1.66912 13.1954 1.95129 12.8925C2.23376 12.5895 2.70834 12.5729 3.0113 12.8554L3.17558 13.0085L4.15454 11.9586C3.8032 11.5285 3.81381 10.8951 4.20289 10.4775L8.43437 5.93908C8.799 5.548 9.30545 5.36828 9.80035 5.40484L11.1149 3.99487C11.5439 3.53499 12.1833 3.2508 12.7085 3.07195C13.2579 2.8849 13.8054 2.77331 14.1504 2.714L14.2784 2.69985ZM4.2727 14.0314L4.60126 14.3378L5.57222 13.2964L5.24366 12.99L4.2727 14.0314ZM13.6783 4.34874C13.5198 4.3898 13.3541 4.43615 13.1914 4.49154C12.7217 4.65149 12.3788 4.83921 12.2121 5.01778L11.1519 6.15489L11.9776 6.92474L13.0378 5.78763C13.2208 5.59113 13.3996 5.23505 13.5499 4.78578C13.5989 4.63925 13.6408 4.49098 13.6783 4.34874Z" fill="#4E5964"/>
<path fill-rule="evenodd" clip-rule="evenodd" d="M19.9804 8.01617C20.5726 7.98869 21.0645 8.47899 21.0331 9.0738L21.0183 9.20284L20.9639 9.4832C20.9003 9.79319 20.8068 10.1831 20.6747 10.5781C20.5046 11.0862 20.2432 11.6909 19.8369 12.1269L18.447 13.6175C18.4676 14.0606 18.3159 14.5112 17.9875 14.8594L13.7308 19.3704C13.3799 19.7421 12.8364 19.8213 12.4019 19.6014L11.3996 20.6764L11.4775 20.7489C11.7802 21.0314 11.797 21.5061 11.5146 21.809C11.2322 22.1115 10.7575 22.1281 10.4546 21.8461L7.69038 19.2688C7.38751 18.9864 7.37107 18.5118 7.65328 18.2088C7.93575 17.9058 8.41033 17.8892 8.71329 18.1717L8.87686 18.3242L9.85581 17.2742C9.5051 16.8442 9.51603 16.2112 9.90488 15.7939L14.1364 11.2554C14.501 10.8643 15.0074 10.6846 15.5023 10.7212L16.8169 9.3112C17.2459 8.85132 17.8853 8.56712 18.4105 8.38827C18.9598 8.20126 19.5074 8.08963 19.8524 8.03033L19.9804 8.01617ZM10.9449 18.3057L9.97397 19.3471L10.3025 19.6534L11.2735 18.612L10.9449 18.3057ZM19.3803 9.66507C19.2218 9.70611 19.056 9.75251 18.8934 9.80787C18.4237 9.96782 18.0807 10.1555 17.9141 10.3341L16.8539 11.4712L17.6795 12.2411L18.7397 11.104C18.9228 10.9075 19.1016 10.5514 19.2519 10.1021C19.301 9.95553 19.3428 9.80736 19.3803 9.66507Z" fill="#4E5964"/>
</svg>
