<svg width="24" height="24" viewBox="0 0 24 24" fill="none" xmlns="http://www.w3.org/2000/svg">
<path fill-rule="evenodd" clip-rule="evenodd" d="M15.373 3.58323C15.7874 3.15939 16.4816 3.18244 16.8643 3.6389L16.9414 3.74339L17.0928 3.98558C17.2577 4.25565 17.4552 4.60458 17.6279 4.98362C17.6665 5.06827 17.7019 5.15841 17.7393 5.25023H18.375C19.9628 5.25023 21.25 6.53741 21.25 8.12523V12.8752C21.25 14.4056 20.0541 15.6529 18.5459 15.7414L18.5439 16.1496C18.5408 16.6606 18.1979 17.0892 17.7305 17.2248V18.6946H17.8359C18.2502 18.6946 18.5859 19.0303 18.5859 19.4446C18.5857 19.8586 18.25 20.1946 17.8359 20.1946H14.0566C13.6427 20.1943 13.3069 19.8585 13.3066 19.4446C13.3066 19.0305 13.6426 18.6948 14.0566 18.6946H14.2812V17.258C13.7312 17.1829 13.3068 16.7133 13.3066 16.1428V15.7502H10.9893L10.9873 16.1496C10.9841 16.6606 10.6412 17.0892 10.1738 17.2248V18.6946H10.2793C10.6935 18.6946 11.0293 19.0303 11.0293 19.4446C11.0291 19.8586 10.6934 20.1946 10.2793 20.1946H6.5C6.08592 20.1946 5.75022 19.8586 5.75 19.4446C5.75 19.0303 6.08579 18.6946 6.5 18.6946H6.72461V17.259C6.1744 17.1841 5.75017 16.7135 5.75 16.1428V15.7502H5.625C4.03718 15.7502 2.75 14.463 2.75 12.8752V8.12523C2.75001 6.53741 4.03719 5.25023 5.625 5.25023H6.75879C6.81176 5.13668 6.86637 5.0277 6.9209 4.92601C7.19521 4.41451 7.51957 3.95953 7.73145 3.68089L7.81543 3.58323C8.22971 3.15918 8.92383 3.18262 9.30664 3.6389L9.38379 3.74339L9.53516 3.98558C9.70006 4.2556 9.89764 4.60466 10.0703 4.98362C10.1089 5.06831 10.1453 5.15837 10.1826 5.25023H14.3164C14.3693 5.13676 14.424 5.02764 14.4785 4.92601C14.7528 4.41461 15.0772 3.95949 15.2891 3.68089L15.373 3.58323ZM8.22461 18.6946H8.67383V17.2707H8.22461V18.6946ZM15.7812 18.6946H16.2305V17.2707H15.7812V18.6946ZM10.5137 6.75023V8.72581C10.8308 9.03585 11.0272 9.46879 11.0244 9.94749L10.999 14.2502H13.3066V9.93773C13.3066 9.40332 13.5548 8.9272 13.9414 8.61644L13.9424 6.75023H10.5137ZM5.625 6.75023C4.86561 6.75023 4.25001 7.36584 4.25 8.12523V12.8752C4.25 13.6346 4.86561 14.2502 5.625 14.2502H5.75V9.93773C5.75 9.40303 5.99786 8.92621 6.38477 8.61546V6.75023H5.625ZM18.0703 8.72581C18.3875 9.03585 18.5839 9.46879 18.5811 9.94749L18.5547 14.2366C19.229 14.1484 19.75 13.5736 19.75 12.8752V8.12523C19.75 7.36584 19.1344 6.75023 18.375 6.75023H18.0713L18.0703 8.72581ZM8.50098 5.19847C8.41298 5.33664 8.3234 5.48354 8.24219 5.63499C8.00777 6.07223 7.88491 6.44344 7.88477 6.68773V8.24241H9.01367V6.68773C9.01355 6.41918 8.90148 6.03682 8.70508 5.60569C8.64101 5.4651 8.57051 5.3281 8.50098 5.19847ZM16.0586 5.19847C15.9706 5.33657 15.881 5.48363 15.7998 5.63499C15.5654 6.07223 15.4425 6.44344 15.4424 6.68773L15.4414 8.24241H16.5703L16.5713 6.68773C16.5712 6.41918 16.4591 6.03682 16.2627 5.60569C16.1986 5.46503 16.1282 5.32817 16.0586 5.19847Z" fill="#4E5964"/>
</svg>
