<svg width="24" height="24" viewBox="0 0 24 24" fill="none" xmlns="http://www.w3.org/2000/svg">
<g clip-path="url(#clip0_14370_29188)">
<path fill-rule="evenodd" clip-rule="evenodd" d="M14.2784 2.69936C14.8706 2.6717 15.3623 3.1622 15.3311 3.75699L15.3163 3.88602L15.2619 4.16638C15.1983 4.47633 15.1048 4.86638 14.9727 5.26131C14.8026 5.76942 14.5412 6.37409 14.1349 6.81005L12.745 8.30072C12.7656 8.74378 12.614 9.19436 12.2855 9.54256L8.02884 14.0536C7.67809 14.4251 7.13499 14.5048 6.70064 14.2852L5.69837 15.3602L5.77551 15.4321C6.07845 15.7146 6.09508 16.1892 5.81262 16.4921C5.53012 16.7948 5.05546 16.8116 4.7526 16.5292L1.98839 13.952C1.68554 13.6696 1.66912 13.195 1.95129 12.892C2.23376 12.589 2.70834 12.5724 3.0113 12.8549L3.17558 13.008L4.15454 11.9581C3.8032 11.5281 3.81381 10.8946 4.20289 10.477L8.43437 5.93859C8.799 5.54751 9.30545 5.36779 9.80035 5.40435L11.1149 3.99438C11.5439 3.53451 12.1833 3.25031 12.7085 3.07146C13.2579 2.88441 13.8054 2.77282 14.1504 2.71351L14.2784 2.69936ZM4.2727 14.031L4.60126 14.3373L5.57222 13.2959L5.24366 12.9896L4.2727 14.031ZM13.6783 4.34826C13.5198 4.38931 13.3541 4.43566 13.1914 4.49105C12.7217 4.651 12.3788 4.83872 12.2121 5.01729L11.1519 6.15441L11.9776 6.92425L13.0378 5.78714C13.2208 5.59064 13.3996 5.23456 13.5499 4.78529C13.5989 4.63877 13.6408 4.49049 13.6783 4.34826Z" fill="#4E5964"/>
<path fill-rule="evenodd" clip-rule="evenodd" d="M19.9804 8.01568C20.5726 7.9882 21.0645 8.4785 21.0331 9.07331L21.0183 9.20235L20.9639 9.48271C20.9003 9.79271 20.8068 10.1826 20.6747 10.5776C20.5046 11.0857 20.2432 11.6904 19.8369 12.1264L18.447 13.617C18.4676 14.0601 18.3159 14.5107 17.9875 14.8589L13.7308 19.3699C13.3799 19.7416 12.8364 19.8208 12.4019 19.6009L11.3996 20.6759L11.4775 20.7485C11.7802 21.031 11.797 21.5056 11.5146 21.8085C11.2322 22.1111 10.7575 22.1277 10.4546 21.8456L7.69038 19.2683C7.38751 18.9859 7.37107 18.5113 7.65328 18.2083C7.93575 17.9053 8.41033 17.8887 8.71329 18.1712L8.87686 18.3237L9.85581 17.2737C9.5051 16.8437 9.51603 16.2107 9.90488 15.7934L14.1364 11.2549C14.501 10.8638 15.0074 10.6841 15.5023 10.7207L16.8169 9.31071C17.2459 8.85083 17.8853 8.56664 18.4105 8.38779C18.9598 8.20077 19.5074 8.08915 19.8524 8.02984L19.9804 8.01568ZM10.9449 18.3052L9.97397 19.3466L10.3025 19.653L11.2735 18.6116L10.9449 18.3052ZM19.3803 9.66458C19.2218 9.70562 19.056 9.75202 18.8934 9.80738C18.4237 9.96733 18.0807 10.155 17.9141 10.3336L16.8539 11.4707L17.6795 12.2406L18.7397 11.1035C18.9228 10.907 19.1016 10.5509 19.2519 10.1016C19.301 9.95504 19.3428 9.80687 19.3803 9.66458Z" fill="#4E5964"/>
</g>
<defs>
<clipPath id="clip0_14370_29188">
<rect width="24" height="24" fill="white"/>
</clipPath>
</defs>
</svg>
