<svg width="24" height="24" viewBox="0 0 24 24" fill="none" xmlns="http://www.w3.org/2000/svg">
<path fill-rule="evenodd" clip-rule="evenodd" d="M21.0092 20.4814C21.1402 20.8744 20.9275 21.2997 20.5346 21.4307C20.1416 21.5616 19.7163 21.349 19.5853 20.9561L19.1576 19.6738L18.1586 21.6738L16.5853 16.9561C16.4544 16.5631 16.667 16.1378 17.06 16.0068C17.4529 15.8758 17.8782 16.0885 18.0092 16.4814L18.4359 17.7627L18.6264 17.3838L19.4359 15.7637L21.0092 20.4814ZM8.39296 5.62207C8.70269 5.89691 8.7312 6.37081 8.45644 6.68066C8.18164 6.9904 7.70772 7.01879 7.39784 6.74414L6.38515 5.84668L6.41152 6.27148L6.52089 8.0791L2.79921 4.78027C2.48936 4.50545 2.46094 4.0306 2.73574 3.7207C3.01056 3.41085 3.48541 3.38243 3.79531 3.65723L4.80605 4.55371L4.67226 2.32227L8.39296 5.62207Z" fill="#4E5964"/>
<path d="M10.1547 9.10645C10.4476 8.81355 10.9233 8.81355 11.2162 9.10645C11.5088 9.39922 11.5087 9.87411 11.2162 10.167L9.43886 11.9434L12.0639 14.5801L13.8393 12.8057C14.1321 12.5128 14.6069 12.5128 14.8998 12.8057C15.1924 13.0986 15.1925 13.5734 14.8998 13.8662L13.1215 15.6426L14.4359 16.9619C14.7282 17.2554 14.7274 17.7302 14.434 18.0225C14.1405 18.3148 13.6657 18.314 13.3734 18.0205L12.9818 17.627L11.1283 19.4814C9.85921 20.7503 7.80459 20.748 6.53749 19.4775C6.5069 19.5423 6.46975 19.6052 6.41933 19.6611C6.14194 19.9686 5.66828 19.993 5.36074 19.7158L4.41933 20.6543C4.12648 20.947 3.65164 20.947 3.35878 20.6543C3.06594 20.3615 3.06604 19.8867 3.35878 19.5938L4.24355 18.708L4.20351 18.6719C3.89617 18.3945 3.87163 17.9208 4.14882 17.6133C4.24022 17.512 4.35387 17.4435 4.47499 17.4043C3.27328 16.1288 3.29557 14.1201 4.54238 12.873L6.39784 11.0166L6.00624 10.623C5.71406 10.3296 5.71475 9.85476 6.0082 9.5625C6.30159 9.27041 6.77645 9.27131 7.06874 9.56445L8.38027 10.8809L10.1547 9.10645Z" fill="#4E5964"/>
<path fill-rule="evenodd" clip-rule="evenodd" d="M21.2338 2.7793C20.9409 2.4865 20.4661 2.48645 20.1732 2.7793L19.306 3.64551L19.2103 3.55957C18.9028 3.28242 18.4291 3.30683 18.1518 3.61426C18.0771 3.69697 18.0249 3.79186 17.9935 3.8916C16.7221 2.6839 14.7141 2.70326 13.4662 3.95117L12.0697 5.3457L11.684 4.95801C11.3917 4.6647 10.9169 4.66381 10.6234 4.95605C10.33 5.24836 10.3292 5.72312 10.6215 6.0166L17.9799 13.4053C18.2722 13.6984 18.747 13.6994 19.0404 13.4072C19.3339 13.115 19.3346 12.6402 19.0424 12.3467L18.6537 11.957L20.0521 10.5596C21.3209 9.29084 21.3231 7.23229 20.057 5.96094L19.9916 5.89453C20.1514 5.86705 20.3042 5.79177 20.4213 5.66211C20.6823 5.37279 20.676 4.93604 20.4184 4.6543L21.2338 3.83984C21.5267 3.54696 21.5267 3.0722 21.2338 2.7793Z" fill="#4E5964"/>
</svg>
