<svg width="24" height="24" viewBox="0 0 24 24" fill="none" xmlns="http://www.w3.org/2000/svg">
<path d="M20.938 3.0605C21.2309 3.35341 21.2309 3.82828 20.938 4.12116L20.1233 4.93586C20.3805 5.21761 20.3864 5.65407 20.1256 5.94321C19.8482 6.25079 19.3739 6.27521 19.0664 5.99778L19.0637 5.99537L18.759 6.30004L19.2285 6.77139C20.2028 7.74967 20.2012 9.33419 19.2249 10.3105L17.8285 11.707L18.7449 12.6271C19.0369 12.9203 19.0364 13.3952 18.7438 13.6878C18.4512 13.9805 17.9773 13.98 17.6852 13.6868L10.3268 6.29864C10.0348 6.00543 10.0353 5.53052 10.3279 5.23789C10.6205 4.94527 11.0945 4.94575 11.3865 5.23896L12.3028 6.159L13.6993 4.76253C14.6756 3.78621 16.2569 3.7878 17.2312 4.76608L17.7005 5.23724L17.9484 4.98935L17.9102 4.95487C17.6026 4.67743 17.5782 4.20319 17.8556 3.89562C18.1331 3.58804 18.6073 3.56362 18.9149 3.84105L19.0105 3.92731L19.8774 3.06048C20.1703 2.76759 20.6451 2.7676 20.938 3.0605Z" fill="#4E5964"/>
<path d="M12.8268 15.9243L14.1394 17.2423C14.4318 17.5359 14.4314 18.0114 14.1384 18.3043C13.8454 18.5973 13.3709 18.5969 13.0785 18.3033L12.1155 17.3364C12.1075 17.3964 12.0804 17.4543 12.0346 17.5001L10.3024 19.2323C9.3261 20.2087 7.74479 20.2071 6.77045 19.2288L6.30175 18.7582L6.1233 18.9366C6.37938 19.2185 6.38492 19.6542 6.12443 19.943C5.8469 20.2506 5.37251 20.2751 5.06485 19.9975L5.06357 19.9964L4.12448 20.9355C3.8315 21.2285 3.35648 21.2285 3.06349 20.9355C2.77051 20.6425 2.7705 20.1675 3.06348 19.8745L3.94794 18.9901L3.90795 18.954C3.60028 18.6765 3.57585 18.2021 3.85337 17.8944C4.13089 17.5867 4.60529 17.5623 4.91295 17.8398L5.01032 17.9276L5.24164 17.6963L5.2429 17.6951L4.77322 17.2235C3.79888 16.2452 3.80047 14.6607 4.77677 13.6844L6.63117 11.8299L5.71095 10.906C5.41856 10.6124 5.41904 10.1369 5.71202 9.84393C6.005 9.55094 6.47954 9.55142 6.77193 9.84499L8.08424 11.1626L9.8601 9.38672C10.1531 9.09373 10.6276 9.09421 10.92 9.38778C11.2124 9.68136 11.2119 10.1569 10.9189 10.4498L9.14309 12.2257L11.768 14.8612L13.5437 13.0854C13.8367 12.7925 14.3112 12.7929 14.6036 13.0865C14.896 13.3801 14.8955 13.8556 14.6025 14.1486L12.8268 15.9243Z" fill="#4E5964"/>
<path d="M6.23205 4.1618L8.89932 7.20775C8.92255 7.23427 8.93137 7.27045 8.92297 7.30469C8.90615 7.37329 8.82911 7.40757 8.76689 7.37415L6.74292 6.28713C6.42822 6.11811 6.03817 6.28656 5.94545 6.63153C5.84041 7.02228 5.36564 7.17243 5.05502 6.91312L3.66859 5.7557C3.45992 5.58149 3.36868 5.30366 3.43345 5.03966L3.49523 4.78783C3.60178 4.35351 4.14491 4.20655 4.45593 4.52789L4.57628 4.65223C4.8504 4.93545 5.33011 4.78679 5.39604 4.3982C5.46384 3.99866 5.96508 3.85693 6.23205 4.1618Z" fill="#4E5964"/>
<path d="M15.804 15.8305L17.0232 19.6913C17.1452 20.0777 17.6611 20.1493 17.8837 19.8106C18.1002 19.4812 18.5992 19.5378 18.7365 19.9072L18.7967 20.0695C18.9525 20.4887 19.5089 20.5722 19.7809 20.2173L19.9387 20.0115C20.104 19.7958 20.1321 19.5047 20.011 19.2613L19.2062 17.6445C19.0259 17.2822 18.5308 17.229 18.2777 17.5447C18.0542 17.8233 17.6293 17.8209 17.409 17.5397L15.9922 15.7313C15.9486 15.6757 15.8643 15.6761 15.8213 15.7322C15.7999 15.7602 15.7934 15.7968 15.804 15.8305Z" fill="#4E5964"/>
</svg>
