<svg width="24" height="24" viewBox="0 0 24 24" fill="none" xmlns="http://www.w3.org/2000/svg">
<g clip-path="url(#clip0_11478_12215)">
<path fill-rule="evenodd" clip-rule="evenodd" d="M19.75 6.37858V4.67785C19.75 3.21898 18.39 2.25 17 2.25H7C5.61001 2.25 4.25 3.21898 4.25 4.67785V6.37858C3.63925 6.88298 3.25 7.64603 3.25 8.5V9.15479C2.63366 9.74625 2.25 10.5783 2.25 11.5V16.5C2.25 19.3995 4.60051 21.75 7.5 21.75H16.5C19.3995 21.75 21.75 19.3995 21.75 16.5V11.5C21.75 10.5783 21.3663 9.74625 20.75 9.15479V8.5C20.75 7.64603 20.3608 6.88298 19.75 6.37858ZM7 3.75C6.18085 3.75 5.75 4.28342 5.75 4.67785V5.76121C5.83234 5.75379 5.91573 5.75 6 5.75H18C18.0843 5.75 18.1677 5.75379 18.25 5.76121V4.67785C18.25 4.28342 17.8191 3.75 17 3.75H7ZM19.2391 8.33442C19.1581 7.72233 18.6342 7.25 18 7.25H6C5.36578 7.25 4.84188 7.72233 4.76087 8.33442C4.99831 8.2792 5.24575 8.25 5.5 8.25H7.07692C8.00094 8.25 8.75 8.99906 8.75 9.92308V10.0962H15.25V9.92308C15.25 8.99906 15.9991 8.25 16.9231 8.25H18.5C18.7543 8.25 19.0017 8.2792 19.2391 8.33442ZM8.25 14.6C8.25 13.8544 8.85442 13.25 9.6 13.25H14.4C15.1456 13.25 15.75 13.8544 15.75 14.6V15.4C15.75 16.1456 15.1456 16.75 14.4 16.75H9.6C8.85441 16.75 8.25 16.1456 8.25 15.4V14.6Z" fill="#4E5964"/>
</g>
<defs>
<clipPath id="clip0_11478_12215">
<rect width="24" height="24" fill="white"/>
</clipPath>
</defs>
</svg>
