<svg width="24" height="24" viewBox="0 0 24 24" fill="none" xmlns="http://www.w3.org/2000/svg">
<path d="M18.7578 15C18.7578 15.4142 18.422 15.75 18.0078 15.75L7.81847 15.75L9.53814 17.4697C9.83104 17.7626 9.83104 18.2374 9.53814 18.5303C9.24525 18.8232 8.77038 18.8232 8.47748 18.5303L5.47748 15.5303C5.26298 15.3158 5.19882 14.9932 5.3149 14.713C5.43099 14.4327 5.70447 14.25 6.00781 14.25L18.0078 14.25C18.422 14.25 18.7578 14.5858 18.7578 15Z" fill="#4E5964"/>
<path d="M18.689 9.28701C18.5729 9.56727 18.2994 9.75 17.9961 9.75L5.99607 9.75C5.58186 9.75 5.24607 9.41421 5.24607 9C5.24607 8.58579 5.58186 8.25 5.99607 8.25L16.1854 8.25L14.4657 6.53033C14.1728 6.23744 14.1728 5.76256 14.4657 5.46967C14.7586 5.17678 15.2335 5.17678 15.5264 5.46967L18.5264 8.46967C18.7409 8.68417 18.8051 9.00676 18.689 9.28701Z" fill="#4E5964"/>
</svg>
