<svg width="24" height="24" viewBox="0 0 24 24" fill="none" xmlns="http://www.w3.org/2000/svg">
<path fill-rule="evenodd" clip-rule="evenodd" d="M12.5303 8.46976C12.8232 8.76266 12.8232 9.23753 12.5303 9.53042C12.2374 9.82332 11.7626 9.82332 11.4697 9.53042L8.75 6.81075L8.75 19.0001C8.75 19.4143 8.41421 19.7501 8 19.7501C7.58579 19.7501 7.25 19.4143 7.25 19.0001L7.25 6.81075L4.53033 9.53042C4.23744 9.82332 3.76256 9.82332 3.46967 9.53042C3.17678 9.23753 3.17678 8.76266 3.46967 8.46976L6.76256 5.17687C7.44598 4.49345 8.55402 4.49345 9.23744 5.17687L12.5303 8.46976Z" fill="#4E5964"/>
<path fill-rule="evenodd" clip-rule="evenodd" d="M16.75 5C16.75 4.58579 16.4142 4.25 16 4.25C15.5858 4.25 15.25 4.58579 15.25 5L15.25 17.1893L12.5303 14.4697C12.2374 14.1768 11.7626 14.1768 11.4697 14.4697C11.1768 14.7626 11.1768 15.2374 11.4697 15.5303L14.7626 18.8232C15.446 19.5066 16.554 19.5066 17.2374 18.8232L20.5303 15.5303C20.8232 15.2374 20.8232 14.7626 20.5303 14.4697C20.2374 14.1768 19.7626 14.1768 19.4697 14.4697L16.75 17.1893L16.75 5Z" fill="#4E5964"/>
</svg>
