<svg width="24" height="24" viewBox="0 0 24 24" fill="none" xmlns="http://www.w3.org/2000/svg">
<path d="M15 5.25C15.4142 5.25 15.75 5.58579 15.75 6V16.1893L17.4697 14.4697C17.7626 14.1768 18.2374 14.1768 18.5303 14.4697C18.8232 14.7626 18.8232 15.2374 18.5303 15.5303L15.5303 18.5303C15.3158 18.7448 14.9932 18.809 14.713 18.6929C14.4327 18.5768 14.25 18.3033 14.25 18V6C14.25 5.58579 14.5858 5.25 15 5.25Z" fill="#4E5964"/>
<path d="M9.28701 5.30711C9.56727 5.4232 9.75 5.69668 9.75 6.00002L9.75 18C9.75 18.4142 9.41421 18.75 9 18.75C8.58579 18.75 8.25 18.4142 8.25 18L8.25 7.81068L6.53033 9.53035C6.23744 9.82325 5.76256 9.82325 5.46967 9.53035C5.17678 9.23746 5.17678 8.76258 5.46967 8.46969L8.46967 5.46969C8.68417 5.25519 9.00676 5.19103 9.28701 5.30711Z" fill="#4E5964"/>
</svg>
