<svg width="24" height="24" viewBox="0 0 24 24" fill="none" xmlns="http://www.w3.org/2000/svg">
<path d="M9.63555 6.06351C9.99764 5.86235 10.4542 5.99281 10.6554 6.3549C10.8566 6.71699 10.7261 7.17359 10.364 7.37475L7.37908 9.03304L18.2284 12.5048C18.6229 12.6311 18.8403 13.0532 18.7141 13.4477C18.5879 13.8422 18.1657 14.0597 17.7712 13.9334L5.71139 10.0743C4.91893 9.82072 4.81222 8.74314 5.53957 8.33906L9.63555 6.06351Z" fill="#4E5964"/>
<path d="M18 16.9234C18.4142 16.9234 18.75 17.2592 18.75 17.6734C18.75 18.0876 18.4142 18.4234 18 18.4234H5.99998C5.58577 18.4234 5.24998 18.0876 5.24998 17.6734C5.24998 17.2592 5.58577 16.9234 5.99998 16.9234H18Z" fill="#4E5964"/>
</svg>
