<svg width="24" height="24" viewBox="0 0 24 24" fill="none" xmlns="http://www.w3.org/2000/svg">
<path d="M12.5303 8.46967C12.8232 8.76256 12.8232 9.23744 12.5303 9.53033C12.2374 9.82322 11.7626 9.82322 11.4697 9.53033L8.75 6.81066V19C8.75 19.4142 8.41421 19.75 8 19.75C7.58579 19.75 7.25 19.4142 7.25 19L7.25 6.81066L4.53033 9.53033C4.23744 9.82322 3.76256 9.82322 3.46967 9.53033C3.17678 9.23744 3.17678 8.76256 3.46967 8.46967L6.76256 5.17678C7.44598 4.49336 8.55402 4.49336 9.23744 5.17678L12.5303 8.46967Z" fill="#4E5964"/>
<path d="M16.75 5C16.75 4.58579 16.4142 4.25 16 4.25C15.5858 4.25 15.25 4.58579 15.25 5L15.25 17.1893L12.5303 14.4697C12.2374 14.1768 11.7626 14.1768 11.4697 14.4697C11.1768 14.7626 11.1768 15.2374 11.4697 15.5303L14.7626 18.8232C15.446 19.5066 16.554 19.5066 17.2374 18.8232L20.5303 15.5303C20.8232 15.2374 20.8232 14.7626 20.5303 14.4697C20.2374 14.1768 19.7626 14.1768 19.4697 14.4697L16.75 17.1893L16.75 5Z" fill="#4E5964"/>
</svg>
