<svg width="24" height="24" viewBox="0 0 24 24" fill="none" xmlns="http://www.w3.org/2000/svg">
<path d="M14.1652 6.06351C13.8031 5.86235 13.3465 5.99281 13.1454 6.3549C12.9442 6.71699 13.0747 7.17359 13.4368 7.37475L16.4217 9.03304L5.57242 12.5048C5.17791 12.6311 4.96044 13.0532 5.08668 13.4477C5.21292 13.8422 5.63507 14.0597 6.02958 13.9334L18.0894 10.0743C18.8818 9.82072 18.9886 8.74314 18.2612 8.33906L14.1652 6.06351Z" fill="#4E5964"/>
<path d="M5.8008 16.9234C5.38658 16.9234 5.0508 17.2592 5.0508 17.6734C5.0508 18.0876 5.38658 18.4234 5.8008 18.4234H17.8008C18.215 18.4234 18.5508 18.0876 18.5508 17.6734C18.5508 17.2592 18.215 16.9234 17.8008 16.9234H5.8008Z" fill="#4E5964"/>
</svg>
