<svg width="24" height="24" viewBox="0 0 24 24" fill="none" xmlns="http://www.w3.org/2000/svg">
<path fill-rule="evenodd" clip-rule="evenodd" d="M13.1708 6.40374C13.3621 6.03636 13.815 5.89363 14.1824 6.08495L18.6295 8.40084C18.9969 8.59215 19.1397 9.04507 18.9483 9.41245C18.8151 9.66826 18.5551 9.81515 18.2854 9.81619C18.2162 9.87115 18.136 9.91471 18.0467 9.94313L6.4676 13.6318C6.07292 13.7575 5.65106 13.5395 5.52533 13.1448C5.3996 12.7501 5.61763 12.3283 6.0123 12.2025L16.3553 8.90769L13.4896 7.41536C13.1222 7.22404 12.9795 6.77113 13.1708 6.40374ZM6 16.8887C5.58579 16.8887 5.25 17.2245 5.25 17.6387C5.25 18.0529 5.58579 18.3887 6 18.3887L19 18.3887C19.4142 18.3887 19.75 18.0529 19.75 17.6387C19.75 17.2245 19.4142 16.8887 19 16.8887L6 16.8887Z" fill="#00A881"/>
</svg>
