<svg width="24" height="24" viewBox="0 0 24 24" fill="none" xmlns="http://www.w3.org/2000/svg">
<path d="M4.25 14C4.25 10.2721 7.27208 7.25 11 7.25H17.75L15.5498 5.59961C15.2187 5.35102 15.1519 4.88107 15.4004 4.5498C15.649 4.2187 16.1189 4.15194 16.4502 4.40039L19.0781 6.37109C20.1638 7.18538 20.1638 8.81462 19.0781 9.6289L16.4502 11.5996C16.1189 11.8481 15.649 11.7813 15.4004 11.4502C15.1519 11.1189 15.2187 10.649 15.5498 10.4004L17.75 8.75H11C8.10051 8.75 5.75 11.1005 5.75 14C5.75 16.8995 8.10051 19.25 11 19.25H15.2305C15.6447 19.25 15.9805 19.5858 15.9805 20C15.9805 20.4142 15.6447 20.75 15.2305 20.75H11C7.27208 20.75 4.25 17.7279 4.25 14Z" fill="#4E5964"/>
</svg>
