<svg width="24" height="24" viewBox="0 0 24 24" fill="none" xmlns="http://www.w3.org/2000/svg">
<path d="M7 12V9.49379C7 6.38216 8.95472 5.10793 11.3466 6.66375L13.2763 7.91686L15.2061 9.16996C17.598 10.7258 17.598 13.2742 15.2061 14.83L13.2763 16.0831L11.3466 17.3362C8.95472 18.8921 7 17.6178 7 14.5062V12Z" fill="#4E5964"/>
<path d="M11.3466 6.66375L10.9377 7.29245L10.9381 7.29277L11.3466 6.66375ZM13.2763 7.91686L13.6848 7.28784V7.28784L13.2763 7.91686ZM15.2061 9.16996L15.615 8.54126L15.6145 8.54094L15.2061 9.16996ZM15.2061 14.83L15.6145 15.4591L15.615 15.4587L15.2061 14.83ZM13.2763 16.0831L12.8679 15.4541H12.8679L13.2763 16.0831ZM11.3466 17.3362L10.9381 16.7072L10.9377 16.7075L11.3466 17.3362ZM7.75 12V9.49379H6.25V12H7.75ZM7.75 9.49379C7.75 8.06203 8.20004 7.27324 8.68568 6.95693C9.13455 6.66456 9.88574 6.60822 10.9377 7.29245L11.7555 6.03505C10.4156 5.16347 8.99347 4.96633 7.86702 5.70003C6.77733 6.40978 6.25 7.81392 6.25 9.49379H7.75ZM10.9381 7.29277L12.8679 8.54587L13.6848 7.28784L11.7551 6.03474L10.9381 7.29277ZM12.8679 8.54587L14.7976 9.79897L15.6145 8.54094L13.6848 7.28784L12.8679 8.54587ZM14.7971 9.79866C15.8388 10.4762 16.25 11.2903 16.25 12C16.25 12.7097 15.8388 13.5238 14.7971 14.2013L15.615 15.4587C16.9653 14.5804 17.75 13.3424 17.75 12C17.75 10.6576 16.9653 9.41955 15.615 8.54126L14.7971 9.79866ZM14.7976 14.201L12.8679 15.4541L13.6848 16.7122L15.6145 15.4591L14.7976 14.201ZM12.8679 15.4541L10.9381 16.7072L11.7551 17.9653L13.6848 16.7122L12.8679 15.4541ZM10.9377 16.7075C9.88574 17.3918 9.13455 17.3354 8.68568 17.0431C8.20004 16.7268 7.75 15.938 7.75 14.5062H6.25C6.25 16.1861 6.77733 17.5902 7.86702 18.3C8.99347 19.0337 10.4156 18.8365 11.7555 17.9649L10.9377 16.7075ZM7.75 14.5062V12H6.25V14.5062H7.75Z" fill="#4E5964"/>
</svg>
