<svg width="24" height="24" viewBox="0 0 24 24" fill="none" xmlns="http://www.w3.org/2000/svg">
<path d="M12.9208 6.40374C13.1121 6.03636 13.565 5.89363 13.9324 6.08495L18.3795 8.40084C18.7469 8.59215 18.8897 9.04507 18.6983 9.41245C18.5651 9.66826 18.3051 9.81515 18.0354 9.81619C17.9662 9.87115 17.886 9.91471 17.7967 9.94313L6.2176 13.6318C5.82292 13.7575 5.40106 13.5395 5.27533 13.1448C5.1496 12.7501 5.36763 12.3283 5.7623 12.2025L16.1053 8.90769L13.2396 7.41536C12.8722 7.22404 12.7295 6.77113 12.9208 6.40374Z" fill="#4E5964"/>
<path d="M5.75 16.8887C5.33579 16.8887 5 17.2245 5 17.6387C5 18.0529 5.33579 18.3887 5.75 18.3887L18.75 18.3887C19.1642 18.3887 19.5 18.0529 19.5 17.6387C19.5 17.2245 19.1642 16.8887 18.75 16.8887L5.75 16.8887Z" fill="#4E5964"/>
</svg>
