<svg width="24" height="24" viewBox="0 0 24 24" fill="none" xmlns="http://www.w3.org/2000/svg">
<path d="M12 17H14.5062C17.6178 17 18.8921 15.0453 17.3362 12.6534L16.0831 10.7237L14.83 8.79391C13.2742 6.40203 10.7258 6.40203 9.16996 8.79391L7.91686 10.7237L6.66375 12.6534C5.10794 15.0453 6.38216 17 9.49379 17H12Z" fill="#4E5964"/>
<path d="M12 17V16.25V17ZM14.5062 17L14.5062 17.75L14.5062 17ZM17.3362 12.6534L16.7072 13.0619L16.7075 13.0623L17.3362 12.6534ZM16.0831 10.7237L16.7122 10.3152V10.3152L16.0831 10.7237ZM14.83 8.79391L15.4591 8.38545L15.4587 8.38497L14.83 8.79391ZM9.16996 8.79391L8.54126 8.38497L8.54094 8.38545L9.16996 8.79391ZM7.91686 10.7237L8.54587 11.1321V11.1321L7.91686 10.7237ZM6.66375 12.6534L7.29246 13.0623L7.29277 13.0619L6.66375 12.6534ZM9.49379 17V17.75V17ZM12 17.75H14.5062L14.5062 16.25H12V17.75ZM14.5062 17.75C16.1861 17.75 17.5902 17.2227 18.3 16.133C19.0337 15.0065 18.8365 13.5844 17.9649 12.2445L16.7075 13.0623C17.3918 14.1143 17.3354 14.8654 17.0431 15.3143C16.7268 15.8 15.938 16.25 14.5062 16.25L14.5062 17.75ZM17.9653 12.2449L16.7122 10.3152L15.4541 11.1321L16.7072 13.0619L17.9653 12.2449ZM16.7122 10.3152L15.4591 8.38545L14.201 9.20237L15.4541 11.1321L16.7122 10.3152ZM15.4587 8.38497C14.5804 7.0347 13.3424 6.25 12 6.25C10.6576 6.25 9.41955 7.0347 8.54126 8.38497L9.79866 9.20285C10.4762 8.16124 11.2903 7.75 12 7.75C12.7097 7.75 13.5238 8.16124 14.2013 9.20285L15.4587 8.38497ZM8.54094 8.38545L7.28784 10.3152L8.54587 11.1321L9.79897 9.20237L8.54094 8.38545ZM7.28784 10.3152L6.03474 12.2449L7.29277 13.0619L8.54587 11.1321L7.28784 10.3152ZM6.03505 12.2445C5.16347 13.5844 4.96633 15.0065 5.70003 16.133C6.40978 17.2227 7.81392 17.75 9.49379 17.75V16.25C8.06203 16.25 7.27324 15.8 6.95693 15.3143C6.66456 14.8654 6.60822 14.1143 7.29245 13.0623L6.03505 12.2445ZM9.49379 17.75H12V16.25H9.49379V17.75Z" fill="#4E5964"/>
</svg>
