<svg width="24" height="24" viewBox="0 0 24 24" fill="none" xmlns="http://www.w3.org/2000/svg">
<path d="M12 7L14.5062 7C17.6178 7 18.8921 8.95472 17.3362 11.3466L16.0831 13.2763L14.83 15.2061C13.2742 17.598 10.7258 17.598 9.16996 15.2061L7.91686 13.2763L6.66375 11.3466C5.10794 8.95472 6.38216 7 9.49379 7L12 7Z" fill="#4E5964"/>
<path d="M12 7V7.75V7ZM14.5062 7V6.25V7ZM17.3362 11.3466L16.7075 10.9377L16.7072 10.9381L17.3362 11.3466ZM16.0831 13.2763L16.7122 13.6848L16.0831 13.2763ZM14.83 15.2061L15.4587 15.615L15.4591 15.6145L14.83 15.2061ZM9.16996 15.2061L8.54094 15.6145L8.54126 15.615L9.16996 15.2061ZM7.91686 13.2763L8.54587 12.8679L8.54587 12.8679L7.91686 13.2763ZM6.66375 11.3466L7.29277 10.9381L7.29245 10.9377L6.66375 11.3466ZM9.49379 7V6.25V7ZM12 7.75L14.5062 7.75L14.5062 6.25L12 6.25V7.75ZM14.5062 7.75C15.938 7.75 16.7268 8.20004 17.0431 8.68568C17.3354 9.13455 17.3918 9.88574 16.7075 10.9377L17.9649 11.7555C18.8365 10.4156 19.0337 8.99347 18.3 7.86702C17.5902 6.77733 16.1861 6.25 14.5062 6.25L14.5062 7.75ZM16.7072 10.9381L15.4541 12.8679L16.7122 13.6848L17.9653 11.7551L16.7072 10.9381ZM15.4541 12.8679L14.201 14.7976L15.4591 15.6145L16.7122 13.6848L15.4541 12.8679ZM14.2013 14.7971C13.5238 15.8388 12.7097 16.25 12 16.25C11.2903 16.25 10.4762 15.8388 9.79866 14.7971L8.54126 15.615C9.41955 16.9653 10.6576 17.75 12 17.75C13.3424 17.75 14.5804 16.9653 15.4587 15.615L14.2013 14.7971ZM9.79897 14.7976L8.54587 12.8679L7.28784 13.6848L8.54094 15.6145L9.79897 14.7976ZM8.54587 12.8679L7.29277 10.9381L6.03474 11.7551L7.28784 13.6848L8.54587 12.8679ZM7.29245 10.9377C6.60822 9.88574 6.66456 9.13455 6.95693 8.68568C7.27324 8.20004 8.06203 7.75 9.49379 7.75V6.25C7.81392 6.25 6.40978 6.77733 5.70003 7.86702C4.96633 8.99347 5.16347 10.4156 6.03505 11.7555L7.29245 10.9377ZM9.49379 7.75L12 7.75V6.25L9.49379 6.25V7.75Z" fill="#4E5964"/>
</svg>
