<svg width="24" height="24" viewBox="0 0 24 24" fill="none" xmlns="http://www.w3.org/2000/svg">
<path d="M11.2122 7.00531C11.0209 6.63792 10.5679 6.49519 10.2006 6.68651L5.97039 8.8894C5.60301 9.08072 5.46028 9.53363 5.6516 9.90102C5.78224 10.1519 6.03486 10.298 6.29893 10.3045C6.36657 10.3569 6.44439 10.3986 6.53065 10.426L17.5448 13.9347C17.9395 14.0604 18.3614 13.8424 18.4871 13.4477C18.6128 13.0531 18.3948 12.6312 18.0001 12.5055L8.24286 9.3972L10.8934 8.01692C11.2608 7.82561 11.4035 7.37269 11.2122 7.00531Z" fill="#4E5964"/>
<path d="M18 17.25C18.4142 17.25 18.75 17.5858 18.75 18C18.75 18.4142 18.4142 18.75 18 18.75L6 18.75C5.58579 18.75 5.25 18.4142 5.25 18C5.25 17.5858 5.58579 17.25 6 17.25L18 17.25Z" fill="#4E5964"/>
</svg>
