<svg width="24" height="24" viewBox="0 0 24 24" fill="none" xmlns="http://www.w3.org/2000/svg">
<path d="M19.2498 14.0001C19.2498 11.1006 16.8993 8.75011 13.9998 8.75011H7.24983L9.45003 10.4005C9.78128 10.649 9.84889 11.119 9.60042 11.4503C9.35189 11.7817 8.88101 11.8482 8.54964 11.5997L5.92171 9.62902C4.83599 8.81473 4.83599 7.18549 5.92171 6.3712L8.54964 4.4005C8.88101 4.15197 9.35189 4.21854 9.60042 4.54991C9.84889 4.88124 9.78127 5.35117 9.45003 5.59972L7.24983 7.25011H13.9998C17.7278 7.25011 20.7498 10.2722 20.7498 14.0001C20.7498 17.728 17.7278 20.7501 13.9998 20.7501H9.76936C9.35515 20.7501 9.01936 20.4143 9.01936 20.0001C9.01936 19.5859 9.35515 19.2501 9.76936 19.2501H13.9998C16.8993 19.2501 19.2498 16.8996 19.2498 14.0001Z" fill="#4E5964"/>
</svg>
