<svg width="24" height="24" viewBox="0 0 24 24" fill="none" xmlns="http://www.w3.org/2000/svg">
<path d="M17 12V9.49379C17 6.38216 15.0453 5.10793 12.6534 6.66375L10.7237 7.91686L8.79391 9.16996C6.40203 10.7258 6.40203 13.2742 8.79391 14.83L10.7237 16.0831L12.6534 17.3362C15.0453 18.8921 17 17.6178 17 14.5062V12Z" fill="#4E5964"/>
<path d="M12.6534 6.66375L13.0619 7.29277L13.0623 7.29245L12.6534 6.66375ZM10.7237 7.91686L10.3152 7.28784L10.3152 7.28784L10.7237 7.91686ZM8.79391 9.16996L8.38545 8.54094L8.38497 8.54126L8.79391 9.16996ZM8.79391 14.83L8.38497 15.4587L8.38545 15.4591L8.79391 14.83ZM10.7237 16.0831L11.1321 15.4541H11.1321L10.7237 16.0831ZM12.6534 17.3362L13.0623 16.7075L13.0619 16.7072L12.6534 17.3362ZM17.75 12V9.49379H16.25V12H17.75ZM17.75 9.49379C17.75 7.81392 17.2227 6.40978 16.133 5.70003C15.0065 4.96633 13.5844 5.16347 12.2445 6.03505L13.0623 7.29245C14.1143 6.60822 14.8654 6.66456 15.3143 6.95693C15.8 7.27324 16.25 8.06203 16.25 9.49379H17.75ZM12.2449 6.03474L10.3152 7.28784L11.1321 8.54587L13.0619 7.29277L12.2449 6.03474ZM10.3152 7.28784L8.38545 8.54094L9.20237 9.79897L11.1321 8.54587L10.3152 7.28784ZM8.38497 8.54126C7.0347 9.41955 6.25 10.6576 6.25 12C6.25 13.3424 7.0347 14.5804 8.38497 15.4587L9.20285 14.2013C8.16124 13.5238 7.75 12.7097 7.75 12C7.75 11.2903 8.16124 10.4762 9.20285 9.79866L8.38497 8.54126ZM8.38545 15.4591L10.3152 16.7122L11.1321 15.4541L9.20237 14.201L8.38545 15.4591ZM10.3152 16.7122L12.2449 17.9653L13.0619 16.7072L11.1321 15.4541L10.3152 16.7122ZM12.2445 17.9649C13.5844 18.8365 15.0065 19.0337 16.133 18.3C17.2227 17.5902 17.75 16.1861 17.75 14.5062H16.25C16.25 15.938 15.8 16.7268 15.3143 17.0431C14.8654 17.3354 14.1143 17.3918 13.0623 16.7075L12.2445 17.9649ZM17.75 14.5062V12H16.25V14.5062H17.75Z" fill="#4E5964"/>
</svg>
