<svg width="24" height="24" viewBox="0 0 24 24" fill="none" xmlns="http://www.w3.org/2000/svg">
<path fill-rule="evenodd" clip-rule="evenodd" d="M2.25 12C2.25 6.61522 6.61522 2.25 12 2.25C17.3848 2.25 21.75 6.61522 21.75 12C21.75 17.3848 17.3848 21.75 12 21.75C6.61522 21.75 2.25 17.3848 2.25 12ZM9.25 10C9.25 8.48079 10.4808 7.25 12 7.25C13.5192 7.25 14.75 8.48079 14.75 10C14.75 11.1942 13.9717 11.8239 13.4302 12.1889L13.4293 12.1895C12.9717 12.497 12.75 12.7443 12.75 13.167V13.417C12.75 13.8312 12.4142 14.167 12 14.167C11.5858 14.167 11.25 13.8312 11.25 13.417V13.167C11.25 11.956 12.0379 11.3174 12.5922 10.9448C13.0384 10.6439 13.25 10.4057 13.25 10C13.25 9.30921 12.6908 8.75 12 8.75C11.3092 8.75 10.75 9.30921 10.75 10C10.75 10.4142 10.4142 10.75 10 10.75C9.58579 10.75 9.25 10.4142 9.25 10ZM11 16.417C10.996 15.865 11.444 15.417 11.996 15.417C12.552 15.417 13 15.865 13 16.417C13 16.969 12.552 17.417 12 17.417C11.448 17.417 11 16.969 11 16.417Z" fill="#4E5964"/>
</svg>
