<svg width="24" height="24" viewBox="0 0 24 24" fill="none" xmlns="http://www.w3.org/2000/svg">
<path d="M12.1064 16.7304C12.5383 16.7304 12.8887 17.0808 12.8887 17.5127V19.9384L14.5098 19.039C14.8872 18.8294 15.3626 18.9653 15.5723 19.3427C15.7819 19.7202 15.646 20.1965 15.2686 20.4062L13.3887 21.4501C12.5927 21.8928 11.6241 21.8929 10.8281 21.4501L8.94922 20.4062C8.57186 20.1965 8.43597 19.7201 8.64551 19.3427C8.85527 18.9653 9.33153 18.8293 9.70898 19.039L11.3242 19.9355V17.5127C11.3242 17.0809 11.6747 16.7305 12.1064 16.7304Z" fill="#4E5964"/>
<path d="M4.02441 12.7363C4.4558 12.7258 4.81418 13.0667 4.8252 13.498L4.87012 15.3496L6.58105 14.3447C6.95308 14.1264 7.43251 14.2512 7.65137 14.623C7.86989 14.9951 7.74499 15.4744 7.37305 15.6933L5.66504 16.6972L7.25879 17.6367C7.63078 17.8557 7.75497 18.3349 7.53613 18.707C7.31705 19.079 6.83789 19.2033 6.46582 18.9843L4.6123 17.8925C3.82772 17.4307 3.33626 16.5957 3.31445 15.6855L3.2627 13.5371C3.25241 13.1057 3.59309 12.7471 4.02441 12.7363Z" fill="#4E5964"/>
<path d="M20.2109 12.5234C20.6426 12.5227 20.9932 12.873 20.9941 13.3046L20.9971 15.455L20.9922 15.625C20.9394 16.4702 20.4821 17.2433 19.7578 17.6953L17.9336 18.8339C17.5673 19.0623 17.085 18.9501 16.8564 18.5839C16.6284 18.2178 16.7395 17.7354 17.1055 17.5068L18.6758 16.5253L16.9404 15.5654C16.563 15.3562 16.426 14.8805 16.6348 14.5029C16.8439 14.1254 17.3206 13.9883 17.6982 14.1972L19.4326 15.1572L19.4307 13.3066C19.4304 12.8751 19.7794 12.5242 20.2109 12.5234Z" fill="#4E5964"/>
<path d="M6.28223 5.16402C6.64853 4.93534 7.13168 5.04674 7.36035 5.41304C7.58885 5.77932 7.47659 6.26156 7.11035 6.49019L5.54004 7.47066L7.66113 8.64449C8.03893 8.8536 8.1759 9.33015 7.9668 9.70796C7.75756 10.0854 7.28195 10.2217 6.9043 10.0127L4.7832 8.83882L4.78613 10.6904C4.78676 11.122 4.43747 11.4727 4.00586 11.4736C3.57416 11.4742 3.22352 11.125 3.22266 10.6933L3.21875 8.54195L3.21973 8.54097C3.21835 7.63081 3.68672 6.78448 4.45898 6.30269L6.28223 5.16402Z" fill="#4E5964"/>
<path d="M16.6797 5.29195C16.8987 4.91993 17.3779 4.79571 17.75 5.0146L19.6025 6.10542C20.3876 6.56703 20.8793 7.40202 20.9014 8.31245L20.9541 10.4619C20.9646 10.8935 20.623 11.252 20.1914 11.2627C19.7597 11.2732 19.4012 10.9316 19.3906 10.5L19.3447 8.64937L17.2549 9.87984C16.8827 10.0987 16.4035 9.97369 16.1846 9.60152C15.9658 9.22932 16.0898 8.75007 16.4619 8.5312L18.5527 7.30074L16.957 6.36226C16.585 6.1432 16.4608 5.66401 16.6797 5.29195Z" fill="#4E5964"/>
<path d="M10.8291 2.54976C11.625 2.10705 12.5937 2.10717 13.3896 2.54976L15.2686 3.59468C15.6459 3.80441 15.7819 4.27977 15.5723 4.65718C15.3625 5.03456 14.8872 5.17052 14.5098 4.96089L12.8887 4.0605V6.04488C12.8886 6.47668 12.5383 6.8271 12.1064 6.8271C11.6747 6.82706 11.3242 6.47665 11.3242 6.04488V4.06343L9.70898 4.96089C9.3315 5.17055 8.85519 5.03465 8.64551 4.65718C8.43611 4.27984 8.57207 3.80441 8.94922 3.59468L10.8291 2.54976Z" fill="#4E5964"/>
</svg>
