<svg width="24" height="24" viewBox="0 0 24 24" fill="none" xmlns="http://www.w3.org/2000/svg">
<path d="M9.32812 4.27789L11.2084 3.23352C11.7681 2.92216 12.4492 2.92216 13.0089 3.23352L14.8882 4.27789M12.1056 3.43873V6.04501" stroke="#4E5964" stroke-width="1.56377" stroke-linecap="round" stroke-linejoin="round"/>
<path d="M14.8882 19.7223L13.008 20.7667C12.4483 21.0781 11.7671 21.0781 11.2074 20.7667L9.32812 19.7223M12.1056 17.5127V20.119" stroke="#4E5964" stroke-width="1.56377" stroke-linecap="round" stroke-linejoin="round"/>
<path d="M20.2114 13.3062L20.2146 15.457C20.216 16.0974 19.8862 16.6934 19.3427 17.0323L17.5189 18.1708M19.5987 16.1439L17.3184 14.8819" stroke="#4E5964" stroke-width="1.56377" stroke-linecap="round" stroke-linejoin="round"/>
<path d="M4.00326 10.6918L4 8.54103C3.99862 7.90054 4.32844 7.30462 4.8719 6.96568L6.6957 5.82715M7.282 9.32895L5.00168 8.06687" stroke="#4E5964" stroke-width="1.56377" stroke-linecap="round" stroke-linejoin="round"/>
<path d="M6.86149 18.3108L5.00813 17.2195C4.456 16.8948 4.11073 16.3077 4.0954 15.6674L4.04297 13.5181M4.72943 16.3407L6.97603 15.0196" stroke="#4E5964" stroke-width="1.56377" stroke-linecap="round" stroke-linejoin="round"/>
<path d="M17.3526 5.68848L19.206 6.77981C19.7581 7.10444 20.1034 7.69155 20.1187 8.33185L20.1711 10.4812M16.8574 9.20555L19.104 7.88437" stroke="#4E5964" stroke-width="1.56377" stroke-linecap="round" stroke-linejoin="round"/>
</svg>
