<svg width="24" height="24" viewBox="0 0 24 24" fill="none" xmlns="http://www.w3.org/2000/svg">
<path d="M17.25 16C17.25 14.2051 15.7949 12.75 14 12.75H6.75V20.25H14C15.7949 20.25 17.25 18.7949 17.25 17V16ZM17.25 7C17.25 5.20508 15.7949 3.75 14 3.75H6.75V11.2471L14.0459 11.1455C15.8227 11.1204 17.25 9.67255 17.25 7.89551V7ZM18.75 7.89551C18.75 9.6087 17.8417 11.1116 16.4785 11.9473C17.841 12.7823 18.75 14.2849 18.75 16V17C18.75 19.6234 16.6234 21.75 14 21.75H6C5.58579 21.75 5.25 21.4142 5.25 21V3C5.25 2.58579 5.58579 2.25 6 2.25H14C16.6234 2.25 18.75 4.37665 18.75 7V7.89551Z" fill="#4E5964"/>
</svg>
