<svg width="24" height="24" viewBox="0 0 24 24" fill="none" xmlns="http://www.w3.org/2000/svg">
<path d="M16 17.75C16.1381 17.75 16.25 17.8619 16.25 18V21.75H7.75V18C7.75 17.8619 7.86194 17.75 8 17.75H16ZM18.7178 6.66699C19.9245 7.29018 20.75 8.54823 20.75 10V15.2949C20.8284 15.2671 20.9121 15.25 21 15.25C21.4142 15.25 21.75 15.5858 21.75 16C21.75 17.2977 21.7535 18.3859 21.6123 19.1387C21.5412 19.5178 21.4162 19.9195 21.1514 20.2334C20.8514 20.5889 20.4434 20.75 20 20.75C19.8703 20.75 19.75 20.7142 19.6436 20.6562C19.1342 21.1631 18.4816 21.5263 17.75 21.6748V18C17.75 17.0335 16.9665 16.25 16 16.25H8C7.03351 16.25 6.25 17.0335 6.25 18V21.6748C5.51818 21.5262 4.86492 21.1634 4.35547 20.6562C4.24925 20.7139 4.12935 20.75 4 20.75C3.55657 20.75 3.14862 20.5889 2.84863 20.2334C2.58384 19.9195 2.45881 19.5178 2.3877 19.1387C2.24654 18.3859 2.25 17.2977 2.25 16C2.25 15.5858 2.58579 15.25 3 15.25C3.08792 15.25 3.17161 15.2671 3.25 15.2949V10C3.25 8.54855 4.07495 7.29032 5.28125 6.66699C5.26113 6.77316 5.25 6.8831 5.25 6.99512V8.99512C5.25026 10.5137 6.48139 11.7451 8 11.7451H8.25V12C8.25 12.4142 8.58579 12.75 9 12.75C9.41421 12.75 9.75 12.4142 9.75 12V11.7451H14.25V12C14.25 12.4142 14.5858 12.75 15 12.75C15.4142 12.75 15.75 12.4142 15.75 12V11.7451H16C17.5186 11.7451 18.7497 10.5137 18.75 8.99512V6.99512C18.75 6.88303 18.7379 6.77322 18.7178 6.66699ZM17 6.74512C17.1381 6.74512 17.25 6.85705 17.25 6.99512V8.99512C17.2497 9.68525 16.6902 10.2451 16 10.2451H15.75V10C15.75 9.58579 15.4142 9.25 15 9.25C14.5858 9.25001 14.25 9.58579 14.25 10V10.2451H9.75V10C9.75 9.58579 9.41421 9.25 9 9.25C8.58579 9.25001 8.25 9.58579 8.25 10V10.2451H8C7.30981 10.2451 6.75026 9.68524 6.75 8.99512V6.99512C6.75 6.85705 6.86194 6.74513 7 6.74512H17ZM14 1.75C14.9665 1.75 15.75 2.5335 15.75 3.5V5C15.75 5.41421 15.4142 5.75 15 5.75C14.5858 5.74999 14.25 5.41421 14.25 5V3.5C14.25 3.36193 14.1381 3.25 14 3.25H10C9.86194 3.25001 9.75 3.36193 9.75 3.5V5C9.75 5.41421 9.41421 5.75 9 5.75C8.58579 5.74999 8.25 5.41421 8.25 5V3.5C8.25 2.53351 9.03351 1.75001 10 1.75H14Z" fill="#4E5964"/>
</svg>
