<svg width="24" height="24" viewBox="0 0 24 24" fill="none" xmlns="http://www.w3.org/2000/svg">
<path fill-rule="evenodd" clip-rule="evenodd" d="M12 4.25C9.10412 4.25 7.46666 5.67156 6.59279 7.17797C5.94617 8.29264 5.72198 9.43799 5.65272 10.0551C5.62954 10.0643 5.60409 10.0743 5.57617 10.0851L5.48239 10.1213C5.18189 10.2369 4.74894 10.4035 4.31582 10.6506C3.82882 10.9284 3.30573 11.3264 2.90567 11.9191C2.50023 12.5198 2.24999 13.2783 2.25 14.2251C2.25001 15.0086 2.43134 15.6591 2.75978 16.1832C3.08742 16.706 3.53283 17.0574 3.99026 17.2894C4.8799 17.7405 5.8604 17.7637 6.33228 17.7461C6.41738 17.7429 6.49111 17.7393 6.55917 17.7359C6.67945 17.73 6.78197 17.7249 6.89806 17.7249H8.66914C9.29333 18.9282 10.5504 19.75 12 19.75C13.4496 19.75 14.7067 18.9282 15.3309 17.7249H17.1019C17.218 17.7249 17.3206 17.73 17.4409 17.7359C17.5088 17.7393 17.5829 17.7429 17.6677 17.7461C18.1396 17.7637 19.1201 17.7405 20.0098 17.2894C20.4672 17.0574 20.9126 16.706 21.2402 16.1832C21.5687 15.6591 21.75 15.0086 21.75 14.2251C21.75 13.2783 21.4998 12.5198 21.0943 11.9191C20.6942 11.3264 20.1712 10.9284 19.6842 10.6506C19.251 10.4035 18.8181 10.2369 18.5176 10.1213L18.4238 10.0851C18.3959 10.0743 18.3705 10.0643 18.3473 10.0551C18.278 9.43799 18.0538 8.29264 17.4072 7.17797C16.5333 5.67156 14.8959 4.25 12 4.25ZM13.4452 17.7249C13.9373 17.3123 14.25 16.6929 14.25 16C14.25 14.9161 13.4847 14.0118 12.4646 13.798L12.8066 14.1661C13.0886 14.4695 13.0712 14.9441 12.7677 15.226C12.4643 15.508 11.9898 15.4906 11.7078 15.1871L10.0482 13.4012C9.76628 13.0977 9.78369 12.6232 10.0871 12.3412C10.098 12.3311 10.1091 12.3213 10.1205 12.312L11.8744 10.6822C12.1778 10.4003 12.6523 10.4177 12.9343 10.7211C13.2163 11.0246 13.1988 11.4991 12.8954 11.7811L12.3713 12.2681C14.2685 12.4544 15.75 14.0536 15.75 16C15.75 16.622 15.5987 17.2086 15.3309 17.7249H13.4452ZM13.4452 17.7249C13.0544 18.0527 12.5504 18.25 12 18.25C11.4496 18.25 10.9456 18.0527 10.5548 17.7249H13.4452ZM10.5548 17.7249H8.66914C8.40131 17.2086 8.25 16.622 8.25 16C8.25 15.5858 8.58579 15.25 9 15.25C9.41421 15.25 9.75 15.5858 9.75 16C9.75 16.6929 10.0627 17.3123 10.5548 17.7249Z" fill="#4E5964"/>
</svg>
