<svg width="24" height="24" viewBox="0 0 24 24" fill="none" xmlns="http://www.w3.org/2000/svg">
<path fill-rule="evenodd" clip-rule="evenodd" d="M4.40625 14.5557C2.53125 13.4198 2.53125 10.5802 4.40625 9.44432L7.78125 7.39977C9.65625 6.26391 12 7.68373 12 9.95545V12V14.0445C12 16.3163 9.65625 17.7361 7.78125 16.6002L4.40625 14.5557ZM12 12C12 12.9939 12.4688 13.9878 13.4063 14.5557L16.7813 16.6002C18.6563 17.7361 21 16.3163 21 14.0445V9.95545C21 7.68373 18.6562 6.26391 16.7813 7.39977L13.4062 9.44432C12.4687 10.0122 12 11.0061 12 12Z" fill="#4E5964"/>
<path d="M4.40625 9.44432L4.01765 8.80284L4.40625 9.44432ZM4.40625 14.5557L4.01765 15.1972H4.01765L4.40625 14.5557ZM7.78125 7.39977L7.39265 6.75829V6.75829L7.78125 7.39977ZM7.78125 16.6002L8.16985 15.9588L7.78125 16.6002ZM13.4063 14.5557L13.0177 15.1972V15.1972L13.4063 14.5557ZM16.7813 16.6002L17.1699 15.9588L16.7813 16.6002ZM16.7813 7.39977L17.1699 8.04124V8.04124L16.7813 7.39977ZM13.4062 9.44432L13.7948 10.0858V10.0858L13.4062 9.44432ZM4.01765 8.80284C1.66078 10.2306 1.66078 13.7694 4.01765 15.1972L4.79485 13.9142C3.40172 13.0703 3.40172 10.9297 4.79485 10.0858L4.01765 8.80284ZM7.39265 6.75829L4.01765 8.80284L4.79485 10.0858L8.16985 8.04124L7.39265 6.75829ZM12.75 9.95545C12.75 7.16428 9.82205 5.28658 7.39265 6.75829L8.16985 8.04124C9.49045 7.24123 11.25 8.20318 11.25 9.95545H12.75ZM12.75 12V9.95545H11.25V12H12.75ZM12.75 14.0445V12H11.25V14.0445H12.75ZM7.39265 17.2417C9.82205 18.7134 12.75 16.8357 12.75 14.0445H11.25C11.25 15.7968 9.49045 16.7588 8.16985 15.9588L7.39265 17.2417ZM4.01765 15.1972L7.39265 17.2417L8.16985 15.9588L4.79485 13.9142L4.01765 15.1972ZM11.25 12C11.25 13.2244 11.8298 14.4776 13.0177 15.1972L13.7949 13.9142C13.1077 13.4979 12.75 12.7634 12.75 12H11.25ZM13.0177 15.1972L16.3927 17.2417L17.1699 15.9588L13.7949 13.9142L13.0177 15.1972ZM16.3927 17.2417C18.8221 18.7134 21.75 16.8357 21.75 14.0445H20.25C20.25 15.7968 18.4904 16.7588 17.1699 15.9588L16.3927 17.2417ZM21.75 14.0445V9.95545H20.25V14.0445H21.75ZM21.75 9.95545C21.75 7.16428 18.8221 5.28658 16.3927 6.75829L17.1699 8.04124C18.4904 7.24124 20.25 8.20318 20.25 9.95545H21.75ZM16.3927 6.75829L13.0176 8.80284L13.7948 10.0858L17.1699 8.04124L16.3927 6.75829ZM13.0176 8.80284C11.8298 9.5224 11.25 10.7756 11.25 12H12.75C12.75 11.2366 13.1077 10.5021 13.7948 10.0858L13.0176 8.80284Z" fill="#4E5964"/>
</svg>
