<svg width="24" height="24" viewBox="0 0 24 24" fill="none" xmlns="http://www.w3.org/2000/svg">
<path d="M9 5V3.5C9 2.94772 9.44772 2.5 10 2.5H14C14.5523 2.5 15 2.94772 15 3.5V5" stroke="#4E5964" stroke-width="1.5" stroke-linecap="round"/>
<path d="M21 16C21 18.6667 21 20 20 20" stroke="#4E5964" stroke-width="1.5" stroke-linecap="round"/>
<path d="M3 16C3 18.6667 3 20 4 20" stroke="#4E5964" stroke-width="1.5" stroke-linecap="round"/>
<path d="M16 17.75C16.1381 17.75 16.25 17.8619 16.25 18V21.75H7.75V18C7.75 17.8619 7.86193 17.75 8 17.75H16ZM17 6.25C19.0711 6.25 20.75 7.92893 20.75 10V18C20.75 19.8142 19.4617 21.3273 17.75 21.6748V18C17.75 17.0335 16.9665 16.25 16 16.25H8C7.0335 16.25 6.25 17.0335 6.25 18V21.6748C4.53834 21.3273 3.25 19.8142 3.25 18V10C3.25 7.92893 4.92893 6.25 7 6.25H17Z" fill="#4E5964"/>
<path d="M6 6C6 5.44772 6.44772 5 7 5H12H17C17.5523 5 18 5.44772 18 6V9C18 10.1046 17.1046 11 16 11H8C6.89543 11 6 10.1046 6 9V6Z" fill="#4E5964" stroke="#F9FAFB" stroke-width="1.5"/>
<path d="M9 10V12" stroke="#F9FAFB" stroke-width="1.5" stroke-linecap="round"/>
<path d="M15 10V12" stroke="#F9FAFB" stroke-width="1.5" stroke-linecap="round"/>
</svg>
