<svg width="24" height="24" viewBox="0 0 24 24" fill="none" xmlns="http://www.w3.org/2000/svg">
<path fill-rule="evenodd" clip-rule="evenodd" d="M3.40625 14.5557C1.53125 13.4198 1.53125 10.5802 3.40625 9.44432L6.78125 7.39977C8.65625 6.26391 11 7.68373 11 9.95545V14.0445C11 16.3163 8.65625 17.7361 6.78125 16.6002L3.40625 14.5557ZM14.4062 14.5557C12.5313 13.4198 12.5312 10.5802 14.4062 9.44432L17.7812 7.39977C19.6562 6.26391 22 7.68373 22 9.95545V14.0445C22 16.3163 19.6563 17.7361 17.7813 16.6002L14.4062 14.5557Z" fill="#00A881"/>
<path d="M3.40625 9.44432L3.01765 8.80284L3.40625 9.44432ZM3.40625 14.5557L3.01765 15.1972H3.01765L3.40625 14.5557ZM6.78125 7.39977L6.39265 6.75829V6.75829L6.78125 7.39977ZM6.78125 16.6002L7.16985 15.9588L6.78125 16.6002ZM14.4062 9.44432L14.7948 10.0858L14.4062 9.44432ZM14.4062 14.5557L14.0176 15.1972V15.1972L14.4062 14.5557ZM17.7812 7.39977L17.3926 6.75829V6.75829L17.7812 7.39977ZM17.7813 16.6002L18.1699 15.9588L17.7813 16.6002ZM3.01765 8.80284C0.660782 10.2306 0.660785 13.7694 3.01765 15.1972L3.79485 13.9142C2.40172 13.0703 2.40172 10.9297 3.79485 10.0858L3.01765 8.80284ZM6.39265 6.75829L3.01765 8.80284L3.79485 10.0858L7.16985 8.04124L6.39265 6.75829ZM11.75 9.95545C11.75 7.16428 8.82205 5.28658 6.39265 6.75829L7.16985 8.04124C8.49045 7.24123 10.25 8.20318 10.25 9.95545H11.75ZM11.75 14.0445V9.95545H10.25V14.0445H11.75ZM6.39265 17.2417C8.82205 18.7134 11.75 16.8357 11.75 14.0445H10.25C10.25 15.7968 8.49045 16.7588 7.16985 15.9588L6.39265 17.2417ZM3.01765 15.1972L6.39265 17.2417L7.16985 15.9588L3.79485 13.9142L3.01765 15.1972ZM14.0176 8.80284C11.6608 10.2306 11.6608 13.7694 14.0176 15.1972L14.7949 13.9142C13.4017 13.0703 13.4017 10.9297 14.7948 10.0858L14.0176 8.80284ZM17.3926 6.75829L14.0176 8.80284L14.7948 10.0858L18.1698 8.04124L17.3926 6.75829ZM22.75 9.95545C22.75 7.16428 19.8221 5.28658 17.3926 6.75829L18.1698 8.04124C19.4904 7.24123 21.25 8.20318 21.25 9.95545H22.75ZM22.75 14.0445V9.95545H21.25V14.0445H22.75ZM17.3927 17.2417C19.8221 18.7134 22.75 16.8357 22.75 14.0445H21.25C21.25 15.7968 19.4905 16.7588 18.1699 15.9588L17.3927 17.2417ZM14.0176 15.1972L17.3927 17.2417L18.1699 15.9588L14.7949 13.9142L14.0176 15.1972Z" fill="#00A881"/>
</svg>
