<svg width="24" height="24" viewBox="0 0 24 24" fill="none" xmlns="http://www.w3.org/2000/svg">
<path d="M16 8V6C16 3.79086 14.2091 2 12 2V2C9.79086 2 8 3.79086 8 6V7.5" stroke="#4E5964" stroke-width="1.5"/>
<path fill-rule="evenodd" clip-rule="evenodd" d="M2.06464 10.7481C1.37027 6.74204 6.43724 4.36847 9.26356 7.3191C10.8401 8.96497 13.5173 8.99313 15.0938 7.34725C17.8522 4.46754 22.7014 6.95154 21.9148 10.8413L20.6093 17.2973C20.0564 20.0317 17.6289 22 14.8094 22H9.15447C6.18537 22 3.64819 19.8842 3.14652 16.9899L2.06464 10.7481ZM16 12.75C15.5858 12.75 15.25 12.4142 15.25 12V11C15.25 10.5858 15.5858 10.25 16 10.25C16.4142 10.25 16.75 10.5858 16.75 11V12C16.75 12.4142 16.4142 12.75 16 12.75ZM7.25 12C7.25 12.4142 7.58579 12.75 8 12.75C8.41421 12.75 8.75 12.4142 8.75 12V11C8.75 10.5858 8.41421 10.25 8 10.25C7.58579 10.25 7.25 10.5858 7.25 11V12Z" fill="#4E5964"/>
</svg>
