<svg width="24" height="24" viewBox="0 0 24 24" fill="none" xmlns="http://www.w3.org/2000/svg">
<path fill-rule="evenodd" clip-rule="evenodd" d="M9.02939 6.40642C9.35601 6.60989 9.66824 6.86146 9.95862 7.16462C11.1563 8.41501 13.1879 8.42834 14.3733 7.1908C14.5634 6.99232 14.7628 6.81694 14.9692 6.66362V6.42038C14.9692 4.78013 13.6395 3.45044 11.9993 3.45044C10.3637 3.45044 9.0369 4.77259 9.02939 6.40642ZM16.445 5.95225C19.3345 5.19758 22.6011 7.61384 21.9041 11.0609L20.69 17.065C20.1089 19.9383 17.5612 21.9976 14.6125 21.9976H9.35348C6.25849 21.9976 3.60434 19.7912 3.07892 16.7599L2.07279 10.9551C1.68874 8.73939 2.91467 6.97341 4.58139 6.18495C5.48793 5.75609 6.54476 5.60591 7.56932 5.82002C7.86261 3.63523 9.7342 1.95044 11.9993 1.95044C14.3099 1.95044 16.211 3.70359 16.445 5.95225ZM15.7192 12.7503C15.305 12.7503 14.9692 12.4145 14.9692 12.0003V11.0703C14.9692 10.6561 15.305 10.3203 15.7192 10.3203C16.1334 10.3203 16.4692 10.6561 16.4692 11.0703V12.0003C16.4692 12.4145 16.1334 12.7503 15.7192 12.7503ZM8.27935 12.7503C7.86514 12.7503 7.52935 12.4145 7.52935 12.0003V11.0703C7.52935 10.6561 7.86514 10.3203 8.27935 10.3203C8.69357 10.3203 9.02935 10.6561 9.02935 11.0703V12.0003C9.02935 12.4145 8.69357 12.7503 8.27935 12.7503Z" fill="#4E5964"/>
</svg>
