<svg width="24" height="24" viewBox="0 0 24 24" fill="none" xmlns="http://www.w3.org/2000/svg">
<path fill-rule="evenodd" clip-rule="evenodd" d="M8.75 7.4251C8.9277 7.55618 9.09941 7.70385 9.26356 7.86881C10.8401 9.45306 13.5173 9.48016 15.0938 7.89591C15.1452 7.8443 15.1972 7.79448 15.25 7.74642V6.74878C15.25 4.95385 13.7949 3.49878 12 3.49878C10.2051 3.49878 8.75 4.95385 8.75 6.74878V7.4251ZM16.75 6.876C19.422 6.03318 22.5591 8.19221 21.9148 11.2592L20.6093 17.4735C20.0564 20.1055 17.6289 22.0001 14.8094 22.0001H9.15447C6.18537 22.0001 3.64819 19.9635 3.14652 17.1775L2.06464 11.1694C1.5168 8.12711 4.55523 6.06291 7.25007 6.72201C7.26448 4.11097 9.38558 1.99878 12 1.99878C14.6234 1.99878 16.75 4.12543 16.75 6.74878V6.876ZM15.25 12.3742C15.25 12.7884 15.5858 13.1242 16 13.1242C16.4142 13.1242 16.75 12.7884 16.75 12.3742V11.4116C16.75 10.9974 16.4142 10.6616 16 10.6616C15.5858 10.6616 15.25 10.9974 15.25 11.4116V12.3742ZM8 13.3491C7.58579 13.3491 7.25 13.0133 7.25 12.5991V11.5991C7.25 11.1849 7.58579 10.8491 8 10.8491C8.41421 10.8491 8.75 11.1849 8.75 11.5991V12.5991C8.75 13.0133 8.41421 13.3491 8 13.3491Z" fill="#4E5964"/>
</svg>
