<svg width="24" height="24" viewBox="0 0 24 24" fill="none" xmlns="http://www.w3.org/2000/svg">
<path fill-rule="evenodd" clip-rule="evenodd" d="M12 1.25C9.37665 1.25 7.25 3.37665 7.25 6V6.12769C4.55518 5.44301 1.51681 7.58748 2.06464 10.7481L3.14652 16.9899C3.64819 19.8842 6.18537 22 9.15447 22H14.8094C17.6289 22 20.0564 20.0317 20.6093 17.2973L21.9148 10.8413C22.5591 7.65508 19.422 5.41209 16.75 6.28768V6C16.75 3.37665 14.6234 1.25 12 1.25ZM15.25 7.19196V6C15.25 4.20507 13.7949 2.75 12 2.75C10.2051 2.75 8.75 4.20507 8.75 6V6.85814C8.9277 6.99432 9.09941 7.14773 9.26356 7.3191C10.8401 8.96497 13.5173 8.99313 15.0938 7.34725C15.1452 7.29364 15.1972 7.24188 15.25 7.19196ZM15.25 12C15.25 12.4142 15.5858 12.75 16 12.75C16.4142 12.75 16.75 12.4142 16.75 12V11C16.75 10.5858 16.4142 10.25 16 10.25C15.5858 10.25 15.25 10.5858 15.25 11V12ZM8 12.75C7.58579 12.75 7.25 12.4142 7.25 12V11C7.25 10.5858 7.58579 10.25 8 10.25C8.41421 10.25 8.75 10.5858 8.75 11V12C8.75 12.4142 8.41421 12.75 8 12.75Z" fill="#00A881"/>
</svg>
