<svg width="24" height="25" viewBox="0 0 24 25" fill="none" xmlns="http://www.w3.org/2000/svg">
<path fill-rule="evenodd" clip-rule="evenodd" d="M9.02939 6.68718C9.35601 6.89065 9.66824 7.14222 9.95862 7.44538C11.1563 8.69578 13.1879 8.70911 14.3733 7.47156C14.5634 7.27308 14.7628 7.0977 14.9692 6.94439V6.70114C14.9692 5.06089 13.6395 3.7312 11.9993 3.7312C10.3637 3.7312 9.0369 5.05335 9.02939 6.68718ZM16.445 6.23302C19.3345 5.47834 22.6011 7.8946 21.9041 11.3417L20.69 17.3457C20.1089 20.2191 17.5612 22.2784 14.6125 22.2784H9.35348C6.25849 22.2784 3.60434 20.072 3.07892 17.0406L2.07279 11.2359C1.68874 9.02015 2.91467 7.25417 4.58139 6.46571C5.48793 6.03686 6.54476 5.88667 7.56932 6.10078C7.86261 3.916 9.7342 2.2312 11.9993 2.2312C14.3099 2.2312 16.211 3.98435 16.445 6.23302ZM15.7192 13.0311C15.305 13.0311 14.9692 12.6953 14.9692 12.2811V11.3511C14.9692 10.9369 15.305 10.6011 15.7192 10.6011C16.1334 10.6011 16.4692 10.9369 16.4692 11.3511V12.2811C16.4692 12.6953 16.1334 13.0311 15.7192 13.0311ZM8.27935 13.0311C7.86514 13.0311 7.52935 12.6953 7.52935 12.2811V11.3511C7.52935 10.9369 7.86514 10.6011 8.27935 10.6011C8.69357 10.6011 9.02935 10.9369 9.02935 11.3511V12.2811C9.02935 12.6953 8.69357 13.0311 8.27935 13.0311Z" fill="#4E5964"/>
</svg>
