<svg width="24" height="24" viewBox="0 0 24 24" fill="none" xmlns="http://www.w3.org/2000/svg">
<path d="M3.71173 12.9684C4.09326 12.9686 4.402 13.2785 4.40201 13.66L4.40137 16.6082C4.40101 18.2621 5.742 19.6035 7.39583 19.604L10.345 19.6047C10.7266 19.6049 11.0354 19.9146 11.0353 20.2962C11.035 20.6776 10.7262 20.9865 10.3447 20.9865L7.39553 20.9858C4.97832 20.9852 3.019 19.0252 3.01953 16.6079L3.02018 13.6597C3.02036 13.2781 3.33019 12.9684 3.71173 12.9684Z" fill="#4E5964"/>
<path d="M20.2986 12.9721C20.6801 12.9724 20.989 13.2821 20.9889 13.6636L20.9883 16.4458C20.9877 18.9549 18.9534 20.9882 16.4444 20.9878L13.6621 20.9872C13.2806 20.9871 12.971 20.6781 12.9709 20.2966C12.971 19.9149 13.2807 19.6053 13.6624 19.6054L16.4447 19.606C18.1903 19.6062 19.606 18.1912 19.6065 16.4455L19.6071 13.6633C19.6072 13.2816 19.917 12.972 20.2986 12.9721Z" fill="#4E5964"/>
<path d="M8.31836 16.6091L6.47461 16.6087L6.47663 7.39384L8.32038 7.39424L8.31836 16.6091Z" fill="#4E5964"/>
<path d="M10.1611 16.6095L9.23926 16.6093L9.24128 7.39445L10.1632 7.39465L10.1611 16.6095Z" fill="#4E5964"/>
<path d="M12.9248 16.6101L11.082 16.6097L11.084 7.39485L12.9268 7.39525L12.9248 16.6101Z" fill="#4E5964"/>
<path d="M14.7686 16.6105L13.8467 16.6103L13.8487 7.39643L14.7706 7.39663L14.7686 16.6105Z" fill="#4E5964"/>
<path d="M17.5322 16.6111L15.6895 16.6107L15.6915 7.39586L17.5342 7.39626L17.5322 16.6111Z" fill="#4E5964"/>
<path d="M9.5186 3.01755C9.90028 3.01764 10.2099 3.32744 10.2099 3.70911C10.2098 4.0908 9.89998 4.40045 9.5183 4.40037L7.39916 4.3999C5.74535 4.39959 4.40394 5.73961 4.40338 7.39339L4.40292 9.51253C4.40284 9.89407 4.09383 10.2036 3.71234 10.2038C3.33065 10.2037 3.021 9.89391 3.02108 9.51223L3.02155 7.39308C3.02227 4.97594 4.98228 3.01661 7.39946 3.01709L9.5186 3.01755Z" fill="#4E5964"/>
<path d="M16.6143 3.01911C19.0314 3.01977 20.9906 4.97992 20.9903 7.39702L20.9898 9.51616C20.9898 9.89778 20.6799 10.2074 20.2983 10.2074C19.9167 10.2072 19.6079 9.89745 19.608 9.51586L19.6085 7.39672C19.6086 5.74299 18.2677 4.40241 16.614 4.40192L13.6648 4.40127C13.2832 4.40104 12.9744 4.09131 12.9745 3.70972C12.9746 3.32813 13.2835 3.01853 13.6651 3.01846L16.6143 3.01911Z" fill="#4E5964"/>
</svg>
