<svg width="24" height="24" viewBox="0 0 24 24" fill="none" xmlns="http://www.w3.org/2000/svg">
<path d="M20.2497 9.29977L20.2502 6.99996C20.2506 5.2051 18.7957 3.74975 17.0009 3.74925L13.8007 3.74855C13.3865 3.74846 13.0508 3.4126 13.0509 2.99839C13.051 2.58417 13.3868 2.24846 13.801 2.24855L17.0012 2.24925C19.6245 2.24993 21.7508 4.377 21.7502 7.00029L21.7497 9.3001C21.7496 9.71424 21.4137 10.0499 20.9995 10.0499C20.5853 10.0498 20.2496 9.71398 20.2497 9.29977Z" fill="#4E5964"/>
<path d="M20.2485 16.8196L20.2491 13.8C20.2492 13.3858 20.5851 13.0501 20.9993 13.0502C21.4134 13.0504 21.7492 13.3862 21.7491 13.8004L21.7485 16.8199C21.7478 19.5429 19.5397 21.75 16.8167 21.7495L13.7972 21.7488C13.383 21.7487 13.0474 21.4128 13.0474 20.9986C13.0474 20.5844 13.3833 20.2487 13.7975 20.2488L16.817 20.2495C18.7116 20.2498 20.248 18.7141 20.2485 16.8196Z" fill="#4E5964"/>
<path d="M3.7497 9.29616L3.7502 6.99636C3.75059 5.20143 5.20599 3.74668 7.00091 3.74707L9.30072 3.74757C9.71493 3.74766 10.0508 3.41195 10.0509 2.99774C10.051 2.58352 9.71526 2.24766 9.30105 2.24757L7.00124 2.24707C4.37789 2.2465 2.25078 4.37268 2.2502 6.99603L2.2497 9.29584C2.24961 9.71005 2.58532 10.0459 2.99953 10.046C3.41366 10.046 3.74961 9.71031 3.7497 9.29616Z" fill="#4E5964"/>
<path d="M3.74875 13.7963L3.74805 16.9965C3.74765 18.7914 5.2025 20.2467 6.99734 20.2472L10.1975 20.2479C10.6117 20.248 10.9475 20.5839 10.9474 20.9981C10.9473 21.4123 10.6114 21.748 10.1972 21.7479L6.99701 21.7472C4.37374 21.7465 2.24747 19.6195 2.24805 16.9962L2.24875 13.796C2.24894 13.3819 2.58485 13.0462 2.99891 13.0461C3.41306 13.0462 3.74873 13.3822 3.74875 13.7963Z" fill="#4E5964"/>
<path d="M6.49618 16.9958L5.49618 16.9958L5.49618 6.9958L6.49618 6.9958L6.49618 16.9958Z" fill="#4E5964"/>
<path d="M7.49813 16.996L6.49813 16.996L6.49813 6.99605L7.49813 6.99605L7.49813 16.996Z" fill="#4E5964"/>
<path d="M14.4977 16.9955L13.4977 16.9955L13.4977 6.99554L14.4977 6.99554L14.4977 16.9955Z" fill="#4E5964"/>
<path d="M10.4997 16.9956L9.49967 16.9956L9.49967 6.99561L10.4997 6.99561L10.4997 16.9956Z" fill="#4E5964"/>
<path d="M11.4981 16.9956L10.4981 16.9956L10.4981 6.99559L11.4981 6.99559L11.4981 16.9956Z" fill="#4E5964"/>
<path d="M18.4977 16.9956L17.4977 16.9956L17.4977 6.99561L18.4977 6.99561L18.4977 16.9956Z" fill="#4E5964"/>
<path d="M17.4966 16.9957L16.4966 16.9957L16.4966 6.99572L17.4966 6.99572L17.4966 16.9957Z" fill="#4E5964"/>
</svg>
