<svg width="24" height="24" viewBox="0 0 24 24" fill="none" xmlns="http://www.w3.org/2000/svg">
<path d="M3.00282 13.0504C3.41697 13.0505 3.75264 13.3864 3.75265 13.8006L3.75195 17.0008C3.75162 18.7956 5.20646 20.2509 7.00124 20.2515L10.2014 20.2522C10.6157 20.2523 10.9514 20.5881 10.9513 21.0023C10.9511 21.4165 10.6153 21.7523 10.2011 21.7522L7.00091 21.7515C4.3777 21.7508 2.25144 19.6236 2.25195 17.0004L2.25265 13.8002C2.25285 13.3862 2.58878 13.0504 3.00282 13.0504Z" fill="#4E5964"/>
<path d="M21.0028 13.0543C21.4169 13.0545 21.7527 13.3904 21.7527 13.8045L21.752 16.824C21.7513 19.547 19.5432 21.7541 16.8202 21.7536L13.8007 21.753C13.3868 21.7526 13.0509 21.4168 13.0509 21.0028C13.051 20.5887 13.387 20.2531 13.801 20.253L16.8206 20.2536C18.7151 20.2539 20.2515 18.7183 20.252 16.8237L20.2527 13.8042C20.2528 13.3901 20.5888 13.0545 21.0028 13.0543Z" fill="#4E5964"/>
<path d="M8 16.9997L6 17.0003L6.00024 7.00027L8.00024 6.99973L8 16.9997Z" fill="#4E5964"/>
<path d="M9.99805 17.0002L8.99805 16.9999L8.99828 6.99995L9.99828 7.00017L9.99805 17.0002Z" fill="#4E5964"/>
<path d="M13 16.9998L11 16.9994L11.0002 6.99941L13.0002 6.99985L13 16.9998Z" fill="#4E5964"/>
<path d="M14.998 17.0003L13.998 17.0001L13.9983 7.00007L14.9983 7.00029L14.998 17.0003Z" fill="#4E5964"/>
<path d="M18 17L16 16.9995L16.0002 6.99953L18.0002 6.99997L18 17Z" fill="#4E5964"/>
<path d="M9.30499 2.25197C9.7192 2.25206 10.0549 2.58792 10.0548 3.00213C10.0546 3.41627 9.71882 3.75206 9.30466 3.75197L7.00485 3.75146C5.20993 3.75107 3.75454 5.20583 3.75414 7.00075L3.75364 9.30056C3.75346 9.71463 3.41755 10.0504 3.00347 10.0504C2.58931 10.0503 2.25363 9.71437 2.25364 9.30023L2.25414 7.00042C2.25472 4.37707 4.38183 2.25089 7.00518 2.25146L9.30499 2.25197Z" fill="#4E5964"/>
<path d="M17.0052 2.25365C19.6284 2.25433 21.7547 4.38141 21.7541 7.00469L21.7536 9.3045C21.7535 9.71857 21.4175 10.0543 21.0035 10.0543C20.5893 10.0542 20.2536 9.71831 20.2536 9.30417L20.2541 7.00437C20.2545 5.20951 18.7997 3.75415 17.0049 3.75365L13.8047 3.75295C13.3905 3.75286 13.0548 3.41693 13.0548 3.00279C13.0549 2.58858 13.3908 2.25286 13.805 2.25295L17.0052 2.25365Z" fill="#4E5964"/>
</svg>
