<svg width="24" height="24" viewBox="0 0 24 24" fill="none" xmlns="http://www.w3.org/2000/svg">
<path fill-rule="evenodd" clip-rule="evenodd" d="M21.75 16.5C21.75 19.3995 19.3995 21.75 16.5 21.75H7.5C4.60051 21.75 2.25 19.3995 2.25 16.5V7.5C2.25 4.60051 4.60051 2.25 7.5 2.25H16.5C19.3995 2.25 21.75 4.60051 21.75 7.5V16.5ZM8.75 15.7501V17.0001C8.75 17.4143 9.08579 17.7501 9.5 17.7501C9.91421 17.7501 10.25 17.4143 10.25 17.0001V11.7501H11C11.4142 11.7501 11.75 11.4143 11.75 11.0001C11.75 10.5859 11.4142 10.2501 11 10.2501H10.25V7.00008C10.25 6.58587 9.91421 6.25008 9.5 6.25008C9.08579 6.25008 8.75 6.58587 8.75 7.00008V14.2501H8C7.58579 14.2501 7.25 14.5859 7.25 15.0001C7.25 15.4143 7.58579 15.7501 8 15.7501H8.75ZM13.75 8.75008V17.0001C13.75 17.4143 14.0858 17.7501 14.5 17.7501C14.9142 17.7501 15.25 17.4143 15.25 17.0001V14.7501H15.9561C16.37 14.7498 16.7061 14.4141 16.7061 14.0001C16.7061 13.586 16.37 13.2503 15.9561 13.2501H15.25V7.00008C15.25 6.58587 14.9142 6.25008 14.5 6.25008C14.0858 6.25008 13.75 6.58587 13.75 7.00008V7.25008H13C12.5858 7.25008 12.25 7.58587 12.25 8.00008C12.25 8.4143 12.5858 8.75008 13 8.75008H13.75Z" fill="#4E5964"/>
</svg>
