<svg width="24" height="24" viewBox="0 0 24 24" fill="none" xmlns="http://www.w3.org/2000/svg">
<path fill-rule="evenodd" clip-rule="evenodd" d="M2.25 7.5C2.25 4.60051 4.60051 2.25 7.5 2.25H16.5C19.3995 2.25 21.75 4.60051 21.75 7.5V16.5C21.75 19.3995 19.3995 21.75 16.5 21.75H7.5C4.60051 21.75 2.25 19.3995 2.25 16.5V7.5ZM10 6.25C10.4142 6.25 10.75 6.58579 10.75 7V9.25H11.5C11.9142 9.25 12.25 9.58579 12.25 10C12.25 10.4142 11.9142 10.75 11.5 10.75H10.75V17C10.75 17.4142 10.4142 17.75 10 17.75C9.58579 17.75 9.25 17.4142 9.25 17V14.75H8.5C8.08579 14.75 7.75 14.4142 7.75 14C7.75 13.5858 8.08579 13.25 8.5 13.25H9.25V7C9.25 6.58579 9.58579 6.25 10 6.25ZM14.75 7C14.75 6.58579 14.4142 6.25 14 6.25C13.5858 6.25 13.25 6.58579 13.25 7V7.25H12.5C12.0858 7.25 11.75 7.58579 11.75 8C11.75 8.41421 12.0858 8.75 12.5 8.75H13.25V17C13.25 17.4142 13.5858 17.75 14 17.75C14.4142 17.75 14.75 17.4142 14.75 17V13.75H15.5C15.9142 13.75 16.25 13.4142 16.25 13C16.25 12.5858 15.9142 12.25 15.5 12.25H14.75V7Z" fill="#4E5964"/>
</svg>
