<svg width="24" height="24" viewBox="0 0 24 24" fill="none" xmlns="http://www.w3.org/2000/svg">
<path fill-rule="evenodd" clip-rule="evenodd" d="M22.2441 13.5996C22.2441 14.1698 22.0175 14.7169 21.6143 15.1201C21.2111 15.5233 20.664 15.75 20.0938 15.75H19.7363C19.6069 17.9808 17.7574 19.75 15.4941 19.75H6.49414C4.14693 19.75 2.24414 17.8472 2.24414 15.5V8.5C2.24414 6.15279 4.14693 4.25 6.49414 4.25H15.4941C17.7574 4.25 19.6069 6.01917 19.7363 8.25H20.0938C20.664 8.25 21.2111 8.47668 21.6143 8.87988C22.0175 9.28308 22.2441 9.83017 22.2441 10.4004V13.5996ZM20.5537 9.94043C20.6756 10.0623 20.7441 10.228 20.7441 10.4004V13.5996C20.7441 13.772 20.6756 13.9377 20.5537 14.0596C20.4318 14.1815 20.2661 14.25 20.0938 14.25H19.7441V9.75H20.0938C20.2661 9.75 20.4318 9.81853 20.5537 9.94043ZM5.74414 8V16C5.74414 16.4142 6.07993 16.75 6.49414 16.75C6.90835 16.75 7.24414 16.4142 7.24414 16V8C7.24414 7.58579 6.90835 7.25 6.49414 7.25C6.07993 7.25 5.74414 7.58579 5.74414 8Z" fill="#4E5964"/>
</svg>
