<svg width="24" height="24" viewBox="0 0 24 24" fill="none" xmlns="http://www.w3.org/2000/svg">
<path fill-rule="evenodd" clip-rule="evenodd" d="M15.5 4.25C17.7656 4.25 19.6161 6.0228 19.7422 8.25684C20.8631 8.33032 21.75 9.26093 21.75 10.4004V13.5996C21.75 14.739 20.8631 15.6687 19.7422 15.7422C19.6166 17.9767 17.7659 19.75 15.5 19.75H6.5C4.15279 19.75 2.25 17.8472 2.25 15.5V8.5C2.25 6.15279 4.15279 4.25 6.5 4.25H15.5ZM5 16C5 16.5523 5.44772 17 6 17C6.55228 17 7 16.5523 7 16V8C7 7.44772 6.55228 7 6 7C5.44772 7 5 7.44772 5 8V16ZM19.75 14.2295C20.0362 14.1613 20.25 13.9066 20.25 13.5996V10.4004C20.25 10.0933 20.0363 9.83763 19.75 9.76953V14.2295Z" fill="#4E5964"/>
</svg>
