<svg width="24" height="24" viewBox="0 0 24 24" fill="none" xmlns="http://www.w3.org/2000/svg">
<path d="M15 3.25C17.6234 3.25 19.75 5.37665 19.75 8V8.43555L20.125 8.54395C21.0876 8.82216 21.75 9.70402 21.75 10.7061V13.3291C21.7498 14.3614 21.0474 15.2613 20.0459 15.5117L19.75 15.585V16C19.75 18.6234 17.6234 20.75 15 20.75H7C4.37665 20.75 2.25 18.6234 2.25 16V8C2.25 5.37665 4.37665 3.25 7 3.25H15ZM7 4.75C5.20507 4.75 3.75 6.20507 3.75 8V16C3.75 17.7949 5.20507 19.25 7 19.25H15C16.7949 19.25 18.25 17.7949 18.25 16V8C18.25 6.20507 16.7949 4.75 15 4.75H7ZM8.75 17.75H7C6.0335 17.75 5.25 16.9665 5.25 16V8C5.25 7.0335 6.0335 6.25 7 6.25H8.75V17.75ZM19.75 14.0361C20.0472 13.9314 20.2498 13.6492 20.25 13.3291V10.7061C20.25 10.3867 20.0483 10.1033 19.75 9.99805V14.0361Z" fill="#4E5964"/>
</svg>
