<svg width="24" height="25" viewBox="0 0 24 25" fill="none" xmlns="http://www.w3.org/2000/svg">
<path d="M5.25 8.27563C5.25 7.30914 6.0335 6.52563 7 6.52563H8.75V18.0256H7C6.0335 18.0256 5.25 17.2421 5.25 16.2756V8.27563Z" fill="#4E5964"/>
<path d="M9.25 6.52563H12.75V18.0256H9.25V6.52563Z" fill="#4E5964"/>
<path fill-rule="evenodd" clip-rule="evenodd" d="M2.25 8.27563C2.25 5.65228 4.37665 3.52563 7 3.52563H15C17.6234 3.52563 19.75 5.65228 19.75 8.27563V8.71144L20.1249 8.81981C21.0876 9.09803 21.7502 9.9793 21.7502 10.9813V13.6043C21.7502 14.6367 21.0476 15.5367 20.0459 15.7871L19.75 15.8611V16.2756C19.75 18.899 17.6234 21.0256 15 21.0256H7C4.37665 21.0256 2.25 18.899 2.25 16.2756V8.27563ZM19.75 14.3115V10.2741C20.0483 10.3793 20.2502 10.6619 20.2502 10.9813V13.6043C20.2502 13.9246 20.0473 14.2067 19.75 14.3115ZM7 5.02563C5.20507 5.02563 3.75 6.48071 3.75 8.27563V16.2756C3.75 18.0706 5.20507 19.5256 7 19.5256H15C16.7949 19.5256 18.25 18.0706 18.25 16.2756V8.27563C18.25 6.48071 16.7949 5.02563 15 5.02563H7Z" fill="#4E5964"/>
</svg>
