<svg width="24" height="24" viewBox="0 0 24 24" fill="none" xmlns="http://www.w3.org/2000/svg">
<path fill-rule="evenodd" clip-rule="evenodd" d="M20.0938 15.75C21.2812 15.75 22.2441 14.787 22.2441 13.5996V10.4004C22.2441 9.21298 21.2812 8.25 20.0938 8.25H19.7363C19.6069 6.01917 17.7574 4.25 15.4941 4.25H6.49414C4.14693 4.25 2.24414 6.15279 2.24414 8.5V15.5C2.24414 17.8472 4.14693 19.75 6.49414 19.75H15.4941C17.7574 19.75 19.6069 17.9808 19.7363 15.75H20.0938ZM20.7441 10.4004C20.7441 10.0414 20.4527 9.75 20.0938 9.75H19.7441V14.25H20.0938C20.4527 14.25 20.7441 13.9586 20.7441 13.5996V10.4004Z" fill="#4E5964"/>
</svg>
