<svg width="24" height="24" viewBox="0 0 24 24" fill="none" xmlns="http://www.w3.org/2000/svg">
<path fill-rule="evenodd" clip-rule="evenodd" d="M21.6143 15.1201C22.0175 14.7169 22.2441 14.1698 22.2441 13.5996V10.4004C22.2441 9.83017 22.0175 9.28308 21.6143 8.87988C21.2111 8.47668 20.664 8.25 20.0938 8.25H19.7363C19.6069 6.01917 17.7574 4.25 15.4941 4.25H6.49414C4.14693 4.25 2.24414 6.15279 2.24414 8.5V15.5C2.24414 17.8472 4.14693 19.75 6.49414 19.75H15.4941C17.7574 19.75 19.6069 17.9808 19.7363 15.75H20.0938C20.664 15.75 21.2111 15.5233 21.6143 15.1201ZM20.7441 10.4004C20.7441 10.228 20.6756 10.0623 20.5537 9.94043C20.4318 9.81853 20.2661 9.75 20.0938 9.75H19.7441V14.25H20.0938C20.2661 14.25 20.4318 14.1815 20.5537 14.0596C20.6756 13.9377 20.7441 13.772 20.7441 13.5996V10.4004ZM5.74414 16V8C5.74414 7.58579 6.07993 7.25 6.49414 7.25C6.90835 7.25 7.24414 7.58579 7.24414 8V16C7.24414 16.4142 6.90835 16.75 6.49414 16.75C6.07993 16.75 5.74414 16.4142 5.74414 16ZM8.74414 16V8C8.74414 7.58579 9.07993 7.25 9.49414 7.25C9.90835 7.25 10.2441 7.58579 10.2441 8V16C10.2441 16.4142 9.90835 16.75 9.49414 16.75C9.07993 16.75 8.74414 16.4142 8.74414 16ZM11.7441 16V8C11.7441 7.58579 12.0799 7.25 12.4941 7.25C12.9084 7.25 13.2441 7.58579 13.2441 8V16C13.2441 16.4142 12.9084 16.75 12.4941 16.75C12.0799 16.75 11.7441 16.4142 11.7441 16ZM14.7441 16V8C14.7441 7.58579 15.0799 7.25 15.4941 7.25C15.9084 7.25 16.2441 7.58579 16.2441 8V16C16.2441 16.4142 15.9084 16.75 15.4941 16.75C15.0799 16.75 14.7441 16.4142 14.7441 16Z" fill="#4E5964"/>
</svg>
