<svg width="24" height="24" viewBox="0 0 24 24" fill="none" xmlns="http://www.w3.org/2000/svg">
<path fill-rule="evenodd" clip-rule="evenodd" d="M18.4342 12.5068C18.742 12.2296 19.2165 12.2547 19.4938 12.5625C19.6123 12.6942 19.6728 12.8564 19.6822 13.0205C19.6955 13.2406 19.6146 13.464 19.4381 13.623L17.692 15.1953L18.861 16.4931C19.773 16.2292 20.8008 16.9213 20.7447 17.9961L20.6813 19.2363C20.6337 20.1463 19.8568 20.8462 18.9469 20.7988L17.7067 20.7334C16.6317 20.6773 16.0501 19.5818 16.4078 18.7021L15.2389 17.4053L13.4947 18.9775C13.187 19.2547 12.7124 19.2296 12.4352 18.9219C12.2622 18.7296 12.2064 18.4727 12.2643 18.2392C12.2988 18.0982 12.3748 17.9658 12.4908 17.8613L13.3365 17.0986L13.2682 17.0351L12.6695 16.4775L17.0358 12.5449L17.5289 13.1924L17.5865 13.2695L18.4342 12.5068ZM16.2057 16.5342L17.276 17.7226L17.7955 17.2549L16.7252 16.0664L16.2057 16.5342Z" fill="#4E5964"/>
<path fill-rule="evenodd" clip-rule="evenodd" d="M18.4547 3.23338C19.7362 3.10936 20.8129 4.18627 20.6891 5.46775L20.4361 8.08201C20.3855 8.6048 20.136 9.08885 19.7389 9.4326L10.6129 17.3291L11.4313 18.1474C11.7242 18.4403 11.7242 18.9151 11.4313 19.208C11.1384 19.5008 10.6636 19.5009 10.3707 19.208L8.70959 17.5459L7.47521 18.7812C7.78653 19.6783 7.14828 20.7422 6.07189 20.7422H4.8297C3.91865 20.742 3.17937 20.0029 3.17931 19.0918L3.18029 17.8496C3.18039 16.7734 4.24326 16.1362 5.14025 16.4472L6.3756 15.2119L4.71447 13.5508C4.42161 13.2579 4.42159 12.7831 4.71447 12.4902C5.00738 12.1977 5.48225 12.1975 5.77502 12.4902L6.59338 13.3096L14.4908 4.18455C14.8346 3.78734 15.3185 3.53789 15.8414 3.48729L18.4547 3.23338ZM6.16369 17.2637L6.6588 17.7578L7.78966 16.626L7.29552 16.1318L6.16369 17.2637Z" fill="#4E5964"/>
<path d="M7.80822 3.30369C8.30314 3.31087 8.77805 3.49716 9.14611 3.82811L11.8444 6.25389L9.44396 8.96483L9.44201 8.96678L7.35021 11.3144L6.84533 11.8799L4.1549 9.42772C3.80214 9.10626 3.57166 8.67185 3.50548 8.1992L3.14123 5.59568C2.96727 4.35298 3.94317 3.24755 5.19787 3.26561L7.80822 3.30369Z" fill="#4E5964"/>
</svg>
