<svg width="24" height="24" viewBox="0 0 24 24" fill="none" xmlns="http://www.w3.org/2000/svg">
<path fill-rule="evenodd" clip-rule="evenodd" d="M22.25 13.5996C22.25 14.1698 22.0233 14.7169 21.6201 15.1201C21.2169 15.5233 20.6698 15.75 20.0996 15.75H19.7422C19.6128 17.9808 17.7633 19.75 15.5 19.75H6.5C4.15279 19.75 2.25 17.8472 2.25 15.5V8.5C2.25 6.15279 4.15279 4.25 6.5 4.25H15.5C17.7633 4.25 19.6128 6.01917 19.7422 8.25H20.0996C20.6698 8.25 21.2169 8.47668 21.6201 8.87988C22.0233 9.28308 22.25 9.83017 22.25 10.4004V13.5996ZM20.5596 9.94043C20.6815 10.0623 20.75 10.228 20.75 10.4004V13.5996C20.75 13.772 20.6815 13.9377 20.5596 14.0596C20.4377 14.1815 20.272 14.25 20.0996 14.25H19.75V9.75H20.0996C20.272 9.75 20.4377 9.81853 20.5596 9.94043ZM5.75 8V16C5.75 16.4142 6.08579 16.75 6.5 16.75C6.91421 16.75 7.25 16.4142 7.25 16V8C7.25 7.58579 6.91421 7.25 6.5 7.25C6.08579 7.25 5.75 7.58579 5.75 8ZM8.75 8V16C8.75 16.4142 9.08579 16.75 9.5 16.75C9.91421 16.75 10.25 16.4142 10.25 16V8C10.25 7.58579 9.91421 7.25 9.5 7.25C9.08579 7.25 8.75 7.58579 8.75 8Z" fill="#4E5964"/>
</svg>
