<svg width="24" height="25" viewBox="0 0 24 25" fill="none" xmlns="http://www.w3.org/2000/svg">
<path d="M5.25 8.27588C5.25 7.30938 6.0335 6.52588 7 6.52588H7.99323C8.30399 6.52588 8.58345 6.71508 8.69887 7.00362L12.6909 16.9836C12.8906 17.4828 12.5229 18.0259 11.9852 18.0259H7C6.0335 18.0259 5.25 17.2424 5.25 16.2759V8.27588Z" fill="#4E5964"/>
<path fill-rule="evenodd" clip-rule="evenodd" d="M7 3.52588C4.37665 3.52588 2.25 5.65253 2.25 8.27588V16.2759C2.25 18.8992 4.37665 21.0259 7 21.0259H15C17.6234 21.0259 19.75 18.8992 19.75 16.2759V15.8613L20.0459 15.7873C21.0476 15.5369 21.7502 14.637 21.7502 13.6045V10.9816C21.7502 9.97955 21.0876 9.09827 20.1249 8.82005L19.75 8.71169V8.27588C19.75 5.65253 17.6234 3.52588 15 3.52588H7ZM19.75 10.2744V14.3117C20.0473 14.2069 20.2502 13.9248 20.2502 13.6045V10.9816C20.2502 10.6622 20.0483 10.3796 19.75 10.2744ZM3.75 8.27588C3.75 6.48095 5.20507 5.02588 7 5.02588H15C16.7949 5.02588 18.25 6.48095 18.25 8.27588V16.2759C18.25 18.0708 16.7949 19.5259 15 19.5259H7C5.20507 19.5259 3.75 18.0708 3.75 16.2759V8.27588Z" fill="#4E5964"/>
</svg>
