<svg width="24" height="25" viewBox="0 0 24 25" fill="none" xmlns="http://www.w3.org/2000/svg">
<path fill-rule="evenodd" clip-rule="evenodd" d="M6.5 4.52588C4.15279 4.52588 2.25 6.42867 2.25 8.77588V15.7759C2.25 18.1231 4.15279 20.0259 6.5 20.0259H15.5C17.8185 20.0259 19.7035 18.1693 19.7492 15.8617L20.0457 15.7875C21.0473 15.5371 21.75 14.6372 21.75 13.6047V10.9818C21.75 9.97974 21.0874 9.09846 20.1247 8.82024L19.7495 8.71181C19.7153 6.39414 17.8258 4.52588 15.5 4.52588H6.5ZM19.75 10.2747V14.3118C20.0472 14.207 20.25 13.925 20.25 13.6047V10.9818C20.25 10.6625 20.0481 10.3799 19.75 10.2747Z" fill="#4E5964"/>
</svg>
