<svg width="24" height="24" viewBox="0 0 24 24" fill="none" xmlns="http://www.w3.org/2000/svg">
<path d="M9.98926 16.5713C10.4633 16.7799 10.9752 16.9176 11.5127 16.9697C11.2997 17.3613 11.0295 17.7302 10.6982 18.0615C9.428 19.3318 7.6195 19.7341 6.00977 19.2734C5.61007 19.159 5.37894 18.7425 5.49316 18.3428C5.6078 17.9433 6.02423 17.7109 6.42383 17.8252C7.52888 18.1415 8.76484 17.8641 9.63281 16.9961C9.76601 16.8629 9.88392 16.72 9.98926 16.5713ZM14.0117 16.5723C14.117 16.721 14.236 16.8629 14.3691 16.9961C15.2371 17.864 16.4731 18.1415 17.5781 17.8252C17.9777 17.711 18.3952 17.9433 18.5098 18.3428C18.6238 18.7422 18.3925 19.1588 17.9932 19.2734C16.3834 19.7342 14.575 19.3317 13.3047 18.0615C12.9732 17.7301 12.7016 17.3616 12.4883 16.9697C13.0257 16.9177 13.5377 16.7808 14.0117 16.5723ZM12.001 15.626C12.0936 16.0905 12.2565 16.544 12.4883 16.9697C12.3279 16.9853 12.1654 16.9941 12.001 16.9941C11.8363 16.9941 11.6733 16.9853 11.5127 16.9697C11.7443 16.5439 11.9083 16.0907 12.001 15.626ZM16.9688 11.4404C16.9888 11.6223 17.001 11.8069 17.001 11.9941C17.001 14.04 15.7715 15.7981 14.0117 16.5723C13.1095 15.2986 13.2284 13.5228 14.3691 12.3818C15.0806 11.6705 16.0391 11.3574 16.9688 11.4404ZM7.03125 11.4404C7.96133 11.3567 8.92076 11.6699 9.63281 12.3818C10.7737 13.5228 10.8914 15.2976 9.98926 16.5713C8.22994 15.7969 7.00098 14.0397 7.00098 11.9941C7.00099 11.807 7.0112 11.6222 7.03125 11.4404ZM7.4502 9.92285C7.23525 10.3942 7.09037 10.9043 7.03125 11.4404C6.29702 11.5065 5.58071 11.8198 5.01855 12.3818C4.15066 13.2497 3.87232 14.4859 4.18848 15.5908C4.30281 15.9905 4.07145 16.4069 3.67188 16.5215C3.27213 16.6358 2.85564 16.4046 2.74121 16.0049C2.2806 14.3952 2.6829 12.5866 3.95312 11.3164C4.91605 10.3537 6.18854 9.88998 7.4502 9.92285ZM16.5508 9.92188C17.8127 9.88868 19.0857 10.3534 20.0488 11.3164C21.319 12.5866 21.7222 14.3952 21.2617 16.0049C21.1473 16.4047 20.7299 16.6359 20.3301 16.5215C19.9304 16.407 19.6992 15.9905 19.8135 15.5908C20.1296 14.486 19.852 13.2497 18.9844 12.3818C18.4217 11.8192 17.704 11.5061 16.9688 11.4404C16.9096 10.904 16.766 10.3935 16.5508 9.92188ZM12.5879 12.2324C12.302 12.7075 12.1066 13.2223 12.001 13.751C11.8965 13.2281 11.7047 12.7188 11.4238 12.248C11.5947 12.2666 11.7686 12.2773 11.9443 12.2773C12.1626 12.2773 12.3774 12.2608 12.5879 12.2324ZM12.001 6.99414C13.1945 6.99419 14.2898 7.41348 15.1494 8.11133C14.8664 9.62515 13.5401 10.7712 11.9443 10.7715C10.3776 10.7715 9.06819 9.66716 8.75293 8.19434C9.62674 7.44684 10.7609 6.99414 12.001 6.99414ZM16.3008 9.44336C16.3925 9.59766 16.4758 9.75743 16.5508 9.92188C16.3775 9.92643 16.2043 9.94053 16.0322 9.96387C16.1326 9.79705 16.221 9.62265 16.3008 9.44336ZM7.6377 9.55273C7.70202 9.68788 7.77043 9.82046 7.84668 9.94824C7.71496 9.93385 7.58252 9.9263 7.4502 9.92285C7.50777 9.79659 7.57018 9.67311 7.6377 9.55273ZM9.63281 3.33594C9.99627 3.13451 10.4544 3.26567 10.6562 3.62891C10.858 3.99242 10.7266 4.45046 10.3633 4.65234C9.35852 5.20997 8.68096 6.28069 8.68066 7.50781C8.68066 7.74315 8.70558 7.97311 8.75293 8.19434C8.30595 8.5767 7.92739 9.03623 7.6377 9.55273C7.34265 8.93283 7.1748 8.23996 7.1748 7.50781C7.1751 5.71168 8.16896 4.14831 9.63281 3.33594ZM13.2314 3.62891C13.4333 3.26567 13.8914 3.13436 14.2549 3.33594C15.7188 4.14829 16.7126 5.71161 16.7129 7.50781C16.7129 8.19709 16.564 8.85172 16.3008 9.44336C15.9979 8.93392 15.6073 8.48303 15.1494 8.11133C15.186 7.91578 15.207 7.71395 15.207 7.50781C15.2067 6.28062 14.5293 5.20994 13.5244 4.65234C13.1609 4.45053 13.0297 3.99248 13.2314 3.62891Z" fill="#4E5964"/>
</svg>
