<svg width="24" height="24" viewBox="0 0 24 24" fill="none" xmlns="http://www.w3.org/2000/svg">
<path d="M5.25 17.6382V21.6548C5.01014 21.5935 4.77528 21.5023 4.55078 21.3813L2.99512 20.5435C1.90672 19.9567 1.25001 18.7795 1.25 17.5269V16.4722C1.25009 16.0801 1.31482 15.6966 1.43555 15.3374L5.25 17.6382ZM10.5645 15.3354C10.6858 15.6963 10.7499 16.0809 10.75 16.4722V16.7505H13.25V16.4722C13.2501 16.0802 13.3148 15.6967 13.4355 15.3374L17.25 17.6382V21.6548C17.0101 21.5935 16.7753 21.5023 16.5508 21.3813L14.9951 20.5435C14.12 20.0717 13.5242 19.218 13.3242 18.2505H10.6758C10.476 19.2183 9.88016 20.0716 9.00488 20.5435L7.44922 21.3813C7.22472 21.5023 6.98986 21.5935 6.75 21.6548V17.6372L10.5645 15.3354ZM22.5645 15.3354C22.6858 15.6963 22.7499 16.0809 22.75 16.4722V17.5278C22.7498 18.7804 22.0929 19.9568 21.0049 20.5435L19.4492 21.3813C19.2247 21.5023 18.9899 21.5935 18.75 21.6548V17.6372L22.5645 15.3354ZM11.25 7.63818V11.6548C11.0101 11.5935 10.7753 11.5023 10.5508 11.3813L9.80371 10.979L8.53418 13.2017L9.00488 13.4556C9.29905 13.6141 9.56048 13.8176 9.78711 14.0522L5.99902 16.3384L2.21191 14.0522C2.43848 13.8174 2.70084 13.6142 2.99512 13.4556L4.55078 12.6177C5.38135 12.1702 6.35093 12.132 7.20605 12.5015L8.50977 10.2192C7.71512 9.57881 7.25 8.58003 7.25 7.52686V6.47217C7.25009 6.08014 7.31482 5.69664 7.43555 5.3374L11.25 7.63818ZM16.5645 5.33545C16.6858 5.69628 16.7499 6.08089 16.75 6.47217V7.52783C16.7499 8.42733 16.4093 9.28582 15.8154 9.9165L17.209 12.355C17.953 12.1539 18.7498 12.2414 19.4482 12.6177L21.0049 13.4556C21.2991 13.6141 21.5605 13.8175 21.7871 14.0522L17.999 16.3384L14.2119 14.0522C14.4385 13.8173 14.7009 13.6142 14.9951 13.4556L15.8477 12.9956L14.5771 10.7729L13.4492 11.3813C13.2247 11.5023 12.9899 11.5935 12.75 11.6548V7.63721L16.5645 5.33545ZM10.5508 2.61768C11.4607 2.12747 12.5379 2.12728 13.4482 2.61768L15.0049 3.45557C15.2991 3.61411 15.5605 3.81762 15.7871 4.05225L11.999 6.33838L8.21191 4.05225C8.43848 3.81741 8.70084 3.61417 8.99512 3.45557L10.5508 2.61768Z" fill="#4E5964"/>
</svg>
