<svg width="24" height="24" viewBox="0 0 24 24" fill="none" xmlns="http://www.w3.org/2000/svg">
<path d="M5.25 17.6382V21.6548C5.01014 21.5935 4.77528 21.5024 4.55078 21.3814L2.99512 20.5435C1.90672 19.9567 1.25001 18.7796 1.25 17.5269V16.4722C1.25009 16.0802 1.31482 15.6967 1.43555 15.3375L5.25 17.6382Z" fill="#4E5964"/>
<path d="M10.5645 15.3355C10.6858 15.6963 10.7499 16.0809 10.75 16.4722V16.7505H13.25V16.4722C13.2501 16.0803 13.3148 15.6968 13.4355 15.3375L17.25 17.6382V21.6548C17.0101 21.5935 16.7753 21.5024 16.5508 21.3814L14.9951 20.5435C14.12 20.0717 13.5242 19.218 13.3242 18.2505H10.6758C10.476 19.2183 9.88016 20.0716 9.00488 20.5435L7.44922 21.3814C7.22472 21.5024 6.98986 21.5935 6.75 21.6548V17.6373L10.5645 15.3355Z" fill="#4E5964"/>
<path d="M22.5645 15.3355C22.6858 15.6964 22.7499 16.0809 22.75 16.4722V17.5279C22.7498 18.7805 22.0929 19.9569 21.0049 20.5435L19.4492 21.3814C19.2247 21.5024 18.9899 21.5935 18.75 21.6548V17.6373L22.5645 15.3355Z" fill="#4E5964"/>
<path d="M11.25 7.63823V11.6548C11.0101 11.5935 10.7753 11.5024 10.5508 11.3814L9.80371 10.9791L8.53418 13.2017L9.00488 13.4556C9.29905 13.6142 9.56048 13.8177 9.78711 14.0523L5.99902 16.3384L2.21191 14.0523C2.43848 13.8175 2.70084 13.6142 2.99512 13.4556L4.55078 12.6177C5.38135 12.1703 6.35093 12.132 7.20605 12.5015L8.50977 10.2193C7.71512 9.57886 7.25 8.58008 7.25 7.5269V6.47222C7.25009 6.08019 7.31482 5.69669 7.43555 5.33745L11.25 7.63823Z" fill="#4E5964"/>
<path d="M16.5645 5.3355C16.6858 5.69633 16.7499 6.08094 16.75 6.47222V7.52788C16.7499 8.42738 16.4093 9.28587 15.8154 9.91655L17.209 12.355C17.953 12.1539 18.7498 12.2415 19.4482 12.6177L21.0049 13.4556C21.2991 13.6142 21.5605 13.8176 21.7871 14.0523L17.999 16.3384L14.2119 14.0523C14.4385 13.8174 14.7009 13.6142 14.9951 13.4556L15.8477 12.9957L14.5771 10.773L13.4492 11.3814C13.2247 11.5024 12.9899 11.5935 12.75 11.6548V7.63726L16.5645 5.3355Z" fill="#4E5964"/>
<path d="M10.5508 2.61773C11.4607 2.12752 12.5379 2.12733 13.4482 2.61773L15.0049 3.45562C15.2991 3.61416 15.5605 3.81767 15.7871 4.0523L11.999 6.33843L8.21191 4.0523C8.43848 3.81746 8.70084 3.61422 8.99512 3.45562L10.5508 2.61773Z" fill="#4E5964"/>
</svg>
