<svg width="24" height="25" viewBox="0 0 24 25" fill="none" xmlns="http://www.w3.org/2000/svg">
<path d="M11.0423 13.5033V18.6989C11.0423 20.229 12.8677 21.0223 13.9864 19.9782L17.3679 16.8221C18.2002 16.0453 18.081 14.6933 17.1257 14.0742L13.6909 11.8479L17.0644 9.73948C18.051 9.12285 18.1723 7.73302 17.3076 6.95471L13.963 3.94461C12.8368 2.93107 11.0423 3.73028 11.0423 5.24538V10.1313L7.4002 7.77063C7.05261 7.54534 6.5882 7.64448 6.36291 7.99207C6.13762 8.33966 6.23677 8.80407 6.58435 9.02936L10.8975 11.8249L6.59479 14.5141C6.24354 14.7336 6.13676 15.1963 6.35629 15.5476C6.57582 15.8988 7.03853 16.0056 7.38979 15.7861L11.0423 13.5033Z" fill="#4E5964"/>
</svg>
