<svg width="24" height="24" viewBox="0 0 24 24" fill="none" xmlns="http://www.w3.org/2000/svg">
<path d="M11.0423 13.2276V18.4232C11.0423 19.9534 12.8677 20.7466 13.9864 19.7026L17.3679 16.5464C18.2002 15.7697 18.081 14.4177 17.1257 13.7986L13.6909 11.5723L17.0644 9.46384C18.051 8.84721 18.1723 7.45739 17.3076 6.67908L13.963 3.66898C12.8368 2.65543 11.0423 3.45464 11.0423 4.96974V9.85563L7.4002 7.49499C7.05261 7.2697 6.5882 7.36885 6.36291 7.71643C6.13762 8.06402 6.23677 8.52843 6.58435 8.75372L10.8975 11.5493L6.59479 14.2385C6.24354 14.458 6.13676 14.9207 6.35629 15.272C6.57582 15.6232 7.03853 15.73 7.38979 15.5105L11.0423 13.2276Z" fill="#4E5964"/>
</svg>
