<svg width="24" height="24" viewBox="0 0 24 24" fill="none" xmlns="http://www.w3.org/2000/svg">
<g clip-path="url(#clip0_5184_1756)">
<path fill-rule="evenodd" clip-rule="evenodd" d="M15.2792 23.1647L19.9456 20.6502C22.4298 19.3116 23.999 16.5767 23.999 13.5834V10.4187C23.999 7.42534 22.4298 4.68871 19.9455 3.35006L15.2777 0.834754C14.2536 0.282894 13.1399 0.00500975 12.0255 0.000900752C13.1403 0.00483654 14.2543 0.282719 15.2788 0.834754L19.9466 3.35006C22.4308 4.68871 24.0001 7.42534 24.0001 10.4187V13.5834C24.0001 16.5767 22.4308 19.3116 19.9466 20.6502L15.2803 23.1647C14.248 23.721 13.1242 23.9991 12.0005 23.999C13.1238 23.9989 14.2472 23.7208 15.2792 23.1647ZM11.9992 0.000854611C10.876 0.00105862 9.7528 0.279365 8.72061 0.83557L4.05431 3.35006C2.77107 4.04154 1.73199 5.10599 1.02722 6.38614C0.367616 7.58426 0.000854492 8.97132 0.000854492 10.4184V13.5818C0.000854492 16.5751 1.57008 19.3116 4.05431 20.6502L8.72062 23.1647C9.75297 23.721 10.8767 23.9991 12.0005 23.999C10.8771 23.9989 9.75371 23.7208 8.72168 23.1647L4.05537 20.6502C1.57115 19.3116 0.00191984 16.5751 0.00191984 13.5818V10.4184C0.00191984 9.23552 0.246987 8.09273 0.696744 7.06047C0.797196 6.82992 0.907858 6.60488 1.02828 6.38614C1.06778 6.31439 1.10833 6.24332 1.14992 6.17295C1.23576 6.0277 1.32601 5.88545 1.42053 5.74645C2.09716 4.75136 2.99252 3.92279 4.05537 3.35006L8.72168 0.83557C9.75354 0.279541 10.8763 0.00123434 11.9992 0.000854611ZM12.751 22.4458V13.0691L21.8757 7.53755C22.2768 8.4092 22.5001 9.39024 22.5001 10.4187V13.5834C22.5001 16.0663 21.1984 18.2718 19.2351 19.3297L14.5687 21.8442C13.9896 22.1563 13.3753 22.3568 12.751 22.4458ZM11.9895 11.7766L21.0969 6.25556C20.5863 5.60129 19.9552 5.05859 19.2351 4.67054L14.5672 2.15524C12.9474 1.28238 11.0538 1.2828 9.43324 2.15606L4.76693 4.67055C3.96148 5.10457 3.26762 5.73025 2.72835 6.49264L11.9895 11.7766ZM11.251 13.0823L2.00889 7.80912C1.68124 8.61362 1.50192 9.49946 1.50192 10.4184V13.5818C1.50192 16.0651 2.80389 18.2719 4.76693 19.3297L9.43324 21.8442C10.0124 22.1563 10.6267 22.3568 11.251 22.4458V13.0823Z" fill="#4E5964"/>
</g>
<defs>
<clipPath id="clip0_5184_1756">
<rect width="24" height="24" fill="white"/>
</clipPath>
</defs>
</svg>
