<svg width="24" height="24" viewBox="0 0 24 24" fill="none" xmlns="http://www.w3.org/2000/svg">
<path d="M14.733 21.3294L18.6219 19.2311C20.6922 18.1141 22 15.832 22 13.3342V10.6933C22 9.62798 21.7621 8.60165 21.3287 7.68816L12.5377 13.4211V22C13.2924 21.9281 14.0376 21.7046 14.733 21.3294Z" fill="#4E5964"/>
<path d="M11.0377 21.9433V13.4421L2.4075 8.32494C2.14236 9.06819 2 9.86896 2 10.6931V13.3328C2 15.8306 3.30779 18.1141 5.37814 19.2311L9.26703 21.3294C9.83164 21.634 10.4291 21.8387 11.0377 21.9433Z" fill="#4E5964"/>
<path d="M3.06685 6.97038C3.64268 6.06169 4.43053 5.30607 5.37814 4.79479L9.26703 2.69654C10.9875 1.76827 13.0113 1.76759 14.7317 2.69586L18.6219 4.79479C19.3678 5.19725 20.0147 5.75115 20.5372 6.41193L11.7689 12.1301L3.06685 6.97038Z" fill="#4E5964"/>
</svg>
