<svg width="24" height="25" viewBox="0 0 24 25" fill="none" xmlns="http://www.w3.org/2000/svg">
<path fill-rule="evenodd" clip-rule="evenodd" d="M14.778 3.31197C13.0295 2.3698 10.9675 2.37059 9.21934 3.31258L5.71934 5.19859C4.87238 5.65498 4.15578 6.30129 3.60276 7.07097L11.9987 11.9839L20.3956 7.07062C19.8423 6.30034 19.1259 5.65492 18.2791 5.19859L14.778 3.31197ZM21.068 8.24129L12.6737 13.1531L12.674 21.9162C13.3982 21.8312 14.1116 21.6088 14.7791 21.2492L18.2791 19.3631C20.3768 18.2328 21.6742 15.9433 21.6742 13.4684V11.0947C21.6742 10.0917 21.4611 9.11888 21.068 8.24129ZM11.324 21.9162L11.3237 13.1531L2.93015 8.24152C2.53759 9.11759 2.32422 10.0896 2.32422 11.0945V13.4672C2.32422 15.9419 3.6215 18.2327 5.71934 19.3631L9.21935 21.2492C9.8867 21.6088 10.5999 21.8311 11.324 21.9162Z" fill="#4E5964"/>
</svg>
