<svg width="24" height="24" viewBox="0 0 24 24" fill="none" xmlns="http://www.w3.org/2000/svg">
<path fill-rule="evenodd" clip-rule="evenodd" d="M14.778 3.03121C13.0295 2.08904 10.9675 2.08983 9.21934 3.03182L5.71934 4.91783C4.87238 5.37422 4.15578 6.02053 3.60276 6.79021L11.9987 11.7032L20.3956 6.78986C19.8423 6.01958 19.1259 5.37416 18.2791 4.91783L14.778 3.03121ZM21.068 7.96053L12.6737 12.8723L12.674 21.6355C13.3982 21.5504 14.1116 21.3281 14.7791 20.9684L18.2791 19.0824C20.3768 17.952 21.6742 15.6625 21.6742 13.1877V10.8139C21.6742 9.81092 21.4611 8.83812 21.068 7.96053ZM11.324 21.6354L11.3237 12.8723L2.93015 7.96076C2.53759 8.83682 2.32422 9.80882 2.32422 10.8137V13.1865C2.32422 15.6612 3.6215 17.9519 5.71934 19.0824L9.21935 20.9684C9.8867 21.328 10.5999 21.5503 11.324 21.6354Z" fill="#4E5964"/>
</svg>
