<svg width="24" height="24" viewBox="0 0 24 24" fill="none" xmlns="http://www.w3.org/2000/svg">
<path d="M14.733 21.3047L18.6219 19.2091C20.6922 18.0935 22 15.8143 22 13.3197V10.6822C22 9.61824 21.7621 8.59322 21.3287 7.6809L12.5377 13.4066V21.9745C13.2924 21.9027 14.0376 21.6794 14.733 21.3047Z" fill="#4E5964"/>
<path d="M11.0377 21.9179V13.4275L2.4075 8.31686C2.14236 9.05917 2 9.85892 2 10.682V13.3184C2 15.813 3.30779 18.0935 5.37814 19.2091L9.26703 21.3047C9.83164 21.6089 10.4291 21.8133 11.0377 21.9179Z" fill="#4E5964"/>
<path d="M3.06685 6.96404C3.64268 6.05651 4.43053 5.30185 5.37814 4.79122L9.26703 2.69565C10.9875 1.76857 13.0113 1.76789 14.7317 2.69497L18.6219 4.79122C19.3678 5.19317 20.0147 5.74636 20.5372 6.4063L11.7689 12.1172L3.06685 6.96404Z" fill="#4E5964"/>
</svg>
