<svg width="24" height="24" viewBox="0 0 24 24" fill="none" xmlns="http://www.w3.org/2000/svg">
<path d="M16.5059 2.25361C19.4051 2.2544 21.7552 4.60551 21.7547 7.50476L21.7527 16.5048C21.752 19.4041 19.4009 21.7541 16.5016 21.7536L7.50159 21.7516C4.60224 21.7509 2.2522 19.3998 2.25274 16.5005L2.25471 7.50049C2.25551 4.6012 4.60656 2.25111 7.50586 2.25164L16.5059 2.25361ZM10.1359 10.2503C9.93711 10.2503 9.74626 10.3293 9.60562 10.4699C9.465 10.6105 9.38578 10.8012 9.38578 11.0001L9.38566 16.0001C9.38572 16.4142 9.72147 16.7501 10.1355 16.7503L12.3572 16.7498C13.385 16.7498 14.2188 15.9166 14.2189 14.8889L14.2185 12.1115C14.2185 11.0837 13.3854 10.2498 12.3576 10.2498L10.1359 10.2503ZM6.67012 10.2505C6.38754 10.2505 6.13261 10.4088 6.005 10.6537L5.9581 10.763L4.29099 15.7627C4.16003 16.1555 4.37261 16.5809 4.76539 16.712C5.15824 16.8429 5.5836 16.6303 5.71471 16.2376L6.0069 15.3617L7.33307 15.361L7.62487 16.237C7.75587 16.6297 8.18027 16.8424 8.57301 16.7118C8.96596 16.5808 9.17881 16.1557 9.04782 15.7627L7.38095 10.7624C7.27876 10.4565 6.99259 10.2507 6.67012 10.2505ZM16.3801 10.2497C15.3522 10.2497 14.5183 11.0837 14.5183 12.1116L14.5183 12.3508C14.5184 12.9645 14.8202 13.521 15.2963 13.8627C15.2874 13.8624 15.278 13.8618 15.2689 13.8617C14.8548 13.8618 14.5188 14.1974 14.5188 14.6116L14.5187 14.8889C14.5189 15.9166 15.352 16.7495 16.3796 16.7497L17.5037 16.7499C18.5241 16.7499 19.3523 15.923 19.3527 14.9027C19.3527 14.052 18.771 13.3105 17.9449 13.1074L16.2936 12.7018C16.1324 12.662 16.0183 12.5163 16.0183 12.3502L16.0183 12.1109C16.0186 11.9117 16.1806 11.7498 16.3798 11.7497L17.4911 11.7499C17.6904 11.7501 17.8523 11.912 17.8523 12.1113C17.8525 12.5253 18.1882 12.8612 18.6022 12.8615C19.016 12.8612 19.352 12.5255 19.3523 12.1117C19.3523 11.0839 18.5191 10.2501 17.4914 10.2499L16.3801 10.2497ZM12.3573 11.7498C12.5567 11.7498 12.7185 11.9118 12.7185 12.1112L12.7189 14.8885C12.7189 15.088 12.5569 15.2498 12.3575 15.2498L10.8858 15.2504L10.8856 11.7504L12.3573 11.7498ZM15.9359 14.1578L17.5871 14.5634C17.7427 14.6017 17.8527 14.7421 17.8527 14.9023C17.8525 15.0944 17.6961 15.2499 17.504 15.2499L16.38 15.2497C16.1805 15.2497 16.0187 15.0877 16.0187 14.8883L16.0188 14.6109C16.0187 14.427 15.9502 14.2599 15.8402 14.1294C15.8718 14.139 15.9034 14.1498 15.9359 14.1578ZM6.8334 13.8609L6.50722 13.8618L6.66944 13.3716L6.8334 13.8609ZM6.53543 5.46139C6.26106 5.18702 5.82709 5.1697 5.53251 5.40941L5.47488 5.46115L5.46512 5.47092C5.1722 5.76371 5.17217 6.2385 5.46488 6.53146L5.47465 6.54221C5.76739 6.83455 6.24237 6.83473 6.53519 6.54244L6.54594 6.5317C6.83827 6.239 6.83835 5.764 6.54617 5.47115L6.53543 5.46139ZM8.5452 5.46183C8.27084 5.18746 7.83686 5.17016 7.54228 5.40985L7.48465 5.46159L7.47488 5.47136C7.18196 5.76415 7.18194 6.23894 7.47465 6.5319L7.48441 6.54265C7.77716 6.83501 8.25213 6.83518 8.54496 6.54288L8.5557 6.53214C8.84802 6.23943 8.84813 5.76443 8.55594 5.47159L8.5452 5.46183ZM10.0052 5.25219C9.59107 5.25209 9.25527 5.58792 9.25504 6.00202C9.25504 6.41615 9.59072 6.75209 10.0049 6.75219L18.0049 6.75394C18.4188 6.75379 18.7549 6.41808 18.755 6.0041C18.755 5.59015 18.4191 5.25427 18.0052 5.25394L10.0052 5.25219Z" fill="#4E5964"/>
</svg>
