<svg width="24" height="25" viewBox="0 0 24 25" fill="none" xmlns="http://www.w3.org/2000/svg">
<path fill-rule="evenodd" clip-rule="evenodd" d="M2.25197 7.77595C2.25261 4.87646 4.60363 2.52646 7.50312 2.5271L16.5041 2.52907C19.4032 2.52971 21.753 4.88002 21.753 7.77907L21.753 9.49987L21.753 9.50134C21.7516 10.1994 21.4736 10.8685 20.9798 11.3621L20.0973 12.2443C19.0547 11.1858 17.6049 10.5294 16.0018 10.529C12.8262 10.5283 10.2512 13.1021 10.2505 16.2778C10.2502 17.8809 10.9059 19.3309 11.964 20.374L10.8828 21.4546C10.5157 21.8216 10.0175 22.0273 9.49837 22.0261L7.5 22.0261C4.60006 22.0261 2.24937 19.6749 2.25 16.775L2.25197 7.77595ZM13.0249 19.3135L11.964 20.374C13.0018 21.3971 14.4268 22.0287 15.9993 22.029C18.445 22.0296 20.5344 20.5031 21.366 18.3507C21.3899 18.3056 21.4096 18.2573 21.4243 18.2062C21.4289 18.1903 21.4329 18.1743 21.4364 18.1584C21.6398 17.5698 21.7504 16.938 21.7505 16.2803C21.7509 14.7078 21.12 13.2825 20.0973 12.2443L19.0363 13.3047C18.735 12.9972 18.3872 12.7352 18.0044 12.5302C18.0554 12.7696 18.0661 13.0409 18.0204 13.3564C17.9895 13.5695 18.05 13.7339 18.3219 14.0188L17.2598 15.0804C16.8442 14.6521 16.4065 14.0346 16.5359 13.1413C16.5755 12.8681 16.5224 12.766 16.4637 12.6727C16.4252 12.6114 16.3849 12.5592 16.3212 12.4766L16.3205 12.4758C16.3009 12.4504 16.2791 12.4222 16.2545 12.3899C16.1816 12.2945 16.0928 12.1744 16.0086 12.029L16.0015 12.029C15.6945 12.029 15.3952 12.0614 15.1067 12.1232C15.1679 12.1963 15.23 12.2687 15.2941 12.3435C15.3781 12.4414 15.4658 12.5436 15.56 12.6574C15.6605 12.7787 15.764 12.9089 15.8504 13.0347C15.9253 13.1438 16.0365 13.3183 16.0895 13.5181C16.1172 13.6226 16.1472 13.7995 16.0904 14.0016C16.0254 14.2331 15.8708 14.4113 15.6786 14.5157C15.5116 14.6064 15.3469 14.6259 15.2389 14.6295C15.1241 14.6333 15.0123 14.6207 14.9127 14.6034C14.7055 14.5675 14.5625 14.6035 14.4327 14.6771C14.2822 14.7626 14.1167 14.9191 13.9245 15.1762C13.7355 15.4289 13.5574 15.727 13.3506 16.073L13.3383 16.0935C13.1354 16.4331 12.905 16.8172 12.6402 17.1634C12.5788 17.2437 12.514 17.3479 12.4501 17.4836C12.8354 17.3554 13.3067 17.2168 13.7666 17.1354C14.2093 17.057 14.7343 17.0125 15.2073 17.1321L13.6443 18.6944C13.3119 18.7765 12.9894 18.8821 12.7173 18.9779C12.8139 19.0952 12.9165 19.2072 13.0249 19.3135ZM13.0249 19.3135C13.7913 20.0652 14.8413 20.5288 15.9996 20.529C16.0541 20.529 16.1084 20.528 16.1624 20.526C15.6573 20.0753 15.1218 19.4341 14.9343 18.6445C14.9338 18.6423 14.934 18.64 14.9342 18.6377C14.9351 18.6256 14.9363 18.611 14.8412 18.5867C14.6779 18.545 14.4033 18.546 14.028 18.6124C13.9002 18.635 13.7715 18.663 13.6443 18.6944L13.0249 19.3135ZM15.2073 17.1321L15.2123 17.1333C15.7365 17.2672 16.2335 17.6231 16.3937 18.2979C16.4982 18.7379 16.8853 19.2001 17.3669 19.5792C17.5949 19.7586 17.8138 19.8955 17.9729 19.9795C17.9961 19.9917 18.0169 20.0023 18.0352 20.0112C18.7315 19.6308 19.3096 19.0613 19.7005 18.3716C19.4525 18.217 19.2415 18.0309 19.0661 17.8175C18.7321 17.4113 18.5616 16.9492 18.4739 16.5182C18.3971 16.1405 18.1221 15.8871 17.6205 15.425L17.5556 15.3652C17.4643 15.281 17.3628 15.1865 17.2598 15.0804L15.2073 17.1321ZM18.3219 14.0188L19.0363 13.3047C19.7877 14.0715 20.2508 15.1217 20.2505 16.28C20.2505 16.4732 20.2376 16.6634 20.2125 16.8497C20.0842 16.6876 19.9967 16.4793 19.9439 16.2193C19.7644 15.3369 19.1163 14.7531 18.6961 14.3747C18.6522 14.3351 18.6107 14.2977 18.5726 14.2626C18.474 14.1717 18.3911 14.0913 18.3219 14.0188ZM5.47295 5.7364C5.76591 5.44357 6.24078 5.44368 6.53361 5.73663L6.54361 5.74664C6.83644 6.03959 6.83633 6.51447 6.54338 6.8073L6.53337 6.81729C6.24042 7.11012 5.76554 7.11002 5.47271 6.81706L5.46272 6.80706C5.16989 6.5141 5.16999 6.03923 5.46295 5.7464L5.47295 5.7364ZM8.54338 5.737C8.25055 5.44404 7.77567 5.44394 7.48272 5.73677L7.47271 5.74677C7.17976 6.03959 7.17965 6.51447 7.47248 6.80743L7.48248 6.81743C7.77531 7.11038 8.25018 7.11049 8.54314 6.81766L8.55314 6.80766C8.8461 6.51483 8.8462 6.03996 8.55337 5.747L8.54338 5.737ZM13.6687 12.7253C13.706 12.7752 13.7439 12.8242 13.7815 12.8716C13.8635 12.9751 13.9611 13.0917 14.0585 13.2063C13.9315 13.2503 13.8094 13.3061 13.6923 13.3726C13.285 13.6038 12.9725 13.9445 12.7232 14.2779C12.4865 14.5944 12.2726 14.9526 12.0801 15.2748L12.0508 15.324C11.9579 15.4794 11.8691 15.6271 11.7811 15.7668C11.9339 14.4951 12.6481 13.3963 13.6687 12.7253ZM10.0031 5.52771C9.58888 5.52762 9.25302 5.86333 9.25293 6.27755C9.25284 6.69176 9.58855 7.02762 10.0028 7.02771L18.0028 7.02946C18.417 7.02955 18.7528 6.69384 18.7529 6.27962C18.753 5.86541 18.4173 5.52955 18.0031 5.52946L10.0031 5.52771Z" fill="#4E5964"/>
</svg>
