<svg width="24" height="24" viewBox="0 0 24 24" fill="none" xmlns="http://www.w3.org/2000/svg">
<path fill-rule="evenodd" clip-rule="evenodd" d="M2.25392 7.50032C2.25456 4.60082 4.60558 2.25083 7.50507 2.25146L16.5061 2.25344C19.4051 2.25407 21.7549 4.60439 21.7549 7.50344L21.7549 9.22423L21.7549 9.22571C21.7535 9.92381 21.4755 10.5929 20.9818 11.0864L20.0992 11.9686C19.0566 10.9101 17.6069 10.2537 16.0038 10.2534C12.8281 10.2527 10.2532 12.8265 10.2525 16.0021C10.2521 17.6053 10.9079 19.0553 11.9659 20.0983L10.8848 21.179C10.5176 21.546 10.0194 21.7516 9.50033 21.7505L7.50195 21.7505C4.60201 21.7505 2.25132 19.3993 2.25195 16.4993L2.25392 7.50032ZM13.0269 19.0379L11.9659 20.0983C13.0038 21.1215 14.4287 21.7531 16.0012 21.7534C18.4469 21.7539 20.5364 20.2275 21.368 18.0751C21.3919 18.0299 21.4115 17.9817 21.4262 17.9306C21.4308 17.9147 21.4349 17.8987 21.4384 17.8827C21.6418 17.2942 21.7524 16.6623 21.7525 16.0047C21.7528 14.4321 21.1219 13.0069 20.0992 11.9686L19.0383 13.0291C18.7369 12.7215 18.3892 12.4596 18.0064 12.2545C18.0574 12.494 18.0681 12.7653 18.0224 13.0807C17.9915 13.2939 18.0519 13.4583 18.3239 13.7432L17.2618 14.8048C16.8461 14.3765 16.4085 13.759 16.5379 12.8657C16.5775 12.5924 16.5243 12.4904 16.4657 12.3971C16.4272 12.3358 16.3868 12.2835 16.3231 12.201L16.3224 12.2001C16.3029 12.1748 16.2811 12.1465 16.2565 12.1143C16.1836 12.0189 16.0948 11.8987 16.0105 11.7534L16.0034 11.7534C15.6965 11.7533 15.3971 11.7858 15.1087 11.8476C15.1699 11.9207 15.2319 11.993 15.2961 12.0679C15.3801 12.1657 15.4677 12.268 15.5619 12.3817C15.6624 12.5031 15.766 12.6333 15.8523 12.759C15.9272 12.8682 16.0384 13.0427 16.0914 13.2424C16.1192 13.347 16.1491 13.5239 16.0924 13.7259C16.0273 13.9574 15.8727 14.1357 15.6805 14.24C15.5136 14.3307 15.3488 14.3502 15.2408 14.3538C15.1261 14.3577 15.0143 14.3451 14.9147 14.3278C14.7074 14.2919 14.5644 14.3278 14.4347 14.4015C14.2841 14.4869 14.1186 14.6435 13.9264 14.9005C13.7374 15.1532 13.5593 15.4513 13.3525 15.7974L13.3403 15.8178C13.1373 16.1575 12.9069 16.5416 12.6421 16.8877C12.5807 16.968 12.5159 17.0723 12.452 17.208C12.8373 17.0798 13.3086 16.9411 13.7686 16.8597C14.2113 16.7814 14.7362 16.7369 15.2092 16.8564L13.6462 18.4188C13.3139 18.5008 12.9914 18.6065 12.7193 18.7023C12.8158 18.8196 12.9185 18.9316 13.0269 19.0379ZM13.0269 19.0379C13.7933 19.7895 14.8433 20.2531 16.0016 20.2534C16.0561 20.2534 16.1104 20.2524 16.1644 20.2504C15.6593 19.7996 15.1238 19.1585 14.9363 18.3688C14.9358 18.3666 14.9359 18.3644 14.9361 18.3621C14.9371 18.35 14.9382 18.3354 14.8431 18.3111C14.6798 18.2694 14.4052 18.2704 14.0299 18.3368C13.9021 18.3594 13.7734 18.3874 13.6462 18.4188L13.0269 19.0379ZM15.2092 16.8564L15.2142 16.8577C15.7385 16.9916 16.2355 17.3475 16.3957 18.0223C16.5002 18.4622 16.8873 18.9245 17.3689 19.3036C17.5968 19.483 17.8158 19.6199 17.9748 19.7038C17.998 19.7161 18.0189 19.7266 18.0372 19.7356C18.7335 19.3552 19.3116 18.7857 19.7025 18.096C19.4545 17.9414 19.2435 17.7552 19.068 17.5418C18.734 17.1356 18.5635 16.6735 18.4759 16.2426C18.3991 15.8648 18.124 15.6114 17.6224 15.1493L17.5576 15.0896C17.4663 15.0054 17.3647 14.9109 17.2618 14.8048L15.2092 16.8564ZM18.3239 13.7432L19.0383 13.0291C19.7896 13.7958 20.2527 14.846 20.2525 16.0043C20.2525 16.1975 20.2395 16.3877 20.2145 16.5741C20.0861 16.412 19.9987 16.2037 19.9458 15.9437C19.7664 15.0613 19.1183 14.4775 18.6981 14.099C18.6542 14.0595 18.6127 14.0221 18.5746 13.9869C18.476 13.896 18.3931 13.8157 18.3239 13.7432ZM5.4749 5.46077C5.76786 5.16794 6.24273 5.16804 6.53556 5.461L6.54556 5.471C6.83839 5.76396 6.83829 6.23883 6.54533 6.53166L6.53533 6.54166C6.24237 6.83449 5.7675 6.83438 5.47467 6.54143L5.46467 6.53142C5.17184 6.23847 5.17194 5.76359 5.4649 5.47077L5.4749 5.46077ZM8.54533 5.46137C8.2525 5.16841 7.77763 5.1683 7.48467 5.46113L7.47467 5.47113C7.18171 5.76396 7.18161 6.23883 7.47443 6.53179L7.48443 6.54179C7.77726 6.83475 8.25214 6.83485 8.54509 6.54203L8.5551 6.53203C8.84805 6.2392 8.84816 5.76433 8.55533 5.47137L8.54533 5.46137ZM13.6707 12.4496C13.708 12.4996 13.7459 12.5486 13.7835 12.596C13.8655 12.6994 13.9631 12.8161 14.0604 12.9307C13.9335 12.9747 13.8114 13.0305 13.6942 13.097C13.2869 13.3282 12.9744 13.6689 12.7251 14.0022C12.4884 14.3188 12.2745 14.677 12.0821 14.9992L12.0527 15.0483C11.9598 15.2037 11.871 15.3515 11.7831 15.4911C11.9358 14.2195 12.6501 13.1206 13.6707 12.4496ZM10.005 5.25208C9.59083 5.25198 9.25497 5.5877 9.25488 6.00191C9.25479 6.41612 9.59051 6.75198 10.0047 6.75208L18.0047 6.75383C18.4189 6.75392 18.7548 6.4182 18.7549 6.00399C18.755 5.58978 18.4193 5.25392 18.005 5.25383L10.005 5.25208Z" fill="#4E5964"/>
</svg>
