<svg width="24" height="24" viewBox="0 0 24 24" fill="none" xmlns="http://www.w3.org/2000/svg">
<path fill-rule="evenodd" clip-rule="evenodd" d="M10.3333 2.25C9.73502 2.25 9.25 2.73503 9.25 3.33333V4.51785L5.47087 3.16816C5.2414 3.08621 5 3.25633 5 3.5V20.25H3C2.58579 20.25 2.25 20.5858 2.25 21C2.25 21.4142 2.58579 21.75 3 21.75L21 21.75C21.4142 21.75 21.75 21.4142 21.75 21C21.75 20.5858 21.4142 20.25 21 20.25H19V10.8189C19 9.12842 17.9373 7.62047 16.3453 7.0519L14.75 6.48214V3.33333C14.75 2.73503 14.265 2.25 13.6667 2.25H10.3333ZM13.25 5.94643V3.75H10.75V5C10.75 5.01779 10.7494 5.03543 10.7482 5.05291L13.25 5.94643ZM9.25 17V20.25H10.75V17C10.75 16.8619 10.8619 16.75 11 16.75H13C13.1381 16.75 13.25 16.8619 13.25 17V20.25H14.75V17C14.75 16.0335 13.9665 15.25 13 15.25H11C10.0335 15.25 9.25 16.0335 9.25 17ZM8.25 9C8.25 8.58578 8.58579 8.25 9 8.25H10C10.4142 8.25 10.75 8.58578 10.75 9C10.75 9.41421 10.4142 9.75 10 9.75H9C8.58579 9.75 8.25 9.41421 8.25 9ZM9 12.25C8.58579 12.25 8.25 12.5858 8.25 13C8.25 13.4142 8.58579 13.75 9 13.75H10C10.4142 13.75 10.75 13.4142 10.75 13C10.75 12.5858 10.4142 12.25 10 12.25H9ZM13.25 9C13.25 8.58578 13.5858 8.25 14 8.25H15C15.4142 8.25 15.75 8.58578 15.75 9C15.75 9.41421 15.4142 9.75 15 9.75H14C13.5858 9.75 13.25 9.41421 13.25 9ZM14 12.25C13.5858 12.25 13.25 12.5858 13.25 13C13.25 13.4142 13.5858 13.75 14 13.75H15C15.4142 13.75 15.75 13.4142 15.75 13C15.75 12.5858 15.4142 12.25 15 12.25H14Z" fill="#4E5964"/>
</svg>
