<svg width="24" height="24" viewBox="0 0 24 24" fill="none" xmlns="http://www.w3.org/2000/svg">
<path fill-rule="evenodd" clip-rule="evenodd" d="M5 7.5C5 5.01472 7.01472 3 9.5 3H14.5C16.9853 3 19 5.01472 19 7.5V20.25H21C21.4142 20.25 21.75 20.5858 21.75 21C21.75 21.4142 21.4142 21.75 21 21.75L3 21.75C2.58579 21.75 2.25 21.4142 2.25 21C2.25 20.5858 2.58579 20.25 3 20.25H5V7.5ZM10.75 20.25H9.25V17C9.25 16.0335 10.0335 15.25 11 15.25H13C13.9665 15.25 14.75 16.0335 14.75 17V20.25H13.25V17C13.25 16.8619 13.1381 16.75 13 16.75H11C10.8619 16.75 10.75 16.8619 10.75 17V20.25ZM8.25 7C8.25 6.58579 8.58579 6.25 9 6.25H10C10.4142 6.25 10.75 6.58579 10.75 7C10.75 7.41421 10.4142 7.75 10 7.75H9C8.58579 7.75 8.25 7.41421 8.25 7ZM9 10.25C8.58579 10.25 8.25 10.5858 8.25 11C8.25 11.4142 8.58579 11.75 9 11.75H10C10.4142 11.75 10.75 11.4142 10.75 11C10.75 10.5858 10.4142 10.25 10 10.25H9ZM13.25 7C13.25 6.58579 13.5858 6.25 14 6.25H15C15.4142 6.25 15.75 6.58579 15.75 7C15.75 7.41421 15.4142 7.75 15 7.75H14C13.5858 7.75 13.25 7.41421 13.25 7ZM14 10.25C13.5858 10.25 13.25 10.5858 13.25 11C13.25 11.4142 13.5858 11.75 14 11.75H15C15.4142 11.75 15.75 11.4142 15.75 11C15.75 10.5858 15.4142 10.25 15 10.25H14Z" fill="#4E5964"/>
</svg>
