<svg width="24" height="24" viewBox="0 0 24 24" fill="none" xmlns="http://www.w3.org/2000/svg">
<path d="M10.9996 9.75C10.9624 9.75 10.8812 9.76746 10.7907 9.88097L8.91601 12.2342C8.88397 12.2744 8.85444 12.323 8.82945 12.3785L10.374 13.2716C10.7612 13.4955 11.2385 13.4955 11.6257 13.2715L13.1705 12.3776C13.1455 12.3222 13.1159 12.2737 13.0839 12.2334L11.2124 9.88113C11.1239 9.7702 11.0396 9.75 10.9996 9.75Z" fill="#4E5964"/>
<path d="M12.1321 14.6956C11.4126 15.0208 10.5868 15.0208 9.86735 14.6956L10.8065 16.0814C10.8651 16.1514 10.922 16.2 10.9668 16.228C10.9812 16.237 10.9922 16.2426 10.9999 16.246C11.0075 16.2426 11.0184 16.2371 11.0325 16.2282C11.0771 16.2003 11.1339 16.1517 11.1927 16.0815L12.1321 14.6956Z" fill="#4E5964"/>
<path fill-rule="evenodd" clip-rule="evenodd" d="M16.1024 2.52803C14.7027 2.14364 13.2217 2.15809 11.8299 2.56975C10.5452 2.94974 9.38414 3.65412 8.4602 4.61198C8.45473 4.61765 8.44936 4.62339 8.4441 4.62919C4.8585 5.72262 2.25 9.05669 2.25 13C2.25 17.8325 6.16751 21.75 11 21.75C15.0294 21.75 18.4226 19.0264 19.4392 15.3197C20.1868 14.5943 20.7806 13.7225 21.1795 12.7547C21.729 11.4215 21.8858 9.96144 21.6314 8.54343C21.3769 7.12545 20.7219 5.80856 19.7431 4.74442C18.7645 3.68036 17.5021 2.91244 16.1024 2.52803ZM19.7255 12.3399C19.7486 12.288 19.771 12.2357 19.7927 12.1831C20.2333 11.1141 20.3588 9.94427 20.1549 8.80835C19.9511 7.67239 19.426 6.61544 18.6391 5.75986C17.8521 4.9042 16.8352 4.28482 15.7051 3.97448C14.5751 3.66412 13.379 3.6758 12.2554 4.00815C12.012 4.08015 11.7741 4.16655 11.5431 4.26658C15.9039 4.53362 19.4014 7.99474 19.7255 12.3399ZM7.72324 14.2056C7.40831 13.7977 7.25 13.2798 7.25 12.7652C7.25 12.2402 7.41468 11.7114 7.7428 11.2996L9.6175 8.94634C9.94898 8.53024 10.44 8.25 10.9996 8.25C11.5563 8.25 12.0519 8.52778 12.3854 8.94618L14.2568 11.2985C14.5847 11.7101 14.75 12.2392 14.75 12.7642C14.75 13.2785 14.5919 13.7965 14.277 14.2046L12.416 16.9502C12.4052 16.9662 12.3937 16.9817 12.3818 16.9967C12.1132 17.3339 11.6347 17.75 11 17.75C10.3657 17.75 9.88661 17.3343 9.61763 16.9969C9.60557 16.9818 9.59411 16.9662 9.58326 16.9502L7.72324 14.2056Z" fill="#4E5964"/>
</svg>
