<svg width="24" height="24" viewBox="0 0 24 24" fill="none" xmlns="http://www.w3.org/2000/svg">
<path d="M17.25 9V7C17.25 5.20507 15.7949 3.75 14 3.75H10C8.20507 3.75 6.75 5.20507 6.75 7V17C6.75 18.7949 8.20507 20.25 10 20.25H14C15.7949 20.25 17.25 18.7949 17.25 17V16.5C17.25 16.0858 17.5858 15.75 18 15.75C18.4142 15.75 18.75 16.0858 18.75 16.5V17C18.75 19.6234 16.6234 21.75 14 21.75H10C7.37665 21.75 5.25 19.6234 5.25 17V7C5.25 4.37665 7.37665 2.25 10 2.25H14C16.6234 2.25 18.75 4.37665 18.75 7V9C18.75 9.41421 18.4142 9.75 18 9.75C17.5858 9.75 17.25 9.41421 17.25 9Z" fill="#4E5964"/>
</svg>
