<svg width="24" height="24" viewBox="0 0 24 24" fill="none" xmlns="http://www.w3.org/2000/svg">
<path fill-rule="evenodd" clip-rule="evenodd" d="M7 2.25C6.0335 2.25 5.25 3.0335 5.25 4V6.58653C4.44912 7.0768 3.82616 7.82926 3.50053 8.7245C3.45531 8.84882 3.54959 8.97641 3.68097 8.99184C4.53049 9.09161 5.28238 9.61207 5.67082 10.389C5.80645 10.6602 6.19355 10.6602 6.32918 10.389C7.0176 9.01212 8.9824 9.01212 9.67082 10.389C9.80645 10.6602 10.1936 10.6602 10.3292 10.389C11.0176 9.01212 12.9824 9.01212 13.6708 10.389C13.8064 10.6602 14.1936 10.6602 14.3292 10.389C15.0176 9.01212 16.9824 9.01212 17.6708 10.389C17.8064 10.6602 18.1936 10.6602 18.3292 10.389C18.7237 9.59988 19.4933 9.07533 20.3592 8.98746C20.4896 8.97422 20.5856 8.85012 20.5441 8.72575C20.2324 7.79114 19.5874 7.009 18.75 6.52046V4C18.75 3.0335 17.9665 2.25 17 2.25C16.0335 2.25 15.25 3.0335 15.25 4V5.97437H13.75V4C13.75 3.0335 12.9665 2.25 12 2.25C11.0335 2.25 10.25 3.0335 10.25 4V5.97437H8.75V4C8.75 3.0335 7.9665 2.25 7 2.25ZM7.25 5.97811V4C7.25 3.86193 7.13807 3.75 7 3.75C6.86193 3.75 6.75 3.86193 6.75 4V6.02918C6.91367 6.00246 7.08053 5.98524 7.25 5.97811ZM11.75 5.97437H12.25V4C12.25 3.86193 12.1381 3.75 12 3.75C11.8619 3.75 11.75 3.86193 11.75 4V5.97437ZM16.75 5.97445C16.9194 5.97551 17.0862 5.98703 17.25 6.0084V4C17.25 3.86193 17.1381 3.75 17 3.75C16.8619 3.75 16.75 3.86193 16.75 4V5.97445Z" fill="#4E5964"/>
<path fill-rule="evenodd" clip-rule="evenodd" d="M3.25 10.6063C3.25 10.5334 3.30908 10.4744 3.38197 10.4744C3.78309 10.4744 4.14979 10.701 4.32918 11.0598C5.0176 12.4366 6.9824 12.4366 7.67082 11.0598C7.80645 10.7885 8.19355 10.7885 8.32918 11.0598C9.0176 12.4366 10.9824 12.4366 11.6708 11.0598C11.8064 10.7885 12.1936 10.7885 12.3292 11.0598C13.0176 12.4366 14.9824 12.4366 15.6708 11.0598C15.8064 10.7885 16.1936 10.7885 16.3292 11.0598C17.0176 12.4366 18.9824 12.4366 19.6708 11.0598C19.8502 10.701 20.2169 10.4744 20.618 10.4744C20.6909 10.4744 20.75 10.5334 20.75 10.6063V17.6289C21.353 18.0325 21.75 18.7199 21.75 19.5C21.75 20.7426 20.7426 21.75 19.5 21.75H4.5C3.25736 21.75 2.25 20.7426 2.25 19.5C2.25 18.7199 2.64701 18.0325 3.25 17.6289V10.6063ZM3.75 19.5C3.75 19.0858 4.08579 18.75 4.5 18.75H19.5C19.9142 18.75 20.25 19.0858 20.25 19.5C20.25 19.9142 19.9142 20.25 19.5 20.25H4.5C4.08579 20.25 3.75 19.9142 3.75 19.5Z" fill="#4E5964"/>
</svg>
