<svg width="24" height="25" viewBox="0 0 24 25" fill="none" xmlns="http://www.w3.org/2000/svg">
<path fill-rule="evenodd" clip-rule="evenodd" d="M7 2.52563C6.0335 2.52563 5.25 3.30914 5.25 4.27563V6.86216C4.44912 7.35243 3.82616 8.1049 3.50053 9.00014C3.45531 9.12445 3.54959 9.25205 3.68097 9.26748C4.53049 9.36724 5.28238 9.88771 5.67082 10.6646C5.80645 10.9358 6.19355 10.9358 6.32918 10.6646C7.0176 9.28776 8.9824 9.28776 9.67082 10.6646C9.80645 10.9358 10.1936 10.9358 10.3292 10.6646C11.0176 9.28776 12.9824 9.28776 13.6708 10.6646C13.8064 10.9358 14.1936 10.9358 14.3292 10.6646C15.0176 9.28776 16.9824 9.28776 17.6708 10.6646C17.8064 10.9358 18.1936 10.9358 18.3292 10.6646C18.7237 9.87551 19.4933 9.35096 20.3592 9.26309C20.4896 9.24986 20.5856 9.12576 20.5441 9.00139C20.2324 8.06678 19.5874 7.28464 18.75 6.79609V4.27563C18.75 3.30914 17.9665 2.52563 17 2.52563C16.0335 2.52563 15.25 3.30914 15.25 4.27563V6.25H13.75V4.27563C13.75 3.30914 12.9665 2.52563 12 2.52563C11.0335 2.52563 10.25 3.30914 10.25 4.27563V6.25H8.75V4.27563C8.75 3.30914 7.9665 2.52563 7 2.52563ZM7.25 6.25375V4.27563C7.25 4.13756 7.13807 4.02563 7 4.02563C6.86193 4.02563 6.75 4.13756 6.75 4.27563V6.30482C6.91367 6.27809 7.08053 6.26087 7.25 6.25375ZM11.75 6.25H12.25V4.27563C12.25 4.13756 12.1381 4.02563 12 4.02563C11.8619 4.02563 11.75 4.13756 11.75 4.27563V6.25ZM16.75 6.25008C16.9194 6.25115 17.0862 6.26267 17.25 6.28403V4.27563C17.25 4.13756 17.1381 4.02563 17 4.02563C16.8619 4.02563 16.75 4.13756 16.75 4.27563V6.25008Z" fill="#4E5964"/>
<path fill-rule="evenodd" clip-rule="evenodd" d="M3.25 10.882C3.25 10.8091 3.30908 10.75 3.38197 10.75C3.78309 10.75 4.14979 10.9766 4.32918 11.3354C5.0176 12.7122 6.9824 12.7122 7.67082 11.3354C7.80645 11.0642 8.19355 11.0642 8.32918 11.3354C9.0176 12.7122 10.9824 12.7122 11.6708 11.3354C11.8064 11.0642 12.1936 11.0642 12.3292 11.3354C13.0176 12.7122 14.9824 12.7122 15.6708 11.3354C15.8064 11.0642 16.1936 11.0642 16.3292 11.3354C17.0176 12.7122 18.9824 12.7122 19.6708 11.3354C19.8502 10.9766 20.2169 10.75 20.618 10.75C20.6909 10.75 20.75 10.8091 20.75 10.882V17.9045C21.353 18.3082 21.75 18.9955 21.75 19.7756C21.75 21.0183 20.7426 22.0256 19.5 22.0256H4.5C3.25736 22.0256 2.25 21.0183 2.25 19.7756C2.25 18.9955 2.64701 18.3082 3.25 17.9045V10.882ZM3.75 19.7756C3.75 19.3614 4.08579 19.0256 4.5 19.0256H19.5C19.9142 19.0256 20.25 19.3614 20.25 19.7756C20.25 20.1898 19.9142 20.5256 19.5 20.5256H4.5C4.08579 20.5256 3.75 20.1898 3.75 19.7756Z" fill="#4E5964"/>
</svg>
