<svg width="24" height="24" viewBox="0 0 24 24" fill="none" xmlns="http://www.w3.org/2000/svg">
<path fill-rule="evenodd" clip-rule="evenodd" d="M7.5 2.25C4.60051 2.25 2.25 4.60051 2.25 7.5V16.5C2.25 19.3995 4.60051 21.75 7.5 21.75H16.5C19.3995 21.75 21.75 19.3995 21.75 16.5V7.5C21.75 4.60051 19.3995 2.25 16.5 2.25H7.5ZM7.5 5.25C6.25728 5.25 5.25 6.25757 5.25 7.50013V8.49987C5.25 9.74243 6.25728 10.75 7.5 10.75H16.5C17.7426 10.75 18.75 9.74264 18.75 8.5V7.5C18.75 6.25736 17.7426 5.25 16.5 5.25H7.5ZM7 13C7.55228 13 8 13.4477 8 14V14.0195C8 14.5718 7.55228 15.0195 7 15.0195C6.44772 15.0195 6 14.5718 6 14.0195V14C6 13.4477 6.44772 13 7 13ZM8 18C8 17.4477 7.55228 17 7 17C6.44772 17 6 17.4477 6 18V18.0195C6 18.5718 6.44772 19.0195 7 19.0195C7.55228 19.0195 8 18.5718 8 18.0195V18ZM11 13C11.5523 13 12 13.4477 12 14V14.0195C12 14.5718 11.5523 15.0195 11 15.0195C10.4477 15.0195 10 14.5718 10 14.0195V14C10 13.4477 10.4477 13 11 13ZM12 18C12 17.4477 11.5523 17 11 17C10.4477 17 10 17.4477 10 18V18.0195C10 18.5718 10.4477 19.0195 11 19.0195C11.5523 19.0195 12 18.5718 12 18.0195V18ZM14.25 18C14.25 17.5858 14.5858 17.25 15 17.25H17C17.4142 17.25 17.75 17.5858 17.75 18C17.75 18.4142 17.4142 18.75 17 18.75H15C14.5858 18.75 14.25 18.4142 14.25 18ZM16.75 13C16.75 12.5858 16.4142 12.25 16 12.25C15.5858 12.25 15.25 12.5858 15.25 13V13.25H15C14.5858 13.25 14.25 13.5858 14.25 14C14.25 14.4142 14.5858 14.75 15 14.75H15.25V15C15.25 15.4142 15.5858 15.75 16 15.75C16.4142 15.75 16.75 15.4142 16.75 15V14.75H17C17.4142 14.75 17.75 14.4142 17.75 14C17.75 13.5858 17.4142 13.25 17 13.25H16.75V13Z" fill="#4E5964"/>
</svg>
