<svg width="24" height="24" viewBox="0 0 24 24" fill="none" xmlns="http://www.w3.org/2000/svg">
<path d="M15 2.25C15.4142 2.25 15.75 2.58579 15.75 3V3.24316L16.0098 3.25C19.3152 3.25412 21.75 5.3507 21.75 8.21289V16.4639C21.7497 19.3579 19.3973 21.7002 16.5 21.7002H7.5C4.60274 21.7002 2.25026 19.3579 2.25 16.4639V8.21289C2.25 5.34814 4.68753 3.25517 7.9873 3.2002H8.25V3C8.25 2.58579 8.58579 2.25 9 2.25C9.41421 2.25 9.75 2.58579 9.75 3V3.2002H8.25V5C8.25 5.41421 8.58579 5.75 9 5.75C9.41421 5.75 9.75 5.41421 9.75 5V3.2002H14.0098L14.25 3.20605V3C14.25 2.58579 14.5858 2.25 15 2.25ZM11.3008 8.5C9.90507 8.50023 8.77367 9.63163 8.77344 11.0273V11.4727C8.77354 12.0604 8.97592 12.6 9.3125 13.0293C8.71555 13.4916 8.33021 14.2139 8.33008 15.0273V15.4727C8.33031 16.8684 9.46171 17.9998 10.8574 18H12.6357C14.0316 17.9999 15.1629 16.8685 15.1631 15.4727V15.0273C15.1629 14.2131 14.7767 13.4905 14.1787 13.0283C14.515 12.5991 14.7177 12.0602 14.7178 11.4727V11.0273C14.7175 9.6316 13.5862 8.50018 12.1904 8.5H11.3008ZM12.6357 14C13.2032 14.0001 13.6629 14.46 13.6631 15.0273V15.4727C13.6629 16.04 13.2032 16.4999 12.6357 16.5H10.8574C10.2901 16.4998 9.83031 16.0399 9.83008 15.4727V15.0273C9.83031 14.4601 10.2901 14.0002 10.8574 14H12.6357ZM12.1904 10C12.7578 10.0002 13.2175 10.46 13.2178 11.0273V11.4727C13.2175 12.04 12.7578 12.4998 12.1904 12.5H11.3008C10.7335 12.4998 10.2737 12.0399 10.2734 11.4727V11.0273C10.2737 10.4601 10.7335 10.0002 11.3008 10H12.1904ZM14.25 5C14.25 5.41421 14.5858 5.75 15 5.75C15.4142 5.75 15.75 5.41421 15.75 5V3.24316L14.25 3.20605V5Z" fill="#4E5964"/>
</svg>
