<svg width="24" height="24" viewBox="0 0 24 24" fill="none" xmlns="http://www.w3.org/2000/svg">
<path d="M7.25 5.25V2.25C7.25 1.83579 7.58579 1.5 8 1.5C8.41421 1.5 8.75 1.83579 8.75 2.25V5.25C8.75 5.66421 8.41421 6 8 6C7.58579 6 7.25 5.66421 7.25 5.25Z" fill="#4E5964"/>
<path d="M15.25 5.25V2.25C15.25 1.83579 15.5858 1.5 16 1.5C16.4142 1.5 16.75 1.83579 16.75 2.25V5.25C16.75 5.66421 16.4142 6 16 6C15.5858 6 15.25 5.66421 15.25 5.25Z" fill="#4E5964"/>
<path d="M12.7227 13.75C13.2899 13.7502 13.7498 14.2101 13.75 14.7773V15.2227C13.7498 15.7899 13.2899 16.2498 12.7227 16.25H11.2773C10.7101 16.2498 10.2502 15.7899 10.25 15.2227V14.7773C10.2502 14.2101 10.7101 13.7502 11.2773 13.75H12.7227Z" fill="#4E5964"/>
<path d="M12.2539 9.75L12.3594 9.75488C12.8774 9.80756 13.282 10.2454 13.2822 10.7773V11.2227C13.282 11.7901 12.8214 12.25 12.2539 12.25H11.6426C11.0753 12.2498 10.6155 11.7899 10.6152 11.2227V10.7773C10.6155 10.2101 11.0753 9.75023 11.6426 9.75H12.2539Z" fill="#4E5964"/>
<path fill-rule="evenodd" clip-rule="evenodd" d="M14.25 3.04102V5.25C14.25 6.2165 15.0335 7 16 7C16.9665 7 17.75 6.2165 17.75 5.25V3.27246C20.1564 3.90577 21.75 5.84516 21.75 8.26367V16.999C21.75 19.9982 19.4373 22.5 16.5 22.5H7.5C4.56271 22.5 2.25 19.9982 2.25 16.999V8.26367C2.25 5.84242 3.84638 3.90698 6.25 3.24512V5.25C6.25 6.2165 7.0335 7 8 7C8.9665 7 9.75 6.2165 9.75 5.25V3.01074L14.25 3.04102ZM11.6426 8.25C10.2469 8.25023 9.11547 9.38163 9.11523 10.7773V11.2227C9.11534 11.8275 9.32822 12.3824 9.68262 12.8174C9.11378 13.2808 8.75013 13.9865 8.75 14.7773V15.2227C8.75023 16.6184 9.88163 17.7498 11.2773 17.75H12.7227C14.1184 17.7498 15.2498 16.6184 15.25 15.2227V14.7773C15.2499 13.9566 14.8571 13.2293 14.251 12.7676C14.5823 12.3401 14.7821 11.8053 14.7822 11.2227V10.7773C14.782 9.46877 13.7872 8.39217 12.5127 8.2627L12.2539 8.25H11.6426Z" fill="#4E5964"/>
</svg>
