<svg width="24" height="24" viewBox="0 0 24 24" fill="none" xmlns="http://www.w3.org/2000/svg">
<path d="M7.25 5.25V2.25C7.25 1.83579 7.58579 1.5 8 1.5C8.41421 1.5 8.75 1.83579 8.75 2.25V5.25C8.75 5.66421 8.41421 6 8 6C7.58579 6 7.25 5.66421 7.25 5.25Z" fill="#4E5964"/>
<path d="M15.25 5.25V2.25C15.25 1.83579 15.5858 1.5 16 1.5C16.4142 1.5 16.75 1.83579 16.75 2.25V5.25C16.75 5.66421 16.4142 6 16 6C15.5858 6 15.25 5.66421 15.25 5.25Z" fill="#4E5964"/>
<path fill-rule="evenodd" clip-rule="evenodd" d="M14.25 3.04102V5.25C14.25 6.2165 15.0335 7 16 7C16.9665 7 17.75 6.2165 17.75 5.25V3.27246C20.1564 3.90577 21.75 5.84516 21.75 8.26367V16.999C21.75 19.9982 19.4373 22.5 16.5 22.5H7.5C4.56271 22.5 2.25 19.9982 2.25 16.999V8.26367C2.25 5.84242 3.84638 3.90698 6.25 3.24512V5.25C6.25 6.2165 7.0335 7 8 7C8.9665 7 9.75 6.2165 9.75 5.25V3.01074L14.25 3.04102ZM8.79492 15.4482C8.35668 15.0102 7.64547 15.007 7.20508 15.4482C6.76619 15.8871 6.7662 16.6002 7.20508 17.0391C7.6439 17.4776 8.3561 17.4776 8.79492 17.0391C9.2338 16.6002 9.23381 15.8871 8.79492 15.4482ZM12.7949 15.4482C12.3567 15.0102 11.6455 15.007 11.2051 15.4482C10.7662 15.8871 10.7662 16.6002 11.2051 17.0391C11.6439 17.4776 12.3561 17.4776 12.7949 17.0391C13.2338 16.6002 13.2338 15.8871 12.7949 15.4482ZM16.7949 15.4482C16.3567 15.0102 15.6455 15.007 15.2051 15.4482C14.7662 15.8871 14.7662 16.6002 15.2051 17.0391C15.6439 17.4776 16.3561 17.4776 16.7949 17.0391C17.2338 16.6002 17.2338 15.8871 16.7949 15.4482ZM8.79492 10.4482C8.35668 10.0102 7.64547 10.007 7.20508 10.4482C6.76619 10.8871 6.7662 11.6002 7.20508 12.0391C7.6439 12.4776 8.3561 12.4776 8.79492 12.0391C9.2338 11.6002 9.23381 10.8871 8.79492 10.4482ZM12.7949 10.4482C12.3567 10.0102 11.6455 10.007 11.2051 10.4482C10.7662 10.8871 10.7662 11.6002 11.2051 12.0391C11.6439 12.4776 12.3561 12.4776 12.7949 12.0391C13.2338 11.6002 13.2338 10.8871 12.7949 10.4482ZM16.7949 10.4482C16.3567 10.0102 15.6455 10.007 15.2051 10.4482C14.7662 10.8871 14.7662 11.6002 15.2051 12.0391C15.6439 12.4776 16.3561 12.4776 16.7949 12.0391C17.2338 11.6002 17.2338 10.8871 16.7949 10.4482Z" fill="#4E5964"/>
</svg>
