<svg width="24" height="24" viewBox="0 0 24 24" fill="none" xmlns="http://www.w3.org/2000/svg">
<path fill-rule="evenodd" clip-rule="evenodd" d="M8 1.25C8.41421 1.25 8.75 1.58579 8.75 2V3H7.25V2C7.25 1.58579 7.58579 1.25 8 1.25ZM16.75 3H17C19.7614 3 22 5.12665 22 7.75V15.4688C22 19.0759 18.922 22 15.125 22H8.875C5.07804 22 2 19.0759 2 15.4688V7.75C2 5.12665 4.23858 3 7 3H7.25V4C7.25 4.41421 7.58579 4.75 8 4.75C8.41421 4.75 8.75 4.41421 8.75 4V3H9H12H15H15.25V4C15.25 4.41421 15.5858 4.75 16 4.75C16.4142 4.75 16.75 4.41421 16.75 4V3ZM16.75 3H15.25V2C15.25 1.58579 15.5858 1.25 16 1.25C16.4142 1.25 16.75 1.58579 16.75 2V3ZM6 9.5C6 8.67157 6.67157 8 7.5 8C8.32843 8 9 8.67157 9 9.5C9 10.3284 8.32843 11 7.5 11C6.67157 11 6 10.3284 6 9.5ZM7.5 15C6.67157 15 6 15.6716 6 16.5C6 17.3284 6.67157 18 7.5 18C8.32843 18 9 17.3284 9 16.5C9 15.6716 8.32843 15 7.5 15ZM15 16.5C15 15.6716 15.6716 15 16.5 15C17.3284 15 18 15.6716 18 16.5C18 17.3284 17.3284 18 16.5 18C15.6716 18 15 17.3284 15 16.5ZM16.5 8C15.6716 8 15 8.67157 15 9.5C15 10.3284 15.6716 11 16.5 11C17.3284 11 18 10.3284 18 9.5C18 8.67157 17.3284 8 16.5 8Z" fill="#4E5964"/>
</svg>
