<svg width="24" height="24" viewBox="0 0 24 24" fill="none" xmlns="http://www.w3.org/2000/svg">
<path d="M7.25 5.25V2.25C7.25 1.83579 7.58579 1.5 8 1.5C8.41421 1.5 8.75 1.83579 8.75 2.25V5.25C8.75 5.66421 8.41421 6 8 6C7.58579 6 7.25 5.66421 7.25 5.25Z" fill="#4E5964"/>
<path d="M15.25 5.25V2.25C15.25 1.83579 15.5858 1.5 16 1.5C16.4142 1.5 16.75 1.83579 16.75 2.25V5.25C16.75 5.66421 16.4142 6 16 6C15.5858 6 15.25 5.66421 15.25 5.25Z" fill="#4E5964"/>
<path fill-rule="evenodd" clip-rule="evenodd" d="M14.25 3.04102V5.25C14.25 6.2165 15.0335 7 16 7C16.9665 7 17.75 6.2165 17.75 5.25V3.27246C20.1564 3.90577 21.75 5.84516 21.75 8.26367V16.999C21.75 19.9982 19.4373 22.5 16.5 22.5H7.5C4.56271 22.5 2.25 19.9982 2.25 16.999V8.26367C2.25 5.84242 3.84638 3.90698 6.25 3.24512V5.25C6.25 6.2165 7.0335 7 8 7C8.9665 7 9.75 6.2165 9.75 5.25V3.01074L14.25 3.04102ZM7.20508 15.4482C7.64547 15.007 8.35668 15.0102 8.79492 15.4482C9.23381 15.8871 9.2338 16.6002 8.79492 17.0391C8.3561 17.4776 7.6439 17.4776 7.20508 17.0391C6.7662 16.6002 6.76619 15.8871 7.20508 15.4482ZM7.20508 10.4482C7.64547 10.007 8.35668 10.0102 8.79492 10.4482C9.23381 10.8871 9.2338 11.6002 8.79492 12.0391C8.3561 12.4776 7.6439 12.4776 7.20508 12.0391C6.7662 11.6002 6.76619 10.8871 7.20508 10.4482ZM11.2051 10.4482C11.6455 10.007 12.3567 10.0102 12.7949 10.4482C13.2338 10.8871 13.2338 11.6002 12.7949 12.0391C12.3561 12.4776 11.6439 12.4776 11.2051 12.0391C10.7662 11.6002 10.7662 10.8871 11.2051 10.4482Z" fill="#4E5964"/>
</svg>
