<svg width="24" height="24" viewBox="0 0 24 24" fill="none" xmlns="http://www.w3.org/2000/svg">
<path fill-rule="evenodd" clip-rule="evenodd" d="M8.75 2C8.75 1.58579 8.41421 1.25 8 1.25C7.58579 1.25 7.25 1.58579 7.25 2V3H7C4.23858 3 2 5.12665 2 7.75V15.4688C2 19.0759 5.07804 22 8.875 22H15.125C18.922 22 22 19.0759 22 15.4688V7.75C22 5.12665 19.7614 3 17 3H16.75V2C16.75 1.58579 16.4142 1.25 16 1.25C15.5858 1.25 15.25 1.58579 15.25 2V3H12H8.75V2ZM15.25 3H16.75V4C16.75 4.41421 16.4142 4.75 16 4.75C15.5858 4.75 15.25 4.41421 15.25 4V3ZM8.75 3V4C8.75 4.41421 8.41421 4.75 8 4.75C7.58579 4.75 7.25 4.41421 7.25 4V3H8.75ZM9.73 10.97C9.73 9.67 10.77 9 12 9C13.23 9 14.26 9.67 14.26 10.97C14.26 11.59 13.98 12.05 13.53 12.36C14.15 12.71 14.5 13.3 14.5 13.98C14.5 15.22 13.54 15.99 12 15.99C10.45 15.99 9.5 15.22 9.5 13.98C9.5 13.3 9.85 12.72 10.46 12.36C10.02 12.06 9.73 11.59 9.73 10.97ZM11.1 11.04C11.1 11.53 11.48 11.84 12 11.84C12.52 11.84 12.9 11.53 12.9 11.04C12.9 10.54 12.52 10.25 12 10.25C11.48 10.25 11.1 10.54 11.1 11.04ZM10.86 13.82C10.86 14.42 11.34 14.75 12 14.75C12.66 14.75 13.14 14.42 13.14 13.82C13.14 13.23 12.66 12.9 12 12.9C11.34 12.9 10.86 13.22 10.86 13.82Z" fill="#4E5964"/>
</svg>
