<svg width="24" height="24" viewBox="0 0 24 24" fill="none" xmlns="http://www.w3.org/2000/svg">
<path d="M7.25 5.25V2.25C7.25 1.83579 7.58579 1.5 8 1.5C8.41421 1.5 8.75 1.83579 8.75 2.25V5.25C8.75 5.66421 8.41421 6 8 6C7.58579 6 7.25 5.66421 7.25 5.25Z" fill="#4E5964"/>
<path d="M15.25 5.25V2.25C15.25 1.83579 15.5858 1.5 16 1.5C16.4142 1.5 16.75 1.83579 16.75 2.25V5.25C16.75 5.66421 16.4142 6 16 6C15.5858 6 15.25 5.66421 15.25 5.25Z" fill="#4E5964"/>
<path d="M12.5 15.75C12.9142 15.75 13.25 16.0858 13.25 16.5C13.25 16.9142 12.9142 17.25 12.5 17.25H11.5C11.0858 17.25 10.75 16.9142 10.75 16.5C10.75 16.0858 11.0858 15.75 11.5 15.75H12.5Z" fill="#4E5964"/>
<path d="M12.125 12.75C12.5392 12.75 12.875 13.0858 12.875 13.5C12.875 13.9142 12.5392 14.25 12.125 14.25H11.792C11.3778 14.25 11.042 13.9142 11.042 13.5C11.042 13.0858 11.3778 12.75 11.792 12.75H12.125Z" fill="#4E5964"/>
<path fill-rule="evenodd" clip-rule="evenodd" d="M21.75 16.999C21.75 19.9982 19.4373 22.5 16.5 22.5H7.5C4.56271 22.5 2.25 19.9982 2.25 16.999V10.25H21.75V16.999ZM11.792 11.25C10.5494 11.25 9.54199 12.2574 9.54199 13.5C9.54199 14.0019 9.70851 14.4636 9.98633 14.8379C9.53472 15.2494 9.25 15.8409 9.25 16.5C9.25 17.7426 10.2574 18.75 11.5 18.75H12.5C13.7426 18.75 14.75 17.7426 14.75 16.5C14.75 15.8168 14.4446 15.2056 13.9639 14.793C14.2217 14.4269 14.375 13.9818 14.375 13.5C14.375 12.2574 13.3676 11.25 12.125 11.25H11.792Z" fill="#4E5964"/>
<path d="M14.25 3.04102V5.25C14.25 6.2165 15.0335 7 16 7C16.9665 7 17.75 6.2165 17.75 5.25V3.27246C20.1564 3.90577 21.75 5.84516 21.75 8.26367V8.75H2.25V8.26367C2.25 5.84242 3.84638 3.90698 6.25 3.24512V5.25C6.25 6.2165 7.0335 7 8 7C8.9665 7 9.75 6.2165 9.75 5.25V3.01074L14.25 3.04102Z" fill="#4E5964"/>
</svg>
