<svg width="24" height="24" viewBox="0 0 24 24" fill="none" xmlns="http://www.w3.org/2000/svg">
<path fill-rule="evenodd" clip-rule="evenodd" d="M9.75 3C9.75 2.58579 9.41421 2.25 9 2.25C8.58579 2.25 8.25 2.58579 8.25 3V3.2002H8L7.98753 3.2003C4.68764 3.25519 2.25 5.34786 2.25 8.21267V16.4634C2.25 19.3577 4.60258 21.7002 7.5 21.7002H16.5C19.3974 21.7002 21.75 19.3577 21.75 16.4634V8.21267C21.75 5.35043 19.3151 3.25415 16.0096 3.2501L15.75 3.24363V3C15.75 2.58579 15.4142 2.25 15 2.25C14.5858 2.25 14.25 2.58579 14.25 3V3.2062L14.0094 3.2002H9.75V3ZM14.25 3.2062L15.75 3.24363V5C15.75 5.41421 15.4142 5.75 15 5.75C14.5858 5.75 14.25 5.41421 14.25 5V3.2062ZM9.75 3.2002V5C9.75 5.41421 9.41421 5.75 9 5.75C8.58579 5.75 8.25 5.41421 8.25 5V3.2002H9.75ZM11.9781 8.83594C11.5148 8.83594 10.9744 8.97217 10.5304 9.30139C10.0609 9.64952 9.72041 10.203 9.72041 10.935C9.72041 11.4733 9.90953 11.9039 10.1949 12.2239C9.71757 12.601 9.36719 13.1772 9.36719 13.9414C9.36719 14.7891 9.80984 15.3791 10.3603 15.7234C10.8777 16.047 11.4897 16.1611 11.9735 16.1611C12.4366 16.1611 13.059 16.0699 13.5936 15.7575C14.1701 15.4206 14.6322 14.8244 14.6322 13.9414C14.6322 13.1698 14.2883 12.5976 13.8125 12.2238C14.0945 11.9052 14.2784 11.4758 14.2784 10.935C14.2784 10.1723 13.9222 9.61136 13.4282 9.26839C12.9676 8.94852 12.4197 8.83594 11.9781 8.83594ZM11.2204 10.935C11.2204 10.716 11.3042 10.5949 11.4238 10.5063C11.5688 10.3987 11.7822 10.3359 11.9781 10.3359C12.1957 10.3359 12.423 10.3965 12.5727 10.5005C12.6891 10.5813 12.7784 10.6949 12.7784 10.935C12.7784 11.0654 12.7496 11.1384 12.7252 11.1804C12.6994 11.2248 12.6581 11.2692 12.5897 11.3119C12.4373 11.4069 12.2023 11.4594 11.9781 11.4594C11.7761 11.4594 11.5542 11.4032 11.4073 11.3051C11.3403 11.2603 11.298 11.2133 11.2714 11.1663C11.2463 11.1218 11.2204 11.0517 11.2204 10.935ZM10.8672 13.9414C10.8672 13.6709 10.9802 13.4994 11.1688 13.3684C11.3835 13.2192 11.691 13.1357 11.9735 13.1357C12.2762 13.1357 12.6003 13.2136 12.8233 13.3587C13.0123 13.4816 13.1322 13.6466 13.1322 13.9414C13.1322 14.2148 13.0231 14.3535 12.8368 14.4624C12.6087 14.5957 12.2767 14.6611 11.9735 14.6611C11.6909 14.6611 11.3748 14.5887 11.1557 14.4517C10.9695 14.3352 10.8672 14.1904 10.8672 13.9414Z" fill="#4E5964"/>
</svg>
