<svg width="24" height="24" viewBox="0 0 24 24" fill="none" xmlns="http://www.w3.org/2000/svg">
<path fill-rule="evenodd" clip-rule="evenodd" d="M9.75 3C9.75 2.58579 9.41421 2.25 9 2.25C8.58579 2.25 8.25 2.58579 8.25 3V3.25H7.5C4.60051 3.25 2.25 5.6005 2.25 8.5V16.4999C2.25 19.3994 4.60051 21.7499 7.5 21.7499H16.5C19.3995 21.7499 21.75 19.3994 21.75 16.4999V8.5C21.75 5.60051 19.3995 3.25 16.5 3.25H15.75V3C15.75 2.58579 15.4142 2.25 15 2.25C14.5858 2.25 14.25 2.58579 14.25 3V3.25H9.75V3ZM14.25 3.25H15.75V5C15.75 5.41421 15.4142 5.75 15 5.75C14.5858 5.75 14.25 5.41421 14.25 5V3.25ZM9.75 3.25V5C9.75 5.41421 9.41421 5.75 9 5.75C8.58579 5.75 8.25 5.41421 8.25 5V3.25H9.75ZM9.65958 8.82471C9.15305 8.31818 8.33098 8.31531 7.82319 8.8256C7.31775 9.33201 7.31805 10.1542 7.82408 10.6602C8.33041 11.1665 9.15325 11.1665 9.65958 10.6602C10.1659 10.1539 10.1659 9.33104 9.65958 8.82471ZM9.65958 15.3413C9.15305 14.8348 8.33098 14.8319 7.82319 15.3422C7.31775 15.8486 7.31805 16.6708 7.82408 17.1768C8.33041 17.6831 9.15325 17.6831 9.65958 17.1768C10.1659 16.6705 10.1659 15.8476 9.65958 15.3413ZM14.3388 15.3422C14.8466 14.8319 15.6687 14.8348 16.1752 15.3413C16.6815 15.8476 16.6815 16.6705 16.1752 17.1768C15.6689 17.6831 14.846 17.6831 14.3397 17.1768C13.8337 16.6708 13.8334 15.8486 14.3388 15.3422ZM16.1752 8.82471C15.6687 8.31818 14.8466 8.31531 14.3388 8.8256C13.8334 9.33201 13.8337 10.1542 14.3397 10.6602C14.846 11.1665 15.6689 11.1665 16.1752 10.6602C16.6815 10.1539 16.6815 9.33104 16.1752 8.82471Z" fill="#4E5964"/>
</svg>
