<svg width="24" height="25" viewBox="0 0 24 25" fill="none" xmlns="http://www.w3.org/2000/svg">
<path fill-rule="evenodd" clip-rule="evenodd" d="M6.79911 2.52603C7.64025 2.51731 8.43134 2.88224 9.00415 3.69214L9.01075 3.70148C9.45722 4.33274 10.0914 5.22946 10.3988 6.19229C10.7238 7.21052 10.7059 8.39166 9.73123 9.41748C9.38492 9.78196 9.28601 10.321 9.51905 11.0656C9.75356 11.815 10.2975 12.6451 11.0115 13.358C11.7263 14.0717 12.5472 14.6039 13.2754 14.8225C13.9935 15.0381 14.4949 14.9258 14.8313 14.5718C15.7481 13.6069 16.8902 13.5557 17.8647 13.7983C18.7709 14.0238 19.6437 14.5265 20.2542 14.8782C20.2753 14.8903 20.296 14.9023 20.3164 14.914C21.1502 15.3938 21.6024 16.1172 21.7192 16.9278C21.831 17.705 21.6284 18.5028 21.2876 19.1951C20.9441 19.8932 20.4334 20.5408 19.845 21.0349C19.2634 21.5234 18.5523 21.9055 17.8012 21.9796C13.9651 22.3582 10.1655 20.3801 7.32063 17.5334C4.47338 14.6844 2.44709 10.8343 2.25365 7.23153C2.21345 6.48278 2.50973 5.71576 2.91996 5.06666C3.3379 4.40534 3.92262 3.78784 4.57766 3.32866C5.22534 2.87463 6.00191 2.5343 6.79911 2.52603Z" fill="#4E5964"/>
</svg>
