<svg width="24" height="24" viewBox="0 0 24 24" fill="none" xmlns="http://www.w3.org/2000/svg">
<path fill-rule="evenodd" clip-rule="evenodd" d="M6.79911 2.2504C7.64025 2.24168 8.43134 2.6066 9.00415 3.41651L9.01075 3.42585C9.45722 4.05711 10.0914 4.95383 10.3988 5.91666C10.7238 6.93489 10.7059 8.11602 9.73123 9.14184C9.38492 9.50632 9.28601 10.0453 9.51905 10.79C9.75356 11.5394 10.2975 12.3694 11.0115 13.0824C11.7263 13.7961 12.5472 14.3282 13.2754 14.5468C13.9935 14.7624 14.4949 14.6502 14.8313 14.2961C15.7481 13.3312 16.8902 13.28 17.8647 13.5226C18.7709 13.7482 19.6437 14.2509 20.2542 14.6026C20.2753 14.6147 20.296 14.6266 20.3164 14.6384C21.1502 15.1181 21.6024 15.8416 21.7192 16.6522C21.831 17.4294 21.6284 18.2271 21.2876 18.9195C20.9441 19.6176 20.4334 20.2652 19.845 20.7593C19.2634 21.2477 18.5523 21.6299 17.8012 21.704C13.9651 22.0825 10.1655 20.1045 7.32063 17.2578C4.47338 14.4088 2.44709 10.5587 2.25365 6.95589C2.21345 6.20714 2.50973 5.44013 2.91996 4.79102C3.3379 4.12971 3.92262 3.51221 4.57766 3.05303C5.22534 2.599 6.00191 2.25866 6.79911 2.2504Z" fill="#4E5964"/>
</svg>
