<svg width="24" height="25" viewBox="0 0 24 25" fill="none" xmlns="http://www.w3.org/2000/svg">
<path d="M9.00415 3.69214C8.43134 2.88224 7.64025 2.51731 6.79911 2.52603C6.00191 2.5343 5.22534 2.87463 4.57766 3.32866C3.92262 3.78784 3.3379 4.40534 2.91996 5.06666C2.50973 5.71576 2.21345 6.48278 2.25365 7.23153C2.44709 10.8343 4.47338 14.6844 7.32063 17.5334C10.1655 20.3801 13.9651 22.3582 17.8012 21.9796C18.5523 21.9055 19.2634 21.5234 19.845 21.0349C20.4334 20.5408 20.9441 19.8932 21.2876 19.1951C21.6284 18.5028 21.831 17.705 21.7192 16.9278C21.6024 16.1172 21.1502 15.3938 20.3164 14.914L20.2542 14.8782C19.6437 14.5265 18.7709 14.0238 17.8647 13.7983C16.8902 13.5557 15.7481 13.6069 14.8313 14.5718C14.4949 14.9258 13.9935 15.0381 13.2754 14.8225C12.5472 14.6039 11.7263 14.0717 11.0115 13.358C10.2975 12.6451 9.75356 11.815 9.51905 11.0656C9.28601 10.321 9.38492 9.78196 9.73123 9.41748C10.7059 8.39166 10.7238 7.21052 10.3988 6.19229C10.0914 5.22946 9.45722 4.33274 9.01075 3.70148L9.00415 3.69214Z" fill="#4E5964"/>
<path d="M19.5604 5.77383C19.8357 5.46432 19.8079 4.99026 19.4984 4.71498C19.1889 4.4397 18.7149 4.46745 18.4396 4.77695L16.3323 7.14631L15.5608 6.27745C15.2858 5.9677 14.8118 5.93954 14.5021 6.21454C14.1923 6.48955 14.1641 6.96359 14.4392 7.27334L15.7709 8.77334C15.9132 8.93356 16.1172 9.0253 16.3314 9.02539C16.5457 9.02548 16.7498 8.93393 16.8922 8.77383L19.5604 5.77383Z" fill="#4E5964"/>
</svg>
