<svg width="24" height="24" viewBox="0 0 24 24" fill="none" xmlns="http://www.w3.org/2000/svg">
<path fill-rule="evenodd" clip-rule="evenodd" d="M8.875 8.25C6.20374 11.0614 13.0889 17.9257 15.75 15.125C17.2194 13.5785 19.3776 14.8206 20.7873 15.632L20.8248 15.6535C23.642 17.2746 20.8201 21.7103 18.3639 21.9527C10.5128 22.7273 2.40525 13.8454 2.00284 6.35049C1.87524 3.97379 6.07693 0.237528 7.99089 2.94371C9.0107 4.38563 10.506 6.53344 8.875 8.25ZM18.5303 6.53033C18.8232 6.23744 18.8232 5.76256 18.5303 5.46967C18.2374 5.17678 17.7626 5.17678 17.4697 5.46967L16 6.93934L14.5303 5.46967C14.2374 5.17678 13.7626 5.17678 13.4697 5.46967C13.1768 5.76256 13.1768 6.23744 13.4697 6.53033L15.4697 8.53033C15.7626 8.82322 16.2374 8.82322 16.5303 8.53033L18.5303 6.53033Z" fill="#4E5964"/>
</svg>
