<svg width="24" height="24" viewBox="0 0 24 24" fill="none" xmlns="http://www.w3.org/2000/svg">
<path d="M9.00415 3.41651C8.43134 2.6066 7.64025 2.24168 6.79911 2.2504C6.00191 2.25866 5.22534 2.599 4.57766 3.05303C3.92262 3.51221 3.3379 4.12971 2.91996 4.79102C2.50973 5.44013 2.21345 6.20714 2.25365 6.95589C2.44709 10.5587 4.47338 14.4088 7.32063 17.2578C10.1655 20.1045 13.9651 22.0825 17.8012 21.704C18.5523 21.6299 19.2634 21.2477 19.845 20.7593C20.4334 20.2652 20.9441 19.6176 21.2876 18.9195C21.6284 18.2271 21.831 17.4294 21.7192 16.6522C21.6024 15.8416 21.1502 15.1181 20.3164 14.6384L20.2542 14.6026C19.6437 14.2509 18.7709 13.7482 17.8647 13.5226C16.8902 13.28 15.7481 13.3312 14.8313 14.2961C14.4949 14.6502 13.9935 14.7624 13.2754 14.5468C12.5472 14.3282 11.7263 13.7961 11.0115 13.0824C10.2975 12.3694 9.75356 11.5394 9.51905 10.79C9.28601 10.0453 9.38492 9.50632 9.73123 9.14184C10.7059 8.11602 10.7238 6.93489 10.3988 5.91666C10.0914 4.95383 9.45722 4.05711 9.01075 3.42585L9.00415 3.41651Z" fill="#4E5964"/>
<path d="M18.5303 6.53009C18.8232 6.23719 18.8232 5.76232 18.5303 5.46943C18.2374 5.17653 17.7626 5.17653 17.4697 5.46943L16 6.9391L14.5303 5.46943C14.2374 5.17653 13.7626 5.17653 13.4697 5.46943C13.1768 5.76232 13.1768 6.23719 13.4697 6.53009L15.4697 8.53009C15.7626 8.82298 16.2374 8.82298 16.5303 8.53009L18.5303 6.53009Z" fill="#4E5964"/>
</svg>
