<svg width="24" height="24" viewBox="0 0 24 24" fill="none" xmlns="http://www.w3.org/2000/svg">
<path fill-rule="evenodd" clip-rule="evenodd" d="M8.875 8.25C6.20374 11.0614 13.0889 17.9257 15.75 15.125C17.2194 13.5785 19.3776 14.8206 20.7873 15.632L20.8248 15.6535C23.642 17.2746 20.8201 21.7103 18.3639 21.9527C10.5128 22.7273 2.40525 13.8454 2.00284 6.35049C1.87524 3.97379 6.07693 0.237528 7.99089 2.94371C9.0107 4.38563 10.506 6.53344 8.875 8.25ZM18.5303 7.46967C18.8232 7.76256 18.8232 8.23744 18.5303 8.53033C18.2374 8.82322 17.7626 8.82322 17.4697 8.53033L16 7.06066L14.5303 8.53033C14.2374 8.82322 13.7626 8.82322 13.4697 8.53033C13.1768 8.23744 13.1768 7.76256 13.4697 7.46967L15.4697 5.46967C15.7626 5.17678 16.2374 5.17678 16.5303 5.46967L18.5303 7.46967Z" fill="#4E5964"/>
</svg>
