<svg width="24" height="24" viewBox="0 0 24 24" fill="none" xmlns="http://www.w3.org/2000/svg">
<path fill-rule="evenodd" clip-rule="evenodd" d="M8.875 8.25C6.20374 11.0614 13.0889 17.9257 15.75 15.125C17.2194 13.5785 19.3776 14.8206 20.7873 15.632L20.8248 15.6535C23.642 17.2746 20.8201 21.7103 18.3639 21.9527C10.5128 22.7273 2.40525 13.8454 2.00284 6.35049C1.87524 3.97379 6.07693 0.237529 7.99089 2.94371C9.0107 4.38563 10.506 6.53344 8.875 8.25ZM19.5604 5.49844C19.8357 5.18893 19.8079 4.71487 19.4984 4.43959C19.1889 4.16431 18.7149 4.19206 18.4396 4.50156L16.3323 6.87091L15.5608 6.00206C15.2858 5.69231 14.8118 5.66414 14.5021 5.93915C14.1923 6.21416 14.1641 6.6882 14.4392 6.99795L15.7709 8.49795C15.9132 8.65817 16.1172 8.74991 16.3314 8.75C16.5457 8.75009 16.7498 8.65854 16.8922 8.49844L19.5604 5.49844Z" fill="#4E5964"/>
</svg>
