<svg width="24" height="24" viewBox="0 0 24 24" fill="none" xmlns="http://www.w3.org/2000/svg">
<g clip-path="url(#clip0_11926_3717)">
<path fill-rule="evenodd" clip-rule="evenodd" d="M6 8C6.55228 8 7 8.44772 7 9V9.01953C7 9.57182 6.55228 10.0195 6 10.0195C5.44772 10.0195 5 9.57182 5 9.01953V9C5 8.44772 5.44772 8 6 8ZM12.8395 4.25L13.3507 3.75H15.6493L16.1605 4.25H12.8395ZM10.6942 4.25L12.4231 2.55908C12.6274 2.35933 12.9009 2.25 13.1827 2.25H15.8173C16.0991 2.25 16.3726 2.35933 16.5769 2.55908L18.5304 4.46964L18.5796 4.51898C20.4265 5.17001 21.75 6.93044 21.75 9V16.5C21.75 19.3995 19.3995 21.75 16.5 21.75H7.5C4.60051 21.75 2.25 19.3995 2.25 16.5V9.5C2.25 6.60051 4.6005 4.25 7.5 4.25H10.6942ZM13.5652 8.89819C11.3948 8.89771 9.59905 10.7133 9.59855 12.9985C9.59805 15.2837 11.393 17.1001 13.5634 17.1006C15.7337 17.101 17.5295 15.2854 17.53 13.0002C17.5305 10.7151 15.7355 8.89866 13.5652 8.89819ZM8.09855 12.9982C8.09922 9.92489 10.527 7.39752 13.5655 7.39819C16.604 7.39885 19.0307 9.92728 19.03 13.0006C19.0293 16.0739 16.6016 18.6012 13.5631 18.6006C10.5245 18.5999 8.09787 16.0715 8.09855 12.9982ZM13.7961 10.7851C13.9148 10.3883 14.3327 10.1628 14.7295 10.2814C16.0761 10.6841 16.8412 12.1022 16.4385 13.4487C16.3198 13.8456 15.9019 14.0711 15.5051 13.9524C15.1082 13.8337 14.8827 13.4158 15.0014 13.0189C15.1667 12.4661 14.8526 11.8839 14.2998 11.7186C13.9029 11.5999 13.6774 11.182 13.7961 10.7851Z" fill="#4E5964"/>
</g>
<defs>
<clipPath id="clip0_11926_3717">
<rect width="24" height="24" fill="white"/>
</clipPath>
</defs>
</svg>
