<svg width="24" height="24" viewBox="0 0 24 24" fill="none" xmlns="http://www.w3.org/2000/svg">
<path d="M4.47168 2.26562C4.87726 2.26562 5.20605 2.59442 5.20605 3V6.26811C6.10912 6.31647 6.82648 7.06404 6.82648 7.97917V10.0208C6.82648 10.9107 6.14811 11.6422 5.28027 11.7263V15.5C5.28027 15.9056 4.95148 16.2344 4.5459 16.2344C4.14031 16.2344 3.81152 15.9056 3.81152 15.5V11.7263C2.94384 11.642 2.26562 10.9106 2.26562 10.0208V7.97917C2.26562 7.1149 2.90547 6.40008 3.7373 6.28256V3C3.7373 2.59442 4.0661 2.26562 4.47168 2.26562Z" fill="#4E5964"/>
<path d="M12.3369 7C12.3369 6.59442 12.0081 6.26562 11.6025 6.26562C11.197 6.26562 10.8682 6.59442 10.8682 7V9.64176C10.0174 9.74207 9.35742 10.4657 9.35742 11.3434V16.7288C9.35742 17.6186 10.0356 18.35 10.9033 18.4343V20.9998C10.9033 21.4053 11.2321 21.7341 11.6377 21.7341C12.0433 21.7341 12.3721 21.4053 12.3721 20.9998V18.4343C13.2399 18.3502 13.9183 17.6187 13.9183 16.7288V11.3434C13.9183 10.4415 13.2215 9.70239 12.3369 9.63491V7Z" fill="#4E5964"/>
<path d="M19.4287 3C19.4287 2.59442 19.0999 2.26562 18.6943 2.26562C18.2888 2.26562 17.96 2.59442 17.96 3V6.215C17.1092 6.31532 16.4492 7.03892 16.4492 7.91667V13.5208C16.4492 14.4112 17.1283 15.143 17.9969 15.2264C17.9964 15.2377 17.9961 15.2489 17.9961 15.2603V17.9999C17.9961 18.4055 18.3249 18.7343 18.7305 18.7343C19.1361 18.7343 19.4648 18.4055 19.4648 17.9999V15.2603C19.4648 15.2489 19.4646 15.2375 19.4641 15.2263C20.3318 15.1421 21.0101 14.4107 21.0101 13.5208V7.91667C21.0101 7.01478 20.3133 6.27563 19.4287 6.20815V3Z" fill="#4E5964"/>
</svg>
