<svg width="24" height="24" viewBox="0 0 24 24" fill="none" xmlns="http://www.w3.org/2000/svg">
<path d="M21.5049 16.75C20.7942 19.0691 18.6155 20.75 16.0498 20.75H7.9502C5.38446 20.75 3.20579 19.0691 2.49512 16.75H21.5049Z" fill="#4E5964"/>
<path fill-rule="evenodd" clip-rule="evenodd" d="M15.4023 3.25C15.1447 3.77862 15 4.37239 15 5C15 7.20914 16.7909 9 19 9C20.0283 9 21.0414 8.63758 21.75 8C21.75 8 21.75 8.57689 21.75 8.88867V15.1113C21.75 15.1577 21.7472 15.2039 21.7461 15.25H2.25391C2.25278 15.2039 2.25 15.1577 2.25 15.1113V8.88867C2.25012 5.76574 4.81106 3.25 7.9502 3.25H15.4023ZM9.02246 8.50879C8.75044 8.19641 8.27624 8.16353 7.96387 8.43555C7.6518 8.70761 7.61968 9.1809 7.8916 9.49316C8.36705 10.0392 8.36446 10.9606 7.88574 11.5059C7.61249 11.8171 7.64382 12.2912 7.95508 12.5645C8.26635 12.8376 8.74042 12.8073 9.01367 12.4961C9.98712 11.3873 9.99167 9.62209 9.02246 8.50879ZM6.56934 9.21582C6.29739 8.90368 5.82405 8.8709 5.51172 9.14258C5.19934 9.4146 5.16646 9.8888 5.43848 10.2012C5.57312 10.356 5.57268 10.6435 5.43652 10.7988C5.16334 11.11 5.19393 11.5841 5.50488 11.8574C5.81606 12.1306 6.29016 12.1001 6.56348 11.7891C7.19466 11.0701 7.19817 9.93793 6.56934 9.21582Z" fill="#4E5964"/>
<path d="M18.2206 7.08203V4.89257L17.5009 5.6123C17.208 5.90519 16.7333 5.90519 16.4404 5.6123C16.1475 5.31941 16.1475 4.84465 16.4404 4.55175L18.4404 2.55175L18.497 2.49999C18.7916 2.25969 19.2263 2.27715 19.5009 2.55175L21.5009 4.55175C21.7938 4.84465 21.7938 5.31941 21.5009 5.6123C21.208 5.90519 20.7333 5.90519 20.4404 5.6123L19.7206 4.89257V7.08203C19.7206 7.49624 19.3849 7.83203 18.9706 7.83203C18.5564 7.83203 18.2206 7.49624 18.2206 7.08203Z" fill="#4E5964"/>
</svg>
