<svg width="24" height="24" viewBox="0 0 24 24" fill="none" xmlns="http://www.w3.org/2000/svg">
<path fill-rule="evenodd" clip-rule="evenodd" d="M7.5 3C4.46243 3 2 5.46243 2 8.5V15.25H12H17H19.5H22V8.5C22 5.46243 19.5376 3 16.5 3H7.5ZM21.8573 16.75H19.5H17H12H2.14267C2.70865 19.1854 4.89241 21 7.5 21H16.5C19.1076 21 21.2913 19.1854 21.8573 16.75ZM15.8861 8.4958C16.3647 9.04088 16.3668 9.96218 15.8911 10.5084C15.6191 10.8208 15.6519 11.2945 15.9643 11.5666C16.2767 11.8387 16.7505 11.8061 17.0224 11.4937C17.9917 10.3807 17.9869 8.61547 17.0132 7.50639C16.7399 7.19507 16.266 7.16417 15.9547 7.43739C15.6435 7.71061 15.6128 8.18448 15.8861 8.4958ZM13.4366 9.20269C13.5728 9.35782 13.5733 9.64581 13.4382 9.80089C13.1663 10.1132 13.199 10.587 13.5115 10.859C13.8239 11.1311 14.2976 11.0985 14.5696 10.7862C15.1982 10.0643 15.195 8.93241 14.5637 8.21328C14.2903 7.90196 13.8165 7.87106 13.5052 8.14428C13.194 8.4175 13.1633 8.89137 13.4366 9.20269Z" fill="#4E5964"/>
</svg>
