<svg width="24" height="24" viewBox="0 0 24 24" fill="none" xmlns="http://www.w3.org/2000/svg">
<path fill-rule="evenodd" clip-rule="evenodd" d="M7.54453 3.83966C9.00846 2.01157 11.6767 1.71678 13.5042 3.18146L20.1612 8.51709C21.9872 9.98059 22.2825 12.6468 20.8222 14.4746L17.4011 18.8598L4.11184 8.12625L7.54453 3.83966ZM16.146 12.5059C16.6173 12.4207 17.0049 11.9348 16.9833 11.4555C16.9646 11.0416 17.2849 10.691 17.6986 10.6724C18.1123 10.6537 18.4628 10.9741 18.4815 11.388C18.5369 12.6171 17.6238 13.7633 16.4129 13.9823C16.0054 14.056 15.6153 13.7852 15.5416 13.3776C15.4679 12.9699 15.7385 12.5796 16.146 12.5059ZM15.0027 10.8854C15.0273 10.881 15.0698 10.8616 15.1082 10.8134C15.1466 10.7653 15.1561 10.7193 15.155 10.6942C15.1363 10.2803 15.4566 9.92969 15.8703 9.91105C16.284 9.89242 16.6345 10.2128 16.6532 10.6267C16.6904 11.453 16.084 12.2145 15.2696 12.3618C14.8621 12.4354 14.472 12.1647 14.3983 11.757C14.3246 11.3493 14.5952 10.9591 15.0027 10.8854Z" fill="#4E5964"/>
<path d="M3.17423 9.29711L16.4719 20.0375C16.4067 20.1111 16.3395 20.1819 16.2703 20.25H19C19.4142 20.25 19.75 20.5858 19.75 21C19.75 21.4142 19.4142 21.75 19 21.75H5C4.58579 21.75 4.25 21.4142 4.25 21C4.25 20.5858 4.58579 20.25 5 20.25H10.2366L8.84881 19.2655L3.83883 15.2501C2.0144 13.7878 1.71805 11.1248 3.17423 9.29711Z" fill="#4E5964"/>
</svg>
