<svg width="24" height="24" viewBox="0 0 24 24" fill="none" xmlns="http://www.w3.org/2000/svg">
<path d="M19.3681 3C19.3681 2.58579 19.0396 2.25 18.6345 2.25C18.2294 2.25 17.9009 2.58579 17.9009 3V5.18934L17.197 4.46967C16.9106 4.17678 16.4461 4.17678 16.1596 4.46967C15.8732 4.76256 15.8732 5.23744 16.1596 5.53033L18.1158 7.53033C18.1861 7.60224 18.2672 7.65649 18.3537 7.69309C18.4402 7.72976 18.535 7.75 18.6345 7.75C18.734 7.75 18.8288 7.72976 18.9153 7.69309C19.0018 7.65649 19.0829 7.60224 19.1532 7.53033L21.1094 5.53033C21.3958 5.23744 21.3958 4.76256 21.1094 4.46967C20.8229 4.17678 20.3584 4.17678 20.072 4.46967L19.3681 5.18934V3Z" fill="#4E5964"/>
<path fill-rule="evenodd" clip-rule="evenodd" d="M2.32422 8.8501C2.32422 5.7435 4.78742 3.2251 7.82593 3.2251H12.7652C14.0485 3.2251 15.106 4.25447 15.1691 5.56489L15.2401 7.04278C15.3028 8.34454 16.3314 9.37966 17.6054 9.42306C19.6377 9.49229 21.2501 11.1967 21.2501 13.2756V15.1501C21.2501 15.6968 21.1738 16.2252 21.0316 16.7249H2.54274C2.40049 16.2252 2.32422 15.6968 2.32422 15.1501V8.8501ZM3.12551 18.0749H20.4488C19.4829 19.6941 17.7391 20.7751 15.7484 20.7751H7.82593C5.8352 20.7751 4.09142 19.6941 3.12551 18.0749ZM7.76383 11.5061C8.2319 10.9611 8.23395 10.0398 7.76869 9.49351C7.50268 9.1812 7.53474 8.70744 7.84031 8.43536C8.14588 8.16328 8.60924 8.19589 8.87525 8.50821C9.82329 9.62129 9.81857 11.3865 8.86619 12.4956C8.59885 12.8069 8.13536 12.8378 7.83095 12.5646C7.52654 12.2913 7.49649 11.8175 7.76383 11.5061ZM5.36802 10.7993C5.50123 10.6441 5.50168 10.3561 5.36959 10.2011C5.10358 9.88874 5.13565 9.41499 5.44122 9.14291C5.74679 8.87082 6.21014 8.90344 6.47615 9.21575C7.09102 9.93766 7.08789 11.0695 6.47037 11.7887C6.20303 12.1 5.73954 12.1309 5.43513 11.8577C5.13072 11.5845 5.10068 11.1106 5.36802 10.7993Z" fill="#4E5964"/>
</svg>
