<svg width="24" height="24" viewBox="0 0 24 24" fill="none" xmlns="http://www.w3.org/2000/svg">
<path fill-rule="evenodd" clip-rule="evenodd" d="M22.5303 4.46967C22.8232 4.76256 22.8232 5.23744 22.5303 5.53033C22.2374 5.82322 21.7626 5.82322 21.4697 5.53033L20.75 4.81066V7C20.75 7.41421 20.4142 7.75 20 7.75C19.5858 7.75 19.25 7.41421 19.25 7V4.81066L18.5303 5.53033C18.2374 5.82322 17.7626 5.82322 17.4697 5.53033C17.1768 5.23744 17.1768 4.76256 17.4697 4.46967L19.4697 2.46967C19.6155 2.3238 19.8066 2.25057 19.9978 2.25C19.9985 2.25 19.9992 2.25 20 2.25C20.0008 2.25 20.0015 2.25 20.0022 2.25C20.1031 2.2503 20.1993 2.27051 20.2871 2.30691C20.3755 2.34351 20.4584 2.39776 20.5303 2.46967L22.5303 4.46967Z" fill="#00A881"/>
<path fill-rule="evenodd" clip-rule="evenodd" d="M7.88612 11.5062C8.36468 10.9611 8.36677 10.0398 7.89108 9.49351C7.61911 9.1812 7.6519 8.70744 7.96432 8.43536C8.27673 8.16328 8.75047 8.19589 9.02245 8.50821C9.99173 9.62129 9.9869 11.3865 9.01318 12.4956C8.73985 12.8069 8.26597 12.8378 7.95474 12.5646C7.64351 12.2913 7.61279 11.8175 7.88612 11.5062ZM5.43662 10.7993C5.57281 10.6441 5.57328 10.3561 5.43822 10.2011C5.16625 9.88874 5.19904 9.41499 5.51146 9.14291C5.82387 8.87082 6.29761 8.90344 6.56959 9.21575C7.19823 9.93766 7.19504 11.0695 6.56367 11.7887C6.29034 12.1 5.81646 12.1309 5.50524 11.8577C5.19401 11.5845 5.16329 11.1106 5.43662 10.7993ZM16.5 21H7.5C5.67825 21 4.06337 20.1143 3.06248 18.75L20.9375 18.75C19.9366 20.1143 18.3218 21 16.5 21ZM21.7157 17.25H21L3 17.25H2.28426C2.09989 16.7003 2 16.1118 2 15.5V8.5C2 5.46243 4.46243 3 7.5 3H13.5C14.3284 3 15 3.67157 15 4.5V6.5C15 8.433 16.567 10 18.5 10C20.433 10 22 11.567 22 13.5V15.5C22 16.1118 21.9001 16.7003 21.7157 17.25Z" fill="#00A881"/>
</svg>
