<svg width="24" height="24" viewBox="0 0 24 24" fill="none" xmlns="http://www.w3.org/2000/svg">
<path d="M19.749 4.81066V7C19.749 7.41421 19.4132 7.75 18.999 7.75C18.5848 7.75 18.249 7.41421 18.249 7V4.81066L17.5294 5.53033C17.2365 5.82322 16.7616 5.82322 16.4687 5.53033C16.1758 5.23744 16.1758 4.76256 16.4687 4.46967L18.4687 2.46967C18.5406 2.39776 18.6235 2.34351 18.7119 2.30691C18.8004 2.27024 18.8973 2.25 18.999 2.25C19.1007 2.25 19.1977 2.27024 19.2861 2.30691C19.3746 2.34351 19.4574 2.39776 19.5294 2.46967L21.5294 4.46967C21.8222 4.76256 21.8222 5.23744 21.5294 5.53033C21.2365 5.82322 20.7616 5.82322 20.4687 5.53033L19.749 4.81066Z" fill="#4E5964"/>
<path fill-rule="evenodd" clip-rule="evenodd" d="M2.32422 8.8501C2.32422 5.7435 4.84262 3.2251 7.94922 3.2251H12.9992C14.3112 3.2251 15.3925 4.25447 15.4569 5.56489L15.5296 7.04278C15.5936 8.34454 16.6453 9.37966 17.9479 9.42306C20.0256 9.49229 21.6742 11.1967 21.6742 13.2756V15.1501C21.6742 15.6968 21.5962 16.2252 21.4508 16.7249H2.54764C2.4022 16.2252 2.32422 15.6968 2.32422 15.1501V8.8501ZM3.14346 18.0749H20.855C19.8674 19.6941 18.0846 20.7751 16.0492 20.7751H7.94922C5.91388 20.7751 4.13102 19.6941 3.14346 18.0749ZM7.88573 11.5061C8.36429 10.9611 8.36638 10.0398 7.89069 9.49351C7.61872 9.1812 7.65151 8.70744 7.96393 8.43536C8.27634 8.16328 8.75008 8.19589 9.02206 8.50821C9.99134 9.62129 9.98651 11.3865 9.01279 12.4956C8.73946 12.8069 8.26558 12.8378 7.95435 12.5646C7.64312 12.2913 7.6124 11.8175 7.88573 11.5061ZM5.43623 10.7993C5.57242 10.6441 5.57289 10.3561 5.43783 10.2011C5.16586 9.88874 5.19865 9.41499 5.51107 9.14291C5.82348 8.87082 6.29722 8.90344 6.5692 9.21575C7.19784 9.93766 7.19465 11.0695 6.56328 11.7887C6.28995 12.1 5.81607 12.1309 5.50485 11.8577C5.19362 11.5845 5.16289 11.1106 5.43623 10.7993Z" fill="#4E5964"/>
</svg>
