<svg width="24" height="24" viewBox="0 0 24 24" fill="none" xmlns="http://www.w3.org/2000/svg">
<path d="M21.3291 16.7216C20.6184 19.0407 18.4398 20.7216 15.874 20.7216H7.77441C5.20868 20.7216 3.03001 19.0407 2.31934 16.7216H21.3291Z" fill="#4E5964"/>
<path fill-rule="evenodd" clip-rule="evenodd" d="M15.2266 3.22156C14.9689 3.75018 14.8242 4.34394 14.8242 4.97156C14.8242 7.1807 16.6151 8.97156 18.8242 8.97156C19.8525 8.97156 20.8656 8.60914 21.5742 7.97156C21.5742 7.97156 21.5742 8.54845 21.5742 8.86023V15.0829C21.5742 15.1293 21.5714 15.1755 21.5703 15.2216H2.07812C2.077 15.1755 2.07422 15.1293 2.07422 15.0829V8.86023C2.07434 5.7373 4.63527 3.22156 7.77441 3.22156H15.2266ZM8.84668 8.48035C8.57466 8.16797 8.10046 8.13508 7.78809 8.4071C7.47602 8.67917 7.4439 9.15246 7.71582 9.46472C8.19127 10.0108 8.18868 10.9322 7.70996 11.4774C7.43671 11.7887 7.46804 12.2627 7.7793 12.536C8.09056 12.8092 8.56464 12.7789 8.83789 12.4677C9.81134 11.3589 9.81589 9.59365 8.84668 8.48035ZM6.39355 9.18738C6.12161 8.87523 5.64827 8.84246 5.33594 9.11414C5.02356 9.38616 4.99067 9.86036 5.2627 10.1727C5.39734 10.3276 5.3969 10.6151 5.26074 10.7704C4.98756 11.0815 5.01815 11.5557 5.3291 11.829C5.64028 12.1022 6.11438 12.0716 6.3877 11.7606C7.01887 11.0417 7.02238 9.90949 6.39355 9.18738Z" fill="#4E5964"/>
<path d="M19.545 3.05347L19.545 5.24292L20.2647 4.5232C20.5576 4.23031 21.0324 4.23031 21.3253 4.5232C21.6181 4.81609 21.6181 5.29085 21.3253 5.58375L19.3253 7.58375L19.2686 7.6355C18.974 7.87581 18.5393 7.85835 18.2647 7.58375L16.2647 5.58374C15.9718 5.29085 15.9718 4.81609 16.2647 4.5232C16.5576 4.2303 17.0324 4.2303 17.3253 4.5232L18.045 5.24292L18.045 3.05347C18.045 2.63926 18.3808 2.30347 18.795 2.30347C19.2092 2.30347 19.545 2.63926 19.545 3.05347Z" fill="#4E5964"/>
</svg>
