<svg width="24" height="24" viewBox="0 0 24 24" fill="none" xmlns="http://www.w3.org/2000/svg">
<path d="M20.75 3C20.75 2.58579 20.4142 2.25 20 2.25C19.5858 2.25 19.25 2.58579 19.25 3V5.18934L18.5303 4.46967C18.2374 4.17678 17.7626 4.17678 17.4697 4.46967C17.1768 4.76256 17.1768 5.23744 17.4697 5.53033L19.4697 7.53033C19.5416 7.60224 19.6245 7.65649 19.7129 7.69309C19.8013 7.72976 19.8983 7.75 20 7.75C20.1017 7.75 20.1987 7.72976 20.2871 7.69309C20.3755 7.65649 20.4584 7.60224 20.5303 7.53033L22.5303 5.53033C22.8232 5.23744 22.8232 4.76256 22.5303 4.46967C22.2374 4.17678 21.7626 4.17678 21.4697 4.46967L20.75 5.18934V3Z" fill="#00A881"/>
<path fill-rule="evenodd" clip-rule="evenodd" d="M7.88612 11.5062C8.36468 10.9611 8.36677 10.0398 7.89108 9.49351C7.61911 9.1812 7.6519 8.70744 7.96432 8.43536C8.27673 8.16328 8.75047 8.19589 9.02245 8.50821C9.99173 9.62129 9.9869 11.3865 9.01318 12.4956C8.73985 12.8069 8.26597 12.8378 7.95474 12.5646C7.64351 12.2913 7.61279 11.8175 7.88612 11.5062ZM5.43662 10.7993C5.57281 10.6441 5.57328 10.3561 5.43822 10.2011C5.16625 9.88874 5.19904 9.41499 5.51146 9.14291C5.82387 8.87082 6.29761 8.90344 6.56959 9.21575C7.19823 9.93766 7.19504 11.0695 6.56367 11.7887C6.29034 12.1 5.81646 12.1309 5.50524 11.8577C5.19401 11.5845 5.16329 11.1106 5.43662 10.7993ZM20.9375 18.75C19.9366 20.1143 18.3218 21 16.5 21H7.5C5.67825 21 4.06337 20.1143 3.06248 18.75L20.9375 18.75ZM21.7157 17.25H21L3 17.25H2.28426C2.09989 16.7003 2 16.1118 2 15.5V8.5C2 5.46243 4.46243 3 7.5 3H12C13.6569 3 15 4.34315 15 6V6.5C15 8.433 16.567 10 18.5 10C20.433 10 22 11.567 22 13.5V15.5C22 16.1118 21.9001 16.7003 21.7157 17.25Z" fill="#00A881"/>
</svg>
