<svg width="24" height="24" viewBox="0 0 24 24" fill="none" xmlns="http://www.w3.org/2000/svg">
<path d="M22.5303 4.21967C22.8232 4.51256 22.8232 4.98744 22.5303 5.28033C22.2374 5.57322 21.7626 5.57322 21.4697 5.28033L20.75 4.56066V6.75C20.75 7.16421 20.4142 7.5 20 7.5C19.5858 7.5 19.25 7.16421 19.25 6.75V4.56066L18.5303 5.28033C18.2374 5.57322 17.7626 5.57322 17.4697 5.28033C17.1768 4.98744 17.1768 4.51256 17.4697 4.21967L19.4697 2.21967C19.6155 2.0738 19.8066 2.00057 19.9978 2L20 2L20.0022 2C20.1031 2.0003 20.1993 2.02051 20.2871 2.05691C20.3755 2.09351 20.4584 2.14776 20.5303 2.21967L22.5303 4.21967Z" fill="#00A881"/>
<path fill-rule="evenodd" clip-rule="evenodd" d="M7.88612 11.2562C8.36468 10.7111 8.36677 9.78977 7.89108 9.24351C7.61911 8.9312 7.6519 8.45744 7.96432 8.18536C8.27673 7.91328 8.75047 7.94589 9.02245 8.25821C9.99173 9.37129 9.9869 11.1365 9.01318 12.2456C8.73985 12.5569 8.26597 12.5878 7.95474 12.3146C7.64351 12.0413 7.61279 11.5675 7.88612 11.2562ZM5.43662 10.5493C5.57281 10.3941 5.57328 10.1061 5.43822 9.95106C5.16625 9.63874 5.19904 9.16499 5.51146 8.89291C5.82387 8.62082 6.29761 8.65344 6.56959 8.96575C7.19823 9.68766 7.19504 10.8195 6.56367 11.5387C6.29034 11.85 5.81646 11.8809 5.50524 11.6077C5.19401 11.3345 5.16329 10.8606 5.43662 10.5493ZM16.5 20.75H7.5C5.67825 20.75 4.06337 19.8643 3.06248 18.5L20.9375 18.5C19.9366 19.8643 18.3218 20.75 16.5 20.75ZM21.7157 17L2.28426 17C2.09989 16.4503 2 15.8618 2 15.25V8.25C2 5.21243 4.46243 2.75 7.5 2.75H13.5C14.3284 2.75 15 3.42157 15 4.25V6.25C15 8.183 16.567 9.75 18.5 9.75C20.433 9.75 22 11.317 22 13.25V15.25C22 15.8618 21.9001 16.4503 21.7157 17Z" fill="#00A881"/>
</svg>
