<svg width="24" height="24" viewBox="0 0 24 24" fill="none" xmlns="http://www.w3.org/2000/svg">
<path fill-rule="evenodd" clip-rule="evenodd" d="M7.54453 3.83966C9.00846 2.01157 11.6767 1.71678 13.5042 3.18146L20.1612 8.51709C21.9872 9.98059 22.2825 12.6468 20.8222 14.4746L17.4011 18.8598L4.11184 8.12625L7.54453 3.83966ZM9.66454 8.59489C10.1358 8.50968 10.5234 8.02373 10.5018 7.54444C10.4831 7.13057 10.8034 6.77996 11.2171 6.76132C11.6308 6.74269 11.9813 7.06309 12 7.47696C12.0554 8.70601 11.1423 9.85227 9.93144 10.0712C9.52391 10.1449 9.13379 9.87418 9.06009 9.4665C8.98639 9.05882 9.25701 8.66859 9.66454 8.59489ZM8.52125 6.97436C8.54576 6.96993 8.58828 6.95055 8.62668 6.90239C8.66508 6.85421 8.67462 6.80826 8.67348 6.78311C8.65482 6.36925 8.97508 6.01863 9.3888 6C9.80252 5.98137 10.153 6.30176 10.1717 6.71563C10.209 7.54196 9.60247 8.30344 8.78815 8.4507C8.38062 8.52439 7.99051 8.25365 7.9168 7.84597C7.8431 7.43829 8.11372 7.04806 8.52125 6.97436Z" fill="#4E5964"/>
<path d="M3.17423 9.29711L16.4719 20.0375C16.4067 20.1111 16.3395 20.1819 16.2703 20.25H19C19.4142 20.25 19.75 20.5858 19.75 21C19.75 21.4142 19.4142 21.75 19 21.75H5C4.58579 21.75 4.25 21.4142 4.25 21C4.25 20.5858 4.58579 20.25 5 20.25H10.2366L8.84881 19.2655L3.83883 15.2501C2.0144 13.7878 1.71805 11.1248 3.17423 9.29711Z" fill="#4E5964"/>
</svg>
