<svg width="24" height="25" viewBox="0 0 24 25" fill="none" xmlns="http://www.w3.org/2000/svg">
<path fill-rule="evenodd" clip-rule="evenodd" d="M7.65039 19.9308C7.65039 18.771 8.5906 17.8308 9.75039 17.8308C10.8084 17.8308 11.6837 18.6133 11.8292 19.6311H13.9714C14.1169 18.6133 14.9922 17.8308 16.0502 17.8308C17.21 17.8308 18.1502 18.771 18.1502 19.9308C18.1502 21.0906 17.21 22.0308 16.0502 22.0308C15.3367 22.0308 14.7063 21.675 14.3268 21.1311H11.4738C11.0943 21.675 10.4639 22.0308 9.75039 22.0308C8.5906 22.0308 7.65039 21.0906 7.65039 19.9308ZM9.75039 19.3308C9.41902 19.3308 9.15039 19.5994 9.15039 19.9308C9.15039 20.2622 9.41902 20.5308 9.75039 20.5308C10.0818 20.5308 10.3504 20.2622 10.3504 19.9308C10.3504 19.5994 10.0818 19.3308 9.75039 19.3308ZM16.0502 19.3308C15.7188 19.3308 15.4502 19.5994 15.4502 19.9308C15.4502 20.2622 15.7188 20.5308 16.0502 20.5308C16.3816 20.5308 16.6502 20.2622 16.6502 19.9308C16.6502 19.5994 16.3816 19.3308 16.0502 19.3308Z" fill="#4E5964"/>
<path fill-rule="evenodd" clip-rule="evenodd" d="M3.75127 4.14348C3.74852 4.12281 3.7529 4.10164 3.77458 4.07813C3.7974 4.05338 3.83663 4.03125 3.89197 4.03125C4.30618 4.03125 4.64197 3.69546 4.64197 3.28125C4.64197 2.86704 4.30618 2.53125 3.89197 2.53125C2.94146 2.53125 2.13126 3.34138 2.26439 4.34142C2.38174 5.22299 2.57269 6.55662 2.77843 7.57152C2.90576 8.19964 3.05814 9.09603 3.12217 9.47946C3.14526 9.61772 3.17278 9.75283 3.20274 9.88419C3.36195 10.5824 3.45885 11.192 3.53323 11.7746C3.90096 14.655 6.39123 16.6313 9.30849 16.6313H17.2861C19.7249 16.6313 21.7505 14.7202 21.7505 12.304V11.231L15.5996 11.231C15.1854 11.231 14.8496 10.8952 14.8496 10.481C14.8496 10.0667 15.1854 9.73096 15.5996 9.73096L21.7505 9.73096V5.30782C21.7505 4.28331 20.8963 3.50048 19.9026 3.50048H11.943C9.01442 3.50048 6.52833 5.65577 6.25762 8.52363L6.16112 9.54593V13.8918C5.54665 13.2845 5.13659 12.4888 5.02115 11.5846C4.94231 10.9671 4.83783 10.3078 4.6652 9.5507C4.64048 9.44232 4.61907 9.33648 4.60169 9.23239C4.53788 8.85029 4.38165 7.9302 4.24853 7.2735C4.05367 6.31228 3.86823 5.02205 3.75127 4.14348Z" fill="#4E5964"/>
</svg>
