<svg width="24" height="24" viewBox="0 0 24 24" fill="none" xmlns="http://www.w3.org/2000/svg">
<path fill-rule="evenodd" clip-rule="evenodd" d="M7.65039 19.6498C7.65039 18.49 8.5906 17.5498 9.75039 17.5498C10.8084 17.5498 11.6837 18.3323 11.8292 19.3501H13.9714C14.1169 18.3323 14.9922 17.5498 16.0502 17.5498C17.21 17.5498 18.1502 18.49 18.1502 19.6498C18.1502 20.8096 17.21 21.7498 16.0502 21.7498C15.3367 21.7498 14.7063 21.394 14.3268 20.8501H11.4738C11.0943 21.394 10.4639 21.7498 9.75039 21.7498C8.5906 21.7498 7.65039 20.8096 7.65039 19.6498ZM9.75039 19.0498C9.41902 19.0498 9.15039 19.3184 9.15039 19.6498C9.15039 19.9812 9.41902 20.2498 9.75039 20.2498C10.0818 20.2498 10.3504 19.9812 10.3504 19.6498C10.3504 19.3184 10.0818 19.0498 9.75039 19.0498ZM16.0502 19.0498C15.7188 19.0498 15.4502 19.3184 15.4502 19.6498C15.4502 19.9812 15.7188 20.2498 16.0502 20.2498C16.3816 20.2498 16.6502 19.9812 16.6502 19.6498C16.6502 19.3184 16.3816 19.0498 16.0502 19.0498Z" fill="#4E5964"/>
<path fill-rule="evenodd" clip-rule="evenodd" d="M3.75127 3.86248C3.74852 3.84181 3.7529 3.82064 3.77458 3.79712C3.7974 3.77238 3.83663 3.75024 3.89197 3.75024C4.30618 3.75024 4.64197 3.41446 4.64197 3.00024C4.64197 2.58603 4.30618 2.25024 3.89197 2.25024C2.94146 2.25024 2.13126 3.06037 2.26439 4.06042C2.38174 4.94198 2.57269 6.27562 2.77843 7.29051C2.90576 7.91864 3.05814 8.81502 3.12217 9.19846C3.14526 9.33671 3.17278 9.47182 3.20274 9.60318C3.36195 10.3014 3.45885 10.911 3.53323 11.4936C3.90096 14.374 6.39123 16.3502 9.30849 16.3502H17.2861C19.7249 16.3502 21.7505 14.4392 21.7505 12.023V10.95L15.5996 10.95C15.1854 10.95 14.8496 10.6142 14.8496 10.2C14.8496 9.78574 15.1854 9.44995 15.5996 9.44995L21.7505 9.44995V5.02682C21.7505 4.00231 20.8963 3.21947 19.9026 3.21947H11.943C9.01442 3.21947 6.52833 5.37477 6.25762 8.24262L6.16112 9.26493V13.6108C5.54665 13.0035 5.13659 12.2078 5.02115 11.3036C4.94231 10.6861 4.83783 10.0267 4.6652 9.2697C4.64048 9.16131 4.61907 9.05547 4.60169 8.95139C4.53788 8.56928 4.38165 7.6492 4.24853 6.99249C4.05367 6.03127 3.86823 4.74104 3.75127 3.86248Z" fill="#4E5964"/>
</svg>
