<svg width="24" height="24" viewBox="0 0 24 24" fill="none" xmlns="http://www.w3.org/2000/svg">
<path d="M6.33964 14.4335V14.4335C6.67583 14.5051 6.67129 14.5847 6.3585 14.4422C4.78129 13.7234 3.64979 12.3621 3.41676 10.665C3.33174 10.0459 3.22 9.39124 3.03588 8.64052C3.00555 8.51684 2.9784 8.39254 2.95594 8.26752C2.88501 7.8726 2.71378 6.93553 2.56926 6.27273C2.34699 5.2533 2.13815 3.89972 2.00814 2.99172C1.93246 2.46311 2.39411 2 2.98928 2" stroke="#4E5964" stroke-width="1.5" stroke-linecap="round"/>
<circle cx="10.4994" cy="20.5007" r="1.5" stroke="#4E5964" stroke-width="1.5"/>
<circle cx="17.4994" cy="20.5007" r="1.5" stroke="#4E5964" stroke-width="1.5"/>
<path d="M11.9994 21.0007H15.9994" stroke="#4E5964" stroke-width="1.5" stroke-linecap="round"/>
<path fill-rule="evenodd" clip-rule="evenodd" d="M6.34509 10.9091V8.99998L6.44863 7.90316C6.70664 5.16979 9.08626 3.0769 11.9361 3.0769H20.7801C21.4538 3.0769 21.9999 3.60289 21.9999 4.25173V9.25073C21.9998 9.25073 21.9996 9.25073 21.9994 9.25073L15.9994 9.25073C15.5852 9.25073 15.2494 9.58652 15.2494 10.0007C15.2494 10.4149 15.5852 10.7507 15.9994 10.7507L21.9994 10.7507C21.9996 10.7507 21.9998 10.7507 21.9999 10.7507V12.0253C21.9999 14.2204 20.1522 16 17.8729 16H9.00883C8.04587 16 7.13865 15.6316 6.34509 15.239V10.9091Z" fill="#4E5964"/>
</svg>
