<svg width="24" height="24" viewBox="0 0 24 24" fill="none" xmlns="http://www.w3.org/2000/svg">
<path fill-rule="evenodd" clip-rule="evenodd" d="M7.65039 19.65C7.65039 18.4903 8.5906 17.55 9.75039 17.55C10.8084 17.55 11.6837 18.3325 11.8292 19.3503H13.9714C14.1169 18.3325 14.9922 17.55 16.0502 17.55C17.21 17.55 18.1502 18.4903 18.1502 19.65C18.1502 20.8098 17.21 21.75 16.0502 21.75C15.3367 21.75 14.7063 21.3942 14.3268 20.8503H11.4738C11.0943 21.3942 10.4639 21.75 9.75039 21.75C8.5906 21.75 7.65039 20.8098 7.65039 19.65ZM9.75039 19.05C9.41902 19.05 9.15039 19.3187 9.15039 19.65C9.15039 19.9814 9.41902 20.25 9.75039 20.25C10.0818 20.25 10.3504 19.9814 10.3504 19.65C10.3504 19.3187 10.0818 19.05 9.75039 19.05ZM16.0502 19.05C15.7188 19.05 15.4502 19.3187 15.4502 19.65C15.4502 19.9814 15.7188 20.25 16.0502 20.25C16.3816 20.25 16.6502 19.9814 16.6502 19.65C16.6502 19.3187 16.3816 19.05 16.0502 19.05Z" fill="#4E5964"/>
<path fill-rule="evenodd" clip-rule="evenodd" d="M3.75127 3.86272C3.74852 3.84205 3.7529 3.82088 3.77458 3.79737C3.7974 3.77262 3.83663 3.75049 3.89197 3.75049C4.30618 3.75049 4.64197 3.4147 4.64197 3.00049C4.64197 2.58627 4.30618 2.25049 3.89197 2.25049C2.94146 2.25049 2.13126 3.06062 2.26439 4.06066C2.38174 4.94223 2.57269 6.27586 2.77843 7.29076C2.90576 7.91888 3.05814 8.81526 3.12217 9.1987C3.14526 9.33696 3.17278 9.47207 3.20274 9.60342C3.36195 10.3016 3.45885 10.9112 3.53323 11.4938C3.90096 14.3742 6.39123 16.3505 9.30849 16.3505H17.2861C19.7249 16.3505 21.7505 14.4395 21.7505 12.0233V10.9502L15.5996 10.9502C15.1854 10.9502 14.8496 10.6144 14.8496 10.2002C14.8496 9.78598 15.1854 9.4502 15.5996 9.4502L21.7505 9.4502V5.02706C21.7505 4.00255 20.8963 3.21972 19.9026 3.21972H11.943C9.01442 3.21972 6.52833 5.37501 6.25762 8.24287L6.16112 9.26517V13.6111C5.54665 13.0037 5.13659 12.2081 5.02115 11.3039C4.94231 10.6863 4.83783 10.027 4.6652 9.26994C4.64048 9.16155 4.61907 9.05572 4.60169 8.95163C4.53788 8.56953 4.38165 7.64944 4.24853 6.99274C4.05367 6.03151 3.86823 4.74129 3.75127 3.86272Z" fill="#4E5964"/>
</svg>
