<svg width="24" height="24" viewBox="0 0 24 24" fill="none" xmlns="http://www.w3.org/2000/svg">
<path fill-rule="evenodd" clip-rule="evenodd" d="M2.75064 2.88541L2.75063 2.88533C2.74959 2.87808 2.74684 2.85892 2.77974 2.82575C2.81547 2.78972 2.88631 2.75 2.98935 2.75C3.40356 2.75 3.73935 2.41421 3.73935 2C3.73935 1.58579 3.40356 1.25 2.98935 1.25C2.04276 1.25 1.11134 2.01936 1.26578 3.09802L1.86386 3.01239L1.26578 3.09802C1.39603 4.00766 1.60803 5.38444 1.83655 6.4325L2.46699 6.29504L1.83655 6.4325C1.97774 7.08007 2.14677 8.00448 2.21782 8.40011L2.21782 8.40011C2.24356 8.54338 2.27421 8.68328 2.30754 8.81916L2.98091 8.65401L2.30754 8.81917C2.48398 9.53857 2.59136 10.1666 2.6738 10.767C2.94451 12.7385 4.2505 14.2923 6.01052 15.1076C6.02042 15.1125 6.03045 15.1171 6.04061 15.1215L6.04756 15.1247C6.14695 15.17 6.24055 15.2064 6.32413 15.2308C6.35991 15.2413 6.42375 15.2586 6.49832 15.2666L6.49933 15.2668H6.49934C6.5249 15.2695 6.6239 15.2802 6.7442 15.2548C6.80006 15.243 6.95239 15.2057 7.09616 15.0751C7.28327 14.9051 7.37387 14.651 7.33282 14.398C7.3013 14.2038 7.20327 14.0785 7.16617 14.0342C7.11959 13.9786 7.0746 13.9412 7.0494 13.9215C6.99793 13.8814 6.95123 13.8554 6.9275 13.8429C6.87494 13.815 6.82401 13.7946 6.78539 13.7805C6.72646 13.759 6.65956 13.739 6.58601 13.7207C5.25585 13.0854 4.34937 11.9431 4.15985 10.563C4.07226 9.92506 3.95617 9.24391 3.76436 8.46187C3.73702 8.35039 3.71338 8.2417 3.6942 8.13494C3.62339 7.74072 3.44996 6.791 3.30212 6.11295C3.08609 5.12216 2.88042 3.79178 2.75064 2.88541ZM9.74946 20.5007C9.74946 20.0865 10.0852 19.7507 10.4995 19.7507C10.9137 19.7507 11.2495 20.0865 11.2495 20.5007C11.2495 20.9149 10.9137 21.2507 10.4995 21.2507C10.0852 21.2507 9.74946 20.9149 9.74946 20.5007ZM10.4995 18.2507C9.25682 18.2507 8.24946 19.2581 8.24946 20.5007C8.24946 21.7434 9.25682 22.7507 10.4995 22.7507C11.2796 22.7507 11.9669 22.3537 12.3706 21.7507H15.6283C16.032 22.3537 16.7194 22.7507 17.4995 22.7507C18.7421 22.7507 19.7495 21.7434 19.7495 20.5007C19.7495 19.2581 18.7421 18.2507 17.4995 18.2507C16.3413 18.2507 15.3876 19.1257 15.2632 20.2507H12.7357C12.6114 19.1257 11.6576 18.2507 10.4995 18.2507ZM17.4995 19.7507C17.0852 19.7507 16.7495 20.0865 16.7495 20.5007C16.7495 20.9149 17.0852 21.2507 17.4995 21.2507C17.9137 21.2507 18.2495 20.9149 18.2495 20.5007C18.2495 20.0865 17.9137 19.7507 17.4995 19.7507Z" fill="#00A881"/>
<path fill-rule="evenodd" clip-rule="evenodd" d="M6.34521 10.9091V8.99998L6.44875 7.90316C6.70676 5.16979 9.08638 3.0769 11.9362 3.0769H20.7802C21.4539 3.0769 22.0001 3.60289 22.0001 4.25173V9.25073C21.9999 9.25073 21.9997 9.25073 21.9995 9.25073L15.9995 9.25073C15.5853 9.25073 15.2495 9.58652 15.2495 10.0007C15.2495 10.4149 15.5853 10.7507 15.9995 10.7507L21.9995 10.7507C21.9997 10.7507 21.9999 10.7507 22.0001 10.7507V12.0253C22.0001 14.2204 20.1523 16 17.873 16H9.00896C8.04599 16 7.13877 15.6316 6.34521 15.239V10.9091Z" fill="#00A881"/>
</svg>
