<svg width="24" height="24" viewBox="0 0 24 24" fill="none" xmlns="http://www.w3.org/2000/svg">
<path fill-rule="evenodd" clip-rule="evenodd" d="M3.51093 3.53589C3.5067 3.54001 3.50369 3.5435 3.50159 3.54621C3.62657 4.38777 3.82322 5.61348 4.02943 6.52637C4.17208 7.15788 4.33925 8.04153 4.40738 8.40773C4.42549 8.50504 4.44788 8.60444 4.47389 8.70678C4.6593 9.43653 4.77151 10.0721 4.8561 10.6667C5.03411 11.9181 5.88819 12.9693 7.16583 13.5586C7.23421 13.5751 7.29676 13.5932 7.35224 13.6128C7.38902 13.6257 7.43824 13.6447 7.48946 13.6709C7.51244 13.6827 7.55859 13.7074 7.60982 13.746C7.6348 13.7648 7.6803 13.8012 7.72781 13.8558C7.76465 13.8982 7.86835 14.0247 7.9023 14.2241C7.94729 14.4883 7.84804 14.7475 7.65735 14.915C7.51305 15.0418 7.36213 15.0768 7.30944 15.0875C7.19309 15.1111 7.09755 15.1011 7.073 15.0985L7.07197 15.0984C7.00018 15.0909 6.93882 15.0748 6.90469 15.0651C6.82485 15.0425 6.73585 15.009 6.64179 14.9676L6.63669 14.9654C6.62659 14.9612 6.61662 14.9567 6.60678 14.9521C4.91128 14.1938 3.63601 12.7406 3.37105 10.878C3.29198 10.3222 3.1891 9.74138 3.02008 9.07617L3.74621 8.89167L3.02008 9.07617C2.98769 8.9487 2.95782 8.81713 2.9327 8.68214L2.9327 8.68213C2.86429 8.3145 2.70184 7.45695 2.56629 6.85687L3.29786 6.69162L2.56629 6.85686C2.34568 5.8802 2.14129 4.59867 2.0159 3.75335L2.75778 3.64331L2.0159 3.75335C1.85703 2.68231 2.8095 1.97192 3.70212 1.97192C4.11634 1.97192 4.45212 2.30771 4.45212 2.72192C4.45212 3.13614 4.11634 3.47192 3.70212 3.47192C3.60192 3.47192 3.53804 3.50951 3.51093 3.53589ZM10.237 19.9106C10.237 19.5799 10.5224 19.267 10.9308 19.267C11.3391 19.267 11.6245 19.5799 11.6245 19.9106C11.6245 20.2413 11.3391 20.5542 10.9308 20.5542C10.5224 20.5542 10.237 20.2413 10.237 19.9106ZM10.9308 17.767C9.74439 17.767 8.73701 18.702 8.73701 19.9106C8.73701 21.1193 9.74439 22.0542 10.9308 22.0542C11.67 22.0542 12.3397 21.6912 12.7396 21.1252H15.8594C16.2592 21.6912 16.9289 22.0542 17.6682 22.0542C18.8546 22.0542 19.8619 21.1193 19.8619 19.9106C19.8619 18.702 18.8546 17.767 17.6682 17.767C16.5771 17.767 15.6373 18.5579 15.4935 19.6252H13.1055C12.9616 18.5579 12.0219 17.767 10.9308 17.767ZM17.6682 19.267C17.2598 19.267 16.9744 19.5799 16.9744 19.9106C16.9744 20.2413 17.2598 20.5542 17.6682 20.5542C18.0765 20.5542 18.3619 20.2413 18.3619 19.9106C18.3619 19.5799 18.0765 19.267 17.6682 19.267Z" fill="#00A881"/>
<path fill-rule="evenodd" clip-rule="evenodd" d="M6.93225 10.9991V9.22541L7.0319 8.20637C7.28024 5.66686 9.57063 3.72241 12.3136 3.72241H20.8259C21.4744 3.72241 22.0001 4.21109 22.0001 4.81392V9.40489C21.9999 9.40489 21.9997 9.40489 21.9995 9.40489L16.2245 9.40489C15.8103 9.40489 15.4745 9.74068 15.4745 10.1549C15.4745 10.5691 15.8103 10.9049 16.2245 10.9049L21.9995 10.9049C21.9997 10.9049 21.9999 10.9049 22.0001 10.9049V12.0361C22.0001 14.0756 20.2216 15.7289 18.0278 15.7289H9.4961C8.56925 15.7289 7.69605 15.3867 6.93225 15.0219V10.9991Z" fill="#00A881"/>
</svg>
