<svg width="24" height="24" viewBox="0 0 24 24" fill="none" xmlns="http://www.w3.org/2000/svg">
<path fill-rule="evenodd" clip-rule="evenodd" d="M5 2C3.34315 2 2 3.34315 2 5V7C2 8.65685 3.34315 10 5 10H7C8.65685 10 10 8.65685 10 7V5C10 3.34315 8.65685 2 7 2H5ZM5 14C3.34315 14 2 15.3431 2 17V19C2 20.6569 3.34315 22 5 22H7C8.65685 22 10 20.6569 10 19V17C10 15.3431 8.65685 14 7 14H5ZM14 17C14 15.3431 15.3431 14 17 14H19C20.6569 14 22 15.3431 22 17V19C22 20.6569 20.6569 22 19 22H17C15.3431 22 14 20.6569 14 19V17ZM17 2C15.3431 2 14 3.34315 14 5V7C14 8.65685 15.3431 10 17 10H19C20.6569 10 22 8.65685 22 7V5C22 3.34315 20.6569 2 19 2H17Z" fill="#4E5964"/>
<path d="M2.75 5C2.75 3.75736 3.75736 2.75 5 2.75V1.25C2.92893 1.25 1.25 2.92893 1.25 5H2.75ZM2.75 7V5H1.25V7H2.75ZM5 9.25C3.75736 9.25 2.75 8.24264 2.75 7H1.25C1.25 9.07107 2.92893 10.75 5 10.75V9.25ZM7 9.25H5V10.75H7V9.25ZM9.25 7C9.25 8.24264 8.24264 9.25 7 9.25V10.75C9.07107 10.75 10.75 9.07107 10.75 7H9.25ZM9.25 5V7H10.75V5H9.25ZM7 2.75C8.24264 2.75 9.25 3.75736 9.25 5H10.75C10.75 2.92893 9.07107 1.25 7 1.25V2.75ZM5 2.75H7V1.25H5V2.75ZM2.75 17C2.75 15.7574 3.75736 14.75 5 14.75V13.25C2.92893 13.25 1.25 14.9289 1.25 17H2.75ZM2.75 19V17H1.25V19H2.75ZM5 21.25C3.75736 21.25 2.75 20.2426 2.75 19H1.25C1.25 21.0711 2.92893 22.75 5 22.75V21.25ZM7 21.25H5V22.75H7V21.25ZM9.25 19C9.25 20.2426 8.24264 21.25 7 21.25V22.75C9.07107 22.75 10.75 21.0711 10.75 19H9.25ZM9.25 17V19H10.75V17H9.25ZM7 14.75C8.24264 14.75 9.25 15.7574 9.25 17H10.75C10.75 14.9289 9.07107 13.25 7 13.25V14.75ZM5 14.75H7V13.25H5V14.75ZM17 13.25C14.9289 13.25 13.25 14.9289 13.25 17H14.75C14.75 15.7574 15.7574 14.75 17 14.75V13.25ZM19 13.25H17V14.75H19V13.25ZM22.75 17C22.75 14.9289 21.0711 13.25 19 13.25V14.75C20.2426 14.75 21.25 15.7574 21.25 17H22.75ZM22.75 19V17H21.25V19H22.75ZM19 22.75C21.0711 22.75 22.75 21.0711 22.75 19H21.25C21.25 20.2426 20.2426 21.25 19 21.25V22.75ZM17 22.75H19V21.25H17V22.75ZM13.25 19C13.25 21.0711 14.9289 22.75 17 22.75V21.25C15.7574 21.25 14.75 20.2426 14.75 19H13.25ZM13.25 17V19H14.75V17H13.25ZM14.75 5C14.75 3.75736 15.7574 2.75 17 2.75V1.25C14.9289 1.25 13.25 2.92893 13.25 5H14.75ZM14.75 7V5H13.25V7H14.75ZM17 9.25C15.7574 9.25 14.75 8.24264 14.75 7H13.25C13.25 9.07107 14.9289 10.75 17 10.75V9.25ZM19 9.25H17V10.75H19V9.25ZM21.25 7C21.25 8.24264 20.2426 9.25 19 9.25V10.75C21.0711 10.75 22.75 9.07107 22.75 7H21.25ZM21.25 5V7H22.75V5H21.25ZM19 2.75C20.2426 2.75 21.25 3.75736 21.25 5H22.75C22.75 2.92893 21.0711 1.25 19 1.25V2.75ZM17 2.75H19V1.25H17V2.75Z" fill="#4E5964"/>
</svg>
