<svg width="24" height="24" viewBox="0 0 24 24" fill="none" xmlns="http://www.w3.org/2000/svg">
<path fill-rule="evenodd" clip-rule="evenodd" d="M4.72271 2.28198C3.37433 2.28198 2.28125 3.37506 2.28125 4.72344V5.87236C2.28125 7.22074 3.37433 8.31382 4.72271 8.31382H5.87163C7.22001 8.31382 8.31309 7.22074 8.31309 5.87236V4.72344C8.31309 3.37506 7.22001 2.28198 5.87163 2.28198H4.72271ZM4.72271 8.96631C3.37433 8.96631 2.28125 10.0594 2.28125 11.4078V12.5567C2.28125 13.9051 3.37433 14.9981 4.72271 14.9981H5.87163C7.22001 14.9981 8.31309 13.9051 8.31309 12.5567V11.4078C8.31309 10.0594 7.22001 8.96631 5.87163 8.96631H4.72271ZM4.72271 15.4768C3.37433 15.4768 2.28125 16.5699 2.28125 17.9183V19.0672C2.28125 20.4156 3.37433 21.5086 4.72271 21.5086H5.87163C7.22001 21.5086 8.31309 20.4156 8.31309 19.0672V17.9183C8.31309 16.5699 7.22001 15.4768 5.87163 15.4768H4.72271ZM11.6172 8.96631C10.2689 8.96631 9.17578 10.0594 9.17578 11.4078V12.5567C9.17578 13.9051 10.2689 14.9981 11.6172 14.9981H12.7662C14.1145 14.9981 15.2076 13.9051 15.2076 12.5567V11.4078C15.2076 10.0594 14.1145 8.96631 12.7662 8.96631H11.6172ZM11.6172 15.4768C10.2689 15.4768 9.17578 16.5699 9.17578 17.9183V19.0672C9.17578 20.4156 10.2689 21.5086 11.6172 21.5086H12.7662C14.1145 21.5086 15.2076 20.4156 15.2076 19.0672V17.9183C15.2076 16.5699 14.1145 15.4768 12.7662 15.4768H11.6172ZM18.127 8.96631C16.7786 8.96631 15.6855 10.0594 15.6855 11.4078V12.5567C15.6855 13.9051 16.7786 14.9981 18.127 14.9981H19.2759C20.6243 14.9981 21.7174 13.9051 21.7174 12.5567V11.4078C21.7174 10.0594 20.6243 8.96631 19.2759 8.96631H18.127ZM18.127 15.4768C16.7786 15.4768 15.6855 16.5699 15.6855 17.9183V19.0672C15.6855 20.4156 16.7786 21.5086 18.127 21.5086H19.2759C20.6243 21.5086 21.7174 20.4156 21.7174 19.0672V17.9183C21.7174 16.5699 20.6243 15.4768 19.2759 15.4768H18.127ZM11.6172 2.28198C10.2689 2.28198 9.17578 3.37506 9.17578 4.72344V5.87236C9.17578 7.22074 10.2689 8.31382 11.6172 8.31382H12.7662C14.1145 8.31382 15.2076 7.22074 15.2076 5.87236V4.72344C15.2076 3.37506 14.1145 2.28198 12.7662 2.28198H11.6172ZM18.127 2.28198C16.7786 2.28198 15.6855 3.37506 15.6855 4.72344V5.87236C15.6855 7.22074 16.7786 8.31382 18.127 8.31382H19.2759C20.6243 8.31382 21.7174 7.22074 21.7174 5.87236V4.72344C21.7174 3.37506 20.6243 2.28198 19.2759 2.28198H18.127Z" fill="#4E5964"/>
</svg>
