<svg width="24" height="24" viewBox="0 0 24 24" fill="none" xmlns="http://www.w3.org/2000/svg">
<path fill-rule="evenodd" clip-rule="evenodd" d="M5 2C3.34315 2 2 3.34315 2 5V7C2 8.65685 3.34315 10 5 10H7C8.65685 10 10 8.65685 10 7V5C10 3.34315 8.65685 2 7 2H5ZM5 14C3.34315 14 2 15.3431 2 17V19C2 20.6569 3.34315 22 5 22H7C8.65685 22 10 20.6569 10 19V17C10 15.3431 8.65685 14 7 14H5ZM14 17C14 15.3431 15.3431 14 17 14H19C20.6569 14 22 15.3431 22 17V19C22 20.6569 20.6569 22 19 22H17C15.3431 22 14 20.6569 14 19V17ZM17 2C15.3431 2 14 3.34315 14 5V7C14 8.65685 15.3431 10 17 10H19C20.6569 10 22 8.65685 22 7V5C22 3.34315 20.6569 2 19 2H17Z" fill="#00ABB8"/>
</svg>
