<svg width="24" height="24" viewBox="0 0 24 24" fill="none" xmlns="http://www.w3.org/2000/svg">
<path d="M5.7 2.25024C3.79462 2.25024 2.25 3.79486 2.25 5.70024V7.50024C2.25 9.40563 3.79462 10.9502 5.7 10.9502H7.5C9.40538 10.9502 10.95 9.40562 10.95 7.50024V5.70024C10.95 3.79486 9.40538 2.25024 7.5 2.25024H5.7Z" fill="#4E5964"/>
<path d="M5.7 13.05C3.79462 13.05 2.25 14.5947 2.25 16.5V18.3C2.25 20.2054 3.79462 21.75 5.7 21.75H7.5C9.40538 21.75 10.95 20.2054 10.95 18.3V16.5C10.95 14.5947 9.40538 13.05 7.5 13.05H5.7Z" fill="#4E5964"/>
<path d="M16.4998 13.05C14.5944 13.05 13.0498 14.5947 13.0498 16.5V18.3C13.0498 20.2054 14.5944 21.75 16.4998 21.75H18.2998C20.2052 21.75 21.7498 20.2054 21.7498 18.3V16.5C21.7498 14.5947 20.2052 13.05 18.2998 13.05H16.4998Z" fill="#4E5964"/>
<path d="M16.4998 2.25024C14.5944 2.25024 13.0498 3.79486 13.0498 5.70024V7.50024C13.0498 9.40563 14.5944 10.9502 16.4998 10.9502H18.2998C20.2052 10.9502 21.7498 9.40562 21.7498 7.50024V5.70024C21.7498 3.79486 20.2052 2.25024 18.2998 2.25024H16.4998Z" fill="#4E5964"/>
</svg>
