<svg width="24" height="24" viewBox="0 0 24 24" fill="none" xmlns="http://www.w3.org/2000/svg">
<path d="M5.87207 15.4773C7.22025 15.4775 8.31348 16.5705 8.31348 17.9187V19.0671C8.31348 20.4154 7.22025 21.5083 5.87207 21.5085H4.72266C3.3743 21.5085 2.28125 20.4155 2.28125 19.0671V17.9187C2.28125 16.5703 3.3743 15.4773 4.72266 15.4773H5.87207Z" fill="#4E5964"/>
<path d="M12.7666 15.4773C14.1148 15.4775 15.208 16.5705 15.208 17.9187V19.0671C15.208 20.4154 14.1148 21.5083 12.7666 21.5085H11.6172C10.2688 21.5085 9.17578 20.4155 9.17578 19.0671V17.9187C9.17578 16.5703 10.2688 15.4773 11.6172 15.4773H12.7666Z" fill="#4E5964"/>
<path d="M19.2764 15.4773C20.6245 15.4775 21.7178 16.5705 21.7178 17.9187V19.0671C21.7178 20.4154 20.6245 21.5083 19.2764 21.5085H18.127C16.7786 21.5085 15.6855 20.4155 15.6855 19.0671V17.9187C15.6855 16.5703 16.7786 15.4773 18.127 15.4773H19.2764Z" fill="#4E5964"/>
<path d="M5.87207 8.96655C7.22025 8.96679 8.31348 10.0597 8.31348 11.408V12.5564C8.31348 13.9046 7.22025 14.9976 5.87207 14.9978H4.72266C3.3743 14.9978 2.28125 13.9048 2.28125 12.5564V11.408C2.28125 10.0596 3.3743 8.96658 4.72266 8.96655H5.87207Z" fill="#4E5964"/>
<path d="M12.7666 8.96655C14.1148 8.96679 15.208 10.0597 15.208 11.408V12.5564C15.208 13.9046 14.1148 14.9976 12.7666 14.9978H11.6172C10.2688 14.9978 9.17578 13.9048 9.17578 12.5564V11.408C9.17578 10.0596 10.2688 8.96658 11.6172 8.96655H12.7666Z" fill="#4E5964"/>
<path d="M19.2764 8.96655C20.6245 8.96679 21.7178 10.0597 21.7178 11.408V12.5564C21.7178 13.9046 20.6245 14.9976 19.2764 14.9978H18.127C16.7786 14.9978 15.6855 13.9048 15.6855 12.5564V11.408C15.6855 10.0596 16.7786 8.96658 18.127 8.96655H19.2764Z" fill="#4E5964"/>
<path d="M5.87207 2.28198C7.22023 2.28222 8.31345 3.37518 8.31348 4.72339V5.8728C8.31324 7.22084 7.2201 8.31397 5.87207 8.31421H4.72266C3.37445 8.31418 2.28149 7.22096 2.28125 5.8728V4.72339C2.28128 3.37505 3.37432 2.28201 4.72266 2.28198H5.87207Z" fill="#4E5964"/>
<path d="M12.7666 2.28198C14.1148 2.28222 15.208 3.37518 15.208 4.72339V5.8728C15.2078 7.22084 14.1146 8.31397 12.7666 8.31421H11.6172C10.269 8.31418 9.17602 7.22096 9.17578 5.8728V4.72339C9.17581 3.37505 10.2688 2.28201 11.6172 2.28198H12.7666Z" fill="#4E5964"/>
<path d="M19.2764 2.28198C20.6245 2.28222 21.7177 3.37518 21.7178 4.72339V5.8728C21.7175 7.22084 20.6244 8.31397 19.2764 8.31421H18.127C16.7787 8.31418 15.6858 7.22096 15.6855 5.8728V4.72339C15.6856 3.37505 16.7786 2.28201 18.127 2.28198H19.2764Z" fill="#4E5964"/>
</svg>
