<svg width="24" height="24" viewBox="0 0 24 24" fill="none" xmlns="http://www.w3.org/2000/svg">
<path fill-rule="evenodd" clip-rule="evenodd" d="M2.25 7.5C2.25 4.60051 4.60051 2.25 7.5 2.25H13.7315C14.64 2.25 15.1573 3.06732 15.1703 3.74701C15.2015 5.36501 16.6805 7.9966 20.5067 8.39812C21.1778 8.46855 21.75 9.02665 21.75 9.75935V16.5C21.75 19.3995 19.3995 21.75 16.5 21.75H7.5C4.60051 21.75 2.25 19.3995 2.25 16.5V7.5ZM9.58333 8.5C9.58333 7.25736 10.5907 6.25 11.8333 6.25H12.1667C13.4093 6.25 14.4167 7.25736 14.4167 8.5V11.8056H15.5C16.7426 11.8056 17.75 12.8129 17.75 14.0556V15.5C17.75 16.7426 16.7426 17.75 15.5 17.75H7.55556C6.83452 17.75 6.25 17.1655 6.25 16.4444V11.5C6.25 10.2574 7.25736 9.25 8.5 9.25H9.58333V8.5ZM9.58333 10.75H8.5C8.08579 10.75 7.75 11.0858 7.75 11.5V16.25H9.58333V10.75ZM11.0833 16.25H12.9167V8.5C12.9167 8.08579 12.5809 7.75 12.1667 7.75H11.8333C11.4191 7.75 11.0833 8.08579 11.0833 8.5V16.25ZM14.4167 16.25H15.5C15.9142 16.25 16.25 15.9142 16.25 15.5V14.0556C16.25 13.6413 15.9142 13.3056 15.5 13.3056H14.4167V16.25ZM17.1235 3.66755C16.94 3.29649 16.4905 3.14421 16.1192 3.32745C15.7478 3.51078 15.5953 3.9605 15.7786 4.33194L16.4512 4C15.7786 4.33194 15.7786 4.33194 15.7786 4.33194L15.7791 4.33296L15.7799 4.33451L15.7822 4.33914L15.7899 4.35437C15.7963 4.36711 15.8054 4.38495 15.817 4.40736C15.8402 4.45214 15.8737 4.51536 15.9162 4.59274C16.001 4.74706 16.1233 4.95996 16.2747 5.19653C16.5673 5.65388 17.0074 6.26241 17.5307 6.68401C18.1051 7.14686 18.8378 7.40492 19.3715 7.54797C19.6478 7.62202 19.8921 7.6707 20.0683 7.70106C20.1567 7.71629 20.2288 7.72706 20.2802 7.73417C20.306 7.73773 20.3266 7.74038 20.3415 7.74223L20.3596 7.74441L20.3654 7.74508L20.3674 7.74531L20.3685 7.74543C20.7802 7.7909 21.1512 7.49403 21.1966 7.08232C21.2421 6.67099 20.9457 6.30067 20.5346 6.25466L20.5335 6.25453L20.5257 6.25358C20.5176 6.25258 20.5041 6.25085 20.4858 6.24832C20.4492 6.24326 20.3936 6.235 20.323 6.22284C20.1813 6.19842 19.9829 6.15887 19.7598 6.0991C19.2949 5.9745 18.8026 5.78256 18.4718 5.51599C18.1423 5.25053 17.8075 4.80906 17.5382 4.38818C17.4086 4.18563 17.3033 4.00236 17.2307 3.87028C17.1946 3.80445 17.1668 3.75192 17.1486 3.71675L17.1286 3.6777L17.1242 3.669L17.1235 3.66755L16.4512 4C17.1237 3.66806 17.1235 3.66755 17.1235 3.66755Z" fill="#4E5964"/>
</svg>
