<svg width="24" height="24" viewBox="0 0 24 24" fill="none" xmlns="http://www.w3.org/2000/svg">
<path fill-rule="evenodd" clip-rule="evenodd" d="M17.9457 2.47269L17.9458 2.47283L17.9464 2.47406L17.9507 2.48337L17.9706 2.52509C17.9886 2.56264 18.0161 2.61872 18.052 2.68896C18.1239 2.82992 18.2282 3.02548 18.3565 3.24159C18.6233 3.69076 18.9548 4.16153 19.2808 4.44445C19.608 4.72846 20.0953 4.93321 20.5561 5.06624C20.777 5.13003 20.9737 5.17225 21.1142 5.19833C21.1841 5.21131 21.2393 5.22014 21.2756 5.22555C21.2938 5.22826 21.3072 5.2301 21.3153 5.23118L21.3231 5.23221L21.3234 5.23224C21.7214 5.27974 22.0146 5.66302 21.9783 6.08845C21.942 6.51398 21.5898 6.82054 21.1917 6.77318L21.2574 6.00269C21.1917 6.77318 21.1915 6.77316 21.1914 6.77314L21.191 6.7731L21.1903 6.77301L21.1883 6.77276L21.1826 6.77206L21.1647 6.76974C21.15 6.76777 21.1296 6.76495 21.1042 6.76116C21.0534 6.75359 20.9821 6.74213 20.8947 6.7259C20.7204 6.69355 20.4788 6.64168 20.2054 6.56275C19.6775 6.41034 18.9519 6.13518 18.3829 5.64127C17.8647 5.19147 17.4289 4.54244 17.1394 4.05498C16.9896 3.80278 16.8686 3.57583 16.7847 3.41135C16.7426 3.32888 16.7095 3.2615 16.6866 3.21379C16.6751 3.18991 16.6661 3.17091 16.6597 3.15735L16.6521 3.14114L16.6499 3.13622L16.6491 3.13458L16.6488 3.13396L16.6487 3.13371C16.6487 3.1336 16.6486 3.13349 17.2972 2.80326L16.6486 3.13349C16.4711 2.74612 16.6177 2.28425 16.9759 2.10187C17.334 1.91957 17.768 2.08551 17.9456 2.4725L17.9457 2.47269ZM7.5 21.9999H16.3008C19.3383 21.9999 21.8008 19.5374 21.8008 16.4999V11.3351C21.8008 10.2272 20.787 9.38238 19.679 9.39032C18.304 9.40017 16.6307 9.17267 15.8605 8.13565C15.1326 7.1555 14.9177 5.49503 14.8646 4.28695C14.8293 3.48468 14.1885 2.80326 13.3854 2.80326H12.3954H7.5C4.46243 2.80326 2 5.26569 2 8.30326V16.4999C2 19.5374 4.46243 21.9999 7.5 21.9999ZM9.50032 8.56924C9.50032 7.32659 10.5077 6.31924 11.7503 6.31924H12.0505C13.2931 6.31924 14.3005 7.3266 14.3005 8.56924V12.2441H15.3506C16.5932 12.2441 17.6006 13.2515 17.6006 14.4941V16.234C17.6006 17.4767 16.5932 18.484 15.3506 18.484H15.2005H13.5505H10.2503H7.50022C6.78223 18.484 6.2002 17.902 6.2002 17.184V11.7687C6.2002 10.526 7.20756 9.51867 8.4502 9.51867H9.50032V8.56924ZM9.50032 11.0187H8.4502C8.03598 11.0187 7.7002 11.3545 7.7002 11.7687V16.984H9.50032V11.0187ZM11.0003 16.984H12.8005V12.9941V8.56924C12.8005 8.15502 12.4647 7.81924 12.0505 7.81924H11.7503C11.3361 7.81924 11.0003 8.15502 11.0003 8.56924V10.2687V16.984ZM14.3005 16.984H15.2005H15.3506C15.7648 16.984 16.1006 16.6482 16.1006 16.234V14.4941C16.1006 14.0799 15.7648 13.7441 15.3506 13.7441H14.3005V16.984Z" fill="#00A881"/>
</svg>
