<svg width="24" height="24" viewBox="0 0 24 24" fill="none" xmlns="http://www.w3.org/2000/svg">
<path d="M3.75806 2.99658C4.17227 2.99658 4.50806 3.33237 4.50806 3.74658V19.5016H20.2513C20.6655 19.5016 21.0013 19.8374 21.0013 20.2516C21.0013 20.6658 20.6655 21.0016 20.2513 21.0016H3.75806C3.34384 21.0016 3.00806 20.6658 3.00806 20.2516V3.74658C3.00806 3.33237 3.34384 2.99658 3.75806 2.99658Z" fill="#4E5964"/>
<path d="M13.2397 7.14478C13.2397 6.73057 12.904 6.39478 12.4897 6.39478C12.0755 6.39478 11.7397 6.73057 11.7397 7.14478L11.7397 16.8536C11.7397 17.2678 12.0755 17.6036 12.4897 17.6036C12.904 17.6036 13.2397 17.2678 13.2397 16.8536L13.2397 7.14478Z" fill="#4E5964"/>
<path d="M17.3632 13.9409C17.3632 13.5267 17.0274 13.1909 16.6132 13.1909C16.1989 13.1909 15.8632 13.5267 15.8632 13.9409V16.8536C15.8632 17.2678 16.1989 17.6036 16.6132 17.6036C17.0274 17.6036 17.3632 17.2678 17.3632 16.8536V13.9409Z" fill="#4E5964"/>
<path d="M8.36646 9.30749C8.78067 9.30749 9.11646 9.64327 9.11646 10.0575L9.11646 16.8536C9.11646 17.2678 8.78067 17.6036 8.36646 17.6036C7.95224 17.6036 7.61646 17.2678 7.61646 16.8536L7.61646 10.0575C7.61646 9.64327 7.95224 9.30749 8.36646 9.30749Z" fill="#4E5964"/>
</svg>
