<svg width="24" height="24" viewBox="0 0 24 24" fill="none" xmlns="http://www.w3.org/2000/svg">
<path d="M3.75 3C3.75 2.58579 3.41421 2.25 3 2.25C2.58579 2.25 2.25 2.58579 2.25 3V17C2.25 19.0711 3.92893 20.75 6 20.75H21C21.4142 20.75 21.75 20.4142 21.75 20C21.75 19.5858 21.4142 19.25 21 19.25H6C4.75736 19.25 3.75 18.2426 3.75 17V3Z" fill="#4E5964"/>
<path d="M13.2793 6.5C13.2793 6.08579 12.9435 5.75 12.5293 5.75C12.1151 5.75 11.7793 6.08579 11.7793 6.5L11.7793 16.5C11.7793 16.9142 12.1151 17.25 12.5293 17.25C12.9435 17.25 13.2793 16.9142 13.2793 16.5L13.2793 6.5Z" fill="#4E5964"/>
<path d="M8.7793 9.5C8.7793 9.08579 8.44351 8.75 8.0293 8.75C7.61508 8.75 7.2793 9.08579 7.2793 9.5L7.2793 16.5C7.2793 16.9142 7.61508 17.25 8.0293 17.25C8.44351 17.25 8.7793 16.9142 8.7793 16.5L8.7793 9.5Z" fill="#4E5964"/>
<path d="M17.7793 13.5C17.7793 13.0858 17.4435 12.75 17.0293 12.75C16.6151 12.75 16.2793 13.0858 16.2793 13.5V16.5C16.2793 16.9142 16.6151 17.25 17.0293 17.25C17.4435 17.25 17.7793 16.9142 17.7793 16.5V13.5Z" fill="#4E5964"/>
</svg>
