<svg width="24" height="24" viewBox="0 0 24 24" fill="none" xmlns="http://www.w3.org/2000/svg">
<path fill-rule="evenodd" clip-rule="evenodd" d="M18.1235 2.66748C17.94 2.29641 17.4905 2.14414 17.1192 2.32738C16.7478 2.5107 16.5953 2.96042 16.7786 3.33186L17.4512 2.99992C16.7786 3.33186 16.7787 3.33196 16.7787 3.33207L16.7788 3.33231L16.7791 3.33289L16.7799 3.33444L16.7822 3.33907L16.7899 3.3543C16.7963 3.36703 16.8054 3.38487 16.817 3.40728C16.8402 3.45207 16.8737 3.51529 16.9162 3.59266C17.001 3.74698 17.1233 3.95989 17.2747 4.19646C17.5673 4.6538 18.0074 5.26234 18.5307 5.68393C19.1051 6.14678 19.8378 6.40485 20.3715 6.54789C20.6478 6.62194 20.8921 6.67062 21.0683 6.70098C21.1567 6.71622 21.2288 6.72698 21.2802 6.73409C21.306 6.73765 21.3266 6.7403 21.3415 6.74215L21.3596 6.74434L21.3654 6.745L21.3674 6.74523L21.3682 6.74532L21.3685 6.74536C21.3687 6.74537 21.3688 6.74539 21.4512 5.99992L21.3688 6.74539C21.7806 6.79086 22.1512 6.49396 22.1966 6.08225C22.2421 5.67093 21.9458 5.30062 21.5347 5.25459C21.5344 5.25456 21.5342 5.25454 21.534 5.25451C21.5339 5.2545 21.5338 5.25449 21.5338 5.25449L21.5335 5.25446L21.5257 5.25351C21.5176 5.2525 21.5041 5.25078 21.4858 5.24825C21.4492 5.24318 21.3936 5.23492 21.323 5.22276C21.1813 5.19834 20.9829 5.15879 20.7598 5.09902C20.2949 4.97442 19.8026 4.78248 19.4718 4.51591C19.1423 4.25046 18.8075 3.80899 18.5382 3.3881C18.4086 3.18555 18.3033 3.00228 18.2307 2.8702C18.1946 2.80438 18.1668 2.75184 18.1486 2.71667L18.1286 2.67762L18.1242 2.66893L18.1237 2.66799L17.4512 2.99992C18.1237 2.66799 18.1237 2.6679 18.1236 2.66781L18.1236 2.66767L18.1235 2.66748ZM7.5 20.9999H16.5C19.5376 20.9999 22 18.5375 22 15.4999V10.9999C22 9.95608 21.0531 9.15541 20.0094 9.17448C18.5941 9.20033 16.8066 9.00819 16 7.99992C15.2878 7.10963 15.0618 5.6207 14.9996 4.49866C14.9547 3.69015 14.3097 2.99992 13.5 2.99992H12.5H7.5C4.46243 2.99992 2 5.46236 2 8.49992V15.4999C2 18.5375 4.46243 20.9999 7.5 20.9999ZM9.58333 8.49992C9.58333 7.25728 10.5907 6.24992 11.8333 6.24992H12.1667C13.4093 6.24992 14.4167 7.25728 14.4167 8.49992V11.8055H15.5C16.7426 11.8055 17.75 12.8128 17.75 14.0555V15.4999C17.75 16.7426 16.7426 17.7499 15.5 17.7499H15.3333H13.6667H10.3333H7.55556C6.83452 17.7499 6.25 17.1654 6.25 16.4444V11.4999C6.25 10.2573 7.25736 9.24992 8.5 9.24992H9.58333V8.49992ZM9.58333 10.7499H8.5C8.08579 10.7499 7.75 11.0857 7.75 11.4999V16.2499H9.58333V10.7499ZM11.0833 16.2499H12.9167V12.5555V8.49992C12.9167 8.08571 12.5809 7.74992 12.1667 7.74992H11.8333C11.4191 7.74992 11.0833 8.08571 11.0833 8.49992V9.99992V16.2499ZM14.4167 16.2499H15.3333H15.5C15.9142 16.2499 16.25 15.9141 16.25 15.4999V14.0555C16.25 13.6413 15.9142 13.3055 15.5 13.3055H14.4167V16.2499Z" fill="#00A881"/>
</svg>
