<svg width="24" height="24" viewBox="0 0 24 24" fill="none" xmlns="http://www.w3.org/2000/svg">
<path d="M16.5 21.75C19.3995 21.75 21.75 19.3995 21.75 16.5V7.5C21.75 4.60051 19.3995 2.25 16.5 2.25H7.5C4.60051 2.25 2.25 4.60051 2.25 7.5V16.5C2.25 19.3995 4.60051 21.75 7.5 21.75H16.5ZM14.417 11.8057H15.5C16.7426 11.8057 17.75 12.813 17.75 14.0557V15.5C17.75 16.7426 16.7426 17.75 15.5 17.75H7.55566C6.83463 17.75 6.25 17.1654 6.25 16.4443V11.5C6.25 10.2574 7.25736 9.25 8.5 9.25H9.58301V8.5C9.58301 7.25747 10.5905 6.25018 11.833 6.25H12.167C13.4095 6.25018 14.417 7.25747 14.417 8.5V11.8057Z" fill="#4E5964"/>
<path fill-rule="evenodd" clip-rule="evenodd" d="M12.167 7.75C12.5811 7.75018 12.917 8.0859 12.917 8.5V16.25H11.083V8.5C11.083 8.08589 11.4189 7.75018 11.833 7.75H12.167Z" fill="#4E5964"/>
<path fill-rule="evenodd" clip-rule="evenodd" d="M9.58301 16.25H7.75V11.5C7.75 11.0858 8.08579 10.75 8.5 10.75H9.58301V16.25Z" fill="#4E5964"/>
<path fill-rule="evenodd" clip-rule="evenodd" d="M15.5 13.3057C15.9142 13.3057 16.25 13.6415 16.25 14.0557V15.5C16.25 15.9142 15.9142 16.25 15.5 16.25H14.417V13.3057H15.5Z" fill="#4E5964"/>
</svg>
