<svg width="24" height="24" viewBox="0 0 24 24" fill="none" xmlns="http://www.w3.org/2000/svg">
<path fill-rule="evenodd" clip-rule="evenodd" d="M7.5 2.25C4.60051 2.25 2.25 4.60051 2.25 7.5V16.5C2.25 19.3995 4.60051 21.75 7.5 21.75H16.5C19.3995 21.75 21.75 19.3995 21.75 16.5V7.5C21.75 4.60051 19.3995 2.25 16.5 2.25H7.5ZM7.25 14C7.25 13.5858 7.58579 13.25 8 13.25C8.41421 13.25 8.75 13.5858 8.75 14V17C8.75 17.4142 8.41421 17.75 8 17.75C7.58579 17.75 7.25 17.4142 7.25 17V14ZM12 6.25C11.5858 6.25 11.25 6.58579 11.25 7V17C11.25 17.4142 11.5858 17.75 12 17.75C12.4142 17.75 12.75 17.4142 12.75 17V7C12.75 6.58579 12.4142 6.25 12 6.25ZM15.25 10C15.25 9.58579 15.5858 9.25 16 9.25C16.4142 9.25 16.75 9.58579 16.75 10V17C16.75 17.4142 16.4142 17.75 16 17.75C15.5858 17.75 15.25 17.4142 15.25 17V10Z" fill="#4E5964"/>
</svg>
