<svg width="24" height="24" viewBox="0 0 24 24" fill="none" xmlns="http://www.w3.org/2000/svg">
<path fill-rule="evenodd" clip-rule="evenodd" d="M16.5 21H7.5C4.46243 21 2 18.5376 2 15.5V8.5C2 5.46243 4.46243 3 7.5 3H12.5H13.5C14.3097 3 14.9547 3.69023 14.9996 4.49873C15.0618 5.62078 15.2878 7.1097 16 8C16.8066 9.00827 18.5941 9.20041 20.0094 9.17455C21.0531 9.15549 22 9.95615 22 11V15.5C22 18.5376 19.5376 21 16.5 21ZM11.8333 6.25C10.5907 6.25 9.58333 7.25736 9.58333 8.5V9.25H8.5C7.25736 9.25 6.25 10.2574 6.25 11.5V16.4444C6.25 17.1655 6.83452 17.75 7.55556 17.75H10.3333H13.6667H15.3333H15.5C16.7426 17.75 17.75 16.7426 17.75 15.5V14.0556C17.75 12.8129 16.7426 11.8056 15.5 11.8056H14.4167V8.5C14.4167 7.25736 13.4093 6.25 12.1667 6.25H11.8333ZM8.5 10.75H9.58333V16.25H7.75V11.5C7.75 11.0858 8.08579 10.75 8.5 10.75ZM12.9167 16.25H11.0833V10V8.5C11.0833 8.08579 11.4191 7.75 11.8333 7.75H12.1667C12.5809 7.75 12.9167 8.08579 12.9167 8.5V12.5556V16.25ZM15.3333 16.25H14.4167V13.3056H15.5C15.9142 13.3056 16.25 13.6413 16.25 14.0556V15.5C16.25 15.9142 15.9142 16.25 15.5 16.25H15.3333Z" fill="#4E5964"/>
<path d="M17.4512 3C17.4512 3 18.1485 4.41295 19.0012 5.1C19.9065 5.82942 21.4512 6 21.4512 6" stroke="#4E5964" stroke-width="1.5" stroke-linecap="round"/>
</svg>
