<svg width="24" height="24" viewBox="0 0 24 24" fill="none" xmlns="http://www.w3.org/2000/svg">
<path d="M17.9606 2.44544L17.9613 2.44682L17.9656 2.45614L17.9855 2.49792C18.0036 2.53552 18.0311 2.59168 18.067 2.66202C18.139 2.80318 18.2434 2.99901 18.3718 3.21543C18.6388 3.66522 18.9707 4.13665 19.297 4.41997C19.6245 4.70437 20.1122 4.90941 20.5734 5.04263C20.7946 5.10651 20.9914 5.14879 21.1321 5.17491C21.2021 5.18791 21.2573 5.19674 21.2937 5.20217C21.3118 5.20488 21.3252 5.20672 21.3333 5.2078L21.3412 5.20883C21.7395 5.2564 22.0333 5.64025 21.997 6.06627C21.9606 6.4924 21.6081 6.79939 21.2096 6.75196L21.2754 5.9804C21.2096 6.75196 21.2098 6.75198 21.2096 6.75196L21.2082 6.75179L21.2062 6.75155L21.2005 6.75084L21.1827 6.74852C21.1679 6.74655 21.1475 6.74372 21.1221 6.73993C21.0712 6.73235 20.9999 6.72087 20.9124 6.70461C20.7379 6.67223 20.496 6.62027 20.2224 6.54124C19.694 6.38862 18.9678 6.11307 18.3982 5.61847C17.8795 5.16803 17.4433 4.51809 17.1536 4.02996C17.0036 3.7774 16.8825 3.55013 16.7985 3.38542C16.7564 3.30283 16.7233 3.23537 16.7003 3.18758C16.6888 3.16367 16.6798 3.14465 16.6734 3.13107L16.6658 3.11484L16.6636 3.10991L16.6628 3.10826C16.6628 3.10815 16.6623 3.10717 17.3115 2.77648L16.6623 3.10717C16.4847 2.71926 16.6313 2.25674 16.9899 2.0741C17.3483 1.89155 17.7828 2.05791 17.9606 2.44544Z" fill="#00A881"/>
<path d="M9.50734 11.0034H8.45623C8.04163 11.0034 7.70552 11.3397 7.70552 11.7545V16.9771H9.50734V11.0034Z" fill="#00A881"/>
<path d="M11.0087 16.9771H12.8105V8.55054C12.8105 8.13574 12.4744 7.79949 12.0598 7.79949H11.7594C11.3448 7.79949 11.0087 8.13574 11.0087 8.55054V16.9771Z" fill="#00A881"/>
<path d="M14.312 16.9771H15.3631C15.7777 16.9771 16.1138 16.6409 16.1138 16.2261V14.4837C16.1138 14.0689 15.7777 13.7327 15.3631 13.7327H14.312V16.9771Z" fill="#00A881"/>
<path fill-rule="evenodd" clip-rule="evenodd" d="M7.50514 22H16.3141C19.3545 22 21.8193 19.5341 21.8193 16.4923V11.3203C21.8193 10.2108 20.8045 9.36482 19.6956 9.37277C18.3193 9.38264 16.6444 9.15482 15.8735 8.11634C15.1449 7.13482 14.9298 5.47203 14.8766 4.26225C14.8413 3.45885 14.1999 2.77648 13.3961 2.77648H7.50514C4.46474 2.77648 2 5.24236 2 8.28419V16.4923C2 19.5341 4.46473 22 7.50514 22ZM9.50734 8.55054C9.50734 7.30615 10.5156 6.29738 11.7594 6.29738H12.0598C13.3037 6.29738 14.312 7.30615 14.312 8.55054V12.2306H15.3631C16.6069 12.2306 17.6152 13.2393 17.6152 14.4837V16.2261C17.6152 17.4704 16.6069 18.4792 15.3631 18.4792H7.50536C6.78671 18.4792 6.20412 17.8964 6.20412 17.1774V11.7545C6.20412 10.5101 7.21243 9.5013 8.45623 9.5013H9.50734V8.55054Z" fill="#00A881"/>
</svg>
