<svg width="24" height="24" viewBox="0 0 24 24" fill="none" xmlns="http://www.w3.org/2000/svg">
<path fill-rule="evenodd" clip-rule="evenodd" d="M4 2.25C4.41421 2.25 4.75 2.58579 4.75 3V16.8125V19.25H17.8125H21C21.4142 19.25 21.75 19.5858 21.75 20C21.75 20.4142 21.4142 20.75 21 20.75H17.8125H4C3.58579 20.75 3.25 20.4142 3.25 20V16.8125V3C3.25 2.58579 3.58579 2.25 4 2.25ZM13.75 6.5C13.75 6.08579 13.4142 5.75 13 5.75C12.5858 5.75 12.25 6.08579 12.25 6.5L12.25 16.5C12.25 16.9142 12.5858 17.25 13 17.25C13.4142 17.25 13.75 16.9142 13.75 16.5L13.75 6.5ZM18 13.5C18 13.0858 17.6642 12.75 17.25 12.75C16.8358 12.75 16.5 13.0858 16.5 13.5V16.5C16.5 16.9142 16.8358 17.25 17.25 17.25C17.6642 17.25 18 16.9142 18 16.5V13.5ZM8.75 8.75C9.16421 8.75 9.5 9.08579 9.5 9.5L9.5 16.5C9.5 16.9142 9.16421 17.25 8.75 17.25C8.33579 17.25 8 16.9142 8 16.5L8 9.5C8 9.08579 8.33579 8.75 8.75 8.75Z" fill="#00A881"/>
</svg>
