<svg width="24" height="25" viewBox="0 0 24 25" fill="none" xmlns="http://www.w3.org/2000/svg">
<path fill-rule="evenodd" clip-rule="evenodd" d="M12 2.52637C6.61522 2.52637 2.25 6.89159 2.25 12.2764C2.25 17.6611 6.61522 22.0264 12 22.0264C17.3848 22.0264 21.75 17.6611 21.75 12.2764C21.75 6.89159 17.3848 2.52637 12 2.52637ZM16.0573 10.2782C16.3345 9.97043 16.3097 9.4962 16.0019 9.21903C15.6941 8.94185 15.2198 8.96669 14.9427 9.2745L10.9694 13.6869L9.03058 11.7463C8.73782 11.4533 8.26295 11.453 7.96992 11.7458C7.67689 12.0385 7.67666 12.5134 7.96942 12.8064L10.4671 15.3064C10.6125 15.452 10.8114 15.5315 11.0171 15.5261C11.2228 15.5208 11.4173 15.4312 11.555 15.2782L16.0573 10.2782Z" fill="#4E5964"/>
</svg>
