<svg width="24" height="24" viewBox="0 0 24 24" fill="none" xmlns="http://www.w3.org/2000/svg">
<path fill-rule="evenodd" clip-rule="evenodd" d="M12 2.25073C6.61522 2.25073 2.25 6.61596 2.25 12.0007C2.25 17.3855 6.61522 21.7507 12 21.7507C17.3848 21.7507 21.75 17.3855 21.75 12.0007C21.75 6.61596 17.3848 2.25073 12 2.25073ZM16.0573 10.0026C16.3345 9.69479 16.3097 9.22057 16.0019 8.94339C15.6941 8.66622 15.2198 8.69105 14.9427 8.99886L10.9694 13.4113L9.03058 11.4707C8.73782 11.1776 8.26295 11.1774 7.96992 11.4702C7.67689 11.7629 7.67666 12.2378 7.96942 12.5308L10.4671 15.0308C10.6125 15.1764 10.8114 15.2558 11.0171 15.2505C11.2228 15.2451 11.4173 15.1555 11.555 15.0026L16.0573 10.0026Z" fill="#4E5964"/>
</svg>
