<svg width="24" height="24" viewBox="0 0 24 24" fill="none" xmlns="http://www.w3.org/2000/svg">
<path fill-rule="evenodd" clip-rule="evenodd" d="M22 12C22 17.5228 17.5228 22 12 22C6.47715 22 2 17.5228 2 12C2 6.47715 6.47715 2 12 2C17.5228 2 22 6.47715 22 12ZM16.0573 10.0019C16.3345 9.69406 16.3097 9.21983 16.0019 8.94266C15.6941 8.66549 15.2198 8.69032 14.9427 8.99813L10.9694 13.4106L9.03058 11.4699C8.73782 11.1769 8.26295 11.1767 7.96992 11.4694C7.67689 11.7622 7.67666 12.237 7.96942 12.5301L10.4671 15.0301C10.6125 15.1757 10.8114 15.2551 11.0171 15.2497C11.2228 15.2444 11.4173 15.1548 11.555 15.0019L16.0573 10.0019Z" fill="#4E5964"/>
</svg>
