<svg width="24" height="24" viewBox="0 0 24 24" fill="none" xmlns="http://www.w3.org/2000/svg">
<path d="M15.4697 11.4697C15.7626 11.1768 16.2374 11.1768 16.5303 11.4697C16.8232 11.7626 16.8232 12.2374 16.5303 12.5303L13.2373 15.8232C12.5539 16.5066 11.4461 16.5066 10.7627 15.8232L7.46973 12.5303C7.17683 12.2374 7.17683 11.7626 7.46973 11.4697C7.76262 11.1768 8.23738 11.1768 8.53027 11.4697L11.8232 14.7627C11.9209 14.8602 12.0791 14.8602 12.1768 14.7627L15.4697 11.4697ZM15.4697 7.46973C15.7626 7.17683 16.2374 7.17683 16.5303 7.46973C16.8232 7.76262 16.8232 8.23738 16.5303 8.53027L13.2373 11.8232C12.5539 12.5066 11.4461 12.5066 10.7627 11.8232L7.46973 8.53027C7.17683 8.23738 7.17683 7.76262 7.46973 7.46973C7.76262 7.17683 8.23738 7.17683 8.53027 7.46973L11.8232 10.7627C11.9209 10.8602 12.0791 10.8602 12.1768 10.7627L15.4697 7.46973Z" fill="#4E5964"/>
</svg>
