<svg width="24" height="24" viewBox="0 0 24 24" fill="none" xmlns="http://www.w3.org/2000/svg">
<path d="M10.7626 12.1771C11.446 11.4937 12.5538 11.4937 13.2372 12.1771L16.5302 15.4701C16.8229 15.763 16.823 16.2378 16.5302 16.5306C16.2373 16.8234 15.7625 16.8233 15.4696 16.5306L12.1767 13.2377C12.079 13.14 11.9208 13.14 11.8231 13.2377L8.53017 16.5306C8.23733 16.8234 7.7625 16.8233 7.46962 16.5306C7.17676 16.2378 7.17682 15.763 7.46962 15.4701L10.7626 12.1771Z" fill="#4E5964"/>
<path d="M10.7626 8.17711C11.446 7.4937 12.5538 7.4937 13.2372 8.17711L16.5302 11.4701C16.8229 11.763 16.823 12.2378 16.5302 12.5306C16.2373 12.8234 15.7625 12.8233 15.4696 12.5306L12.1767 9.23766C12.079 9.14003 11.9208 9.14003 11.8231 9.23766L8.53017 12.5306C8.23733 12.8234 7.7625 12.8233 7.46962 12.5306C7.17676 12.2378 7.17682 11.763 7.46962 11.4701L10.7626 8.17711Z" fill="#4E5964"/>
</svg>
