<svg width="24" height="24" viewBox="0 0 24 24" fill="none" xmlns="http://www.w3.org/2000/svg">
<path d="M15.4697 11.4643C15.7626 11.1714 16.2373 11.1714 16.5302 11.4643C16.8231 11.7572 16.8231 12.232 16.5302 12.5248L13.2372 15.8178C12.5538 16.5011 11.446 16.5011 10.7626 15.8178L7.46967 12.5248C7.17678 12.232 7.17678 11.7572 7.46967 11.4643C7.76256 11.1714 8.23732 11.1714 8.53022 11.4643L11.8232 14.7573C11.9208 14.8548 12.0791 14.8548 12.1767 14.7573L15.4697 11.4643ZM15.4697 7.4643C15.7626 7.17141 16.2373 7.17141 16.5302 7.4643C16.8231 7.75719 16.8231 8.23195 16.5302 8.52485L13.2372 11.8178C12.5539 12.5011 11.446 12.5011 10.7626 11.8178L7.46967 8.52485C7.17678 8.23195 7.17678 7.75719 7.46967 7.4643C7.76256 7.17141 8.23732 7.17141 8.53022 7.4643L11.8232 10.7573C11.9208 10.8548 12.0791 10.8548 12.1767 10.7573L15.4697 7.4643Z" fill="#4E5964"/>
</svg>
