<svg width="24" height="24" viewBox="0 0 24 24" fill="none" xmlns="http://www.w3.org/2000/svg">
<path d="M7.46967 7.46967C7.76256 7.17678 8.23732 7.17678 8.53022 7.46967L11.8232 10.7626C12.5064 11.446 12.5065 12.5539 11.8232 13.2372L8.53022 16.5302C8.23734 16.8231 7.76257 16.8231 7.46967 16.5302C7.17678 16.2373 7.17678 15.7626 7.46967 15.4697L10.7626 12.1767C10.8602 12.0791 10.8601 11.9208 10.7626 11.8232L7.46967 8.53022C7.17678 8.23732 7.17678 7.76256 7.46967 7.46967Z" fill="#4E5964"/>
<path d="M11.4697 7.46967C11.7626 7.17678 12.2373 7.17678 12.5302 7.46967L15.8232 10.7626C16.5064 11.446 16.5065 12.5539 15.8232 13.2372L12.5302 16.5302C12.2373 16.8231 11.7626 16.8231 11.4697 16.5302C11.1768 16.2373 11.1768 15.7626 11.4697 15.4697L14.7626 12.1767C14.8602 12.0791 14.8601 11.9208 14.7626 11.8232L11.4697 8.53022C11.1768 8.23732 11.1768 7.76256 11.4697 7.46967Z" fill="#4E5964"/>
</svg>
