<svg width="24" height="24" viewBox="0 0 24 24" fill="none" xmlns="http://www.w3.org/2000/svg">
<path d="M11.4695 7.46988C11.7624 7.17706 12.2372 7.17701 12.5301 7.46988C12.8228 7.76275 12.8228 8.23757 12.5301 8.53042L9.2371 11.8234C9.13957 11.921 9.13957 12.0793 9.2371 12.1769L12.5301 15.4699C12.8228 15.7628 12.8228 16.2376 12.5301 16.5304C12.2372 16.8233 11.7624 16.8232 11.4695 16.5304L8.17655 13.2375C7.49323 12.5541 7.49323 11.4462 8.17655 10.7628L11.4695 7.46988Z" fill="#4E5964"/>
<path d="M15.4695 7.46988C15.7624 7.17706 16.2372 7.17701 16.5301 7.46988C16.8228 7.76275 16.8228 8.23757 16.5301 8.53042L13.2371 11.8234C13.1396 11.921 13.1396 12.0793 13.2371 12.1769L16.5301 15.4699C16.8228 15.7628 16.8228 16.2376 16.5301 16.5304C16.2372 16.8233 15.7624 16.8232 15.4695 16.5304L12.1766 13.2375C11.4932 12.5541 11.4932 11.4462 12.1766 10.7628L15.4695 7.46988Z" fill="#4E5964"/>
</svg>
