<svg width="24" height="24" viewBox="0 0 24 24" fill="none" xmlns="http://www.w3.org/2000/svg">
<path fill-rule="evenodd" clip-rule="evenodd" d="M2.94914 4.51946C2.87749 4.38212 2.68476 4.37564 2.61201 4.5124C2.22136 5.24673 2 6.08482 2 6.97461V15.9746C2 18.8741 4.35051 21.2246 7.25 21.2246H7.71688C7.77336 21.2246 7.82721 21.2007 7.86513 21.1589L9.18026 19.7066L11.8601 16.448C11.9328 16.3596 11.8649 16.2247 11.7504 16.2247C9.64718 16.2247 7.86326 14.8578 7.23849 12.9639C7.2273 12.9408 7.21395 12.9127 7.19986 12.8828C7.16255 12.8037 7.11213 12.6954 7.06208 12.5873C7.01183 12.4788 6.9612 12.369 6.92318 12.2865L6.86372 12.1573L6.56245 11.5448L3.60837 5.78319L2.94914 4.51946ZM3.96198 2.88152C3.8894 2.9399 3.87003 3.0416 3.91311 3.12418L4.94197 5.09647L7.12269 9.34975C7.20132 9.5031 7.42856 9.49338 7.50613 9.3395C8.28793 7.7885 9.8949 6.72465 11.7504 6.72465H21.2846C21.3987 6.72465 21.49 6.62902 21.4802 6.51532C21.2475 3.83091 18.9947 1.72461 16.25 1.72461H7.25C6.00532 1.72461 4.86181 2.15775 3.96198 2.88152ZM21.5 8.42465C21.5 8.31419 21.4105 8.22465 21.3 8.22465H15.6765C15.5013 8.22465 15.4069 8.43759 15.5139 8.57628C16.1324 9.37828 16.5004 10.3835 16.5004 11.4747C16.5004 12.7139 16.0258 13.8422 15.2486 14.688L14.7728 15.2678L10.3161 20.687L10.1319 20.8904C10.0155 21.0189 10.1067 21.2246 10.2801 21.2246H16.25C19.1495 21.2246 21.5 18.8741 21.5 15.9746V8.42465ZM8.50035 11.4747C8.50035 9.67973 9.95543 8.22465 11.7504 8.22465C13.5453 8.22465 15.0004 9.67973 15.0004 11.4747C15.0004 13.2696 13.5453 14.7247 11.7504 14.7247C9.95543 14.7247 8.50035 13.2696 8.50035 11.4747Z" fill="#4E5964"/>
</svg>
