<svg width="24" height="24" viewBox="0 0 24 24" fill="none" xmlns="http://www.w3.org/2000/svg">
<path fill-rule="evenodd" clip-rule="evenodd" d="M22 12C22 17.5228 17.5228 22 12 22C6.47715 22 2 17.5228 2 12C2 6.47715 6.47715 2 12 2C17.5228 2 22 6.47715 22 12ZM15.5303 12.4697C15.8232 12.7626 15.8232 13.2374 15.5303 13.5303C15.2374 13.8232 14.7626 13.8232 14.4697 13.5303L12 11.0607L9.53033 13.5303C9.23744 13.8232 8.76256 13.8232 8.46967 13.5303C8.17678 13.2374 8.17678 12.7626 8.46967 12.4697L11.4697 9.46967C11.7626 9.17678 12.2374 9.17678 12.5303 9.46967L15.5303 12.4697Z" fill="#4E5964"/>
</svg>
