<svg width="24" height="25" viewBox="0 0 24 25" fill="none" xmlns="http://www.w3.org/2000/svg">
<path fill-rule="evenodd" clip-rule="evenodd" d="M12 2.53076C6.61522 2.53076 2.25 6.89599 2.25 12.2808C2.25 17.6655 6.61522 22.0308 12 22.0308C17.3848 22.0308 21.75 17.6655 21.75 12.2808C21.75 6.89599 17.3848 2.53076 12 2.53076ZM15.2305 12.6503C15.5234 12.9432 15.5234 13.4181 15.2305 13.711C14.9376 14.0039 14.4628 14.0039 14.1699 13.711L12.0002 11.5413L9.83053 13.711C9.53763 14.0039 9.06276 14.0039 8.76987 13.711C8.47697 13.4181 8.47697 12.9432 8.76987 12.6503L11.4699 9.95033C11.7628 9.65744 12.2376 9.65744 12.5305 9.95033L15.2305 12.6503Z" fill="#4E5964"/>
</svg>
