<svg width="24" height="24" viewBox="0 0 24 24" fill="none" xmlns="http://www.w3.org/2000/svg">
<path fill-rule="evenodd" clip-rule="evenodd" d="M21.75 12C21.75 17.3848 17.3848 21.75 12 21.75C6.61522 21.75 2.25 17.3848 2.25 12C2.25 6.61522 6.61522 2.25 12 2.25C17.3848 2.25 21.75 6.61522 21.75 12ZM11.6304 8.76947C11.3375 8.47658 10.8627 8.47658 10.5698 8.76947C10.2769 9.06237 10.2769 9.53724 10.5698 9.83013L12.7394 11.9998L10.5698 14.1695C10.2769 14.4624 10.2769 14.9372 10.5698 15.2301C10.8627 15.523 11.3375 15.523 11.6304 15.2301L14.3304 12.5301C14.6233 12.2372 14.6233 11.7624 14.3304 11.4695L11.6304 8.76947Z" fill="#4E5964"/>
</svg>
