<svg width="24" height="25" viewBox="0 0 24 25" fill="none" xmlns="http://www.w3.org/2000/svg">
<path fill-rule="evenodd" clip-rule="evenodd" d="M21.75 12.2808C21.75 17.6655 17.3848 22.0308 12 22.0308C6.61522 22.0308 2.25 17.6655 2.25 12.2808C2.25 6.89599 6.61522 2.53076 12 2.53076C17.3848 2.53076 21.75 6.89599 21.75 12.2808ZM11.6304 9.05024C11.3375 8.75734 10.8627 8.75734 10.5698 9.05024C10.2769 9.34313 10.2769 9.818 10.5698 10.1109L12.7394 12.2806L10.5698 14.4502C10.2769 14.7431 10.2769 15.218 10.5698 15.5109C10.8627 15.8038 11.3375 15.8038 11.6304 15.5109L14.3304 12.8109C14.6233 12.518 14.6233 12.0431 14.3304 11.7502L11.6304 9.05024Z" fill="#4E5964"/>
</svg>
