<svg width="24" height="24" viewBox="0 0 24 24" fill="none" xmlns="http://www.w3.org/2000/svg">
<path fill-rule="evenodd" clip-rule="evenodd" d="M12 2.25C6.61522 2.25 2.25 6.61522 2.25 12C2.25 17.3848 6.61522 21.75 12 21.75C17.3848 21.75 21.75 17.3848 21.75 12C21.75 6.61522 17.3848 2.25 12 2.25ZM12.3701 8.76947C12.663 8.47658 13.1378 8.47658 13.4307 8.76947C13.7236 9.06237 13.7236 9.53724 13.4307 9.83013L11.2611 11.9998L13.4307 14.1695C13.7236 14.4624 13.7236 14.9372 13.4307 15.2301C13.1378 15.523 12.663 15.523 12.3701 15.2301L9.67006 12.5301C9.37717 12.2372 9.37717 11.7624 9.67006 11.4695L12.3701 8.76947Z" fill="#4E5964"/>
</svg>
