<svg width="24" height="24" viewBox="0 0 24 24" fill="none" xmlns="http://www.w3.org/2000/svg">
<path fill-rule="evenodd" clip-rule="evenodd" d="M12 2.25C6.61522 2.25 2.25 6.61522 2.25 12C2.25 17.3848 6.61522 21.75 12 21.75C17.3848 21.75 21.75 17.3848 21.75 12C21.75 6.61522 17.3848 2.25 12 2.25ZM15.2305 11.6304C15.5234 11.3375 15.5234 10.8627 15.2305 10.5698C14.9376 10.2769 14.4628 10.2769 14.1699 10.5698L12.0002 12.7394L9.83053 10.5698C9.53763 10.2769 9.06276 10.2769 8.76987 10.5698C8.47697 10.8627 8.47697 11.3375 8.76987 11.6304L11.4699 14.3304C11.7628 14.6233 12.2376 14.6233 12.5305 14.3304L15.2305 11.6304Z" fill="#4E5964"/>
</svg>
