<svg width="24" height="25" viewBox="0 0 24 25" fill="none" xmlns="http://www.w3.org/2000/svg">
<path fill-rule="evenodd" clip-rule="evenodd" d="M12 2.53076C6.61522 2.53076 2.25 6.89599 2.25 12.2808C2.25 17.6655 6.61522 22.0308 12 22.0308C17.3848 22.0308 21.75 17.6655 21.75 12.2808C21.75 6.89599 17.3848 2.53076 12 2.53076ZM12.3701 9.05024C12.663 8.75734 13.1378 8.75734 13.4307 9.05024C13.7236 9.34313 13.7236 9.818 13.4307 10.1109L11.2611 12.2806L13.4307 14.4502C13.7236 14.7431 13.7236 15.218 13.4307 15.5109C13.1378 15.8038 12.663 15.8038 12.3701 15.5109L9.67006 12.8109C9.37717 12.518 9.37717 12.0431 9.67006 11.7502L12.3701 9.05024Z" fill="#4E5964"/>
</svg>
