<svg width="24" height="24" viewBox="0 0 24 24" fill="none" xmlns="http://www.w3.org/2000/svg">
<path fill-rule="evenodd" clip-rule="evenodd" d="M22 12C22 17.5228 17.5228 22 12 22C6.47715 22 2 17.5228 2 12C2 6.47715 6.47715 2 12 2C17.5228 2 22 6.47715 22 12ZM12.4697 8.46967C12.7626 8.17678 13.2374 8.17678 13.5303 8.46967C13.8232 8.76256 13.8232 9.23744 13.5303 9.53033L11.0607 12L13.5303 14.4697C13.8232 14.7626 13.8232 15.2374 13.5303 15.5303C13.2374 15.8232 12.7626 15.8232 12.4697 15.5303L9.46967 12.5303C9.17678 12.2374 9.17678 11.7626 9.46967 11.4697L12.4697 8.46967Z" fill="#4E5964"/>
</svg>
