<svg width="24" height="24" viewBox="0 0 24 24" fill="none" xmlns="http://www.w3.org/2000/svg">
<path fill-rule="evenodd" clip-rule="evenodd" d="M22 12C22 17.5228 17.5228 22 12 22C6.47715 22 2 17.5228 2 12C2 6.47715 6.47715 2 12 2C17.5228 2 22 6.47715 22 12ZM11.5303 15.5303C11.2374 15.8232 10.7626 15.8232 10.4697 15.5303C10.1768 15.2374 10.1768 14.7626 10.4697 14.4697L12.9393 12L10.4697 9.53033C10.1768 9.23744 10.1768 8.76256 10.4697 8.46967C10.7626 8.17678 11.2374 8.17678 11.5303 8.46967L14.5303 11.4697C14.8232 11.7626 14.8232 12.2374 14.5303 12.5303L11.5303 15.5303Z" fill="#4E5964"/>
</svg>
