<svg width="24" height="24" viewBox="0 0 24 24" fill="none" xmlns="http://www.w3.org/2000/svg">
<path fill-rule="evenodd" clip-rule="evenodd" d="M12 2.25C6.61522 2.25 2.25 6.61522 2.25 12C2.25 17.3848 6.61522 21.75 12 21.75C17.3848 21.75 21.75 17.3848 21.75 12C21.75 6.61522 17.3848 2.25 12 2.25ZM15.2305 12.3696C15.5234 12.6625 15.5234 13.1373 15.2305 13.4302C14.9376 13.7231 14.4628 13.7231 14.1699 13.4302L12.0002 11.2606L9.83053 13.4302C9.53763 13.7231 9.06276 13.7231 8.76987 13.4302C8.47697 13.1373 8.47697 12.6625 8.76987 12.3696L11.4699 9.66957C11.7628 9.37668 12.2376 9.37668 12.5305 9.66957L15.2305 12.3696Z" fill="#4E5964"/>
</svg>
