<svg width="24" height="24" viewBox="0 0 24 24" fill="none" xmlns="http://www.w3.org/2000/svg">
<path fill-rule="evenodd" clip-rule="evenodd" d="M7.5 2C4.46243 2 2 4.46243 2 7.5V16.5C2 19.5376 4.46243 22 7.5 22H16.5C19.5376 22 22 19.5376 22 16.5V7.5C22 4.46243 19.5376 2 16.5 2H7.5ZM12.75 8C12.75 7.58579 12.4142 7.25 12 7.25C11.5858 7.25 11.25 7.58579 11.25 8V13.3846C11.25 13.6904 11.4356 13.9655 11.7192 14.08L15.7192 15.6954C16.1032 15.8505 16.5403 15.6649 16.6954 15.2808C16.8505 14.8968 16.6649 14.4597 16.2808 14.3046L12.75 12.8786V8Z" fill="#4E5964"/>
</svg>
