<svg width="24" height="24" viewBox="0 0 24 24" fill="none" xmlns="http://www.w3.org/2000/svg">
<path fill-rule="evenodd" clip-rule="evenodd" d="M12 2.25C6.61522 2.25 2.25 6.61522 2.25 12C2.25 17.3848 6.61522 21.75 12 21.75C17.3848 21.75 21.75 17.3848 21.75 12C21.75 6.61522 17.3848 2.25 12 2.25ZM12.75 7C12.75 6.58579 12.4142 6.25 12 6.25C11.5858 6.25 11.25 6.58579 11.25 7V12.3846C11.25 12.7988 11.5858 13.1346 12 13.1346H16.5C16.9142 13.1346 17.25 12.7988 17.25 12.3846C17.25 11.9704 16.9142 11.6346 16.5 11.6346H12.75V7Z" fill="#4E5964"/>
</svg>
