<svg width="24" height="24" viewBox="0 0 24 24" fill="none" xmlns="http://www.w3.org/2000/svg">
<path fill-rule="evenodd" clip-rule="evenodd" d="M12 2C6.47715 2 2 6.47715 2 12C2 17.5228 6.47715 22 12 22C17.5228 22 22 17.5228 22 12C22 6.47715 17.5228 2 12 2ZM12.75 7C12.75 6.58579 12.4142 6.25 12 6.25C11.5858 6.25 11.25 6.58579 11.25 7V12.3846C11.25 12.7988 11.5858 13.1346 12 13.1346H16.5C16.9142 13.1346 17.25 12.7988 17.25 12.3846C17.25 11.9704 16.9142 11.6346 16.5 11.6346H12.75V7Z" fill="#4E5964"/>
</svg>
