<svg width="24" height="24" viewBox="0 0 24 24" fill="none" xmlns="http://www.w3.org/2000/svg">
<path fill-rule="evenodd" clip-rule="evenodd" d="M7.5 2.25C4.60051 2.25 2.25 4.60051 2.25 7.5V16.5C2.25 19.3995 4.60051 21.75 7.5 21.75H16.5C19.3995 21.75 21.75 19.3995 21.75 16.5V7.5C21.75 4.60051 19.3995 2.25 16.5 2.25H7.5ZM12.75 8C12.75 7.58579 12.4142 7.25 12 7.25C11.5858 7.25 11.25 7.58579 11.25 8V13.3846C11.25 13.6904 11.4356 13.9655 11.7192 14.08L15.7192 15.6954C16.1032 15.8505 16.5403 15.6649 16.6954 15.2808C16.8505 14.8968 16.6649 14.4597 16.2808 14.3046L12.75 12.8786V8Z" fill="#4E5964"/>
</svg>
