<svg width="24" height="25" viewBox="0 0 24 25" fill="none" xmlns="http://www.w3.org/2000/svg">
<path fill-rule="evenodd" clip-rule="evenodd" d="M12 2.52637C6.61522 2.52637 2.25 6.89159 2.25 12.2764C2.25 17.6611 6.61522 22.0264 12 22.0264C17.3848 22.0264 21.75 17.6611 21.75 12.2764C21.75 6.89159 17.3848 2.52637 12 2.52637ZM10.4092 9.62543C10.1163 9.33254 9.64147 9.33254 9.34858 9.62543C9.05568 9.91832 9.05568 10.3932 9.34858 10.6861L10.9393 12.2769L9.34812 13.8681C9.05523 14.161 9.05523 14.6358 9.34812 14.9287C9.64102 15.2216 10.1159 15.2216 10.4088 14.9287L12 13.3375L13.5912 14.9287C13.8841 15.2216 14.359 15.2216 14.6519 14.9287C14.9448 14.6358 14.9448 14.161 14.6519 13.8681L13.0607 12.2769L14.6514 10.6861C14.9443 10.3932 14.9443 9.91832 14.6514 9.62543C14.3585 9.33254 13.8837 9.33254 13.5908 9.62543L12 11.2162L10.4092 9.62543Z" fill="#4E5964"/>
</svg>
