<svg width="24" height="24" viewBox="0 0 24 24" fill="none" xmlns="http://www.w3.org/2000/svg">
<path d="M7.53228 6.47187C7.23939 6.17897 6.76452 6.17897 6.47162 6.47187C6.17873 6.76476 6.17873 7.23963 6.47162 7.53253L10.9403 12.0012L6.47253 16.469C6.17964 16.7619 6.17963 17.2368 6.47253 17.5297C6.76542 17.8226 7.2403 17.8226 7.53319 17.5297L12.001 13.0619L16.4688 17.5297C16.7617 17.8226 17.2365 17.8226 17.5294 17.5297C17.8223 17.2368 17.8223 16.7619 17.5294 16.469L13.0616 12.0012L17.5303 7.53253C17.8232 7.23963 17.8232 6.76476 17.5303 6.47187C17.2374 6.17897 16.7626 6.17897 16.4697 6.47187L12.001 10.9406L7.53228 6.47187Z" fill="#4E5964"/>
</svg>
