<svg width="24" height="24" viewBox="0 0 24 24" fill="none" xmlns="http://www.w3.org/2000/svg">
<path d="M16.8088 8.11343C17.0635 7.85872 17.0635 7.44575 16.8088 7.19103C16.5541 6.93632 16.1412 6.93632 15.8864 7.19103L12 11.0775L8.11356 7.19103C7.85885 6.93632 7.44588 6.93632 7.19117 7.19103C6.93646 7.44575 6.93646 7.85872 7.19117 8.11343L11.0776 11.9999L7.19103 15.8866C6.93632 16.1413 6.93632 16.5543 7.19103 16.809C7.44574 17.0637 7.85871 17.0637 8.11342 16.809L12 12.9223L15.8866 16.809C16.1413 17.0637 16.5543 17.0637 16.809 16.809C17.0637 16.5543 17.0637 16.1413 16.809 15.8866L12.9224 11.9999L16.8088 8.11343Z" fill="#00A881"/>
</svg>
