<svg width="24" height="24" viewBox="0 0 24 24" fill="none" xmlns="http://www.w3.org/2000/svg">
<path d="M17.5302 7.53131C17.8231 7.23841 17.8231 6.76354 17.5302 6.47065C17.2373 6.17775 16.7624 6.17775 16.4695 6.47065L12.0005 10.9397L7.53141 6.47065C7.23851 6.17775 6.76364 6.17775 6.47075 6.47065C6.17785 6.76354 6.17785 7.23841 6.47075 7.53131L10.9398 12.0004L6.47059 16.4696C6.17769 16.7625 6.17769 17.2374 6.47059 17.5302C6.76348 17.8231 7.23835 17.8231 7.53125 17.5302L12.0005 13.061L16.4697 17.5302C16.7626 17.8231 17.2375 17.8231 17.5303 17.5302C17.8232 17.2374 17.8232 16.7625 17.5303 16.4696L13.0611 12.0004L17.5302 7.53131Z" fill="#00A881"/>
</svg>
