<svg width="24" height="24" viewBox="0 0 24 24" fill="none" xmlns="http://www.w3.org/2000/svg">
<path fill-rule="evenodd" clip-rule="evenodd" d="M12 2.25073C6.61522 2.25073 2.25 6.61596 2.25 12.0007C2.25 17.3855 6.61522 21.7507 12 21.7507C17.3848 21.7507 21.75 17.3855 21.75 12.0007C21.75 6.61596 17.3848 2.25073 12 2.25073ZM10.4092 9.3498C10.1163 9.0569 9.64147 9.0569 9.34858 9.3498C9.05568 9.64269 9.05568 10.1176 9.34858 10.4105L10.9393 12.0012L9.34812 13.5924C9.05523 13.8853 9.05523 14.3602 9.34812 14.6531C9.64102 14.946 10.1159 14.946 10.4088 14.6531L12 13.0619L13.5912 14.6531C13.8841 14.946 14.359 14.946 14.6519 14.6531C14.9448 14.3602 14.9448 13.8853 14.6519 13.5924L13.0607 12.0012L14.6514 10.4105C14.9443 10.1176 14.9443 9.64269 14.6514 9.3498C14.3585 9.0569 13.8837 9.0569 13.5908 9.3498L12 10.9406L10.4092 9.3498Z" fill="#4E5964"/>
</svg>
