<svg width="24" height="24" viewBox="0 0 24 24" fill="none" xmlns="http://www.w3.org/2000/svg">
<path fill-rule="evenodd" clip-rule="evenodd" d="M22 12C22 17.5228 17.5228 22 12 22C6.47715 22 2 17.5228 2 12C2 6.47715 6.47715 2 12 2C17.5228 2 22 6.47715 22 12ZM14.6514 9.34858C14.9443 9.64147 14.9443 10.1163 14.6514 10.4092L13.0607 12L14.6519 13.5912C14.9448 13.8841 14.9448 14.359 14.6519 14.6519C14.359 14.9448 13.8841 14.9448 13.5912 14.6519L12 13.0607L10.4088 14.6519C10.1159 14.9448 9.64102 14.9448 9.34812 14.6519C9.05523 14.359 9.05523 13.8841 9.34812 13.5912L10.9393 12L9.34858 10.4092C9.05568 10.1163 9.05568 9.64147 9.34858 9.34858C9.64147 9.05568 10.1163 9.05568 10.4092 9.34858L12 10.9393L13.5908 9.34858C13.8837 9.05568 14.3585 9.05568 14.6514 9.34858Z" fill="#4E5964"/>
</svg>
