<svg width="24" height="24" viewBox="0 0 24 24" fill="none" xmlns="http://www.w3.org/2000/svg">
<path fill-rule="evenodd" clip-rule="evenodd" d="M11.75 4C8.85412 4 7.21666 5.42156 6.34279 6.92797C5.69617 8.04264 5.47198 9.18799 5.40272 9.80505C5.37954 9.81427 5.35409 9.82426 5.32617 9.8351L5.23239 9.87129C4.93189 9.9869 4.49894 10.1535 4.06582 10.4006C3.57882 10.6784 3.05573 11.0764 2.65567 11.6691C2.25023 12.2698 1.99999 13.0283 2 13.9751C2.00001 14.739 2.17233 15.3768 2.48603 15.8947C2.79936 16.4119 3.22752 16.7662 3.67289 17.0043C4.53925 17.4675 5.5049 17.5102 6.00546 17.4984C6.14241 17.4952 6.24839 17.4903 6.34537 17.4857C6.46797 17.48 6.57616 17.4749 6.7143 17.4749H11.002V18.75C11.002 19.1642 11.3377 19.5 11.752 19.5C12.1662 19.5 12.502 19.1642 12.502 18.75V17.4749H16.7857C16.9238 17.4749 17.032 17.48 17.1547 17.4857C17.2516 17.4903 17.3576 17.4952 17.4945 17.4984C17.9951 17.5102 18.9608 17.4675 19.8271 17.0043C20.2725 16.7662 20.7007 16.4119 21.014 15.8947C21.3277 15.3768 21.5 14.739 21.5 13.9751C21.5 13.0283 21.2498 12.2698 20.8443 11.6691C20.4442 11.0764 19.9212 10.6784 19.4342 10.4006C19.001 10.1535 18.5681 9.98689 18.2676 9.87129L18.1738 9.8351C18.1459 9.82426 18.1205 9.81427 18.0973 9.80505C18.028 9.18799 17.8038 8.04264 17.1572 6.92797C16.2833 5.42156 14.6459 4 11.75 4ZM12.502 17.4749V15.5132L13.2237 16.2241C13.5188 16.5148 13.9937 16.5112 14.2843 16.2161C14.575 15.921 14.5714 15.4461 14.2763 15.1554L12.3069 13.2157C12.015 12.9281 11.5463 12.9281 11.2543 13.2157L9.22372 15.2157C8.92861 15.5063 8.925 15.9812 9.21565 16.2763C9.50631 16.5714 9.98117 16.575 10.2763 16.2843L11.002 15.5696V17.4749H12.502Z" fill="#4E5964"/>
</svg>
