<svg width="24" height="24" viewBox="0 0 24 24" fill="none" xmlns="http://www.w3.org/2000/svg">
<path fill-rule="evenodd" clip-rule="evenodd" d="M12 4.25C9.10412 4.25 7.46666 5.67156 6.59279 7.17797C5.94617 8.29264 5.72198 9.43799 5.65272 10.0551C5.62954 10.0643 5.60409 10.0743 5.57617 10.0851L5.48239 10.1213C5.18189 10.2369 4.74894 10.4035 4.31582 10.6506C3.82882 10.9284 3.30573 11.3264 2.90567 11.9191C2.50023 12.5198 2.24999 13.2783 2.25 14.2251C2.25001 14.989 2.42233 15.6268 2.73603 16.1447C3.04936 16.6619 3.47752 17.0162 3.92289 17.2543C4.78925 17.7175 5.7549 17.7602 6.25546 17.7484C6.39241 17.7452 6.49839 17.7403 6.59537 17.7357C6.71797 17.73 6.82616 17.7249 6.9643 17.7249H9.76388L11.5043 19.4391C11.7963 19.7267 12.265 19.7267 12.5569 19.4391L14.2973 17.7249H17.0357C17.1738 17.7249 17.282 17.73 17.4047 17.7357C17.5016 17.7403 17.6076 17.7452 17.7445 17.7484C18.2451 17.7602 19.2108 17.7175 20.0771 17.2543C20.5225 17.0162 20.9507 16.6619 21.264 16.1447C21.5777 15.6268 21.75 14.989 21.75 14.2251C21.75 13.2783 21.4998 12.5198 21.0943 11.9191C20.6942 11.3264 20.1712 10.9284 19.6842 10.6506C19.251 10.4035 18.8181 10.2369 18.5176 10.1213L18.4238 10.0851C18.3959 10.0743 18.3705 10.0643 18.3473 10.0551C18.278 9.43799 18.0538 8.29264 17.4072 7.17797C16.5333 5.67156 14.8959 4.25 12 4.25ZM14.2973 17.7249L14.5263 17.4994C14.8214 17.2087 14.825 16.7338 14.5343 16.4387C14.2437 16.1436 13.7688 16.14 13.4737 16.4307L12.7539 17.1397V14C12.7539 13.5858 12.4181 13.25 12.0039 13.25C11.5897 13.25 11.2539 13.5858 11.2539 14V17.0871L10.5263 16.3704C10.2312 16.0798 9.75631 16.0834 9.46565 16.3785C9.175 16.6736 9.17861 17.1485 9.47372 17.4391L9.76388 17.7249H14.2973Z" fill="#4E5964"/>
</svg>
