<svg width="24" height="24" viewBox="0 0 24 24" fill="none" xmlns="http://www.w3.org/2000/svg">
<path fill-rule="evenodd" clip-rule="evenodd" d="M12 3.25C9.10412 3.25 7.46666 4.67156 6.59279 6.17797C5.94617 7.29264 5.72198 8.43799 5.65272 9.05505C5.62954 9.06427 5.60409 9.07426 5.57617 9.0851L5.48239 9.12129C5.18189 9.2369 4.74894 9.40347 4.31582 9.65058C3.82882 9.92843 3.30573 10.3264 2.90567 10.9191C2.50023 11.5198 2.24999 12.2783 2.25 13.2251C2.25001 13.989 2.42233 14.6268 2.73603 15.1447C3.04936 15.6619 3.47752 16.0162 3.92289 16.2543C4.78925 16.7175 5.7549 16.7602 6.25546 16.7484C6.39241 16.7452 6.49839 16.7403 6.59537 16.7357C6.71797 16.73 6.82616 16.7249 6.9643 16.7249H17.0357C17.1738 16.7249 17.282 16.73 17.4047 16.7357C17.5016 16.7403 17.6076 16.7452 17.7445 16.7484C18.2451 16.7602 19.2108 16.7175 20.0771 16.2543C20.5225 16.0162 20.9507 15.6619 21.264 15.1447C21.5777 14.6268 21.75 13.989 21.75 13.2251C21.75 12.2783 21.4998 11.5198 21.0943 10.9191C20.6942 10.3264 20.1712 9.92843 19.6842 9.65058C19.251 9.40347 18.8181 9.23689 18.5176 9.12129L18.4238 9.0851C18.3959 9.07426 18.3705 9.06427 18.3473 9.05505C18.278 8.43799 18.0538 7.29264 17.4072 6.17797C16.5333 4.67156 14.8959 3.25 12 3.25ZM13.7277 13.7664C13.7812 13.7479 13.8346 13.7454 13.8865 13.7572C13.9392 13.7692 13.9986 13.7981 14.0565 13.8524C14.1149 13.9073 14.1688 13.9858 14.2052 14.0862C14.2416 14.1866 14.2569 14.2996 14.2471 14.4133C14.2374 14.5271 14.2036 14.6307 14.1544 14.7152C14.1052 14.7995 14.0452 14.8576 13.9872 14.8932C13.9303 14.9281 13.8747 14.9421 13.8242 14.9423H9C8.58579 14.9423 8.25 15.2781 8.25 15.6923C8.25 16.1065 8.58579 16.4423 9 16.4423H13.8252L13.8268 16.4423C14.1629 16.4416 14.4878 16.3459 14.7716 16.1718C15.0544 15.9982 15.2849 15.7544 15.4503 15.4706C15.6156 15.187 15.7137 14.8677 15.7417 14.5412C15.7696 14.2146 15.7271 13.8834 15.6154 13.5751C15.5037 13.2668 15.3237 12.9848 15.0832 12.7589C14.8421 12.5325 14.5467 12.3693 14.2201 12.2948C13.8928 12.2201 13.554 12.2393 13.2374 12.3488C12.9216 12.458 12.6454 12.6507 12.428 12.8987C12.155 13.2102 12.1862 13.6841 12.4977 13.9571C12.8092 14.2301 13.283 14.1989 13.5561 13.8874C13.6125 13.823 13.6732 13.7853 13.7277 13.7664ZM12.0701 17.3304C11.8195 17.1784 11.5321 17.0951 11.2346 17.0962H9C8.58579 17.0962 8.25 17.4319 8.25 17.8462C8.25 18.2604 8.58579 18.5962 9 18.5962L11.2362 18.5962L11.2398 18.5962C11.2517 18.5961 11.2694 18.599 11.2922 18.6129C11.316 18.6273 11.3471 18.655 11.3749 18.7024C11.4029 18.75 11.4237 18.8114 11.4298 18.8812C11.4359 18.9511 11.4264 19.0198 11.4048 19.0796C11.3832 19.1393 11.3526 19.1819 11.324 19.2088C11.296 19.2351 11.272 19.2447 11.2573 19.248C11.2433 19.2512 11.2291 19.2508 11.2124 19.245C11.1948 19.2388 11.1677 19.2239 11.1385 19.1903C10.8668 18.8777 10.3931 18.8445 10.0804 19.1162C9.76778 19.3879 9.7346 19.8616 10.0063 20.1743C10.1959 20.3924 10.4384 20.5634 10.7175 20.661C10.9975 20.7589 11.2978 20.7767 11.5881 20.7111C11.8777 20.6456 12.1385 20.5015 12.3503 20.3027C12.5616 20.1045 12.7185 19.8578 12.8155 19.5896C12.9124 19.3214 12.9488 19.0338 12.9241 18.7506C12.8993 18.4673 12.8134 18.1898 12.6684 17.9428C12.5232 17.6956 12.3204 17.4822 12.0701 17.3304Z" fill="#4E5964"/>
</svg>
