<svg width="24" height="24" viewBox="0 0 24 24" fill="none" xmlns="http://www.w3.org/2000/svg">
<path fill-rule="evenodd" clip-rule="evenodd" d="M6.59279 8.17797C7.46666 6.67156 9.10412 5.25 12 5.25C14.8959 5.25 16.5333 6.67156 17.4072 8.17797C18.0538 9.29264 18.278 10.438 18.3473 11.0551C18.3705 11.0643 18.3959 11.0743 18.4238 11.0851C18.4534 11.0966 18.4847 11.1086 18.5176 11.1213C18.8181 11.2369 19.251 11.4035 19.6842 11.6506C20.1712 11.9284 20.6942 12.3264 21.0943 12.9191C21.4998 13.5198 21.75 14.2783 21.75 15.2251C21.75 15.989 21.5777 16.6268 21.264 17.1447C20.9507 17.6619 20.5225 18.0162 20.0771 18.2543C19.2108 18.7175 18.2451 18.7602 17.7445 18.7484C17.6076 18.7452 17.5016 18.7403 17.4047 18.7357C17.282 18.73 17.1738 18.7249 17.0357 18.7249H6.9643C6.82616 18.7249 6.71796 18.73 6.59534 18.7357C6.49837 18.7403 6.39239 18.7452 6.25546 18.7484C5.7549 18.7602 4.78925 18.7175 3.92289 18.2543C3.47752 18.0162 3.04936 17.6619 2.73604 17.1447C2.42233 16.6268 2.25001 15.989 2.25 15.2251C2.24999 14.2783 2.50023 13.5198 2.90567 12.9191C3.30573 12.3264 3.82882 11.9284 4.31582 11.6506C4.74894 11.4035 5.1819 11.2369 5.48239 11.1213C5.5153 11.1086 5.54662 11.0966 5.57617 11.0851C5.60409 11.0743 5.62954 11.0643 5.65272 11.0551C5.72198 10.438 5.94617 9.29264 6.59279 8.17797Z" fill="#4E5964"/>
</svg>
