<svg width="24" height="24" viewBox="0 0 24 24" fill="none" xmlns="http://www.w3.org/2000/svg">
<path d="M10.1667 2.75C10.1667 2.33579 9.83088 2 9.41667 2C9.00245 2 8.66667 2.33579 8.66667 2.75V3.41667C8.66667 3.83088 9.00245 4.16667 9.41667 4.16667C9.83088 4.16667 10.1667 3.83088 10.1667 3.41667V2.75Z" fill="#4E5964"/>
<path d="M5.0064 3.94592C4.71355 3.65299 4.23868 3.65292 3.94574 3.94577C3.65281 4.23862 3.65274 4.7135 3.94559 5.00643L4.58245 5.64348C4.8753 5.93641 5.35018 5.93648 5.64311 5.64363C5.93605 5.35078 5.93612 4.87591 5.64327 4.58297L5.0064 3.94592Z" fill="#4E5964"/>
<path d="M6.16593 9.41669C6.16593 7.62176 7.62101 6.16669 9.41593 6.16669C10.7029 6.16669 11.8159 6.91515 12.3422 8.00054C12.9556 8.01932 13.3685 8.06494 14.0144 8.22241C13.9914 8.08585 14.0486 8.35476 14.0144 8.22241C13.4844 6.17705 11.6272 4.66669 9.41593 4.66669C6.79258 4.66669 4.66593 6.79333 4.66593 9.41669C4.66593 10.8664 5.31554 12.1637 6.33781 13.0343C6.50542 12.3021 6.69572 11.7867 6.85936 11.4237C6.42469 10.8708 6.16593 10.1737 6.16593 9.41669Z" fill="#4E5964"/>
<path d="M2.75 8.66667C2.33579 8.66667 2 9.00245 2 9.41667C2 9.83088 2.33579 10.1667 2.75 10.1667H3.41667C3.83088 10.1667 4.16667 9.83088 4.16667 9.41667C4.16667 9.00245 3.83088 8.66667 3.41667 8.66667H2.75Z" fill="#4E5964"/>
<path d="M14.7789 4.96583C15.0693 4.67047 15.0653 4.19562 14.77 3.90521C14.4746 3.6148 13.9998 3.61882 13.7093 3.91417L13.0778 4.55649C12.7874 4.85185 12.7914 5.32671 13.0868 5.61711C13.3821 5.90752 13.857 5.90351 14.1474 5.60815L14.7789 4.96583Z" fill="#4E5964"/>
<path fill-rule="evenodd" clip-rule="evenodd" d="M7.09815 10.9439C7.91995 9.44395 9.47659 8 12.25 8C12.2809 8 12.3116 8.00018 12.3422 8.00054C12.9588 8.00772 13.5144 8.08692 14.0144 8.22241C15.7163 8.68369 16.7737 9.79744 17.4019 10.9439C18.0133 12.06 18.2232 13.2056 18.2873 13.8163C18.3053 13.8239 18.3247 13.8319 18.3457 13.8406C18.3735 13.852 18.4031 13.864 18.4341 13.8767C18.7179 13.9923 19.131 14.1605 19.5441 14.4101C20.0098 14.6914 20.5063 15.0924 20.8844 15.6856C21.2663 16.2846 21.5 17.0372 21.5 17.9751C21.5 19.5068 20.8368 20.4562 19.9537 20.9727C19.1347 21.4516 18.216 21.507 17.7217 21.4994C17.5954 21.4974 17.4697 21.4918 17.3566 21.4868C17.3428 21.4862 17.3293 21.4856 17.3159 21.485C17.1879 21.4793 17.0746 21.4749 16.9645 21.4749H7.53552C7.42538 21.4749 7.31206 21.4793 7.18411 21.485C7.17077 21.4856 7.15722 21.4862 7.14349 21.4868C7.03036 21.4918 6.90462 21.4974 6.77829 21.4994C6.28405 21.507 5.3653 21.4516 4.54633 20.9727C3.6632 20.4562 3.00001 19.5068 3 17.9751C2.99999 17.0372 3.23372 16.2846 3.61559 15.6856C3.99367 15.0924 4.49023 14.6914 4.95594 14.4101C5.36896 14.1605 5.78211 13.9923 6.06586 13.8767C6.09693 13.864 6.12645 13.852 6.15425 13.8406C6.17527 13.8319 6.19472 13.8239 6.21273 13.8163C6.23442 13.6096 6.27281 13.3417 6.33781 13.0343C6.43735 12.5637 6.59933 12.0006 6.85936 11.4237C6.93121 11.2643 7.01056 11.1038 7.09815 10.9439Z" fill="#4E5964"/>
</svg>
