<svg width="24" height="24" viewBox="0 0 24 24" fill="none" xmlns="http://www.w3.org/2000/svg">
<path d="M11.453 3.64932C11.8115 3.4419 11.9341 2.9831 11.7266 2.62456C11.5192 2.26602 11.0604 2.14351 10.7019 2.35093C10.3483 2.55547 10.0289 2.93085 9.80171 3.35701C9.56529 3.80042 9.39258 4.36419 9.39258 5.00012C9.39258 5.41434 9.72836 5.75012 10.1426 5.75012C10.5568 5.75012 10.8926 5.41434 10.8926 5.00012C10.8926 4.63606 10.992 4.31283 11.1253 4.06274C11.2679 3.7954 11.4159 3.67078 11.453 3.64932Z" fill="#4E5964"/>
<path d="M14.8529 4.56366C15.1172 4.33198 15.1895 3.93848 15.0062 3.62322C14.7981 3.26511 14.339 3.14355 13.9809 3.35171C13.7648 3.47734 13.6377 3.66673 13.5722 3.77883C13.4961 3.90895 13.4381 4.04969 13.3947 4.17927C13.3101 4.4315 13.25 4.73476 13.25 5.00012C13.25 5.41434 13.5858 5.75012 14 5.75012C14.4142 5.75012 14.75 5.41434 14.75 5.00012C14.75 4.97297 14.7538 4.92223 14.7663 4.8536C14.7785 4.78699 14.7962 4.71784 14.8169 4.65597C14.8305 4.61553 14.8431 4.58485 14.8529 4.56366Z" fill="#4E5964"/>
<path d="M7.89487 4.55077C8.19075 4.27749 8.21844 3.81669 7.95308 3.50969C7.68222 3.19631 7.2086 3.16184 6.89522 3.4327L6.89411 3.43367L6.89295 3.43467L6.89053 3.43679L6.88524 3.44147L6.87296 3.45262C6.86403 3.46085 6.85364 3.4707 6.84202 3.48217C6.81881 3.5051 6.79049 3.53471 6.75893 3.57108C6.696 3.6436 6.61883 3.74458 6.54363 3.87457C6.39157 4.13743 6.25 4.51563 6.25 5.00012C6.25 5.41434 6.58579 5.75012 7 5.75012C7.41421 5.75012 7.75 5.41434 7.75 5.00012C7.75 4.81796 7.80126 4.69615 7.84203 4.62568C7.86325 4.589 7.88249 4.56498 7.89187 4.55417L7.89487 4.55077Z" fill="#4E5964"/>
<path d="M3.25 21.0001C3.25 20.5859 3.58579 20.2501 4 20.2501H17C17.4142 20.2501 17.75 20.5859 17.75 21.0001C17.75 21.4143 17.4142 21.7501 17 21.7501H4C3.58579 21.7501 3.25 21.4143 3.25 21.0001Z" fill="#4E5964"/>
<path fill-rule="evenodd" clip-rule="evenodd" d="M2.25 8.56517C2.25 7.25943 3.34308 6.25012 4.62787 6.25012H16.3721C17.5551 6.25012 18.5736 7.10428 18.7294 8.25715C19.1048 8.28015 19.4752 8.35954 19.8282 8.49322C20.2939 8.6696 20.7198 8.93696 21.0811 9.27972C21.4423 9.62247 21.7317 10.0338 21.9323 10.4895C22.1329 10.9453 22.2407 11.4365 22.2494 11.9344C22.2581 12.4323 22.1676 12.927 21.9831 13.3895C21.7986 13.8521 21.5238 14.2732 21.1748 14.6284C20.8257 14.9836 20.4095 15.2658 19.9502 15.4584C19.491 15.6509 18.998 15.7501 18.5 15.7501H17.6564C17.2942 16.3595 16.8472 16.9246 16.3233 17.4283C14.7743 18.9178 12.6793 19.7498 10.5006 19.7501C9.42115 19.7501 8.35151 19.5457 7.35271 19.148C6.35388 18.7502 5.44444 18.1665 4.67705 17.4287C3.9096 16.6909 3.29919 15.8133 2.88215 14.8454C2.46508 13.8773 2.25 12.8387 2.25 11.7891V8.56517ZM18.75 11.7891V9.76406C18.9367 9.78493 19.1204 9.82914 19.2969 9.89598C19.5763 10.0018 19.8319 10.1622 20.0486 10.3679C20.2654 10.5735 20.439 10.8203 20.5594 11.0938C20.6797 11.3673 20.7444 11.662 20.7497 11.9607C20.7549 12.2595 20.7006 12.5563 20.5899 12.8338C20.4792 13.1113 20.3143 13.364 20.1049 13.5771C19.8954 13.7902 19.6457 13.9595 19.3701 14.0751C19.0946 14.1906 18.7988 14.2501 18.5 14.2501H18.3459C18.611 13.4632 18.75 12.6335 18.75 11.7891Z" fill="#4E5964"/>
</svg>
