<svg width="24" height="25" viewBox="0 0 24 25" fill="none" xmlns="http://www.w3.org/2000/svg">
<path d="M11.453 3.92471C11.8115 3.71729 11.9341 3.25849 11.7266 2.89995C11.5192 2.54141 11.0604 2.4189 10.7019 2.62632C10.3483 2.83086 10.0289 3.20624 9.80171 3.6324C9.56529 4.07581 9.39258 4.63958 9.39258 5.27552C9.39258 5.68973 9.72836 6.02552 10.1426 6.02552C10.5568 6.02552 10.8926 5.68973 10.8926 5.27552C10.8926 4.91145 10.992 4.58822 11.1253 4.33813C11.2679 4.07079 11.4159 3.94617 11.453 3.92471Z" fill="#4E5964"/>
<path d="M14.8529 4.83905C15.1172 4.60738 15.1895 4.21387 15.0062 3.89861C14.7981 3.5405 14.339 3.41894 13.9809 3.6271C13.7648 3.75273 13.6377 3.94212 13.5722 4.05422C13.4961 4.18434 13.4381 4.32508 13.3947 4.45467C13.3101 4.70689 13.25 5.01015 13.25 5.27552C13.25 5.68973 13.5858 6.02552 14 6.02552C14.4142 6.02552 14.75 5.68973 14.75 5.27552C14.75 5.24836 14.7538 5.19762 14.7663 5.12899C14.7785 5.06238 14.7962 4.99323 14.8169 4.93137C14.8305 4.89092 14.8431 4.86024 14.8529 4.83905Z" fill="#4E5964"/>
<path d="M7.89487 4.82616C8.19075 4.55288 8.21844 4.09208 7.95308 3.78508C7.68222 3.4717 7.2086 3.43723 6.89522 3.70809L6.89411 3.70906L6.89295 3.71006L6.89053 3.71218L6.88524 3.71686L6.87296 3.72801C6.86403 3.73624 6.85364 3.74609 6.84202 3.75756C6.81881 3.78049 6.79049 3.8101 6.75893 3.84647C6.696 3.919 6.61883 4.01997 6.54363 4.14996C6.39157 4.41282 6.25 4.79102 6.25 5.27552C6.25 5.68973 6.58579 6.02552 7 6.02552C7.41421 6.02552 7.75 5.68973 7.75 5.27552C7.75 5.09335 7.80126 4.97154 7.84203 4.90107C7.86325 4.86439 7.88249 4.84037 7.89187 4.82956L7.89487 4.82616Z" fill="#4E5964"/>
<path d="M3.25 21.2755C3.25 20.8613 3.58579 20.5255 4 20.5255H17C17.4142 20.5255 17.75 20.8613 17.75 21.2755C17.75 21.6897 17.4142 22.0255 17 22.0255H4C3.58579 22.0255 3.25 21.6897 3.25 21.2755Z" fill="#4E5964"/>
<path fill-rule="evenodd" clip-rule="evenodd" d="M2.25 8.84056C2.25 7.53482 3.34308 6.52552 4.62787 6.52552H16.3721C17.5551 6.52552 18.5736 7.37967 18.7294 8.53254C19.1048 8.55554 19.4752 8.63493 19.8282 8.76861C20.2939 8.94499 20.7198 9.21235 21.0811 9.55511C21.4423 9.89787 21.7317 10.3091 21.9323 10.7649C22.1329 11.2207 22.2407 11.7119 22.2494 12.2098C22.2581 12.7077 22.1676 13.2024 21.9831 13.6649C21.7986 14.1275 21.5238 14.5486 21.1748 14.9038C20.8257 15.259 20.4095 15.5412 19.9502 15.7337C19.491 15.9263 18.998 16.0255 18.5 16.0255H17.6564C17.2942 16.6349 16.8472 17.2 16.3233 17.7037C14.7743 19.1932 12.6793 20.0252 10.5006 20.0255C9.42115 20.0255 8.35151 19.8211 7.35271 19.4234C6.35388 19.0256 5.44444 18.4419 4.67705 17.7041C3.9096 16.9663 3.29919 16.0887 2.88215 15.1208C2.46508 14.1527 2.25 13.1141 2.25 12.0645V8.84056ZM18.75 12.0645V10.0394C18.9367 10.0603 19.1204 10.1045 19.2969 10.1714C19.5763 10.2772 19.8319 10.4376 20.0486 10.6433C20.2654 10.8489 20.439 11.0957 20.5594 11.3692C20.6797 11.6426 20.7444 11.9374 20.7497 12.2361C20.7549 12.5348 20.7006 12.8316 20.5899 13.1092C20.4792 13.3867 20.3143 13.6394 20.1049 13.8525C19.8954 14.0656 19.6457 14.2349 19.3701 14.3505C19.0946 14.466 18.7988 14.5255 18.5 14.5255H18.3459C18.611 13.7386 18.75 12.9089 18.75 12.0645Z" fill="#4E5964"/>
</svg>
