<svg width="24" height="24" viewBox="0 0 24 24" fill="none" xmlns="http://www.w3.org/2000/svg">
<path d="M3.22656 16.4946C3.63659 16.4819 3.97999 16.8012 3.99902 17.2095C3.99886 17.2063 3.99902 17.2017 3.99902 17.2017L4.00586 17.2456C4.01576 17.2977 4.03839 17.3934 4.08789 17.5278C4.18656 17.7957 4.39563 18.2255 4.83594 18.7759C5.24553 19.2879 5.97597 19.5129 6.75977 19.5679C7.03391 19.5871 7.29223 19.583 7.50977 19.5708L6.71973 18.7808C6.42683 18.4879 6.42683 18.0121 6.71973 17.7192C7.01256 17.4267 7.48744 17.4267 7.78027 17.7192L9.78027 19.7192C10.0732 20.0121 10.0732 20.4879 9.78027 20.7808L7.78027 22.7808C7.48744 23.0733 7.01256 23.0733 6.71973 22.7808C6.42683 22.4879 6.42683 22.0121 6.71973 21.7192L7.35938 21.0786C7.14509 21.0842 6.90677 21.0826 6.65527 21.0649C5.74407 21.0011 4.47424 20.7261 3.66406 19.7134C3.12856 19.044 2.83804 18.4736 2.68066 18.0464C2.60224 17.8335 2.55736 17.6581 2.53223 17.5259C2.51968 17.4598 2.51152 17.4041 2.50684 17.3608C2.50452 17.3394 2.50302 17.3207 2.50195 17.3052C2.50143 17.2976 2.50128 17.2908 2.50098 17.2847C2.50083 17.2817 2.50108 17.2785 2.50098 17.2759L2.5 17.272V17.269C2.48718 16.8551 2.81265 16.5076 3.22656 16.4946ZM20 18.7563C20 18.2268 19.6171 17.7741 19.0947 17.687L18.75 17.6294V20.1196H18.917C19.515 20.1195 19.9998 19.6347 20 19.0366V18.7563ZM20 14.9116V14.4526C19.9998 13.8546 19.5151 13.3698 18.917 13.3696H18.75V16.1089L19.3418 16.2075C20.5873 16.4153 21.5 17.4936 21.5 18.7563V19.0366C21.4998 20.4631 20.3435 21.6195 18.917 21.6196H18.75V22.2446C18.75 22.6588 18.4142 22.9946 18 22.9946C17.5858 22.9946 17.25 22.6588 17.25 22.2446V21.6196H17.083C15.6565 21.6195 14.5002 20.4631 14.5 19.0366V18.5776C14.5002 18.1636 14.8359 17.8276 15.25 17.8276C15.6641 17.8276 15.9998 18.1636 16 18.5776V19.0366C16.0002 19.6347 16.485 20.1195 17.083 20.1196H17.25V17.3804L16.6582 17.2817C15.4127 17.074 14.5 15.9956 14.5 14.7329V14.4526C14.5002 13.0261 15.6565 11.8698 17.083 11.8696H17.25V11.2446C17.25 10.8304 17.5858 10.4946 18 10.4946C18.4142 10.4946 18.75 10.8304 18.75 11.2446V11.8696H18.917C20.3435 11.8698 21.4998 13.0261 21.5 14.4526V14.9116C21.4998 15.3257 21.1641 15.6616 20.75 15.6616C20.3359 15.6616 20.0002 15.3257 20 14.9116ZM8.66699 9.30029C8.66699 8.85547 8.30612 8.49475 7.86133 8.49463H5.5V10.4946H7.86133C8.30612 10.4945 8.66699 10.1338 8.66699 9.68896V9.30029ZM16 14.7329C16 15.2625 16.3829 15.7152 16.9053 15.8022L17.25 15.8589V13.3696H17.083C16.4849 13.3698 16.0002 13.8546 16 14.4526V14.7329ZM8.66699 5.80029C8.66699 5.35547 8.30612 4.99475 7.86133 4.99463H5.5V6.98682L7.87207 6.95361C8.31239 6.94744 8.66679 6.58924 8.66699 6.14893V5.80029ZM10.167 6.14893C10.1669 6.75841 9.92804 7.31159 9.54102 7.72412C9.92808 8.13653 10.167 8.69007 10.167 9.30029V9.68896C10.167 10.9622 9.13455 11.9945 7.86133 11.9946H7.25V13.4946C7.25 13.9088 6.91421 14.2446 6.5 14.2446C6.08579 14.2446 5.75 13.9088 5.75 13.4946V11.9946H4.75C4.7138 11.9946 4.67838 11.9908 4.64355 11.9858C4.59707 11.9949 4.54912 12.0005 4.5 12.0005H3C2.58595 12.0005 2.25026 11.6645 2.25 11.2505C2.25 10.8363 2.58579 10.5005 3 10.5005H4V5.00049H3C2.58595 5.00049 2.25026 4.66448 2.25 4.25049C2.25 3.83627 2.58579 3.50049 3 3.50049H4.5C4.53717 3.50049 4.57365 3.50308 4.60938 3.5083C4.65495 3.49965 4.7019 3.49463 4.75 3.49463H5.75V1.99463C5.75 1.58042 6.08579 1.24463 6.5 1.24463C6.91421 1.24463 7.25 1.58042 7.25 1.99463V3.49463H7.86133C9.13455 3.49475 10.167 4.52704 10.167 5.80029V6.14893Z" fill="#4E5964"/>
<path d="M20.5006 7.27991C20.5196 7.68822 20.863 8.00745 21.2731 7.99475C21.687 7.98182 22.0125 7.63428 21.9996 7.22034V7.21741L21.9987 7.2135C21.9986 7.21088 21.9988 7.20768 21.9987 7.20471C21.9984 7.19861 21.9982 7.19176 21.9977 7.1842C21.9966 7.16871 21.9951 7.14997 21.9928 7.12854C21.9881 7.08529 21.98 7.02955 21.9674 6.9635C21.9423 6.83128 21.8974 6.6559 21.819 6.44299C21.6616 6.01579 21.3711 5.44537 20.8356 4.776C20.0254 3.76328 18.7556 3.48831 17.8444 3.42444C17.5929 3.40682 17.3545 3.40515 17.1403 3.41077L17.7799 2.77014C18.0728 2.47725 18.0728 2.00151 17.7799 1.70862C17.4871 1.41605 17.0122 1.41605 16.7194 1.70862L14.7194 3.70862C14.4265 4.00151 14.4265 4.47725 14.7194 4.77014L16.7194 6.77014C17.0122 7.06271 17.4871 7.06271 17.7799 6.77014C18.0728 6.47725 18.0728 6.00151 17.7799 5.70862L16.9899 4.91858C17.2074 4.90639 17.4657 4.90229 17.7399 4.92151C18.5237 4.97647 19.2541 5.20151 19.6637 5.7135C20.104 6.26389 20.3131 6.69371 20.4117 6.96155C20.4612 7.09595 20.4839 7.19164 20.4938 7.24377L20.5006 7.28772C20.5006 7.28772 20.5008 7.2831 20.5006 7.27991Z" fill="#4E5964"/>
</svg>
