<svg width="24" height="24" viewBox="0 0 24 24" fill="none" xmlns="http://www.w3.org/2000/svg">
<path fill-rule="evenodd" clip-rule="evenodd" d="M18 11.25C18.4142 11.25 18.75 11.5858 18.75 12V12.1504H19.0635C20.2143 12.1506 21.2582 12.8178 21.6514 13.8359L21.7207 14.0439L21.7383 14.1182C21.8056 14.4925 21.5796 14.8639 21.2061 14.9707C20.8328 15.0774 20.4447 14.8821 20.3037 14.5293L20.2793 14.4561L20.2529 14.3779C20.1015 13.9907 19.6596 13.6506 19.0635 13.6504H18.75V15.75H19C20.4424 15.75 21.7499 16.8192 21.75 18.2998C21.75 19.7805 20.4425 20.8496 19 20.8496H18.75V21C18.75 21.4142 18.4142 21.75 18 21.75C17.5858 21.75 17.25 21.4142 17.25 21V20.8496H16.9365C15.7091 20.8494 14.6036 20.0902 14.2793 18.9561C14.1654 18.5578 14.3957 18.1432 14.7939 18.0293C15.1672 17.9226 15.5553 18.1179 15.6963 18.4707L15.7207 18.5439L15.7471 18.6221C15.8985 19.0093 16.3404 19.3494 16.9365 19.3496H17.25V17.25H17C15.5576 17.25 14.2501 16.1808 14.25 14.7002C14.25 13.2195 15.5575 12.1504 17 12.1504H17.25V12C17.25 11.5858 17.5858 11.25 18 11.25ZM18.75 19.3496H19C19.7666 19.3496 20.25 18.8073 20.25 18.2998C20.2499 17.8241 19.8252 17.3174 19.1406 17.2559L19 17.25H18.75V19.3496ZM17 13.6504C16.2334 13.6504 15.75 14.1927 15.75 14.7002C15.7501 15.2077 16.2335 15.75 17 15.75H17.25V13.6504H17Z" fill="#4E5964"/>
<path d="M2.97266 16.2832C3.38254 16.2683 3.72775 16.586 3.74902 16.9941C3.74886 16.9911 3.74909 16.9881 3.74902 16.9863L3.75586 17.0293C3.76604 17.081 3.78988 17.1756 3.83984 17.3086C3.93981 17.5745 4.15068 18.002 4.59375 18.5479C5.00597 19.0553 5.73788 19.2767 6.52246 19.3271C6.82341 19.3465 7.10515 19.3348 7.33496 19.3184C7.20384 19.0418 7.24925 18.7023 7.47656 18.4717C7.76733 18.1769 8.24217 18.1733 8.53711 18.4639L9.54199 19.4551C9.68387 19.595 9.7645 19.7861 9.76562 19.9854C9.76672 20.1847 9.68822 20.3761 9.54785 20.5176L8.55371 21.5205L8.49707 21.5723C8.20348 21.8135 7.76879 21.7978 7.49316 21.5244C7.30278 21.3354 7.2369 21.0699 7.29199 20.8262C7.03877 20.8393 6.74262 20.8446 6.42578 20.8242C5.51491 20.7656 4.24456 20.4981 3.42871 19.4932C2.88959 18.829 2.59543 18.2622 2.43555 17.8369C2.35593 17.6251 2.3101 17.4502 2.28418 17.3184C2.27131 17.2528 2.26373 17.1974 2.25879 17.1543C2.25633 17.1327 2.25312 17.1133 2.25195 17.0977C2.25139 17.0901 2.25132 17.0832 2.25098 17.0771C2.25081 17.0741 2.2511 17.071 2.25098 17.0684C2.25092 17.0671 2.25006 17.0656 2.25 17.0645V17.0615C2.24998 17.0611 2.25051 17.0606 3 17.0332L2.25 17.0615C2.23486 16.6476 2.55878 16.2984 2.97266 16.2832Z" fill="#4E5964"/>
<path fill-rule="evenodd" clip-rule="evenodd" d="M7.34082 4.71387C8.21772 4.71393 9.54352 4.88758 10.2627 5.97852C10.7726 6.75224 10.8355 7.6065 10.5273 8.33984C10.4131 8.61153 10.2514 8.85594 10.0557 9.06836C10.2322 9.28428 10.3801 9.52765 10.4863 9.79395C10.7869 10.5478 10.7188 11.4224 10.1211 12.2139C9.43473 13.1224 8.30657 13.2851 7.52539 13.2852H7.28516V15L7.28027 15.0869C7.23657 15.5193 6.87168 15.8564 6.42773 15.8564C5.98379 15.8564 5.61889 15.5193 5.5752 15.0869L5.57031 15V13.2852H4.28613C3.5761 13.2852 3.00008 12.71 3 12V8.14258C3.00021 7.66937 3.38416 7.28516 3.85742 7.28516C4.33055 7.28531 4.71366 7.66946 4.71387 8.14258H8.4668C8.70373 8.03553 8.87033 7.85868 8.94727 7.67578C9.02502 7.49065 9.03905 7.23745 8.83105 6.92188C8.6289 6.61554 8.13753 6.42878 7.34082 6.42871H3C2.52661 6.42871 2.14258 6.04468 2.14258 5.57129C2.14271 5.09801 2.52669 4.71387 3 4.71387H5.57031V3C5.57031 2.52661 5.95435 2.14258 6.42773 2.14258C6.90112 2.14258 7.28516 2.52661 7.28516 3V4.71387H7.34082ZM4.71387 11.5713H7.52539C8.17706 11.5713 8.57557 11.4154 8.75293 11.1807C8.98516 10.8732 8.9755 10.6319 8.89453 10.4287C8.8124 10.2229 8.63201 10.0129 8.39551 9.85742H4.71387V11.5713Z" fill="#4E5964"/>
<path d="M15.4697 2.46973C15.7626 2.17683 16.2374 2.17683 16.5303 2.46973C16.7211 2.66059 16.7854 2.92818 16.7275 3.17285C16.9811 3.16071 17.2774 3.15746 17.5947 3.17969C18.5059 3.24356 19.7758 3.51853 20.5859 4.53125C21.1214 5.20062 21.412 5.77104 21.5693 6.19824C21.6478 6.41114 21.6926 6.58653 21.7178 6.71875C21.7303 6.7848 21.7385 6.84054 21.7432 6.88379C21.7455 6.90522 21.747 6.92396 21.748 6.93945C21.7486 6.94701 21.7487 6.95386 21.749 6.95996C21.7492 6.96293 21.7489 6.96613 21.749 6.96875C21.7491 6.96996 21.75 6.97152 21.75 6.97266V6.97559C21.75 6.97603 21.7496 6.97678 21 7L21.75 6.97559C21.7628 7.38953 21.4374 7.73707 21.0234 7.75C20.6134 7.7627 20.27 7.44346 20.251 7.03516C20.2511 7.03835 20.2509 7.04119 20.251 7.04297L20.2441 6.99902C20.2342 6.94689 20.2116 6.8512 20.1621 6.7168C20.0634 6.44896 19.8544 6.01914 19.4141 5.46875C19.0045 4.95676 18.274 4.73172 17.4902 4.67676C17.1877 4.65555 16.9043 4.66161 16.6738 4.67676C16.8077 4.95571 16.7615 5.29906 16.5303 5.53027C16.2374 5.82317 15.7626 5.82317 15.4697 5.53027L14.4697 4.53027C14.1768 4.23738 14.1768 3.76262 14.4697 3.46973L15.4697 2.46973Z" fill="#4E5964"/>
</svg>
