<svg width="24" height="24" viewBox="0 0 24 24" fill="none" xmlns="http://www.w3.org/2000/svg">
<path fill-rule="evenodd" clip-rule="evenodd" d="M19.6816 7.82643C20.0886 7.33888 20.8138 7.27362 21.3014 7.68066C21.7889 8.0877 21.8542 8.81291 21.4472 9.30046C21.0401 9.78801 20.3149 9.85327 19.8274 9.44623C19.3398 9.03919 19.2746 8.31398 19.6816 7.82643Z" fill="#4E5964"/>
<path fill-rule="evenodd" clip-rule="evenodd" d="M16.9558 3.01145C17.4867 2.37551 18.4326 2.29038 19.0686 2.82131C19.7045 3.35223 19.7896 4.29815 19.2587 4.93409C18.7278 5.57002 17.7818 5.65515 17.1459 5.12423C16.51 4.5933 16.4249 3.64738 16.9558 3.01145Z" fill="#4E5964"/>
<path fill-rule="evenodd" clip-rule="evenodd" d="M12.5789 2.2672C11.0395 2.17563 9.49333 2.45027 8.07013 3.07708C6.22963 3.88768 4.68482 5.24759 3.6474 6.97045C2.60997 8.69331 2.13068 10.6948 2.27522 12.7007C2.41975 14.7066 3.18104 16.6187 4.45475 18.1751C5.72846 19.7314 7.45227 20.8558 9.38997 21.3942C11.3277 21.9325 13.3844 21.8585 15.2784 21.1823C17.1724 20.5061 18.811 19.2607 19.9695 17.6168C20.838 16.3846 21.4049 14.9736 21.6344 13.4971C21.8403 12.1723 20.5323 11.3653 19.4466 11.7272L18.7017 11.9755C18.4854 12.0476 18.2934 11.8163 18.4041 11.617L18.5363 11.379C19.2799 10.0406 18.0675 8.46005 16.5821 8.8314L15.3275 9.14505C15.1058 9.20048 14.9321 8.95397 15.0588 8.76384L15.5876 7.97073C16.3629 6.80776 15.5292 5.25001 14.1315 5.25001H13.6636L13.9438 4.63218C14.3919 3.64398 13.8272 2.34145 12.5789 2.2672ZM11.5537 7.38566C10.5998 6.58927 9.18093 6.71697 8.38455 7.67087C7.58816 8.62477 7.71586 10.0437 8.66976 10.84C9.62366 11.6364 11.0425 11.5087 11.8389 10.5548C12.6353 9.60093 12.5076 8.18204 11.5537 7.38566ZM15.5293 15.0652C14.7874 14.4458 13.6838 14.5451 13.0644 15.287C12.445 16.029 12.5443 17.1325 13.2862 17.752C14.0281 18.3714 15.1317 18.2721 15.7511 17.5301C16.3705 16.7882 16.2712 15.6846 15.5293 15.0652ZM7.2867 16.752C6.54478 16.1325 6.44547 15.029 7.06488 14.287C7.68429 13.5451 8.78786 13.4458 9.52979 14.0652C10.2717 14.6846 10.371 15.7882 9.75162 16.5301C9.13221 17.2721 8.02863 17.3714 7.2867 16.752Z" fill="#4E5964"/>
</svg>
