<svg width="24" height="24" viewBox="0 0 24 24" fill="none" xmlns="http://www.w3.org/2000/svg">
<path fill-rule="evenodd" clip-rule="evenodd" d="M12.4111 2.25C14.1374 2.25 15.7281 3.18671 16.5654 4.69629L16.8457 5.20117H17.4512C19.8253 5.20137 21.7498 7.12591 21.75 9.5V17C21.7499 19.6232 19.6233 21.75 17 21.75H10.0859C7.91351 21.75 6.08312 20.291 5.51758 18.2998C3.62571 17.7187 2.25 15.9583 2.25 13.876V7C2.25 4.37665 4.37665 2.25 7 2.25H12.4111ZM7 3.75C5.20508 3.75 3.75 5.20508 3.75 7V13.876C3.75 15.0421 4.38969 16.0568 5.33594 16.5947V9.95117C5.33594 7.32782 7.46259 5.20117 10.0859 5.20117H15.1172C14.5181 4.30001 13.5046 3.75 12.4111 3.75H7Z" fill="#4E5964"/>
</svg>
