<svg width="24" height="24" viewBox="0 0 24 24" fill="none" xmlns="http://www.w3.org/2000/svg">
<path d="M12 2C17.5228 2 22 6.47715 22 12C22 17.5228 17.5228 22 12 22C6.47715 22 2 17.5228 2 12C2 6.47715 6.47715 2 12 2ZM11.2549 7.75C9.98156 7.75 8.94922 8.78234 8.94922 10.0557V13.9443C8.94922 15.2177 9.98156 16.25 11.2549 16.25H12.8105C14.0838 16.2499 15.1162 15.2176 15.1162 13.9443V13.75C15.1162 13.3359 14.7803 13.0002 14.3662 13C13.952 13 13.6162 13.3358 13.6162 13.75V13.9443C13.6162 14.3892 13.2553 14.7499 12.8105 14.75H11.2549C10.81 14.75 10.4492 14.3892 10.4492 13.9443V10.0557C10.4492 9.61077 10.81 9.25 11.2549 9.25H12.8105C13.2553 9.25012 13.6162 9.61084 13.6162 10.0557V10.833C13.6162 11.2472 13.952 11.583 14.3662 11.583C14.7803 11.5828 15.1162 11.2471 15.1162 10.833V10.0557C15.1162 8.78241 14.0838 7.75012 12.8105 7.75H11.2549Z" fill="#4E5964"/>
</svg>
