<svg width="24" height="24" viewBox="0 0 24 24" fill="none" xmlns="http://www.w3.org/2000/svg">
<path fill-rule="evenodd" clip-rule="evenodd" d="M12 2.25C13.8655 2.25 15.501 3.45777 16.0664 5.21094C16.1278 5.21491 16.189 5.22024 16.25 5.22656V9.7373L16.2559 9.84473C16.3104 10.3691 16.7607 10.7499 17.2695 10.75H21.5L21.5879 10.7461C21.6294 10.7418 21.6765 10.7315 21.7275 10.7168C21.7421 10.868 21.75 11.0206 21.75 11.1738V17C21.7499 19.6232 19.6233 21.75 17 21.75H10.0859C7.91351 21.75 6.08312 20.291 5.51758 18.2998C3.62571 17.7187 2.25 15.9583 2.25 13.876V7C2.25 4.37665 4.37665 2.25 7 2.25H12ZM11.75 16.5C11.3358 16.5 11.0001 16.8358 11 17.25C11.0001 17.6641 11.3359 18 11.75 18H15.25C15.6641 18 15.9999 17.6641 16 17.25C15.9999 16.8358 15.6642 16.5 15.25 16.5H11.75ZM7 3.75C5.20508 3.75 3.75 5.20508 3.75 7V13.876C3.75 15.0421 4.38969 16.0568 5.33594 16.5947V9.95117C5.33594 7.32782 7.46259 5.20117 10.0859 5.20117H14.4385C13.9622 4.32346 13.0354 3.75 12 3.75H7ZM10.75 13.5C10.3358 13.5 10.0001 13.8358 10 14.25C10.0001 14.6641 10.3359 15 10.75 15H16.25C16.6641 15 16.9999 14.6641 17 14.25C16.9999 13.8358 16.6642 13.5 16.25 13.5H10.75Z" fill="#4E5964"/>
<path d="M19.9033 9.25H17.75V7.25391L19.9033 9.25Z" fill="#4E5964"/>
</svg>
