<svg width="24" height="24" viewBox="0 0 24 24" fill="none" xmlns="http://www.w3.org/2000/svg">
<path fill-rule="evenodd" clip-rule="evenodd" d="M3.75 7C3.75 5.20508 5.20508 3.75 7 3.75H12.4114C13.505 3.75 14.519 4.29942 15.118 5.20082H10.0859C7.46259 5.20082 5.33594 7.32746 5.33594 9.95082V16.5983C4.3889 16.0607 3.75 15.0432 3.75 13.8764V7ZM5.51619 18.3006C3.62485 17.7192 2.25 15.9584 2.25 13.8764V7C2.25 4.37665 4.37665 2.25 7 2.25H12.4114C14.1376 2.25 15.7279 3.18651 16.5652 4.69608L16.8452 5.20082H17.0336C17.0779 5.20082 17.1221 5.2025 17.166 5.20583C17.0324 5.22971 16.9139 5.2756 16.8245 5.32484C16.5592 5.47094 16.25 5.79386 16.25 6.26274V9.73777C16.25 10.3168 16.7268 10.75 17.2698 10.75H20.845C21.2199 10.75 21.4474 10.5142 21.546 10.3656C21.6397 10.2244 21.6811 10.078 21.7019 9.98573C21.7378 9.82678 21.7496 9.65379 21.75 9.49751L21.7502 17C21.7502 19.6234 19.6236 21.75 17.0002 21.75H10.0859C7.91355 21.75 6.08176 20.2917 5.51619 18.3006ZM17.75 9.24999V7.16623L20.2232 9.1646C20.2277 9.19088 20.2319 9.2196 20.2355 9.24999H17.75Z" fill="#4E5964"/>
</svg>
