<svg width="24" height="24" viewBox="0 0 24 24" fill="none" xmlns="http://www.w3.org/2000/svg">
<path d="M3.44578 8.0241C3.44578 5.49556 5.49556 3.44578 8.0241 3.44578H12.0187C13.3027 3.44578 14.5277 3.985 15.395 4.93192L16.2435 5.85847L16.6476 6.29969C16.9173 6.59411 17.3745 6.6142 17.669 6.34455C17.9634 6.0749 17.9835 5.61764 17.7138 5.32321L16.4612 3.95545C15.3201 2.7095 13.7082 2 12.0187 2H8.0241C4.69708 2 2 4.69708 2 8.0241V14.1038C2 17.267 4.5643 19.8313 7.72753 19.8313V18.3855C5.36278 18.3855 3.44578 16.4685 3.44578 14.1038V8.0241Z" fill="#4E5964"/>
<rect x="6" y="5" width="16" height="17" rx="5.5" fill="#4E5964"/>
</svg>
