<svg width="24" height="24" viewBox="0 0 24 24" fill="none" xmlns="http://www.w3.org/2000/svg">
<path d="M8.0241 3.44578C5.49556 3.44578 3.44578 5.49556 3.44578 8.0241V14.1038C3.44578 15.9466 4.60988 17.5174 6.24281 18.1211C6.43096 18.732 6.72265 19.2975 7.09739 19.7971C4.23065 19.4833 2 17.0541 2 14.1038V8.0241C2 4.69708 4.69708 2 8.0241 2H12.0187C13.7082 2 15.3201 2.7095 16.4612 3.95545L17.501 5.09088C17.1764 5.03119 16.8419 5 16.5 5H15.4573L15.395 4.93192C14.5277 3.985 13.3027 3.44578 12.0187 3.44578H8.0241Z" fill="#4E5964"/>
<rect x="6" y="5" width="16" height="17" rx="5.5" fill="#4E5964"/>
</svg>
