<svg width="24" height="24" viewBox="0 0 24 24" fill="none" xmlns="http://www.w3.org/2000/svg">
<path d="M15.0466 19.5138C15.4608 19.5138 15.7966 19.8496 15.7966 20.2638C15.7966 20.678 15.4608 21.0138 15.0466 21.0138H9.04662C8.63244 21.0138 8.29667 20.6779 8.29662 20.2638C8.29663 19.8496 8.63241 19.5138 9.04662 19.5138H15.0466Z" fill="#4E5964"/>
<path d="M10.4814 3.21762C11.1263 1.92778 12.9673 1.92779 13.6122 3.21762L16.2607 8.5145C16.3235 8.63959 16.4767 8.68826 16.6005 8.62289L18.3076 7.7225L18.3183 7.71664L18.329 7.71176C19.2049 7.28488 20.0875 7.58352 20.6367 8.17368C21.1753 8.75257 21.4342 9.63171 21.2236 10.5301L21.2109 10.5848L21.1894 10.6366L18.9941 16.1288C18.7283 16.7931 18.0847 17.2293 17.3691 17.2293H6.67084C5.95532 17.2292 5.31147 16.7932 5.04584 16.1288L2.8515 10.6366L2.83002 10.5848L2.81732 10.5301C2.60667 9.63172 2.86558 8.75257 3.40424 8.17368C3.91916 7.62038 4.72702 7.32347 5.54779 7.64047L5.71185 7.71176L5.72748 7.71957L7.49115 8.63168C7.61495 8.69564 7.76671 8.64599 7.82904 8.52133L10.4814 3.21762Z" fill="#4E5964"/>
</svg>
