<svg width="24" height="24" viewBox="0 0 24 24" fill="none" xmlns="http://www.w3.org/2000/svg">
<path d="M4.45254 16.6666L2.06937 10.4342C1.66797 8.80414 3.08051 7.35866 4.45254 7.99542L6.51705 8.95357C7.44309 9.38335 8.49698 8.85739 8.85126 7.78863L11 2.99997C11.5 1.5 13.5 1.5 14 3.00002L15.7225 7.94673C16.1614 8.93982 17.2161 9.34599 18.0908 8.85882L19.4392 8.10786C20.7099 7.4002 22.1545 8.58589 21.9866 10.1792C21.9836 10.2078 21.9795 10.233 21.9738 10.2612C21.8745 10.7499 20.8676 15.7114 20.75 16.6666C20.6263 17.6716 20.3266 18 19.4392 18H5.75C4.9526 18 4.6687 17.5445 4.45254 16.6666Z" fill="#4E5964"/>
<path d="M9 19.25C8.58579 19.25 8.25 19.5858 8.25 20C8.25 20.4142 8.58579 20.75 9 20.75H15C15.4142 20.75 15.75 20.4142 15.75 20C15.75 19.5858 15.4142 19.25 15 19.25H9Z" fill="#4E5964"/>
</svg>
