<svg width="24" height="24" viewBox="0 0 24 24" fill="none" xmlns="http://www.w3.org/2000/svg">
<path fill-rule="evenodd" clip-rule="evenodd" d="M12.2841 2.72906C12.7266 2.73858 13.0938 2.91337 13.3795 3.2202C13.629 3.48807 13.7978 3.83864 13.9363 4.16648L15.654 7.89504C15.6672 7.92366 15.6786 7.95307 15.688 7.98311C15.7712 8.24655 15.9219 8.40064 16.0548 8.47031C16.1802 8.53601 16.3101 8.54136 16.4421 8.47701L18.0323 7.70195C18.9082 7.27504 19.7909 7.5738 20.34 8.16398C20.8787 8.74288 21.1374 9.62169 20.9267 10.5201L20.9165 10.5635L19.0805 15.6062C18.9943 15.9636 18.8667 16.3655 18.6029 16.6789C18.4806 16.8243 18.3417 16.9371 18.1901 17.0211C18.0565 17.1439 17.8783 17.2189 17.6825 17.2189H12.2681C12.2621 17.2191 12.256 17.2192 12.25 17.2192H6.31746C6.12169 17.2192 5.94344 17.1442 5.80988 17.0213C5.65827 16.9373 5.51938 16.8245 5.39705 16.6792C5.13322 16.3657 5.00561 15.9638 4.91943 15.6064L3.09867 10.6057C3.0885 10.5778 3.08 10.5492 3.07321 10.5203C2.86255 9.6219 3.12125 8.74309 3.65991 8.1642C4.20907 7.57402 5.09174 7.27525 5.96763 7.70217L7.55781 8.47723C7.68983 8.54157 7.81979 8.53623 7.94515 8.47053C8.07807 8.40086 8.22876 8.24677 8.31191 7.98332L8.32615 7.93822L10.0638 4.1664C10.34 3.51543 10.7949 2.86712 11.6354 2.73747M11.6354 2.73747C11.6884 2.7293 11.7382 2.72724 11.7551 2.72656L11.7562 2.72652C11.783 2.72544 11.8114 2.72491 11.8376 2.72464C11.8906 2.72409 11.9518 2.72443 12.0086 2.72503C12.0661 2.72564 12.1231 2.72657 12.1683 2.72733L12.2262 2.7283L12.2452 2.72858L12.251 2.72865L12.253 2.72867C12.2558 2.72868 12.2585 2.7287 12.2613 2.72872L12.2685 2.72875C12.2717 2.72879 12.2772 2.72887 12.2841 2.72906M7.99997 19.8067C7.99997 19.3925 8.33576 19.0567 8.74997 19.0567H15C15.4142 19.0567 15.75 19.3925 15.75 19.8067C15.75 20.2209 15.4142 20.5567 15 20.5567H8.74997C8.33576 20.5567 7.99997 20.2209 7.99997 19.8067Z" fill="#4E5964"/>
</svg>
