<svg width="24" height="24" viewBox="0 0 24 24" fill="none" xmlns="http://www.w3.org/2000/svg">
<path fill-rule="evenodd" clip-rule="evenodd" d="M4.45254 16.6667L2.06937 10.4342C1.66797 8.80417 3.08051 7.35869 4.45254 7.99546L6.51705 8.95361C7.44309 9.38339 8.49698 8.85743 8.85126 7.78867L10.3344 3.31446C10.8831 1.65922 12.8898 1.53787 13.5881 3.1177L15.7225 7.94677C16.1614 8.93985 17.2161 9.34603 18.0908 8.85886L19.4392 8.1079C20.7099 7.40024 22.1545 8.58593 21.9866 10.1793C21.9836 10.2079 21.9795 10.2331 21.9738 10.2613C21.8745 10.75 20.8676 15.7114 20.75 16.6667C20.6263 17.6716 20.3266 18 19.4392 18H5.75C4.9526 18 4.6687 17.5445 4.45254 16.6667ZM9 19.25C8.58579 19.25 8.25 19.5858 8.25 20C8.25 20.4142 8.58579 20.75 9 20.75H15C15.4142 20.75 15.75 20.4142 15.75 20C15.75 19.5858 15.4142 19.25 15 19.25H9Z" fill="#4E5964"/>
</svg>
