<svg width="24" height="25" viewBox="0 0 24 25" fill="none" xmlns="http://www.w3.org/2000/svg">
<g clip-path="url(#clip0_11478_12275)">
<path d="M19.904 6.52539H19.248L19.417 5.73839L19.431 5.67539L19.484 5.43339L19.474 5.43139C19.48 5.37739 19.5 5.33139 19.5 5.27539C19.5 4.61839 19.04 4.15939 18.619 3.87539C18.173 3.57339 17.576 3.33139 16.905 3.14039C15.554 2.75439 13.732 2.52539 11.75 2.52539C9.768 2.52539 7.945 2.75439 6.594 3.14039C5.924 3.33139 5.327 3.57439 4.88 3.87539C4.46 4.15939 4 4.61839 4 5.27539C4 5.33139 4.021 5.37839 4.026 5.43139L4.016 5.43339L4.069 5.67539L4.083 5.73839L4.252 6.52539H3.596C2.705 6.52539 2 7.25439 2 8.13239V9.84639C2 12.1014 3.867 13.8884 6.033 14.0034C6.663 15.3094 7.801 16.2904 9.18 16.7234C9.159 16.7334 9.135 16.7424 9.124 16.7574C9.145 16.9054 9.153 17.2204 9.02 17.7634C8.912 18.2054 8.653 18.7244 8.335 19.2334C8.023 19.7324 7.683 20.1764 7.452 20.4624C6.958 21.0724 7.372 22.0254 8.194 22.0254H15.3C16.123 22.0254 16.537 21.0724 16.043 20.4624C15.812 20.1764 15.472 19.7324 15.16 19.2334C14.842 18.7244 14.584 18.2054 14.475 17.7634C14.341 17.2204 14.351 16.9054 14.371 16.7574C14.375 16.7314 14.366 16.7274 14.365 16.7084C15.722 16.2674 16.841 15.2934 17.463 14.0034C19.629 13.8884 21.496 12.1014 21.496 9.84639V8.13239C21.496 7.25439 20.791 6.52539 19.9 6.52539H19.904ZM3.501 9.92339C3.501 9.92339 3.501 8.24739 3.501 8.13239C3.501 8.01739 3.611 8.02539 3.611 8.02539H4.577L5.524 12.4134C3.473 11.7444 3.501 9.92339 3.501 9.92339ZM11.75 6.52539C6.939 6.52539 5.528 5.27539 5.528 5.27539C5.528 5.27539 6.834 4.02539 11.75 4.02539C16.666 4.02539 17.971 5.27539 17.971 5.27539C17.971 5.27539 16.561 6.52539 11.75 6.52539ZM19.999 9.92339C19.999 9.92339 20.027 11.7434 17.977 12.4134L18.924 8.02539H19.89C19.89 8.02539 20 8.01739 20 8.13239C20 8.24739 19.999 9.92339 19.999 9.92339Z" fill="#4E5964"/>
</g>
<defs>
<clipPath id="clip0_11478_12275">
<rect width="19.5" height="19.5" fill="white" transform="translate(2 2.52539)"/>
</clipPath>
</defs>
</svg>
