<svg width="24" height="24" viewBox="0 0 24 24" fill="none" xmlns="http://www.w3.org/2000/svg">
<g clip-path="url(#clip0_11478_12275)">
<path d="M19.904 6.25H19.248L19.417 5.463L19.431 5.4L19.484 5.158L19.474 5.156C19.48 5.102 19.5 5.056 19.5 5C19.5 4.343 19.04 3.884 18.619 3.6C18.173 3.298 17.576 3.056 16.905 2.865C15.554 2.479 13.732 2.25 11.75 2.25C9.768 2.25 7.945 2.479 6.594 2.865C5.924 3.056 5.327 3.299 4.88 3.6C4.46 3.884 4 4.343 4 5C4 5.056 4.021 5.103 4.026 5.156L4.016 5.158L4.069 5.4L4.083 5.463L4.252 6.25H3.596C2.705 6.25 2 6.979 2 7.857V9.571C2 11.826 3.867 13.613 6.033 13.728C6.663 15.034 7.801 16.015 9.18 16.448C9.159 16.458 9.135 16.467 9.124 16.482C9.145 16.63 9.153 16.945 9.02 17.488C8.912 17.93 8.653 18.449 8.335 18.958C8.023 19.457 7.683 19.901 7.452 20.187C6.958 20.797 7.372 21.75 8.194 21.75H15.3C16.123 21.75 16.537 20.797 16.043 20.187C15.812 19.901 15.472 19.457 15.16 18.958C14.842 18.449 14.584 17.93 14.475 17.488C14.341 16.945 14.351 16.63 14.371 16.482C14.375 16.456 14.366 16.452 14.365 16.433C15.722 15.992 16.841 15.018 17.463 13.728C19.629 13.613 21.496 11.826 21.496 9.571V7.857C21.496 6.979 20.791 6.25 19.9 6.25H19.904ZM3.501 9.648C3.501 9.648 3.501 7.972 3.501 7.857C3.501 7.742 3.611 7.75 3.611 7.75H4.577L5.524 12.138C3.473 11.469 3.501 9.648 3.501 9.648ZM11.75 6.25C6.939 6.25 5.528 5 5.528 5C5.528 5 6.834 3.75 11.75 3.75C16.666 3.75 17.971 5 17.971 5C17.971 5 16.561 6.25 11.75 6.25ZM19.999 9.648C19.999 9.648 20.027 11.468 17.977 12.138L18.924 7.75H19.89C19.89 7.75 20 7.742 20 7.857C20 7.972 19.999 9.648 19.999 9.648Z" fill="#4E5964"/>
</g>
<defs>
<clipPath id="clip0_11478_12275">
<rect width="19.5" height="19.5" fill="white" transform="translate(2 2.25)"/>
</clipPath>
</defs>
</svg>
