<svg width="24" height="24" viewBox="0 0 24 24" fill="none" xmlns="http://www.w3.org/2000/svg">
<path d="M20.6396 15.5898C20.5268 15.7149 20.4066 15.8342 20.2783 15.9463L14.8379 20.6982C14.2268 21.2321 13.5027 21.5616 12.752 21.6885V18.5312L17.9639 16.707L17.9854 16.7002L18.0059 16.6914L20.6396 15.5898ZM6.53516 16.9248L6.54883 16.9297L11.252 18.5352V21.6729C10.532 21.5359 9.8397 21.2117 9.25195 20.6982L3.72559 15.8711C3.7103 15.8577 3.69573 15.8436 3.68066 15.8301L6.53516 16.9248ZM16.7412 15.5459L11.998 17.2061L7.74316 15.752L12.0391 3.20508L16.7412 15.5459ZM6.33203 15.2402L2.39844 13.7314C2.30267 13.3711 2.25197 12.9963 2.25195 12.6162V11.3408C2.25206 10.1031 2.78065 8.92278 3.70508 8.10449L9.1123 3.31836C9.59166 2.89409 10.142 2.59651 10.7207 2.4248L6.33203 15.2402ZM13.3779 2.50586C13.8662 2.68379 14.3294 2.95382 14.7402 3.31738L20.2324 8.17871C21.0978 8.94473 21.618 10.0304 21.6787 11.1875L21.7461 12.4648C21.765 12.8272 21.7361 13.1864 21.667 13.5352L18.1406 15.0088L13.3779 2.50586Z" fill="#4E5964"/>
</svg>
