<svg width="24" height="24" viewBox="0 0 24 24" fill="none" xmlns="http://www.w3.org/2000/svg">
<path d="M11.1741 17.9022V21.826H10.1008C9.08293 21.8259 8.09646 21.4667 7.31666 20.8124L4.40944 18.3729C4.28307 18.2669 4.16458 18.1528 4.05201 18.0341L4.8899 17.1962L5.23268 16.8905L6.94069 15.3622L11.1741 17.9022ZM19.9631 18.0145C19.8455 18.1401 19.7212 18.2613 19.5881 18.3729L16.6799 20.8124C15.9002 21.4664 14.9145 21.8259 13.8967 21.826H12.8235V17.9159L17.3176 15.369L19.9631 18.0145ZM5.78053 6.10828L7.89088 8.36511L6.12526 13.8778L3.77272 15.9833L3.75514 15.9989L3.14967 16.6034C3.05152 16.3472 2.97626 16.0809 2.92799 15.8075L2.26881 12.0692C2.09207 11.0669 2.27477 10.0338 2.78346 9.15222L4.68092 5.86413C4.78413 5.68539 4.90036 5.51503 5.02662 5.35437L5.78053 6.10828ZM18.97 5.35535C19.0958 5.51558 19.2117 5.68485 19.3147 5.86316L21.2141 9.15222C21.7229 10.0338 21.9045 11.0668 21.7278 12.0692L21.0686 15.8075C21.022 16.0713 20.9506 16.3282 20.8577 16.576L18.1692 13.8876L16.1223 8.34753L18.1985 6.12781L18.97 5.35535ZM16.4407 13.9706L12.011 16.4803L7.82838 13.9716L9.42701 8.98132H14.5979L16.4407 13.9706ZM10.5169 2.66199C11.4735 2.31382 12.5231 2.31387 13.4797 2.66199L17.0462 3.96081C17.2804 4.04607 17.5062 4.14987 17.72 4.27234L17.0217 4.97156L17.013 4.98132L16.6633 5.35437L14.8157 7.33093H9.18287L6.98561 4.98132L6.2776 4.27331C6.49134 4.1508 6.71632 4.04608 6.95045 3.96081L10.5169 2.66199Z" fill="#4E5964"/>
</svg>
