<svg width="24" height="24" viewBox="0 0 24 24" fill="none" xmlns="http://www.w3.org/2000/svg">
<path d="M11.25 17.8086V21.6807C10.7533 21.591 10.268 21.4136 9.81836 21.1445L5.41113 18.5068C4.87488 18.1859 4.42409 17.7569 4.07422 17.2578L11.25 17.8086Z" fill="#4E5964"/>
<path d="M19.9248 17.2578C19.575 17.7567 19.125 18.186 18.5889 18.5068L14.1816 21.1445C13.732 21.4136 13.2467 21.591 12.75 21.6807V17.8086L19.9248 17.2578Z" fill="#4E5964"/>
<path d="M10.7148 16.2627L5.28223 15.8457L7.97559 11.4688L10.7148 16.2627Z" fill="#4E5964"/>
<path d="M18.7168 15.8457L13.2842 16.2627L16.0234 11.4697L18.7168 15.8457Z" fill="#4E5964"/>
<path d="M7.02832 10.1465L3.44727 15.9658C3.31898 15.5408 3.25001 15.0939 3.25 14.6377V9.3623C3.25 8.62575 3.42752 7.91291 3.75098 7.2793L7.02832 10.1465Z" fill="#4E5964"/>
<path d="M20.248 7.2793C20.5716 7.91301 20.75 8.6256 20.75 9.3623V14.6377C20.75 15.0937 20.6799 15.54 20.5518 15.9648L16.9707 10.1465L20.248 7.2793Z" fill="#4E5964"/>
<path d="M12 15.4873L9.29297 10.75H14.707L12 15.4873Z" fill="#4E5964"/>
<path d="M14.6475 9.25H9.28223L11.8232 4.73145L14.6475 9.25Z" fill="#4E5964"/>
<path d="M13.1318 2.4043C13.4948 2.50518 13.8479 2.65573 14.1816 2.85547L18.5889 5.49316C18.8658 5.6589 19.1191 5.8544 19.3486 6.07227L16.168 8.85449L12.6602 3.24219L13.1318 2.4043Z" fill="#4E5964"/>
<path d="M10.917 3.28223L7.79785 8.82617L4.65039 6.07227C4.88008 5.8542 5.13401 5.65903 5.41113 5.49316L9.81836 2.85547C10.0241 2.73234 10.2378 2.62951 10.4561 2.54395L10.917 3.28223Z" fill="#4E5964"/>
</svg>
