<svg width="24" height="24" viewBox="0 0 24 24" fill="none" xmlns="http://www.w3.org/2000/svg">
<path d="M11.3838 12.4626V21.7546C10.8314 21.6741 10.2902 21.4863 9.79199 21.1882L5.38477 18.5505C4.02404 17.7361 3.19931 16.2407 3.19922 14.6384V9.36297C3.19922 8.85469 3.28173 8.35676 3.43848 7.88836L11.3838 12.4626Z" fill="#4E5964"/>
<path d="M20.5615 7.89617C20.7166 8.36235 20.7988 8.85744 20.7988 9.36297V14.6384C20.7987 16.2407 19.974 17.7361 18.6133 18.5505L14.2061 21.1882C13.8199 21.4193 13.4073 21.582 12.9844 21.6823V12.4528L20.5615 7.89617Z" fill="#4E5964"/>
<path d="M9.79199 2.81316C11.1565 1.99652 12.8416 1.99652 14.2061 2.81316L18.6133 5.45086C19.0732 5.72616 19.4706 6.08024 19.7969 6.48895L12.1748 11.072L4.20508 6.48309C4.53058 6.0767 4.92687 5.72493 5.38477 5.45086L9.79199 2.81316Z" fill="#4E5964"/>
</svg>
