<svg width="24" height="24" viewBox="0 0 24 24" fill="none" xmlns="http://www.w3.org/2000/svg">
<path d="M20.291 16.75C19.914 17.4858 19.3419 18.1159 18.6152 18.5508L14.208 21.1885C12.8436 22.005 11.1583 22.005 9.79395 21.1885L5.38672 18.5508C4.6601 18.1159 4.08793 17.4858 3.71094 16.75H20.291ZM19.1689 15.25H4.83496L12.001 3.44629L19.1689 15.25ZM3.21875 15.0205C3.20835 14.8941 3.20118 14.7668 3.20117 14.6387V9.36328C3.20117 7.7609 4.02599 6.26564 5.38672 5.45117L9.79395 2.81348C10.1505 2.60008 10.5291 2.44269 10.918 2.34082L3.21875 15.0205ZM13.0859 2.3418C13.4741 2.44368 13.8521 2.60046 14.208 2.81348L18.6152 5.45117C19.976 6.26564 20.8008 7.7609 20.8008 9.36328V14.6387C20.8008 14.7658 20.7934 14.8921 20.7832 15.0176L13.0859 2.3418Z" fill="#4E5964"/>
</svg>
