<svg width="24" height="24" viewBox="0 0 24 24" fill="none" xmlns="http://www.w3.org/2000/svg">
<path fill-rule="evenodd" clip-rule="evenodd" d="M12 2.25C14.5371 2.25 16.8631 2.55701 18.5791 3.07031C19.4322 3.32551 20.1771 3.64426 20.7256 4.03223C21.2544 4.40623 21.75 4.95603 21.75 5.69238V18C21.75 18.7426 21.2978 19.3305 20.7568 19.7568C20.2076 20.1897 19.4594 20.5471 18.6016 20.833C16.8777 21.4076 14.5434 21.75 12 21.75C9.45656 21.75 7.12231 21.4076 5.39844 20.833C4.5406 20.5471 3.79245 20.1897 3.24316 19.7568C2.70222 19.3305 2.25 18.7426 2.25 18V5.69238C2.25 4.95603 2.74564 4.40623 3.27441 4.03223C3.82294 3.64426 4.56781 3.32551 5.4209 3.07031C7.13693 2.55701 9.46293 2.25 12 2.25ZM18.2656 18.0068C18.1382 17.6129 17.7153 17.3972 17.3213 17.5244L16.8457 17.6777C16.4517 17.8051 16.2351 18.228 16.3623 18.6221C16.4896 19.016 16.9126 19.2326 17.3066 19.1055L17.7822 18.9512C18.1764 18.8239 18.3929 18.401 18.2656 18.0068ZM20.25 14C20.25 14.086 20.198 14.2876 19.8281 14.5791C19.4666 14.8639 18.8973 15.1534 18.127 15.4102C16.5935 15.9213 14.4271 16.25 12 16.25C9.57287 16.25 7.40653 15.9213 5.87305 15.4102C5.10267 15.1534 4.53336 14.8639 4.17188 14.5791C3.80197 14.2876 3.75 14.086 3.75 14V16.0996C4.22064 16.3816 4.78035 16.627 5.39844 16.833C7.12231 17.4076 9.45656 17.75 12 17.75C14.5434 17.75 16.8777 17.4076 18.6016 16.833C19.2197 16.627 19.7796 16.3819 20.25 16.0996V14ZM18.2656 14.0068C18.1382 13.6129 17.7153 13.3972 17.3213 13.5244L16.8457 13.6777C16.4517 13.8051 16.2351 14.228 16.3623 14.6221C16.4896 15.016 16.9126 15.2326 17.3066 15.1055L17.7822 14.9512C18.1764 14.8239 18.3929 14.401 18.2656 14.0068ZM20.25 10C20.25 10.086 20.198 10.2876 19.8281 10.5791C19.4666 10.8639 18.8973 11.1534 18.127 11.4102C16.5935 11.9213 14.4271 12.25 12 12.25C9.57287 12.25 7.40653 11.9213 5.87305 11.4102C5.10267 11.1534 4.53336 10.8639 4.17188 10.5791C3.80197 10.2876 3.75 10.086 3.75 10V12.1006C4.22074 12.3822 4.78057 12.627 5.39844 12.833C7.12231 13.4076 9.45656 13.75 12 13.75C14.5434 13.75 16.8777 13.4076 18.6016 12.833C19.2194 12.627 19.7793 12.3822 20.25 12.1006V10ZM18.291 10.0322C18.1636 9.63834 17.7407 9.42261 17.3467 9.5498L16.8711 9.70312C16.4771 9.83046 16.2605 10.2534 16.3877 10.6475C16.515 11.0414 16.938 11.258 17.332 11.1309L17.8076 10.9766C18.2018 10.8493 18.4183 10.4264 18.291 10.0322ZM12 3.75C9.5665 3.75 7.39191 4.04579 5.85059 4.50684C5.07531 4.73876 4.50284 5.00066 4.14062 5.25684C3.75855 5.52707 3.75 5.68512 3.75 5.69238V6C3.75 6.08605 3.80197 6.28757 4.17188 6.5791C4.53336 6.86389 5.10267 7.15338 5.87305 7.41016C7.40653 7.92128 9.57287 8.25 12 8.25C14.4271 8.25 16.5935 7.92128 18.127 7.41016C18.8973 7.15338 19.4666 6.86389 19.8281 6.5791C20.198 6.28757 20.25 6.08605 20.25 6V5.69238C20.25 5.68512 20.2414 5.52707 19.8594 5.25684C19.4972 5.00066 18.9247 4.73876 18.1494 4.50684C16.6081 4.04579 14.4335 3.75 12 3.75Z" fill="#4E5964"/>
</svg>
