<svg width="24" height="24" viewBox="0 0 24 24" fill="none" xmlns="http://www.w3.org/2000/svg">
<path d="M11.25 4.00024C11.25 4.41446 11.5858 4.75024 12 4.75024C12.4143 4.75024 12.75 4.41446 12.75 4.00024V3.00024C12.75 2.58603 12.4143 2.25024 12 2.25024C11.5858 2.25024 11.25 2.58603 11.25 3.00024V4.00024Z" fill="#4E5964"/>
<path d="M17.2228 4.5628C17.5156 4.26991 17.5156 3.79503 17.2228 3.50214C16.9299 3.20925 16.455 3.20925 16.1621 3.50214L15.4212 4.24304C15.1283 4.53593 15.1283 5.0108 15.4212 5.3037C15.7141 5.59659 16.189 5.59659 16.4819 5.3037L17.2228 4.5628Z" fill="#4E5964"/>
<path d="M8.25889 5.30352C7.966 5.59642 7.49112 5.59642 7.19823 5.30352L6.45733 4.56263C6.16444 4.26973 6.16444 3.79486 6.45733 3.50197C6.75023 3.20907 7.2251 3.20907 7.51799 3.50197L8.25889 4.24286C8.55178 4.53576 8.55178 5.01063 8.25889 5.30352Z" fill="#4E5964"/>
<path d="M8.38003 10.5007L9.85196 6.25024H7.74927C7.14587 6.25024 6.56654 6.46368 6.09778 6.84634L4.311 8.30488C3.63678 8.85525 3.27717 9.67021 3.252 10.5007H8.38003Z" fill="#4E5964"/>
<path d="M9.96742 10.5007L11.4394 6.25024H12.5618L14.0337 10.5007H9.96742Z" fill="#4E5964"/>
<path d="M15.6211 10.5007L14.1492 6.25024H16.2514C16.8548 6.25024 17.4342 6.46368 17.9029 6.84634L19.6897 8.30488C20.3639 8.85525 20.7235 9.67021 20.7487 10.5007H15.6211Z" fill="#4E5964"/>
<path d="M12.7506 12.0007H20.4069C20.341 12.1264 20.2654 12.2482 20.1801 12.365L14.1423 20.6355C13.7712 21.1437 13.2799 21.4782 12.7506 21.6389V12.0007Z" fill="#4E5964"/>
<path d="M11.2506 12.0007V21.639C10.7211 21.4784 10.2296 21.1439 9.85847 20.6355L3.82061 12.365C3.73532 12.2482 3.65975 12.1264 3.59379 12.0007H11.2506Z" fill="#4E5964"/>
<path d="M20.45 15.4002C20.7814 15.6488 20.8486 16.1189 20.6 16.4502L17.6 20.4502C17.3515 20.7816 16.8814 20.8488 16.55 20.6002C16.2187 20.3517 16.1515 19.8816 16.4 19.5502L19.4 15.5502C19.6486 15.2189 20.1187 15.1517 20.45 15.4002Z" fill="#4E5964"/>
<path d="M7.60004 19.5502C7.84857 19.8816 7.78141 20.3517 7.45004 20.6002C7.11867 20.8488 6.64857 20.7816 6.40004 20.4502L3.40004 16.4502C3.15152 16.1189 3.21867 15.6488 3.55004 15.4002C3.88142 15.1517 4.35152 15.2189 4.60004 15.5502L7.60004 19.5502Z" fill="#4E5964"/>
</svg>
