<svg width="24" height="24" viewBox="0 0 24 24" fill="none" xmlns="http://www.w3.org/2000/svg">
<path fill-rule="evenodd" clip-rule="evenodd" d="M2 6.66667V11.3333C2 13.5425 3.79086 15.3333 6 15.3333H6.66667C7.60745 15.3333 8.34613 16.1395 8.26412 17.0767L8.03988 19.6395C7.92884 20.9085 8.92902 22 10.2029 22C10.9114 22 11.5753 21.6543 11.9816 21.0739L13.6667 18.6667L15.1012 16.4759C15.6876 15.5804 16 14.5333 16 13.4629V12.1111C16 13.7066 17.2934 15 18.8889 15H19C20.6569 15 22 13.6569 22 12V5C22 3.34315 20.6569 2 19 2H18.8889C17.2934 2 16 3.2934 16 4.88889V6.97257C16 5.97919 15.7025 5.00857 15.1458 4.18584C14.2208 2.81891 12.6779 2 11.0274 2H6.66667C4.08934 2 2 4.08934 2 6.66667Z" fill="#4E5964"/>
</svg>
