<svg width="24" height="24" viewBox="0 0 24 24" fill="none" xmlns="http://www.w3.org/2000/svg">
<path d="M10.0101 21.75C10.8793 21.75 11.691 21.3156 12.1731 20.5924L13.6304 18.4065L14.9547 16.2831C15.1879 15.9092 15.3719 15.5093 15.5039 15.0933C16.0419 15.5052 16.7146 15.75 17.4444 15.75H18C20.0711 15.75 21.75 14.0711 21.75 12V7C21.75 4.92893 20.0711 3.25 18 3.25H17.4444C16.3952 3.25 15.4642 3.75582 14.8818 4.5369C13.9278 3.10951 12.3229 2.25 10.6022 2.25H7C4.37665 2.25 2.25 4.37665 2.25 7V11.4C2.25 13.8024 4.19756 15.75 6.6 15.75H7C7.36869 15.75 7.65864 16.0651 7.62802 16.4325L7.41952 18.9345C7.29322 20.4501 8.48927 21.75 10.0101 21.75Z" fill="#4E5964"/>
</svg>
