<svg width="24" height="24" viewBox="0 0 24 24" fill="none" xmlns="http://www.w3.org/2000/svg">
<path d="M10.0101 21.7498C10.8793 21.7498 11.691 21.3154 12.1731 20.5922L13.6304 18.4063L14.9547 16.2828C15.1879 15.9089 15.3719 15.509 15.5039 15.093C16.0419 15.505 16.7146 15.7498 17.4444 15.7498H18C20.0711 15.7498 21.75 14.0708 21.75 11.9998V6.99976C21.75 4.92869 20.0711 3.24976 18 3.24976H17.4444C16.3952 3.24976 15.4642 3.75557 14.8818 4.53665C13.9278 3.10927 12.3229 2.24976 10.6022 2.24976H7C4.37665 2.24976 2.25 4.3764 2.25 6.99976V11.3998C2.25 13.8022 4.19756 15.7498 6.6 15.7498H7C7.36869 15.7498 7.65864 16.0649 7.62802 16.4323L7.41952 18.9343C7.29322 20.4499 8.48927 21.7498 10.0101 21.7498Z" fill="#4E5964"/>
</svg>
