<svg width="24" height="25" viewBox="0 0 24 25" fill="none" xmlns="http://www.w3.org/2000/svg">
<path d="M10.0101 22.0308C10.8793 22.0308 11.691 21.5964 12.1731 20.8732L13.6304 18.6873L14.9547 16.5638C15.1879 16.1899 15.3719 15.79 15.5039 15.374C16.0419 15.786 16.7146 16.0308 17.4444 16.0308H18C20.0711 16.0308 21.75 14.3518 21.75 12.2808V7.28076C21.75 5.20969 20.0711 3.53076 18 3.53076H17.4444C16.3952 3.53076 15.4642 4.03658 14.8818 4.81766C13.9278 3.39028 12.3229 2.53076 10.6022 2.53076H7C4.37665 2.53076 2.25 4.65741 2.25 7.28076V11.6808C2.25 14.0832 4.19756 16.0308 6.6 16.0308H7C7.36869 16.0308 7.65864 16.3459 7.62802 16.7133L7.41952 19.2153C7.29322 20.7309 8.48927 22.0308 10.0101 22.0308Z" fill="#4E5964"/>
</svg>
