<svg width="24" height="24" viewBox="0 0 24 24" fill="none" xmlns="http://www.w3.org/2000/svg">
<path fill-rule="evenodd" clip-rule="evenodd" d="M2 6.66667V10.9655V11.3333C2 13.5425 3.79086 15.3333 6 15.3333H6.66667C7.60745 15.3333 8.34613 16.1395 8.26412 17.0767L8.03988 19.6395C7.92884 20.9085 8.92902 22 10.2029 22C10.9114 22 11.5753 21.6543 11.9816 21.0739L13.6667 18.6667L15.1012 16.4759C15.6876 15.5804 16 14.5333 16 13.4629V12.1111C16 13.7066 17.2934 15 18.8889 15H19C20.6569 15 22 13.6569 22 12V8.5V5C22 3.34315 20.6569 2 19 2H18.8889C17.2934 2 16 3.2934 16 4.88889V6.97257C16 5.97919 15.7025 5.00857 15.1458 4.18584C14.2208 2.81891 12.6779 2 11.0274 2H6.66667C4.08934 2 2 4.08934 2 6.66667Z" fill="#4E5964"/>
<path d="M6.66667 15.3333V16.0833V15.3333ZM8.26412 17.0767L9.01127 17.142L8.26412 17.0767ZM8.03988 19.6395L7.29273 19.5741V19.5741L8.03988 19.6395ZM11.9816 21.0739L12.596 21.504V21.504L11.9816 21.0739ZM13.6667 18.6667L14.2811 19.0968L14.2877 19.0873L14.2941 19.0775L13.6667 18.6667ZM15.1012 16.4759L14.4738 16.0651L15.1012 16.4759ZM15.1458 4.18584L15.7669 3.76552L15.1458 4.18584ZM2.75 10.9655V6.66667H1.25V10.9655H2.75ZM2.75 11.3333V10.9655H1.25V11.3333H2.75ZM6 14.5833C4.20508 14.5833 2.75 13.1283 2.75 11.3333H1.25C1.25 13.9567 3.37665 16.0833 6 16.0833V14.5833ZM6.66667 14.5833H6V16.0833H6.66667V14.5833ZM9.01127 17.142C9.13163 15.7665 8.04747 14.5833 6.66667 14.5833V16.0833C7.16744 16.0833 7.56063 16.5124 7.51698 17.0113L9.01127 17.142ZM8.78702 19.7049L9.01127 17.142L7.51698 17.0113L7.29273 19.5741L8.78702 19.7049ZM10.2029 21.25C9.36904 21.25 8.71434 20.5355 8.78702 19.7049L7.29273 19.5741C7.14334 21.2814 8.48901 22.75 10.2029 22.75V21.25ZM11.3672 20.6438C11.1012 21.0237 10.6666 21.25 10.2029 21.25V22.75C11.1561 22.75 12.0494 22.2849 12.596 21.504L11.3672 20.6438ZM13.0522 18.2366L11.3672 20.6438L12.596 21.504L14.2811 19.0968L13.0522 18.2366ZM14.4738 16.0651L13.0392 18.2558L14.2941 19.0775L15.7287 16.8868L14.4738 16.0651ZM15.25 13.4629C15.25 14.3873 14.9802 15.2917 14.4738 16.0651L15.7287 16.8868C16.3951 15.8692 16.75 14.6793 16.75 13.4629H15.25ZM15.25 12.1111V13.4629H16.75V12.1111H15.25ZM18.8889 14.25C17.7076 14.25 16.75 13.2924 16.75 12.1111H15.25C15.25 14.1208 16.8792 15.75 18.8889 15.75V14.25ZM19 14.25H18.8889V15.75H19V14.25ZM21.25 12C21.25 13.2426 20.2426 14.25 19 14.25V15.75C21.0711 15.75 22.75 14.0711 22.75 12H21.25ZM21.25 8.5V12H22.75V8.5H21.25ZM21.25 5V8.5H22.75V5H21.25ZM19 2.75C20.2426 2.75 21.25 3.75736 21.25 5H22.75C22.75 2.92893 21.0711 1.25 19 1.25V2.75ZM18.8889 2.75H19V1.25H18.8889V2.75ZM16.75 4.88889C16.75 3.70761 17.7076 2.75 18.8889 2.75V1.25C16.8792 1.25 15.25 2.87919 15.25 4.88889H16.75ZM16.75 6.97257V4.88889H15.25V6.97257H16.75ZM14.5246 4.60615C14.9973 5.3048 15.25 6.12901 15.25 6.97257H16.75C16.75 5.82936 16.4076 4.71234 15.7669 3.76552L14.5246 4.60615ZM11.0274 2.75C12.429 2.75 13.7392 3.4454 14.5246 4.60615L15.7669 3.76552C14.7024 2.19243 12.9268 1.25 11.0274 1.25V2.75ZM6.66667 2.75H11.0274V1.25H6.66667V2.75ZM2.75 6.66667C2.75 4.50355 4.50355 2.75 6.66667 2.75V1.25C3.67513 1.25 1.25 3.67513 1.25 6.66667H2.75Z" fill="#4E5964"/>
</svg>
