<svg width="24" height="24" viewBox="0 0 24 24" fill="none" xmlns="http://www.w3.org/2000/svg">
<path fill-rule="evenodd" clip-rule="evenodd" d="M7.5 2.25H14.2838C14.2542 2.35337 14.25 2.44432 14.25 2.5V7.67222C14.25 8.38968 14.8957 8.74999 15.3933 8.74999L21.5 8.74999C21.5489 8.74999 21.6171 8.74727 21.6931 8.73289C21.7084 8.72998 21.7277 8.72596 21.75 8.72019V16.5C21.75 19.3995 19.3995 21.75 16.5 21.75H7.5C4.60051 21.75 2.25 19.3995 2.25 16.5V7.5C2.25 4.60051 4.60051 2.25 7.5 2.25ZM14.5303 13.4697L12.5303 11.4697C12.2374 11.1768 11.7626 11.1768 11.4697 11.4697L9.46967 13.4697C9.17678 13.7626 9.17678 14.2374 9.46967 14.5303C9.76256 14.8232 10.2374 14.8232 10.5303 14.5303L11.25 13.8107V18C11.25 18.4142 11.5858 18.75 12 18.75C12.4142 18.75 12.75 18.4142 12.75 18V13.8107L13.4697 14.5303C13.7626 14.8232 14.2374 14.8232 14.5303 14.5303C14.8232 14.2374 14.8232 13.7626 14.5303 13.4697ZM6 10.25C6 9.83579 6.33579 9.5 6.75 9.5H8.25C8.66421 9.5 9 9.83579 9 10.25C9 10.6642 8.66421 11 8.25 11H6.75C6.33579 11 6 10.6642 6 10.25ZM6.75 6.5C6.33579 6.5 6 6.83579 6 7.25C6 7.66421 6.33579 8 6.75 8H11.25C11.6642 8 12 7.66421 12 7.25C12 6.83579 11.6642 6.5 11.25 6.5H6.75Z" fill="#4E5964"/>
<path d="M15.75 4.13839L19.4839 7.24999L15.75 7.24999V4.13839Z" fill="#4E5964"/>
</svg>
