<svg width="24" height="24" viewBox="0 0 24 24" fill="none" xmlns="http://www.w3.org/2000/svg">
<path fill-rule="evenodd" clip-rule="evenodd" d="M21.8328 17.8513C20.5859 19.0291 18.8436 19.75 16.95 19.75H7.05C5.15643 19.75 3.41412 19.0291 2.16722 17.8513C2.76949 20.2355 4.92868 22 7.5 22H16.5C19.0713 22 21.2305 20.2355 21.8328 17.8513ZM22 8.30317V14.9386C21.3268 16.8281 19.3628 18.25 16.95 18.25H7.05C4.63719 18.25 2.67317 16.8281 2 14.9386V8.5C2 5.46243 4.46243 3 7.5 3H8H10H12H14H16H16.6968C19.6257 3 22 5.37431 22 8.30317ZM7 9.25C7 8.83579 7.33579 8.5 7.75 8.5H14.25C14.6642 8.5 15 8.83579 15 9.25C15 9.66421 14.6642 10 14.25 10H7.75C7.33579 10 7 9.66421 7 9.25ZM7 12.25C7 11.8358 7.33579 11.5 7.75 11.5H11.25C11.6642 11.5 12 11.8358 12 12.25C12 12.6642 11.6642 13 11.25 13H7.75C7.33579 13 7 12.6642 7 12.25ZM15 1.25C15.4142 1.25 15.75 1.58579 15.75 2V4.28571C15.75 4.69993 15.4142 5.03571 15 5.03571C14.5858 5.03571 14.25 4.69993 14.25 4.28571V2C14.25 1.58579 14.5858 1.25 15 1.25ZM9 1.25C9.41421 1.25 9.75 1.58579 9.75 2V4.28571C9.75 4.69993 9.41421 5.03571 9 5.03571C8.58579 5.03571 8.25 4.69993 8.25 4.28571V2C8.25 1.58579 8.58579 1.25 9 1.25Z" fill="#4E5964"/>
</svg>
