<svg width="24" height="24" viewBox="0 0 24 24" fill="none" xmlns="http://www.w3.org/2000/svg">
<path fill-rule="evenodd" clip-rule="evenodd" d="M14.2838 2.25H7.5C4.60051 2.25 2.25 4.60051 2.25 7.5V16.5C2.25 19.3995 4.60051 21.75 7.5 21.75H16.5C19.3995 21.75 21.75 19.3995 21.75 16.5V8.72019C21.7277 8.72596 21.7084 8.72998 21.6931 8.73289C21.6171 8.74727 21.5489 8.74999 21.5 8.74999L15.3933 8.74999C14.8957 8.74999 14.25 8.38968 14.25 7.67222V2.5C14.25 2.44432 14.2542 2.35337 14.2838 2.25ZM6 13.25C6 12.8358 6.33579 12.5 6.75 12.5H11.25C11.6642 12.5 12 12.8358 12 13.25C12 13.6642 11.6642 14 11.25 14H6.75C6.33579 14 6 13.6642 6 13.25ZM6.75 15.5C6.33579 15.5 6 15.8358 6 16.25C6 16.6642 6.33579 17 6.75 17H8.25C8.66421 17 9 16.6642 9 16.25C9 15.8358 8.66421 15.5 8.25 15.5H6.75Z" fill="#4E5964"/>
<path d="M19.4839 7.24999L15.75 4.13839V7.24999L19.4839 7.24999Z" fill="#4E5964"/>
</svg>
