<svg width="24" height="24" viewBox="0 0 24 24" fill="none" xmlns="http://www.w3.org/2000/svg">
<path fill-rule="evenodd" clip-rule="evenodd" d="M7.5 2.25H14.2838C14.2542 2.35337 14.25 2.44432 14.25 2.5V7.67222C14.25 8.38968 14.8957 8.74999 15.3933 8.74999L21.5 8.74999C21.5489 8.74999 21.6171 8.74727 21.6931 8.73289C21.7084 8.72998 21.7277 8.72596 21.75 8.72019V16.5C21.75 19.3995 19.3995 21.75 16.5 21.75H7.5C4.60051 21.75 2.25 19.3995 2.25 16.5V7.5C2.25 4.60051 4.60051 2.25 7.5 2.25ZM11.5303 13.5303C11.8232 13.2374 11.8232 12.7626 11.5303 12.4697C11.2374 12.1768 10.7626 12.1768 10.4697 12.4697L8.46967 14.4697C8.17678 14.7626 8.17678 15.2374 8.46967 15.5303L10.4697 17.5303C10.7626 17.8232 11.2374 17.8232 11.5303 17.5303C11.8232 17.2374 11.8232 16.7626 11.5303 16.4697L10.8107 15.75H15C15.4142 15.75 15.75 15.4142 15.75 15C15.75 14.5858 15.4142 14.25 15 14.25H10.8107L11.5303 13.5303ZM6 10.25C6 9.83579 6.33579 9.5 6.75 9.5H8.25C8.66421 9.5 9 9.83579 9 10.25C9 10.6642 8.66421 11 8.25 11H6.75C6.33579 11 6 10.6642 6 10.25ZM6.75 6.5C6.33579 6.5 6 6.83579 6 7.25C6 7.66421 6.33579 8 6.75 8H11.25C11.6642 8 12 7.66421 12 7.25C12 6.83579 11.6642 6.5 11.25 6.5H6.75Z" fill="#4E5964"/>
<path d="M15.75 4.13839L19.4839 7.24999L15.75 7.24999V4.13839Z" fill="#4E5964"/>
</svg>
