<svg width="24" height="24" viewBox="0 0 24 24" fill="none" xmlns="http://www.w3.org/2000/svg">
<path fill-rule="evenodd" clip-rule="evenodd" d="M17.2828 5C17.2615 5.08238 17.25 5.17019 17.25 5.26274V8.73778C17.25 9.29681 17.7032 9.75 18.2622 9.75H21.7373C21.8298 9.75 21.9176 9.73851 22 9.71721V16.501C22 19.5385 19.5376 22 16.5 22H11.5C8.46243 22 6 19.5376 6 16.5V10.5C6 7.46243 8.46243 5 11.5 5H17.2828ZM12 17.25C12 16.8358 12.3358 16.5 12.75 16.5H16.25C16.6642 16.5 17 16.8358 17 17.25C17 17.6642 16.6642 18 16.25 18H12.75C12.3358 18 12 17.6642 12 17.25ZM11.75 13.5C11.3358 13.5 11 13.8358 11 14.25C11 14.6642 11.3358 15 11.75 15H17.25C17.6642 15 18 14.6642 18 14.25C18 13.8358 17.6642 13.5 17.25 13.5H11.75Z" fill="#4E5964"/>
<path d="M18.75 8.25V6.44035L20.5596 8.25H18.75Z" fill="#4E5964"/>
<path d="M7.40918 3.37838C5.15197 3.37838 3.32214 5.3326 3.32214 7.74324V13.8576C3.32214 15.6743 4.52732 17.1905 6.13043 17.5439C6.22889 18.0564 6.39849 18.5436 6.62856 18.9948C4.07045 18.8731 2.03149 16.6196 2.03149 13.8576V7.74324C2.03149 4.57134 4.43917 2 7.40918 2H11.5732C12.265 2 12.9222 2.3234 13.3718 2.88507L14.8767 4.7653C14.9336 4.83638 14.9746 4.91627 15 5H13.3666L12.3907 3.78068C12.1864 3.52538 11.8876 3.37838 11.5732 3.37838H7.40918Z" fill="#4E5964"/>
</svg>
