<svg width="24" height="24" viewBox="0 0 24 24" fill="none" xmlns="http://www.w3.org/2000/svg">
<path fill-rule="evenodd" clip-rule="evenodd" d="M17.2753 5C17.254 5.08238 17.2425 5.17019 17.2425 5.26274V8.73778C17.2425 9.29681 17.6964 9.75 18.2563 9.75H21.7368C21.8295 9.75 21.9175 9.73851 22 9.71721V16.501C22 19.5385 19.5337 22 16.4913 22H11.4834C8.44108 22 5.97476 19.5376 5.97476 16.5V10.5C5.97476 7.46243 8.44108 5 11.4834 5H17.2753ZM11.9842 17.25C11.9842 16.8358 12.3205 16.5 12.7354 16.5H16.2409C16.6558 16.5 16.9921 16.8358 16.9921 17.25C16.9921 17.6642 16.6558 18 16.2409 18H12.7354C12.3205 18 11.9842 17.6642 11.9842 17.25ZM11.7338 13.5C11.319 13.5 10.9827 13.8358 10.9827 14.25C10.9827 14.6642 11.319 15 11.7338 15H17.2425C17.6574 15 17.9937 14.6642 17.9937 14.25C17.9937 13.8358 17.6574 13.5 17.2425 13.5H11.7338Z" fill="#4E5964"/>
<path d="M18.7449 8.25V6.44035L20.5574 8.25H18.7449Z" fill="#4E5964"/>
<path d="M7.38617 3.37838C5.1254 3.37838 3.29268 5.3326 3.29268 7.74324V13.8576C3.29268 15.6743 4.49976 17.1905 6.1054 17.5439C6.20402 18.0564 6.37389 18.5436 6.60432 18.9948C4.04217 18.8731 2 16.6196 2 13.8576V7.74324C2 4.57134 4.41147 2 7.38617 2H11.5567C12.2497 2 12.9079 2.3234 13.3582 2.88507L14.8655 4.7653C14.9224 4.83638 14.9635 4.91627 14.989 5H13.353L12.3756 3.78068C12.1709 3.52538 11.8717 3.37838 11.5567 3.37838H7.38617Z" fill="#4E5964"/>
</svg>
