<svg width="24" height="24" viewBox="0 0 24 24" fill="none" xmlns="http://www.w3.org/2000/svg">
<path fill-rule="evenodd" clip-rule="evenodd" d="M7.5 3.25C4.6005 3.25 2.25 5.60051 2.25 8.5V12.4978L2.80719 14.5037C3.25805 16.1267 4.73586 17.25 6.42039 17.25H17.3902C19.1478 17.25 20.6696 16.0293 21.0509 14.3135L21.75 11.1677V8.5C21.75 5.60051 19.3995 3.25 16.5 3.25H7.5ZM21.75 16.4258C20.7972 17.8447 19.1811 18.75 17.3902 18.75H6.42039C4.7504 18.75 3.22554 17.9615 2.25353 16.6943C2.35575 19.5038 4.66556 21.75 7.5 21.75H16.5C19.3995 21.75 21.75 19.3995 21.75 16.5V16.4258ZM6.9998 9.25C6.9998 8.83579 7.33558 8.5 7.7498 8.5H14.2498C14.664 8.5 14.9998 8.83579 14.9998 9.25C14.9998 9.66421 14.664 10 14.2498 10H7.7498C7.33558 10 6.9998 9.66421 6.9998 9.25ZM6.9998 12.25C6.9998 11.8358 7.33558 11.5 7.7498 11.5H11.2498C11.664 11.5 11.9998 11.8358 11.9998 12.25C11.9998 12.6642 11.664 13 11.2498 13H7.7498C7.33558 13 6.9998 12.6642 6.9998 12.25ZM8.9998 2.25C9.41401 2.25 9.7498 2.58579 9.7498 3V5.28571C9.7498 5.69993 9.41401 6.03571 8.9998 6.03571C8.58558 6.03571 8.2498 5.69993 8.2498 5.28571V3C8.2498 2.58579 8.58558 2.25 8.9998 2.25ZM14.9998 2.25C15.414 2.25 15.7498 2.58579 15.7498 3V5.28571C15.7498 5.69993 15.414 6.03571 14.9998 6.03571C14.5856 6.03571 14.2498 5.69993 14.2498 5.28571V3C14.2498 2.58579 14.5856 2.25 14.9998 2.25Z" fill="#4E5964"/>
</svg>
