<svg width="24" height="24" viewBox="0 0 24 24" fill="none" xmlns="http://www.w3.org/2000/svg">
<path fill-rule="evenodd" clip-rule="evenodd" d="M18.2758 4.02955C18.259 4.10355 18.25 4.18175 18.25 4.26366V7.7387C18.25 8.29773 18.7032 8.75092 19.2622 8.75092H22.7373C22.8298 8.75092 22.9176 8.73943 23 8.71813V17.5027C23 20.5402 20.5376 23.0009 17.5 23.0009H10.5C7.46243 23.0009 5 20.5385 5 17.5009V9.50092C5 6.46335 7.46243 4.00092 10.5 4.00092H17.8916C18.0206 4.00092 18.149 4.01054 18.2758 4.02955ZM19.75 7.25092V5.44127L21.5596 7.25092H19.75ZM12 17.25C12 16.8358 12.3358 16.5 12.75 16.5H16.25C16.6642 16.5 17 16.8358 17 17.25C17 17.6642 16.6642 18 16.25 18H12.75C12.3358 18 12 17.6642 12 17.25ZM11.75 13.5C11.3358 13.5 11 13.8358 11 14.25C11 14.6642 11.3358 15 11.75 15H17.25C17.6642 15 18 14.6642 18 14.25C18 13.8358 17.6642 13.5 17.25 13.5H11.75Z" fill="#4E5964"/>
<path d="M6.84615 19V19C4.1697 19 2 16.8303 2 14.1538V7.5C2 4.46243 4.46243 2 7.5 2H13.2609L14.8261 3.83107L15.6087 4.74661" stroke="#4E5964" stroke-width="1.5" stroke-linecap="round"/>
</svg>
