<svg width="24" height="24" viewBox="0 0 24 24" fill="none" xmlns="http://www.w3.org/2000/svg">
<path fill-rule="evenodd" clip-rule="evenodd" d="M14.2838 2.25H7.5C4.60051 2.25 2.25 4.60051 2.25 7.5V16.5C2.25 19.3995 4.60051 21.75 7.5 21.75H16.5C19.3995 21.75 21.75 19.3995 21.75 16.5V8.72019C21.7277 8.72596 21.7084 8.72998 21.6931 8.73289C21.6171 8.74727 21.5489 8.74999 21.5 8.74999L15.3933 8.74999C14.8957 8.74999 14.25 8.38968 14.25 7.67222V2.5C14.25 2.44432 14.2542 2.35337 14.2838 2.25ZM14.4984 12.4396C14.8079 12.7149 14.8357 13.1889 14.5604 13.4984L11.8922 16.4984C11.7498 16.6585 11.5457 16.7501 11.3314 16.75C11.1172 16.7499 10.9132 16.6582 10.7709 16.4979L9.43915 14.9979C9.16414 14.6882 9.19231 14.2142 9.50205 13.9392C9.8118 13.6641 10.2858 13.6923 10.5608 14.0021L11.3323 14.8709L13.4396 12.5016C13.7149 12.1921 14.1889 12.1643 14.4984 12.4396ZM6.75 9.5C6.33579 9.5 6 9.83579 6 10.25C6 10.6642 6.33579 11 6.75 11H8.25C8.66421 11 9 10.6642 9 10.25C9 9.83579 8.66421 9.5 8.25 9.5H6.75ZM6 7.25C6 6.83579 6.33579 6.5 6.75 6.5H11.25C11.6642 6.5 12 6.83579 12 7.25C12 7.66421 11.6642 8 11.25 8H6.75C6.33579 8 6 7.66421 6 7.25Z" fill="#4E5964"/>
<path d="M19.4839 7.24999L15.75 4.13839V7.24999L19.4839 7.24999Z" fill="#4E5964"/>
</svg>
