<svg width="24" height="24" viewBox="0 0 24 24" fill="none" xmlns="http://www.w3.org/2000/svg">
<path fill-rule="evenodd" clip-rule="evenodd" d="M17.2828 5C17.2615 5.08238 17.25 5.17019 17.25 5.26274V8.73778C17.25 9.29681 17.7032 9.75 18.2622 9.75H21.7373C21.8298 9.75 21.9176 9.73851 22 9.71721V16.501C22 19.5385 19.5376 22 16.5 22H11.5C8.46243 22 6 19.5376 6 16.5V10.5C6 7.46243 8.46243 5 11.5 5H17.2828ZM18.75 8.25V6.44035L20.5596 8.25H18.75ZM12 17.25C12 16.8358 12.3358 16.5 12.75 16.5H16.25C16.6642 16.5 17 16.8358 17 17.25C17 17.6642 16.6642 18 16.25 18H12.75C12.3358 18 12 17.6642 12 17.25ZM11.75 13.5C11.3358 13.5 11 13.8358 11 14.25C11 14.6642 11.3358 15 11.75 15H17.25C17.6642 15 18 14.6642 18 14.25C18 13.8358 17.6642 13.5 17.25 13.5H11.75Z" fill="#00A881"/>
<path d="M3.29065 7.74324C3.29065 5.3326 5.12048 3.37838 7.37769 3.37838H11.5417C11.8562 3.37838 12.1549 3.52538 12.3592 3.78068L13.8641 5.66091C14.0957 5.95024 14.5031 5.9843 14.774 5.73698C15.0449 5.48967 15.0768 5.05463 14.8452 4.7653L13.3403 2.88507C12.8907 2.3234 12.2335 2 11.5417 2H7.37769C4.40767 2 2 4.57134 2 7.74324V13.8576C2 16.6977 4.15579 19 6.8151 19V17.6216C4.8686 17.6216 3.29065 15.9364 3.29065 13.8576V7.74324Z" fill="#00A881"/>
</svg>
