<svg width="24" height="24" viewBox="0 0 24 24" fill="none" xmlns="http://www.w3.org/2000/svg">
<path d="M13.1016 12.9236C13.7043 13.024 14.1465 13.5459 14.1465 14.157V14.4626C14.1464 15.153 13.5868 15.7126 12.8965 15.7126H12.6465V12.8474L13.1016 12.9236Z" fill="#4E5964"/>
<path d="M11.1465 11.0769L10.6914 11.0017C10.0887 10.9013 9.64648 10.3794 9.64648 9.76831V9.46265C9.64648 8.77229 10.2061 8.21265 10.8965 8.21265H11.1465V11.0769Z" fill="#4E5964"/>
<path fill-rule="evenodd" clip-rule="evenodd" d="M11.8965 2.21265C13.2837 2.21265 14.6022 2.50488 15.7969 3.0271C15.3861 3.65543 15.1465 4.4059 15.1465 5.21265C15.1465 7.42179 16.9373 9.21265 19.1465 9.21265C19.8513 9.21265 20.5128 9.02879 21.0879 8.70874C21.4482 9.72659 21.6465 10.8213 21.6465 11.9626C21.6465 17.3474 17.2813 21.7126 11.8965 21.7126C6.51171 21.7126 2.14648 17.3474 2.14648 11.9626C2.14648 6.57787 6.51171 2.21265 11.8965 2.21265ZM11.8965 5.21265C11.4823 5.21265 11.1465 5.54844 11.1465 5.96265V6.71265H10.8965C9.3777 6.71265 8.14648 7.94386 8.14648 9.46265V9.76831C8.14648 11.1126 9.11832 12.2602 10.4443 12.4812L11.1465 12.5974V15.7126H10.8965C10.2062 15.7126 9.64652 15.153 9.64648 14.4626V13.9626C9.64648 13.5484 9.3107 13.2126 8.89648 13.2126C8.48227 13.2126 8.14648 13.5484 8.14648 13.9626V14.4626C8.14652 15.9814 9.37772 17.2126 10.8965 17.2126H11.1465V17.9626C11.1465 18.3768 11.4823 18.7126 11.8965 18.7126C12.3107 18.7126 12.6465 18.3768 12.6465 17.9626V17.2126H12.8965C14.4152 17.2126 15.6464 15.9814 15.6465 14.4626V14.157C15.6465 12.8127 14.6746 11.6651 13.3486 11.4441L12.6465 11.3269V8.21265H12.8965C13.5868 8.21265 14.1465 8.77229 14.1465 9.46265V9.96265C14.1465 10.3768 14.4823 10.7126 14.8965 10.7126C15.3107 10.7126 15.6464 10.3768 15.6465 9.96265V9.46265C15.6465 7.94386 14.4153 6.71265 12.8965 6.71265H12.6465V5.96265C12.6465 5.54843 12.3107 5.21265 11.8965 5.21265Z" fill="#4E5964"/>
<path d="M18.4257 2.96265C18.4257 2.54843 18.7615 2.21265 19.1757 2.21265C19.5899 2.21265 19.9257 2.54843 19.9257 2.96265V5.1521L20.6454 4.43237C20.9383 4.13948 21.4131 4.13948 21.706 4.43237C21.9989 4.72527 21.9989 5.20003 21.706 5.49292L19.706 7.49292C19.4131 7.78579 18.9383 7.78579 18.6454 7.49292L16.6454 5.49292C16.3526 5.20003 16.3526 4.72527 16.6454 4.43237C16.9383 4.13948 17.4131 4.13948 17.706 4.43237L18.4257 5.1521V2.96265Z" fill="#4E5964"/>
</svg>
