<svg width="24" height="24" viewBox="0 0 24 24" fill="none" xmlns="http://www.w3.org/2000/svg">
<path d="M22.5303 4.21967C22.8232 4.51256 22.8232 4.98744 22.5303 5.28033C22.2374 5.57322 21.7626 5.57322 21.4697 5.28033L20.75 4.56066V6.75C20.75 7.16421 20.4142 7.5 20 7.5C19.5858 7.5 19.25 7.16421 19.25 6.75V4.56066L18.5303 5.28033C18.2374 5.57322 17.7626 5.57322 17.4697 5.28033C17.1768 4.98744 17.1768 4.51256 17.4697 4.21967L19.4697 2.21967C19.6155 2.0738 19.8066 2.00057 19.9978 2L20 2L20.0022 2C20.1031 2.0003 20.1993 2.02051 20.2871 2.05691C20.3755 2.09351 20.4584 2.14776 20.5303 2.21967L22.5303 4.21967Z" fill="#4E5964"/>
<path fill-rule="evenodd" clip-rule="evenodd" d="M21.6723 10.2107C22.1795 12.1425 22.0978 14.1883 21.4285 16.0822C20.6761 18.2111 19.2254 20.0227 17.3125 21.2222C15.3995 22.4217 13.1369 22.9385 10.8929 22.6885C8.64882 22.4385 6.55543 21.4365 4.95334 19.8454C3.35126 18.2543 2.33479 16.1679 2.06936 13.9256C1.80392 11.6833 2.30513 9.41721 3.49144 7.49603C4.67775 5.57486 6.47931 4.11171 8.60296 3.34468C10.4696 2.6705 12.4884 2.56899 14.4031 3.04302C14.8647 3.1573 15.1368 3.61321 15.1264 4.08863C15.038 8.14104 18.4061 9.35046 20.7115 9.48917C21.153 9.51573 21.5599 9.7829 21.6723 10.2107ZM12.75 7.75C12.75 7.33579 12.4142 7 12 7C11.5858 7 11.25 7.33579 11.25 7.75V8H11C9.48123 8 8.25002 9.23122 8.25002 10.75C8.25002 12.2688 9.48123 13.5 11 13.5H11.25V16H10.937C10.3556 16 9.86515 15.6024 9.72634 15.0631C9.6231 14.6619 9.21421 14.4204 8.81307 14.5237C8.41193 14.6269 8.17044 15.0358 8.27369 15.4369C8.57893 16.6229 9.65459 17.5 10.937 17.5H11.25V17.75C11.25 18.1642 11.5858 18.5 12 18.5C12.4142 18.5 12.75 18.1642 12.75 17.75V17.5H13C14.5188 17.5 15.75 16.2688 15.75 14.75C15.75 13.2312 14.5188 12 13 12H12.75V9.5H13.063C13.6444 9.5 14.1349 9.89765 14.2737 10.4369C14.3769 10.8381 14.7858 11.0796 15.187 10.9763C15.5881 10.8731 15.8296 10.4642 15.7263 10.0631C15.4211 8.87712 14.3454 8 13.063 8H12.75V7.75ZM11 9.5H11.25V12H11C10.3097 12 9.75002 11.4404 9.75002 10.75C9.75002 10.0596 10.3097 9.5 11 9.5ZM12.75 16V13.5H13C13.6904 13.5 14.25 14.0596 14.25 14.75C14.25 15.4404 13.6904 16 13 16H12.75Z" fill="#4E5964"/>
</svg>
