<svg width="24" height="24" viewBox="0 0 24 24" fill="none" xmlns="http://www.w3.org/2000/svg">
<path fill-rule="evenodd" clip-rule="evenodd" d="M22 12C22 17.5228 17.5228 22 12 22C6.47715 22 2 17.5228 2 12C2 6.47715 6.47715 2 12 2C17.5228 2 22 6.47715 22 12ZM12.75 7C12.75 6.58579 12.4142 6.25 12 6.25C11.5858 6.25 11.25 6.58579 11.25 7V7.25H11C9.48122 7.25 8.25 8.48122 8.25 10C8.25 11.5188 9.48122 12.75 11 12.75H11.25V15.25H10.937C10.3556 15.25 9.86513 14.8524 9.72633 14.3131C9.62308 13.9119 9.2142 13.6704 8.81306 13.7737C8.41192 13.8769 8.17043 14.2858 8.27367 14.6869C8.57891 15.8729 9.65457 16.75 10.937 16.75H11.25V17C11.25 17.4142 11.5858 17.75 12 17.75C12.4142 17.75 12.75 17.4142 12.75 17V16.75H13C14.5188 16.75 15.75 15.5188 15.75 14C15.75 12.4812 14.5188 11.25 13 11.25H12.75V8.75H13.063C13.6444 8.75 14.1349 9.14765 14.2737 9.68694C14.3769 10.0881 14.7858 10.3296 15.1869 10.2263C15.5881 10.1231 15.8296 9.7142 15.7263 9.31306C15.4211 8.12712 14.3454 7.25 13.063 7.25H12.75V7ZM11 8.75H11.25V11.25H11C10.3096 11.25 9.75 10.6904 9.75 10C9.75 9.30964 10.3096 8.75 11 8.75ZM12.75 15.25V12.75H13C13.6904 12.75 14.25 13.3096 14.25 14C14.25 14.6904 13.6904 15.25 13 15.25H12.75Z" fill="#00ABB8"/>
</svg>
