<svg width="24" height="24" viewBox="0 0 24 24" fill="none" xmlns="http://www.w3.org/2000/svg">
<path fill-rule="evenodd" clip-rule="evenodd" d="M2.32422 12C2.32422 6.6566 6.65586 2.32495 11.9992 2.32495C17.3426 2.32495 21.6742 6.6566 21.6742 12C21.6742 17.3433 17.3426 21.6749 11.9992 21.6749C6.65586 21.6749 2.32422 17.3433 2.32422 12ZM11.999 6.24976C12.4132 6.24976 12.749 6.58554 12.749 6.99976V7.24976H13.062C14.3444 7.24976 15.4201 8.12688 15.7254 9.31281C15.8286 9.71395 15.5871 10.1228 15.186 10.2261C14.7848 10.3293 14.3759 10.0878 14.2727 9.6867C14.1339 9.1474 13.6435 8.74976 13.062 8.74976H12.749V11.2498H12.999C14.5178 11.2498 15.749 12.481 15.749 13.9998C15.749 15.5185 14.5178 16.7498 12.999 16.7498H12.749V16.9998C12.749 17.414 12.4132 17.7498 11.999 17.7498C11.5848 17.7498 11.249 17.414 11.249 16.9998V16.7498H10.936C9.6536 16.7498 8.57793 15.8726 8.2727 14.6867C8.16945 14.2856 8.41094 13.8767 8.81208 13.7734C9.21322 13.6702 9.62211 13.9117 9.72535 14.3128C9.86416 14.8521 10.3546 15.2498 10.936 15.2498H11.249V12.7498H10.999C9.48024 12.7498 8.24902 11.5185 8.24902 9.99976C8.24902 8.48097 9.48024 7.24976 10.999 7.24976H11.249V6.99976C11.249 6.58554 11.5848 6.24976 11.999 6.24976ZM11.249 8.74976H10.999C10.3087 8.74976 9.74902 9.3094 9.74902 9.99976C9.74902 10.6901 10.3087 11.2498 10.999 11.2498H11.249V8.74976ZM12.749 12.7498V15.2498H12.999C13.6894 15.2498 14.249 14.6901 14.249 13.9998C14.249 13.3094 13.6894 12.7498 12.999 12.7498H12.749Z" fill="#4E5964"/>
</svg>
