<svg width="24" height="24" viewBox="0 0 24 24" fill="none" xmlns="http://www.w3.org/2000/svg">
<path d="M13.1016 12.923C13.7043 13.0234 14.1465 13.5453 14.1465 14.1564V14.462C14.1464 15.1524 13.5868 15.712 12.8965 15.712H12.6465V12.8468L13.1016 12.923Z" fill="#4E5964"/>
<path d="M11.1465 11.0763L10.6914 11.0011C10.0887 10.9006 9.64648 10.3787 9.64648 9.7677V9.46204C9.64648 8.77168 10.2061 8.21204 10.8965 8.21204H11.1465V11.0763Z" fill="#4E5964"/>
<path fill-rule="evenodd" clip-rule="evenodd" d="M11.8965 2.21204C13.2837 2.21204 14.6022 2.50427 15.7969 3.02649C15.3861 3.65482 15.1465 4.40529 15.1465 5.21204C15.1465 7.42118 16.9373 9.21204 19.1465 9.21204C19.8513 9.21204 20.5128 9.02818 21.0879 8.70813C21.4482 9.72598 21.6465 10.8207 21.6465 11.962C21.6465 17.3468 17.2813 21.712 11.8965 21.712C6.51171 21.712 2.14648 17.3468 2.14648 11.962C2.14648 6.57726 6.51171 2.21204 11.8965 2.21204ZM11.8965 5.21204C11.4823 5.21204 11.1465 5.54783 11.1465 5.96204V6.71204H10.8965C9.3777 6.71204 8.14648 7.94325 8.14648 9.46204V9.7677C8.14648 11.112 9.11832 12.2596 10.4443 12.4806L11.1465 12.5968V15.712H10.8965C10.2062 15.712 9.64652 15.1524 9.64648 14.462V13.962C9.64648 13.5478 9.3107 13.212 8.89648 13.212C8.48227 13.212 8.14648 13.5478 8.14648 13.962V14.462C8.14652 15.9808 9.37772 17.212 10.8965 17.212H11.1465V17.962C11.1465 18.3762 11.4823 18.712 11.8965 18.712C12.3107 18.712 12.6465 18.3762 12.6465 17.962V17.212H12.8965C14.4152 17.212 15.6464 15.9808 15.6465 14.462V14.1564C15.6465 12.8121 14.6746 11.6645 13.3486 11.4435L12.6465 11.3263V8.21204H12.8965C13.5868 8.21204 14.1465 8.77168 14.1465 9.46204V9.96204C14.1465 10.3762 14.4823 10.712 14.8965 10.712C15.3107 10.712 15.6464 10.3762 15.6465 9.96204V9.46204C15.6465 7.94325 14.4153 6.71204 12.8965 6.71204H12.6465V5.96204C12.6465 5.54782 12.3107 5.21204 11.8965 5.21204Z" fill="#4E5964"/>
<path d="M19.9258 6.96204C19.9258 7.37625 19.5901 7.71204 19.1758 7.71204C18.7616 7.71204 18.4258 7.37625 18.4258 6.96204L18.4258 4.77258L17.7061 5.49231C17.4132 5.7852 16.9385 5.7852 16.6456 5.49231C16.3527 5.19941 16.3527 4.72465 16.6456 4.43176L18.6456 2.43176C18.9385 2.1389 19.4132 2.1389 19.7061 2.43176L21.7061 4.43176C21.999 4.72465 21.999 5.19941 21.7061 5.49231C21.4132 5.7852 20.9385 5.7852 20.6456 5.49231L19.9258 4.77258L19.9258 6.96204Z" fill="#4E5964"/>
</svg>
