<svg width="24" height="24" viewBox="0 0 24 24" fill="none" xmlns="http://www.w3.org/2000/svg">
<path d="M18.999 2.25C19.4132 2.25 19.749 2.58579 19.749 3V5.18934L20.4687 4.46967C20.7616 4.17678 21.2365 4.17678 21.5294 4.46967C21.8222 4.76256 21.8222 5.23744 21.5294 5.53033L19.5294 7.53033C19.4574 7.60224 19.3746 7.65649 19.2861 7.69309C19.1977 7.72976 19.1007 7.75 18.999 7.75C18.9861 7.75 18.9732 7.74967 18.9604 7.74902C18.8728 7.74458 18.7891 7.72509 18.7119 7.69309C18.6235 7.65649 18.5406 7.60224 18.4687 7.53033L16.4687 5.53033C16.1758 5.23744 16.1758 4.76256 16.4687 4.46967C16.7616 4.17678 17.2365 4.17678 17.5294 4.46967L18.249 5.18934V3C18.249 2.58579 18.5848 2.25 18.999 2.25Z" fill="#4E5964"/>
<path d="M11.249 8.75H10.999C10.3087 8.75 9.74902 9.30964 9.74902 10C9.74902 10.6904 10.3087 11.25 10.999 11.25H11.249V8.75Z" fill="#4E5964"/>
<path d="M12.749 12.75V15.25H12.999C13.6894 15.25 14.249 14.6904 14.249 14C14.249 13.3096 13.6894 12.75 12.999 12.75H12.749Z" fill="#4E5964"/>
<path fill-rule="evenodd" clip-rule="evenodd" d="M8.71258 2.90055C10.7149 2.17735 12.8983 2.13526 14.9246 2.77804C15.3293 2.90643 15.5527 3.29224 15.5316 3.66547C15.4085 5.8461 16.1739 6.98726 17.0986 7.61358C18.0774 8.27655 19.3544 8.44228 20.3338 8.40546C20.7137 8.39118 21.0753 8.62501 21.1999 9.00787C21.8578 11.0307 21.8311 13.2157 21.1213 15.2241C20.3934 17.2838 18.9898 19.0365 17.139 20.197C15.2882 21.3575 13.0992 21.8576 10.9281 21.6157C8.75695 21.3738 6.73159 20.4043 5.18158 18.865C3.63156 17.3256 2.64813 15.307 2.39132 13.1376C2.13451 10.9682 2.61944 8.77571 3.76719 6.91698C4.91494 5.05825 6.65795 3.64265 8.71258 2.90055ZM11.999 6.25C12.4132 6.25 12.749 6.58579 12.749 7V7.25H13.062C14.3445 7.25 15.4201 8.12712 15.7254 9.31306C15.8286 9.7142 15.5871 10.1231 15.186 10.2263C14.7848 10.3296 14.3759 10.0881 14.2727 9.68694C14.1339 9.14765 13.6435 8.75 13.062 8.75H12.749V11.25H12.999C14.5178 11.25 15.749 12.4812 15.749 14C15.749 15.5188 14.5178 16.75 12.999 16.75H12.749V17C12.749 17.4142 12.4132 17.75 11.999 17.75C11.5848 17.75 11.249 17.4142 11.249 17V16.75H10.936C9.6536 16.75 8.57793 15.8729 8.2727 14.6869C8.16945 14.2858 8.41094 13.8769 8.81208 13.7737C9.21322 13.6704 9.62211 13.9119 9.72535 14.3131C9.86416 14.8524 10.3546 15.25 10.936 15.25H11.249V12.75H10.999C9.48024 12.75 8.24902 11.5188 8.24902 10C8.24902 8.48122 9.48024 7.25 10.999 7.25H11.249V7C11.249 6.58579 11.5848 6.25 11.999 6.25Z" fill="#4E5964"/>
</svg>
