<svg width="24" height="24" viewBox="0 0 24 24" fill="none" xmlns="http://www.w3.org/2000/svg">
<path fill-rule="evenodd" clip-rule="evenodd" d="M13.2051 12.9609C13.8078 13.0614 14.25 13.5833 14.25 14.1943V14.5C14.25 15.1903 13.6903 15.75 13 15.75H12.75V12.8848L13.2051 12.9609Z" fill="#4E5964"/>
<path fill-rule="evenodd" clip-rule="evenodd" d="M10.7949 11.0391C10.1922 10.9386 9.75 10.4167 9.75 9.80566V9.5C9.75 8.80964 10.3096 8.25 11 8.25H11.25V11.1143L10.7949 11.0391Z" fill="#4E5964"/>
<path fill-rule="evenodd" clip-rule="evenodd" d="M12 21.75C17.3848 21.75 21.75 17.3848 21.75 12C21.75 6.61522 17.3848 2.25 12 2.25C6.61522 2.25 2.25 6.61522 2.25 12C2.25 17.3848 6.61522 21.75 12 21.75ZM14.25 9.5V10C14.25 10.4142 14.5858 10.75 15 10.75C15.4142 10.75 15.75 10.4142 15.75 10V9.5C15.75 7.98122 14.5188 6.75 13 6.75H12.75V6C12.75 5.58579 12.4142 5.25 12 5.25C11.5858 5.25001 11.25 5.58579 11.25 6V6.75H11C9.48122 6.75 8.25 7.98122 8.25 9.5V9.80566C8.25 11.15 9.22184 12.2976 10.5479 12.5186L11.25 12.6348V15.75H11C10.3097 15.75 9.75004 15.1903 9.75 14.5V14C9.75 13.5858 9.41421 13.25 9 13.25C8.58579 13.25 8.25 13.5858 8.25 14V14.5C8.25004 16.0188 9.48124 17.25 11 17.25H11.25V18C11.25 18.4142 11.5858 18.75 12 18.75C12.4142 18.75 12.75 18.4142 12.75 18V17.25H13C14.5188 17.25 15.75 16.0188 15.75 14.5V14.1943C15.75 12.85 14.7782 11.7025 13.4521 11.4814L12.75 11.3643V8.25H13C13.6904 8.25 14.25 8.80964 14.25 9.5Z" fill="#4E5964"/>
</svg>
