<svg width="24" height="24" viewBox="0 0 24 24" fill="none" xmlns="http://www.w3.org/2000/svg">
<path d="M21.5294 5.52984C21.8222 5.23695 21.8222 4.76207 21.5294 4.46918L19.5294 2.46918C19.3835 2.32331 19.1925 2.25008 19.0013 2.24952L18.999 2.24951L18.9968 2.24952C18.8959 2.24981 18.7997 2.27002 18.7119 2.30642C18.6235 2.34302 18.5406 2.39727 18.4687 2.46918L16.4687 4.46918C16.1758 4.76207 16.1758 5.23695 16.4687 5.52984C16.7616 5.82274 17.2365 5.82274 17.5294 5.52984L18.249 4.81017V6.99951C18.249 7.41373 18.5848 7.74951 18.999 7.74951C19.4132 7.74951 19.749 7.41373 19.749 6.99951V4.81017L20.4687 5.52984C20.7616 5.82274 21.2365 5.82274 21.5294 5.52984Z" fill="#4E5964"/>
<path d="M10.999 8.74951H11.249V11.2495H10.999C10.3087 11.2495 9.74902 10.6899 9.74902 9.99951C9.74902 9.30916 10.3087 8.74951 10.999 8.74951Z" fill="#4E5964"/>
<path d="M12.749 15.2495V12.7495H12.999C13.6894 12.7495 14.249 13.3092 14.249 13.9995C14.249 14.6899 13.6894 15.2495 12.999 15.2495H12.749Z" fill="#4E5964"/>
<path fill-rule="evenodd" clip-rule="evenodd" d="M14.9246 2.77755C12.8983 2.13478 10.7149 2.17686 8.71258 2.90006C6.65795 3.64216 4.91494 5.05776 3.76719 6.91649C2.61944 8.77523 2.13451 10.9677 2.39132 13.1371C2.64813 15.3065 3.63156 17.3251 5.18158 18.8645C6.73159 20.4039 8.75695 21.3734 10.9281 21.6152C13.0992 21.8571 15.2882 21.3571 17.139 20.1965C18.9898 19.036 20.3934 17.2833 21.1213 15.2236C21.8311 13.2152 21.8578 11.0302 21.1999 9.00738C21.0753 8.62452 20.7137 8.3907 20.3338 8.40497C19.3544 8.44179 18.0774 8.27606 17.0986 7.61309C16.1739 6.98677 15.4085 5.84562 15.5316 3.66499C15.5527 3.29175 15.3293 2.90594 14.9246 2.77755ZM12.749 6.99951C12.749 6.5853 12.4132 6.24951 11.999 6.24951C11.5848 6.24951 11.249 6.5853 11.249 6.99951V7.24951H10.999C9.48024 7.24951 8.24902 8.48073 8.24902 9.99951C8.24902 11.5183 9.48024 12.7495 10.999 12.7495H11.249V15.2495H10.936C10.3546 15.2495 9.86416 14.8519 9.72535 14.3126C9.62211 13.9114 9.21322 13.6699 8.81208 13.7732C8.41094 13.8764 8.16945 14.2853 8.2727 14.6865C8.57793 15.8724 9.6536 16.7495 10.936 16.7495H11.249V16.9995C11.249 17.4137 11.5848 17.7495 11.999 17.7495C12.4132 17.7495 12.749 17.4137 12.749 16.9995V16.7495H12.999C14.5178 16.7495 15.749 15.5183 15.749 13.9995C15.749 12.4807 14.5178 11.2495 12.999 11.2495H12.749V8.74951H13.062C13.6435 8.74951 14.1339 9.14716 14.2727 9.68646C14.3759 10.0876 14.7848 10.3291 15.186 10.2258C15.5871 10.1226 15.8286 9.71371 15.7254 9.31257C15.4201 8.12664 14.3445 7.24951 13.062 7.24951H12.749V6.99951Z" fill="#4E5964"/>
</svg>
