<svg width="24" height="24" viewBox="0 0 24 24" fill="none" xmlns="http://www.w3.org/2000/svg">
<path d="M18 4L20 6L22 4" stroke="#4E5964" stroke-width="1.5" stroke-linecap="round" stroke-linejoin="round"/>
<path d="M20 2V6" stroke="#4E5964" stroke-width="1.5" stroke-linecap="round" stroke-linejoin="round"/>
<path fill-rule="evenodd" clip-rule="evenodd" d="M21.6723 9.46072C22.1795 11.3925 22.0978 13.4383 21.4285 15.3322C20.6761 17.4611 19.2254 19.2727 17.3125 20.4722C15.3995 21.6717 13.1369 22.1885 10.8929 21.9385C8.64882 21.6885 6.55543 20.6865 4.95334 19.0954C3.35126 17.5043 2.33479 15.4179 2.06936 13.1756C1.80392 10.9333 2.30513 8.66721 3.49144 6.74603C4.67775 4.82486 6.47931 3.36171 8.60296 2.59468C10.4696 1.9205 12.4884 1.81899 14.4031 2.29302C14.8647 2.4073 15.1368 2.86321 15.1264 3.33863C15.038 7.39104 18.4061 8.60046 20.7115 8.73917C21.153 8.76573 21.5599 9.0329 21.6723 9.46072ZM12.75 7C12.75 6.58579 12.4142 6.25 12 6.25C11.5858 6.25 11.25 6.58579 11.25 7V7.25H11C9.48123 7.25 8.25002 8.48122 8.25002 10C8.25002 11.5188 9.48123 12.75 11 12.75H11.25V15.25H10.937C10.3556 15.25 9.86515 14.8524 9.72634 14.3131C9.6231 13.9119 9.21421 13.6704 8.81307 13.7737C8.41193 13.8769 8.17044 14.2858 8.27369 14.6869C8.57893 15.8729 9.65459 16.75 10.937 16.75H11.25V17C11.25 17.4142 11.5858 17.75 12 17.75C12.4142 17.75 12.75 17.4142 12.75 17V16.75H13C14.5188 16.75 15.75 15.5188 15.75 14C15.75 12.4812 14.5188 11.25 13 11.25H12.75V8.75H13.063C13.6444 8.75 14.1349 9.14765 14.2737 9.68694C14.3769 10.0881 14.7858 10.3296 15.187 10.2263C15.5881 10.1231 15.8296 9.7142 15.7263 9.31306C15.4211 8.12712 14.3454 7.25 13.063 7.25H12.75V7ZM11 8.75H11.25V11.25H11C10.3097 11.25 9.75002 10.6904 9.75002 10C9.75002 9.30964 10.3097 8.75 11 8.75ZM12.75 15.25V12.75H13C13.6904 12.75 14.25 13.3096 14.25 14C14.25 14.6904 13.6904 15.25 13 15.25H12.75Z" fill="#4E5964"/>
</svg>
