<svg width="24" height="24" viewBox="0 0 24 24" fill="none" xmlns="http://www.w3.org/2000/svg">
<path fill-rule="evenodd" clip-rule="evenodd" d="M2.27717 17.2008C2.25946 17.1369 2.25 17.0695 2.25 17V5.65625C2.25 3.77503 3.77503 2.25 5.65625 2.25H6.8182C8.71413 2.25 10.1011 3.61751 10.8781 5.05034C10.9227 5.13262 10.9642 5.20984 11.0032 5.28254L11.0037 5.28345C11.3439 5.91659 11.4998 6.20683 11.9351 6.51685C12.3434 6.80768 13.1663 7.02471 14.2754 7.1395C15.3423 7.24992 16.5334 7.25402 17.5564 7.22073C19.2453 7.16577 20.75 8.49125 20.75 10.2414V11.5C20.75 11.537 20.7473 11.5734 20.7421 11.609C21.7897 12.8339 22.1087 14.6837 21.2633 16.2873L19.5059 19.6206C18.819 20.9233 17.494 21.75 16.0365 21.75H6.20504C3.70549 21.75 2.02373 19.4899 2.27717 17.2008ZM3.75 5.65625C3.75 4.60346 4.60346 3.75 5.65625 3.75H6.8182C7.92349 3.75 8.90576 4.55987 9.55944 5.76536C9.60175 5.84337 9.64305 5.92122 9.68421 5.9988C10.0114 6.61548 10.3294 7.21476 11.0649 7.73863C11.8214 8.27747 13.0002 8.51554 14.121 8.63153C15.2839 8.75188 16.5507 8.75425 17.6052 8.71993C18.5079 8.69056 19.25 9.39861 19.25 10.2414V10.5283C18.8076 10.3497 18.3188 10.25 17.7939 10.25H7.96246C6.50496 10.25 5.17988 11.0767 4.49307 12.3794L3.75 13.7887V5.65625ZM12.0001 13.25C12.4143 13.25 12.7501 13.5858 12.7501 14L12.7501 16.2605L13.445 15.4957C13.7235 15.1891 14.1978 15.1664 14.5044 15.4449C14.811 15.7234 14.8337 16.1977 14.5552 16.5043L13.0486 18.1626C12.4865 18.7813 11.5137 18.7813 10.9516 18.1626L9.44499 16.5043C9.16645 16.1977 9.18919 15.7234 9.49577 15.4449C9.80235 15.1664 10.2767 15.1891 10.5552 15.4957L11.2501 16.2605L11.2501 14C11.2501 13.5858 11.5859 13.25 12.0001 13.25Z" fill="#4E5964"/>
</svg>
