<svg width="24" height="24" viewBox="0 0 24 24" fill="none" xmlns="http://www.w3.org/2000/svg">
<path fill-rule="evenodd" clip-rule="evenodd" d="M12.7488 3.90015C12.7488 3.48593 12.4131 3.15015 11.9988 3.15015C11.5846 3.15015 11.2488 3.48593 11.2488 3.90015L11.2488 9.45022H3.95075C3.52357 9.45022 2.94431 9.6136 2.62746 10.1587C2.03772 11.1734 2.12401 12.6481 2.99253 13.5382L8.86117 19.5527C10.5492 21.2827 13.5952 21.2827 15.2833 19.5527L20.8716 13.8254C21.8789 12.7931 22.0317 11.3056 21.2672 10.1314C20.9399 9.62884 20.3893 9.45022 19.9375 9.45022H12.7488L12.7488 3.90015ZM12.7488 9.45022H11.2488V13.7892L8.92956 11.4699C8.63666 11.177 8.16179 11.177 7.8689 11.4699C7.576 11.7628 7.576 12.2377 7.8689 12.5306L10.8325 15.4942C11.4769 16.1385 12.5216 16.1385 13.166 15.4942L16.1296 12.5306C16.4225 12.2377 16.4225 11.7628 16.1296 11.4699C15.8367 11.177 15.3618 11.177 15.0689 11.4699L12.7488 13.79V9.45022Z" fill="#4E5964"/>
</svg>
