<svg width="24" height="25" viewBox="0 0 24 25" fill="none" xmlns="http://www.w3.org/2000/svg">
<path fill-rule="evenodd" clip-rule="evenodd" d="M12.7488 4.18091C12.7488 3.76669 12.4131 3.43091 11.9988 3.43091C11.5846 3.43091 11.2488 3.76669 11.2488 4.18091L11.2488 9.73098H3.95075C3.52357 9.73098 2.94431 9.89436 2.62746 10.4395C2.03772 11.4541 2.12401 12.9288 2.99253 13.8189L8.86117 19.8335C10.5492 21.5635 13.5952 21.5635 15.2833 19.8335L20.8716 14.1062C21.8789 13.0739 22.0317 11.5864 21.2672 10.4122C20.9399 9.9096 20.3893 9.73098 19.9375 9.73098H12.7488L12.7488 4.18091ZM12.7488 9.73098H11.2488V14.07L8.92956 11.7507C8.63666 11.4578 8.16179 11.4578 7.8689 11.7507C7.576 12.0436 7.576 12.5184 7.8689 12.8113L10.8325 15.7749C11.4769 16.4193 12.5216 16.4193 13.166 15.7749L16.1296 12.8113C16.4225 12.5184 16.4225 12.0436 16.1296 11.7507C15.8367 11.4578 15.3618 11.4578 15.0689 11.7507L12.7488 14.0707V9.73098Z" fill="#4E5964"/>
</svg>
