<svg width="24" height="24" viewBox="0 0 24 24" fill="none" xmlns="http://www.w3.org/2000/svg">
<path fill-rule="evenodd" clip-rule="evenodd" d="M12 2.25C12.4142 2.25 12.75 2.58579 12.75 3V10H11.25V3C11.25 2.58579 11.5858 2.25 12 2.25ZM11.25 10H4.69564C3.34827 10 1.82263 10.6259 2.03033 11.9571C2.09922 12.3987 2.28529 12.8161 2.58852 13.1269L9.10924 19.8097C10.6578 21.3968 13.5034 21.3968 15.052 19.8097L21.2613 13.446C21.6785 13.0185 21.9192 12.5079 21.9828 11.9844C22.1496 10.6117 20.5169 10 19.1341 10H12.75V14.1893L15.4697 11.4697C15.7626 11.1768 16.2374 11.1768 16.5303 11.4697C16.8232 11.7626 16.8232 12.2374 16.5303 12.5303L13.2374 15.8232C12.554 16.5066 11.446 16.5066 10.7626 15.8232L7.46967 12.5303C7.17678 12.2374 7.17678 11.7626 7.46967 11.4697C7.76256 11.1768 8.23744 11.1768 8.53033 11.4697L11.25 14.1893V10Z" fill="#4E5964"/>
</svg>
