<svg width="24" height="24" viewBox="0 0 24 24" fill="none" xmlns="http://www.w3.org/2000/svg">
<path fill-rule="evenodd" clip-rule="evenodd" d="M12.75 6C12.75 5.58579 12.4142 5.25 12 5.25C11.5858 5.25 11.25 5.58579 11.25 6L11.25 11.2499H5C4.0335 11.2499 3.25 12.0334 3.25 12.9999V14.4999C3.25 17.3994 5.60051 19.7499 8.5 19.7499H15.5C18.3995 19.7499 20.75 17.3994 20.75 14.4999V12.9999C20.75 12.0334 19.9665 11.2499 19 11.2499H12.75L12.75 6ZM12.75 11.2499H11.25V14.1962L9.53139 12.4707C9.23909 12.1773 8.76421 12.1763 8.47073 12.4686C8.17725 12.7609 8.1763 13.2358 8.46861 13.5293L11.4566 16.5293C11.6046 16.6779 11.7995 16.7515 11.994 16.75L12 16.75C12.2461 16.75 12.4645 16.6315 12.6012 16.4485L15.5271 13.5574C15.8218 13.2663 15.8246 12.7914 15.5335 12.4968C15.2424 12.2021 14.7675 12.1993 14.4729 12.4904L12.75 14.1927V11.2499Z" fill="#4E5964"/>
</svg>
