<svg width="24" height="24" viewBox="0 0 24 24" fill="none" xmlns="http://www.w3.org/2000/svg">
<path d="M13.5938 14.2471C13.892 14.2471 14.1665 14.3681 14.377 14.5645L15.0469 15.1895C15.569 15.6766 15.6386 16.536 15.2617 17.126L12.9971 20.6699C12.7692 21.0266 12.405 21.2471 12 21.2471C11.595 21.2471 11.2308 21.0266 11.0029 20.6699L8.73828 17.126C8.36142 16.536 8.431 15.6766 8.95312 15.1895L9.62305 14.5645C9.8335 14.3681 10.108 14.2471 10.4062 14.2471H13.5938Z" fill="#4E5964"/>
<path fill-rule="evenodd" clip-rule="evenodd" d="M20 2.25C20.4142 2.25 20.75 2.58579 20.75 3V3.13086H22C22.4142 3.13086 22.75 3.46665 22.75 3.88086C22.75 4.29507 22.4142 4.63086 22 4.63086H20.75V5.47852H20.9863C21.408 5.47871 21.7498 5.82051 21.75 6.24219V8.3584C21.75 9.3249 20.9665 10.1084 20 10.1084C19.0335 10.1084 18.25 9.3249 18.25 8.3584V7.76074H15.75V10.0547C16.1315 10.347 16.4881 10.684 16.8125 11.0625C18.063 12.5216 18.75 14.4789 18.75 16.5C18.75 16.9142 18.4142 17.25 18 17.25C17.5858 17.25 17.25 16.9142 17.25 16.5C17.25 14.8082 16.6726 13.2044 15.6729 12.0381C15.6002 11.9533 15.5252 11.872 15.4492 11.793C15.0025 12.6576 14.1028 13.25 13.0625 13.25H10.9375C9.89707 13.25 8.99642 12.6578 8.5498 11.793C8.47395 11.8718 8.39965 11.9535 8.32715 12.0381C7.32741 13.2044 6.75 14.8082 6.75 16.5C6.75 16.9142 6.41421 17.25 6 17.25C5.58579 17.25 5.25 16.9142 5.25 16.5C5.25 14.4789 5.93702 12.5216 7.1875 11.0625C7.51194 10.684 7.86849 10.347 8.25 10.0547V7.76074H5.75V8.3584C5.75 9.3249 4.9665 10.1084 4 10.1084C3.0335 10.1084 2.25 9.3249 2.25 8.3584V6.24219C2.2502 5.82051 2.592 5.47871 3.01367 5.47852H3.25V4.63086H2C1.58579 4.63086 1.25 4.29507 1.25 3.88086C1.25 3.46665 1.58579 3.13086 2 3.13086H3.25V3C3.25 2.58579 3.58579 2.25 4 2.25C4.41421 2.25 4.75 2.58579 4.75 3V3.13086H6C6.41421 3.13086 6.75 3.46665 6.75 3.88086C6.75 4.29507 6.41421 4.63086 6 4.63086H4.75V5.47852H4.98633C5.40801 5.47871 5.7498 5.82051 5.75 6.24219V6.26074H8.25879C8.34991 4.859 9.51273 3.75 10.9375 3.75H13.0625C14.4873 3.75 15.6501 4.859 15.7412 6.26074H18.25V6.24219C18.2502 5.82051 18.592 5.47871 19.0137 5.47852H19.25V4.63086H18C17.5858 4.63086 17.25 4.29507 17.25 3.88086C17.25 3.46665 17.5858 3.13086 18 3.13086H19.25V3C19.25 2.58579 19.5858 2.25 20 2.25ZM3.75 8.3584C3.75 8.49647 3.86193 8.6084 4 8.6084C4.13807 8.6084 4.25 8.49647 4.25 8.3584V6.97852H3.75V8.3584ZM19.75 8.3584C19.75 8.49647 19.8619 8.6084 20 8.6084C20.1381 8.6084 20.25 8.49647 20.25 8.3584V6.97852H19.75V8.3584ZM11 6.75C10.5858 6.75 10.25 7.08579 10.25 7.5C10.25 7.91421 10.5858 8.25 11 8.25H13C13.4142 8.25 13.75 7.91421 13.75 7.5C13.75 7.08579 13.4142 6.75 13 6.75H11Z" fill="#4E5964"/>
</svg>
