<svg width="24" height="24" viewBox="0 0 24 24" fill="none" xmlns="http://www.w3.org/2000/svg">
<path d="M11.8721 6.80273C13.6799 6.78383 15.4563 7.27989 16.9893 8.23242C18.5221 9.18498 19.7481 10.5546 20.5205 12.1787C21.2929 13.8029 21.5785 15.6136 21.3438 17.3945C21.2483 18.1184 21.0668 18.8242 20.8086 19.5H21C21.4141 19.5002 21.75 19.8359 21.75 20.25C21.75 20.6641 21.4141 20.9998 21 21H3C2.58579 21 2.25 20.6642 2.25 20.25C2.25 19.8358 2.58579 19.5 3 19.5H3.06641C2.86748 18.9043 2.74097 18.2793 2.63477 17.5908C2.36088 15.8152 2.60713 13.9986 3.34375 12.3584C4.08036 10.7184 5.2763 9.32333 6.78809 8.33887C8.29983 7.35452 10.0644 6.82166 11.8721 6.80273ZM11.75 10.25C11.3358 10.25 11 10.5858 11 11V11.75H10.75C9.23122 11.75 8 12.9812 8 14.5V14.8057C8 16.15 8.97184 17.2975 10.2979 17.5186L11 17.6348V19.5H12.5V17.8848L12.9551 17.9609C13.5578 18.0614 14 18.5833 14 19.1943V19.5H15.5V19.1943C15.5 17.85 14.5282 16.7025 13.2021 16.4814L12.5 16.3643V13.25H12.75C13.4404 13.25 14 13.8096 14 14.5V15C14 15.4142 14.3358 15.75 14.75 15.75C15.1642 15.75 15.5 15.4142 15.5 15V14.5C15.5 12.9812 14.2688 11.75 12.75 11.75H12.5V11C12.5 10.5858 12.1642 10.25 11.75 10.25ZM11 16.1143L10.5449 16.0391C9.94219 15.9386 9.5 15.4167 9.5 14.8057V14.5C9.5 13.8096 10.0596 13.25 10.75 13.25H11V16.1143ZM8 4.25C8.41421 4.25 8.75 4.58579 8.75 5V6C8.75 6.41421 8.41421 6.75 8 6.75C7.58579 6.75 7.25 6.41421 7.25 6V5C7.25 4.58579 7.58579 4.25 8 4.25ZM16 4.25C16.4142 4.25 16.75 4.58579 16.75 5V6C16.75 6.41421 16.4142 6.75 16 6.75C15.5858 6.75 15.25 6.41421 15.25 6V5C15.25 4.58579 15.5858 4.25 16 4.25ZM12 2.25C12.4142 2.25 12.75 2.58579 12.75 3V5C12.75 5.41421 12.4142 5.75 12 5.75C11.5858 5.75 11.25 5.41421 11.25 5V3C11.25 2.58579 11.5858 2.25 12 2.25Z" fill="#4E5964"/>
</svg>
