<svg width="24" height="24" viewBox="0 0 24 24" fill="none" xmlns="http://www.w3.org/2000/svg">
<path d="M11.999 2.25C12.4132 2.25 12.749 2.58579 12.749 3V5C12.749 5.41421 12.4132 5.75 11.999 5.75C11.5848 5.75 11.249 5.41421 11.249 5V3C11.249 2.58579 11.5848 2.25 11.999 2.25Z" fill="#4E5964"/>
<path d="M7.99902 4.25C8.41324 4.25 8.74902 4.58579 8.74902 5V6C8.74902 6.41421 8.41324 6.75 7.99902 6.75C7.58481 6.75 7.24902 6.41421 7.24902 6V5C7.24902 4.58579 7.58481 4.25 7.99902 4.25Z" fill="#4E5964"/>
<path d="M13.249 15.6667C13.249 15.9605 13.0317 16.2037 12.749 16.2441V15.0892C13.0317 15.1297 13.249 15.3728 13.249 15.6667Z" fill="#4E5964"/>
<path d="M10.749 13C10.749 12.7061 10.9663 12.463 11.249 12.4226V13.5774C10.9663 13.537 10.749 13.2939 10.749 13Z" fill="#4E5964"/>
<path fill-rule="evenodd" clip-rule="evenodd" d="M16.9892 8.23238C15.4563 7.27985 13.6804 6.78386 11.8726 6.80277C10.0648 6.82167 8.3001 7.35469 6.78826 8.33919C5.27635 9.32373 4.08059 10.7186 3.34399 12.3588C2.60736 13.999 2.36121 15.815 2.6351 17.5906C2.74126 18.2789 2.86554 18.9044 3.06434 19.5H3C2.58579 19.5 2.25 19.8358 2.25 20.25C2.25 20.6642 2.58579 21 3 21H20.9997C21.4139 21 21.7497 20.6642 21.7497 20.25C21.7497 19.8358 21.4139 19.5 20.9997 19.5H20.8114C21.0695 18.8243 21.2492 18.1179 21.3446 17.3941C21.5794 15.6131 21.2933 13.8028 20.5208 12.1785C19.7483 10.5543 18.5223 9.18495 16.9892 8.23238ZM9.24902 13C9.24902 11.8758 10.1394 10.9596 11.2534 10.9181C11.2942 10.5424 11.6125 10.25 11.999 10.25C12.3852 10.25 12.7032 10.5418 12.7445 10.917C13.7 10.9335 14.497 11.5927 14.7254 12.4797C14.8286 12.8809 14.5871 13.2897 14.186 13.393C13.7848 13.4962 13.3759 13.2548 13.2727 12.8536C13.2112 12.6148 13.0016 12.4358 12.749 12.4181V13.585C13.861 13.6287 14.749 14.544 14.749 15.6667C14.749 16.7908 13.8586 17.707 12.7446 17.7485C12.7038 18.1242 12.3856 18.4167 11.999 18.4167C11.6129 18.4167 11.2949 18.1248 11.2536 17.7497C10.2981 17.7332 9.501 17.074 9.2727 16.1869C9.16945 15.7858 9.41094 15.3769 9.81208 15.2737C10.2132 15.1704 10.6221 15.4119 10.7254 15.8131C10.7868 16.0519 10.9965 16.2308 11.249 16.2486V15.0817C10.1371 15.038 9.24902 14.1227 9.24902 13Z" fill="#4E5964"/>
<path d="M16.749 5C16.749 4.58579 16.4132 4.25 15.999 4.25C15.5848 4.25 15.249 4.58579 15.249 5V6C15.249 6.41421 15.5848 6.75 15.999 6.75C16.4132 6.75 16.749 6.41421 16.749 6V5Z" fill="#4E5964"/>
</svg>
