<svg width="24" height="24" viewBox="0 0 24 24" fill="none" xmlns="http://www.w3.org/2000/svg">
<path d="M12 2.24976C12.0988 2.24976 12.1973 2.25123 12.2954 2.25414C12.3053 2.28148 12.3168 2.30853 12.3302 2.33517C12.5803 2.83541 12.913 3.5089 13.1577 4.24654C13.4049 4.99218 13.5382 5.73524 13.4449 6.3799C13.3894 6.76406 13.4261 7.13362 13.5727 7.46903C14.0405 8.53874 14.9175 9.17304 15.5958 9.66365C15.6555 9.70683 15.7138 9.74894 15.77 9.79009C16.5173 10.3372 16.9824 10.7514 17.1274 11.4506C17.472 13.1121 18.3417 15.0153 20.7937 15.7205C20.8634 15.7406 20.9336 15.7501 21.0027 15.7499C20.0812 17.9596 18.3698 19.7575 16.2214 20.791C16.1873 20.6735 16.124 20.5626 16.0313 20.4699C15.892 20.3306 15.6965 20.2106 15.5487 20.1236C15.3943 20.0327 15.2061 19.9299 15.0086 19.822L14.9564 19.7934C14.513 19.5511 13.9879 19.2615 13.463 18.9125C12.3782 18.1912 11.471 17.3282 11.2291 16.3244C10.9946 15.351 10.2982 14.8284 9.49506 14.6208C8.74381 14.4266 7.87063 14.4921 7.07323 14.6355C5.74315 14.8746 4.35425 15.3878 3.61809 15.6598C3.46833 15.7152 3.34558 15.7605 3.25584 15.7915C3.18359 15.8165 3.11761 15.8515 3.05889 15.8943C3.01764 15.7997 2.97785 15.7044 2.93954 15.6083C3.05568 15.5247 3.14922 15.4071 3.20322 15.2631C3.79327 13.6897 4.6912 12.8771 5.5733 12.3899C6.67713 11.7803 7.25333 10.801 7.72006 9.97438L7.79361 9.84392C8.25064 9.03273 8.62064 8.37602 9.25727 7.8989C9.28517 7.87799 9.31968 7.85971 9.36791 7.8468C9.41757 7.83351 9.49174 7.82336 9.59885 7.83071C9.88806 7.85056 10.2889 7.82043 10.5998 7.53254C10.9341 7.22314 10.9589 6.81396 10.9303 6.55389C10.9014 6.29109 10.8058 6.0289 10.7068 5.80496C10.6035 5.57151 10.4725 5.32731 10.3363 5.09013C10.1995 4.85182 10.0496 4.60675 9.90621 4.37336L9.87541 4.32322C9.74116 4.1047 9.61392 3.89758 9.49983 3.70196C9.37631 3.4902 9.27832 3.30895 9.21079 3.16001C9.15035 3.02671 9.13409 2.96126 9.13051 2.94684C9.12967 2.94346 9.12953 2.94289 9.12968 2.9449C9.12324 2.85726 9.10198 2.77425 9.06854 2.69814C9.99378 2.40683 10.9785 2.24976 12 2.24976Z" fill="#4E5964"/>
<path d="M7.66484 3.26414C4.45544 4.85992 2.25 8.17228 2.25 11.9998C2.25 12.5176 2.29038 13.0261 2.36815 13.5221C3.06072 12.3247 3.9496 11.5731 4.8481 11.0769C5.54234 10.6935 5.94268 10.0714 6.4139 9.23685C6.44745 9.17744 6.48144 9.11673 6.51603 9.05494C6.94124 8.29552 7.45775 7.37304 8.3577 6.69858C8.63201 6.49299 8.95177 6.37476 9.30205 6.33954C9.23263 6.19161 9.14241 6.02328 9.0354 5.83684C8.91124 5.62052 8.77236 5.39337 8.62804 5.15839L8.59536 5.10519C8.46335 4.89034 8.3273 4.6689 8.20412 4.4577C8.07146 4.23026 7.94358 3.99762 7.84465 3.77942C7.77739 3.63107 7.70589 3.45237 7.66484 3.26414Z" fill="#4E5964"/>
<path d="M21.75 11.9998C21.75 12.8282 21.6467 13.6325 21.4522 14.4004C21.381 14.3468 21.299 14.3051 21.2083 14.279C19.5198 13.7934 18.8858 12.5427 18.5961 11.146C18.324 9.83381 17.3996 9.12416 16.6561 8.57979L16.5343 8.49081C15.7989 7.95374 15.2449 7.54912 14.9471 6.86807C14.9299 6.82882 14.9072 6.74841 14.9295 6.59464C15.0708 5.61785 14.8609 4.61715 14.5814 3.77439C14.4244 3.30093 14.2378 2.85572 14.0601 2.46782C18.4555 3.41328 21.75 7.32178 21.75 11.9998Z" fill="#4E5964"/>
<path d="M14.7065 21.3692C14.5888 21.3019 14.448 21.225 14.2819 21.1342L14.237 21.1097C13.7936 20.8673 13.2171 20.5503 12.6325 20.1616C11.4984 19.4075 10.1551 18.2703 9.77087 16.6758C9.69239 16.3501 9.50412 16.1724 9.11965 16.073C8.68331 15.9602 8.06597 15.981 7.33862 16.1118C6.15928 16.3238 4.94563 16.7704 4.18812 17.0492C4.01925 17.1113 3.87304 17.1651 3.75494 17.2061C5.48279 19.9367 8.52966 21.7498 12 21.7498C12.9391 21.7498 13.8472 21.617 14.7065 21.3692Z" fill="#4E5964"/>
</svg>
