<svg width="24" height="24" viewBox="0 0 24 24" fill="none" xmlns="http://www.w3.org/2000/svg">
<path d="M22 18V18.6667V18.6667C22 20.5076 20.5076 22 18.6667 22H5.33333C3.49238 22 2 20.5076 2 18.6667V18.6667V18" stroke="#4E5964" stroke-width="1.5" stroke-linecap="round"/>
<path fill-rule="evenodd" clip-rule="evenodd" d="M10.4 13.1496C10.0686 12.9011 10.0015 12.431 10.25 12.0996L10.55 11.6996C10.7985 11.3682 11.2686 11.3011 11.6 11.5496C11.9314 11.7981 11.9985 12.2682 11.75 12.5996L11.45 12.9996C11.2015 13.331 10.7314 13.3981 10.4 13.1496ZM9.96438 7.44601L7.4048 11.1062C7.05525 11.6061 6.92475 12.2202 7.04201 12.8134L7.6869 16.0755C7.809 16.6931 8.42423 17.0978 9.06104 16.9794L12.4245 16.354C13.0361 16.2402 13.5761 15.8955 13.9257 15.3956L16.5303 11.671C16.4752 11.6517 16.4215 11.6256 16.3704 11.5925L9.96438 7.44601ZM10.8245 6.21597L17.1855 10.3332C17.2524 10.3766 17.3101 10.4287 17.3581 10.4872L19.595 7.28853C20.3229 6.24759 20.0429 4.83143 18.9697 4.12543L16.3355 2.39262C15.82 2.05359 15.1869 1.92701 14.5753 2.04075C13.9636 2.15449 13.4236 2.49921 13.0741 2.99909L10.8245 6.21597Z" fill="#4E5964"/>
</svg>
