<svg width="24" height="24" viewBox="0 0 24 24" fill="none" xmlns="http://www.w3.org/2000/svg">
<path fill-rule="evenodd" clip-rule="evenodd" d="M11.2551 2.5C9.97722 2.5 8.94131 3.50736 8.94131 4.75C8.94131 5.99264 9.97722 7 11.2551 7C12.5329 7 13.5688 5.99264 13.5688 4.75C13.5688 3.50736 12.5329 2.5 11.2551 2.5ZM7.3988 4.75C7.3988 2.67893 9.12532 1 11.2551 1C13.3848 1 15.1114 2.67893 15.1114 4.75C15.1114 6.82107 13.3848 8.5 11.2551 8.5C9.12532 8.5 7.3988 6.82107 7.3988 4.75Z" fill="#00A881"/>
<path fill-rule="evenodd" clip-rule="evenodd" d="M19.2229 10.1953L17.1953 12.2229C17.0702 12.348 17 12.5175 17 12.6943V13.6667C17 13.8508 17.1492 14 17.3333 14H18.3056C18.4825 14 18.652 13.9298 18.7771 13.8047L20.8047 11.7771C21.0651 11.5167 21.0651 11.0946 20.8047 10.8343L20.1657 10.1953C20.0407 10.0702 19.8712 10 19.6943 10C19.5175 10 19.348 10.0702 19.2229 10.1953Z" fill="#00A881"/>
<path fill-rule="evenodd" clip-rule="evenodd" d="M19.6943 10.7845L20.2155 11.3057L18.2711 13.25H17.75V12.7289L19.6943 10.7845ZM18.6926 9.66493C18.9583 9.39926 19.3186 9.25 19.6943 9.25C20.0701 9.25 20.4304 9.39926 20.6961 9.66494L21.3351 10.3039C21.3351 10.3039 21.3351 10.3039 21.3351 10.3039C21.8883 10.8572 21.8883 11.7542 21.3351 12.3074L19.3074 14.3351C19.3074 14.3351 19.3074 14.3351 19.3074 14.3351C19.0417 14.6007 18.6814 14.75 18.3056 14.75H17.3333C16.735 14.75 16.25 14.265 16.25 13.6667V12.6943C16.25 12.3186 16.3993 11.9583 16.6649 11.6926L18.6926 9.66493C18.6926 9.66494 18.6926 9.66493 18.6926 9.66493Z" fill="#00A881"/>
<path d="M14.3401 4.75C14.3401 6.40685 12.9589 7.75 11.2551 7.75C9.55125 7.75 8.17004 6.40685 8.17004 4.75C8.17004 3.09315 9.55125 1.75 11.2551 1.75C12.9589 1.75 14.3401 3.09315 14.3401 4.75Z" fill="#00A881"/>
<path fill-rule="evenodd" clip-rule="evenodd" d="M11.2551 2.5C9.97722 2.5 8.94131 3.50736 8.94131 4.75C8.94131 5.99264 9.97722 7 11.2551 7C12.5329 7 13.5688 5.99264 13.5688 4.75C13.5688 3.50736 12.5329 2.5 11.2551 2.5ZM7.3988 4.75C7.3988 2.67893 9.12532 1 11.2551 1C13.3848 1 15.1114 2.67893 15.1114 4.75C15.1114 6.82107 13.3848 8.5 11.2551 8.5C9.12532 8.5 7.3988 6.82107 7.3988 4.75Z" fill="#00A881"/>
<path d="M8.17004 22.75H14.7738C17.9419 22.75 20.5101 20.2525 20.5101 17.1717C20.5101 17.0217 20.385 16.9 20.2307 16.9H17.8658C16.4054 16.9 15.2215 15.7487 15.2215 14.3286V13.325C15.2215 11.3506 13.5756 9.75 11.5452 9.75H6.62753C4.07182 9.75 2 11.7647 2 14.25V16.75C2 20.0637 4.76242 22.75 8.17004 22.75Z" fill="#00A881"/>
</svg>
