<svg width="24" height="24" viewBox="0 0 24 24" fill="none" xmlns="http://www.w3.org/2000/svg">
<path d="M13.75 4.75C13.75 6.40685 12.4069 7.75 10.75 7.75C9.09315 7.75 7.75 6.40685 7.75 4.75C7.75 3.09315 9.09315 1.75 10.75 1.75C12.4069 1.75 13.75 3.09315 13.75 4.75Z" fill="#4E5964"/>
<path fill-rule="evenodd" clip-rule="evenodd" d="M10.75 2.5C9.50736 2.5 8.5 3.50736 8.5 4.75C8.5 5.99264 9.50736 7 10.75 7C11.9926 7 13 5.99264 13 4.75C13 3.50736 11.9926 2.5 10.75 2.5ZM7 4.75C7 2.67893 8.67893 1 10.75 1C12.8211 1 14.5 2.67893 14.5 4.75C14.5 6.82107 12.8211 8.5 10.75 8.5C8.67893 8.5 7 6.82107 7 4.75Z" fill="#4E5964"/>
<path d="M8.25 21.75H14.0299C16.6367 21.75 18.75 19.6367 18.75 17.0299C18.75 16.8753 18.6247 16.75 18.4701 16.75H16.4643C15.2019 16.75 14.1786 15.7267 14.1786 14.4643V13.75C14.1786 12.0931 12.8354 10.75 11.1786 10.75H6.25C4.317 10.75 2.75 12.317 2.75 14.25V16.25C2.75 19.2876 5.21243 21.75 8.25 21.75Z" fill="#4E5964"/>
<path fill-rule="evenodd" clip-rule="evenodd" d="M6.25 11.5C4.73122 11.5 3.5 12.7312 3.5 14.25V16.25C3.5 18.8734 5.62665 21 8.25 21H14.0299C16.0635 21 17.7399 19.4711 17.9725 17.5H16.4643C14.7877 17.5 13.4286 16.1409 13.4286 14.4643V13.75C13.4286 12.5074 12.4212 11.5 11.1786 11.5H6.25ZM2 14.25C2 11.9028 3.90279 10 6.25 10H11.1786C13.2496 10 14.9286 11.6789 14.9286 13.75V14.4643C14.9286 15.3124 15.6161 16 16.4643 16H18.4701C19.0389 16 19.5 16.4611 19.5 17.0299C19.5 20.051 17.051 22.5 14.0299 22.5H8.25C4.79822 22.5 2 19.7018 2 16.25V14.25Z" fill="#4E5964"/>
<path fill-rule="evenodd" clip-rule="evenodd" d="M16.0429 12.0844L19.0844 9.0429C19.2719 8.85536 19.5263 8.75 19.7915 8.75C20.0567 8.75 20.3111 8.85536 20.4986 9.0429L21.4571 10.0014C21.8476 10.3919 21.8476 11.0251 21.4571 11.4156L18.4156 14.4571C18.228 14.6446 17.9737 14.75 17.7085 14.75H16.25C15.9739 14.75 15.75 14.5261 15.75 14.25V12.7915C15.75 12.5263 15.8554 12.2719 16.0429 12.0844Z" fill="#4E5964"/>
</svg>
