<svg width="24" height="24" viewBox="0 0 24 24" fill="none" xmlns="http://www.w3.org/2000/svg">
<path d="M3.39535 17.4217C3.39535 17.0224 3.08299 16.6988 2.69767 16.6988C2.31236 16.6988 2 17.0224 2 17.4217V18.0643C2 20.2379 3.70062 22 5.79845 22H18.2015C20.2994 22 22 20.2379 22 18.0643V17.4217C22 17.0224 21.6876 16.6988 21.3023 16.6988C20.917 16.6988 20.6047 17.0224 20.6047 17.4217V18.0643C20.6047 19.4394 19.5287 20.5542 18.2015 20.5542H5.79845C4.47125 20.5542 3.39535 19.4394 3.39535 18.0643V17.4217Z" fill="#4E5964"/>
<path fill-rule="evenodd" clip-rule="evenodd" d="M10.5117 12.7466C10.2034 12.5071 10.1409 12.054 10.3721 11.7346L10.6512 11.349C10.8824 11.0296 11.3197 10.9649 11.6279 11.2044C11.9362 11.444 11.9987 11.8971 11.7675 12.2165L11.4884 12.602C11.2572 12.9214 10.8199 12.9862 10.5117 12.7466ZM10.1064 7.24917L7.72544 10.7771C7.40027 11.2589 7.27888 11.8508 7.38796 12.4225L7.98786 15.5668C8.10144 16.1621 8.67374 16.5521 9.26613 16.438L12.3949 15.8352C12.9638 15.7255 13.4662 15.3933 13.7913 14.9114L16.2143 11.3214C16.163 11.3028 16.1131 11.2777 16.0655 11.2457L10.1064 7.24917ZM10.9066 6.06358L16.8237 10.032C16.886 10.0738 16.9397 10.1241 16.9843 10.1805L19.0651 7.09738C19.7423 6.09406 19.4818 4.72909 18.4834 4.04861L16.033 2.37843C15.5536 2.05165 14.9646 1.92965 14.3956 2.03928C13.8267 2.1489 13.3244 2.48117 12.9992 2.96298L10.9066 6.06358Z" fill="#4E5964"/>
</svg>
