<svg width="24" height="24" viewBox="0 0 24 24" fill="none" xmlns="http://www.w3.org/2000/svg">
<path d="M11.75 2C9.67893 2 8 3.67893 8 5.75C8 7.82107 9.67893 9.5 11.75 9.5C13.8211 9.5 15.5 7.82107 15.5 5.75C15.5 3.67893 13.8211 2 11.75 2Z" fill="#4E5964"/>
<path d="M7.75 11C5.19552 11 3 12.8982 3 15.3864V16.75C3 19.9913 5.86709 22.5 9.25 22.5H14.25C17.6329 22.5 20.5 19.9913 20.5 16.75L18.5682 16.7499C16.3591 16.7498 14.5684 14.959 14.5684 12.7499V11H7.75Z" fill="#4E5964"/>
<path d="M19.6885 9.75C19.8653 9.75 20.0352 9.82029 20.1602 9.94531L20.7989 10.584C21.0592 10.8443 21.0592 11.267 20.7989 11.5273L18.7715 13.5547C18.6465 13.6797 18.4766 13.75 18.2998 13.75H17.3272C17.1433 13.7498 16.9943 13.6008 16.9941 13.417V12.4443C16.9941 12.2675 17.0644 12.0977 17.1895 11.9727L19.2168 9.94531C19.3419 9.82029 19.5117 9.75 19.6885 9.75Z" fill="#4E5964"/>
</svg>
