<svg width="24" height="24" viewBox="0 0 24 24" fill="none" xmlns="http://www.w3.org/2000/svg">
<path d="M2.75 18C2.75 17.5858 2.41421 17.25 2 17.25C1.58579 17.25 1.25 17.5858 1.25 18V18.6667C1.25 20.9218 3.07817 22.75 5.33333 22.75H18.6667C20.9218 22.75 22.75 20.9218 22.75 18.6667V18C22.75 17.5858 22.4142 17.25 22 17.25C21.5858 17.25 21.25 17.5858 21.25 18V18.6667C21.25 20.0934 20.0934 21.25 18.6667 21.25H5.33333C3.9066 21.25 2.75 20.0934 2.75 18.6667V18Z" fill="#00A881"/>
<path fill-rule="evenodd" clip-rule="evenodd" d="M10.4 13.1496C10.0686 12.9011 10.0015 12.431 10.25 12.0996L10.55 11.6996C10.7985 11.3682 11.2686 11.3011 11.6 11.5496C11.9314 11.7981 11.9985 12.2682 11.75 12.5996L11.45 12.9996C11.2015 13.331 10.7314 13.3981 10.4 13.1496ZM9.96438 7.44601L7.4048 11.1062C7.05525 11.6061 6.92475 12.2202 7.04201 12.8134L7.6869 16.0755C7.809 16.6931 8.42423 17.0978 9.06104 16.9794L12.4245 16.354C13.0361 16.2402 13.5761 15.8955 13.9257 15.3956L16.5303 11.671C16.4752 11.6517 16.4215 11.6256 16.3704 11.5925L9.96438 7.44601ZM10.8245 6.21597L17.1855 10.3332C17.2524 10.3766 17.3101 10.4287 17.3581 10.4872L19.595 7.28853C20.3229 6.24759 20.0429 4.83143 18.9697 4.12543L16.3355 2.39262C15.82 2.05359 15.1869 1.92701 14.5753 2.04075C13.9636 2.15449 13.4236 2.49921 13.0741 2.99909L10.8245 6.21597Z" fill="#00A881"/>
</svg>
