<svg width="24" height="24" viewBox="0 0 24 24" fill="none" xmlns="http://www.w3.org/2000/svg">
<path d="M19.3819 4.49884L16.7476 2.76603C16.0688 2.31949 15.2385 2.15455 14.4382 2.30339C13.6375 2.45227 12.9242 2.9047 12.4595 3.56929L10.7066 6.07586L18.3721 11.3459L20.2096 8.71833C21.1845 7.32428 20.8011 5.43245 19.3819 4.49884Z" fill="#4E5964"/>
<path fill-rule="evenodd" clip-rule="evenodd" d="M6.79019 11.6764L9.847 7.30515L17.5125 12.5752L14.5403 16.8254C14.0756 17.49 13.3623 17.9424 12.5616 18.0913L9.19817 18.7168C8.17694 18.9067 7.15675 18.2609 6.95115 17.221L6.30627 13.9588C6.14903 13.1634 6.32482 12.3419 6.79019 11.6764ZM10.25 13.0996C10.0015 13.431 10.0686 13.9011 10.4 14.1496C10.7314 14.3981 11.2015 14.331 11.45 13.9996L11.75 13.5996C11.9985 13.2682 11.9314 12.7981 11.6 12.5496C11.2686 12.3011 10.7985 12.3682 10.55 12.6996L10.25 13.0996Z" fill="#4E5964"/>
<path d="M3.75 18C3.75 17.5858 3.41421 17.25 3 17.25C2.58579 17.25 2.25 17.5858 2.25 18V18.5C2.25 20.2949 3.70507 21.75 5.5 21.75H18.5C20.2949 21.75 21.75 20.2949 21.75 18.5V18C21.75 17.5858 21.4142 17.25 21 17.25C20.5858 17.25 20.25 17.5858 20.25 18V18.5C20.25 19.4665 19.4665 20.25 18.5 20.25H5.5C4.5335 20.25 3.75 19.4665 3.75 18.5V18Z" fill="#4E5964"/>
</svg>
