<svg width="24" height="24" viewBox="0 0 24 24" fill="none" xmlns="http://www.w3.org/2000/svg">
<path fill-rule="evenodd" clip-rule="evenodd" d="M11.2551 2.5C9.97722 2.5 8.94131 3.50736 8.94131 4.75C8.94131 5.99264 9.97722 7 11.2551 7C12.5329 7 13.5688 5.99264 13.5688 4.75C13.5688 3.50736 12.5329 2.5 11.2551 2.5ZM7.3988 4.75C7.3988 2.67893 9.12532 1 11.2551 1C13.3848 1 15.1114 2.67893 15.1114 4.75C15.1114 6.82107 13.3848 8.5 11.2551 8.5C9.12532 8.5 7.3988 6.82107 7.3988 4.75Z" fill="#00A881"/>
<path fill-rule="evenodd" clip-rule="evenodd" d="M17.1953 12.2229L19.2229 10.1953C19.348 10.0702 19.5175 10 19.6943 10C19.8712 10 20.0407 10.0702 20.1657 10.1953L20.8047 10.8343C21.0651 11.0946 21.0651 11.5167 20.8047 11.7771L18.7771 13.8047C18.652 13.9298 18.4825 14 18.3056 14H17.3333C17.1492 14 17 13.8508 17 13.6667V12.6943C17 12.5175 17.0702 12.348 17.1953 12.2229Z" fill="#00A881" stroke="#00A881" stroke-width="1.5" stroke-linecap="round" stroke-linejoin="round"/>
<path d="M14.3401 4.75C14.3401 6.40685 12.9589 7.75 11.2551 7.75C9.55125 7.75 8.17004 6.40685 8.17004 4.75C8.17004 3.09315 9.55125 1.75 11.2551 1.75C12.9589 1.75 14.3401 3.09315 14.3401 4.75Z" fill="#00A881"/>
<path fill-rule="evenodd" clip-rule="evenodd" d="M11.2551 2.5C9.97722 2.5 8.94131 3.50736 8.94131 4.75C8.94131 5.99264 9.97722 7 11.2551 7C12.5329 7 13.5688 5.99264 13.5688 4.75C13.5688 3.50736 12.5329 2.5 11.2551 2.5ZM7.3988 4.75C7.3988 2.67893 9.12532 1 11.2551 1C13.3848 1 15.1114 2.67893 15.1114 4.75C15.1114 6.82107 13.3848 8.5 11.2551 8.5C9.12532 8.5 7.3988 6.82107 7.3988 4.75Z" fill="#00A881"/>
<path d="M8.17004 22.75H14.7738C17.9419 22.75 20.5101 20.2525 20.5101 17.1717C20.5101 17.0217 20.385 16.9 20.2307 16.9H17.8658C16.4054 16.9 15.2215 15.7487 15.2215 14.3286V13.325C15.2215 11.3506 13.5756 9.75 11.5452 9.75H6.62753C4.07182 9.75 2 11.7647 2 14.25V16.75C2 20.0637 4.76242 22.75 8.17004 22.75Z" fill="#00A881"/>
</svg>
