<svg width="24" height="24" viewBox="0 0 24 24" fill="none" xmlns="http://www.w3.org/2000/svg">
<path fill-rule="evenodd" clip-rule="evenodd" d="M8.25 5C8.25 2.92893 9.92893 1.25 12 1.25C14.0711 1.25 15.75 2.92893 15.75 5C15.75 7.07107 14.0711 8.75 12 8.75C9.92893 8.75 8.25 7.07107 8.25 5Z" fill="#4E5964"/>
<path fill-rule="evenodd" clip-rule="evenodd" d="M3.25 15C3.25 12.3766 4.37665 10.25 7 10.25H11.7293C13.683 10.25 15.25 11.8621 15.25 13.7972C15.25 13.9716 15.2356 14.1482 15.2068 14.3214C15.0374 15.3378 15.8163 16.2651 16.8467 16.2737L19.5563 16.2963C20.2171 16.3018 20.75 16.8391 20.75 17.5C20.75 20.3995 18.3995 22.75 15.5 22.75H9.5C6.04822 22.75 3.25 19.9518 3.25 16.5V15Z" fill="#4E5964"/>
<path fill-rule="evenodd" clip-rule="evenodd" d="M18.6926 9.66493C18.9583 9.39926 19.3186 9.25 19.6943 9.25C20.0701 9.25 20.4304 9.39926 20.6961 9.66494L21.3351 10.3039C21.8883 10.8572 21.8883 11.7542 21.3351 12.3074L19.3074 14.3351C19.0417 14.6007 18.6814 14.75 18.3056 14.75H17.3333C16.735 14.75 16.25 14.265 16.25 13.6667V12.6943C16.25 12.3186 16.3993 11.9583 16.6649 11.6926L18.6926 9.66493Z" fill="#4E5964"/>
</svg>
