<svg width="24" height="24" viewBox="0 0 24 24" fill="none" xmlns="http://www.w3.org/2000/svg">
<path d="M11.75 1C9.67893 1 8 2.67893 8 4.75C8 6.82107 9.67893 8.5 11.75 8.5C13.8211 8.5 15.5 6.82107 15.5 4.75C15.5 2.67893 13.8211 1 11.75 1Z" fill="#4E5964"/>
<path d="M7.25 10C4.62665 10 3 12.1266 3 14.75V16.25C3 19.7018 5.79822 22.5 9.25 22.5H15.25C18.1495 22.5 20.5 20.1495 20.5 17.25V17.0462C20.5 16.4939 20.0523 16.0463 19.5 16.0463H16.9568C15.8522 16.0463 14.9568 15.1518 14.9568 14.0473V10.9993C14.9568 10.447 14.5092 10 13.9569 10H7.25Z" fill="#4E5964"/>
<path d="M19.6943 9.25C19.3186 9.25 18.9583 9.39926 18.6926 9.66493L16.6649 11.6926C16.3993 11.9583 16.25 12.3186 16.25 12.6943V13.6667C16.25 14.265 16.735 14.75 17.3333 14.75H18.3056C18.6814 14.75 19.0417 14.6007 19.3074 14.3351L21.3351 12.3074C21.8883 11.7542 21.8883 10.8572 21.3351 10.3039L20.6961 9.66494C20.4304 9.39926 20.0701 9.25 19.6943 9.25Z" fill="#4E5964"/>
</svg>
