<svg width="24" height="25" viewBox="0 0 24 25" fill="none" xmlns="http://www.w3.org/2000/svg">
<path d="M18.3855 3.27563C17.9862 3.27563 17.6626 3.61643 17.6626 4.03683C17.6626 4.45722 17.9862 4.79802 18.3855 4.79802L19.3493 4.79802C19.7486 4.79802 20.0722 4.45722 20.0722 4.03683C20.0722 3.61643 19.7486 3.27563 19.3493 3.27563H18.3855Z" fill="#4E5964"/>
<path d="M18.3855 5.30549C17.9862 5.30549 17.6626 5.64628 17.6626 6.06668C17.6626 6.48708 17.9862 6.82787 18.3855 6.82787H21.2771C21.6763 6.82787 21.9999 6.48708 21.9999 6.06668C21.9999 5.64628 21.6763 5.30549 21.2771 5.30549H18.3855Z" fill="#4E5964"/>
<path fill-rule="evenodd" clip-rule="evenodd" d="M15.7771 20.2756H7.5C4.46244 20.2756 2 17.8132 2 14.7756V9.53684C2 8.31018 2.40157 7.17732 3.08041 6.26254L7.94963 11.3615L4.81292 15.8259C4.5748 16.1648 4.65651 16.6326 4.99543 16.8707C5.33435 17.1089 5.80214 17.0271 6.04027 16.6882L9.0058 12.4674L10.1136 13.6275C10.9786 14.5329 12.394 14.526 13.2506 13.6131L14.0188 12.7945L16.7554 16.69C16.9935 17.029 17.4612 17.1107 17.8002 16.8726C18.1391 16.6345 18.2209 16.1667 17.9828 15.8278L15.0672 11.6773L16.0409 10.6396L16.0449 10.6353L17.5977 8.95435C17.9329 9.07734 18.3137 9.15643 18.7442 9.19709C20.0891 9.32413 21.2771 10.2979 21.2771 11.6488V14.7756C21.2771 17.8132 18.8147 20.2756 15.7771 20.2756ZM16.3724 8.07016L14.9451 9.61526L12.1568 12.5867C11.8886 12.8725 11.4683 12.8741 11.1983 12.5914L4.1301 5.18981C5.061 4.46711 6.23025 4.03683 7.5 4.03683H14.5301C15.0624 4.03683 15.4894 4.47107 15.5188 5.00258C15.5966 6.4055 15.861 7.39985 16.3724 8.07016Z" fill="#4E5964"/>
</svg>
