<svg width="24" height="24" viewBox="0 0 24 24" fill="none" xmlns="http://www.w3.org/2000/svg">
<path d="M20.2003 3.99726C20.18 4.04915 20.1536 4.09959 20.1209 4.14757L15.4301 11.023L19.0835 15.5279C19.3445 15.8496 19.2952 16.3219 18.9735 16.5828C18.6517 16.8437 18.1794 16.7944 17.9185 16.4727L14.5477 12.3164L14.0403 13.0602C13.9241 13.2305 13.73 13.5151 13.4324 13.7249C12.5085 14.3764 11.2043 14.2489 10.4325 13.3527L10.4267 13.346L9.51226 12.2318L6.22172 16.5367C5.97017 16.8658 5.49948 16.9286 5.17039 16.6771C4.8413 16.4256 4.77844 15.9549 5.02998 15.6258L8.49202 11.0965C8.50627 11.0779 8.52122 11.0601 8.53681 11.0432L3.13968 4.46661C1.98487 5.42965 1.25 6.87925 1.25 8.50049V15.5005C1.25 18.4 3.60051 20.7505 6.5 20.7505H17.5C20.3995 20.7505 22.75 18.4 22.75 15.5005V8.50049C22.75 6.5885 21.7279 4.91524 20.2003 3.99726Z" fill="#4E5964"/>
<path d="M4.42996 3.67436L11.5739 12.3795C11.8307 12.6718 12.2624 12.7146 12.568 12.4991C12.6188 12.4632 12.6783 12.395 12.8056 12.2084L18.8055 3.41408C18.3881 3.30727 17.9507 3.25049 17.5 3.25049H6.5C5.76492 3.25049 5.06512 3.40156 4.42996 3.67436Z" fill="#4E5964"/>
</svg>
