<svg width="24" height="24" viewBox="0 0 24 24" fill="none" xmlns="http://www.w3.org/2000/svg">
<path d="M18.3855 3C17.9862 3 17.6626 3.3408 17.6626 3.76119C17.6626 4.18159 17.9862 4.52239 18.3855 4.52239L19.3493 4.52239C19.7486 4.52239 20.0722 4.18159 20.0722 3.76119C20.0722 3.3408 19.7486 3 19.3493 3H18.3855Z" fill="#00A881"/>
<path d="M18.3855 5.02985C17.9862 5.02985 17.6626 5.37065 17.6626 5.79104C17.6626 6.21144 17.9862 6.55224 18.3855 6.55224H21.2771C21.6763 6.55224 21.9999 6.21144 21.9999 5.79104C21.9999 5.37065 21.6763 5.02985 21.2771 5.02985H18.3855Z" fill="#00A881"/>
<path fill-rule="evenodd" clip-rule="evenodd" d="M15.7771 20H7.5C4.46244 20 2 17.5376 2 14.5V9.2612C2 8.03455 2.40157 6.90169 3.08041 5.9869L7.94963 11.0858L4.81292 15.5503C4.5748 15.8892 4.65651 16.357 4.99543 16.5951C5.33435 16.8332 5.80214 16.7515 6.04027 16.4126L9.0058 12.1918L10.1136 13.3519C10.9786 14.2573 12.394 14.2503 13.2506 13.3375L14.0188 12.5188L16.7554 16.4144C16.9935 16.7533 17.4612 16.8351 17.8002 16.597C18.1391 16.3589 18.2209 15.8911 17.9828 15.5522L15.0672 11.4016L16.0409 10.3639L16.0449 10.3596L17.5977 8.67872C17.9329 8.80171 18.3137 8.8808 18.7442 8.92146C20.0891 9.04849 21.2771 10.0222 21.2771 11.3731V14.5C21.2771 17.5376 18.8147 20 15.7771 20ZM16.3724 7.79452L14.9451 9.33963L12.1568 12.311C11.8886 12.5969 11.4683 12.5984 11.1983 12.3158L4.1301 4.91418C5.061 4.19148 6.23025 3.7612 7.5 3.7612H14.5301C15.0624 3.7612 15.4894 4.19543 15.5188 4.72694C15.5966 6.12987 15.861 7.12421 16.3724 7.79452Z" fill="#00A881"/>
</svg>
