<svg width="24" height="25" viewBox="0 0 24 25" fill="none" xmlns="http://www.w3.org/2000/svg">
<path d="M20.2003 4.27289C20.18 4.32479 20.1536 4.37522 20.1209 4.42321L15.4301 11.2987L19.0835 15.8035C19.3445 16.1252 19.2952 16.5975 18.9735 16.8585C18.6517 17.1194 18.1794 17.0701 17.9185 16.7484L14.5477 12.592L14.0403 13.3359C13.9241 13.5062 13.73 13.7907 13.4324 14.0005C12.5085 14.6521 11.2043 14.5246 10.4325 13.6284L10.4267 13.6216L9.51226 12.5074L6.22172 16.8123C5.97017 17.1414 5.49948 17.2043 5.17039 16.9527C4.8413 16.7012 4.77844 16.2305 5.02998 15.9014L8.49202 11.3721C8.50627 11.3535 8.52122 11.3357 8.53681 11.3188L3.13968 4.74225C1.98487 5.70528 1.25 7.15488 1.25 8.77612V15.7761C1.25 18.6756 3.60051 21.0261 6.5 21.0261H17.5C20.3995 21.0261 22.75 18.6756 22.75 15.7761V8.77612C22.75 6.86414 21.7279 5.19087 20.2003 4.27289Z" fill="#4E5964"/>
<path d="M4.42996 3.94999L11.5739 12.6551C11.8307 12.9475 12.2624 12.9902 12.568 12.7747C12.6188 12.7388 12.6783 12.6706 12.8056 12.484L18.8055 3.68972C18.3881 3.58291 17.9507 3.52612 17.5 3.52612H6.5C5.76492 3.52612 5.06512 3.6772 4.42996 3.94999Z" fill="#4E5964"/>
</svg>
