<svg width="24" height="24" viewBox="0 0 24 24" fill="none" xmlns="http://www.w3.org/2000/svg">
<path d="M20 4L19 4" stroke="#4E5964" stroke-width="1.5" stroke-linecap="round"/>
<path d="M22 6L19 6" stroke="#4E5964" stroke-width="1.5" stroke-linecap="round"/>
<path fill-rule="evenodd" clip-rule="evenodd" d="M16.5 20H7.5C4.46243 20 2 17.5376 2 14.5V9.5C2 8.25144 2.41604 7.10005 3.11705 6.1769L8.18835 11.2202L4.95214 15.5945C4.70579 15.9275 4.77602 16.3971 5.10901 16.6435C5.442 16.8898 5.91165 16.8196 6.15801 16.4866L9.26332 12.2892L10.4517 13.4711L10.4518 13.4712C11.335 14.3491 12.7633 14.3427 13.6386 13.4569L14.4744 12.6111L17.3424 16.4884C17.5888 16.8214 18.0584 16.8917 18.3914 16.6453C18.7244 16.399 18.7947 15.9294 18.5484 15.5964L15.5414 11.5312L16.5335 10.5271L16.5335 10.5272L16.5376 10.5229L18.1729 8.8418C18.5568 8.97681 18.9987 9.05878 19.5042 9.09501C20.8344 9.19036 22 10.1664 22 11.5V12V14.5C22 17.5376 19.5376 20 16.5 20ZM16.9173 7.98134L15.4644 9.47498L14.023 10.9337L12.5716 12.4026C12.2799 12.6979 11.8039 12.7 11.5095 12.4075L11.5094 12.4074L4.17782 5.11634C5.10082 4.41576 6.25186 4 7.5 4H12.8333H15C15.5523 4 15.9945 4.4506 16.0288 5.00181C16.1135 6.36271 16.3893 7.32882 16.9173 7.98134Z" fill="#4E5964"/>
</svg>
