<svg width="24" height="24" viewBox="0 0 24 24" fill="none" xmlns="http://www.w3.org/2000/svg">
<path fill-rule="evenodd" clip-rule="evenodd" d="M3.57331 5.64888C2.60013 6.64104 2 8.00043 2 9.5V14.5C2 17.5376 4.46243 20 7.5 20H16.5C19.5376 20 22 17.5376 22 14.5V9.5C22 8.00043 21.3999 6.64104 20.4267 5.64888L15.3854 11.3203L18.5484 15.5964C18.7947 15.9294 18.7244 16.399 18.3914 16.6453C18.0584 16.8917 17.5888 16.8214 17.3424 16.4884L14.3671 12.466L13.6817 13.237C12.7866 14.2439 11.2134 14.2439 10.3183 13.237L9.35987 12.1587L6.15801 16.4866C5.91165 16.8196 5.442 16.8898 5.10901 16.6435C4.77602 16.3971 4.70579 15.9275 4.95214 15.5945L8.34154 11.0131L3.57331 5.64888ZM4.76231 4.7287L11.4394 12.2405C11.7378 12.5761 12.2622 12.5761 12.5606 12.2405L19.2377 4.7287C18.4315 4.26513 17.4967 4 16.5 4H7.5C6.50329 4 5.5685 4.26513 4.76231 4.7287Z" fill="#4E5964"/>
</svg>
