<svg width="24" height="24" viewBox="0 0 24 24" fill="none" xmlns="http://www.w3.org/2000/svg">
<path d="M12 1.97461C17.3848 1.97461 21.75 6.33983 21.75 11.7246C21.75 17.1094 17.3848 21.4746 12 21.4746C6.61522 21.4746 2.25 17.1094 2.25 11.7246C2.25 6.33983 6.61522 1.97461 12 1.97461ZM8.31641 13.541C8.0494 13.541 7.80228 13.6833 7.66797 13.9141C7.53375 14.1448 7.53222 14.43 7.66406 14.6621L7.66602 14.6641L7.66699 14.667C7.66836 14.6694 7.6708 14.6723 7.67285 14.6758C7.67701 14.6829 7.68253 14.6925 7.68945 14.7041C7.70328 14.7272 7.72234 14.7589 7.74707 14.7979C7.79667 14.8759 7.86813 14.9844 7.96094 15.1123C8.14564 15.3668 8.41923 15.7067 8.77539 16.0488C9.47676 16.7225 10.5755 17.4746 12.001 17.4746C13.4269 17.4746 14.5252 16.7226 15.2266 16.0488C15.5827 15.7067 15.8564 15.3669 16.041 15.1123C16.1338 14.9844 16.2053 14.8759 16.2549 14.7979C16.2796 14.7589 16.2987 14.7272 16.3125 14.7041C16.3194 14.6925 16.3249 14.6829 16.3291 14.6758C16.3312 14.6722 16.3336 14.6694 16.335 14.667L16.3359 14.6641L16.3369 14.6621L16.3379 14.6611C16.4694 14.429 16.4673 14.1446 16.333 13.9141C16.1987 13.6835 15.9524 13.5411 15.6855 13.541H8.31641ZM9.26562 9.19141C8.81356 8.82265 8.14586 8.84645 7.72266 9.27051C7.27272 9.72044 7.27272 10.4514 7.72266 10.9014C8.1726 11.3512 8.9036 11.3513 9.35352 10.9014C9.77505 10.4796 9.80141 9.811 9.43262 9.3584L9.35352 9.27051L9.26562 9.19141ZM15.8535 9.19141C15.4015 8.82265 14.7338 8.84645 14.3105 9.27051C13.8606 9.72044 13.8606 10.4514 14.3105 10.9014C14.7605 11.3512 15.4915 11.3513 15.9414 10.9014C16.3629 10.4796 16.3893 9.811 16.0205 9.3584L15.9414 9.27051L15.8535 9.19141ZM8 6.01855C7.61015 6.01855 7.29395 6.33476 7.29395 6.72461C7.29395 7.11446 7.61015 7.43066 8 7.43066H9.41211C9.8018 7.43048 10.1172 7.11434 10.1172 6.72461C10.1172 6.33488 9.8018 6.01874 9.41211 6.01855H8ZM14.5879 6.01855C14.198 6.01855 13.8818 6.33476 13.8818 6.72461C13.8818 7.11446 14.198 7.43066 14.5879 7.43066H16C16.3897 7.43048 16.7051 7.11434 16.7051 6.72461C16.7051 6.33488 16.3897 6.01874 16 6.01855H14.5879Z" fill="#4E5964"/>
</svg>
