<svg width="24" height="24" viewBox="0 0 24 24" fill="none" xmlns="http://www.w3.org/2000/svg">
<path fill-rule="evenodd" clip-rule="evenodd" d="M2 12C2 6.47715 6.47715 2 12 2C17.5228 2 22 6.47715 22 12C22 17.5228 17.5228 22 12 22C6.47715 22 2 17.5228 2 12ZM7.6116 9.48428C8.07459 9.01913 8.82385 9.02211 9.28509 9.48335C9.74656 9.94482 9.74656 10.6944 9.28509 11.1559C8.82362 11.6174 8.074 11.6174 7.61253 11.1559C7.15137 10.6947 7.15106 9.94583 7.6116 9.48428ZM14.3684 9.48428C14.8314 9.01913 15.5807 9.02211 16.0419 9.48335C16.5034 9.94482 16.5034 10.6944 16.0419 11.1559C15.5804 11.6174 14.8308 11.6174 14.3693 11.1559C13.9082 10.6947 13.9079 9.94583 14.3684 9.48428ZM8.22095 13.8632C7.9471 13.8632 7.69389 14.0088 7.55613 14.2455C7.41838 14.4822 7.41684 14.7743 7.55209 15.0124L7.55343 15.0147L7.55529 15.018L7.56063 15.0272L7.57771 15.056C7.59193 15.0798 7.61182 15.1123 7.63729 15.1523C7.68816 15.2324 7.7616 15.3431 7.85679 15.4742C8.04626 15.7353 8.32667 16.0841 8.69206 16.4351C9.41142 17.1261 10.5379 17.8974 11.9999 17.8974C13.4624 17.8974 14.5889 17.1261 15.3082 16.435C15.6735 16.084 15.9539 15.7352 16.1432 15.4741C16.2384 15.3429 16.3118 15.2322 16.3627 15.1521C16.3881 15.1121 16.408 15.0796 16.4222 15.0558L16.4393 15.027L16.4446 15.0178L16.4465 15.0145L16.4472 15.0132L16.4393 15.027L16.4478 15.0122C16.583 14.774 16.5814 14.482 16.4436 14.2454C16.3058 14.0088 16.0526 13.8632 15.7788 13.8632H8.22095ZM11.9999 16.359C11.1419 16.359 10.4079 15.9252 9.83878 15.4017H14.1614C13.5925 15.9251 12.8585 16.359 11.9999 16.359ZM13.2821 6.87179C13.2821 6.44696 13.6264 6.10256 14.0513 6.10256H15.8404C16.2652 6.10256 16.6096 6.44696 16.6096 6.87179C16.6096 7.29663 16.2652 7.64103 15.8404 7.64103H14.0513C13.6264 7.64103 13.2821 7.29663 13.2821 6.87179ZM6.93005 6.87179C6.93005 6.44696 7.27445 6.10256 7.69929 6.10256H9.48841C9.91325 6.10256 10.2576 6.44696 10.2576 6.87179C10.2576 7.29663 9.91325 7.64103 9.48841 7.64103H7.69929C7.27445 7.64103 6.93005 7.29663 6.93005 6.87179Z" fill="#4E5964"/>
</svg>
