<svg width="24" height="24" viewBox="0 0 24 24" fill="none" xmlns="http://www.w3.org/2000/svg">
<path d="M12 1.97461C17.3848 1.97461 21.75 6.33983 21.75 11.7246C21.75 17.1094 17.3848 21.4746 12 21.4746C6.61522 21.4746 2.25 17.1094 2.25 11.7246C2.25 6.33983 6.61522 1.97461 12 1.97461ZM12 12.25C10.4812 12.25 9.25 13.4812 9.25 15C9.25 16.5188 10.4812 17.75 12 17.75C13.5188 17.75 14.75 16.5188 14.75 15C14.75 13.4812 13.5188 12.25 12 12.25ZM9.26562 9.19141C8.81356 8.82265 8.14586 8.84645 7.72266 9.27051C7.27272 9.72044 7.27272 10.4514 7.72266 10.9014C8.1726 11.3512 8.9036 11.3513 9.35352 10.9014C9.77505 10.4796 9.80141 9.811 9.43262 9.3584L9.35352 9.27051L9.26562 9.19141ZM15.8535 9.19141C15.4015 8.82265 14.7338 8.84645 14.3105 9.27051C13.8606 9.72044 13.8606 10.4514 14.3105 10.9014C14.7605 11.3512 15.4915 11.3513 15.9414 10.9014C16.3629 10.4796 16.3893 9.811 16.0205 9.3584L15.9414 9.27051L15.8535 9.19141ZM8 6.01855C7.61015 6.01855 7.29395 6.33476 7.29395 6.72461C7.29395 7.11446 7.61015 7.43066 8 7.43066H9.41211C9.8018 7.43048 10.1172 7.11434 10.1172 6.72461C10.1172 6.33488 9.8018 6.01874 9.41211 6.01855H8ZM14.5879 6.01855C14.198 6.01855 13.8818 6.33476 13.8818 6.72461C13.8818 7.11446 14.198 7.43066 14.5879 7.43066H16C16.3897 7.43048 16.7051 7.11434 16.7051 6.72461C16.7051 6.33488 16.3897 6.01874 16 6.01855H14.5879Z" fill="#4E5964"/>
</svg>
