<svg width="24" height="24" viewBox="0 0 24 24" fill="none" xmlns="http://www.w3.org/2000/svg">
<path d="M12 1.97461C17.3848 1.97461 21.75 6.33983 21.75 11.7246C21.75 17.1094 17.3848 21.4746 12 21.4746C6.61522 21.4746 2.25 17.1094 2.25 11.7246C2.25 6.33983 6.61522 1.97461 12 1.97461ZM12.001 13.541C10.5751 13.5411 9.47672 14.293 8.77539 14.9668C8.41925 15.309 8.14559 15.6488 7.96094 15.9033C7.86817 16.0312 7.79664 16.1397 7.74707 16.2178C7.72235 16.2567 7.70328 16.2885 7.68945 16.3115C7.68252 16.3231 7.67702 16.3327 7.67285 16.3398C7.67078 16.3434 7.66838 16.3462 7.66699 16.3486L7.66602 16.3516L7.66504 16.3535L7.66406 16.3545C7.53251 16.5866 7.53469 16.871 7.66895 17.1016C7.80325 17.3322 8.04955 17.4745 8.31641 17.4746H15.6855C15.9526 17.4746 16.1997 17.3323 16.334 17.1016C16.4682 16.8708 16.4697 16.5856 16.3379 16.3535L16.3359 16.3516L16.335 16.3486C16.3336 16.3463 16.3311 16.3434 16.3291 16.3398C16.3249 16.3327 16.3194 16.3231 16.3125 16.3115C16.2987 16.2885 16.2796 16.2567 16.2549 16.2178C16.2053 16.1397 16.1338 16.0312 16.041 15.9033C15.8563 15.6488 15.5827 15.3089 15.2266 14.9668C14.5252 14.2931 13.4264 13.541 12.001 13.541ZM9.26562 9.19141C8.81356 8.82265 8.14586 8.84645 7.72266 9.27051C7.27272 9.72044 7.27272 10.4514 7.72266 10.9014C8.1726 11.3512 8.9036 11.3513 9.35352 10.9014C9.77505 10.4796 9.80141 9.811 9.43262 9.3584L9.35352 9.27051L9.26562 9.19141ZM15.8535 9.19141C15.4015 8.82265 14.7338 8.84645 14.3105 9.27051C13.8606 9.72044 13.8606 10.4514 14.3105 10.9014C14.7605 11.3512 15.4915 11.3513 15.9414 10.9014C16.3629 10.4796 16.3893 9.811 16.0205 9.3584L15.9414 9.27051L15.8535 9.19141ZM8 6.01855C7.61015 6.01855 7.29395 6.33476 7.29395 6.72461C7.29395 7.11446 7.61015 7.43066 8 7.43066H9.41211C9.8018 7.43048 10.1172 7.11434 10.1172 6.72461C10.1172 6.33488 9.8018 6.01874 9.41211 6.01855H8ZM14.5879 6.01855C14.198 6.01855 13.8818 6.33476 13.8818 6.72461C13.8818 7.11446 14.198 7.43066 14.5879 7.43066H16C16.3897 7.43048 16.7051 7.11434 16.7051 6.72461C16.7051 6.33488 16.3897 6.01874 16 6.01855H14.5879Z" fill="#4E5964"/>
</svg>
