<svg width="24" height="24" viewBox="0 0 24 24" fill="none" xmlns="http://www.w3.org/2000/svg">
<path d="M7.13604 3.54945C8.85869 2.55788 10.834 2.12432 12.7952 2.2848C12.8097 2.2852 12.8245 2.28451 12.8392 2.28578C12.8825 2.28952 12.9258 2.29513 12.969 2.29945C13.0074 2.30328 13.0459 2.30688 13.0843 2.31117C13.1047 2.31345 13.1254 2.31461 13.1458 2.31703L13.4505 2.35804L13.7532 2.40882C13.766 2.41115 13.7786 2.41426 13.7913 2.41664C13.8413 2.42597 13.891 2.4368 13.9407 2.44691C13.9787 2.45461 14.0171 2.46023 14.055 2.46839C14.0675 2.47111 14.0798 2.47584 14.0921 2.47914C16.016 2.90182 17.7779 3.89837 19.1341 5.35414C19.1384 5.35881 19.1426 5.36402 19.1468 5.36879L20.3587 4.3473C20.6752 4.08061 21.1483 4.12001 21.4153 4.43617C21.6824 4.75264 21.6418 5.22661 21.3255 5.49379L12.4153 13.0114C12.4115 13.0147 12.4085 13.0188 12.4046 13.0221L6.41729 18.0729C6.96225 18.5739 7.56865 18.9931 8.21612 19.3278C8.67503 19.5646 9.15388 19.7607 9.64873 19.9078C9.8347 19.9631 10.022 20.0115 10.2103 20.0534C10.3985 20.0952 10.5878 20.1304 10.7776 20.1588C11.1575 20.2157 11.5401 20.246 11.9222 20.2496C12.0753 20.2511 12.2283 20.2471 12.3812 20.2399C12.5476 20.2321 12.7133 20.2196 12.8782 20.2018C12.9939 20.1892 13.1091 20.1731 13.2239 20.1559C13.2425 20.1531 13.261 20.1503 13.2796 20.1481C13.3001 20.1448 13.3206 20.1417 13.3411 20.1383C13.4421 20.1214 13.5427 20.102 13.6429 20.0817C13.8783 20.0338 14.1118 19.9757 14.3431 19.9078C14.3751 19.8984 14.4068 19.8875 14.4388 19.8776C14.5103 19.8556 14.5816 19.8331 14.6526 19.8092C14.9591 19.7054 15.2613 19.5847 15.556 19.444C15.8564 19.3005 16.1456 19.1383 16.4241 18.9616C16.6885 18.7934 16.9435 18.6125 17.1858 18.4166C17.1902 18.4132 17.1942 18.4094 17.1985 18.4059C17.2088 18.3971 17.2194 18.3881 17.2298 18.3795C17.3026 18.3198 17.3746 18.2583 17.4456 18.1959C17.4549 18.1878 17.4647 18.1797 17.4739 18.1715C17.4971 18.151 17.5193 18.1289 17.5423 18.108C17.5786 18.0751 17.615 18.0419 17.6507 18.0084C17.7348 17.9293 17.818 17.8488 17.8987 17.7662C17.9296 17.7347 17.9602 17.7026 17.9905 17.6705C18.0455 17.6125 18.0995 17.5533 18.1526 17.4938C18.3374 17.2869 18.5118 17.0703 18.6751 16.8453C18.6981 16.8137 18.721 16.7816 18.7435 16.7496C18.808 16.658 18.8711 16.5647 18.9319 16.4703C18.9469 16.4471 18.9621 16.4235 18.9769 16.4C19.0034 16.358 19.0302 16.3156 19.056 16.2731C19.0751 16.2415 19.0939 16.2092 19.1126 16.1774C19.1481 16.1169 19.1841 16.0562 19.2181 15.9948C19.2321 15.9694 19.2453 15.9431 19.2591 15.9176C19.2814 15.8762 19.3038 15.8344 19.3255 15.7926C19.3481 15.7489 19.371 15.7049 19.3929 15.6608C19.4313 15.5832 19.4682 15.5044 19.5042 15.4254C19.5436 15.3392 19.5821 15.2522 19.6185 15.1647C19.6763 15.0254 19.7294 14.8842 19.7796 14.7418C19.7842 14.7288 19.7887 14.7158 19.7933 14.7028C19.8732 14.4722 19.9433 14.2389 20.0023 14.0036C20.0091 13.9761 20.0152 13.9481 20.0218 13.9205C20.0531 13.7896 20.0829 13.658 20.1077 13.526C20.1192 13.465 20.1279 13.4036 20.138 13.3424C20.1585 13.2183 20.1769 13.0941 20.1917 12.9694C20.1965 12.9285 20.2012 12.8872 20.2054 12.8463C20.2363 12.5462 20.2504 12.2445 20.2483 11.943C20.2474 11.8054 20.2435 11.6674 20.2356 11.5299C20.2348 11.5147 20.2337 11.4992 20.2327 11.484C20.2266 11.3856 20.2166 11.2874 20.2073 11.1891C20.1959 11.0729 20.1808 10.9572 20.1644 10.8414C20.133 10.6205 20.0956 10.3998 20.0462 10.1813C20.0011 9.98194 19.9477 9.78411 19.888 9.58754C19.85 9.46334 19.8109 9.33922 19.7669 9.21644C19.6272 8.82662 19.8293 8.39734 20.219 8.25746C20.6086 8.11789 21.0369 8.32041 21.1771 8.70961H21.179L21.2698 8.97523C21.3036 9.07884 21.3353 9.18333 21.3655 9.28773C21.3803 9.33855 21.3937 9.39006 21.4075 9.44105C21.4441 9.57557 21.4774 9.71075 21.5081 9.84632C21.5109 9.85873 21.5141 9.87103 21.5169 9.88343C21.5245 9.9178 21.5321 9.95252 21.5394 9.98695C21.5416 9.99752 21.543 10.0086 21.5452 10.0192C21.5524 10.0536 21.5589 10.0882 21.5657 10.1227C21.5958 10.2759 21.6231 10.4295 21.6458 10.5836C21.6752 10.7836 21.6982 10.9842 21.7151 11.1852L21.7161 11.1891C21.7198 11.2329 21.7228 11.2771 21.7259 11.3209V11.3239C21.7294 11.374 21.732 11.4241 21.7347 11.4743C21.7352 11.4834 21.7362 11.4925 21.7366 11.5016C21.7371 11.5109 21.7372 11.5206 21.7376 11.5299C21.7627 12.0466 21.7479 12.5645 21.6907 13.0787C21.6645 13.3144 21.6288 13.5492 21.5853 13.7828C21.5843 13.7897 21.5836 13.7966 21.5823 13.8034C21.5777 13.828 21.5719 13.8529 21.5667 13.8776C21.5074 14.1793 21.4341 14.4788 21.346 14.775C21.3452 14.7776 21.3448 14.7803 21.344 14.7828C21.3362 14.8091 21.3286 14.8358 21.3206 14.8619C21.3121 14.8896 21.3021 14.9174 21.2933 14.945C21.2442 15.0995 21.192 15.2534 21.1351 15.4059C21.1327 15.4124 21.1306 15.419 21.1282 15.4254C21.1151 15.4605 21.1001 15.4952 21.0862 15.5299C21.0627 15.5904 21.0407 15.6515 21.0159 15.7116C21.0069 15.7334 20.9958 15.7543 20.9866 15.776C20.9736 15.8062 20.9616 15.8367 20.9485 15.8668C20.9188 15.9357 20.889 16.0049 20.8577 16.0729C20.8497 16.0904 20.8424 16.1082 20.8343 16.1256C20.6515 16.5171 20.4441 16.8947 20.2132 17.2555C20.1891 17.2931 20.1617 17.3286 20.137 17.3659C20.1101 17.4064 20.0843 17.4477 20.0569 17.4879C20.0412 17.5111 20.026 17.5352 20.0101 17.5582C20.0003 17.5722 19.9886 17.5853 19.9788 17.5993C19.9622 17.6229 19.9477 17.648 19.931 17.6715C19.8874 17.7324 19.8401 17.7904 19.7952 17.8502C19.7735 17.8791 19.7537 17.9095 19.7317 17.9381C19.7193 17.9543 19.7053 17.9698 19.6927 17.986C19.6554 18.0339 19.6176 18.0813 19.5794 18.1286C19.5301 18.1894 19.4798 18.2495 19.429 18.3092C19.3755 18.3722 19.322 18.4351 19.2669 18.4967C19.2447 18.5218 19.223 18.5472 19.2005 18.5719C19.1805 18.5938 19.1601 18.6157 19.1399 18.6373C19.1181 18.6609 19.0955 18.6842 19.0735 18.7077C19.032 18.7514 18.9899 18.7945 18.9476 18.8375C18.9327 18.8523 18.9184 18.8676 18.9036 18.8825C18.8722 18.914 18.8398 18.9451 18.8079 18.9762C18.759 19.024 18.7114 19.073 18.6614 19.1198C18.5977 19.1793 18.5335 19.2385 18.4681 19.2965C18.4561 19.3072 18.443 19.3172 18.431 19.3278C18.4266 19.3316 18.4216 19.3347 18.4173 19.3385C18.4097 19.3456 18.4026 19.3532 18.3948 19.36C18.3077 19.4357 18.219 19.5101 18.1292 19.5827C18.0019 19.6855 17.8712 19.7849 17.7386 19.8815C17.6988 19.9105 17.6587 19.939 17.6185 19.9674C17.5057 20.0469 17.3911 20.124 17.2747 20.1989C17.1713 20.2654 17.0673 20.3314 16.9612 20.3942C16.843 20.4641 16.7224 20.5303 16.6009 20.5953C16.4697 20.6656 16.3373 20.7341 16.2024 20.7985C16.0676 20.8629 15.9305 20.9215 15.7933 20.9791C15.7672 20.9901 15.7413 21.0016 15.7151 21.0123C15.5925 21.0626 15.4692 21.1108 15.345 21.1559C15.3309 21.1611 15.3172 21.1674 15.303 21.1725C15.2592 21.1883 15.2152 21.2042 15.1712 21.2194C15.1406 21.2299 15.1091 21.2385 15.0784 21.2487C15.0637 21.2536 15.0492 21.2595 15.0345 21.2643C14.9966 21.2767 14.9582 21.2875 14.9202 21.2994C14.8789 21.3123 14.8377 21.3253 14.7962 21.3375C14.6548 21.3803 14.5129 21.4217 14.3694 21.4577C14.2399 21.4901 14.1094 21.5185 13.9788 21.5455H13.9759C13.9739 21.546 13.972 21.5471 13.97 21.5475C13.9035 21.5612 13.8365 21.5733 13.7698 21.5856C13.6114 21.6152 13.4524 21.6423 13.2923 21.6637C13.1527 21.6824 13.0126 21.6964 12.8724 21.7086C12.8551 21.7102 12.8379 21.713 12.8206 21.7145C12.7537 21.7201 12.6865 21.7249 12.6194 21.7291C12.3835 21.7441 12.1463 21.7519 11.9085 21.7496C11.0054 21.7411 10.1005 21.6069 9.221 21.3453C7.98533 20.9778 6.82757 20.367 5.81963 19.5407C5.67559 19.4226 5.5345 19.3003 5.39678 19.1735C5.35076 19.1311 5.31256 19.0828 5.27959 19.0328L3.4837 20.5494C3.32545 20.6828 3.12799 20.7395 2.93682 20.7233C2.74565 20.7072 2.56063 20.6187 2.42706 20.4606C2.36017 20.3813 2.31232 20.2921 2.2835 20.1989C2.24026 20.0592 2.23914 19.9102 2.27862 19.7711C2.31803 19.6321 2.39825 19.5031 2.5169 19.403L17.9993 6.33754C16.7968 5.06355 15.2253 4.20969 13.5159 3.89027C13.4198 3.8723 13.3233 3.85594 13.2269 3.84144C13.1332 3.82736 13.039 3.8152 12.9446 3.80433C11.1966 3.60289 9.42127 3.96541 7.88409 4.85023C7.73011 4.93888 7.57912 5.03263 7.43194 5.1305C7.19937 5.28516 6.97541 5.45133 6.76104 5.62757C6.73932 5.64543 6.71713 5.66323 6.69561 5.68129C6.60118 5.76057 6.50791 5.84215 6.41729 5.92543C5.56908 6.70499 4.89652 7.65182 4.43877 8.70082C4.38711 8.81924 4.33744 8.93924 4.29131 9.06019C4.2852 9.07622 4.27974 9.09294 4.27373 9.10902C4.20784 9.28514 4.14794 9.46422 4.09405 9.64515C4.06308 9.74913 4.0339 9.85386 4.00713 9.95863C3.5477 11.7579 3.70719 13.6664 4.47002 15.3707C4.63908 15.7486 4.46985 16.1916 4.09209 16.361C3.71403 16.5302 3.27012 16.3611 3.10088 15.983C2.28992 14.1711 2.05794 12.1648 2.41436 10.2321C2.41637 10.2154 2.41801 10.1981 2.4212 10.1813C2.43025 10.1337 2.44173 10.0861 2.45147 10.0387C2.45732 10.0102 2.46293 9.98124 2.46905 9.95277C2.49528 9.83063 2.52223 9.7082 2.55303 9.58754C2.58255 9.47198 2.6149 9.35657 2.64873 9.24183C2.6654 9.18534 2.68381 9.129 2.70147 9.07289C2.71005 9.04558 2.71802 9.01712 2.72686 8.98988C2.73204 8.97395 2.73821 8.95792 2.74346 8.94203C2.77604 8.84341 2.81133 8.74544 2.84698 8.64808C2.86578 8.59672 2.88397 8.54475 2.90362 8.49379C2.95445 8.3619 3.00735 8.23053 3.06377 8.10121C3.60477 6.86135 4.39997 5.7424 5.40264 4.82093C5.50691 4.72511 5.61344 4.63103 5.72198 4.53968C5.76403 4.50431 5.80818 4.47088 5.85088 4.43617C5.91833 4.38133 5.986 4.32616 6.05498 4.27308C6.07372 4.25866 6.09277 4.24342 6.11163 4.22914C6.1483 4.20135 6.18594 4.17434 6.22295 4.14711C6.25678 4.12222 6.29034 4.09638 6.32452 4.07191C6.41552 4.00676 6.50795 3.94329 6.60088 3.88148C6.77496 3.76573 6.95381 3.65435 7.13604 3.54945Z" fill="#4E5964"/>
</svg>
