<svg width="24" height="24" viewBox="0 0 24 24" fill="none" xmlns="http://www.w3.org/2000/svg">
<path d="M19.0009 6.25C19.4151 6.25002 19.7509 6.5858 19.7509 7V12C19.7509 14.0711 18.072 15.75 16.0009 15.75H7.65817L8.3984 16.4941C8.67494 16.7722 8.62954 17.2247 8.29586 17.5039C7.96212 17.783 7.46694 17.783 7.19039 17.5049L5.08004 15.3838C4.93899 15.2418 4.8826 15.0546 4.90524 14.8682C4.89002 14.6981 4.93822 14.5282 5.06051 14.3936L7.17086 12.0703C7.43371 11.7816 7.92595 11.7648 8.27047 12.0322C8.615 12.2998 8.68145 12.7508 8.41891 13.04L7.32028 14.25H16.0009C17.2436 14.25 18.2509 13.2426 18.2509 12V7C18.2509 6.58579 18.5867 6.25 19.0009 6.25Z" fill="#4E5964"/>
</svg>
