<svg width="24" height="24" viewBox="0 0 24 24" fill="none" xmlns="http://www.w3.org/2000/svg">
<path d="M11.1758 2.4504C11.6965 2.19759 12.3046 2.19745 12.8252 2.4504L18.5713 5.24239C19.1764 5.53659 19.6052 6.13241 19.6318 6.83711C19.6378 6.99372 19.648 7.19697 19.6601 7.43628C19.6965 8.1584 19.7495 9.20898 19.75 10.2971C19.7506 11.7289 19.6636 13.3611 19.2813 14.5139C18.7497 16.116 17.4791 17.5673 16.2402 18.6945C14.9848 19.8368 13.6763 20.7232 12.9541 21.1809C12.3692 21.5516 11.6318 21.5514 11.0469 21.1809C10.3247 20.7232 9.01552 19.8369 7.75977 18.6945C6.52082 17.5675 5.25039 16.1168 4.71876 14.5148C4.33628 13.362 4.24916 11.7299 4.25001 10.2981C4.25067 9.20957 4.30361 8.15817 4.33999 7.43579C4.35203 7.19664 4.36226 6.99355 4.36817 6.83711C4.39488 6.13234 4.82445 5.5365 5.42969 5.24239L11.1758 2.4504ZM11.25 9.29903V15.4885C11.2501 15.9026 11.5859 16.2385 12 16.2385C12.4142 16.2385 12.7499 15.9026 12.75 15.4885V9.29805L13.9316 10.4797C14.2245 10.7725 14.6993 10.7725 14.9922 10.4797C15.2851 10.1868 15.285 9.71204 14.9922 9.41915L12.9658 7.39278L12.8623 7.29903C12.3617 6.89068 11.6392 6.89066 11.1387 7.29903L11.0352 7.39278L9.0088 9.41915C8.71599 9.71205 8.71593 10.1868 9.0088 10.4797C9.30167 10.7725 9.77647 10.7725 10.0693 10.4797L11.25 9.29903Z" fill="#4E5964"/>
</svg>
