<svg width="24" height="24" viewBox="0 0 24 24" fill="none" xmlns="http://www.w3.org/2000/svg">
<path d="M10.885 2.29373C11.598 1.98214 12.4103 1.98689 13.1194 2.3074L17.969 4.50076C18.8034 4.87827 19.4128 5.65606 19.5246 6.59549C19.6222 7.41596 19.7357 8.61803 19.7493 9.86209C19.7626 11.0907 19.6791 12.4279 19.3508 13.4871C18.9368 14.8222 17.9568 16.2742 16.9172 17.5603C15.8637 18.8636 14.6891 20.07 13.8137 20.9197C12.7714 21.9314 11.127 21.8955 10.1291 20.8406C9.32604 19.9916 8.25978 18.8049 7.27758 17.5213C6.30368 16.2484 5.37498 14.8311 4.8889 13.5271C4.50831 12.5058 4.34563 11.2048 4.28343 9.99685C4.22051 8.77434 4.25742 7.5811 4.30394 6.74393C4.36077 5.72586 5.00273 4.86581 5.90648 4.47049L10.885 2.29373ZM12.9661 7.50369C12.4662 7.00395 11.6751 6.97267 11.1389 7.40994L11.0354 7.50369L9.00902 9.52908C8.71617 9.82194 8.71624 10.2977 9.00902 10.5906C9.30185 10.8832 9.77673 10.8832 10.0696 10.5906L11.2502 9.40994V15.5994C11.2505 16.0134 11.5862 16.3494 12.0002 16.3494C12.4142 16.3493 12.75 16.0133 12.7502 15.5994V9.40896L13.9319 10.5906C14.2247 10.8832 14.6996 10.8832 14.9924 10.5906C15.2849 10.2977 15.2852 9.82185 14.9924 9.52908L12.9661 7.50369Z" fill="#4E5964"/>
</svg>
