<svg width="24" height="24" viewBox="0 0 24 24" fill="none" xmlns="http://www.w3.org/2000/svg">
<path d="M8.5 18.2983L8.52441 18.2798C8.74451 18.4227 8.9736 18.5528 9.21191 18.6675C8.60857 18.972 7.92814 19.145 7.20605 19.145C6.55959 19.145 5.94652 19.0045 5.3916 18.7573C5.61806 18.793 5.84143 18.8165 6.05859 18.8257L6.26953 18.8306C7.05884 18.8305 7.81108 18.6262 8.46582 18.271L8.5 18.2983ZM15.3613 18.2495C15.9741 18.5901 16.6744 18.7967 17.4111 18.8267L17.6006 18.8306C17.8828 18.8306 18.178 18.8047 18.4785 18.7573C17.9236 19.0045 17.3105 19.145 16.6641 19.145C15.9266 19.145 15.232 18.9656 14.6191 18.6489C14.8556 18.5333 15.0825 18.4019 15.3008 18.2583L15.3271 18.2778L15.3613 18.2495ZM7.27539 12.189C8.39385 12.5645 9.1786 13.5384 9.17871 14.6763C9.17871 15.3163 8.93479 15.895 8.52344 16.3511C7.69923 15.5032 7.19151 14.3495 7.19141 13.0757L7.19531 12.8755C7.20515 12.6417 7.23264 12.4125 7.27539 12.189ZM16.5215 12.2134C16.5737 12.493 16.6025 12.781 16.6025 13.0757L16.5947 13.3521C16.5283 14.4968 16.0502 15.5294 15.3076 16.311C14.9189 15.8615 14.6904 15.2972 14.6904 14.6763L14.7041 14.4155C14.7653 13.8324 15.0306 13.3128 15.4365 12.9038C15.6542 12.7585 15.8625 12.6 16.0596 12.4272C16.2057 12.344 16.3603 12.2724 16.5215 12.2134ZM12.3379 12.9175H11.6104L11.9736 12.2856L12.3379 12.9175ZM6.35059 10.2915C6.31805 10.3562 6.28716 10.4218 6.25684 10.4878L6.22559 10.4839L6.21094 10.5239C5.94502 10.5272 5.66815 10.5516 5.38672 10.5962C5.69167 10.46 6.01417 10.3568 6.35059 10.2915ZM17.4326 10.2759C17.8006 10.3397 18.153 10.448 18.4844 10.5962C18.256 10.56 18.0305 10.5371 17.8115 10.5278L17.6006 10.5229C17.5944 10.5229 17.5882 10.5229 17.582 10.5229L17.5684 10.4819L17.5342 10.4858C17.5017 10.4151 17.4677 10.3452 17.4326 10.2759ZM11.8975 8.36963C12.7001 8.36977 13.4537 8.57221 14.1143 8.92627C13.6274 9.53577 12.921 9.91357 12.126 9.91357C11.2631 9.91344 10.5013 9.4678 10.0156 8.76318C10.5918 8.51103 11.2274 8.36963 11.8975 8.36963ZM16.2061 6.12256C16.4545 6.67849 16.5957 7.29297 16.5957 7.94092C16.5957 8.27151 16.5579 8.59336 16.4893 8.90381C16.3578 8.75903 16.2197 8.62054 16.0752 8.48877L16.0898 8.45947L16.0527 8.43115C16.1988 7.97994 16.2802 7.49954 16.2803 7.00439L16.2754 6.79346C16.2661 6.57503 16.2421 6.35037 16.2061 6.12256ZM8.0459 6.12256C7.99815 6.42439 7.97267 6.72096 7.97266 7.00439L7.97852 7.23096C7.99346 7.53689 8.03834 7.83631 8.11035 8.12549L8.07227 8.1499L8.08496 8.18115C7.95076 8.28582 7.82037 8.39511 7.69531 8.51025C7.67153 8.32386 7.65723 8.13403 7.65723 7.94092L7.6709 7.59326C7.711 7.07268 7.84244 6.57803 8.0459 6.12256Z" fill="#4E5964" stroke="#4E5964" stroke-width="1.5"/>
</svg>
