<svg width="24" height="24" viewBox="0 0 24 24" fill="none" xmlns="http://www.w3.org/2000/svg">
<path d="M11.75 2C9.67893 2 8 3.67893 8 5.75C8 7.82107 9.67893 9.5 11.75 9.5C13.8211 9.5 15.5 7.82107 15.5 5.75C15.5 3.67893 13.8211 2 11.75 2Z" fill="#4E5964"/>
<path d="M7.75 11C5.19552 11 3 12.8982 3 15.3864V16.75C3 19.9913 5.86709 22.5 9.25 22.5H14.25C17.6329 22.5 20.5 19.9913 20.5 16.75L18.5682 16.7499C16.3591 16.7498 14.5684 14.959 14.5684 12.7499V11H7.75Z" fill="#4E5964"/>
<path d="M20.27 11.6175C20.5631 11.3249 20.5636 10.8501 20.271 10.5569C19.9784 10.2637 19.5035 10.2633 19.2103 10.5559L18.3252 11.4392L17.4419 10.5542C17.1492 10.261 16.6744 10.2605 16.3812 10.5531C16.088 10.8457 16.0876 11.3206 16.3802 11.6138L17.2636 12.4989L16.3792 13.3816C16.086 13.6742 16.0855 14.149 16.3782 14.4422C16.6708 14.7354 17.1456 14.7359 17.4388 14.4432L18.3232 13.5606L19.2059 14.4449C19.4985 14.7381 19.9734 14.7386 20.2665 14.446C20.5597 14.1534 20.5602 13.6785 20.2676 13.3853L19.3849 12.5009L20.27 11.6175Z" fill="#4E5964"/>
</svg>
