<svg width="24" height="24" viewBox="0 0 24 24" fill="none" xmlns="http://www.w3.org/2000/svg">
<path d="M15.3401 4.75C15.3401 6.40685 13.9589 7.75 12.2551 7.75C10.5513 7.75 9.17004 6.40685 9.17004 4.75C9.17004 3.09315 10.5513 1.75 12.2551 1.75C13.9589 1.75 15.3401 3.09315 15.3401 4.75Z" fill="#00A881"/>
<path fill-rule="evenodd" clip-rule="evenodd" d="M12.2551 2.5C10.9772 2.5 9.94131 3.50736 9.94131 4.75C9.94131 5.99264 10.9772 7 12.2551 7C13.5329 7 14.5688 5.99264 14.5688 4.75C14.5688 3.50736 13.5329 2.5 12.2551 2.5ZM8.3988 4.75C8.3988 2.67893 10.1253 1 12.2551 1C14.3848 1 16.1114 2.67893 16.1114 4.75C16.1114 6.82107 14.3848 8.5 12.2551 8.5C10.1253 8.5 8.3988 6.82107 8.3988 4.75Z" fill="#00A881"/>
<path d="M9.17004 22.75H15.7738C18.9419 22.75 21.5101 20.2525 21.5101 17.1717C21.5101 17.0217 21.385 16.9 21.2307 16.9H18.8658C17.4054 16.9 16.2215 15.7487 16.2215 14.3286V13.325C16.2215 11.3506 14.5756 9.75 12.5452 9.75H7.62753C5.07182 9.75 3 11.7647 3 14.25V16.75C3 20.0637 5.76242 22.75 9.17004 22.75Z" fill="#00A881"/>
<path fill-rule="evenodd" clip-rule="evenodd" d="M21.4551 10.8065C21.756 11.0997 21.7555 11.5745 21.4541 11.8671L18.5427 14.6928C18.2412 14.9854 17.7529 14.985 17.452 14.6918C17.151 14.3986 17.1515 13.9238 17.453 13.6311L20.3644 10.8055C20.6659 10.5128 21.1542 10.5133 21.4551 10.8065Z" fill="#00A881"/>
<path fill-rule="evenodd" clip-rule="evenodd" d="M17.4561 10.8029C17.7576 10.5103 18.2459 10.5107 18.5468 10.8039L21.4526 13.6351C21.7535 13.9282 21.753 14.4031 21.4515 14.6957C21.15 14.9883 20.6617 14.9879 20.3608 14.6947L17.455 11.8635C17.1541 11.5704 17.1546 11.0955 17.4561 10.8029Z" fill="#00A881"/>
</svg>
