<svg width="24" height="24" viewBox="0 0 24 24" fill="none" xmlns="http://www.w3.org/2000/svg">
<path d="M8 4.75C8 2.67893 9.67893 1 11.75 1C13.8211 1 15.5 2.67893 15.5 4.75C15.5 6.82107 13.8211 8.5 11.75 8.5C9.67893 8.5 8 6.82107 8 4.75Z" fill="#4E5964"/>
<path d="M3 14.75C3 12.1266 4.62665 10 7.25 10H13.9569C14.5092 10 14.9568 10.447 14.9568 10.9993V14.0473C14.9568 15.1518 15.8522 16.0463 16.9568 16.0463H19.5C20.0523 16.0463 20.5 16.4939 20.5 17.0462V17.25C20.5 20.1495 18.1495 22.5 15.25 22.5H9.25C5.79822 22.5 3 19.7018 3 16.25V14.75Z" fill="#4E5964"/>
<path d="M16.8262 9.82237C17.1194 9.52976 17.5943 9.53022 17.8869 9.82339L18.7698 10.708L19.6544 9.82501C19.9476 9.5324 20.4225 9.53285 20.7151 9.82603C21.0077 10.1192 21.0073 10.5941 20.7141 10.8867L19.8294 11.7697L20.7126 12.6545C21.0052 12.9477 21.0048 13.4226 20.7116 13.7152C20.4184 14.0078 19.9435 14.0074 19.6509 13.7142L18.7677 12.8293L17.8829 13.7124C17.5898 14.005 17.1149 14.0045 16.8223 13.7114C16.5297 13.4182 16.5301 12.9433 16.8233 12.6507L17.7081 11.7676L16.8252 10.883C16.5326 10.5899 16.5331 10.115 16.8262 9.82237Z" fill="#4E5964"/>
</svg>
