<svg width="24" height="24" viewBox="0 0 24 24" fill="none" xmlns="http://www.w3.org/2000/svg">
<path fill-rule="evenodd" clip-rule="evenodd" d="M8.25 5C8.25 2.92893 9.92893 1.25 12 1.25C14.0711 1.25 15.75 2.92893 15.75 5C15.75 7.07107 14.0711 8.75 12 8.75C9.92893 8.75 8.25 7.07107 8.25 5Z" fill="#4E5964"/>
<path fill-rule="evenodd" clip-rule="evenodd" d="M3.25 15C3.25 12.3766 4.87665 10.25 7.5 10.25H11.7293C13.683 10.25 15.25 11.8621 15.25 13.7972C15.25 13.9716 15.2356 14.1482 15.2068 14.3214C15.0374 15.3378 15.8163 16.2651 16.8467 16.2737L19.5563 16.2963C20.2171 16.3018 20.75 16.8391 20.75 17.5C20.75 20.3995 18.3995 22.75 15.5 22.75H9.5C6.04822 22.75 3.25 19.9518 3.25 16.5V15Z" fill="#4E5964"/>
<path d="M17.8868 9.82345C17.5942 9.53028 17.1193 9.52982 16.8262 9.82243C16.533 10.115 16.5325 10.5899 16.8251 10.8831L17.708 11.7677L16.8232 12.6508C16.53 12.9434 16.5296 13.4182 16.8222 13.7114C17.1148 14.0046 17.5897 14.0051 17.8828 13.7124L18.7676 12.8293L19.6508 13.7142C19.9434 14.0074 20.4183 14.0079 20.7115 13.7153C21.0047 13.4227 21.0051 12.9478 20.7125 12.6546L19.8293 11.7697L20.714 10.8867C21.0072 10.5941 21.0076 10.1193 20.715 9.82609C20.4224 9.53291 19.9475 9.53246 19.6544 9.82507L18.7697 10.708L17.8868 9.82345Z" fill="#4E5964"/>
</svg>
