<svg width="24" height="24" viewBox="0 0 24 24" fill="none" xmlns="http://www.w3.org/2000/svg">
<path fill-rule="evenodd" clip-rule="evenodd" d="M8 1.25C8.41421 1.25 8.75 1.58579 8.75 2V3H7.25V2C7.25 1.58579 7.58579 1.25 8 1.25ZM16.75 3.00054L17.0789 3.00058C19.804 3.04064 22 5.15169 22 7.75V15.4688C22 19.0759 18.922 22 15.125 22H8.875C5.07804 22 2 19.0759 2 15.4688V7.75C2 5.12665 4.23858 3 7 3H7.25V4C7.25 4.41421 7.58579 4.75 8 4.75C8.41421 4.75 8.75 4.41421 8.75 4V3H12L15.25 3.00037V4C15.25 4.41421 15.5858 4.75 16 4.75C16.4142 4.75 16.75 4.41421 16.75 4V3.00054ZM16.75 3.00054L15.25 3.00037V2C15.25 1.58579 15.5858 1.25 16 1.25C16.4142 1.25 16.75 1.58579 16.75 2V3.00054ZM15.5855 10.4687C15.8444 10.1453 15.7921 9.67333 15.4687 9.41448C15.1453 9.15563 14.6733 9.20794 14.4145 9.53131L10.9982 13.7992L9.58592 12.0318C9.32735 11.7082 8.85541 11.6555 8.53182 11.9141C8.20822 12.1727 8.15551 12.6446 8.41408 12.9682L10.4117 15.4682C10.554 15.6462 10.7694 15.7499 10.9973 15.75C11.2252 15.7501 11.4408 15.6466 11.5832 15.4687L15.5855 10.4687Z" fill="#4E5964"/>
</svg>
