<svg width="24" height="24" viewBox="0 0 24 24" fill="none" xmlns="http://www.w3.org/2000/svg">
<path d="M7.25 5.25V2.25C7.25 1.83579 7.58579 1.5 8 1.5C8.41421 1.5 8.75 1.83579 8.75 2.25V5.25C8.75 5.66421 8.41421 6 8 6C7.58579 6 7.25 5.66421 7.25 5.25Z" fill="#4E5964"/>
<path d="M15.25 5.25V2.25C15.25 1.83579 15.5858 1.5 16 1.5C16.4142 1.5 16.75 1.83579 16.75 2.25V5.25C16.75 5.66421 16.4142 6 16 6C15.5858 6 15.25 5.66421 15.25 5.25Z" fill="#4E5964"/>
<path fill-rule="evenodd" clip-rule="evenodd" d="M14.25 3.04102V5.25C14.25 6.2165 15.0335 7 16 7C16.9665 7 17.75 6.2165 17.75 5.25V3.27246C20.1564 3.90577 21.75 5.84516 21.75 8.26367V16.999C21.75 19.9982 19.4373 22.5 16.5 22.5H7.5C4.56271 22.5 2.25 19.9982 2.25 16.999V8.26367C2.25 5.84242 3.84638 3.90698 6.25 3.24512V5.25C6.25 6.2165 7.0335 7 8 7C8.9665 7 9.75 6.2165 9.75 5.25V3.01074L14.25 3.04102ZM15.4688 9.41406C15.1454 9.15539 14.6729 9.20803 14.4141 9.53125L10.998 13.7988L9.58594 12.0322C9.32747 11.7088 8.85581 11.6559 8.53223 11.9141C8.20872 12.1726 8.15573 12.6442 8.41406 12.9678L10.4121 15.4678C10.5543 15.6456 10.7693 15.7498 10.9971 15.75C11.2248 15.75 11.4407 15.6465 11.583 15.4688L15.5859 10.4688C15.8445 10.1454 15.7919 9.67287 15.4688 9.41406Z" fill="#4E5964"/>
</svg>
