<svg width="24" height="24" viewBox="0 0 24 24" fill="none" xmlns="http://www.w3.org/2000/svg">
<path fill-rule="evenodd" clip-rule="evenodd" d="M8 3.2002H14.0094L16.0096 3.2501C19.3151 3.25415 21.75 5.35043 21.75 8.21267V16.4634C21.75 19.3577 19.3974 21.7002 16.5 21.7002H7.5C4.60258 21.7002 2.25 19.3577 2.25 16.4634V8.21267C2.25 5.34786 4.68764 3.25519 7.98753 3.2003L8 3.2002ZM9 2.25C9.41421 2.25 9.75 2.58579 9.75 3V5C9.75 5.41421 9.41421 5.75 9 5.75C8.58579 5.75 8.25 5.41421 8.25 5V3C8.25 2.58579 8.58579 2.25 9 2.25ZM15 2.25C15.4142 2.25 15.75 2.58579 15.75 3V5C15.75 5.41421 15.4142 5.75 15 5.75C14.5858 5.75 14.25 5.41421 14.25 5V3C14.25 2.58579 14.5858 2.25 15 2.25ZM15.4687 9.41448C15.7921 9.67333 15.8444 10.1453 15.5855 10.4687L11.5832 15.4687C11.4408 15.6466 11.2252 15.7501 10.9973 15.75C10.7694 15.7499 10.554 15.6462 10.4117 15.4682L8.41408 12.9682C8.15551 12.6446 8.20822 12.1727 8.53182 11.9141C8.85541 11.6555 9.32735 11.7082 9.58592 12.0318L10.9982 13.7992L14.4145 9.53131C14.6733 9.20794 15.1453 9.15563 15.4687 9.41448Z" fill="#4E5964"/>
</svg>
