<svg width="24" height="24" viewBox="0 0 24 24" fill="none" xmlns="http://www.w3.org/2000/svg">
<path d="M8.25 5C8.25 5.41421 8.58579 5.75 9 5.75C9.41421 5.75 9.75 5.41421 9.75 5V3.2002H14.0098L14.25 3.20605V5C14.25 5.41421 14.5858 5.75 15 5.75C15.4142 5.75 15.75 5.41421 15.75 5V3.24316L16.0098 3.25C19.3152 3.25412 21.75 5.3507 21.75 8.21289V16.4639C21.7497 19.3579 19.3973 21.7002 16.5 21.7002H7.5C4.60274 21.7002 2.25026 19.3579 2.25 16.4639V8.21289C2.25 5.34814 4.68753 3.25517 7.9873 3.2002H8.25V5ZM15.4688 9.41406C15.1454 9.15536 14.6729 9.20793 14.4141 9.53125L10.998 13.7988L9.58594 12.0322C9.32744 11.7087 8.85581 11.6557 8.53223 11.9141C8.20872 12.1726 8.15573 12.6442 8.41406 12.9678L10.4121 15.4678C10.5543 15.6457 10.7693 15.7498 10.9971 15.75C11.2249 15.7501 11.4406 15.6466 11.583 15.4688L15.5859 10.4688C15.8446 10.1454 15.7921 9.67287 15.4688 9.41406ZM15 2.25C15.4141 2.25 15.7499 2.58588 15.75 3V3.24316L14.25 3.20605V3C14.2501 2.58588 14.5859 2.25 15 2.25ZM9 2.25C9.41415 2.25 9.7499 2.58588 9.75 3V3.2002H8.25V3C8.2501 2.58588 8.58585 2.25 9 2.25Z" fill="#4E5964"/>
</svg>
