<svg width="24" height="24" viewBox="0 0 24 24" fill="none" xmlns="http://www.w3.org/2000/svg">
<path fill-rule="evenodd" clip-rule="evenodd" d="M14.9072 13.9081C15.2001 13.6153 15.6749 13.6153 15.9678 13.9081L16.4961 14.4364L17.0244 13.9081C17.3173 13.6153 17.7921 13.6153 18.085 13.9081C18.3779 14.201 18.3779 14.6759 18.085 14.9688L17.5568 15.4971L18.0847 16.025C18.3776 16.3179 18.3776 16.7928 18.0847 17.0857C17.7918 17.3786 17.3169 17.3786 17.024 17.0857L16.4961 16.5577L15.9682 17.0857C15.6753 17.3786 15.2004 17.3786 14.9075 17.0857C14.6146 16.7928 14.6146 16.3179 14.9075 16.025L15.4354 15.4971L14.9072 14.9688C14.6143 14.6759 14.6143 14.201 14.9072 13.9081ZM5.8125 2.25C3.84499 2.25 2.25 3.84498 2.25 5.8125V10.25H21.6998C21.3826 8.30142 19.6067 6.89111 17.6225 6.9102C16.5997 6.92003 15.499 6.89025 14.5309 6.77756C13.5303 6.6611 12.7897 6.46765 12.3991 6.22217C11.9362 5.93121 11.7735 5.66372 11.4173 5.07835L11.4168 5.0774C11.3749 5.00863 11.3304 4.93547 11.2824 4.85737C10.478 3.5482 9.14369 2.25 7.32296 2.25H5.8125ZM21.75 11.75H2.25V16.5C2.25 19.3995 4.60051 21.75 7.5 21.75H16.5C19.3995 21.75 21.75 19.3995 21.75 16.5V11.75Z" fill="#4E5964"/>
</svg>
