<svg width="24" height="24" viewBox="0 0 24 24" fill="none" xmlns="http://www.w3.org/2000/svg">
<path d="M17.25 13C19.5972 13 21.5 14.9028 21.5 17.25C21.5 18.1439 21.2233 18.9728 20.752 19.6572L21.7344 20.7334C22.0132 21.0394 21.9914 21.5139 21.6855 21.793C21.3796 22.0721 20.9052 22.05 20.626 21.7441L19.6953 20.7236C19.0035 21.2115 18.1609 21.5 17.25 21.5C14.9028 21.5 13 19.5972 13 17.25C13 14.9028 14.9028 13 17.25 13Z" fill="#4E5964"/>
<path d="M7.25 12.7998C9.15532 12.7998 10.7001 14.3447 10.7002 16.25V18.0498C10.7002 19.9552 9.15538 21.5 7.25 21.5H5.4502C3.54481 21.5 2 19.9552 2 18.0498V16.25C2.00011 14.3447 3.54488 12.7998 5.4502 12.7998H7.25Z" fill="#4E5964"/>
<path d="M7.25 2C9.15538 2 10.7002 3.54481 10.7002 5.4502V7.25C10.7002 9.15538 9.15538 10.7002 7.25 10.7002H5.4502C3.54481 10.7002 2 9.15538 2 7.25V5.4502C2 3.54481 3.54481 2 5.4502 2H7.25Z" fill="#4E5964"/>
<path d="M18.0498 2C19.9552 2 21.5 3.54481 21.5 5.4502V7.25C21.5 9.15538 19.9552 10.7002 18.0498 10.7002H16.25C14.3447 10.7001 12.7998 9.15532 12.7998 7.25V5.4502C12.7998 3.54488 14.3447 2.00011 16.25 2H18.0498Z" fill="#4E5964"/>
</svg>
