<svg width="24" height="25" viewBox="0 0 24 25" fill="none" xmlns="http://www.w3.org/2000/svg">
<path fill-rule="evenodd" clip-rule="evenodd" d="M15.0691 8.31125L12.7489 5.99099V9.73105H11.2489V5.99216L8.92978 8.31125C8.63688 8.60414 8.16201 8.60414 7.86912 8.31125C7.57622 8.01835 7.57622 7.54348 7.86912 7.25059L10.8327 4.28698C11.4771 3.64262 12.5218 3.64262 13.1662 4.28699L16.1298 7.25059C16.4227 7.54348 16.4227 8.01836 16.1298 8.31125C15.8369 8.60414 15.362 8.60414 15.0691 8.31125ZM11.2489 9.73105H4.01156C3.57942 9.73105 3.01713 9.89668 2.69512 10.4185C2.09701 11.3877 2.02943 12.8878 2.94153 13.8198L8.82755 19.8343C10.5196 21.5633 13.5719 21.5633 15.2639 19.8343L20.8698 14.1061C21.8797 13.0733 22.0326 11.5846 21.2646 10.4099C20.937 9.90898 20.3875 9.73105 19.9365 9.73105H12.7489V15.881C12.7489 16.2952 12.4131 16.631 11.9989 16.631C11.5846 16.631 11.2489 16.2952 11.2489 15.881L11.2489 9.73105Z" fill="#4E5964"/>
</svg>
