<svg width="24" height="24" viewBox="0 0 24 24" fill="none" xmlns="http://www.w3.org/2000/svg">
<path fill-rule="evenodd" clip-rule="evenodd" d="M16.5302 7.53042C16.8231 7.23753 16.8231 6.76266 16.5302 6.46976L13.2373 3.17687C12.5539 2.49345 11.4459 2.49345 10.7624 3.17687L7.46955 6.46976C7.17665 6.76265 7.17665 7.23753 7.46955 7.53042C7.76244 7.82332 8.23731 7.82332 8.53021 7.53042L11.2499 4.81075V10.0002H4.75987C3.41507 10.0002 1.88374 10.5969 2.01097 11.9357C2.05369 12.3853 2.22196 12.8112 2.53105 13.1271L9.07108 19.8099C10.6243 21.397 13.4783 21.397 15.0315 19.8099L21.2592 13.4462C21.679 13.0172 21.9207 12.5046 21.9835 11.9793C22.1472 10.6088 20.5167 10.0002 19.1365 10.0002H12.7499V4.81075L15.4695 7.53042C15.7624 7.82332 16.2373 7.82332 16.5302 7.53042ZM12.7499 10.0002H11.2499V16.0001C11.2499 16.4143 11.5857 16.7501 11.9999 16.7501C12.4141 16.7501 12.7499 16.4143 12.7499 16.0001V10.0002Z" fill="#4E5964"/>
</svg>
