<svg width="24" height="25" viewBox="0 0 24 25" fill="none" xmlns="http://www.w3.org/2000/svg">
<path fill-rule="evenodd" clip-rule="evenodd" d="M11.25 11.5261L11.25 7.08012L9.53139 8.80563C9.23909 9.09911 8.76421 9.10006 8.47073 8.80776C8.17725 8.51545 8.1763 8.04058 8.46861 7.7471L11.4566 4.7471C11.6046 4.59849 11.7995 4.52485 11.994 4.52639L12 4.52637C12.2461 4.52637 12.4645 4.64487 12.6012 4.82792L15.5271 7.71896C15.8218 8.01009 15.8246 8.48496 15.5335 8.7796C15.2424 9.07425 14.7675 9.07709 14.4729 8.78596L12.75 7.08364L12.75 11.5261H11.25ZM11.25 11.5261H4.5C3.80964 11.5261 3.25 12.0858 3.25 12.7761V15.7761C3.25 18.1233 5.15279 20.0261 7.5 20.0261H16.5C18.8472 20.0261 20.75 18.1233 20.75 15.7761V12.7761C20.75 12.0858 20.1904 11.5261 19.5 11.5261H12.75V15.2764C12.75 15.6906 12.4142 16.0264 12 16.0264C11.5858 16.0264 11.25 15.6906 11.25 15.2764V11.5261Z" fill="#4E5964"/>
</svg>
