<svg width="24" height="24" viewBox="0 0 24 24" fill="none" xmlns="http://www.w3.org/2000/svg">
<path fill-rule="evenodd" clip-rule="evenodd" d="M12 4.00172C13.705 3.97049 15.3545 4.365 16.8279 5.11148L13.4137 8.52562C12.9774 8.34791 12.5002 8.25 12 8.25C9.92893 8.25 8.25 9.92893 8.25 12C8.25 12.5001 8.34791 12.9774 8.52562 13.4137L4.74779 17.1915C3.84497 16.3479 3.07794 15.3356 2.49555 14.1847C2.17048 13.5049 2.00097 12.7576 2 12C2.00097 11.2424 2.17048 10.4951 2.49555 9.81533C4.33486 6.18038 8.01596 3.92875 12 4.00172ZM9.37885 14.6818L5.92048 18.1402C7.67975 19.366 9.7934 20.0387 12 19.9983C15.984 20.0713 19.6651 17.8196 21.5044 14.1847C22.1652 12.8075 22.1652 11.1925 21.5044 9.81533C20.6976 8.22088 19.5364 6.89259 18.1507 5.90991L14.6818 9.37885C15.3427 10.0549 15.75 10.9799 15.75 12C15.75 14.0711 14.0711 15.75 12 15.75C10.9799 15.75 10.0549 15.3427 9.37885 14.6818ZM13.621 10.4396C14.0105 10.8442 14.25 11.3941 14.25 12C14.25 13.2426 13.2426 14.25 12 14.25C11.3941 14.25 10.8442 14.0105 10.4396 13.621L13.621 10.4396ZM12.1821 9.75726L9.75726 12.1821C9.75245 12.122 9.75 12.0613 9.75 12C9.75 10.7574 10.7574 9.75 12 9.75C12.0613 9.75 12.122 9.75245 12.1821 9.75726Z" fill="#4E5964"/>
<path d="M19 2L2 19" stroke="#4E5964" stroke-width="1.5" stroke-linecap="round" stroke-linejoin="round"/>
</svg>
