<svg width="24" height="24" viewBox="0 0 24 24" fill="none" xmlns="http://www.w3.org/2000/svg">
<path fill-rule="evenodd" clip-rule="evenodd" d="M20.5054 2.47163C20.7972 2.76561 20.7954 3.24048 20.5014 3.53229L3.40923 20.4986C3.11525 20.7904 2.64038 20.7887 2.34857 20.4947C2.05676 20.2007 2.05852 19.7258 2.35249 19.434L4.8328 16.972C4.01449 16.2009 3.31694 15.2881 2.78071 14.2578L2.77299 14.2426C2.42993 13.5451 2.25103 12.7783 2.25 12.001V11.999C2.25103 11.2217 2.42993 10.4549 2.77299 9.75741L2.78071 9.74215C4.56541 6.3131 8.1351 4.1876 12 4.2514C13.6295 4.2245 15.2068 4.58687 16.6197 5.27196L19.4447 2.46771C19.7387 2.1759 20.2136 2.17766 20.5054 2.47163ZM8.49598 13.3358L9.75177 12.0893C9.74414 11.8971 9.76114 11.7037 9.80316 11.5138C9.9023 11.0658 10.136 10.6589 10.473 10.3475C10.81 10.0361 11.2341 9.83519 11.6885 9.77167C11.8274 9.75225 11.9671 9.74596 12.1059 9.75249L13.3617 8.50595C12.7657 8.27371 12.1182 8.19701 11.4808 8.28611C10.7235 8.39198 10.0166 8.72685 9.45501 9.24582C8.89338 9.76479 8.50384 10.4431 8.3386 11.1897C8.18013 11.9057 8.23523 12.6518 8.49598 13.3358Z" fill="#4E5964"/>
<path d="M19.2126 7.07105C18.9128 6.78515 18.4381 6.79635 18.1522 7.09608C17.8663 7.3958 17.8775 7.87054 18.1772 8.15644C18.8564 8.80428 19.4363 9.56753 19.8848 10.4273C20.3717 11.4193 20.3717 12.5807 19.8849 13.5726C18.3596 16.4965 15.3118 18.3074 12.0133 18.2486L11.9986 18.2485L11.9866 18.2486C10.71 18.2713 9.47138 18.0141 8.34379 17.5208L8.20826 17.4602C7.83125 17.2914 7.38879 17.4593 7.21857 17.8356C7.04835 18.212 7.21445 18.6551 7.5901 18.8268C7.63967 18.8495 7.68943 18.8718 7.73938 18.8936C9.05832 19.4712 10.5073 19.7732 12 19.7486C15.8649 19.8124 19.4345 17.6869 21.2192 14.2578L21.2265 14.2435C21.9245 12.8292 21.9245 11.1708 21.2265 9.75649L21.2192 9.74215C20.693 8.73106 20.0113 7.833 19.2126 7.07105Z" fill="#4E5964"/>
<path d="M15.6474 11.1268C15.5513 10.7239 15.1467 10.4753 14.7438 10.5714C14.3409 10.6676 14.0922 11.0722 14.1884 11.4751C14.2284 11.6428 14.2498 11.8184 14.2498 12C14.2498 13.2427 13.2424 14.25 11.9998 14.25C11.7636 14.25 11.5373 14.2139 11.3253 14.1474C10.93 14.0234 10.5092 14.2433 10.3852 14.6385C10.2612 15.0337 10.4811 15.4546 10.8763 15.5786C11.2319 15.6902 11.6096 15.75 11.9998 15.75C14.0709 15.75 15.7498 14.0711 15.7498 12C15.7498 11.7003 15.7145 11.4077 15.6474 11.1268Z" fill="#4E5964"/>
</svg>
