<svg width="24" height="24" viewBox="0 0 24 24" fill="none" xmlns="http://www.w3.org/2000/svg">
<path fill-rule="evenodd" clip-rule="evenodd" d="M11.9956 4C13.7006 3.96877 14.7236 4.07575 16.197 4.82223L12.6477 8.37155C12.2114 8.19384 12.0122 8.24828 11.9956 8.24828C9.92453 8.24828 8.2456 9.92721 8.2456 11.9983C8.2456 12.0352 8.2456 12.2617 8.30226 12.7196L4.29994 16.722C3.39712 15.8783 3.07354 15.3339 2.49116 14.183C2.16609 13.5031 1.99658 12.7558 1.9956 11.9983C1.99658 11.2407 2.16609 10.4934 2.49116 9.81361C4.33047 6.17866 8.01157 3.92702 11.9956 4ZM9.37445 14.6801L5.91608 18.1385C7.67535 19.3643 9.78901 20.037 11.9956 19.9966C15.9796 20.0695 19.6607 17.8179 21.5 14.183C22.1608 12.8058 22.1608 11.1908 21.5 9.81361C20.6932 8.21916 19.532 6.89087 18.1463 5.90819L14.6774 9.37713C15.3383 10.0532 15.7456 10.9782 15.7456 11.9983C15.7456 14.0693 14.0667 15.7483 11.9956 15.7483C10.9755 15.7483 10.0505 15.341 9.37445 14.6801ZM13.6166 10.4379C14.0061 10.8424 14.2456 11.3924 14.2456 11.9983C14.2456 13.2409 13.2382 14.2483 11.9956 14.2483C11.3897 14.2483 10.8398 14.0088 10.4352 13.6193L13.6166 10.4379Z" fill="#4E5964"/>
<path fill-rule="evenodd" clip-rule="evenodd" d="M18.7981 3.20186C19.0673 3.471 19.0673 3.90737 18.7981 4.17652L3.17653 19.7981C2.90738 20.0673 2.47101 20.0673 2.20187 19.7981C1.93272 19.529 1.93272 19.0926 2.20187 18.8235L17.8235 3.20186C18.0926 2.93271 18.529 2.93271 18.7981 3.20186Z" fill="#4E5964"/>
</svg>
