<svg width="24" height="24" viewBox="0 0 24 24" fill="none" xmlns="http://www.w3.org/2000/svg">
<path d="M9.75 12C9.75 10.7574 10.7574 9.75 12 9.75C13.2426 9.75 14.25 10.7574 14.25 12C14.25 13.2426 13.2426 14.25 12 14.25C10.7574 14.25 9.75 13.2426 9.75 12Z" fill="#4E5964"/>
<path fill-rule="evenodd" clip-rule="evenodd" d="M2.78071 9.74215C4.56541 6.3131 8.1351 4.1876 12 4.2514C15.8649 4.1876 19.4345 6.3131 21.2192 9.74215L21.2265 9.75649C21.9245 11.1708 21.9245 12.8292 21.2265 14.2435L21.2192 14.2578C19.4345 17.6869 15.8649 19.8124 12 19.7486C8.1351 19.8124 4.56541 17.6869 2.78071 14.2578L2.77299 14.2426C2.42993 13.5451 2.25103 12.7783 2.25 12.001V11.999C2.25103 11.2217 2.42993 10.4549 2.77299 9.75741L2.78071 9.74215ZM12 8.25C9.92893 8.25 8.25 9.92893 8.25 12C8.25 14.0711 9.92893 15.75 12 15.75C14.0711 15.75 15.75 14.0711 15.75 12C15.75 9.92893 14.0711 8.25 12 8.25Z" fill="#4E5964"/>
</svg>
