<svg width="24" height="24" viewBox="0 0 24 24" fill="none" xmlns="http://www.w3.org/2000/svg">
<path fill-rule="evenodd" clip-rule="evenodd" d="M17.9502 6.03711C18.8683 6.03722 19.6123 6.78209 19.6123 7.7002V11.9805L21.291 13.4014C21.5569 13.6263 21.7109 13.9574 21.7109 14.3057V20.0293C21.7109 20.1264 21.6969 20.2202 21.6748 20.3105C21.9833 20.3888 22.2119 20.6671 22.2119 21C22.2117 21.3932 21.8933 21.7128 21.5 21.7129H2.5C2.10666 21.7129 1.78737 21.3933 1.78711 21C1.78711 20.6802 1.99885 20.4116 2.28906 20.3213V9.65332C2.28926 8.66037 3.43865 8.10807 4.21387 8.72852L4.28711 8.78711V7.9502C4.28711 7.03203 5.03203 6.28711 5.9502 6.28711H6.0498C6.96797 6.28711 7.71289 7.03203 7.71289 7.9502V10.75C8.12433 10.5795 8.44141 10.1849 8.44141 9.66602C8.44175 8.70407 9.51694 8.1611 10.2871 8.6875V7.7002C10.2871 6.78203 11.032 6.03711 11.9502 6.03711C12.8683 6.03722 13.6123 6.78209 13.6123 7.7002V11.0859C14.0589 11.0569 14.4658 10.6983 14.4658 10.1807C14.4661 9.2271 15.5216 8.68683 16.2871 9.18262V7.7002C16.2871 6.78203 17.032 6.03711 17.9502 6.03711ZM14.8506 15.5371C14.0891 15.5371 13.1876 16.0565 13.1875 17.0098V20.0498C13.1875 20.1334 13.2049 20.2126 13.2314 20.2871H14.5693C14.5958 20.2126 14.6132 20.1334 14.6133 20.0498V17.0381C14.6159 17.0356 14.6198 17.0327 14.624 17.0293C14.661 16.9997 14.7387 16.9629 14.8506 16.9629H16.75C16.8618 16.9629 16.9395 16.9997 16.9766 17.0293C16.9813 17.0331 16.9855 17.0364 16.9883 17.0391V20.0498C16.9883 20.1333 17.0049 20.2126 17.0312 20.2871H18.3691C18.3956 20.2126 18.413 20.1334 18.4131 20.0498V17.0098C18.4129 16.0565 17.5115 15.5371 16.75 15.5371H14.8506ZM6 16.2871C5.60653 16.2871 5.28716 16.6065 5.28711 17V18C5.28711 18.3935 5.6065 18.7129 6 18.7129C6.3935 18.7129 6.71289 18.3935 6.71289 18V17C6.71284 16.6065 6.39347 16.2871 6 16.2871ZM9 16.2871C8.60653 16.2871 8.28716 16.6065 8.28711 17V18C8.28711 18.3935 8.6065 18.7129 9 18.7129C9.3935 18.7129 9.71289 18.3935 9.71289 18V17C9.71284 16.6065 9.39347 16.2871 9 16.2871ZM17.9502 7.46289C17.819 7.46289 17.7129 7.56903 17.7129 7.7002V10.374L18.1875 10.7754V7.7002C18.1875 7.5691 18.0813 7.463 17.9502 7.46289ZM5.9502 7.71289C5.81903 7.71289 5.71289 7.81903 5.71289 7.9502V9.92871L6.28711 10.3877V7.9502C6.28711 7.81903 6.18097 7.71289 6.0498 7.71289H5.9502ZM11.9502 7.46289C11.819 7.46289 11.7129 7.56903 11.7129 7.7002V9.84277L12.1875 10.2305V7.7002C12.1875 7.5691 12.0813 7.463 11.9502 7.46289Z" fill="#4E5964"/>
<path d="M7.90039 2.2373C8.29371 2.23752 8.6123 2.55683 8.6123 2.9502C8.6123 3.8683 7.86827 4.6122 6.9502 4.6123C6.83532 4.6123 6.7398 4.69436 6.71777 4.80273L6.69824 4.99414C6.63169 5.31866 6.34421 5.5625 6 5.5625C5.60663 5.5625 5.28733 5.2439 5.28711 4.85059C5.28711 3.93242 6.03203 3.1875 6.9502 3.1875C7.06488 3.18741 7.16048 3.10621 7.18262 2.99805L7.20215 2.80664C7.26859 2.48197 7.55608 2.2373 7.90039 2.2373Z" fill="#4E5964"/>
<path d="M13.9004 2.2373C14.2937 2.23752 14.6123 2.55683 14.6123 2.9502C14.6123 3.8683 13.8683 4.6122 12.9502 4.6123C12.8353 4.6123 12.7398 4.69436 12.7178 4.80273L12.6982 4.99414C12.6317 5.31866 12.3442 5.5625 12 5.5625C11.6066 5.5625 11.2873 5.2439 11.2871 4.85059C11.2871 3.93242 12.032 3.1875 12.9502 3.1875C13.0649 3.18741 13.1605 3.10621 13.1826 2.99805L13.2021 2.80664C13.2686 2.48197 13.5561 2.2373 13.9004 2.2373Z" fill="#4E5964"/>
<path d="M19.9004 2.2373C20.2937 2.23752 20.6123 2.55683 20.6123 2.9502C20.6123 3.8683 19.8683 4.6122 18.9502 4.6123C18.8353 4.6123 18.7398 4.69436 18.7178 4.80273L18.6982 4.99414C18.6317 5.31866 18.3442 5.5625 18 5.5625C17.6066 5.5625 17.2873 5.2439 17.2871 4.85059C17.2871 3.93242 18.032 3.1875 18.9502 3.1875C19.0649 3.18741 19.1605 3.10621 19.1826 2.99805L19.2021 2.80664C19.2686 2.48197 19.5561 2.2373 19.9004 2.2373Z" fill="#4E5964"/>
</svg>
