<svg width="24" height="24" viewBox="0 0 24 24" fill="none" xmlns="http://www.w3.org/2000/svg">
<path d="M17.7651 2.25C19.7642 2.25 20.9861 4.44583 19.9321 6.14453L15.6079 13.1133C15.5048 13.2795 15.4507 13.4714 15.4507 13.667V20.1797C15.4506 21.0962 14.5484 21.7408 13.6812 21.4443L10.2759 20.2803C9.2442 19.9276 8.5504 18.9575 8.55029 17.8672V13.667C8.55029 13.4714 8.49614 13.2795 8.39306 13.1133L4.06885 6.14453C3.01489 4.44583 4.23674 2.25001 6.23584 2.25H17.7651ZM17.603 4.5957C17.2542 4.37242 16.7902 4.4744 16.5669 4.82324L14.1411 8.61328C13.918 8.96211 14.0199 9.42518 14.3687 9.64844C14.7175 9.87173 15.1815 9.7707 15.4048 9.42188L17.8306 5.63184C18.0539 5.28298 17.9519 4.81902 17.603 4.5957Z" fill="#4E5964"/>
</svg>
