<svg width="24" height="24" viewBox="0 0 24 24" fill="none" xmlns="http://www.w3.org/2000/svg">
<path d="M8 17.0002C8.55228 17.0002 9 17.448 9 18.0002V20.0002C9 20.5525 8.55228 21.0002 8 21.0002H7C6.44772 21.0002 6 20.5525 6 20.0002V18.0002C6 17.448 6.44772 17.0002 7 17.0002H8Z" fill="#4E5964"/>
<path d="M21 18.2502C21.4142 18.2502 21.75 18.586 21.75 19.0002C21.75 19.4145 21.4142 19.7502 21 19.7502H10.5V18.2502H21Z" fill="#4E5964"/>
<path d="M5.99414 19.7502H3C2.58579 19.7502 2.25 19.4145 2.25 19.0002C2.25 18.586 2.58579 18.2502 3 18.2502H5.99414V19.7502Z" fill="#4E5964"/>
<path d="M14 10.0002C14.5523 10.0002 15 10.448 15 11.0002V13.0002C15 13.5525 14.5523 14.0002 14 14.0002H13C12.4477 14.0002 12 13.5525 12 13.0002V11.0002C12 10.448 12.4477 10.0002 13 10.0002H14Z" fill="#4E5964"/>
<path d="M21 11.2502C21.4142 11.2502 21.75 11.586 21.75 12.0002C21.75 12.4145 21.4142 12.7502 21 12.7502H15V11.2502H21Z" fill="#4E5964"/>
<path d="M10.5 12.7502H3C2.58579 12.7502 2.25 12.4145 2.25 12.0002C2.25 11.586 2.58579 11.2502 3 11.2502H10.5V12.7502Z" fill="#4E5964"/>
<path d="M7 3.00024C7.55228 3.00024 8 3.44796 8 4.00024V6.00024C8 6.55253 7.55228 7.00024 7 7.00024H6C5.44772 7.00024 5 6.55253 5 6.00024V4.00024C5 3.44796 5.44772 3.00024 6 3.00024H7Z" fill="#4E5964"/>
<path d="M21 4.25024C21.4142 4.25024 21.75 4.58603 21.75 5.00024C21.75 5.41446 21.4142 5.75024 21 5.75024H9.5V4.25024H21Z" fill="#4E5964"/>
<path d="M5 5.75024H3C2.58579 5.75024 2.25 5.41446 2.25 5.00024C2.25 4.58603 2.58579 4.25024 3 4.25024H5V5.75024Z" fill="#4E5964"/>
</svg>
