<svg width="24" height="24" viewBox="0 0 24 24" fill="none" xmlns="http://www.w3.org/2000/svg">
<path d="M6 2.25024C5.0335 2.25024 4.25 3.03375 4.25 4.00024V4.25024L3 4.25024C2.58579 4.25024 2.25 4.58603 2.25 5.00024C2.25 5.41446 2.58579 5.75024 3 5.75024L4.25 5.75024V6.00024C4.25 6.96674 5.0335 7.75024 6 7.75024H7C7.9665 7.75024 8.75 6.96674 8.75 6.00024V5.75024L21 5.75024C21.4142 5.75024 21.75 5.41446 21.75 5.00024C21.75 4.58603 21.4142 4.25024 21 4.25024L8.75 4.25024V4.00024C8.75 3.03375 7.9665 2.25024 7 2.25024H6Z" fill="#4E5964"/>
<path d="M13 9.25024C12.0335 9.25024 11.25 10.0337 11.25 11.0002V11.2502L3 11.2502C2.58579 11.2502 2.25 11.586 2.25 12.0002C2.25 12.4145 2.58579 12.7502 3 12.7502L11.25 12.7502V13.0002C11.25 13.9667 12.0335 14.7502 13 14.7502H14C14.9665 14.7502 15.75 13.9667 15.75 13.0002V12.7502H21C21.4142 12.7502 21.75 12.4145 21.75 12.0002C21.75 11.586 21.4142 11.2502 21 11.2502H15.75V11.0002C15.75 10.0337 14.9665 9.25024 14 9.25024H13Z" fill="#4E5964"/>
<path d="M7 16.2502C6.0335 16.2502 5.25 17.0337 5.25 18.0002V18.2929C5.17181 18.2653 5.08766 18.2502 5 18.2502H3C2.58579 18.2502 2.25 18.586 2.25 19.0002C2.25 19.4145 2.58579 19.7502 3 19.7502H5C5.08766 19.7502 5.17181 19.7352 5.25 19.7076V20.0002C5.25 20.9667 6.0335 21.7502 7 21.7502H8C8.9665 21.7502 9.75 20.9667 9.75 20.0002V19.7502L21 19.7502C21.4142 19.7502 21.75 19.4145 21.75 19.0002C21.75 18.586 21.4142 18.2502 21 18.2502L9.75 18.2502V18.0002C9.75 17.0337 8.9665 16.2502 8 16.2502H7Z" fill="#4E5964"/>
</svg>
