<svg width="24" height="24" viewBox="0 0 24 24" fill="none" xmlns="http://www.w3.org/2000/svg">
<path d="M20.9185 8.2455C20.5067 8.20032 20.2096 7.82991 20.2547 7.41817C20.3594 6.46412 20.0705 5.63329 19.628 4.97693C19.1765 4.307 18.5933 3.86176 18.1961 3.68544C17.8175 3.51739 17.6468 3.07424 17.8149 2.69565C17.9829 2.31706 18.4261 2.14639 18.8047 2.31445C19.4848 2.61637 20.2791 3.25907 20.8719 4.13855C21.4738 5.03161 21.8961 6.21168 21.7458 7.58178C21.7006 7.99352 21.3302 8.29068 20.9185 8.2455Z" fill="#4E5964"/>
<path d="M12.0004 3.1C8.18961 3.1 5.10037 6.18924 5.10037 10V15.6085C5.10037 17.3079 5.73306 18.9464 6.87516 20.2049C7.2092 20.5729 7.77839 20.6005 8.14646 20.2665C8.51453 19.9324 8.54211 19.3632 8.20807 18.9952C7.36655 18.0679 6.90037 16.8606 6.90037 15.6085V10C6.90037 7.18335 9.18372 4.9 12.0004 4.9C14.817 4.9 17.1004 7.18335 17.1004 10V14.5762C17.1004 14.9996 16.7571 15.3429 16.3337 15.3429C15.9103 15.3429 15.567 14.9996 15.567 14.5762V10.3395C15.567 8.36972 13.9702 6.77287 12.0004 6.77287C10.0306 6.77287 8.43371 8.36972 8.43371 10.3395V16.2429C8.43371 16.7399 8.83665 17.1429 9.33371 17.1429C9.83076 17.1429 10.2337 16.7399 10.2337 16.2429V10.3395C10.2337 9.36383 11.0247 8.57287 12.0004 8.57287C12.9761 8.57287 13.767 9.36383 13.767 10.3395V14.5762C13.767 15.9937 14.9162 17.1429 16.3337 17.1429C17.7512 17.1429 18.9004 15.9937 18.9004 14.5762V10C18.9004 6.18924 15.8111 3.1 12.0004 3.1Z" fill="#4E5964"/>
<path d="M3.59708 16.7778C3.65091 16.3671 3.36161 15.9905 2.95091 15.9367C2.54021 15.8828 2.16363 16.1721 2.1098 16.5828C1.73857 19.4152 3.24502 21.4264 4.70018 22.1094C5.07516 22.2854 5.52179 22.124 5.69777 21.7491C5.87375 21.3741 5.71244 20.9275 5.33746 20.7515C4.47995 20.349 3.30977 18.9699 3.59708 16.7778Z" fill="#4E5964"/>
<path d="M12.7504 10.8C12.7504 10.3858 12.4146 10.05 12.0004 10.05C11.5862 10.05 11.2504 10.3858 11.2504 10.8V15.8C11.2504 16.2142 11.5862 16.55 12.0004 16.55C12.4146 16.55 12.7504 16.2142 12.7504 15.8V10.8Z" fill="#4E5964"/>
</svg>
