<svg width="24" height="24" viewBox="0 0 24 24" fill="none" xmlns="http://www.w3.org/2000/svg">
<path fill-rule="evenodd" clip-rule="evenodd" d="M14 2.25C14.9665 2.25 15.75 3.0335 15.75 4V5.25H16.7959C16.8991 4.95923 17.1738 4.75 17.5 4.75H18.5C18.9018 4.75 19.2287 5.06594 19.248 5.46289C20.7055 5.97715 21.75 7.36652 21.75 9V17C21.75 19.0051 20.5069 20.7181 18.75 21.415V6.2041C18.6715 6.23197 18.588 6.25 18.5 6.25H17.5C17.412 6.25 17.3285 6.23197 17.25 6.2041V21.7432C17.1672 21.7475 17.0839 21.75 17 21.75H7C6.91613 21.75 6.8328 21.7475 6.75 21.7432V6.2041C6.67152 6.23197 6.58804 6.25 6.5 6.25H5.5C5.41196 6.25 5.32848 6.23197 5.25 6.2041V21.415C3.49309 20.7181 2.25 19.0051 2.25 17V9C2.25 7.36684 3.29395 5.9774 4.75098 5.46289C4.77032 5.06592 5.09823 4.75 5.5 4.75H6.5C6.82617 4.75 7.10086 4.95923 7.2041 5.25H8.25V4C8.25 3.0335 9.0335 2.25 10 2.25H14ZM11.998 9.75293C11.5838 9.75293 11.248 10.0887 11.248 10.5029V12.7539H9C8.58579 12.7539 8.25 13.0897 8.25 13.5039C8.25026 13.9179 8.58595 14.2539 9 14.2539H11.248V16.5029C11.248 16.9171 11.5838 17.2529 11.998 17.2529C12.4123 17.2529 12.748 16.9171 12.748 16.5029V14.2539H15C15.4141 14.2539 15.7497 13.9179 15.75 13.5039C15.75 13.0897 15.4142 12.7539 15 12.7539H12.748V10.5029C12.748 10.0887 12.4123 9.75293 11.998 9.75293ZM10 3.75C9.86193 3.75 9.75 3.86193 9.75 4V5.25H14.25V4C14.25 3.86193 14.1381 3.75 14 3.75H10Z" fill="#4E5964"/>
</svg>
