<svg width="24" height="24" viewBox="0 0 24 24" fill="none" xmlns="http://www.w3.org/2000/svg">
<path fill-rule="evenodd" clip-rule="evenodd" d="M12 2.25073C6.61522 2.25073 2.25 6.61596 2.25 12.0007C2.25 17.3855 6.61522 21.7507 12 21.7507C17.3848 21.7507 21.75 17.3855 21.75 12.0007C21.75 6.61596 17.3848 2.25073 12 2.25073ZM12.4596 8.16238C12.6589 7.79927 12.5261 7.34334 12.1629 7.14404C11.7998 6.94474 11.3439 7.07753 11.1446 7.44064L8.91342 11.5057C8.55793 12.1533 9.04533 12.9411 9.78356 12.912L13.5142 12.7653L11.1719 16.3948C10.9473 16.7429 11.0474 17.2071 11.3954 17.4317C11.7434 17.6563 12.2076 17.5562 12.4322 17.2082L15.3485 12.6892C15.7657 12.0428 15.2817 11.1946 14.513 11.2248L10.6962 11.375L12.4596 8.16238Z" fill="#4E5964"/>
</svg>
