<svg width="24" height="24" viewBox="0 0 24 24" fill="none" xmlns="http://www.w3.org/2000/svg">
<path fill-rule="evenodd" clip-rule="evenodd" d="M22 12C22 17.5228 17.5228 22 12 22C6.47715 22 2 17.5228 2 12C2 6.47715 6.47715 2 12 2C17.5228 2 22 6.47715 22 12ZM12.4592 8.16165C12.6585 7.79854 12.5257 7.34261 12.1626 7.14331C11.7995 6.944 11.3435 7.0768 11.1442 7.43991L8.91305 11.5049C8.55757 12.1526 9.04497 12.9403 9.7832 12.9113L13.5138 12.7645L11.1715 16.3941C10.9469 16.7421 11.047 17.2064 11.395 17.431C11.7431 17.6556 12.2073 17.5555 12.4319 17.2075L15.3482 12.6885C15.7653 12.0421 15.2813 11.1939 14.5126 11.2241L10.6959 11.3742L12.4592 8.16165Z" fill="#00ABB8"/>
</svg>
