<svg width="24" height="24" viewBox="0 0 24 24" fill="none" xmlns="http://www.w3.org/2000/svg">
<path fill-rule="evenodd" clip-rule="evenodd" d="M2 17C2 19.7614 4.23858 22 7 22H17C19.7614 22 22 19.7614 22 17V12V11.75H2V14.1429V17ZM2 10.25H21.9638C21.7053 8.48225 20.0975 7.16024 18.2552 7.17796C15.9485 7.20015 13.2086 7.0454 12 6.28572C11.3123 5.85347 11.0332 5.39204 10.6432 4.74759C10.5951 4.66795 10.5452 4.58552 10.4926 4.5C9.65863 3.14261 8.39643 2 6.80329 2H5.125C3.39911 2 2 3.39911 2 5.125V6.28572V10.25ZM14.25 15C14.25 14.5858 14.5858 14.25 15 14.25H17C17.4142 14.25 17.75 14.5858 17.75 15C17.75 15.4142 17.4142 15.75 17 15.75H15C14.5858 15.75 14.25 15.4142 14.25 15Z" fill="#4E5964"/>
</svg>
