<svg width="24" height="24" viewBox="0 0 24 24" fill="none" xmlns="http://www.w3.org/2000/svg">
<path fill-rule="evenodd" clip-rule="evenodd" d="M5.8125 2.25C3.84499 2.25 2.25 3.84498 2.25 5.8125V10.2927C2.32819 10.265 2.41234 10.25 2.5 10.25H21.5C21.5708 10.25 21.6393 10.2598 21.7042 10.2781C21.3996 8.31501 19.6163 6.89102 17.6225 6.9102C16.5997 6.92003 15.499 6.89025 14.5309 6.77756C13.5303 6.6611 12.7897 6.46765 12.3991 6.22217C11.9362 5.93121 11.7735 5.66372 11.4173 5.07835L11.4166 5.0772C11.3748 5.00848 11.3303 4.93539 11.2824 4.85737C10.478 3.5482 9.14369 2.25 7.32296 2.25H5.8125ZM21.75 11.7073C21.6718 11.735 21.5877 11.75 21.5 11.75H2.5C2.41234 11.75 2.32819 11.735 2.25 11.7073V16.5C2.25 19.3995 4.60051 21.75 7.5 21.75H9.17834C10.185 21.75 11.1705 21.4606 12.0173 20.9162L19.5129 16.0976C20.9072 15.2013 21.75 13.6575 21.75 12V11.7073ZM15.3013 17.3533C15.2557 17.5773 15.25 17.7273 15.25 17.7273C15.25 18.1785 14.9008 18.4011 14.8438 18.4374L14.8407 18.4395C14.7434 18.5019 14.632 18.5505 14.5706 18.5773L14.5659 18.5794C14.5523 18.5853 14.5391 18.5911 14.526 18.5968C14.3863 18.6576 14.271 18.7078 14.1551 18.7822C14.0368 18.8581 13.9437 18.9448 13.8775 19.0552C13.8137 19.1616 13.75 19.3309 13.75 19.6126C13.75 19.9694 13.8586 20.0794 13.9046 20.1186C13.9802 20.183 14.1056 20.2282 14.2658 20.2441C14.3525 20.2527 14.4503 20.2532 14.5776 20.2494C14.6084 20.2484 14.6437 20.2471 14.6819 20.2457C14.7815 20.2419 14.9006 20.2375 15.0094 20.2375H18.9906C19.0994 20.2375 19.2185 20.2419 19.3181 20.2457C19.3563 20.2471 19.3916 20.2484 19.4224 20.2494C19.5497 20.2532 19.6475 20.2527 19.7342 20.2441C19.8944 20.2282 20.0198 20.183 20.0954 20.1186C20.1414 20.0794 20.25 19.9694 20.25 19.6126C20.25 19.3309 20.1863 19.1616 20.1225 19.0552C20.0563 18.9448 19.9632 18.8581 19.8449 18.7822C19.729 18.7078 19.6137 18.6576 19.474 18.5968C19.4609 18.5911 19.4476 18.5853 19.4341 18.5794L19.4294 18.5773C19.368 18.5505 19.2566 18.5019 19.1593 18.4395L19.1562 18.4374C19.0992 18.4011 18.75 18.1785 18.75 17.7273C18.75 17.7273 18.7445 17.5785 18.6987 17.3533C18.6539 17.133 18.5764 16.8693 18.4483 16.6209C18.2069 16.1527 17.8064 15.75 17 15.75C16.1936 15.75 15.7931 16.1527 15.5517 16.6209C15.4236 16.8693 15.3461 17.133 15.3013 17.3533ZM14.2185 15.9334C14.6505 15.0956 15.5001 14.25 17 14.25C18.4999 14.25 19.3495 15.0956 19.7815 15.9334C20.0359 16.4268 20.1552 16.9275 20.209 17.2813C20.3356 17.3387 20.4955 17.4174 20.6551 17.5198C20.9118 17.6846 21.1937 17.925 21.4088 18.2835C21.6262 18.6459 21.75 19.087 21.75 19.6126C21.75 20.337 21.4997 20.8926 21.0683 21.2602C20.6664 21.6027 20.1959 21.7057 19.882 21.7368C19.6976 21.755 19.5229 21.7531 19.3773 21.7487C19.3216 21.747 19.2728 21.7451 19.2278 21.7434C19.1423 21.7402 19.0706 21.7375 18.9906 21.7375H15.0094C14.9294 21.7375 14.8577 21.7402 14.7722 21.7434C14.7272 21.7451 14.6784 21.747 14.6227 21.7487C14.4771 21.7531 14.3024 21.755 14.118 21.7368C13.8041 21.7057 13.3336 21.6027 12.9317 21.2602C12.5003 20.8926 12.25 20.3371 12.25 19.6126C12.25 19.087 12.3738 18.6459 12.5912 18.2835C12.8063 17.925 13.0882 17.6846 13.3449 17.5198C13.5045 17.4174 13.6644 17.3387 13.791 17.2813C13.8448 16.9275 13.9641 16.4268 14.2185 15.9334Z" fill="#4E5964"/>
</svg>
