<svg width="24" height="24" viewBox="0 0 24 24" fill="none" xmlns="http://www.w3.org/2000/svg">
<path fill-rule="evenodd" clip-rule="evenodd" d="M2.25 5.8125C2.25 3.84499 3.84499 2.25 5.8125 2.25H7.32296C9.14369 2.25 10.478 3.5482 11.2824 4.85737C11.3306 4.93583 11.3753 5.0093 11.4173 5.07835C11.7735 5.66371 11.9362 5.93121 12.3991 6.22217C12.7897 6.46765 13.5303 6.6611 14.5309 6.77756C15.499 6.89025 16.5997 6.92003 17.6225 6.9102C19.6163 6.89102 21.3996 8.31501 21.7042 10.2781C21.6393 10.2598 21.5708 10.25 21.5 10.25H2.5C2.41234 10.25 2.32819 10.265 2.25 10.2927V5.8125ZM2.25 11.7073V16.5C2.25 19.3995 4.60051 21.75 7.5 21.75H16.5C19.3995 21.75 21.75 19.3995 21.75 16.5V11.7073C21.6718 11.735 21.5877 11.75 21.5 11.75H2.5C2.41234 11.75 2.32819 11.735 2.25 11.7073ZM14.25 15C14.25 14.5858 14.5858 14.25 15 14.25H17C17.4142 14.25 17.75 14.5858 17.75 15C17.75 15.4142 17.4142 15.75 17 15.75H15C14.5858 15.75 14.25 15.4142 14.25 15Z" fill="#4E5964"/>
</svg>
