<svg width="24" height="24" viewBox="0 0 24 24" fill="none" xmlns="http://www.w3.org/2000/svg">
<path d="M11.9121 10.9412C12.5605 10.9413 13.0996 11.406 13.2168 12.0203H14.9629C15.1214 12.0203 15.2713 12.0576 15.4053 12.1219V16.8875C14.7849 16.9781 14.2749 17.0913 13.9014 17.2381C13.4899 17.3999 13.3616 17.5538 13.3301 17.6317C13.3125 17.6757 13.2702 17.841 13.542 18.2342C13.8122 18.6249 14.3272 19.1356 15.1807 19.7869C15.3982 19.9531 15.5373 20.2228 15.5283 20.5154C15.5133 20.988 15.1261 21.3638 14.6533 21.3641H6.13477C5.65418 21.3638 5.26465 20.9736 5.26465 20.493C5.2648 20.2059 5.40634 19.9491 5.61816 19.7899C7.0036 18.7484 7.43797 17.4287 7.17188 16.3826C6.90842 15.3491 5.90246 14.3627 3.93457 14.1102C3.42552 14.0447 3.00025 13.6166 3 13.0623C3.00031 12.4873 3.46696 12.0204 4.04199 12.0203H7.56836C7.68577 11.4061 8.2256 10.9412 8.87402 10.9412H11.9121Z" fill="#4E5964"/>
<path d="M20.0117 12.9324C20.4085 12.9328 20.7526 13.152 20.9111 13.4871C21.0744 13.8332 21.0145 14.2551 20.7158 14.5565C19.9578 15.3207 18.4792 16.4843 16.3164 16.7498V12.9324H20.0117Z" fill="#4E5964"/>
<path d="M14.5527 9.7547C14.8603 9.53615 15.287 9.60757 15.5059 9.91486C15.7247 10.2225 15.6524 10.6501 15.3447 10.869L14.7041 11.325C14.3966 11.5435 13.9698 11.4711 13.751 11.1639C13.5325 10.8564 13.6041 10.4297 13.9111 10.2108L14.5527 9.7547Z" fill="#4E5964"/>
<path d="M14.665 1.96954C15.6182 1.76398 16.3569 2.76587 15.918 3.60529L15.8721 3.68536L15.3105 4.5838L15.3115 4.58478L14.3086 6.29474L20.208 9.70197C20.535 9.89075 20.6477 10.3096 20.459 10.6365C20.2702 10.9631 19.8522 11.0749 19.5254 10.8865L13.623 7.47833C13.6206 7.47693 13.6176 7.47585 13.6152 7.47443L12.9844 8.55255C12.5416 9.30709 11.5733 9.56398 10.8145 9.12872L10.3936 8.88654L10.2539 8.79767C9.59397 8.32292 9.3906 7.4138 9.81055 6.69708L11.9287 3.08868C12.1545 2.70392 12.5307 2.43007 12.9668 2.33575L14.665 1.96954Z" fill="#4E5964"/>
<path d="M5.72363 9.01544C5.93629 8.70345 6.36184 8.62212 6.67383 8.83478L7.31348 9.2713C7.62547 9.48396 7.70582 9.90951 7.49316 10.2215C7.28047 10.5333 6.8549 10.6138 6.54297 10.4012L5.90332 9.96466C5.59161 9.752 5.51123 9.32733 5.72363 9.01544Z" fill="#4E5964"/>
</svg>
