<svg width="24" height="24" viewBox="0 0 24 24" fill="none" xmlns="http://www.w3.org/2000/svg">
<path fill-rule="evenodd" clip-rule="evenodd" d="M9.59375 14.5557C11.4687 13.4198 11.4688 10.5802 9.59375 9.44432L6.21875 7.39977C4.34375 6.26391 2 7.68373 2 9.95545V14.0445C2 16.3163 4.34375 17.7361 6.21875 16.6002L9.59375 14.5557ZM20.5938 14.5557C22.4688 13.4198 22.4688 10.5802 20.5938 9.44432L17.2188 7.39977C15.3438 6.26391 13 7.68373 13 9.95545V14.0445C13 16.3163 15.3437 17.7361 17.2187 16.6002L20.5938 14.5557Z" fill="#00A881"/>
<path d="M9.59375 9.44432L9.20515 10.0858L9.59375 9.44432ZM9.59375 14.5557L9.98235 15.1972L9.59375 14.5557ZM6.21875 7.39977L6.60735 6.75829V6.75829L6.21875 7.39977ZM6.21875 16.6002L5.83015 15.9588L6.21875 16.6002ZM20.5938 9.44432L20.2052 10.0858L20.5938 9.44432ZM20.5938 14.5557L20.9823 15.1972L20.5938 14.5557ZM17.2188 7.39977L17.6074 6.75829V6.75829L17.2188 7.39977ZM17.2187 16.6002L16.8301 15.9588L17.2187 16.6002ZM9.20515 10.0858C10.5983 10.9297 10.5983 13.0703 9.20515 13.9142L9.98235 15.1972C12.3392 13.7694 12.3392 10.2306 9.98235 8.80284L9.20515 10.0858ZM5.83015 8.04124L9.20515 10.0858L9.98235 8.80284L6.60735 6.75829L5.83015 8.04124ZM2.75 9.95545C2.75 8.20318 4.50955 7.24123 5.83015 8.04124L6.60735 6.75829C4.17795 5.28658 1.25 7.16428 1.25 9.95545H2.75ZM2.75 14.0445V9.95545H1.25V14.0445H2.75ZM5.83015 15.9588C4.50955 16.7588 2.75 15.7968 2.75 14.0445H1.25C1.25 16.8357 4.17795 18.7134 6.60735 17.2417L5.83015 15.9588ZM9.20515 13.9142L5.83015 15.9588L6.60735 17.2417L9.98235 15.1972L9.20515 13.9142ZM20.2052 10.0858C21.5983 10.9297 21.5983 13.0703 20.2052 13.9142L20.9823 15.1972C23.3392 13.7694 23.3392 10.2306 20.9823 8.80284L20.2052 10.0858ZM16.8301 8.04124L20.2052 10.0858L20.9823 8.80284L17.6074 6.75829L16.8301 8.04124ZM13.75 9.95545C13.75 8.20318 15.5096 7.24123 16.8301 8.04124L17.6074 6.75829C15.1779 5.28658 12.25 7.16428 12.25 9.95545H13.75ZM13.75 14.0445V9.95545H12.25V14.0445H13.75ZM16.8301 15.9588C15.5095 16.7588 13.75 15.7968 13.75 14.0445H12.25C12.25 16.8357 15.1779 18.7134 17.6073 17.2417L16.8301 15.9588ZM20.2052 13.9142L16.8301 15.9588L17.6073 17.2417L20.9823 15.1972L20.2052 13.9142Z" fill="#00A881"/>
</svg>
