<svg width="24" height="24" viewBox="0 0 24 24" fill="none" xmlns="http://www.w3.org/2000/svg">
<path fill-rule="evenodd" clip-rule="evenodd" d="M12 12C12 11.0061 11.5313 10.0122 10.5938 9.44432L7.21875 7.39977C5.34375 6.26391 3 7.68373 3 9.95545V14.0445C3 16.3163 5.34375 17.7361 7.21875 16.6002L10.5937 14.5557C11.5312 13.9878 12 12.9939 12 12ZM12 12V9.95545C12 7.68373 14.3438 6.26391 16.2187 7.39977L19.5938 9.44432C21.4688 10.5802 21.4688 13.4198 19.5938 14.5557L16.2187 16.6002C14.3437 17.7361 12 16.3163 12 14.0445V12Z" fill="#4E5964"/>
<path d="M10.5938 9.44432L10.2052 10.0858L10.2052 10.0858L10.5938 9.44432ZM7.21875 7.39977L7.60735 6.75829L7.21875 7.39977ZM7.21875 16.6002L6.83015 15.9588L7.21875 16.6002ZM10.5937 14.5557L10.9823 15.1972L10.5937 14.5557ZM16.2187 7.39977L15.8301 8.04124L16.2187 7.39977ZM19.5938 9.44432L19.2052 10.0858L19.5938 9.44432ZM19.5938 14.5557L19.9823 15.1972L19.5938 14.5557ZM16.2187 16.6002L15.8301 15.9588L16.2187 16.6002ZM10.2052 10.0858C10.8923 10.5021 11.25 11.2366 11.25 12H12.75C12.75 10.7756 12.1702 9.5224 10.9824 8.80284L10.2052 10.0858ZM6.83015 8.04124L10.2052 10.0858L10.9824 8.80284L7.60735 6.75829L6.83015 8.04124ZM3.75 9.95545C3.75 8.20318 5.50955 7.24123 6.83015 8.04124L7.60735 6.75829C5.17795 5.28658 2.25 7.16428 2.25 9.95545H3.75ZM3.75 14.0445V9.95545H2.25V14.0445H3.75ZM6.83015 15.9588C5.50955 16.7588 3.75 15.7968 3.75 14.0445H2.25C2.25 16.8357 5.17795 18.7134 7.60735 17.2417L6.83015 15.9588ZM10.2051 13.9142L6.83015 15.9588L7.60735 17.2417L10.9823 15.1972L10.2051 13.9142ZM11.25 12C11.25 12.7634 10.8923 13.4979 10.2051 13.9142L10.9823 15.1972C12.1702 14.4776 12.75 13.2244 12.75 12H11.25ZM12.75 12V9.95545H11.25V12H12.75ZM12.75 9.95545C12.75 8.20318 14.5096 7.24124 15.8301 8.04124L16.6073 6.75829C14.1779 5.28658 11.25 7.16428 11.25 9.95545H12.75ZM15.8301 8.04124L19.2052 10.0858L19.9823 8.80284L16.6073 6.75829L15.8301 8.04124ZM19.2052 10.0858C20.5983 10.9297 20.5983 13.0703 19.2052 13.9142L19.9823 15.1972C22.3392 13.7694 22.3392 10.2306 19.9823 8.80284L19.2052 10.0858ZM19.2052 13.9142L15.8301 15.9588L16.6073 17.2417L19.9823 15.1972L19.2052 13.9142ZM15.8301 15.9588C14.5096 16.7588 12.75 15.7968 12.75 14.0445H11.25C11.25 16.8357 14.1779 18.7134 16.6073 17.2417L15.8301 15.9588ZM12.75 14.0445V12H11.25V14.0445H12.75Z" fill="#4E5964"/>
</svg>
