<svg width="24" height="24" viewBox="0 0 24 24" fill="none" xmlns="http://www.w3.org/2000/svg">
<path fill-rule="evenodd" clip-rule="evenodd" d="M12 2.25C6.61522 2.25 2.25 6.61522 2.25 12C2.25 17.3848 6.61522 21.75 12 21.75C17.3848 21.75 21.75 17.3848 21.75 12C21.75 6.61522 17.3848 2.25 12 2.25ZM15.8232 10.7626L13.2374 8.17678C12.554 7.49336 11.446 7.49336 10.7626 8.17678L8.17678 10.7626C7.49336 11.446 7.49336 12.554 8.17678 13.2374L10.7626 15.8232C11.446 16.5066 12.554 16.5066 13.2374 15.8232L15.8232 13.2374C16.5066 12.554 16.5066 11.446 15.8232 10.7626ZM9.23744 11.8232L11.8232 9.23744C11.9209 9.13981 12.0791 9.13981 12.1768 9.23744L14.7626 11.8232C14.8602 11.9209 14.8602 12.0791 14.7626 12.1768L12.1768 14.7626C12.0791 14.8602 11.9209 14.8602 11.8232 14.7626L9.23744 12.1768C9.13981 12.0791 9.13981 11.9209 9.23744 11.8232Z" fill="#4E5964"/>
</svg>
