<svg width="24" height="24" viewBox="0 0 24 24" fill="none" xmlns="http://www.w3.org/2000/svg">
<path fill-rule="evenodd" clip-rule="evenodd" d="M8.9997 2.25C6.37634 2.25 4.2497 4.37665 4.2497 7V17.0376C4.185 17.1144 4.1356 17.198 4.10045 17.2854C3.04841 17.4739 2.25 18.3937 2.25 19.5C2.25 20.7426 3.25736 21.75 4.5 21.75H17.8345C19.4492 21.75 20.8982 20.7587 21.4835 19.2538C21.6594 18.8014 21.7497 18.3202 21.7497 17.8348V7C21.7497 4.37665 19.623 2.25 16.9997 2.25H8.9997ZM15.5 20.25C15.9142 20.25 16.25 19.9142 16.25 19.5C16.25 19.0858 15.9142 18.75 15.5 18.75H4.5C4.08579 18.75 3.75 19.0858 3.75 19.5C3.75 19.9142 4.08579 20.25 4.5 20.25H15.5ZM8 6.25C8 5.83579 8.33579 5.5 8.75 5.5H15.25C15.6642 5.5 16 5.83579 16 6.25C16 6.66421 15.6642 7 15.25 7H8.75C8.33579 7 8 6.66421 8 6.25ZM8 9.25C8 8.83579 8.33579 8.5 8.75 8.5H13.25C13.6642 8.5 14 8.83579 14 9.25C14 9.66421 13.6642 10 13.25 10H8.75C8.33579 10 8 9.66421 8 9.25ZM8 12.25C8 11.8358 8.33579 11.5 8.75 11.5H10.25C10.6642 11.5 11 11.8358 11 12.25C11 12.6642 10.6642 13 10.25 13H8.75C8.33579 13 8 12.6642 8 12.25Z" fill="#4E5964"/>
</svg>
