<svg width="24" height="24" viewBox="0 0 24 24" fill="none" xmlns="http://www.w3.org/2000/svg">
<path fill-rule="evenodd" clip-rule="evenodd" d="M8.9997 2.25C6.37634 2.25 4.2497 4.37665 4.2497 7V17.0376C4.185 17.1144 4.1356 17.198 4.10045 17.2854C3.04841 17.4739 2.25 18.3937 2.25 19.5C2.25 20.7426 3.25736 21.75 4.5 21.75H17.8345C19.4492 21.75 20.8982 20.7587 21.4835 19.2538C21.6594 18.8014 21.7497 18.3202 21.7497 17.8348V7C21.7497 4.37665 19.623 2.25 16.9997 2.25H8.9997ZM15.5 20.25C15.9142 20.25 16.25 19.9142 16.25 19.5C16.25 19.0858 15.9142 18.75 15.5 18.75H4.5C4.08579 18.75 3.75 19.0858 3.75 19.5C3.75 19.9142 4.08579 20.25 4.5 20.25H15.5ZM15.1935 8.67412L15.2501 12.0127C15.2571 12.4269 15.5986 12.7569 16.0127 12.7499C16.4269 12.7429 16.7569 12.4014 16.7499 11.9873L16.6799 7.85866C16.6648 6.96901 15.9413 6.23422 15.0329 6.25025L10.9868 6.32167C10.5726 6.32898 10.2428 6.67064 10.2501 7.08479C10.2574 7.49894 10.5991 7.82875 11.0132 7.82144L13.9889 7.76891L9.44602 12.7466C9.1668 13.0526 9.18847 13.5269 9.49442 13.8062C9.80037 14.0854 10.2748 14.0637 10.554 13.7578L15.1935 8.67412Z" fill="#4E5964"/>
</svg>
