<svg width="24" height="24" viewBox="0 0 24 24" fill="none" xmlns="http://www.w3.org/2000/svg">
<path fill-rule="evenodd" clip-rule="evenodd" d="M8.9997 2.25C6.37634 2.25 4.2497 4.37665 4.2497 7V17.0376C4.185 17.1144 4.1356 17.198 4.10045 17.2854C3.04841 17.4739 2.25 18.3937 2.25 19.5C2.25 20.7426 3.25736 21.75 4.5 21.75H17.8345C19.4492 21.75 20.8982 20.7587 21.4835 19.2538C21.6594 18.8014 21.7497 18.3202 21.7497 17.8348V7C21.7497 4.37665 19.623 2.25 16.9997 2.25H8.9997ZM15.5 20.25C15.9142 20.25 16.25 19.9142 16.25 19.5C16.25 19.0858 15.9142 18.75 15.5 18.75H4.5C4.08579 18.75 3.75 19.0858 3.75 19.5C3.75 19.9142 4.08579 20.25 4.5 20.25H15.5ZM8.9997 7.25C8.9997 6.83579 9.33548 6.5 9.7497 6.5H16.2497C16.6639 6.5 16.9997 6.83579 16.9997 7.25C16.9997 7.66421 16.6639 8 16.2497 8H9.7497C9.33548 8 8.9997 7.66421 8.9997 7.25ZM8.9997 10.25C8.9997 9.83579 9.33548 9.5 9.7497 9.5H14.2497C14.6639 9.5 14.9997 9.83579 14.9997 10.25C14.9997 10.6642 14.6639 11 14.2497 11H9.7497C9.33548 11 8.9997 10.6642 8.9997 10.25ZM8.9997 13.25C8.9997 12.8358 9.33548 12.5 9.7497 12.5H11.2497C11.6639 12.5 11.9997 12.8358 11.9997 13.25C11.9997 13.6642 11.6639 14 11.2497 14H9.7497C9.33548 14 8.9997 13.6642 8.9997 13.25Z" fill="#4E5964"/>
</svg>
