<svg width="24" height="24" viewBox="0 0 24 24" fill="none" xmlns="http://www.w3.org/2000/svg">
<path fill-rule="evenodd" clip-rule="evenodd" d="M7.50012 2C4.46256 2 2.00012 4.46243 2.00012 7.5V15.6141C2.52198 15.4493 3.09404 15.3434 3.68438 15.2935C4.92142 15.1889 6.31946 15.3228 7.67584 15.7468C8.17592 15.9032 8.67278 16.1001 9.15513 16.3404C10.2289 15.1196 12.4252 13.7517 14.9359 13.3332C17.2098 12.9542 19.7739 13.352 22.0001 15.337V7.5C22.0001 4.46243 19.5377 2 16.5001 2H7.50012ZM21.9244 17.415L21.9222 17.4167C19.867 14.9325 17.3867 14.4454 15.1825 14.8128C13.1384 15.1536 11.3679 16.2272 10.4659 17.1342C11.9473 18.2129 13.1507 19.8007 13.6607 22H16.5001C19.226 22 21.4887 20.017 21.9244 17.415ZM12.1125 22C11.371 19.3614 9.38816 17.8538 7.22824 17.1785C6.05888 16.8129 4.85582 16.6998 3.8107 16.7881C3.10404 16.8479 2.504 16.9963 2.04373 17.1959C2.38577 19.9049 4.69828 22 7.50012 22H12.1125ZM15.5001 7.75C15.0859 7.75 14.7501 8.08579 14.7501 8.5C14.7501 8.91421 15.0859 9.25 15.5001 9.25C15.9143 9.25 16.2501 8.91421 16.2501 8.5C16.2501 8.08579 15.9143 7.75 15.5001 7.75ZM13.2501 8.5C13.2501 7.25736 14.2575 6.25 15.5001 6.25C16.7428 6.25 17.7501 7.25736 17.7501 8.5C17.7501 9.74264 16.7428 10.75 15.5001 10.75C14.2575 10.75 13.2501 9.74264 13.2501 8.5Z" fill="#4E5964"/>
</svg>
