<svg width="24" height="24" viewBox="0 0 24 24" fill="none" xmlns="http://www.w3.org/2000/svg">
<path fill-rule="evenodd" clip-rule="evenodd" d="M13.2499 8.5C13.2499 7.25736 14.2573 6.25 15.4999 6.25C16.7426 6.25 17.7499 7.25736 17.7499 8.5C17.7499 9.74264 16.7426 10.75 15.4999 10.75C14.2573 10.75 13.2499 9.74264 13.2499 8.5ZM7.95 2.25C4.80198 2.25 2.25 4.80198 2.25 7.95V16.0392L2.69434 15.8191L2.72263 15.8078C4.04509 15.2814 6.41458 14.9885 8.63097 15.5683C9.01153 15.6678 9.38959 15.7939 9.75839 15.9498C10.2517 15.5202 10.8953 15.1316 11.6131 14.8152C12.6023 14.3793 13.7913 14.0541 15.0539 13.9522C17.2653 13.7739 19.753 14.2822 21.7494 16.1363C21.7498 16.1076 21.75 16.0788 21.75 16.05V7.95C21.75 4.80198 19.198 2.25 16.05 2.25H7.95ZM21.4177 17.9724C19.701 15.8658 17.3456 15.2723 15.1745 15.4474C14.0859 15.5352 13.0602 15.8167 12.2181 16.1878C11.8163 16.3649 11.4687 16.5568 11.1813 16.7492C12.3692 17.6156 13.3212 18.9192 13.7257 20.8071C13.8021 21.0515 13.865 21.3811 13.875 21.75H16.05C18.5234 21.75 20.6289 20.1746 21.4177 17.9724ZM12.3741 21.75C12.3643 21.5311 12.3247 21.346 12.2885 21.2374L12.2748 21.1963L12.2659 21.1539C11.7491 18.6852 10.103 17.5038 8.25139 17.0195C6.36661 16.5265 4.34325 16.7867 3.3044 17.1908L2.46514 17.6066C3.1425 19.998 5.34165 21.75 7.95 21.75H12.3741Z" fill="#4E5964"/>
</svg>
