<svg width="24" height="24" viewBox="0 0 24 24" fill="none" xmlns="http://www.w3.org/2000/svg">
<path fill-rule="evenodd" clip-rule="evenodd" d="M11.9993 2.25C14.222 2.25 16.0538 3.91734 16.3157 6.06934C19.1527 5.35246 22.3425 7.72159 21.6585 11.1055L20.4837 16.916C19.9141 19.7321 17.4173 21.7499 14.5286 21.75H9.43974C6.40879 21.7499 3.80805 19.5882 3.29326 16.6182L2.31962 11.001C1.9416 8.81902 3.1507 7.07902 4.78935 6.30371C5.67204 5.88632 6.70027 5.74053 7.69951 5.94238C8.01647 3.85222 9.82073 2.25034 11.9993 2.25ZM16.2942 15.7051C15.856 15.2675 15.1446 15.264 14.7044 15.7051C14.2659 16.1438 14.266 16.857 14.7044 17.2959C15.1431 17.7343 15.8554 17.7341 16.2942 17.2959C16.7331 16.857 16.7331 16.144 16.2942 15.7051ZM7.99931 11.75C7.58533 11.7502 7.2494 12.086 7.24931 12.5V13.75H5.99931C5.58533 13.7502 5.2494 14.086 5.24931 14.5C5.24931 14.9141 5.58528 15.2498 5.99931 15.25H7.24931V16.5C7.24931 16.9141 7.58528 17.2498 7.99931 17.25C8.41352 17.25 8.74931 16.9142 8.74931 16.5V15.25H9.99931C10.4135 15.25 10.7493 14.9142 10.7493 14.5C10.7492 14.0859 10.4135 13.75 9.99931 13.75H8.74931V12.5C8.74923 12.0859 8.41347 11.75 7.99931 11.75ZM14.2942 13.7051C13.856 13.2675 13.1446 13.264 12.7044 13.7051C12.2659 14.1438 12.266 14.857 12.7044 15.2959C13.1431 15.7343 13.8554 15.7341 14.2942 15.2959C14.7331 14.857 14.7331 14.144 14.2942 13.7051ZM18.2942 13.7051C17.8559 13.2675 17.1446 13.264 16.7044 13.7051C16.2659 14.1438 16.266 14.857 16.7044 15.2959C17.1431 15.7343 17.8554 15.7341 18.2942 15.2959C18.7331 14.857 18.7331 14.144 18.2942 13.7051ZM16.2942 11.7051C15.856 11.2675 15.1446 11.264 14.7044 11.7051C14.2659 12.1438 14.266 12.857 14.7044 13.2959C15.1431 13.7343 15.8554 13.7341 16.2942 13.2959C16.7331 12.857 16.7331 12.144 16.2942 11.7051ZM11.9993 3.75C10.4542 3.75037 9.19877 4.98038 9.15361 6.51465C9.4792 6.716 9.79028 6.96581 10.0794 7.26758C11.2096 8.44747 13.1264 8.45894 14.2435 7.29297C14.4366 7.09143 14.6397 6.91402 14.8499 6.75977V6.59961C14.8497 5.02578 13.5732 3.75 11.9993 3.75Z" fill="#4E5964"/>
</svg>
