<svg width="24" height="24" viewBox="0 0 24 24" fill="none" xmlns="http://www.w3.org/2000/svg">
<path fill-rule="evenodd" clip-rule="evenodd" d="M11.6833 2.59713C11.3186 2.40074 10.8638 2.53717 10.6674 2.90186C10.471 3.26655 10.6074 3.72141 10.9721 3.9178L11.0799 3.97579C11.3934 4.1444 11.5875 4.24883 11.7305 4.34549C11.8657 4.43699 11.8818 4.47484 11.8839 4.47988C11.8934 4.49953 11.9233 4.5763 11.9258 4.83267C11.927 4.95058 11.9228 5.08683 11.9144 5.25028H8.5C5.04822 5.25028 2.25 8.0485 2.25 11.5003V18.2391C2.25 19.6521 3.16827 20.9011 4.51693 21.3226C5.57871 21.6544 6.73313 21.2608 7.37106 20.3495L9.51727 17.2835C9.75118 16.9493 10.1334 16.7503 10.5413 16.7503H13.4587C13.8666 16.7503 14.2488 16.9493 14.4827 17.2835L16.4867 20.1463C17.2093 21.1786 18.517 21.6245 19.7198 21.2486C20.9276 20.8712 21.75 19.7526 21.75 18.4872V11.5003C21.75 8.0485 18.9518 5.25028 15.5 5.25028H13.4161C13.4233 5.09292 13.4271 4.94875 13.4258 4.81777C13.4225 4.48711 13.3884 4.14737 13.2361 3.8305C13.0756 3.49662 12.8278 3.27681 12.5708 3.103C12.3601 2.96045 12.0912 2.81612 11.8006 2.66018L11.6833 2.59713ZM13.4161 5.25028H11.9144C11.9045 5.44301 11.8887 5.67355 11.8693 5.95641C11.8408 6.36964 12.1527 6.72771 12.566 6.75616C12.9792 6.78462 13.3373 6.4727 13.3657 6.05946L13.3678 6.0295C13.3876 5.74131 13.4055 5.48154 13.4161 5.25028ZM8 8.25052C8.41421 8.25052 8.75 8.5863 8.75 9.00052V10.2505H10C10.4142 10.2505 10.75 10.5863 10.75 11.0005C10.75 11.4147 10.4142 11.7505 10 11.7505H8.75V13.0005C8.75 13.4147 8.41421 13.7505 8 13.7505C7.58579 13.7505 7.25 13.4147 7.25 13.0005V11.7505H6C5.58579 11.7505 5.25 11.4147 5.25 11.0005C5.25 10.5863 5.58579 10.2505 6 10.2505H7.25V9.00052C7.25 8.5863 7.58579 8.25052 8 8.25052ZM18.2896 10.7111C17.8541 10.2757 17.1467 10.2728 16.7095 10.712C16.2747 11.1478 16.275 11.8548 16.7104 12.2902C17.1461 12.7259 17.8539 12.7259 18.2896 12.2902C18.7253 11.8545 18.7253 11.1468 18.2896 10.7111ZM12.7095 10.712C13.1467 10.2728 13.8541 10.2757 14.2896 10.7111C14.7253 11.1468 14.7253 11.8545 14.2896 12.2902C13.8539 12.7259 13.1461 12.7259 12.7104 12.2902C12.275 11.8548 12.2747 11.1478 12.7095 10.712ZM16.2896 8.71109C15.8541 8.27567 15.1467 8.27279 14.7095 8.71199C14.2747 9.14777 14.275 9.85481 14.7104 10.2902C15.1461 10.7259 15.8539 10.7259 16.2896 10.2902C16.7253 9.85451 16.7253 9.1468 16.2896 8.71109ZM14.7095 12.712C15.1467 12.2728 15.8541 12.2757 16.2896 12.7111C16.7253 13.1468 16.7253 13.8545 16.2896 14.2902C15.8539 14.7259 15.1461 14.7259 14.7104 14.2902C14.275 13.8548 14.2747 13.1478 14.7095 12.712Z" fill="#4E5964"/>
</svg>
