<svg width="24" height="24" viewBox="0 0 24 24" fill="none" xmlns="http://www.w3.org/2000/svg">
<path fill-rule="evenodd" clip-rule="evenodd" d="M4.25 9.56872C4.25 5.48249 7.76544 2.25 12 2.25C16.2346 2.25 19.75 5.48249 19.75 9.56872V19.6326C19.75 20.2292 19.3563 20.6464 18.9271 20.8113C18.505 20.9735 17.9593 20.9315 17.5508 20.5553C16.8424 19.9029 16.3634 19.7283 16.0519 19.7054C15.7522 19.6834 15.4649 19.7908 15.0998 20.0472C14.9153 20.1768 14.731 20.33 14.5223 20.5064L14.4698 20.5508C14.2826 20.7092 14.0739 20.8859 13.8576 21.0462C13.3834 21.3977 12.7718 21.75 12 21.75C11.2282 21.75 10.6166 21.3977 10.1424 21.0462C9.92606 20.8859 9.71738 20.7092 9.53019 20.5508L9.47768 20.5064C9.26897 20.33 9.08466 20.1768 8.90018 20.0472C8.53511 19.7908 8.2478 19.6834 7.94812 19.7054C7.63661 19.7283 7.15762 19.9029 6.44915 20.5553C6.04065 20.9315 5.49502 20.9735 5.07295 20.8113C4.64375 20.6464 4.25 20.2292 4.25 19.6326V9.56872ZM14 7.25C14.4142 7.25 14.75 7.58579 14.75 8V9.5C14.75 9.91421 14.4142 10.25 14 10.25C13.5858 10.25 13.25 9.91421 13.25 9.5V8C13.25 7.58579 13.5858 7.25 14 7.25ZM10.75 8C10.75 7.58579 10.4142 7.25 10 7.25C9.58579 7.25 9.25 7.58579 9.25 8V9.5C9.25 9.91421 9.58579 10.25 10 10.25C10.4142 10.25 10.75 9.91421 10.75 9.5V8Z" fill="#4E5964"/>
</svg>
