<svg width="25" height="25" viewBox="0 0 25 25" fill="none" xmlns="http://www.w3.org/2000/svg">
<path d="M2.01007 11.2998C2.08965 10.1516 2.36354 9.05669 2.79916 8.04763L7.78125 8.04761C7.67134 9.12631 7.6066 10.2124 7.58702 11.2998L2.01007 11.2998Z" fill="#4E5964"/>
<path d="M7.94926 6.65226L3.53797 6.65228C4.74359 4.75532 6.57175 3.29098 8.73587 2.54528L8.53182 3.47429C8.29245 4.51956 8.09827 5.58091 7.94926 6.65226Z" fill="#4E5964"/>
<path d="M8.98593 11.2998C9.00623 10.2121 9.0734 9.12578 9.18741 8.0476L14.8309 8.04757C14.9449 9.12575 15.012 10.212 15.0323 11.2997L8.98593 11.2998Z" fill="#4E5964"/>
<path d="M9.36185 6.65225L14.6564 6.65223C14.5167 5.6849 14.3386 4.72655 14.1222 3.78211L14.1208 3.77601L13.7642 2.15242C13.1939 2.05196 12.6069 1.99963 12.0076 1.99976C11.4093 1.99989 10.8234 2.0523 10.254 2.15265L9.89741 3.776L9.89604 3.78211C9.67968 4.72656 9.50162 5.68491 9.36185 6.65225Z" fill="#4E5964"/>
<path d="M16.4313 11.2997C16.4117 10.2123 16.3469 9.12626 16.237 8.04757L21.2203 8.04755C21.6559 9.05657 21.9298 10.1514 22.0094 11.2997L16.4313 11.2997Z" fill="#4E5964"/>
<path d="M16.069 6.65222L20.4815 6.6522C19.2756 4.75483 17.4469 3.29034 15.2823 2.54482L15.4865 3.47429C15.7258 4.51955 15.92 5.58088 16.069 6.65222Z" fill="#4E5964"/>
<path d="M3.5396 17.3498C4.75831 19.2661 6.61239 20.7405 8.80614 21.4781L8.53929 20.5664C8.53538 20.553 8.53188 20.5396 8.52878 20.526C8.28993 19.4813 8.09622 18.4206 7.94763 17.3499L3.5396 17.3498Z" fill="#4E5964"/>
<path d="M2.80027 15.9545C2.36344 14.9434 2.08901 13.846 2.00977 12.6952L7.58668 12.6951C7.60577 13.7849 7.67023 14.8734 7.78005 15.9545L2.80027 15.9545Z" fill="#4E5964"/>
<path d="M9.36016 17.3499C9.49841 18.3088 9.67429 19.2589 9.88781 20.1955L10.3509 21.7778C10.3596 21.8074 10.3662 21.8371 10.3708 21.8667C10.9048 21.9544 11.4531 21.9999 12.012 21.9998C12.5689 21.9996 13.1152 21.9542 13.6474 21.867C13.6521 21.8372 13.6587 21.8075 13.6674 21.7778L14.1305 20.1955C14.344 19.259 14.5199 18.3089 14.6581 17.35L9.36016 17.3499Z" fill="#4E5964"/>
<path d="M14.8321 15.9546L9.18616 15.9545C9.07224 14.874 9.00538 13.7852 8.98558 12.6951L15.0327 12.6951C15.0129 13.7852 14.946 14.874 14.8321 15.9546Z" fill="#4E5964"/>
<path d="M16.0706 17.35C15.922 18.4207 15.7283 19.4813 15.4895 20.526C15.4864 20.5396 15.4829 20.553 15.479 20.5664L15.212 21.4786C17.4063 20.7411 19.2608 19.2665 20.4798 17.3501L16.0706 17.35Z" fill="#4E5964"/>
<path d="M21.2191 15.9547L16.2382 15.9546C16.348 14.8735 16.4125 13.7849 16.4316 12.6951L22.0098 12.695C21.9305 13.846 21.6561 14.9435 21.2191 15.9547Z" fill="#4E5964"/>
</svg>
