<svg width="24" height="24" viewBox="0 0 24 24" fill="none" xmlns="http://www.w3.org/2000/svg">
<path d="M2.00226 11.0244C2.08184 9.8762 2.35572 8.7813 2.79135 7.77224L7.77344 7.77222C7.66353 8.85092 7.59878 9.937 7.5792 11.0244L2.00226 11.0244Z" fill="#4E5964"/>
<path d="M7.94145 6.37686L3.53016 6.37688C4.73578 4.47993 6.56394 3.01559 8.72806 2.26989L8.524 3.19889C8.28464 4.24417 8.09046 5.30552 7.94145 6.37686Z" fill="#4E5964"/>
<path d="M8.97812 11.0244C8.99842 9.93666 9.06558 8.85039 9.1796 7.77221L14.823 7.77218C14.9371 8.85036 15.0042 9.93663 15.0245 11.0243L8.97812 11.0244Z" fill="#4E5964"/>
<path d="M9.35404 6.37686L14.6486 6.37683C14.5088 5.40951 14.3308 4.45116 14.1144 3.50672L14.113 3.50062L13.7564 1.87703C13.1861 1.77657 12.599 1.72423 11.9998 1.72437C11.4015 1.7245 10.8155 1.7769 10.2462 1.87726L9.8896 3.50061L9.88823 3.50672C9.67187 4.45117 9.4938 5.40952 9.35404 6.37686Z" fill="#4E5964"/>
<path d="M16.4234 11.0243C16.4039 9.93695 16.3391 8.85087 16.2292 7.77218L21.2125 7.77215C21.6481 8.78118 21.922 9.87605 22.0016 11.0243L16.4234 11.0243Z" fill="#4E5964"/>
<path d="M16.0612 6.37683L20.4737 6.37681C19.2678 4.47944 17.4391 3.01495 15.2745 2.26942L15.4786 3.19889C15.718 4.24416 15.9122 5.30549 16.0612 6.37683Z" fill="#4E5964"/>
<path d="M3.53179 17.0744C4.7505 18.9907 6.60458 20.4651 8.79832 21.2028L8.53148 20.291C8.52757 20.2776 8.52406 20.2642 8.52096 20.2506C8.28212 19.2059 8.08841 18.1452 7.93982 17.0745L3.53179 17.0744Z" fill="#4E5964"/>
<path d="M2.79246 15.6791C2.35563 14.668 2.0812 13.5707 2.00195 12.4198L7.57886 12.4197C7.59796 13.5095 7.66241 14.598 7.77224 15.6791L2.79246 15.6791Z" fill="#4E5964"/>
<path d="M9.35235 17.0745C9.49059 18.0334 9.66648 18.9836 9.88 19.9201L10.3431 21.5024C10.3518 21.532 10.3584 21.5617 10.363 21.5914C10.897 21.679 11.4452 21.7245 12.0041 21.7244C12.5611 21.7242 13.1074 21.6788 13.6396 21.5916C13.6443 21.5618 13.6509 21.5321 13.6596 21.5024L14.1226 19.9201C14.3362 18.9836 14.512 18.0335 14.6503 17.0746L9.35235 17.0745Z" fill="#4E5964"/>
<path d="M14.8243 15.6792L9.17835 15.6792C9.06442 14.5986 8.99756 13.5099 8.97776 12.4197L15.0249 12.4197C15.0051 13.5099 14.9382 14.5986 14.8243 15.6792Z" fill="#4E5964"/>
<path d="M16.0628 17.0746C15.9142 18.1453 15.7205 19.206 15.4817 20.2506C15.4786 20.2642 15.4751 20.2776 15.4712 20.291L15.2042 21.2032C17.3985 20.4657 19.253 18.9911 20.472 17.0747L16.0628 17.0746Z" fill="#4E5964"/>
<path d="M21.2113 15.6793L16.2304 15.6793C16.3402 14.5981 16.4047 13.5095 16.4238 12.4197L22.002 12.4196C21.9227 13.5706 21.6482 14.6681 21.2113 15.6793Z" fill="#4E5964"/>
</svg>
