<svg width="24" height="24" viewBox="0 0 24 24" fill="none" xmlns="http://www.w3.org/2000/svg">
<path fill-rule="evenodd" clip-rule="evenodd" d="M12 1.99988C12.7873 1.99988 13.5534 2.09086 14.2882 2.26289C14.488 3.24742 14.6566 4.24438 14.7941 5.24988L9.20588 5.24988C9.34339 4.24438 9.51203 3.24742 9.71177 2.26289C10.4466 2.09086 11.2127 1.99988 12 1.99988ZM8.75062 12.2499C8.74153 10.4101 8.83279 8.56928 9.02442 6.74988L14.9756 6.74988C15.1672 8.56929 15.2585 10.4101 15.2494 12.2499H8.75062ZM8.0805 2.79721C7.93091 3.60818 7.80152 4.42639 7.69234 5.24988L4.62174 5.24988C5.5794 4.20366 6.75665 3.36178 8.0805 2.79721ZM7.51638 6.74988L3.48734 6.74988C2.54426 8.2758 2 10.0743 2 11.9999C2 12.0835 2.00103 12.1668 2.00306 12.2499H7.2506C7.24177 10.4106 7.33036 8.57034 7.51638 6.74988ZM20.5127 6.74988L16.4836 6.74988C16.6696 8.57034 16.7582 10.4106 16.7494 12.2499H21.9969C21.999 12.1668 22 12.0835 22 11.9999C22 10.0743 21.4557 8.2758 20.5127 6.74988ZM16.3077 5.24988L19.3783 5.24988C18.4206 4.20366 17.2434 3.36178 15.9195 2.79721C16.0691 3.60818 16.1985 4.42639 16.3077 5.24988ZM2.15261 13.7499H7.27942C7.31882 14.921 7.39781 16.0895 7.51638 17.2499L3.48734 17.2499C2.83665 16.197 2.37581 15.0145 2.15261 13.7499ZM4.62174 18.7499C5.5794 19.7961 6.75665 20.638 8.0805 21.2025C7.93091 20.3916 7.80152 19.5734 7.69234 18.7499H4.62174ZM9.20588 18.7499C9.34339 19.7554 9.51203 20.7523 9.71177 21.7369C10.4466 21.9089 11.2127 21.9999 12 21.9999C12.7873 21.9999 13.5534 21.9089 14.2882 21.7369C14.488 20.7523 14.6566 19.7554 14.7941 18.7499L9.20588 18.7499ZM16.3077 18.7499C16.1985 19.5734 16.0691 20.3916 15.9195 21.2025C17.2434 20.638 18.4206 19.7961 19.3783 18.7499H16.3077ZM20.5127 17.2499L16.4836 17.2499C16.6022 16.0895 16.6812 14.921 16.7206 13.7499H21.8474C21.6242 15.0145 21.1634 16.197 20.5127 17.2499ZM14.9756 17.2499H9.02442C8.90226 16.09 8.82088 14.9214 8.78029 13.7499H15.2197C15.1791 14.9214 15.0977 16.09 14.9756 17.2499Z" fill="#00ABB8"/>
</svg>
