<svg width="24" height="24" viewBox="0 0 24 24" fill="none" xmlns="http://www.w3.org/2000/svg">
<path d="M12.0003 2.88439C12.5057 2.47938 13.1285 2.24999 13.7825 2.25C14.5915 2.25001 15.3528 2.60116 15.9033 3.20159C16.4518 3.79981 16.75 4.59828 16.75 5.41864C16.75 6.23901 16.4518 7.03748 15.9033 7.6357L13.7785 9.95315C13.3188 10.4545 12.6807 10.75 12 10.75C11.3193 10.75 10.6812 10.4545 10.2215 9.95314L8.09669 7.63565C7.5482 7.03743 7.25 6.23896 7.25 5.4186C7.25 4.59823 7.54821 3.79975 8.0967 3.20153C9.15322 2.04928 10.83 1.94357 12.0003 2.88439Z" fill="#4E5964"/>
<path d="M2.25 6.53034C2.25 5.66475 2.65618 4.9093 3.30299 4.51738C3.97896 4.10779 4.85068 4.14908 5.51108 4.78003C5.55752 4.8244 5.62768 4.88092 5.74701 4.9765C5.85368 5.06193 5.99092 5.17203 6.12108 5.29316C6.33582 5.49301 6.75 5.91264 6.75 6.5V9.23842L10.9822 14.5679C11.4863 15.1367 11.75 15.9091 11.75 16.6884V18.8023C11.75 20.2739 10.759 21.75 9.22222 21.75H7.68943C6.57229 21.75 5.9215 20.6944 5.9215 19.7416C5.9215 19.4674 5.78826 19.2638 5.66416 19.1819C5.11886 18.822 4.29047 18.2142 3.59045 17.4332C2.90206 16.6651 2.25 15.6313 2.25 14.4305V6.53034Z" fill="#4E5964"/>
<path d="M21.75 6.53034C21.75 5.66475 21.3438 4.9093 20.697 4.51738C20.021 4.10779 19.1493 4.14908 18.4889 4.78003C18.4425 4.8244 18.3723 4.88092 18.253 4.9765C18.1463 5.06193 18.0091 5.17203 17.8789 5.29316C17.6642 5.49301 17.25 5.91264 17.25 6.5V9.23842L13.0178 14.5679C12.5137 15.1367 12.25 15.9091 12.25 16.6884V18.8023C12.25 20.2739 13.241 21.75 14.7778 21.75H16.3106C17.4277 21.75 18.0785 20.6944 18.0785 19.7416C18.0785 19.4674 18.2117 19.2638 18.3358 19.1819C18.8811 18.822 19.7095 18.2142 20.4095 17.4332C21.0979 16.6651 21.75 15.6313 21.75 14.4305V6.53034Z" fill="#4E5964"/>
</svg>
