<svg width="24" height="24" viewBox="0 0 24 24" fill="none" xmlns="http://www.w3.org/2000/svg">
<path d="M8.55039 6.60088C8.55039 4.6955 10.095 3.15088 12.0004 3.15088C13.9058 3.15088 15.4504 4.6955 15.4504 6.60088C15.4504 8.50626 13.9058 10.0509 12.0004 10.0509C10.095 10.0509 8.55039 8.50626 8.55039 6.60088Z" fill="#4E5964"/>
<path d="M3.15039 7.50088C3.15039 6.09255 4.29206 4.95088 5.70039 4.95088C7.10872 4.95088 8.25039 6.09255 8.25039 7.50088C8.25039 8.9092 7.10872 10.0509 5.70039 10.0509C4.29206 10.0509 3.15039 8.9092 3.15039 7.50088Z" fill="#4E5964"/>
<path d="M20.8504 7.50088C20.8504 6.09255 19.7087 4.95088 18.3004 4.95088C16.8921 4.95088 15.7504 6.09255 15.7504 7.50088C15.7504 8.9092 16.8921 10.0509 18.3004 10.0509C19.7087 10.0509 20.8504 8.9092 20.8504 7.50088Z" fill="#4E5964"/>
<path d="M6.18789 14.5321C6.18789 12.7199 7.65696 11.2509 9.46914 11.2509H14.5316C16.3438 11.2509 17.8129 12.7199 17.8129 14.5321V16.0509C17.8129 18.7018 15.6639 20.8509 13.0129 20.8509H10.9879C8.33692 20.8509 6.18789 18.7018 6.18789 16.0509V14.5321Z" fill="#4E5964"/>
<path d="M5.53125 12.7505C4.54749 12.7505 3.75 13.548 3.75 14.5317V17.4005C3.75 18.4774 4.62304 19.3505 5.7 19.3505H6.15C6.56421 19.3505 6.9 19.6863 6.9 20.1005C6.9 20.5147 6.56421 20.8505 6.15 20.8505H5.7C3.79462 20.8505 2.25 19.3059 2.25 17.4005V14.5317C2.25 12.7196 3.71907 11.2505 5.53125 11.2505C5.94546 11.2505 6.28125 11.5863 6.28125 12.0005C6.28125 12.4147 5.94546 12.7505 5.53125 12.7505Z" fill="#4E5964"/>
<path d="M20.25 14.5317C20.25 13.548 19.4525 12.7505 18.4688 12.7505C18.0545 12.7505 17.7188 12.4147 17.7188 12.0005C17.7188 11.5863 18.0545 11.2505 18.4688 11.2505C20.2809 11.2505 21.75 12.7196 21.75 14.5317V17.4005C21.75 19.3059 20.2054 20.8505 18.3 20.8505H17.85C17.4358 20.8505 17.1 20.5147 17.1 20.1005C17.1 19.6863 17.4358 19.3505 17.85 19.3505H18.3C19.377 19.3505 20.25 18.4774 20.25 17.4005V14.5317Z" fill="#4E5964"/>
</svg>
