<svg width="24" height="24" viewBox="0 0 24 24" fill="none" xmlns="http://www.w3.org/2000/svg">
<g clip-path="url(#clip0_3935_381)">
<path d="M15 6C15 7.65685 13.6569 9 12 9C10.3431 9 9 7.65685 9 6C9 4.34315 10.3431 3 12 3C13.6569 3 15 4.34315 15 6Z" fill="#00A881"/>
<path fill-rule="evenodd" clip-rule="evenodd" d="M12 3.75C10.7574 3.75 9.75 4.75736 9.75 6C9.75 7.24264 10.7574 8.25 12 8.25C13.2426 8.25 14.25 7.24264 14.25 6C14.25 4.75736 13.2426 3.75 12 3.75ZM8.25 6C8.25 3.92893 9.92893 2.25 12 2.25C14.0711 2.25 15.75 3.92893 15.75 6C15.75 8.07107 14.0711 9.75 12 9.75C9.92893 9.75 8.25 8.07107 8.25 6Z" fill="#00A881"/>
<path d="M21 7C21 8.10457 20.1046 9 19 9C17.8954 9 17 8.10457 17 7C17 5.89543 17.8954 5 19 5C20.1046 5 21 5.89543 21 7Z" fill="#00A881"/>
<path fill-rule="evenodd" clip-rule="evenodd" d="M19 5.75C18.3096 5.75 17.75 6.30964 17.75 7C17.75 7.69036 18.3096 8.25 19 8.25C19.6904 8.25 20.25 7.69036 20.25 7C20.25 6.30964 19.6904 5.75 19 5.75ZM16.25 7C16.25 5.48122 17.4812 4.25 19 4.25C20.5188 4.25 21.75 5.48122 21.75 7C21.75 8.51878 20.5188 9.75 19 9.75C17.4812 9.75 16.25 8.51878 16.25 7Z" fill="#00A881"/>
<path d="M7 7C7 8.10457 6.10457 9 5 9C3.89543 9 3 8.10457 3 7C3 5.89543 3.89543 5 5 5C6.10457 5 7 5.89543 7 7Z" fill="#00A881"/>
<path fill-rule="evenodd" clip-rule="evenodd" d="M5 5.75C4.30964 5.75 3.75 6.30964 3.75 7C3.75 7.69036 4.30964 8.25 5 8.25C5.69036 8.25 6.25 7.69036 6.25 7C6.25 6.30964 5.69036 5.75 5 5.75ZM2.25 7C2.25 5.48122 3.48122 4.25 5 4.25C6.51878 4.25 7.75 5.48122 7.75 7C7.75 8.51878 6.51878 9.75 5 9.75C3.48122 9.75 2.25 8.51878 2.25 7Z" fill="#00A881"/>
<path d="M6.375 14.8125C6.375 13.2592 7.6342 12 9.1875 12H14.8125C16.3658 12 17.625 13.2592 17.625 14.8125V16.5C17.625 18.9853 15.6103 21 13.125 21H10.875C8.38972 21 6.375 18.9853 6.375 16.5V14.8125Z" fill="#00A881"/>
<path fill-rule="evenodd" clip-rule="evenodd" d="M9.1875 12.75C8.04841 12.75 7.125 13.6734 7.125 14.8125V16.5C7.125 18.5711 8.80393 20.25 10.875 20.25H13.125C15.1961 20.25 16.875 18.5711 16.875 16.5V14.8125C16.875 13.6734 15.9516 12.75 14.8125 12.75H9.1875ZM5.625 14.8125C5.625 12.845 7.21999 11.25 9.1875 11.25H14.8125C16.78 11.25 18.375 12.845 18.375 14.8125V16.5C18.375 19.3995 16.0245 21.75 13.125 21.75H10.875C7.9755 21.75 5.625 19.3995 5.625 16.5V14.8125Z" fill="#00A881"/>
<path fill-rule="evenodd" clip-rule="evenodd" d="M4.8125 12.75C3.67341 12.75 2.75 13.6734 2.75 14.8125V18C2.75 19.2426 3.75736 20.25 5 20.25H5.5C5.91421 20.25 6.25 20.5858 6.25 21C6.25 21.4142 5.91421 21.75 5.5 21.75H5C2.92893 21.75 1.25 20.0711 1.25 18V14.8125C1.25 12.845 2.84499 11.25 4.8125 11.25C5.22671 11.25 5.5625 11.5858 5.5625 12C5.5625 12.4142 5.22671 12.75 4.8125 12.75Z" fill="#00A881"/>
<path fill-rule="evenodd" clip-rule="evenodd" d="M19.1875 12.75C20.3266 12.75 21.25 13.6734 21.25 14.8125V18C21.25 19.2426 20.2426 20.25 19 20.25H18.5C18.0858 20.25 17.75 20.5858 17.75 21C17.75 21.4142 18.0858 21.75 18.5 21.75H19C21.0711 21.75 22.75 20.0711 22.75 18V14.8125C22.75 12.845 21.155 11.25 19.1875 11.25C18.7733 11.25 18.4375 11.5858 18.4375 12C18.4375 12.4142 18.7733 12.75 19.1875 12.75Z" fill="#00A881"/>
</g>
<defs>
<clipPath id="clip0_3935_381">
<rect width="24" height="24" fill="white"/>
</clipPath>
</defs>
</svg>
