<svg width="24" height="25" viewBox="0 0 24 25" fill="none" xmlns="http://www.w3.org/2000/svg">
<path d="M8.55039 6.87651C8.55039 4.97113 10.095 3.42651 12.0004 3.42651C13.9058 3.42651 15.4504 4.97113 15.4504 6.87651C15.4504 8.7819 13.9058 10.3265 12.0004 10.3265C10.095 10.3265 8.55039 8.7819 8.55039 6.87651Z" fill="#4E5964"/>
<path d="M3.15039 7.77651C3.15039 6.36819 4.29206 5.22651 5.70039 5.22651C7.10872 5.22651 8.25039 6.36819 8.25039 7.77651C8.25039 9.18484 7.10872 10.3265 5.70039 10.3265C4.29206 10.3265 3.15039 9.18484 3.15039 7.77651Z" fill="#4E5964"/>
<path d="M20.8504 7.77651C20.8504 6.36819 19.7087 5.22651 18.3004 5.22651C16.8921 5.22651 15.7504 6.36819 15.7504 7.77651C15.7504 9.18484 16.8921 10.3265 18.3004 10.3265C19.7087 10.3265 20.8504 9.18484 20.8504 7.77651Z" fill="#4E5964"/>
<path d="M6.18789 14.8078C6.18789 12.9956 7.65696 11.5265 9.46914 11.5265H14.5316C16.3438 11.5265 17.8129 12.9956 17.8129 14.8078V16.3265C17.8129 18.9775 15.6639 21.1265 13.0129 21.1265H10.9879C8.33692 21.1265 6.18789 18.9775 6.18789 16.3265V14.8078Z" fill="#4E5964"/>
<path d="M5.53125 13.0261C4.54749 13.0261 3.75 13.8236 3.75 14.8074V17.6761C3.75 18.7531 4.62304 19.6261 5.7 19.6261H6.15C6.56421 19.6261 6.9 19.9619 6.9 20.3761C6.9 20.7903 6.56421 21.1261 6.15 21.1261H5.7C3.79462 21.1261 2.25 19.5815 2.25 17.6761V14.8074C2.25 12.9952 3.71907 11.5261 5.53125 11.5261C5.94546 11.5261 6.28125 11.8619 6.28125 12.2761C6.28125 12.6903 5.94546 13.0261 5.53125 13.0261Z" fill="#4E5964"/>
<path d="M20.25 14.8074C20.25 13.8236 19.4525 13.0261 18.4688 13.0261C18.0545 13.0261 17.7188 12.6903 17.7188 12.2761C17.7188 11.8619 18.0545 11.5261 18.4688 11.5261C20.2809 11.5261 21.75 12.9952 21.75 14.8074V17.6761C21.75 19.5815 20.2054 21.1261 18.3 21.1261H17.85C17.4358 21.1261 17.1 20.7903 17.1 20.3761C17.1 19.9619 17.4358 19.6261 17.85 19.6261H18.3C19.377 19.6261 20.25 18.7531 20.25 17.6761V14.8074Z" fill="#4E5964"/>
</svg>
