<svg width="24" height="24" viewBox="0 0 24 24" fill="none" xmlns="http://www.w3.org/2000/svg">
<path fill-rule="evenodd" clip-rule="evenodd" d="M8.25 6C8.25 3.92893 9.92893 2.25 12 2.25C14.0711 2.25 15.75 3.92893 15.75 6C15.75 8.07107 14.0711 9.75 12 9.75C9.92893 9.75 8.25 8.07107 8.25 6Z" fill="#4E5964"/>
<path fill-rule="evenodd" clip-rule="evenodd" d="M16.25 7C16.25 5.48122 17.4812 4.25 19 4.25C20.5188 4.25 21.75 5.48122 21.75 7C21.75 8.51878 20.5188 9.75 19 9.75C17.4812 9.75 16.25 8.51878 16.25 7Z" fill="#4E5964"/>
<path fill-rule="evenodd" clip-rule="evenodd" d="M2.25 7C2.25 5.48122 3.48122 4.25 5 4.25C6.51878 4.25 7.75 5.48122 7.75 7C7.75 8.51878 6.51878 9.75 5 9.75C3.48122 9.75 2.25 8.51878 2.25 7Z" fill="#4E5964"/>
<path fill-rule="evenodd" clip-rule="evenodd" d="M5.625 14.8125C5.625 12.845 7.21999 11.25 9.1875 11.25H14.8125C16.78 11.25 18.375 12.845 18.375 14.8125V16.5C18.375 19.3995 16.0245 21.75 13.125 21.75H10.875C7.9755 21.75 5.625 19.3995 5.625 16.5V14.8125Z" fill="#4E5964"/>
<path fill-rule="evenodd" clip-rule="evenodd" d="M4.8125 12.75C3.67341 12.75 2.75 13.6734 2.75 14.8125V18C2.75 19.2426 3.75736 20.25 5 20.25H5.5C5.91421 20.25 6.25 20.5858 6.25 21C6.25 21.4142 5.91421 21.75 5.5 21.75H5C2.92893 21.75 1.25 20.0711 1.25 18V14.8125C1.25 12.845 2.84499 11.25 4.8125 11.25C5.22671 11.25 5.5625 11.5858 5.5625 12C5.5625 12.4142 5.22671 12.75 4.8125 12.75Z" fill="#4E5964"/>
<path fill-rule="evenodd" clip-rule="evenodd" d="M19.1875 12.75C20.3266 12.75 21.25 13.6734 21.25 14.8125V18C21.25 19.2426 20.2426 20.25 19 20.25H18.5C18.0858 20.25 17.75 20.5858 17.75 21C17.75 21.4142 18.0858 21.75 18.5 21.75H19C21.0711 21.75 22.75 20.0711 22.75 18V14.8125C22.75 12.845 21.155 11.25 19.1875 11.25C18.7733 11.25 18.4375 11.5858 18.4375 12C18.4375 12.4142 18.7733 12.75 19.1875 12.75Z" fill="#4E5964"/>
</svg>
