<svg width="24" height="24" viewBox="0 0 24 24" fill="none" xmlns="http://www.w3.org/2000/svg">
<path fill-rule="evenodd" clip-rule="evenodd" d="M10.885 2.66927C11.5981 2.35753 12.4102 2.36244 13.1194 2.68294L17.969 4.8763C18.8035 5.25387 19.4129 6.03139 19.5247 6.97103C19.6222 7.7916 19.7357 8.99344 19.7493 10.2376C19.7626 11.4664 19.6792 12.8034 19.3508 13.8626C18.9367 15.1978 17.9569 16.6497 16.9172 17.9359C15.8636 19.2392 14.6891 20.4456 13.8137 21.2952C12.7714 22.3067 11.1269 22.271 10.1292 21.2161C9.32604 20.3671 8.25982 19.1805 7.27759 17.8968C6.30366 16.6239 5.37502 15.2067 4.88892 13.9027C4.50824 12.8814 4.34566 11.5805 4.28345 10.3724C4.2205 9.14979 4.25743 7.95674 4.30396 7.11946C4.3606 6.10128 5.00273 5.24146 5.9065 4.84603L10.885 2.66927ZM12.5012 4.05013C12.1789 3.90455 11.8097 3.90258 11.4856 4.04427L6.50806 6.22005C6.09192 6.40211 5.82551 6.78215 5.802 7.20247C5.75714 8.0099 5.72229 9.14535 5.7815 10.2952C5.79374 10.5331 5.81178 10.7687 5.83228 11.0003H18.2424C18.2493 10.7551 18.252 10.5055 18.2493 10.2542C18.2365 9.08333 18.1294 7.93882 18.0354 7.14778C17.9891 6.75969 17.7345 6.41608 17.3508 6.24251L12.5012 4.05013Z" fill="#4E5964"/>
</svg>
