<svg width="24" height="24" viewBox="0 0 24 24" fill="none" xmlns="http://www.w3.org/2000/svg">
<path d="M19.7188 11.7495C19.6689 12.7889 19.5478 13.8256 19.2812 14.6294C18.7497 16.2314 17.4791 17.6829 16.2402 18.8101C14.9849 19.9523 13.6763 20.8387 12.9541 21.2964C12.3692 21.6671 11.6318 21.6669 11.0469 21.2964C10.3246 20.8387 9.01541 19.9523 7.75977 18.8101C6.52087 17.683 5.25036 16.2323 4.71875 14.6304C4.45206 13.8264 4.33101 12.7892 4.28125 11.7495H19.7188ZM11.1758 2.56592C11.6964 2.31321 12.3046 2.31307 12.8252 2.56592L18.5713 5.35791C19.1763 5.65206 19.6051 6.24809 19.6318 6.95264C19.6378 7.10926 19.6481 7.3129 19.6602 7.55225C19.6948 8.23814 19.7427 9.2203 19.748 10.2495H4.25195C4.25742 9.22021 4.3053 8.2372 4.33984 7.55127C4.35188 7.31229 4.36225 7.10899 4.36816 6.95264C4.39501 6.24802 4.82455 5.65197 5.42969 5.35791L11.1758 2.56592Z" fill="#4E5964"/>
</svg>
