<svg width="24" height="24" viewBox="0 0 24 24" fill="none" xmlns="http://www.w3.org/2000/svg">
<path d="M16.5 2.25C19.3995 2.25 21.75 4.60051 21.75 7.5V16.5C21.75 19.3995 19.3995 21.75 16.5 21.75H7.5C4.60051 21.75 2.25 19.3995 2.25 16.5V7.5C2.25 4.60051 4.60051 2.25 7.5 2.25H16.5ZM8.98438 15.1709C8.69132 14.8813 8.21861 14.8822 7.92676 15.1738C7.63386 15.4667 7.63386 15.9425 7.92676 16.2354L7.92871 16.2373C7.9294 16.238 7.93082 16.2384 7.93164 16.2393C7.93342 16.241 7.9351 16.2438 7.9375 16.2461C7.94238 16.2508 7.94865 16.2567 7.95605 16.2637C7.97125 16.2781 7.99195 16.2974 8.01758 16.3203C8.06895 16.3662 8.14197 16.4277 8.23438 16.5C8.41884 16.6443 8.68513 16.8329 9.02734 17.0195C9.71166 17.3927 10.7098 17.7666 11.957 17.7666C13.2036 17.7666 14.2014 17.3925 14.8857 17.0195C15.228 16.8329 15.4952 16.6443 15.6797 16.5C15.7719 16.4278 15.8442 16.3662 15.8955 16.3203C15.9212 16.2974 15.9418 16.2781 15.957 16.2637C15.9646 16.2565 15.9716 16.2509 15.9766 16.2461C15.979 16.2437 15.9806 16.241 15.9824 16.2393C15.9833 16.2384 15.9846 16.238 15.9854 16.2373L15.9863 16.2363C15.9837 16.2334 15.9553 16.2037 15.6611 15.9092L15.9873 16.2354C16.2803 15.9426 16.2801 15.4678 15.9873 15.1748C15.6955 14.8828 15.2229 14.8811 14.9297 15.1709C14.9292 15.1714 14.9278 15.1729 14.9258 15.1748C14.9206 15.1797 14.9107 15.1885 14.8965 15.2012C14.8676 15.227 14.8205 15.2678 14.7559 15.3184C14.6259 15.42 14.4273 15.5608 14.168 15.7021C13.6491 15.985 12.8971 16.2666 11.957 16.2666C11.0163 16.2666 10.2638 15.985 9.74512 15.7021C9.48611 15.5609 9.28805 15.4209 9.1582 15.3193C9.09365 15.2688 9.04653 15.228 9.01758 15.2021C9.0032 15.1893 8.99336 15.1796 8.98828 15.1748L8.98438 15.1709ZM10.2227 9.65918C9.77059 9.29043 9.1029 9.31422 8.67969 9.73828C8.22975 10.1882 8.22975 10.9192 8.67969 11.3691C9.12963 11.819 9.86063 11.8191 10.3105 11.3691C10.7321 10.9474 10.7584 10.2788 10.3896 9.82617L10.3105 9.73828L10.2227 9.65918ZM15.2227 9.65918C14.7706 9.29043 14.1029 9.31422 13.6797 9.73828C13.2298 10.1882 13.2298 10.9192 13.6797 11.3691C14.1296 11.819 14.8606 11.8191 15.3105 11.3691C15.7321 10.9474 15.7584 10.2788 15.3896 9.82617L15.3105 9.73828L15.2227 9.65918ZM10.6309 6.50586C10.5101 6.10973 10.0905 5.88613 9.69434 6.00684L7.78125 6.58984C7.38505 6.71059 7.16151 7.13015 7.28223 7.52637C7.40297 7.92257 7.82254 8.14611 8.21875 8.02539L10.1318 7.44238C10.5281 7.32166 10.7516 6.90209 10.6309 6.50586ZM14.2188 6.00684C13.8225 5.88608 13.403 6.10964 13.2822 6.50586C13.1615 6.90208 13.385 7.32163 13.7812 7.44238L15.6943 8.02539C16.0906 8.14615 16.5101 7.92259 16.6309 7.52637C16.7516 7.13017 16.528 6.7106 16.1318 6.58984L14.2188 6.00684Z" fill="#4E5964"/>
</svg>
