<svg width="24" height="24" viewBox="0 0 24 24" fill="none" xmlns="http://www.w3.org/2000/svg">
<path fill-rule="evenodd" clip-rule="evenodd" d="M2.25 7.5C2.25 4.60051 4.60051 2.25 7.5 2.25H16.5C19.3995 2.25 21.75 4.60051 21.75 7.5V16.5C21.75 19.3995 19.3995 21.75 16.5 21.75H7.5C4.60051 21.75 2.25 19.3995 2.25 16.5V7.5ZM12.3554 8C12.3554 7.58579 12.6912 7.25 13.1054 7.25H16.1877C17.6029 7.25 18.7501 8.39723 18.7501 9.81242V14.1265C18.7501 15.5754 17.5755 16.75 16.1266 16.75H13.9626C13.075 16.75 12.3555 16.0305 12.3555 15.1429V11C12.3555 10.5858 12.6913 10.25 13.1055 10.25C13.5197 10.25 13.8555 10.5858 13.8555 11V15.1429C13.8555 15.202 13.9035 15.25 13.9626 15.25H16.1266C16.7471 15.25 17.2501 14.747 17.2501 14.1265V9.81242C17.2501 9.22566 16.7745 8.75 16.1877 8.75H13.1054C12.6912 8.75 12.3554 8.41421 12.3554 8ZM6.75 8C6.75 7.58579 6.41421 7.25 6 7.25C5.58579 7.25 5.25 7.58579 5.25 8V16C5.25 16.4142 5.58579 16.75 6 16.75C6.41421 16.75 6.75 16.4142 6.75 16V12.75H10.25V16C10.25 16.4142 10.5858 16.75 11 16.75C11.4142 16.75 11.75 16.4142 11.75 16V8C11.75 7.58579 11.4142 7.25 11 7.25C10.5858 7.25 10.25 7.58579 10.25 8V11.25H6.75V8Z" fill="#4E5964"/>
</svg>
