<svg width="24" height="24" viewBox="0 0 24 24" fill="none" xmlns="http://www.w3.org/2000/svg">
<path d="M16.5 2.25C19.3995 2.25 21.75 4.60051 21.75 7.5V16.5C21.75 19.3995 19.3995 21.75 16.5 21.75H7.5C4.60051 21.75 2.25 19.3995 2.25 16.5V7.5C2.25 4.60051 4.60051 2.25 7.5 2.25H16.5ZM11.168 7.75C10.7538 7.75 10.418 8.08579 10.418 8.5V11.25H7.25V8.5C7.25 8.08579 6.91421 7.75 6.5 7.75C6.08579 7.75 5.75 8.08579 5.75 8.5V15.5C5.75 15.9142 6.08579 16.25 6.5 16.25C6.91421 16.25 7.25 15.9142 7.25 15.5V12.75H10.418V15.5C10.418 15.9142 10.7538 16.25 11.168 16.25C11.582 16.2498 11.918 15.9141 11.918 15.5V8.5C11.918 8.08592 11.582 7.75021 11.168 7.75ZM13.167 7.75C12.7528 7.75003 12.417 8.08581 12.417 8.5V15.5C12.417 15.9142 12.7528 16.25 13.167 16.25H16.2783C17.5516 16.2499 18.584 15.2176 18.584 13.9443V10.0557C18.584 8.78239 17.5516 7.75008 16.2783 7.75H13.167ZM16.2783 9.25C16.7231 9.25008 17.084 9.61082 17.084 10.0557V13.9443C17.084 14.3892 16.7231 14.7499 16.2783 14.75H13.917V9.25H16.2783Z" fill="#4E5964"/>
</svg>
