<svg width="24" height="24" viewBox="0 0 24 24" fill="none" xmlns="http://www.w3.org/2000/svg">
<path d="M16.5 2.25C19.3995 2.25 21.75 4.60051 21.75 7.5V16.5C21.75 19.3995 19.3995 21.75 16.5 21.75H7.5C4.60051 21.75 2.25 19.3995 2.25 16.5V7.5C2.25 4.60051 4.60051 2.25 7.5 2.25H16.5ZM6.25195 8C6.084 8.00002 6.00002 8.084 6 8.25195V15.4639C6 15.6319 6.08398 15.7158 6.25195 15.7158H7.27246C7.44015 15.7157 7.52441 15.6317 7.52441 15.4639V12.6562C7.52441 12.5683 7.57199 12.5244 7.66797 12.5244H9.69629C9.7841 12.5245 9.82812 12.5683 9.82812 12.6562V15.4639C9.82812 15.6319 9.91208 15.7158 10.0801 15.7158H11.0996C11.2676 15.7158 11.3516 15.6319 11.3516 15.4639V8.25195C11.3515 8.08398 11.2676 8 11.0996 8H10.0801C9.91209 8 9.82814 8.08398 9.82812 8.25195V11.0723C9.82804 11.16 9.78401 11.204 9.69629 11.2041H7.66797C7.57209 11.2041 7.52451 11.1601 7.52441 11.0723V8.25195C7.5244 8.08414 7.44014 8.00015 7.27246 8H6.25195ZM13.166 8C12.9981 8.00002 12.9141 8.084 12.9141 8.25195V15.4639C12.9141 15.6319 12.998 15.7158 13.166 15.7158H16.1299C16.7539 15.7158 17.238 15.5479 17.582 15.2119C17.934 14.8679 18.1104 14.3837 18.1104 13.7598V9.95605C18.1104 9.33205 17.934 8.85162 17.582 8.51562C17.238 8.17176 16.7538 8 16.1299 8H13.166ZM15.8779 9.32031C16.1339 9.32031 16.314 9.37628 16.418 9.48828C16.5299 9.59229 16.5859 9.77239 16.5859 10.0283V13.6885C16.5859 13.9442 16.5299 14.1283 16.418 14.2402C16.3139 14.3441 16.1338 14.3965 15.8779 14.3965H14.5703C14.4823 14.3965 14.4385 14.3517 14.4385 14.2637V9.45215C14.4385 9.36415 14.4823 9.32031 14.5703 9.32031H15.8779Z" fill="#4E5964"/>
</svg>
