<svg width="24" height="24" viewBox="0 0 24 24" fill="none" xmlns="http://www.w3.org/2000/svg">
<path d="M3 16V9C3 5.13401 7.02944 2 12 2C16.9706 2 21 5.13401 21 9V16" stroke="#4E5964" stroke-width="1.5" stroke-linecap="round"/>
<path fill-rule="evenodd" clip-rule="evenodd" d="M6 12.4727C7.10457 12.4727 8 13.3681 8 14.4727V16.1569C8 17.2614 7.10457 18.1569 6 18.1569C4.89543 18.1569 4 17.2614 4 16.1569V14.4727C4 13.3681 4.89543 12.4727 6 12.4727ZM18 12.4727C16.8954 12.4727 16 13.3681 16 14.4727V16.1569C16 17.2614 16.8954 18.1569 18 18.1569C19.1046 18.1569 20 17.2614 20 16.1569V14.4727C20 13.3681 19.1046 12.4727 18 12.4727Z" fill="#4E5964"/>
<path d="M8.75 14.4727C8.75 12.9539 7.51878 11.7227 6 11.7227V13.2227C6.69036 13.2227 7.25 13.7823 7.25 14.4727H8.75ZM8.75 16.1569V14.4727H7.25V16.1569H8.75ZM6 18.9069C7.51878 18.9069 8.75 17.6757 8.75 16.1569H7.25C7.25 16.8472 6.69036 17.4069 6 17.4069V18.9069ZM3.25 16.1569C3.25 17.6756 4.48122 18.9069 6 18.9069V17.4069C5.30964 17.4069 4.75 16.8472 4.75 16.1569H3.25ZM3.25 14.4727V16.1569H4.75V14.4727H3.25ZM6 11.7227C4.48122 11.7227 3.25 12.9539 3.25 14.4727H4.75C4.75 13.7823 5.30964 13.2227 6 13.2227V11.7227ZM16.75 14.4727C16.75 13.7823 17.3096 13.2227 18 13.2227V11.7227C16.4812 11.7227 15.25 12.9539 15.25 14.4727H16.75ZM16.75 16.1569V14.4727H15.25V16.1569H16.75ZM18 17.4069C17.3096 17.4069 16.75 16.8472 16.75 16.1569H15.25C15.25 17.6757 16.4812 18.9069 18 18.9069V17.4069ZM19.25 16.1569C19.25 16.8472 18.6904 17.4069 18 17.4069V18.9069C19.5188 18.9069 20.75 17.6756 20.75 16.1569H19.25ZM19.25 14.4727V16.1569H20.75V14.4727H19.25ZM18 13.2227C18.6904 13.2227 19.25 13.7823 19.25 14.4727H20.75C20.75 12.9539 19.5188 11.7227 18 11.7227V13.2227Z" fill="#4E5964"/>
<path d="M12.75 19.6C12.75 19.1858 12.4142 18.85 12 18.85C11.5858 18.85 11.25 19.1858 11.25 19.6H12.75ZM11.25 19.6V21.7467H12.75V19.6H11.25ZM8.72727 22.75H11.7818V21.25H8.72727V22.75ZM5.25 18.5C5.25 19.4989 5.61283 20.5284 6.19562 21.317C6.77334 22.0989 7.65404 22.75 8.72727 22.75V21.25C8.29428 21.25 7.81134 20.9796 7.40198 20.4256C6.99769 19.8785 6.75 19.158 6.75 18.5H5.25ZM11.25 21.7467C11.25 21.6436 11.2858 21.5316 11.3678 21.4364C11.4511 21.3396 11.5953 21.25 11.7818 21.25V22.75C12.4178 22.75 12.75 22.1917 12.75 21.7467H11.25Z" fill="#4E5964"/>
</svg>
