<svg width="24" height="24" viewBox="0 0 24 24" fill="none" xmlns="http://www.w3.org/2000/svg">
<path d="M5.5 12C6.74264 12 8 13.1027 8 14.463V16.537C8 17.8973 6.74264 19 5.5 19C4.25736 19 3 17.8973 3 16.537V14.463C3 13.1027 4.25736 12 5.5 12Z" fill="#00A881"/>
<path d="M18.5 12C17.2574 12 16 13.1027 16 14.463V16.537C16 17.8973 17.2574 19 18.5 19C19.7426 19 21 17.8973 21 16.537V14.463C21 13.1027 19.7426 12 18.5 12Z" fill="#00A881"/>
<path fill-rule="evenodd" clip-rule="evenodd" d="M3.75 9C3.75 5.71271 7.25732 2.75 12 2.75C16.7427 2.75 20.25 5.71271 20.25 9V16C20.25 16.4142 20.5858 16.75 21 16.75C21.4142 16.75 21.75 16.4142 21.75 16V9C21.75 4.5553 17.1984 1.25 12 1.25C6.80156 1.25 2.25 4.5553 2.25 9V16C2.25 16.4142 2.58579 16.75 3 16.75C3.41421 16.75 3.75 16.4142 3.75 16V9ZM5.25 18.5C5.25 19.4989 5.61283 20.5284 6.19562 21.317C6.77334 22.0989 7.65404 22.75 8.72727 22.75H11.7818C12.4178 22.75 12.75 22.1917 12.75 21.7467V19.6C12.75 19.1858 12.4142 18.85 12 18.85C11.5858 18.85 11.25 19.1858 11.25 19.6V21.25H8.72727C8.29428 21.25 7.81134 20.9796 7.40198 20.4256C6.99769 19.8785 6.75 19.158 6.75 18.5H5.25Z" fill="#00A881"/>
</svg>
