<svg width="24" height="24" viewBox="0 0 24 24" fill="none" xmlns="http://www.w3.org/2000/svg">
<path d="M3.75 9C3.75 5.71271 7.25732 2.75 12 2.75C16.7427 2.75 20.25 5.71271 20.25 9V12.7146C19.7991 12.2726 19.1814 12 18.5 12C17.1193 12 16 13.1193 16 14.5V16.5C16 17.8807 17.1193 19 18.5 19C19.7964 19 20.8623 18.0133 20.9877 16.7499L21 16.75C21.4142 16.75 21.75 16.4142 21.75 16V9C21.75 4.5553 17.1984 1.25 12 1.25C6.80156 1.25 2.25 4.5553 2.25 9V16C2.25 16.4142 2.58579 16.75 3 16.75L3.01234 16.7499C3.12956 17.9311 4.06886 18.8704 5.25 18.9877V19.5C5.25 21.2949 6.70507 22.75 8.5 22.75H11.5C12.1904 22.75 12.75 22.1904 12.75 21.5V19.5C12.75 19.0858 12.4142 18.75 12 18.75C11.5858 18.75 11.25 19.0858 11.25 19.5V21.25H8.5C7.5335 21.25 6.75 20.4665 6.75 19.5V18.6655C7.49725 18.2333 8 17.4254 8 16.5V14.5C8 13.1193 6.88071 12 5.5 12C4.81864 12 4.20094 12.2726 3.75 12.7146V9Z" fill="#4E5964"/>
</svg>
