<svg width="24" height="24" viewBox="0 0 24 24" fill="none" xmlns="http://www.w3.org/2000/svg">
<path d="M6.07516 5.51182C4.58681 6.58673 3.75 8.00646 3.75 9.5V12.8911C4.24768 12.1844 5.06992 11.7227 6 11.7227C7.51878 11.7227 8.75 12.9539 8.75 14.4727V16.1569C8.75 17.4156 7.90425 18.4769 6.75 18.8034V18.8571C6.75 19.6264 7.3736 20.25 8.14286 20.25H11.25V18.8571C11.25 18.4429 11.5858 18.1071 12 18.1071C12.4142 18.1071 12.75 18.4429 12.75 18.8571V20.5C12.75 21.1904 12.1904 21.75 11.5 21.75H8.14286C6.54518 21.75 5.25 20.4548 5.25 18.8571V18.8034C4.26207 18.5239 3.50015 17.7062 3.30108 16.6871C3.20892 16.7276 3.10708 16.75 3 16.75C2.58579 16.75 2.25 16.4142 2.25 16V9.5C2.25 7.40369 3.42791 5.57341 5.19692 4.2958C6.96692 3.01746 9.37459 2.25 12 2.25C14.6254 2.25 17.0331 3.01746 18.8031 4.2958C20.5721 5.57341 21.75 7.40369 21.75 9.5V16C21.75 16.4142 21.4142 16.75 21 16.75C20.8929 16.75 20.7911 16.7276 20.6989 16.6871C20.4518 17.9522 19.3374 18.9069 18 18.9069C16.4812 18.9069 15.25 17.6757 15.25 16.1569V14.4727C15.25 12.9539 16.4812 11.7227 18 11.7227C18.9301 11.7227 19.7523 12.1844 20.25 12.8911V9.5C20.25 8.00646 19.4132 6.58673 17.9248 5.51182C16.4375 4.43761 14.3452 3.75 12 3.75C9.65485 3.75 7.56251 4.43761 6.07516 5.51182Z" fill="#4E5964"/>
</svg>
