<svg width="24" height="24" viewBox="0 0 24 24" fill="none" xmlns="http://www.w3.org/2000/svg">
<path fill-rule="evenodd" clip-rule="evenodd" d="M11.9999 5.03611C13.0621 3.90147 14.4976 3.25022 16.0105 3.25024C17.559 3.25027 19.0264 3.93255 20.0954 5.11706C21.1621 6.29893 21.75 7.88689 21.75 9.52856C21.75 11.1702 21.1621 12.7582 20.0954 13.9401L15.3145 19.2371C14.4498 20.1952 13.2595 20.7502 12 20.7502C10.7405 20.7502 9.5502 20.1952 8.6855 19.2371L3.90461 13.94C2.83789 12.7581 2.25 11.1701 2.25 9.52846C2.25 7.88679 2.83789 6.29884 3.90461 5.11694C6.12634 2.65542 9.7475 2.62847 11.9999 5.03611Z" fill="#4E5964"/>
</svg>
