<svg width="24" height="24" viewBox="0 0 24 24" fill="none" xmlns="http://www.w3.org/2000/svg">
<path fill-rule="evenodd" clip-rule="evenodd" d="M18.5008 3.4385C17.8562 3.15152 17.1631 3.00001 16.4561 3C14.9857 2.99998 13.5756 3.65523 12.5359 4.8216L11.9998 5.42301L11.4638 4.8216C9.29877 2.39297 5.78873 2.39297 3.62375 4.8216C2.58408 5.98793 2 7.56981 2 9.21925C2 10.8687 2.58408 12.4506 3.62375 13.6169L5.83821 16.1011L18.5008 3.4385ZM6.83796 17.2227L8.93585 19.5762C9.74851 20.4878 10.8507 21 12 21C13.1493 21 14.2515 20.4878 15.0641 19.5762L20.3762 13.617C21.4159 12.4507 22 10.8688 22 9.21936C22 7.56992 21.4159 5.98804 20.3762 4.82171C20.1952 4.6186 20.0029 4.43098 19.801 4.25962L6.83796 17.2227Z" fill="#4E5964"/>
<path d="M20 1L3 18" stroke="#4E5964" stroke-width="1.5" stroke-linecap="round" stroke-linejoin="round"/>
</svg>
