<svg width="24" height="24" viewBox="0 0 24 24" fill="none" xmlns="http://www.w3.org/2000/svg">
<path fill-rule="evenodd" clip-rule="evenodd" d="M20.3762 4.82171C21.4159 5.98804 22 7.56992 22 9.21936C22 10.8688 21.4159 12.4507 20.3762 13.617L15.0641 19.5762C14.2515 20.4878 13.1493 21 12 21C10.8507 21 9.74851 20.4878 8.93585 19.5762L3.62375 13.6169C2.58408 12.4506 2 10.8687 2 9.21925C2 7.56981 2.58408 5.98793 3.62375 4.8216C5.78873 2.39297 9.29877 2.39297 11.4638 4.8216L11.9998 5.42301L12.5359 4.8216C13.5756 3.65523 14.9857 2.99998 16.4561 3C17.9265 3.00002 19.3366 3.65531 20.3762 4.82171Z" fill="#4E5964" stroke="#4E5964" stroke-width="1.5" stroke-linecap="round" stroke-linejoin="round"/>
</svg>
