<svg width="24" height="24" viewBox="0 0 24 24" fill="none" xmlns="http://www.w3.org/2000/svg">
<path d="M21.0757 3.53229C21.3696 3.24048 21.3714 2.76561 21.0796 2.47163C20.7878 2.17766 20.3129 2.1759 20.0189 2.46771L18.5685 3.90743C17.7842 3.48062 16.91 3.25001 16.0105 3.25C14.4976 3.24998 13.0621 3.90123 11.9999 5.03586C9.7475 2.62823 6.12635 2.65517 3.90462 5.11668C2.8379 6.29858 2.25 7.88655 2.25 9.52822C2.25 11.1699 2.83789 12.7578 3.90461 13.9397L6.05807 16.3257L2.92671 19.434C2.63274 19.7258 2.63098 20.2007 2.92279 20.4947C3.2146 20.7887 3.68947 20.7904 3.98344 20.4986L21.0757 3.53229Z" fill="#4E5964"/>
<path d="M20.9771 6.38046C20.7833 6.01438 20.3295 5.87471 19.9634 6.06851C19.5973 6.2623 19.4576 6.71618 19.6514 7.08226C19.6732 7.12336 19.6944 7.16483 19.7151 7.20667C20.0617 7.90848 20.25 8.70607 20.25 9.52832C20.25 10.819 19.7865 12.0433 18.9819 12.9348L14.2009 18.2319C13.6029 18.8945 12.8092 19.25 12 19.25C11.1908 19.25 10.3971 18.8945 9.79903 18.2319L9.2605 17.6352C8.98298 17.3277 8.50873 17.3034 8.20123 17.5809C7.89374 17.8585 7.86945 18.3327 8.14697 18.6402L8.6855 19.2369C9.5502 20.195 10.7405 20.75 12 20.75C13.2595 20.75 14.4498 20.195 15.3145 19.2369L20.0954 13.9398C21.1621 12.7579 21.75 11.17 21.75 9.52832C21.75 8.47883 21.51 7.45362 21.06 6.54246C21.0331 6.48807 21.0055 6.43406 20.9771 6.38046Z" fill="#4E5964"/>
</svg>
