<svg width="24" height="24" viewBox="0 0 24 24" fill="none" xmlns="http://www.w3.org/2000/svg">
<path fill-rule="evenodd" clip-rule="evenodd" d="M18.5008 4.4385C17.8562 4.15152 17.1631 4.00001 16.4561 4C14.9857 3.99998 13.5756 4.65523 12.5359 5.8216L11.9998 6.42301L11.4638 5.8216C9.29877 3.39297 5.78873 3.39297 3.62375 5.8216C2.58408 6.98793 2 8.56981 2 10.2192C2 11.8687 2.58408 13.4506 3.62375 14.6169L5.83821 17.1011L18.5008 4.4385ZM6.83796 18.2227L8.93585 20.5762C9.74851 21.4878 10.8507 22 12 22C13.1493 22 14.2515 21.4878 15.0641 20.5762L20.3762 14.617C21.4159 13.4507 22 11.8688 22 10.2194C22 8.56992 21.4159 6.98804 20.3762 5.82171C20.1952 5.6186 20.0029 5.43098 19.801 5.25962L6.83796 18.2227Z" fill="#4E5964"/>
<path d="M20 2L3 19" stroke="#4E5964" stroke-width="1.5" stroke-linecap="round" stroke-linejoin="round"/>
</svg>
