<svg width="24" height="24" viewBox="0 0 24 24" fill="none" xmlns="http://www.w3.org/2000/svg">
<path fill-rule="evenodd" clip-rule="evenodd" d="M12 22C17.5228 22 22 17.5228 22 12C22 6.47715 17.5228 2 12 2C6.47715 2 2 6.47715 2 12C2 17.5228 6.47715 22 12 22ZM11.083 8.49655L11.4585 13.0017C11.4819 13.2834 11.7174 13.5 12 13.5C12.2826 13.5 12.5181 13.2834 12.5415 13.0017L12.917 8.49655C12.9617 7.96009 12.5383 7.5 12 7.5C11.4617 7.5 11.0383 7.96009 11.083 8.49655ZM12 15.5C11.4477 15.5 11 15.9477 11 16.5C11 17.0523 11.4477 17.5 12 17.5H12.009C12.5613 17.5 13.009 17.0523 13.009 16.5C13.009 15.9477 12.5613 15.5 12.009 15.5H12Z" fill="#4E5964"/>
</svg>
