<svg width="24" height="24" viewBox="0 0 24 24" fill="none" xmlns="http://www.w3.org/2000/svg">
<path fill-rule="evenodd" clip-rule="evenodd" d="M7.82299 22C2.63693 22 0.513225 18.0906 3.10626 13.3068L7.28326 5.58782C9.87629 0.80406 14.1237 0.804059 16.7167 5.58782L20.8937 13.3068C23.4868 18.0906 21.3631 22 16.177 22H7.82299ZM11.083 8.49655L11.4585 13.0017C11.4819 13.2834 11.7174 13.5 12 13.5C12.2826 13.5 12.5181 13.2834 12.5415 13.0017L12.917 8.49655C12.9617 7.96009 12.5383 7.5 12 7.5C11.4617 7.5 11.0383 7.96009 11.083 8.49655ZM12 15.5C11.4477 15.5 11 15.9477 11 16.5C11 17.0523 11.4477 17.5 12 17.5H12.009C12.5613 17.5 13.009 17.0523 13.009 16.5C13.009 15.9477 12.5613 15.5 12.009 15.5H12Z" fill="#4E5964"/>
</svg>
