<svg width="24" height="25" viewBox="0 0 24 25" fill="none" xmlns="http://www.w3.org/2000/svg">
<path fill-rule="evenodd" clip-rule="evenodd" d="M3.33643 13.0955C2.09628 15.3837 1.90261 17.6208 2.83397 19.3367C3.77393 21.0685 5.72574 22.0264 8.2411 22.0264H15.7597C18.2751 22.0264 20.2269 21.0685 21.1669 19.3367C22.0983 17.6207 21.9045 15.3834 20.6641 13.0951L16.9051 6.14846C15.6689 3.86797 13.9238 2.52637 12.0004 2.52637C10.077 2.52637 8.33213 3.8675 7.09599 6.148L3.33643 13.0955ZM12.001 14.0264C11.5868 14.0264 11.251 13.6906 11.251 13.2764V8.27637C11.251 7.86215 11.5868 7.52637 12.001 7.52637C12.4152 7.52637 12.751 7.86215 12.751 8.27637V13.2764C12.751 13.6906 12.4152 14.0264 12.001 14.0264ZM12.001 18.2764C12.5533 18.2764 13.001 17.8287 13.001 17.2764C13.001 16.7241 12.5533 16.2764 12.001 16.2764C11.4487 16.2764 11.001 16.7241 11.001 17.2764C11.001 17.8287 11.4487 18.2764 12.001 18.2764Z" fill="#4E5964"/>
</svg>
