<svg width="24" height="24" viewBox="0 0 24 24" fill="none" xmlns="http://www.w3.org/2000/svg">
<path fill-rule="evenodd" clip-rule="evenodd" d="M2.25 12.0007C2.25 6.61596 6.61522 2.25073 12 2.25073C17.3848 2.25073 21.75 6.61596 21.75 12.0007C21.75 17.3855 17.3848 21.7507 12 21.7507C6.61522 21.7507 2.25 17.3855 2.25 12.0007ZM12 13.7507C11.5858 13.7507 11.25 13.4149 11.25 13.0007V8.00073C11.25 7.58652 11.5858 7.25073 12 7.25073C12.4142 7.25073 12.75 7.58652 12.75 8.00073V13.0007C12.75 13.4149 12.4142 13.7507 12 13.7507ZM13.0098 16.571C13.0098 16.0188 12.5621 15.571 12.0098 15.571C11.4575 15.571 11.0098 16.0188 11.0098 16.571V16.5906C11.0098 17.1429 11.4575 17.5906 12.0098 17.5906C12.562 17.5906 13.0098 17.1429 13.0098 16.5906V16.571Z" fill="#4E5964"/>
</svg>
