<svg width="24" height="24" viewBox="0 0 24 24" fill="none" xmlns="http://www.w3.org/2000/svg">
<path fill-rule="evenodd" clip-rule="evenodd" d="M3.33643 12.8199C2.09628 15.1081 1.90261 17.3452 2.83397 19.0611C3.77393 20.7929 5.72574 21.7507 8.2411 21.7507H15.7597C18.2751 21.7507 20.2269 20.7929 21.1669 19.0611C22.0983 17.3451 21.9045 15.1077 20.6641 12.8194L16.9051 5.87283C15.6689 3.59233 13.9238 2.25073 12.0004 2.25073C10.077 2.25073 8.33213 3.59187 7.09599 5.87237L3.33643 12.8199ZM12.001 13.7507C11.5868 13.7507 11.251 13.4149 11.251 13.0007V8.00073C11.251 7.58652 11.5868 7.25073 12.001 7.25073C12.4152 7.25073 12.751 7.58652 12.751 8.00073V13.0007C12.751 13.4149 12.4152 13.7507 12.001 13.7507ZM12.001 18.0007C12.5533 18.0007 13.001 17.553 13.001 17.0007C13.001 16.4484 12.5533 16.0007 12.001 16.0007C11.4487 16.0007 11.001 16.4484 11.001 17.0007C11.001 17.553 11.4487 18.0007 12.001 18.0007Z" fill="#4E5964"/>
</svg>
