<svg width="24" height="24" viewBox="0 0 24 24" fill="none" xmlns="http://www.w3.org/2000/svg">
<path fill-rule="evenodd" clip-rule="evenodd" d="M16.0199 3.80323C13.6959 1.73323 10.3041 1.73323 7.98014 3.80323L4.48014 6.92071C3.05947 8.18612 2.25 10.0477 2.25 11.9969V15.1221C2.25 18.7352 5.00197 21.7507 8.5 21.7507H15.5C18.998 21.7507 21.75 18.7352 21.75 15.1221V11.9969C21.75 10.0477 20.9405 8.18611 19.5199 6.92071L16.0199 3.80323ZM9.41603 18.6248C10.9808 17.5816 13.0192 17.5816 14.584 18.6248C14.9286 18.8545 15.3943 18.7614 15.624 18.4168C15.8538 18.0721 15.7607 17.6065 15.416 17.3767C13.3474 15.9976 10.6526 15.9976 8.58397 17.3767C8.23933 17.6065 8.1462 18.0721 8.37596 18.4168C8.60573 18.7614 9.07138 18.8545 9.41603 18.6248Z" fill="#4E5964"/>
</svg>
