<svg width="24" height="25" viewBox="0 0 24 25" fill="none" xmlns="http://www.w3.org/2000/svg">
<path fill-rule="evenodd" clip-rule="evenodd" d="M16.0199 4.07887C13.6959 2.00887 10.3041 2.00887 7.98014 4.07887L4.48014 7.19634C3.05947 8.46175 2.25 10.3234 2.25 12.2725V15.3977C2.25 19.0108 5.00197 22.0264 8.5 22.0264H15.5C18.998 22.0264 21.75 19.0108 21.75 15.3977V12.2725C21.75 10.3234 20.9405 8.46175 19.5199 7.19634L16.0199 4.07887ZM9.41603 18.9004C10.9808 17.8573 13.0192 17.8573 14.584 18.9004C14.9286 19.1302 15.3943 19.037 15.624 18.6924C15.8538 18.3477 15.7607 17.8821 15.416 17.6523C13.3474 16.2733 10.6526 16.2733 8.58397 17.6523C8.23933 17.8821 8.1462 18.3477 8.37596 18.6924C8.60573 19.037 9.07138 19.1302 9.41603 18.9004Z" fill="#4E5964"/>
</svg>
