<svg width="24" height="25" viewBox="0 0 24 25" fill="none" xmlns="http://www.w3.org/2000/svg">
<path fill-rule="evenodd" clip-rule="evenodd" d="M7.98014 4.07838C10.3041 2.00838 13.6959 2.00838 16.0199 4.07838L19.5199 7.19585C20.9405 8.46126 21.75 10.3229 21.75 12.272V15.3972C21.75 19.0103 18.998 22.0259 15.5 22.0259H8.5C5.00197 22.0259 2.25 19.0103 2.25 15.3972V12.272C2.25 10.3229 3.05947 8.46126 4.48014 7.19585L7.98014 4.07838ZM8.70951 13.9539C8.43159 13.6468 8.45527 13.1725 8.7624 12.8946C9.70758 12.0393 10.8345 11.6 11.9808 11.6321C13.1272 11.6641 14.2278 12.1655 15.1238 13.0723C15.4149 13.3669 15.4121 13.8418 15.1175 14.1329C14.8228 14.424 14.348 14.4212 14.0568 14.1266C13.4025 13.4644 12.6585 13.1516 11.939 13.1315C11.2194 13.1114 10.4591 13.3822 9.76885 14.0068C9.46172 14.2847 8.98744 14.261 8.70951 13.9539ZM12.0109 8.52873C14.0015 8.58445 15.9367 9.45447 17.534 11.0711C17.8251 11.3658 17.8223 11.8407 17.5276 12.1318C17.2329 12.4229 16.7581 12.42 16.467 12.1254C15.1113 10.7533 13.5327 10.0719 11.9689 10.0281C10.4051 9.98437 8.79089 10.5764 7.36061 11.8705C7.05346 12.1484 6.57918 12.1247 6.30128 11.8175C6.02337 11.5104 6.04708 11.0361 6.35423 10.7582C8.03947 9.2334 10.0203 8.473 12.0109 8.52873Z" fill="#4E5964"/>
</svg>
