<svg width="24" height="24" viewBox="0 0 24 24" fill="none" xmlns="http://www.w3.org/2000/svg">
<path fill-rule="evenodd" clip-rule="evenodd" d="M7.98014 3.80275C10.3041 1.73275 13.6959 1.73274 16.0199 3.80274L19.5199 6.92022C20.9405 8.18562 21.75 10.0472 21.75 11.9964V15.1216C21.75 18.7347 18.998 21.7502 15.5 21.7502H8.5C5.00197 21.7502 2.25 18.7347 2.25 15.1216V11.9964C2.25 10.0472 3.05947 8.18563 4.48014 6.92022L7.98014 3.80275ZM8.70951 13.6783C8.43159 13.3711 8.45527 12.8969 8.7624 12.6189C9.70758 11.7636 10.8345 11.3244 11.9808 11.3564C13.1272 11.3884 14.2278 11.8899 15.1238 12.7966C15.4149 13.0913 15.4121 13.5661 15.1175 13.8573C14.8228 14.1484 14.348 14.1456 14.0568 13.8509C13.4025 13.1888 12.6585 12.8759 11.939 12.8558C11.2194 12.8357 10.4591 13.1066 9.76885 13.7312C9.46172 14.0091 8.98744 13.9854 8.70951 13.6783ZM12.0109 8.25309C14.0015 8.30882 15.9367 9.17884 17.534 10.7955C17.8251 11.0902 17.8223 11.565 17.5276 11.8561C17.2329 12.1473 16.7581 12.1444 16.467 11.8498C15.1113 10.4777 13.5327 9.79628 11.9689 9.75251C10.4051 9.70873 8.79089 10.3007 7.36061 11.5948C7.05346 11.8727 6.57918 11.849 6.30128 11.5419C6.02337 11.2347 6.04708 10.7604 6.35423 10.4825C8.03947 8.95776 10.0203 8.19737 12.0109 8.25309Z" fill="#4E5964"/>
</svg>
