<svg width="24" height="24" viewBox="0 0 24 24" fill="none" xmlns="http://www.w3.org/2000/svg">
<path fill-rule="evenodd" clip-rule="evenodd" d="M16.0199 3.80323C13.6959 1.73323 10.3041 1.73323 7.98014 3.80323L4.48014 6.92071C3.05947 8.18612 2.25 10.0477 2.25 11.9969V15.1221C2.25 18.7352 5.00197 21.7507 8.5 21.7507H15.5C18.998 21.7507 21.75 18.7352 21.75 15.1221V11.9969C21.75 10.0477 20.9405 8.18611 19.5199 6.92071L16.0199 3.80323ZM9.73445 18.1522C10.2434 15.6924 13.7566 15.6924 14.2656 18.1522C14.3495 18.5578 14.7463 18.8186 15.152 18.7347C15.5576 18.6507 15.8184 18.2539 15.7344 17.8483C14.8956 13.7937 9.10442 13.7937 8.26555 17.8483C8.18163 18.2539 8.44242 18.6507 8.84805 18.7347C9.25367 18.8186 9.65052 18.5578 9.73445 18.1522Z" fill="#4E5964"/>
</svg>
