<svg width="24" height="25" viewBox="0 0 24 25" fill="none" xmlns="http://www.w3.org/2000/svg">
<path fill-rule="evenodd" clip-rule="evenodd" d="M16.0199 4.07887C13.6959 2.00887 10.3041 2.00887 7.98014 4.07887L4.48014 7.19634C3.05947 8.46175 2.25 10.3234 2.25 12.2725V15.3977C2.25 19.0108 5.00197 22.0264 8.5 22.0264H15.5C18.998 22.0264 21.75 19.0108 21.75 15.3977V12.2725C21.75 10.3234 20.9405 8.46175 19.5199 7.19634L16.0199 4.07887ZM9.73445 18.4278C10.2434 15.9681 13.7566 15.9681 14.2656 18.4278C14.3495 18.8334 14.7463 19.0942 15.152 19.0103C15.5576 18.9264 15.8184 18.5295 15.7344 18.1239C14.8956 14.0694 9.10442 14.0694 8.26555 18.1239C8.18163 18.5295 8.44242 18.9264 8.84805 19.0103C9.25367 19.0942 9.65052 18.8334 9.73445 18.4278Z" fill="#4E5964"/>
</svg>
