<svg width="24" height="24" viewBox="0 0 24 24" fill="none" xmlns="http://www.w3.org/2000/svg">
<path fill-rule="evenodd" clip-rule="evenodd" d="M4.19887 6.97781C2.80558 8.21882 2 10.0572 2 11.9957V15.4681C2 19.0756 4.73604 22 8.11111 22H15.8889C19.264 22 22 19.0756 22 15.4681V11.9957C22 10.0572 21.1944 8.21882 19.8011 6.9778L15.9122 3.51394C13.646 1.49535 10.354 1.49535 8.08776 3.51395L4.19887 6.97781ZM9.73445 18.1514C10.2434 15.6917 13.7566 15.6917 14.2656 18.1514C14.3495 18.5571 14.7463 18.8179 15.152 18.7339C15.5576 18.65 15.8184 18.2532 15.7344 17.8475C14.8956 13.793 9.10442 13.793 8.26555 17.8475C8.18163 18.2532 8.44242 18.65 8.84805 18.7339C9.25367 18.8179 9.65052 18.5571 9.73445 18.1514Z" fill="#4E5964"/>
</svg>
