<svg width="24" height="24" viewBox="0 0 24 24" fill="none" xmlns="http://www.w3.org/2000/svg">
<path fill-rule="evenodd" clip-rule="evenodd" d="M4.19887 6.97781C2.80558 8.21882 2 10.0572 2 11.9957V15.4681C2 19.0756 4.73604 22 8.11111 22H15.8889C19.264 22 22 19.0756 22 15.4681V11.9957C22 10.0572 21.1944 8.21882 19.8011 6.9778L15.9122 3.51394C13.646 1.49535 10.354 1.49535 8.08776 3.51395L4.19887 6.97781ZM9.41603 18.624C10.9808 17.5809 13.0192 17.5809 14.584 18.624C14.9286 18.8538 15.3943 18.7607 15.624 18.416C15.8538 18.0714 15.7607 17.6057 15.416 17.376C13.3474 15.9969 10.6526 15.9969 8.58397 17.376C8.23933 17.6057 8.1462 18.0714 8.37596 18.416C8.60573 18.7607 9.07138 18.8538 9.41603 18.624Z" fill="#4E5964"/>
</svg>
