<svg width="24" height="24" viewBox="0 0 24 24" fill="none" xmlns="http://www.w3.org/2000/svg">
<path d="M8.88477 3.89439C10.6715 2.34217 13.3285 2.34217 15.1152 3.89439L20.1152 8.23814C21.1535 9.14029 21.75 10.4486 21.75 11.8241V16.9999C21.7498 19.6231 19.6233 21.7499 17 21.7499H15.75V16.9999C15.7499 14.9288 14.071 13.2499 12 13.2499C9.92897 13.2499 8.25006 14.9288 8.25 16.9999V21.7499H7C4.37674 21.7499 2.25015 19.6231 2.25 16.9999V11.8241C2.25 10.4486 2.84649 9.14029 3.88477 8.23814L8.88477 3.89439Z" fill="#4E5964"/>
<path d="M12 14.7499C13.2426 14.7499 14.2499 15.7573 14.25 16.9999V21.7499H9.75V16.9999C9.75006 15.7573 10.7574 14.7499 12 14.7499Z" fill="#4E5964"/>
<path d="M16 6V4C16 3.44772 16.4477 3 17 3H18C18.5523 3 19 3.44772 19 4V8" stroke="#4E5964" stroke-width="1.42499"/>
</svg>
