<svg width="24" height="24" viewBox="0 0 24 24" fill="none" xmlns="http://www.w3.org/2000/svg">
<path fill-rule="evenodd" clip-rule="evenodd" d="M2.25 7.5C2.25 4.60051 4.60051 2.25 7.5 2.25H16.5C19.3995 2.25 21.75 4.60051 21.75 7.5V16.5C21.75 19.3995 19.3995 21.75 16.5 21.75H7.5C4.60051 21.75 2.25 19.3995 2.25 16.5V7.5ZM8 7.25C8.41421 7.25 8.75 7.58579 8.75 8V16C8.75 16.4142 8.41421 16.75 8 16.75C7.58579 16.75 7.25 16.4142 7.25 16V8C7.25 7.58579 7.58579 7.25 8 7.25ZM11 7.25C10.5858 7.25 10.25 7.58579 10.25 8C10.25 8.41421 10.5858 8.75 11 8.75H15.25V11.25H11.75V11C11.75 10.5858 11.4142 10.25 11 10.25C10.5858 10.25 10.25 10.5858 10.25 11V16C10.25 16.4142 10.5858 16.75 11 16.75C11.4142 16.75 11.75 16.4142 11.75 16V12.75H15.25V16C15.25 16.4142 15.5858 16.75 16 16.75C16.4142 16.75 16.75 16.4142 16.75 16V8.29143C16.75 7.71626 16.2837 7.25 15.7086 7.25H11Z" fill="#4E5964"/>
</svg>
