<svg width="24" height="24" viewBox="0 0 24 24" fill="none" xmlns="http://www.w3.org/2000/svg">
<path d="M16.5 2.25C19.3995 2.25 21.75 4.60051 21.75 7.5V16.5C21.75 19.3995 19.3995 21.75 16.5 21.75H7.5C4.60051 21.75 2.25 19.3995 2.25 16.5V7.5C2.25 4.60051 4.60051 2.25 7.5 2.25H16.5ZM8.25195 8C8.084 8.00002 8.00002 8.084 8 8.25195V15.4639C8 15.6319 8.08398 15.7158 8.25195 15.7158H9.27246C9.44015 15.7157 9.52441 15.6317 9.52441 15.4639V8.25195C9.5244 8.08414 9.44014 8.00015 9.27246 8H8.25195ZM12.9033 8C12.7193 8 12.599 8.08395 12.543 8.25195L10.6475 15.4639C10.5995 15.6318 10.6472 15.7157 10.791 15.7158H11.9434C12.0233 15.7158 12.0793 15.7 12.1113 15.668C12.1513 15.628 12.1793 15.5598 12.1953 15.4639L12.5312 14.1436H14.8711L15.207 15.4639C15.223 15.5599 15.2473 15.628 15.2793 15.668C15.3113 15.6999 15.3711 15.7158 15.459 15.7158H16.6113C16.7552 15.7158 16.8029 15.6318 16.7549 15.4639L14.8594 8.25195C14.8194 8.08396 14.699 8 14.499 8H12.9033ZM13.7314 9.45215L14.5957 12.9199H12.8193L13.6836 9.45215H13.7314Z" fill="#4E5964"/>
</svg>
