<svg width="24" height="24" viewBox="0 0 24 24" fill="none" xmlns="http://www.w3.org/2000/svg">
<path d="M16.5 2.25C19.3995 2.25 21.75 4.60051 21.75 7.5V16.5C21.75 19.3995 19.3995 21.75 16.5 21.75H7.5C4.60051 21.75 2.25 19.3995 2.25 16.5V7.5C2.25 4.60051 4.60051 2.25 7.5 2.25H16.5ZM8.25 7C7.83579 7 7.5 7.33579 7.5 7.75V15.75C7.5 16.1642 7.83579 16.5 8.25 16.5C8.66421 16.5 9 16.1642 9 15.75V7.75C9 7.33579 8.66421 7 8.25 7ZM13.917 7C13.6344 7 13.3796 7.15845 13.252 7.40332L13.2051 7.5127L10.5381 15.5127C10.4071 15.9057 10.6197 16.3309 11.0127 16.4619C11.4057 16.5929 11.8309 16.3803 11.9619 15.9873L12.5312 14.2783H15.3027L15.8721 15.9873C16.0031 16.38 16.4275 16.5927 16.8203 16.4619C17.2133 16.3309 17.4259 15.9057 17.2949 15.5127L14.6279 7.5127C14.5258 7.20665 14.2396 7.00014 13.917 7ZM14.8027 12.7783H13.0312L13.916 10.1211L14.8027 12.7783Z" fill="#4E5964"/>
</svg>
