<svg width="24" height="24" viewBox="0 0 24 24" fill="none" xmlns="http://www.w3.org/2000/svg">
<path fill-rule="evenodd" clip-rule="evenodd" d="M7.5 3C4.46243 3 2 5.46243 2 8.5V15.5C2 18.5376 4.46243 21 7.5 21H16.5C19.5376 21 22 18.5376 22 15.5V8.5C22 5.46243 19.5376 3 16.5 3H7.5ZM8.25 7.5C8.66421 7.5 9 7.83579 9 8.25C9 8.66421 8.66421 9 8.25 9H5.75C5.33579 9 5 8.66421 5 8.25C5 7.83579 5.33579 7.5 5.75 7.5H8.25ZM9 16.25C9 15.8358 8.66421 15.5 8.25 15.5H5.75C5.33579 15.5 5 15.8358 5 16.25C5 16.6642 5.33579 17 5.75 17H8.25C8.66421 17 9 16.6642 9 16.25ZM7.25 11.5C7.66421 11.5 8 11.8358 8 12.25C8 12.6642 7.66421 13 7.25 13H5.75C5.33579 13 5 12.6642 5 12.25C5 11.8358 5.33579 11.5 5.75 11.5H7.25ZM16.0259 7.97703C15.6745 7.65808 15.1768 7.70083 14.9498 7.94707C14.6813 8.2384 14.672 8.70489 14.9928 9.05293C15.2217 9.30118 15.6838 9.34313 16.0361 9.01353C16.3073 8.75992 16.3385 8.30181 16.0259 7.97703ZM17.0568 6.88724C16.2041 6.09356 14.7344 5.96768 13.8469 6.9304C12.9974 7.85194 13.0927 9.20476 13.8899 10.0696C14.7791 11.0342 16.2091 10.9056 17.0608 10.109C17.9896 9.24022 17.9619 7.80208 17.0846 6.91421L17.0708 6.90047L17.0568 6.88724ZM12.75 13.75C12.75 13.1977 13.1977 12.75 13.75 12.75H17.25C17.8023 12.75 18.25 13.1977 18.25 13.75V14.5C18.25 15.4665 17.4665 16.25 16.5 16.25H14.5C13.5335 16.25 12.75 15.4665 12.75 14.5V13.75ZM13.75 11.25C12.3693 11.25 11.25 12.3693 11.25 13.75V14.5C11.25 16.2949 12.7051 17.75 14.5 17.75H16.5C18.2949 17.75 19.75 16.2949 19.75 14.5V13.75C19.75 12.3693 18.6307 11.25 17.25 11.25H13.75Z" fill="#4E5964"/>
</svg>
