<svg width="24" height="24" viewBox="0 0 24 24" fill="none" xmlns="http://www.w3.org/2000/svg">
<path fill-rule="evenodd" clip-rule="evenodd" d="M7.5 2.25C4.60051 2.25 2.25 4.60051 2.25 7.5V16.5C2.25 19.3995 4.60051 21.75 7.5 21.75H16.5C19.3995 21.75 21.75 19.3995 21.75 16.5V7.5C21.75 4.60051 19.3995 2.25 16.5 2.25H7.5ZM8.25 7.5C8.66421 7.5 9 7.83579 9 8.25C9 8.66421 8.66421 9 8.25 9H6.75C6.33579 9 6 8.66421 6 8.25C6 7.83579 6.33579 7.5 6.75 7.5H8.25ZM9 16.25C9 15.8358 8.66421 15.5 8.25 15.5H6.75C6.33579 15.5 6 15.8358 6 16.25C6 16.6642 6.33579 17 6.75 17H8.25C8.66421 17 9 16.6642 9 16.25ZM7.25 11.5C7.66421 11.5 8 11.8358 8 12.25C8 12.6642 7.66421 13 7.25 13H6.75C6.33579 13 6 12.6642 6 12.25C6 11.8358 6.33579 11.5 6.75 11.5H7.25ZM16.0568 6.88724C15.2041 6.09356 13.7344 5.96768 12.8469 6.9304C11.9974 7.85194 12.0927 9.20476 12.8899 10.0696C13.7791 11.0342 15.2091 10.9056 16.0608 10.109C16.9896 9.24022 16.9619 7.80208 16.0846 6.91421L16.0708 6.90047L16.0568 6.88724ZM12.75 11.25C11.3693 11.25 10.25 12.3693 10.25 13.75V14.5C10.25 16.2949 11.7051 17.75 13.5 17.75H15.5C17.2949 17.75 18.75 16.2949 18.75 14.5V13.75C18.75 12.3693 17.6307 11.25 16.25 11.25H12.75Z" fill="#4E5964"/>
</svg>
