<svg width="24" height="24" viewBox="0 0 24 24" fill="none" xmlns="http://www.w3.org/2000/svg">
<path fill-rule="evenodd" clip-rule="evenodd" d="M12 22C17.5228 22 22 17.5228 22 12C22 6.47715 17.5228 2 12 2C6.47715 2 2 6.47715 2 12C2 17.5228 6.47715 22 12 22ZM12.917 16.5035L12.5415 11.9983C12.5181 11.7166 12.2826 11.5 12 11.5C11.7174 11.5 11.4819 11.7166 11.4585 11.9983L11.083 16.5035C11.0383 17.0399 11.4617 17.5 12 17.5C12.5383 17.5 12.9617 17.0399 12.917 16.5035ZM12 9.5C12.5523 9.5 13 9.05228 13 8.5C13 7.94772 12.5523 7.5 12 7.5H11.991C11.4387 7.5 10.991 7.94772 10.991 8.5C10.991 9.05228 11.4387 9.5 11.991 9.5H12Z" fill="#00ABB8"/>
</svg>
