<svg width="24" height="24" viewBox="0 0 24 24" fill="none" xmlns="http://www.w3.org/2000/svg">
<path fill-rule="evenodd" clip-rule="evenodd" d="M2.25 12C2.25 6.61522 6.61522 2.25 12 2.25C17.3848 2.25 21.75 6.61522 21.75 12C21.75 17.3848 17.3848 21.75 12 21.75C6.61522 21.75 2.25 17.3848 2.25 12ZM12 17.75C11.5858 17.75 11.25 17.4142 11.25 17V12C11.25 11.5858 11.5858 11.25 12 11.25C12.4142 11.25 12.75 11.5858 12.75 12V17C12.75 17.4142 12.4142 17.75 12 17.75ZM11 8.44189C11 8.99418 11.4477 9.4419 12 9.44189C12.5523 9.44189 13 8.99418 13 8.44189V8.42236C13 7.87008 12.5523 7.42236 12 7.42236C11.4477 7.42236 11 7.87008 11 8.42236V8.44189Z" fill="#4E5964"/>
</svg>
