<svg width="24" height="24" viewBox="0 0 24 24" fill="none" xmlns="http://www.w3.org/2000/svg">
<path d="M8.51483 8.31677C9.2207 7.84246 10.1781 8.02993 10.6525 8.73572L11.7365 10.35L12.2394 10.0131L12.2717 9.99158L12.2726 9.99255C12.9243 9.57877 13.7799 9.73566 14.2453 10.3441L14.7844 9.98279L14.9113 9.90564C15.5426 9.56851 16.3347 9.74588 16.7609 10.3324L17.008 10.1674C17.8311 9.61429 18.9471 9.83355 19.5002 10.6566L21.3078 13.347C21.8716 14.1861 22.1172 15.1995 21.9992 16.2035L21.9611 16.5218C21.8168 17.7496 21.1434 18.8529 20.1174 19.5424L17.3976 21.3695C16.6914 21.8439 15.8026 21.9579 15.0002 21.6752L13.133 21.017L9.48749 19.8168C8.46814 19.4808 7.93505 18.3696 8.28436 17.3676C8.59822 16.4678 9.53888 15.9297 10.4797 16.1351L11.4367 16.3431L7.71014 10.7972C7.21438 10.0594 7.4109 9.05872 8.14862 8.56287L8.51483 8.31677Z" fill="#4E5964"/>
<path d="M6.40057 3.10193C7.66672 2.43954 9.09003 2.14523 10.5119 2.2533C11.9339 2.36147 13.2982 2.86813 14.4523 3.71423C15.6061 4.56027 16.5044 5.71367 17.05 7.04431C17.2109 7.43731 17.0239 7.8859 16.631 8.04724C16.2378 8.20848 15.7874 8.02055 15.6262 7.62732C15.1872 6.55696 14.4656 5.6325 13.5422 4.95544C12.6188 4.27845 11.5295 3.87474 10.3957 3.78845C9.26189 3.70223 8.12526 3.93588 7.11346 4.46521C6.10164 4.99468 5.25219 5.79991 4.66132 6.79138C4.07045 7.78298 3.76179 8.92292 3.76971 10.0834C3.77773 11.2437 4.10198 12.3787 4.70624 13.3617C5.31052 14.3445 6.17088 15.1366 7.18964 15.6517C7.56884 15.8434 7.72101 16.3067 7.52948 16.6859C7.33769 17.0651 6.87454 17.2175 6.4953 17.0258C5.22024 16.3811 4.14794 15.3909 3.39569 14.1674C2.64352 12.9438 2.24049 11.5334 2.23065 10.0931C2.22086 8.65298 2.60479 7.23715 3.34003 6.0033C4.07547 4.76946 5.13457 3.76433 6.40057 3.10193Z" fill="#4E5964"/>
<path d="M10.217 4.75427C11.1585 4.82587 12.0618 5.16129 12.8254 5.72107C13.5885 6.28067 14.1836 7.0422 14.5441 7.92126C14.7052 8.31445 14.5164 8.76493 14.1232 8.92615C13.7304 9.08688 13.2818 8.89872 13.1203 8.50623C12.8664 7.88708 12.4482 7.35209 11.9152 6.9613C11.3823 6.5707 10.7541 6.33813 10.1008 6.28845C9.4476 6.23884 8.79257 6.37389 8.20917 6.67908C7.6258 6.98441 7.1356 7.44899 6.79413 8.02185C6.45251 8.59507 6.27295 9.25457 6.27753 9.92615C6.28216 10.5974 6.47039 11.2535 6.81952 11.8217C7.16881 12.3898 7.66548 12.8488 8.25311 13.1459C8.63209 13.3377 8.78445 13.7999 8.59296 14.1791C8.40108 14.5581 7.93793 14.7096 7.55878 14.5179C6.71516 14.0914 6.00612 13.4369 5.50897 12.6283C5.01189 11.8197 4.74504 10.8881 4.73846 9.93689C4.73197 8.98563 4.98595 8.05024 5.47186 7.23474C5.95792 6.41915 6.6575 5.75323 7.4953 5.31482C8.33309 4.87648 9.27566 4.68283 10.217 4.75427Z" fill="#4E5964"/>
</svg>
