<svg width="24" height="24" viewBox="0 0 24 24" fill="none" xmlns="http://www.w3.org/2000/svg">
<path fill-rule="evenodd" clip-rule="evenodd" d="M18.0469 2C18.603 2 19.1223 2.27792 19.4307 2.74063L19.4857 2.82356C19.5172 2.87087 19.5415 2.92109 19.5609 2.97207C19.5766 2.99599 19.5912 3.02109 19.6043 3.04729L19.6766 3.19098L19.8203 3.47932L20.1087 4.05504L21.4723 6.78417C21.8206 7.48108 21.7459 8.31523 21.2784 8.93854L19.9399 10.7216V15.6958C19.9399 16.7652 19.5148 17.7912 18.7586 18.5474L16.1799 21.1261C15.7802 21.5256 15.2378 21.75 14.6726 21.75H11.1344C10.5372 21.75 10.0395 21.3259 9.92507 20.7625H7.40618C7.29179 21.3259 6.79404 21.75 6.19687 21.75H4.71562C3.21583 21.75 2 20.5342 2 19.0344V12.6648L6.49197 10.2693L5.06858 8.69456L3.87471 7.55565L3.84867 7.52961L3.82456 7.50165L3.08394 6.63759C2.79751 6.30342 2.80531 5.86656 3.00679 5.54883C3.03307 5.42554 3.08866 5.30675 3.17941 5.20648C3.53172 4.81728 4.2886 4.05999 4.94032 3.41664C5.26966 3.09153 5.57764 2.78938 5.80342 2.56897C5.91631 2.45876 6.00925 2.3691 6.07344 2.30667C6.10547 2.27551 6.13066 2.25088 6.14769 2.23434C6.15601 2.22626 6.16261 2.22025 6.16698 2.21602C6.16919 2.21387 6.17067 2.21133 6.1718 2.21023L6.17277 2.20927C6.22746 2.15621 6.29049 2.11579 6.35503 2.08293C6.37087 2.07484 6.38581 2.06483 6.40228 2.05786L6.42157 2.05015C6.44446 2.04127 6.46848 2.03641 6.49197 2.0299C6.5115 2.02445 6.53065 2.01735 6.55079 2.0135C6.55786 2.01216 6.56491 2.01078 6.57201 2.00964C6.61064 2.00342 6.65024 2 6.69062 2H18.0469ZM5.70312 16.4837C5.29409 16.4837 4.9625 16.8152 4.9625 17.2243V17.718C4.96276 18.1268 5.29425 18.4587 5.70312 18.4587C6.112 18.4587 6.44349 18.1268 6.44375 17.718V17.2243C6.44375 16.8152 6.11216 16.4837 5.70312 16.4837ZM8.66562 16.4837C8.25659 16.4837 7.925 16.8152 7.925 17.2243V17.718C7.92526 18.1268 8.25675 18.4587 8.66562 18.4587C9.0745 18.4587 9.40599 18.1268 9.40625 17.718V17.2243C9.40625 16.8152 9.07466 16.4837 8.66562 16.4837ZM11.6281 16.4837C11.2191 16.4837 10.8875 16.8152 10.8875 17.2243V17.718C10.8878 18.1268 11.2192 18.4587 11.6281 18.4587C12.037 18.4587 12.3685 18.1268 12.3687 17.718V17.2243C12.3687 16.8152 12.0372 16.4837 11.6281 16.4837ZM8.41875 14.0149H11.1344C11.1798 14.0149 11.2163 13.9774 11.2163 13.932C11.2165 13.0686 11.9171 12.3688 12.7805 12.3688H15.0246L16.7537 11.2163H8.41875V14.0149ZM5.65298 12.3948C6.38316 12.5264 6.93733 13.1639 6.9375 13.932V11.7101L5.65298 12.3948ZM9.39468 5.45625C9.31363 6.10557 8.76115 6.60849 8.0899 6.60865H5.02808L6.1043 7.63666L6.12455 7.65498L6.14191 7.67523L8.00601 9.7351H17.9225L16.1355 6.60865H14.1788C13.5076 6.60849 12.9551 6.10557 12.8741 5.45625H9.39468Z" fill="#4E5964"/>
</svg>
