<svg width="24" height="24" viewBox="0 0 24 24" fill="none" xmlns="http://www.w3.org/2000/svg">
<path fill-rule="evenodd" clip-rule="evenodd" d="M21.3799 5.37598C21.6196 5.06852 21.75 4.68969 21.75 4.2998C21.7499 3.16186 20.8274 2.23935 19.6895 2.23926H4.31055C3.17259 2.23936 2.25011 3.16185 2.25 4.2998C2.24999 4.68972 2.38036 5.0685 2.62012 5.37598L5.00293 8.43066L2.90918 10.5254C2.48724 10.9473 2.25 11.5195 2.25 12.1162V18.4951C2.25014 20.5661 3.92903 22.2451 6 22.2451H18C20.071 22.2451 21.7499 20.5661 21.75 18.4951V12.1162C21.75 11.5195 21.5128 10.9473 21.0908 10.5254L18.9961 8.43066L21.3799 5.37598ZM3.96973 11.5859C3.92354 11.6321 3.88579 11.6847 3.85352 11.7402L6.83496 11.7441C7.17857 11.7447 7.51456 11.847 7.80078 12.0371L9.54785 13.1973C9.58881 13.2245 9.63735 13.2392 9.68652 13.2393H14.583C14.6322 13.2392 14.6807 13.2245 14.7217 13.1973L16.4688 12.0371C16.7556 11.8466 17.0922 11.7451 17.4365 11.7451H20.1484C20.1157 11.6879 20.0777 11.6334 20.0303 11.5859L17.6895 9.24512H6.31055L3.96973 11.5859ZM20.25 4.2998C20.2499 3.99028 19.999 3.73935 19.6895 3.73926H16.2695L15.5557 4.32812C15.2111 4.61227 14.7587 4.7392 14.334 4.73926H9.66602C9.24135 4.7392 8.7889 4.61227 8.44434 4.32812L7.73047 3.73926H4.31055C4.00102 3.73936 3.75011 3.99028 3.75 4.2998C3.75 4.35553 3.76846 4.41017 3.80273 4.4541L6.29102 7.64258C6.33839 7.7033 6.41126 7.73926 6.48828 7.73926H17.5117C17.5887 7.73926 17.6616 7.7033 17.709 7.64258L20.1973 4.4541C20.2315 4.41017 20.25 4.35553 20.25 4.2998ZM9 16.7393C8.58587 16.7393 8.25012 17.081 8.25 17.4951C8.2501 17.9092 8.58586 18.2451 9 18.2451C9.41415 18.2451 9.7499 17.9034 9.75 17.4893C9.74988 17.0751 9.41414 16.7393 9 16.7393ZM12 16.7393C11.5859 16.7393 11.2501 17.081 11.25 17.4951C11.2501 17.9092 11.5859 18.2451 12 18.2451C12.4141 18.2451 12.7499 17.9034 12.75 17.4893C12.7499 17.0751 12.4141 16.7393 12 16.7393ZM15 16.7393C14.5859 16.7393 14.2501 17.081 14.25 17.4951C14.2501 17.9092 14.5859 18.2451 15 18.2451C15.4141 18.2451 15.7499 17.9034 15.75 17.4893C15.7499 17.0751 15.4141 16.7393 15 16.7393Z" fill="#4E5964"/>
</svg>
