<svg width="24" height="24" viewBox="0 0 24 24" fill="none" xmlns="http://www.w3.org/2000/svg">
<path d="M5.25 21V3C5.25 2.58579 5.58579 2.25 6 2.25C6.41421 2.25 6.75 2.58579 6.75 3V13.9521L16.4277 2.51562C16.6953 2.1995 17.1682 2.1602 17.4844 2.42773C17.8005 2.69531 17.8398 3.1682 17.5723 3.48438L11.5957 10.5469C11.6017 10.5547 11.6086 10.5622 11.6143 10.5703L18.6143 20.5703C18.8516 20.9096 18.769 21.3768 18.4297 21.6143C18.0904 21.8516 17.6232 21.769 17.3857 21.4297L10.5947 11.7295L6.75 16.2734V21C6.75 21.4142 6.41421 21.75 6 21.75C5.58579 21.75 5.25 21.4142 5.25 21Z" fill="#4E5964"/>
</svg>
