<svg width="24" height="24" viewBox="0 0 24 24" fill="none" xmlns="http://www.w3.org/2000/svg">
<path d="M11.9509 4.5916C11.5367 4.5916 11.2009 4.25581 11.2009 3.8416V3C11.2009 2.58579 11.5367 2.25 11.9509 2.25C12.3651 2.25 12.7009 2.58579 12.7009 3V3.8416C12.7009 4.25581 12.3651 4.5916 11.9509 4.5916Z" fill="#4E5964"/>
<path d="M7.2742 6.73912C6.98131 7.03201 6.50644 7.03201 6.21354 6.73912L5.46967 5.99524C5.17678 5.70235 5.17678 5.22747 5.46967 4.93458C5.76256 4.64169 6.23744 4.64169 6.53033 4.93458L7.2742 5.67846C7.5671 5.97135 7.5671 6.44622 7.2742 6.73912Z" fill="#4E5964"/>
<path d="M9.24973 21.0002C9.24973 20.586 9.58552 20.2502 9.99973 20.2502H13.999C14.4132 20.2502 14.7497 20.586 14.7497 21.0002C14.7497 21.4144 14.4139 21.7502 13.9997 21.7502H10C9.58579 21.7502 9.24973 21.4144 9.24973 21.0002Z" fill="#4E5964"/>
<path d="M6.99973 17.9745C6.99973 17.5603 7.33552 17.2245 7.74973 17.2245H9.18553V17.215C9.18553 16.7402 9.06868 16.2727 8.84527 15.8537L7.60454 13.5268C7.20733 12.7818 7 11.9476 7 11.1046C7 11.0856 7.00011 11.0665 7.00032 11.0475L7.00006 10.9967C7.00006 9.05458 8.13199 7.29059 9.8975 6.48139L9.97327 6.44666L9.98735 6.44018C10.5628 6.17643 11.1749 6.02472 11.7925 5.98503C11.9019 5.978 12.0115 5.97449 12.1211 5.97449C12.8493 5.97448 13.5775 6.12971 14.2548 6.44018L14.2689 6.44666L14.3447 6.48139C16.1102 7.29059 17.2421 9.05458 17.2421 10.9967L17.2419 11.0475C17.2421 11.0665 17.2422 11.0856 17.2422 11.1046C17.2422 11.5207 17.1917 11.9347 17.0927 12.3369C16.9931 12.6904 16.8115 13.2007 16.6377 13.5268L15.3969 15.8537C15.1735 16.2727 15.0567 16.7402 15.0567 17.215V17.2245H16.4997C16.9139 17.2245 17.2497 17.5603 17.2497 17.9745C17.2497 18.3887 16.9133 18.7245 16.499 18.7245H7.74973C7.33552 18.7245 6.99973 18.3887 6.99973 17.9745Z" fill="#4E5964"/>
<path d="M18.4874 4.5738C18.7803 4.86669 18.7803 5.34156 18.4874 5.63446L17.7435 6.37833C17.4506 6.67122 16.9757 6.67122 16.6828 6.37833C16.3899 6.08544 16.3899 5.61056 16.6828 5.31767L17.4267 4.5738C17.7196 4.2809 18.1945 4.2809 18.4874 4.5738Z" fill="#4E5964"/>
</svg>
