<svg width="24" height="24" viewBox="0 0 24 24" fill="none" xmlns="http://www.w3.org/2000/svg">
<path d="M14.077 20.2537C14.4547 20.2925 14.7497 20.6118 14.7499 20.9998C14.7499 21.3878 14.4548 21.707 14.077 21.7458L13.9999 21.7498H9.99986C9.58564 21.7498 9.24986 21.414 9.24986 20.9998C9.24999 20.5857 9.58572 20.2498 9.99986 20.2498H13.9999L14.077 20.2537Z" fill="#4E5964"/>
<path d="M12.4208 5.51538C13.0202 5.54734 13.6163 5.67535 14.1844 5.89917L14.4667 6.01929L14.4676 6.02026L14.4784 6.02612L14.4793 6.02515L14.5516 6.05835C16.5001 6.95144 17.7498 8.89928 17.7499 11.0427V11.1453C17.7498 11.6235 17.6461 12.241 17.5438 12.657L17.5409 12.6697L17.537 12.6814C17.4276 13.0694 17.2769 13.447 17.0858 13.8054L15.9032 16.0222C15.7484 16.3126 15.6679 16.6375 15.6678 16.9666V17.2244H16.7499C17.1641 17.2244 17.4999 17.5602 17.4999 17.9744C17.4998 18.3885 17.164 18.7244 16.7499 18.7244H12.9959C11.8667 18.7244 10.4937 18.7307 9.40318 18.7371C8.85838 18.7403 8.38378 18.7435 8.04575 18.7458C7.87712 18.747 7.74189 18.7481 7.64927 18.7488C7.60331 18.7491 7.56693 18.7496 7.54282 18.7498H7.50571C7.09181 18.7528 6.75323 18.4196 6.74986 18.0056C6.74675 17.5917 7.08011 17.2533 7.494 17.2498H7.53111C7.5553 17.2496 7.59143 17.2491 7.63755 17.2488C7.73039 17.2481 7.86589 17.2471 8.03501 17.2458C8.18855 17.2448 8.37056 17.2433 8.57407 17.2419V16.9666C8.57403 16.6374 8.49361 16.3127 8.33872 16.0222L7.15611 13.8054C6.71968 12.9868 6.49211 12.0706 6.49204 11.1453V11.0427C6.49214 8.89944 7.74199 6.95153 9.69028 6.05835L9.76255 6.02515L9.77427 6.02026L9.77525 6.01929C10.4075 5.72952 11.081 5.56297 11.7596 5.51929C11.8797 5.51157 12.0007 5.50758 12.1209 5.50757L12.4208 5.51538Z" fill="#4E5964"/>
<path d="M5.46958 4.93433C5.76242 4.64158 6.23725 4.64164 6.53013 4.93433L7.27427 5.67847C7.5668 5.97136 7.56696 6.44622 7.27427 6.73901C6.98149 7.0318 6.50664 7.03158 6.21372 6.73901L5.46958 5.99487C5.17686 5.70197 5.17675 5.22716 5.46958 4.93433Z" fill="#4E5964"/>
<path d="M17.4266 4.57397C17.7195 4.28117 18.1943 4.28111 18.4872 4.57397C18.7797 4.86687 18.7799 5.34173 18.4872 5.63452L17.743 6.37769C17.4502 6.67055 16.9754 6.67051 16.6825 6.37769C16.3898 6.08477 16.3897 5.60996 16.6825 5.31714L17.4266 4.57397Z" fill="#4E5964"/>
<path d="M11.951 2.24976C12.365 2.24998 12.7009 2.58577 12.701 2.99976V3.84155C12.7009 4.25551 12.365 4.59133 11.951 4.59155C11.5369 4.59155 11.2012 4.25565 11.201 3.84155V2.99976C11.2011 2.58563 11.5369 2.24976 11.951 2.24976Z" fill="#4E5964"/>
</svg>
