<svg width="24" height="24" viewBox="0 0 24 24" fill="none" xmlns="http://www.w3.org/2000/svg">
<path d="M8.25 21.75H7C4.37665 21.75 2.25 19.6234 2.25 17V13.75H8C8.08502 13.75 8.16822 13.7412 8.25 13.7295V21.75Z" fill="#4E5964"/>
<path d="M21.75 17C21.75 19.6234 19.6234 21.75 17 21.75H9.75V9.5C9.75 9.36193 9.86193 9.25 10 9.25H21.75V17Z" fill="#4E5964"/>
<path d="M8.25 12C8.25 12.1381 8.13807 12.25 8 12.25H2.25V7C2.25 4.37665 4.37665 2.25 7 2.25H8.25V12Z" fill="#4E5964"/>
<path d="M17 2.25C19.6234 2.25 21.75 4.37665 21.75 7V7.75H10C9.91503 7.75 9.83173 7.75783 9.75 7.76953V2.25H17Z" fill="#4E5964"/>
</svg>
