<svg width="24" height="24" viewBox="0 0 24 24" fill="none" xmlns="http://www.w3.org/2000/svg">
<path d="M3.019 15.3702C2.92156 14.6892 3.2038 14.0093 3.7549 13.5975L13.9193 6.00255C13.9924 5.94795 14.0434 5.86891 14.0631 5.77984L14.446 4.04594C14.6467 3.1375 15.5457 2.56372 16.4542 2.76437C16.9026 2.8634 17.2911 3.14119 17.5298 3.53344L19.0762 6.07412C19.556 6.8625 19.3928 7.88259 18.6909 8.48187L15.5482 11.1651C15.3179 11.3617 15.3984 11.7354 15.6891 11.8198L19.0843 12.8053C20.579 13.2392 20.8221 15.2542 19.4734 16.0311C19.1571 16.2133 18.792 16.293 18.4285 16.2591L10.8176 15.5508C10.7245 15.5421 10.6314 15.568 10.5562 15.6237L5.54479 19.3295C4.7443 19.9215 3.60184 19.4439 3.46083 18.4583L3.019 15.3702Z" fill="#4E5964"/>
<path d="M6.36289 10.5074C6.28436 10.9139 5.89139 11.1769 5.48517 11.0948C5.07896 11.0128 4.81331 10.6167 4.89184 10.2102L5.5544 6.78071C5.59835 6.5532 5.69033 6.33811 5.82418 6.14982C6.63537 5.00872 8.41873 5.37429 8.73684 6.74689L8.95695 7.69666C9.05073 8.10131 8.80009 8.50285 8.39712 8.59351C7.99415 8.68418 7.59145 8.42964 7.49767 8.02498L7.27756 7.07521C7.26916 7.03896 7.25513 7.02082 7.24287 7.00939C7.22793 6.99546 7.20534 6.98273 7.17683 6.97688C7.14832 6.97104 7.12268 6.97388 7.10364 6.98085C7.08802 6.98657 7.06823 6.99778 7.04681 7.02791C7.03621 7.04283 7.02892 7.05986 7.02544 7.07789L6.36289 10.5074Z" fill="#4E5964"/>
</svg>
