<svg width="24" height="24" viewBox="0 0 24 24" fill="none" xmlns="http://www.w3.org/2000/svg">
<path fill-rule="evenodd" clip-rule="evenodd" d="M7.5 2.25C4.60051 2.25 2.25 4.60051 2.25 7.5V16.5C2.25 19.3995 4.60051 21.75 7.5 21.75H16.5C19.3995 21.75 21.75 19.3995 21.75 16.5V7.5C21.75 4.60051 19.3995 2.25 16.5 2.25H7.5ZM9.75 7C9.75 6.58579 9.41421 6.25 9 6.25C8.58579 6.25 8.25 6.58579 8.25 7V8.25H7C6.58579 8.25 6.25 8.58579 6.25 9C6.25 9.41421 6.58579 9.75 7 9.75H8.12204C7.81315 10.6243 6.97939 11.25 6 11.25C5.58579 11.25 5.25 11.5858 5.25 12C5.25 12.4142 5.58579 12.75 6 12.75C7.01506 12.75 7.9364 12.3466 8.61181 11.691C9.22214 12.3272 10.0508 12.75 11 12.75C11.4142 12.75 11.75 12.4142 11.75 12C11.75 11.5858 11.4142 11.25 11 11.25C10.4692 11.25 9.96627 10.9916 9.578 10.5221C9.54584 10.4832 9.51058 10.4484 9.47288 10.4177C9.56007 10.2043 9.62816 9.981 9.67503 9.75H14.1974C13.7706 12.7814 10.7909 15.25 7 15.25C6.58579 15.25 6.25 15.5858 6.25 16C6.25 16.4142 6.58579 16.75 7 16.75C9.18957 16.75 11.226 16.0275 12.7824 14.8178C14.153 16.0095 15.975 16.75 18 16.75C18.4142 16.75 18.75 16.4142 18.75 16C18.75 15.5858 18.4142 15.25 18 15.25C16.4067 15.25 14.9778 14.6896 13.8863 13.7873C14.8873 12.6627 15.5466 11.28 15.7102 9.75H18C18.4142 9.75 18.75 9.41421 18.75 9C18.75 8.58579 18.4142 8.25 18 8.25H15.75V7C15.75 6.58579 15.4142 6.25 15 6.25C14.5858 6.25 14.25 6.58579 14.25 7V8.25H9.75V7Z" fill="#4E5964"/>
</svg>
