<svg width="24" height="24" viewBox="0 0 24 24" fill="none" xmlns="http://www.w3.org/2000/svg">
<path fill-rule="evenodd" clip-rule="evenodd" d="M7.45239 20.1961C7.16936 19.8936 7.1851 19.419 7.48754 19.136L8.21769 18.4527C8.52013 18.1697 8.99474 18.1854 9.27777 18.4878C9.56079 18.7903 9.54505 19.2649 9.24262 19.5479L8.51246 20.2312C8.21002 20.5142 7.73541 20.4985 7.45239 20.1961ZM3.45239 16.1961C3.16936 15.8936 3.1851 15.419 3.48754 15.136L4.21769 14.4527C4.52013 14.1697 4.99474 14.1854 5.27777 14.4878C5.56079 14.7903 5.54505 15.2649 5.24262 15.5479L4.51246 16.2312C4.21002 16.5142 3.73541 16.4985 3.45239 16.1961ZM4.18578 19.4832C3.90276 19.1807 3.9185 18.7061 4.22094 18.4231L5.68124 17.0565C5.98368 16.7735 6.45829 16.7892 6.74132 17.0917C7.02434 17.3941 7.00861 17.8687 6.70617 18.1517L5.24586 19.5183C4.94342 19.8013 4.46881 19.7856 4.18578 19.4832ZM15.7569 15.0657L13.1725 17.5993L15.4824 19.9493C15.631 20.1048 15.7841 20.1654 15.8922 20.1766C15.9929 20.1871 16.0626 20.159 16.1158 20.1075C16.2872 19.9417 16.396 19.6666 16.3481 19.3165L15.7569 15.0657ZM17.1652 13.6789L17.9192 19.1002C18.0276 19.8902 17.7954 20.6892 17.2185 21.2473C16.3475 22.0901 15.0828 21.8228 14.3401 21.0495L11.4196 18.0784C11.3456 18.0767 11.2741 18.0705 11.2061 18.0612C10.8426 18.0118 10.4718 17.8644 10.1242 17.6763C9.42286 17.2967 8.6553 16.6635 7.95891 15.8806C7.26253 15.0976 6.72311 14.2615 6.42791 13.5206C6.29642 13.1906 6.19978 12.8458 6.17668 12.5131L2.87557 9.35762C2.48835 8.97459 2.23957 8.49018 2.20997 7.96496C2.17991 7.4316 2.38149 6.92569 2.7673 6.54246C3.33661 5.97696 4.1401 5.76027 4.92791 5.88296L4.92935 5.88319L10.3375 6.73564L12.417 4.69708C12.4414 4.72718 12.4685 4.75577 12.4982 4.78252L14.7336 6.79474L15.9697 8.03082C16.2626 8.32371 16.7374 8.32371 17.0303 8.03082C17.3232 7.73793 17.3232 7.26305 17.0303 6.97016L15.7664 5.70624L13.5018 3.66768C13.4951 3.66165 13.4883 3.65577 13.4815 3.65003C13.5053 3.62656 13.5293 3.603 13.5533 3.57936C14.7619 2.39179 16.5309 1.99966 18.3225 2.37401L19.5795 2.63664C20.4932 2.82754 21.2663 3.61342 21.4408 4.53067L21.6804 5.79062C22.0232 7.59307 21.5806 9.34387 20.3487 10.5126C20.1613 10.6904 19.9809 10.8626 19.8197 11.0185L17.1652 13.6789ZM6.48504 10.6139L8.95405 8.1231L4.68386 7.45002C4.33312 7.39556 4.05434 7.49941 3.88497 7.66765C3.80689 7.7452 3.78995 7.8145 3.79341 7.87573C3.79728 7.94447 3.83333 8.07243 3.98681 8.22588L6.48504 10.6139ZM7.78054 12.5502C7.87828 12.5831 8.00085 12.6355 8.14727 12.7147C8.64801 12.9857 9.27558 13.4874 9.8824 14.1697C10.4892 14.8519 10.9144 15.5337 11.1251 16.0626C11.1867 16.2173 11.2245 16.3451 11.2458 16.446C11.148 16.4131 11.0255 16.3607 10.8791 16.2815C10.3783 16.0105 9.75075 15.5088 9.14392 14.8265C8.53709 14.1443 8.11197 13.4625 7.90121 12.9336C7.83959 12.7789 7.80183 12.6511 7.78054 12.5502Z" fill="#4E5964"/>
</svg>
