<svg width="24" height="24" viewBox="0 0 24 24" fill="none" xmlns="http://www.w3.org/2000/svg">
<path fill-rule="evenodd" clip-rule="evenodd" d="M9.61824 4.30871C11.2892 3.30532 13.0638 2.57102 14.3015 2.11834C15.5283 1.66969 16.9633 2.0876 17.4866 3.34178C17.9094 4.35496 18.4408 5.83874 18.7171 7.44553C18.9916 9.04155 19.0285 10.838 18.3791 12.4255C17.5708 14.4015 15.7478 15.9389 13.991 17.0463C12.2127 18.1673 10.3838 18.9208 9.40716 19.2852C8.7298 19.5379 7.89454 19.3906 7.43692 18.7312C6.88686 17.9384 5.88406 16.3472 5.26386 14.4669C4.64709 12.597 4.36972 10.3175 5.45462 8.25587C6.31951 6.61231 7.96516 5.30134 9.61824 4.30871ZM16.4356 2.93668C16.7572 3.1977 16.8063 3.67003 16.5453 3.99165C14.9933 5.90391 13.7437 7.65638 12.7467 9.31094C13.547 9.22507 14.228 8.8806 14.92 8.25457C15.2272 7.97669 15.7015 8.00044 15.9794 8.30761C16.2573 8.61478 16.2335 9.08906 15.9263 9.36694C14.9262 10.2717 13.8196 10.8053 12.4411 10.8314C12.2638 10.8348 12.0997 10.7763 11.9693 10.6758C11.4248 11.6923 10.9761 12.6764 10.6106 13.6439C11.4226 13.7011 12.1795 13.4874 13 13.0106C13.3581 12.8025 13.8172 12.9241 14.0253 13.2822C14.2334 13.6403 14.1118 14.0994 13.7537 14.3075C12.6027 14.9764 11.4296 15.2872 10.119 15.0987C9.44864 17.3474 9.20474 19.5478 9.22269 21.9055C9.22584 22.3197 8.89262 22.658 8.47842 22.6612C8.06422 22.6643 7.72589 22.3311 7.72273 21.9169C7.70296 19.3201 7.98914 16.9049 8.74835 14.4501C8.74175 14.4433 8.73525 14.4363 8.72885 14.4291C7.76397 13.3512 7.43254 12.124 7.50212 10.7244C7.52268 10.3107 7.87473 9.99196 8.28843 10.0125C8.70213 10.0331 9.02083 10.3851 9.00027 10.7988C8.96297 11.5492 9.06966 12.1722 9.35711 12.7276C9.72108 11.8124 10.1545 10.8847 10.6656 9.93366C9.97431 9.21772 9.60062 8.34083 9.4371 7.31913C9.37164 6.91012 9.65014 6.52549 10.0592 6.46002C10.4682 6.39456 10.8528 6.67306 10.9183 7.08207C11.0117 7.66597 11.1826 8.14237 11.4588 8.54266C12.4962 6.82034 13.7882 5.0085 15.3806 3.04641C15.6416 2.72478 16.114 2.67566 16.4356 2.93668Z" fill="#4E5964"/>
</svg>
