<svg width="24" height="24" viewBox="0 0 24 24" fill="none" xmlns="http://www.w3.org/2000/svg">
<path d="M13.9899 2.25C13.1207 2.25 12.309 2.68439 11.8269 3.4076L10.3696 5.59345L9.04532 7.71694C8.76855 8.16073 8.56102 8.64112 8.42748 9.14161C7.77332 8.58552 6.92584 8.25 6 8.25H5.44444C3.6802 8.25 2.25 9.6802 2.25 11.4444V17.5556C2.25 19.3198 3.6802 20.75 5.44444 20.75H6C7.22118 20.75 8.30603 20.1663 8.99075 19.2626C9.01674 19.3057 9.0434 19.3484 9.0707 19.3908C10.0184 20.8614 11.6482 21.75 13.3978 21.75H17C19.6234 21.75 21.75 19.6234 21.75 17V12.6C21.75 10.1976 19.8024 8.25 17.4 8.25H17C16.6313 8.25 16.3414 7.93488 16.372 7.56747L16.5805 5.06547C16.7068 3.54986 15.5107 2.25 13.9899 2.25Z" fill="#4E5964"/>
</svg>
