<svg width="24" height="24" viewBox="0 0 24 24" fill="none" xmlns="http://www.w3.org/2000/svg">
<path d="M13.9899 2.24976C13.1207 2.24976 12.309 2.68415 11.8269 3.40735L10.3696 5.59321L9.04532 7.71669C8.76855 8.16048 8.56102 8.64088 8.42748 9.14136C7.77332 8.58528 6.92584 8.24976 6 8.24976H5.44444C3.6802 8.24976 2.25 9.67996 2.25 11.4442V17.5553C2.25 19.3196 3.6802 20.7498 5.44444 20.7498H6C7.22118 20.7498 8.30603 20.166 8.99075 19.2624C9.01674 19.3055 9.0434 19.3482 9.0707 19.3905C10.0184 20.8612 11.6482 21.7498 13.3978 21.7498H17C19.6234 21.7498 21.75 19.6231 21.75 16.9998V12.5998C21.75 10.1973 19.8024 8.24976 17.4 8.24976H17C16.6313 8.24976 16.3414 7.93464 16.372 7.56722L16.5805 5.06523C16.7068 3.54962 15.5107 2.24976 13.9899 2.24976Z" fill="#4E5964"/>
</svg>
