<svg width="24" height="24" viewBox="0 0 24 24" fill="none" xmlns="http://www.w3.org/2000/svg">
<path fill-rule="evenodd" clip-rule="evenodd" d="M22 17.3333V12.6667C22 10.4575 20.2091 8.66667 18 8.66667H17.3333C16.3925 8.66667 15.6539 7.86053 15.7359 6.92333L15.9601 4.36051C16.0712 3.09152 15.071 2 13.7971 2C13.0886 2 12.4247 2.34569 12.0184 2.92612L10.3333 5.33333L8.89876 7.52406C8.31235 8.41956 8 9.46671 8 10.5371V12C8 10.3431 6.65685 9 5 9H4.88889C3.2934 9 2 10.2934 2 11.8889V19.1111C2 20.7066 3.2934 22 4.88889 22H5C6.65685 22 8 20.6569 8 19V17.0274C8 18.0208 8.29753 18.9914 8.85425 19.8142C9.7792 21.1811 11.3221 22 12.9726 22H17.3333C19.9107 22 22 19.9107 22 17.3333Z" fill="#4E5964"/>
</svg>
