<svg width="24" height="24" viewBox="0 0 24 24" fill="none" xmlns="http://www.w3.org/2000/svg">
<path fill-rule="evenodd" clip-rule="evenodd" d="M22 17.3333V13.0345V12.6667C22 10.4575 20.2091 8.66667 18 8.66667H17.3333C16.3925 8.66667 15.6539 7.86053 15.7359 6.92333L15.9601 4.36051C16.0712 3.09152 15.071 2 13.7971 2C13.0886 2 12.4247 2.34569 12.0184 2.92612L10.3333 5.33333L8.89876 7.52406C8.31235 8.41956 8 9.46671 8 10.5371V12C8 10.3431 6.65685 9 5 9H4.88889C3.2934 9 2 10.2934 2 11.8889V19.1111C2 20.7066 3.2934 22 4.88889 22H5C6.65685 22 8 20.6569 8 19V17.0274C8 18.0208 8.29753 18.9914 8.85425 19.8142C9.7792 21.1811 11.3221 22 12.9726 22H17.3333C19.9107 22 22 19.9107 22 17.3333Z" fill="#4E5964"/>
<path d="M17.3333 8.66667V7.91667V8.66667ZM15.7359 6.92333L14.9887 6.85795L15.7359 6.92333ZM15.9601 4.36051L16.7073 4.42588V4.42588L15.9601 4.36051ZM12.0184 2.92612L11.404 2.49602V2.49602L12.0184 2.92612ZM10.3333 5.33333L9.71891 4.90324L9.71225 4.91275L9.70589 4.92246L10.3333 5.33333ZM8.89876 7.52406L9.5262 7.93493L8.89876 7.52406ZM8.85425 19.8142L8.23309 20.2345L8.85425 19.8142ZM21.25 13.0345V17.3333H22.75V13.0345H21.25ZM21.25 12.6667V13.0345H22.75V12.6667H21.25ZM18 9.41667C19.7949 9.41667 21.25 10.8717 21.25 12.6667H22.75C22.75 10.0433 20.6234 7.91667 18 7.91667V9.41667ZM17.3333 9.41667H18V7.91667H17.3333V9.41667ZM14.9887 6.85795C14.8684 8.2335 15.9525 9.41667 17.3333 9.41667V7.91667C16.8326 7.91667 16.4394 7.48757 16.483 6.9887L14.9887 6.85795ZM15.213 4.29513L14.9887 6.85795L16.483 6.9887L16.7073 4.42588L15.213 4.29513ZM13.7971 2.75C14.631 2.75 15.2857 3.46448 15.213 4.29513L16.7073 4.42588C16.8567 2.71856 15.511 1.25 13.7971 1.25V2.75ZM12.6328 3.35622C12.8988 2.97628 13.3334 2.75 13.7971 2.75V1.25C12.8439 1.25 11.9506 1.7151 11.404 2.49602L12.6328 3.35622ZM10.9478 5.76343L12.6328 3.35622L11.404 2.49602L9.71891 4.90324L10.9478 5.76343ZM9.5262 7.93493L10.9608 5.74421L9.70589 4.92246L8.27132 7.11319L9.5262 7.93493ZM8.75 10.5371C8.75 9.61268 9.01976 8.70832 9.5262 7.93493L8.27132 7.11319C7.60495 8.1308 7.25 9.32075 7.25 10.5371H8.75ZM8.75 12V10.5371H7.25V12H8.75ZM5 9.75C6.24264 9.75 7.25 10.7574 7.25 12H8.75C8.75 9.92893 7.07107 8.25 5 8.25V9.75ZM4.88889 9.75H5V8.25H4.88889V9.75ZM2.75 11.8889C2.75 10.7076 3.70761 9.75 4.88889 9.75V8.25C2.87919 8.25 1.25 9.87919 1.25 11.8889H2.75ZM2.75 19.1111V11.8889H1.25V19.1111H2.75ZM4.88889 21.25C3.70761 21.25 2.75 20.2924 2.75 19.1111H1.25C1.25 21.1208 2.87919 22.75 4.88889 22.75V21.25ZM5 21.25H4.88889V22.75H5V21.25ZM7.25 19C7.25 20.2426 6.24264 21.25 5 21.25V22.75C7.07107 22.75 8.75 21.0711 8.75 19H7.25ZM7.25 17.0274V19H8.75V17.0274H7.25ZM9.4754 19.3938C9.00266 18.6952 8.75 17.871 8.75 17.0274H7.25C7.25 18.1706 7.59241 19.2877 8.23309 20.2345L9.4754 19.3938ZM12.9726 21.25C11.571 21.25 10.2608 20.5546 9.4754 19.3938L8.23309 20.2345C9.29755 21.8076 11.0732 22.75 12.9726 22.75V21.25ZM17.3333 21.25H12.9726V22.75H17.3333V21.25ZM21.25 17.3333C21.25 19.4964 19.4964 21.25 17.3333 21.25V22.75C20.3249 22.75 22.75 20.3249 22.75 17.3333H21.25Z" fill="#4E5964"/>
</svg>
