<svg width="24" height="25" viewBox="0 0 24 25" fill="none" xmlns="http://www.w3.org/2000/svg">
<path d="M11.9996 4.92563C11.5854 4.92563 11.2496 4.58985 11.2496 4.17563V3.27563C11.2496 2.86142 11.5854 2.52563 11.9996 2.52563C12.4138 2.52563 12.7496 2.86142 12.7496 3.27563V4.17563C12.7496 4.58985 12.4138 4.92563 11.9996 4.92563Z" fill="#4E5964"/>
<path d="M11.9997 7.63937C12.7281 6.93363 13.6727 6.52572 14.6733 6.52573C15.7891 6.52575 16.8354 7.0331 17.5898 7.89508C18.3413 8.75379 18.7496 9.89945 18.7496 11.0765C18.7496 12.2535 18.3413 13.3991 17.5897 14.2578L14.4025 17.8996C13.7843 18.6059 12.9228 19.0257 11.9996 19.0257C11.0764 19.0257 10.2149 18.6059 9.59674 17.8996L6.40948 14.2578C5.65792 13.399 5.24961 12.2534 5.24961 11.0764C5.24961 9.89938 5.65792 8.75372 6.40948 7.89499C7.92885 6.15904 10.3881 6.07382 11.9997 7.63937Z" fill="#4E5964"/>
<path d="M11.2496 21.2757C11.2496 21.6899 11.5854 22.0257 11.9996 22.0257C12.4138 22.0257 12.7496 21.6899 12.7496 21.2757V20.3757C12.7496 19.9615 12.4138 19.6257 11.9996 19.6257C11.5854 19.6257 11.2496 19.9615 11.2496 20.3757V21.2757Z" fill="#4E5964"/>
<path d="M4.65 12.2757C4.65 12.6899 4.31421 13.0257 3.9 13.0257H3C2.58579 13.0257 2.25 12.6899 2.25 12.2757C2.25 11.8615 2.58579 11.5257 3 11.5257H3.9C4.31421 11.5257 4.65 11.8615 4.65 12.2757Z" fill="#4E5964"/>
<path d="M20.9996 13.0257C21.4138 13.0257 21.7496 12.6899 21.7496 12.2757C21.7496 11.8615 21.4138 11.5257 20.9996 11.5257H20.0996C19.6854 11.5257 19.3496 11.8615 19.3496 12.2757C19.3496 12.6899 19.6854 13.0257 20.0996 13.0257H20.9996Z" fill="#4E5964"/>
<path d="M7.02506 17.1453C7.31795 17.4382 7.31795 17.9131 7.02506 18.206L6.22956 19.0015C5.93667 19.2944 5.46179 19.2944 5.1689 19.0015C4.87601 18.7086 4.87601 18.2337 5.1689 17.9408L5.9644 17.1453C6.25729 16.8524 6.73216 16.8524 7.02506 17.1453Z" fill="#4E5964"/>
<path d="M18.7253 5.60587C19.0181 5.31297 19.0181 4.8381 18.7253 4.54521C18.4324 4.25231 17.9575 4.25231 17.6646 4.54521L16.8691 5.3407C16.5762 5.6336 16.5762 6.10847 16.8691 6.40136C17.162 6.69426 17.6369 6.69426 17.9298 6.40136L18.7253 5.60587Z" fill="#4E5964"/>
<path d="M7.02506 6.40177C6.73216 6.69466 6.25729 6.69466 5.9644 6.40177L5.1689 5.60627C4.87601 5.31338 4.87601 4.8385 5.1689 4.54561C5.46179 4.25272 5.93667 4.25272 6.22956 4.54561L7.02506 5.34111C7.31795 5.634 7.31795 6.10887 7.02506 6.40177Z" fill="#4E5964"/>
<path d="M17.6646 19.0014C17.9575 19.2943 18.4324 19.2943 18.7253 19.0014C19.0181 18.7085 19.0181 18.2336 18.7253 17.9407L17.9298 17.1452C17.6369 16.8523 17.162 16.8523 16.8691 17.1452C16.5762 17.4381 16.5762 17.913 16.8691 18.2059L17.6646 19.0014Z" fill="#4E5964"/>
</svg>
