<svg width="24" height="24" viewBox="0 0 24 24" fill="none" xmlns="http://www.w3.org/2000/svg">
<path d="M11.9996 4.65C11.5854 4.65 11.2496 4.31421 11.2496 3.9V3C11.2496 2.58579 11.5854 2.25 11.9996 2.25C12.4138 2.25 12.7496 2.58579 12.7496 3V3.9C12.7496 4.31421 12.4138 4.65 11.9996 4.65Z" fill="#4E5964"/>
<path d="M11.9997 7.36373C12.7281 6.65799 13.6727 6.25008 14.6733 6.2501C15.7891 6.25011 16.8354 6.75747 17.5898 7.61945C18.3413 8.47816 18.7496 9.62381 18.7496 10.8008C18.7496 11.9778 18.3413 13.1235 17.5897 13.9822L14.4025 17.6239C13.7843 18.3302 12.9228 18.7501 11.9996 18.7501C11.0764 18.7501 10.2149 18.3302 9.59674 17.6239L6.40948 13.9821C5.65792 13.1234 5.24961 11.9778 5.24961 10.8007C5.24961 9.62374 5.65792 8.47809 6.40948 7.61936C7.92885 5.8834 10.3881 5.79819 11.9997 7.36373Z" fill="#4E5964"/>
<path d="M11.2496 21.0001C11.2496 21.4143 11.5854 21.7501 11.9996 21.7501C12.4138 21.7501 12.7496 21.4143 12.7496 21.0001V20.1001C12.7496 19.6859 12.4138 19.3501 11.9996 19.3501C11.5854 19.3501 11.2496 19.6859 11.2496 20.1001V21.0001Z" fill="#4E5964"/>
<path d="M4.65 12.0001C4.65 12.4143 4.31421 12.7501 3.9 12.7501H3C2.58579 12.7501 2.25 12.4143 2.25 12.0001C2.25 11.5859 2.58579 11.2501 3 11.2501H3.9C4.31421 11.2501 4.65 11.5859 4.65 12.0001Z" fill="#4E5964"/>
<path d="M20.9996 12.7501C21.4138 12.7501 21.7496 12.4143 21.7496 12.0001C21.7496 11.5859 21.4138 11.2501 20.9996 11.2501H20.0996C19.6854 11.2501 19.3496 11.5859 19.3496 12.0001C19.3496 12.4143 19.6854 12.7501 20.0996 12.7501H20.9996Z" fill="#4E5964"/>
<path d="M7.02506 16.8697C7.31795 17.1626 7.31795 17.6374 7.02506 17.9303L6.22956 18.7258C5.93667 19.0187 5.46179 19.0187 5.1689 18.7258C4.87601 18.4329 4.87601 17.9581 5.1689 17.6652L5.9644 16.8697C6.25729 16.5768 6.73216 16.5768 7.02506 16.8697Z" fill="#4E5964"/>
<path d="M18.7253 5.33023C19.0181 5.03734 19.0181 4.56247 18.7253 4.26957C18.4324 3.97668 17.9575 3.97668 17.6646 4.26957L16.8691 5.06507C16.5762 5.35796 16.5762 5.83283 16.8691 6.12573C17.162 6.41862 17.6369 6.41862 17.9298 6.12573L18.7253 5.33023Z" fill="#4E5964"/>
<path d="M7.02506 6.12613C6.73216 6.41902 6.25729 6.41902 5.9644 6.12613L5.1689 5.33064C4.87601 5.03774 4.87601 4.56287 5.1689 4.26998C5.46179 3.97708 5.93667 3.97708 6.22956 4.26998L7.02506 5.06547C7.31795 5.35836 7.31795 5.83324 7.02506 6.12613Z" fill="#4E5964"/>
<path d="M17.6646 18.7257C17.9575 19.0186 18.4324 19.0186 18.7253 18.7257C19.0181 18.4328 19.0181 17.958 18.7253 17.6651L17.9298 16.8696C17.6369 16.5767 17.162 16.5767 16.8691 16.8696C16.5762 17.1625 16.5762 17.6374 16.8691 17.9302L17.6646 18.7257Z" fill="#4E5964"/>
</svg>
