<svg width="24" height="25" viewBox="0 0 24 25" fill="none" xmlns="http://www.w3.org/2000/svg">
<path d="M13.9899 2.53076C13.1207 2.53076 12.309 2.96516 11.8269 3.68836L10.3696 5.87421L9.04532 7.9977C8.76855 8.44149 8.56102 8.92189 8.42748 9.42237C7.77332 8.86628 6.92584 8.53076 6 8.53076H5.44444C3.6802 8.53076 2.25 9.96096 2.25 11.7252V17.8363C2.25 19.6006 3.6802 21.0308 5.44444 21.0308H6C7.22118 21.0308 8.30603 20.447 8.99075 19.5434C9.01674 19.5865 9.0434 19.6292 9.0707 19.6716C10.0184 21.1422 11.6482 22.0308 13.3978 22.0308H17C19.6234 22.0308 21.75 19.9041 21.75 17.2808V12.8808C21.75 10.4783 19.8024 8.53076 17.4 8.53076H17C16.6313 8.53076 16.3414 8.21565 16.372 7.84823L16.5805 5.34623C16.7068 3.83062 15.5107 2.53076 13.9899 2.53076Z" fill="#4E5964"/>
</svg>
