<svg width="24" height="24" viewBox="0 0 24 24" fill="none" xmlns="http://www.w3.org/2000/svg">
<path fill-rule="evenodd" clip-rule="evenodd" d="M7.5 6.75C5.42893 6.75 3.75 8.42893 3.75 10.5V13.5C3.75 15.5711 5.42893 17.25 7.5 17.25H10C10.4142 17.25 10.75 17.5858 10.75 18C10.75 18.4142 10.4142 18.75 10 18.75H7.5C4.6005 18.75 2.25 16.3995 2.25 13.5V10.5C2.25 7.60051 4.6005 5.25 7.5 5.25H10C10.4142 5.25 10.75 5.58579 10.75 6C10.75 6.41421 10.4142 6.75 10 6.75H7.5Z" fill="#4E5964"/>
<path fill-rule="evenodd" clip-rule="evenodd" d="M16.5 6.75C18.5711 6.75 20.25 8.42893 20.25 10.5V13.5C20.25 15.5711 18.5711 17.25 16.5 17.25H14C13.5858 17.25 13.25 17.5858 13.25 18C13.25 18.4142 13.5858 18.75 14 18.75H16.5C19.3995 18.75 21.75 16.3995 21.75 13.5V10.5C21.75 7.60051 19.3995 5.25 16.5 5.25H14C13.5858 5.25 13.25 5.58579 13.25 6C13.25 6.41421 13.5858 6.75 14 6.75H16.5Z" fill="#4E5964"/>
<path d="M9 12C9 11.4477 9.44772 11 10 11H14C14.5523 11 15 11.4477 15 12C15 12.5523 14.5523 13 14 13H10C9.44772 13 9 12.5523 9 12Z" fill="#4E5964"/>
</svg>
