<svg width="24" height="24" viewBox="0 0 24 24" fill="none" xmlns="http://www.w3.org/2000/svg">
<path fill-rule="evenodd" clip-rule="evenodd" d="M7.5 2.25C4.60051 2.25 2.25 4.60051 2.25 7.5V16.5C2.25 19.3995 4.60051 21.75 7.5 21.75H16.5C19.3995 21.75 21.75 19.3995 21.75 16.5V12.1722C21.75 11.6866 21.3885 11.3033 20.9448 11.2325C18.7208 10.8782 17.0791 10.1966 15.8749 9.37086L18.22 7.02569L18.2677 9.29118C18.2765 9.7053 18.6192 10.0339 19.0334 10.0252C19.4475 10.0165 19.7761 9.67372 19.7674 9.2596L19.6821 5.20841C19.6734 4.79429 19.3306 4.46565 18.9165 4.47437L14.8653 4.55969C14.4512 4.56841 14.1225 4.91119 14.1312 5.32531C14.14 5.73943 14.4827 6.06808 14.8969 6.05935L17.1117 6.01271L14.7153 8.4091C14.4698 8.16209 14.2528 7.9094 14.0614 7.65471C12.8956 6.10371 12.625 4.409 12.7223 3.29171C12.7692 2.75363 12.3529 2.25 11.7716 2.25H7.5ZM14.7153 8.4091L11.7412 11.3832C11.4483 11.6761 11.4483 12.151 11.7412 12.4439C12.034 12.7368 12.5089 12.7368 12.8018 12.4439L15.8749 9.37086C15.4314 9.06678 15.0473 8.74314 14.7153 8.4091Z" fill="#4E5964"/>
</svg>
