<svg width="24" height="24" viewBox="0 0 24 24" fill="none" xmlns="http://www.w3.org/2000/svg">
<path fill-rule="evenodd" clip-rule="evenodd" d="M12.7623 14.8877C13.0435 14.9346 13.2496 15.1778 13.2496 15.4629V15.667C13.2494 15.9606 13.032 16.2006 12.7496 16.2412V14.8848L12.7623 14.8877Z" fill="#4E5964"/>
<path fill-rule="evenodd" clip-rule="evenodd" d="M11.2369 13.1123C10.9557 13.0654 10.7496 12.8222 10.7496 12.5371V12.333C10.7497 12.0393 10.9671 11.7984 11.2496 11.7578V13.1143L11.2369 13.1123Z" fill="#4E5964"/>
<path fill-rule="evenodd" clip-rule="evenodd" d="M12.7623 14.8877C13.0435 14.9346 13.2496 15.1778 13.2496 15.4629V15.667C13.2494 15.9606 13.032 16.2006 12.7496 16.2412V14.8848L12.7623 14.8877ZM11.2369 13.1123C10.9557 13.0654 10.7496 12.8222 10.7496 12.5371V12.333C10.7497 12.0393 10.9671 11.7984 11.2496 11.7578V13.1143L11.2369 13.1123Z" fill="#4E5964"/>
<path fill-rule="evenodd" clip-rule="evenodd" d="M14.5933 5.25C14.6954 4.84727 14.7496 4.42428 14.7496 4C14.7496 3.59645 14.6418 3.19724 14.4283 2.87695C14.2183 2.5619 13.8455 2.25 13.3326 2.25H10.6666C10.1537 2.25 9.7809 2.5619 9.57087 2.87695C9.35735 3.19724 9.24958 3.59645 9.24958 4C9.24958 4.43357 9.30561 4.85469 9.40583 5.25H8.99958C8.58537 5.25 8.24958 5.58579 8.24958 6C8.2496 6.4142 8.58538 6.75 8.99958 6.75H9.34431C5.05712 8.20844 2.08162 12.6201 2.25739 17.6162C2.2575 19.0875 2.82317 20.1769 3.80622 20.8652C4.74448 21.5222 5.97151 21.7499 7.20368 21.75H16.7955C18.0277 21.7499 19.2547 21.5222 20.1929 20.8652C21.176 20.1769 21.7407 19.0875 21.7408 17.6162C21.9166 12.6201 18.942 8.20844 14.6549 6.75H14.9996C15.4138 6.75 15.7496 6.4142 15.7496 6C15.7496 5.58579 15.4138 5.25 14.9996 5.25H14.5933ZM13.2496 4C13.2496 3.88755 13.2253 3.80277 13.2017 3.75H10.7974C10.7739 3.80277 10.7496 3.88755 10.7496 4C10.7496 4.47236 10.8383 4.89835 10.9771 5.25H13.022C13.1639 4.88966 13.2496 4.45963 13.2496 4ZM13.2496 12.333V12.667C13.2498 13.081 13.5855 13.417 13.9996 13.417C14.4137 13.417 14.7494 13.081 14.7496 12.667V12.333C14.7494 11.2105 13.8614 10.2977 12.7496 10.2539V10C12.7496 9.58579 12.4138 9.25 11.9996 9.25C11.5854 9.25 11.2496 9.58579 11.2496 10V10.2539C10.1378 10.2977 9.24972 11.2105 9.24958 12.333V12.5371C9.24958 13.5555 9.98624 14.4244 10.9908 14.5918L11.2496 14.6348V16.2412C10.9672 16.2006 10.7498 15.9606 10.7496 15.667V15.333C10.7494 14.9189 10.4137 14.583 9.99958 14.583C9.58546 14.583 9.24972 14.9189 9.24958 15.333V15.667C9.24978 16.7895 10.1378 17.7013 11.2496 17.7451V18C11.2496 18.4142 11.5854 18.75 11.9996 18.75C12.4138 18.75 12.7496 18.4142 12.7496 18V17.7451C13.8614 17.7013 14.7494 16.7895 14.7496 15.667V15.4629C14.7496 14.4445 14.0129 13.5756 13.0084 13.4082L12.7496 13.3643V11.7578C13.0321 11.7984 13.2495 12.0393 13.2496 12.333Z" fill="#4E5964"/>
</svg>
