<svg width="24" height="24" viewBox="0 0 24 24" fill="none" xmlns="http://www.w3.org/2000/svg">
<path d="M13.25 15.6667C13.25 15.9605 13.0327 16.2037 12.75 16.2441V15.0892C13.0327 15.1297 13.25 15.3728 13.25 15.6667Z" fill="#4E5964"/>
<path d="M10.75 13C10.75 12.7061 10.9673 12.463 11.25 12.4226V13.5774C10.9673 13.537 10.75 13.2939 10.75 13Z" fill="#4E5964"/>
<path fill-rule="evenodd" clip-rule="evenodd" d="M9.40288 5.25C9.30279 4.85492 9.25 4.43327 9.25 4C9.25 3.59644 9.35769 3.19716 9.57122 2.87687C9.78126 2.56182 10.1538 2.25 10.6667 2.25H13.3333C13.8462 2.25 14.2187 2.56182 14.4288 2.87687C14.6423 3.19716 14.75 3.59644 14.75 4C14.75 4.42405 14.6985 4.84747 14.5965 5.25H15C15.4142 5.25 15.75 5.58579 15.75 6C15.75 6.41421 15.4142 6.75 15 6.75H14.661C18.9496 8.21167 21.924 12.6308 21.742 17.631C21.7382 19.095 21.1729 20.1788 20.193 20.8649C19.2547 21.5218 18.028 21.7498 16.7958 21.7499C15.3104 21.75 14.5422 21.75 13.68 21.75H10.3184C9.45683 21.75 8.68864 21.75 7.20413 21.7499C5.97193 21.7498 4.74516 21.5218 3.80688 20.8649C2.82702 20.1788 2.26168 19.095 2.25792 17.631C2.07588 12.6308 5.05027 8.21167 9.33887 6.75H9C8.58579 6.75 8.25 6.41421 8.25 6C8.25 5.58579 8.58579 5.25 9 5.25H9.40288ZM10.75 4C10.75 3.88771 10.7737 3.80279 10.7972 3.75H13.2028C13.2263 3.80279 13.25 3.88771 13.25 4C13.25 4.45933 13.1662 4.8898 13.0245 5.25H10.9751C10.8365 4.89851 10.75 4.47199 10.75 4ZM9.25 13C9.25 11.8758 10.1404 10.9596 11.2544 10.9181C11.2952 10.5424 11.6135 10.25 12 10.25C12.3862 10.25 12.7041 10.5418 12.7455 10.917C13.701 10.9335 14.498 11.5927 14.7263 12.4797C14.8296 12.8809 14.5881 13.2897 14.1869 13.393C13.7858 13.4962 13.3769 13.2548 13.2737 12.8536C13.2122 12.6148 13.0026 12.4358 12.75 12.4181V13.585C13.862 13.6287 14.75 14.544 14.75 15.6667C14.75 16.7908 13.8596 17.707 12.7456 17.7485C12.7048 18.1242 12.3865 18.4167 12 18.4167C11.6138 18.4167 11.2959 18.1248 11.2545 17.7497C10.299 17.7332 9.50198 17.074 9.27367 16.1869C9.17043 15.7858 9.41192 15.3769 9.81306 15.2737C10.2142 15.1704 10.6231 15.4119 10.7263 15.8131C10.7878 16.0519 10.9974 16.2308 11.25 16.2486V15.0817C10.138 15.038 9.25 14.1227 9.25 13Z" fill="#4E5964"/>
</svg>
