<svg width="24" height="24" viewBox="0 0 24 24" fill="none" xmlns="http://www.w3.org/2000/svg">
<path fill-rule="evenodd" clip-rule="evenodd" d="M4.25 10.5C4.25 5.99323 7.6719 2.25 12 2.25C14.1161 2.25 16.0262 3.15259 17.4167 4.59907L19.5638 2.46771C19.8578 2.1759 20.3327 2.17766 20.6245 2.47163C20.9163 2.76561 20.9146 3.24048 20.6206 3.53229L3.52837 20.4986C3.23439 20.7904 2.75952 20.7887 2.46771 20.4947C2.1759 20.2007 2.17766 19.7258 2.47163 19.434L5.92495 16.0062C4.9673 14.352 4.25 12.4364 4.25 10.5ZM10.391 11.573L9.32644 12.6297C8.92024 12.2168 8.61467 11.7147 8.43463 11.1626C8.23736 10.5576 8.19728 9.91242 8.31815 9.28769C8.43902 8.66297 8.71686 8.07928 9.12554 7.59156C9.53421 7.10383 10.0603 6.72812 10.6542 6.49978C11.2481 6.27145 11.8904 6.198 12.5205 6.28634C13.1507 6.37469 13.748 6.62193 14.2562 7.00479C14.3954 7.10966 14.5267 7.22376 14.6493 7.34611L13.5847 8.40286C13 9 13.5 8.5 13 9C12.5 9.5 12.9795 9 12.5 9.5C12 10 12.5117 9.48828 12 10C11.4883 10.5117 12 10 11.1925 10.7765C10.8527 11.1139 10.5 11.5 10.391 11.573Z" fill="#4E5964"/>
<path d="M18.2153 6.964C18.6023 6.81639 19.0357 7.01048 19.1833 7.3975C19.214 7.47791 19.2435 7.55894 19.2718 7.64057C19.3481 7.86049 19.4159 8.08475 19.4746 8.31291C19.6543 9.01045 19.75 9.74398 19.75 10.5C19.75 13.3187 18.2306 16.108 16.6122 18.1449C15.7942 19.1743 14.9247 20.0452 14.1554 20.6661C13.7716 20.9759 13.4001 21.2338 13.0618 21.4182C12.7497 21.5883 12.3708 21.75 12 21.75C11.6468 21.75 11.2893 21.6036 10.9948 21.4485C10.6769 21.2811 10.3298 21.0474 9.97174 20.7672C9.25392 20.2055 8.44097 19.4169 7.6605 18.48C7.633 18.447 7.60553 18.4138 7.5781 18.3804C7.31519 18.0604 7.36154 17.5878 7.68162 17.3248C8.0017 17.0619 8.4743 17.1083 8.73721 17.4284C8.76244 17.4591 8.7877 17.4896 8.81299 17.52C9.53544 18.3872 10.2734 19.0986 10.8961 19.5859C11.2083 19.8302 11.4789 20.0082 11.6938 20.1214C11.8786 20.2187 11.9745 20.2424 11.9977 20.2482L12.0003 20.2488L12.0033 20.2481C12.0286 20.2417 12.136 20.2145 12.3437 20.1013C12.5796 19.9726 12.8753 19.7717 13.2133 19.4989C13.8878 18.9545 14.6808 18.1645 15.4378 17.2117C16.9694 15.2842 18.25 12.8234 18.25 10.5C18.25 9.87081 18.1704 9.26298 18.0221 8.68709C17.9735 8.49867 17.9176 8.31362 17.8547 8.13234C17.8314 8.06504 17.807 7.99826 17.7818 7.93202C17.6342 7.545 17.8283 7.1116 18.2153 6.964Z" fill="#4E5964"/>
</svg>
