<svg width="24" height="24" viewBox="0 0 24 24" fill="none" xmlns="http://www.w3.org/2000/svg">
<path fill-rule="evenodd" clip-rule="evenodd" d="M12 2.25C7.6719 2.25 4.25 5.99323 4.25 10.5C4.25 13.3187 5.76936 16.108 7.38779 18.1449C8.20576 19.1743 9.07525 20.0452 9.84457 20.6661C10.2284 20.9759 10.5999 21.2338 10.9382 21.4182C11.2503 21.5883 11.6292 21.75 12 21.75C12.3708 21.75 12.7497 21.5883 13.0618 21.4182C13.4001 21.2338 13.7716 20.9759 14.1554 20.6661C14.9247 20.0452 15.7942 19.1743 16.6122 18.1449C18.2306 16.108 19.75 13.3187 19.75 10.5C19.75 5.99323 16.3281 2.25 12 2.25ZM12 6.25C9.92893 6.25 8.25 7.92893 8.25 10C8.25 12.0711 9.92893 13.75 12 13.75C14.0711 13.75 15.75 12.0711 15.75 10C15.75 7.92893 14.0711 6.25 12 6.25Z" fill="#4E5964"/>
</svg>
