<svg width="24" height="24" viewBox="0 0 24 24" fill="none" xmlns="http://www.w3.org/2000/svg">
<path fill-rule="evenodd" clip-rule="evenodd" d="M12 2.25024C7.6719 2.25024 4.25 5.99347 4.25 10.5002C4.25 13.319 5.76936 16.1082 7.38779 18.1451C8.20576 19.1746 9.07525 20.0454 9.84457 20.6663C10.2284 20.9761 10.5999 21.234 10.9382 21.4185C11.2503 21.5886 11.6292 21.7502 12 21.7502C12.3708 21.7502 12.7497 21.5886 13.0618 21.4185C13.4001 21.234 13.7716 20.9761 14.1554 20.6663C14.9247 20.0454 15.7942 19.1746 16.6122 18.1451C18.2306 16.1082 19.75 13.319 19.75 10.5002C19.75 5.99347 16.3281 2.25024 12 2.25024ZM12 6.25024C9.92893 6.25024 8.25 7.92918 8.25 10.0002C8.25 12.0713 9.92893 13.7502 12 13.7502C14.0711 13.7502 15.75 12.0713 15.75 10.0002C15.75 7.92918 14.0711 6.25024 12 6.25024Z" fill="#4E5964"/>
</svg>
