<svg width="24" height="24" viewBox="0 0 24 24" fill="none" xmlns="http://www.w3.org/2000/svg">
<path fill-rule="evenodd" clip-rule="evenodd" d="M11.75 2.75C7.33172 2.75 3.75 6.48096 3.75 11.0833C3.75 12.7703 4.30794 14.4782 5.13553 16.0475L5.21781 16.2085C5.25432 16.2812 5.29641 16.3658 5.34094 16.4554L5.34096 16.4554C5.4886 16.7524 5.66305 17.1032 5.75 17.25V17.75L9.22214 14.2779L9.68246 14.7613L10.7688 13.7269L10.2831 13.2169L14.1914 9.30863C14.2126 9.32959 14.2336 9.35087 14.2541 9.37249L14.7713 9.91564L15.8576 8.88126L15.3405 8.33811C15.3114 8.30764 15.282 8.27759 15.252 8.24796L17.75 5.75L17.4685 5.25L17.2907 5.07221C15.8531 3.634 13.9006 2.75 11.75 2.75ZM15.252 8.24796C14.5111 7.51435 13.4925 7.04156 12.3573 7.01377C9.99845 6.95601 8.04627 8.81488 7.98851 11.1737C7.95959 12.3548 8.41794 13.4333 9.16527 14.2181L9.22214 14.2779L10.2831 13.2169L10.2516 13.1837C9.76463 12.6724 9.46937 11.974 9.48806 11.2104C9.52554 9.67978 10.7899 8.47584 12.3206 8.51332C13.0519 8.53123 13.7093 8.83384 14.1914 9.30863L15.252 8.24796ZM19.75 11.0833L19.7175 10.3271C19.739 10.5762 19.75 10.8284 19.75 11.0833ZM19.5414 9.18463L19.3791 8.56796C19.4405 8.77029 19.4947 8.97595 19.5414 9.18463ZM11.75 22.75C11.7081 22.75 11.6629 22.7459 11.6147 22.7379L11.75 22.75ZM11.4046 22.6844C11.2873 22.6458 11.1576 22.5906 11.0175 22.5196L11.4046 22.6844ZM10.6672 22.323C10.5633 22.2596 10.4555 22.1895 10.3441 22.1131L10.6672 22.323ZM9.8288 21.7335C9.68431 21.6202 9.53599 21.4985 9.38476 21.3688L9.8288 21.7335ZM8.65425 20.701C8.53885 20.5891 8.42268 20.4733 8.30613 20.354L8.65425 20.701Z" fill="#00A881"/>
<path fill-rule="evenodd" clip-rule="evenodd" d="M21.7747 2.21404C22.0751 2.49942 22.0751 2.96212 21.7747 3.2475L3.31316 20.786C3.01276 21.0713 2.52571 21.0713 2.2253 20.786C1.9249 20.5006 1.9249 20.0379 2.2253 19.7525L20.6868 2.21404C20.9872 1.92865 21.4743 1.92865 21.7747 2.21404Z" fill="#00A881"/>
<path d="M12 22C13.6 22 20 16.0468 20 10.3333L19.9675 9.57706C19.9339 9.18792 19.8746 8.80649 19.7914 8.43463L19.6291 7.81796C19.6905 8.02029 19.7447 8.22595 19.7914 8.43463C19.8746 8.80649 19.9339 9.18792 19.9675 9.57706C19.989 9.82615 20 10.0784 20 10.3333C20 16.0468 13.6 22 12 22C11.9581 22 11.9129 21.9959 11.8647 21.9879C11.8 21.9771 11.7299 21.9592 11.6546 21.9344C11.5373 21.8958 11.4076 21.8406 11.2675 21.7696C11.1569 21.7137 11.0399 21.648 10.9172 21.573C10.8133 21.5096 10.7055 21.4395 10.5941 21.3631C10.4294 21.2501 10.257 21.1232 10.0788 20.9835C9.93431 20.8702 9.78599 20.7485 9.63476 20.6188C9.3972 20.4151 9.15248 20.1919 8.90425 19.951C8.78885 19.8391 8.67268 19.7233 8.55613 19.604L8.90425 19.951C9.15248 20.1919 9.3972 20.4151 9.63476 20.6188L10.0788 20.9835C10.257 21.1232 10.4294 21.2501 10.5941 21.3631L10.9172 21.573C11.0399 21.648 11.1569 21.7137 11.2675 21.7696L11.6546 21.9344C11.7299 21.9592 11.8 21.9771 11.8647 21.9879L12 22Z" fill="#00A881"/>
<path d="M6 16.5C5.88682 16.3089 5.62539 15.7721 5.46781 15.4585L5.38553 15.2975C5.40702 15.3382 5.43519 15.3936 5.46781 15.4585L6 16.5Z" fill="#00A881"/>
<path fill-rule="evenodd" clip-rule="evenodd" d="M11.8895 4.14535C8.19139 4.14535 5.14535 7.27654 5.14535 11.1996C5.14535 12.6196 5.61698 14.095 6.35366 15.492C6.37675 15.5358 6.40512 15.5916 6.4354 15.6518L7.00581 16.7681L6.4354 17.1149C6.4354 17.5003 6.73898 17.4012 6.35366 17.4012C5.96835 17.4012 5.61047 17.7865 5.61047 17.4012V17.1149C5.5136 16.9317 5.39024 16.6834 5.29032 16.4824C5.25298 16.4072 5.21891 16.3387 5.19073 16.2826L5.1173 16.1389C4.31541 14.6171 3.75 12.9167 3.75 11.1996C3.75 6.56014 7.36763 2.75 11.8895 2.75C14.0867 2.75 16.0772 3.65418 17.5371 5.11464L17.7701 5.34759L18.0789 5.89609C18.2679 6.23185 18.149 6.65728 17.8132 6.84632C17.4775 7.03535 17.052 6.91641 16.863 6.58065L16.6481 6.19892L16.5503 6.1012C15.3356 4.88592 13.6936 4.14535 11.8895 4.14535ZM18.6038 7.91754C18.9608 7.77257 19.3677 7.94447 19.5127 8.30148L19.6447 8.62668L19.654 8.65707C19.7161 8.86185 19.771 9.06996 19.8182 9.28106C19.9024 9.65728 19.9623 10.0429 19.9963 10.4361C20.018 10.6877 20.0291 10.9424 20.0291 11.1996C20.0291 14.0939 18.4236 16.9624 16.7088 19.0605C15.8426 20.1205 14.9227 21.0158 14.1109 21.6529C13.7058 21.9708 13.3159 22.2336 12.9634 22.4204C12.6344 22.5948 12.2528 22.75 11.8895 22.75C11.8059 22.75 11.725 22.7419 11.6489 22.7292C11.547 22.7122 11.4468 22.6858 11.3503 22.6541C11.1999 22.6046 11.0464 22.5381 10.8931 22.4605C10.7713 22.3989 10.6461 22.3284 10.5185 22.2505C10.4104 22.1845 10.2997 22.1125 10.187 22.0352C10.0203 21.9208 9.84805 21.7939 9.6719 21.6558C9.52901 21.5438 9.38314 21.424 9.23517 21.2971C9.00279 21.0979 8.7646 20.8805 8.52396 20.6471C8.41206 20.5385 8.29956 20.4264 8.1868 20.3109C7.98756 20.1069 7.78738 19.8923 7.58814 19.6681C7.33217 19.3801 7.35812 18.9392 7.64612 18.6832C7.93412 18.4272 8.3751 18.4532 8.63108 18.7412C8.81475 18.9478 8.99895 19.1453 9.18183 19.3327L9.49894 19.6488C9.71701 19.8603 9.93109 20.0556 10.1379 20.2331L10.539 20.5625C10.6895 20.6804 10.8335 20.7863 10.9693 20.8797L11.254 21.0647C11.3439 21.1194 11.4273 21.1662 11.5037 21.2056L11.8108 21.3363C11.8303 21.3422 11.8464 21.3463 11.8594 21.3492L11.9008 21.3529C11.9166 21.3502 11.948 21.3436 11.9974 21.3271C12.0769 21.3005 12.1811 21.2558 12.3099 21.1876C12.5678 21.0508 12.8873 20.8394 13.2495 20.5551C13.9726 19.9877 14.8202 19.1664 15.6284 18.1776C17.2592 16.1821 18.6282 13.6305 18.6337 11.2142L18.6048 10.5415C18.5764 10.22 18.5274 9.90513 18.4593 9.59809L18.3231 9.08067L18.2199 8.82643C18.0749 8.46942 18.2468 8.0625 18.6038 7.91754Z" fill="#00A881"/>
</svg>
