<svg width="24" height="24" viewBox="0 0 24 24" fill="none" xmlns="http://www.w3.org/2000/svg">
<path fill-rule="evenodd" clip-rule="evenodd" d="M20 10.3333C20 16.0468 13.6 22 12 22C11.0917 22 8.63645 20.0814 6.68337 17.3773L10.5863 13.4744C11.0226 13.6521 11.4999 13.75 12 13.75C14.0711 13.75 15.75 12.0711 15.75 10C15.75 9.49985 15.6521 9.02257 15.4744 8.58628L18.5351 5.52554C19.4578 6.88395 20 8.54269 20 10.3333ZM17.5788 4.36055C16.1377 2.89973 14.1697 2 12 2C7.58172 2 4 5.73096 4 10.3333C4 12.3128 4.7682 14.321 5.83884 16.1005L9.31819 12.6211C8.65732 11.9451 8.25 11.0201 8.25 10C8.25 7.92893 9.92893 6.25 12 6.25C13.0201 6.25 13.9451 6.65732 14.6211 7.31819L17.5788 4.36055ZM13.5604 8.37897C13.1558 7.98949 12.6059 7.75 12 7.75C10.7574 7.75 9.75 8.75736 9.75 10C9.75 10.6059 9.98949 11.1558 10.379 11.5604L13.5604 8.37897ZM14.2427 9.81792L11.8179 12.2427C11.878 12.2475 11.9387 12.25 12 12.25C13.2426 12.25 14.25 11.2426 14.25 10C14.25 9.9387 14.2475 9.87798 14.2427 9.81792Z" fill="#4E5964"/>
<path d="M19 2L2 19" stroke="#4E5964" stroke-width="1.5" stroke-linecap="round" stroke-linejoin="round"/>
</svg>
