<svg width="24" height="24" viewBox="0 0 24 24" fill="none" xmlns="http://www.w3.org/2000/svg">
<path fill-rule="evenodd" clip-rule="evenodd" d="M12 22C13.6 22 20 16.0468 20 10.3333C20 5.73096 16.4183 2 12 2C7.58172 2 4 5.73096 4 10.3333C4 16.0468 10.4 22 12 22ZM9.75 10C9.75 8.75736 10.7574 7.75 12 7.75C13.2426 7.75 14.25 8.75736 14.25 10C14.25 11.2426 13.2426 12.25 12 12.25C10.7574 12.25 9.75 11.2426 9.75 10ZM12 6.25C9.92893 6.25 8.25 7.92893 8.25 10C8.25 12.0711 9.92893 13.75 12 13.75C14.0711 13.75 15.75 12.0711 15.75 10C15.75 7.92893 14.0711 6.25 12 6.25Z" fill="#00ABB8"/>
</svg>
