<svg width="24" height="24" viewBox="0 0 24 24" fill="none" xmlns="http://www.w3.org/2000/svg">
<path d="M19.5303 1.46967C19.8232 1.76256 19.8232 2.23744 19.5303 2.53033L2.53033 19.5303C2.23744 19.8232 1.76256 19.8232 1.46967 19.5303C1.17678 19.2374 1.17678 18.7626 1.46967 18.4697L2.26496 17.6744C2.25516 17.6185 2.25 17.5603 2.25 17.5V14.0769C2.25 11.215 4.43293 8.90341 7.25 8.36743V5.89286C7.25 3.84755 8.97866 2.25 11.0346 2.25H13.1044C14.358 2.25 15.4808 2.84663 16.1619 3.77742L18.4697 1.46967C18.7626 1.17678 19.2374 1.17678 19.5303 1.46967Z" fill="#4E5964"/>
<path fill-rule="evenodd" clip-rule="evenodd" d="M12.75 15.5816C13.3412 15.3007 13.75 14.6981 13.75 14C13.75 13.0335 12.9665 12.25 12 12.25C11.0335 12.25 10.25 13.0335 10.25 14C10.25 14.6981 10.6588 15.3007 11.25 15.5816V17C11.25 17.4142 11.5858 17.75 12 17.75C12.4142 17.75 12.75 17.4142 12.75 17V15.5816ZM11.75 14C11.75 13.8619 11.8619 13.75 12 13.75C12.1381 13.75 12.25 13.8619 12.25 14C12.25 14.1381 12.1381 14.25 12 14.25C11.8619 14.25 11.75 14.1381 11.75 14Z" fill="#4E5964"/>
<path d="M15 8.25C14.5858 8.25 14.25 8.58579 14.25 9C14.25 9.41421 14.5858 9.75 15 9.75H15.5C18.181 9.75 20.25 11.7426 20.25 14.0769V15.9231C20.25 18.2574 18.181 20.25 15.5 20.25H8.5C7.33511 20.25 6.27534 19.8687 5.45469 19.2431C5.30268 19.1272 5.15895 19.003 5.02433 18.8714C4.72816 18.5818 4.25332 18.5871 3.96374 18.8833C3.67416 19.1795 3.6795 19.6543 3.97567 19.9439C4.1546 20.1188 4.34488 20.2832 4.54531 20.436C5.62654 21.2603 7.00563 21.75 8.5 21.75H15.5C18.8941 21.75 21.75 19.1966 21.75 15.9231V14.0769C21.75 11.3867 19.8212 9.18284 17.25 8.48285V8C17.25 7.58579 16.9142 7.25 16.5 7.25C16.0858 7.25 15.75 7.58579 15.75 8V8.25463C15.7459 8.25448 15.7418 8.25433 15.7377 8.25418C15.6588 8.2514 15.5795 8.25 15.5 8.25H15Z" fill="#4E5964"/>
</svg>
