<svg width="24" height="24" viewBox="0 0 24 24" fill="none" xmlns="http://www.w3.org/2000/svg">
<path d="M16.4999 7.25019C16.9142 7.25019 17.2499 7.58597 17.2499 8.00019V8.48359C19.821 9.18371 21.7499 11.3872 21.7499 14.0773V15.923C21.7499 19.1965 18.894 21.7501 15.4999 21.7502H8.49994C7.00561 21.7502 5.62609 21.26 4.54487 20.4357C4.3447 20.2831 4.15425 20.1192 3.97553 19.9445C3.67942 19.655 3.67441 19.1802 3.96381 18.884C4.25336 18.5879 4.7282 18.5818 5.02436 18.8713C5.15896 19.0029 5.30303 19.1275 5.45502 19.2434C6.27561 19.8688 7.33522 20.2502 8.49994 20.2502H15.4999C18.1809 20.2501 20.2499 18.2573 20.2499 15.923V14.0773C20.2499 11.7431 18.1809 9.75024 15.4999 9.75019H14.9999C14.5857 9.75019 14.25 9.41438 14.2499 9.00019C14.25 8.58599 14.5857 8.25019 14.9999 8.25019H15.4999C15.5836 8.25019 15.6669 8.25297 15.7499 8.25605V8.00019C15.7499 7.58597 16.0857 7.25019 16.4999 7.25019Z" fill="#4E5964"/>
<path d="M18.4697 1.46991C18.7626 1.17702 19.2373 1.17702 19.5302 1.46991C19.823 1.76282 19.8231 2.23761 19.5302 2.53046L2.53022 19.5305C2.23736 19.8233 1.76257 19.8232 1.46967 19.5305C1.17678 19.2376 1.17678 18.7628 1.46967 18.4699L2.30072 17.6379C2.26761 17.5364 2.24995 17.4257 2.24994 17.3078V14.0773C2.24996 11.2154 4.43296 8.90529 7.24994 8.36933V5.89277C7.2501 3.84774 8.97844 2.25042 11.0341 2.25019H13.1044C14.3575 2.25025 15.479 2.84723 16.1601 3.77753L18.4697 1.46991Z" fill="#4E5964"/>
<path d="M12.1503 11.9504C13.1995 11.9506 14.0497 12.8016 14.0497 13.8508C14.0495 14.6332 13.576 15.304 12.9003 15.5949V18.0002C12.9003 18.4144 12.5645 18.7502 12.1503 18.7502C11.7361 18.7502 11.4003 18.4144 11.4003 18.0002V15.5949C10.7242 15.3041 10.2502 14.6333 10.2499 13.8508C10.2499 12.8014 11.101 11.9504 12.1503 11.9504Z" fill="#4E5964"/>
</svg>
