<svg width="24" height="24" viewBox="0 0 24 24" fill="none" xmlns="http://www.w3.org/2000/svg">
<path fill-rule="evenodd" clip-rule="evenodd" d="M12.9393 9H8.625H8.5C5.46243 9 3 11.4624 3 14.5V16.5C3 17.2231 3.13955 17.9137 3.3932 18.5461L12.9393 9ZM4.16954 19.8911C5.17638 21.1751 6.74185 22 8.5 22H15.5C18.5376 22 21 19.5376 21 16.5V14.5C21 11.4624 18.5376 9 15.5 9H15.375H15.0607L4.16954 19.8911ZM12.6954 14.7186C12.8832 14.5368 13 14.282 13 14C13 13.4477 12.5523 13 12 13C11.4477 13 11 13.4477 11 14C11 14.282 11.1168 14.5368 11.3046 14.7186C11.2694 14.8055 11.25 14.9005 11.25 15V17C11.25 17.4142 11.5858 17.75 12 17.75C12.4142 17.75 12.75 17.4142 12.75 17V15C12.75 14.9005 12.7306 14.8055 12.6954 14.7186Z" fill="#F50800"/>
<path d="M19 2L2 19" stroke="#F50800" stroke-width="1.5" stroke-linecap="round" stroke-linejoin="round"/>
<path fill-rule="evenodd" clip-rule="evenodd" d="M15.75 5.32308C15.75 3.90201 14.598 2.75 13.1769 2.75H10.875C9.42525 2.75 8.25 3.92525 8.25 5.375V9C8.25 9.41421 7.91421 9.75 7.5 9.75C7.08579 9.75 6.75 9.41421 6.75 9V5.375C6.75 3.09683 8.59683 1.25 10.875 1.25H13.1769C15.2256 1.25 16.9211 2.76259 17.2074 4.73193L15.75 6.18934V5.32308ZM15.75 8.31066V9C15.75 9.41421 16.0858 9.75 16.5 9.75C16.9142 9.75 17.25 9.41421 17.25 9V6.81066L15.75 8.31066Z" fill="#F50800"/>
</svg>
