<svg width="24" height="24" viewBox="0 0 24 24" fill="none" xmlns="http://www.w3.org/2000/svg">
<path d="M20.2193 14.9943V14.6193C20.219 12.2698 18.5561 10.307 16.3423 9.84689C15.9368 9.76264 15.6762 9.36564 15.7603 8.96017C15.8445 8.55469 16.2415 8.29402 16.647 8.37814C19.5428 8.9798 21.719 11.5446 21.7193 14.6193V14.9943C21.7193 18.7223 18.6972 21.7443 14.9693 21.7443H8.96926C7.63146 21.7443 6.38257 21.3546 5.33254 20.6818C4.98382 20.4584 4.88163 19.9945 5.105 19.6457C5.32845 19.297 5.79239 19.1958 6.14113 19.4192C6.95689 19.9419 7.92669 20.2443 8.96926 20.2443H14.9693C17.8688 20.2443 20.2193 17.8938 20.2193 14.9943Z" fill="#4E5964"/>
<path d="M11.4009 16.4948V13.9948C11.4009 13.5806 11.7367 13.2448 12.1509 13.2448C12.5652 13.2448 12.9009 13.5806 12.9009 13.9948V16.4948C12.9009 16.909 12.5652 17.2448 12.1509 17.2448C11.7367 17.2448 11.4009 16.909 11.4009 16.4948Z" fill="#4E5964"/>
<path d="M18.4697 1.46991C18.7626 1.17702 19.2373 1.17702 19.5302 1.46991C19.8231 1.76281 19.8231 2.23757 19.5302 2.53046L2.53022 19.5305C2.23732 19.8234 1.76256 19.8234 1.46967 19.5305C1.17678 19.2376 1.17678 18.7628 1.46967 18.4699L2.64936 17.2892C2.3913 16.5736 2.24899 15.8028 2.24897 15.0002V14.6252C2.24897 11.5763 4.38987 9.02817 7.24994 8.3996V5.89277C7.25004 3.84769 8.97841 2.25042 11.0341 2.25019H13.1044C14.3579 2.25021 15.479 2.84784 16.1601 3.77851L18.4697 1.46991Z" fill="#4E5964"/>
</svg>
