<svg width="24" height="24" viewBox="0 0 24 24" fill="none" xmlns="http://www.w3.org/2000/svg">
<path d="M12.4523 9.48703H8.50001C5.46244 9.48703 3.00001 11.9495 3.00001 14.987V16.5002C3.00001 17.2233 3.13954 17.9137 3.39314 18.5462L12.4523 9.48703Z" fill="#00A881"/>
<path fill-rule="evenodd" clip-rule="evenodd" d="M4.16944 19.8912C5.17628 21.1752 6.7418 22.0002 8.50001 22.0002H15.5C18.5376 22.0002 21 19.5378 21 16.5002V14.987C21 11.9495 18.5376 9.48703 15.5 9.48703H14.5736L4.16944 19.8912ZM12.6954 14.7186C12.8832 14.5368 13 14.282 13 14C13 13.4477 12.5523 13 12 13C11.4477 13 11 13.4477 11 14C11 14.282 11.1168 14.5368 11.3046 14.7186C11.2694 14.8055 11.25 14.9004 11.25 15V17C11.25 17.4142 11.5858 17.75 12 17.75C12.4142 17.75 12.75 17.4142 12.75 17V15C12.75 14.9004 12.7306 14.8055 12.6954 14.7186Z" fill="#00A881"/>
<path d="M19.562 3.27865C19.8549 2.98578 19.8549 2.5109 19.5621 2.21799C19.2692 1.92508 18.7943 1.92505 18.5014 2.21793L16.4038 4.31523C15.7875 2.94912 14.4135 1.99829 12.8174 1.99829H10.6122C8.41266 1.99829 6.62957 3.78138 6.62957 5.98094V11.5C6.62957 11.9142 6.96535 12.25 7.37957 12.25C7.79378 12.25 8.12957 11.9142 8.12957 11.5V5.98094C8.12957 4.60981 9.24109 3.49829 10.6122 3.49829H12.8174C14.0159 3.49829 15.012 4.36506 15.213 5.50594L2.21842 18.499C1.92551 18.7918 1.92548 19.2667 2.21836 19.5596C2.51123 19.8525 2.98611 19.8526 3.27902 19.5597L19.562 3.27865Z" fill="#00A881"/>
<path d="M16 10.2022C15.603 10.2022 15.2781 9.89391 15.2517 9.5037L16.75 8.00561V9.45225C16.75 9.86646 16.4142 10.2022 16 10.2022Z" fill="#00A881"/>
</svg>
