<svg width="24" height="24" viewBox="0 0 24 24" fill="none" xmlns="http://www.w3.org/2000/svg">
<path d="M7.5 9V5.375C7.5 3.51104 9.01104 2 10.875 2V2H13.1769C15.0122 2 16.5 3.48779 16.5 5.32308V5.32308V9" stroke="#4E5964" stroke-width="1.5" stroke-linecap="round"/>
<path fill-rule="evenodd" clip-rule="evenodd" d="M8.5 9C5.46243 9 3 11.4624 3 14.5V16.5C3 19.5376 5.46243 22 8.5 22H15.5C18.5376 22 21 19.5376 21 16.5V14.5C21 11.4624 18.5376 9 15.5 9H15.375H8.625H8.5ZM13 14C13 14.282 12.8832 14.5368 12.6954 14.7186C12.7306 14.8055 12.75 14.9005 12.75 15V17C12.75 17.4142 12.4142 17.75 12 17.75C11.5858 17.75 11.25 17.4142 11.25 17V15C11.25 14.9005 11.2694 14.8055 11.3046 14.7186C11.1168 14.5368 11 14.282 11 14C11 13.4477 11.4477 13 12 13C12.5523 13 13 13.4477 13 14Z" fill="#4E5964"/>
</svg>
