<svg width="24" height="24" viewBox="0 0 24 24" fill="none" xmlns="http://www.w3.org/2000/svg">
<path d="M13.3014 3.49902C14.6537 3.49902 15.75 4.59531 15.75 5.94766V9.48688C16 9.5 16.3656 9.55469 16.804 9.64247C17.3656 9.75492 17.25 9.91016 17.25 9.48688V5.94766C17.25 3.76689 15.4821 1.99902 13.3014 1.99902H10.875C8.59683 1.99902 6.75 3.84585 6.75 6.12402V9.77123C6.90591 9.72152 7.12313 9.66072 7.5 9.57765C7.88257 9.52123 7.86239 9.52353 8.25 9.49254V6.12402C8.25 4.67428 9.42525 3.49902 10.875 3.49902H13.3014Z" fill="#4E5964"/>
<path fill-rule="evenodd" clip-rule="evenodd" d="M8.5 9.48696C5.46243 9.48696 3 11.9494 3 14.987V16.5001C3 19.5377 5.46243 22.0001 8.5 22.0001H15.5C18.5376 22.0001 21 19.5377 21 16.5001V14.987C21 11.9494 18.5376 9.48696 15.5 9.48696H8.5ZM13 14.2996C13 14.5696 12.8845 14.8137 12.6985 14.9885C12.7317 15.0733 12.75 15.1656 12.75 15.2622V17.1873C12.75 17.6015 12.4142 17.9373 12 17.9373C11.5858 17.9373 11.25 17.6015 11.25 17.1873V15.2622C11.25 15.1656 11.2683 15.0733 11.3015 14.9885C11.1155 14.8137 11 14.5696 11 14.2996C11 13.768 11.4477 13.3371 12 13.3371C12.5523 13.3371 13 13.768 13 14.2996Z" fill="#4E5964"/>
</svg>
