<svg width="24" height="24" viewBox="0 0 24 24" fill="none" xmlns="http://www.w3.org/2000/svg">
<path fill-rule="evenodd" clip-rule="evenodd" d="M13.1514 2.25C15.1387 2.25 16.75 3.86132 16.75 5.84863V8.25586C19.5334 8.38635 21.75 10.6843 21.75 13.5V16.5C21.75 19.3995 19.3995 21.75 16.5 21.75H7.5C4.60051 21.75 2.25 19.3995 2.25 16.5V13.5C2.25 10.6843 4.46659 8.38635 7.25 8.25586V6C7.25 3.92893 8.92893 2.25 11 2.25H13.1514ZM12 11.9502C10.9507 11.9502 10.0996 12.8012 10.0996 13.8506C10.0999 14.6333 10.5738 15.3049 11.25 15.5957V18C11.2501 18.4141 11.5859 18.75 12 18.75C12.4141 18.75 12.7499 18.4141 12.75 18V15.5947C13.4257 15.3037 13.8992 14.6329 13.8994 13.8506C13.8994 12.8014 13.0492 11.9504 12 11.9502ZM11 3.75C9.75736 3.75 8.75 4.75736 8.75 6V8.25H15.25V5.84863C15.25 4.68975 14.3103 3.75 13.1514 3.75H11Z" fill="#4E5964"/>
</svg>
