<svg width="24" height="24" viewBox="0 0 24 24" fill="none" xmlns="http://www.w3.org/2000/svg">
<path fill-rule="evenodd" clip-rule="evenodd" d="M12 3.25024C11.0335 3.25024 10.25 4.03375 10.25 5.00024V11.2504L15 11.2504C15.4142 11.2504 15.75 11.5862 15.75 12.0004C15.75 12.4146 15.4142 12.7504 15 12.7504L10.25 12.7504V19.0002C10.25 19.9667 11.0335 20.7502 12 20.7502H13.5C16.3995 20.7502 18.75 18.3997 18.75 15.5002V8.50024C18.75 5.60075 16.3995 3.25024 13.5 3.25024H12ZM10.25 12.7504H6.80375L8.52927 14.469C8.82275 14.7613 8.8237 15.2362 8.53139 15.5296C8.23909 15.8231 7.76421 15.8241 7.47073 15.5318L4.47073 12.5438C4.32212 12.3957 4.24849 12.2008 4.25002 12.0064L4.25 12.0004C4.25 11.7543 4.3685 11.5359 4.55155 11.3991L7.44259 8.47323C7.73373 8.17858 8.20859 8.17573 8.50323 8.46687C8.79788 8.758 8.80073 9.23286 8.5096 9.52751L6.80727 11.2504H10.25V12.7504Z" fill="#4E5964"/>
</svg>
