<svg width="24" height="25" viewBox="0 0 24 25" fill="none" xmlns="http://www.w3.org/2000/svg">
<path fill-rule="evenodd" clip-rule="evenodd" d="M12 3.53076C11.0335 3.53076 10.25 4.31426 10.25 5.28076V11.5309L15 11.5309C15.4142 11.5309 15.75 11.8667 15.75 12.2809C15.75 12.6951 15.4142 13.0309 15 13.0309L10.25 13.0309V19.2808C10.25 20.2473 11.0335 21.0308 12 21.0308H13.5C16.3995 21.0308 18.75 18.6803 18.75 15.7808V8.78076C18.75 5.88127 16.3995 3.53076 13.5 3.53076H12ZM10.25 13.0309H6.80375L8.52927 14.7495C8.82275 15.0418 8.8237 15.5167 8.53139 15.8102C8.23909 16.1036 7.76421 16.1046 7.47073 15.8123L4.47073 12.8243C4.32212 12.6763 4.24849 12.4814 4.25002 12.2869L4.25 12.2809C4.25 12.0348 4.3685 11.8164 4.55155 11.6797L7.44259 8.75374C7.73373 8.4591 8.20859 8.45625 8.50323 8.74738C8.79788 9.03852 8.80073 9.51338 8.5096 9.80802L6.80727 11.5309H10.25V13.0309Z" fill="#4E5964"/>
</svg>
