<svg width="24" height="24" viewBox="0 0 24 24" fill="none" xmlns="http://www.w3.org/2000/svg">
<path fill-rule="evenodd" clip-rule="evenodd" d="M9.47266 4.05444C9.47266 3.62893 9.63443 3.05165 10.1761 2.73351C11.1795 2.1442 12.5903 2.24842 13.4675 3.09453L19.4494 8.86432C21.1742 10.528 21.1857 13.5431 19.4741 15.2206L13.8205 20.7619C12.8021 21.76 11.3315 21.9191 10.1642 21.1741C9.65373 20.8483 9.47266 20.2923 9.47266 19.8378L9.47266 12.7504L13.745 12.7504L11.4697 15.0257C11.1768 15.3186 11.1768 15.7935 11.4697 16.0864C11.7626 16.3793 12.2374 16.3793 12.5303 16.0864L15.4573 13.1594C16.0974 12.5194 16.0974 11.4817 15.4573 10.8416L12.5303 7.91463C12.2374 7.62174 11.7626 7.62174 11.4697 7.91463C11.1768 8.20752 11.1768 8.6824 11.4697 8.97529L13.7448 11.2504H9.47266L9.47266 4.05444ZM9.47266 11.2504L4 11.2504C3.58579 11.2504 3.25 11.5862 3.25 12.0004C3.25 12.4146 3.58579 12.7504 4 12.7504L9.47266 12.7504V11.2504Z" fill="#4E5964"/>
</svg>
