<svg width="24" height="24" viewBox="0 0 24 24" fill="none" xmlns="http://www.w3.org/2000/svg">
<path fill-rule="evenodd" clip-rule="evenodd" d="M12.5 3.25C11.5335 3.25 10.75 4.0335 10.75 5V11.2501L6 11.2501C5.58579 11.2501 5.25 11.5859 5.25 12.0001C5.25 12.4143 5.58579 12.7501 6 12.7501L10.75 12.7501V19C10.75 19.9665 11.5335 20.75 12.5 20.75H14.5C17.3995 20.75 19.75 18.3995 19.75 15.5V8.5C19.75 5.60051 17.3995 3.25 14.5 3.25H12.5ZM10.75 12.7501H14.1962L12.4707 14.4687C12.1773 14.761 12.1763 15.2359 12.4686 15.5294C12.7609 15.8229 13.2358 15.8238 13.5293 15.5315L16.5293 12.5435C16.6779 12.3955 16.7515 12.2006 16.75 12.0061L16.75 12.0001C16.75 11.7541 16.6315 11.5357 16.4485 11.3989L13.5574 8.47298C13.2663 8.17834 12.7914 8.17549 12.4968 8.46662C12.2021 8.75775 12.1993 9.23262 12.4904 9.52726L14.1927 11.2501H10.75V12.7501Z" fill="#4E5964"/>
</svg>
