<svg width="24" height="25" viewBox="0 0 24 25" fill="none" xmlns="http://www.w3.org/2000/svg">
<path fill-rule="evenodd" clip-rule="evenodd" d="M12.5 3.53076C11.5335 3.53076 10.75 4.31426 10.75 5.28076V11.5309L6 11.5309C5.58579 11.5309 5.25 11.8667 5.25 12.2809C5.25 12.6951 5.58579 13.0309 6 13.0309L10.75 13.0309V19.2808C10.75 20.2473 11.5335 21.0308 12.5 21.0308H14.5C17.3995 21.0308 19.75 18.6803 19.75 15.7808V8.78076C19.75 5.88127 17.3995 3.53076 14.5 3.53076H12.5ZM10.75 13.0309H14.1962L12.4707 14.7495C12.1773 15.0418 12.1763 15.5167 12.4686 15.8102C12.7609 16.1036 13.2358 16.1046 13.5293 15.8123L16.5293 12.8243C16.6779 12.6763 16.7515 12.4814 16.75 12.2869L16.75 12.2809C16.75 12.0348 16.6315 11.8164 16.4485 11.6797L13.5574 8.75374C13.2663 8.4591 12.7914 8.45625 12.4968 8.74738C12.2021 9.03852 12.1993 9.51338 12.4904 9.80802L14.1927 11.5309H10.75V13.0309Z" fill="#4E5964"/>
</svg>
