<svg width="24" height="25" viewBox="0 0 24 25" fill="none" xmlns="http://www.w3.org/2000/svg">
<path fill-rule="evenodd" clip-rule="evenodd" d="M9.47266 4.33521C9.47266 3.9097 9.63443 3.33241 10.1761 3.01427C11.1795 2.42496 12.5903 2.52918 13.4675 3.3753L19.4494 9.14508C21.1742 10.8088 21.1857 13.8238 19.4741 15.5014L13.8205 21.0426C12.8021 22.0408 11.3315 22.1999 10.1642 21.4549C9.65373 21.1291 9.47266 20.5731 9.47266 20.1186L9.47266 13.0312L13.745 13.0312L11.4697 15.3065C11.1768 15.5994 11.1768 16.0743 11.4697 16.3672C11.7626 16.6601 12.2374 16.6601 12.5303 16.3672L15.4573 13.4401C16.0974 12.8001 16.0974 11.7624 15.4573 11.1224L12.5303 8.19539C12.2374 7.9025 11.7626 7.9025 11.4697 8.19539C11.1768 8.48828 11.1768 8.96316 11.4697 9.25605L13.7448 11.5312H9.47266L9.47266 4.33521ZM9.47266 11.5312L4 11.5312C3.58579 11.5312 3.25 11.867 3.25 12.2812C3.25 12.6954 3.58579 13.0312 4 13.0312L9.47266 13.0312V11.5312Z" fill="#4E5964"/>
</svg>
