<svg width="24" height="24" viewBox="0 0 24 24" fill="none" xmlns="http://www.w3.org/2000/svg">
<path fill-rule="evenodd" clip-rule="evenodd" d="M13.457 21.2543L19.8173 15.0204C21.4035 13.4657 21.3925 10.621 19.7943 9.07942L13.0647 2.58841C12.2548 1.80721 10.8039 1.80052 10 2.5884L10 11.25L3 11.25C2.58579 11.25 2.25 11.5858 2.25 12C2.25 12.4142 2.58579 12.75 3 12.75L10 12.75L10 21.3088C11.017 22.2505 12.4639 22.2277 13.457 21.2543ZM10 12.75H14.1893L11.4697 15.4697C11.1768 15.7626 11.1768 16.2374 11.4697 16.5303C11.7626 16.8232 12.2374 16.8232 12.5303 16.5303L15.8232 13.2374C16.5066 12.554 16.5066 11.446 15.8232 10.7626L12.5303 7.46967C12.2374 7.17678 11.7626 7.17678 11.4697 7.46967C11.1768 7.76256 11.1768 8.23744 11.4697 8.53033L14.1893 11.25H10V12.75Z" fill="#4E5964"/>
</svg>
