<svg width="24" height="24" viewBox="0 0 24 24" fill="none" xmlns="http://www.w3.org/2000/svg">
<path fill-rule="evenodd" clip-rule="evenodd" d="M12.5 3.25024C11.5335 3.25024 10.75 4.03375 10.75 5.00024V11.2504L6 11.2504C5.58579 11.2504 5.25 11.5862 5.25 12.0004C5.25 12.4146 5.58579 12.7504 6 12.7504L10.75 12.7504V19.0002C10.75 19.9667 11.5335 20.7502 12.5 20.7502H14.5C17.3995 20.7502 19.75 18.3997 19.75 15.5002V8.50024C19.75 5.60075 17.3995 3.25024 14.5 3.25024H12.5ZM10.75 12.7504H14.1962L12.4707 14.469C12.1773 14.7613 12.1763 15.2362 12.4686 15.5296C12.7609 15.8231 13.2358 15.8241 13.5293 15.5318L16.5293 12.5438C16.6779 12.3957 16.7515 12.2008 16.75 12.0064L16.75 12.0004C16.75 11.7543 16.6315 11.5359 16.4485 11.3991L13.5574 8.47323C13.2663 8.17858 12.7914 8.17573 12.4968 8.46687C12.2021 8.758 12.1993 9.23286 12.4904 9.52751L14.1927 11.2504H10.75V12.7504Z" fill="#4E5964"/>
</svg>
