<svg width="24" height="24" viewBox="0 0 24 24" fill="none" xmlns="http://www.w3.org/2000/svg">
<path fill-rule="evenodd" clip-rule="evenodd" d="M13.4571 21.2543L19.8173 15.0204C21.4036 13.4657 21.3926 10.621 19.7944 9.07942L13.0648 2.58841C12.2549 1.80721 10.8039 1.80052 10.0001 2.5884L10.0001 11.25H4.81063L7.5303 8.53033C7.82319 8.23744 7.82319 7.76256 7.5303 7.46967C7.23741 7.17678 6.76253 7.17678 6.46964 7.46967L3.17675 10.7626C2.49333 11.446 2.49333 12.554 3.17675 13.2374L6.46964 16.5303C6.76253 16.8232 7.23741 16.8232 7.5303 16.5303C7.82319 16.2374 7.82319 15.7626 7.5303 15.4697L4.81063 12.75H10.0001L10.0001 21.3088C11.0171 22.2505 12.464 22.2277 13.4571 21.2543ZM10.0001 12.75H16C16.4142 12.75 16.75 12.4142 16.75 12C16.75 11.5858 16.4142 11.25 16 11.25H10.0001V12.75Z" fill="#4E5964"/>
</svg>
