<svg width="24" height="25" viewBox="0 0 24 25" fill="none" xmlns="http://www.w3.org/2000/svg">
<path fill-rule="evenodd" clip-rule="evenodd" d="M9.47337 4.33521C9.47337 3.9097 9.63514 3.33241 10.1768 3.01427C11.1802 2.42496 12.591 2.52918 13.4682 3.3753L19.4501 9.14508C21.1749 10.8088 21.1864 13.8238 19.4748 15.5014L13.8213 21.0426C12.8029 22.0408 11.3322 22.1999 10.1649 21.4549C9.65444 21.1291 9.47337 20.5731 9.47337 20.1186L9.47337 13.0305H15.5565C15.9707 13.0305 16.3065 12.6947 16.3065 12.2805C16.3065 11.8663 15.9707 11.5305 15.5565 11.5305H9.47337L9.47337 4.33521ZM9.47337 11.5305H5.8115L8.08684 9.25518C8.37973 8.96229 8.37973 8.48741 8.08684 8.19452C7.79394 7.90163 7.31907 7.90163 7.02618 8.19452L4.09916 11.1215C3.45914 11.7616 3.45913 12.7992 4.09916 13.4393L7.02618 16.3663C7.31907 16.6592 7.79394 16.6592 8.08684 16.3663C8.37973 16.0734 8.37973 15.5985 8.08684 15.3056L5.81172 13.0305H9.47337V11.5305Z" fill="#4E5964"/>
</svg>
