<svg width="24" height="24" viewBox="0 0 24 24" fill="none" xmlns="http://www.w3.org/2000/svg">
<path fill-rule="evenodd" clip-rule="evenodd" d="M12 3.25C11.0335 3.25 10.25 4.0335 10.25 5V11.2501L15 11.2501C15.4142 11.2501 15.75 11.5859 15.75 12.0001C15.75 12.4143 15.4142 12.7501 15 12.7501L10.25 12.7501V19C10.25 19.9665 11.0335 20.75 12 20.75H13.5C16.3995 20.75 18.75 18.3995 18.75 15.5V8.5C18.75 5.60051 16.3995 3.25 13.5 3.25H12ZM10.25 12.7501H6.80375L8.52927 14.4687C8.82275 14.761 8.8237 15.2359 8.53139 15.5294C8.23909 15.8229 7.76421 15.8238 7.47073 15.5315L4.47073 12.5435C4.32212 12.3955 4.24849 12.2006 4.25002 12.0061L4.25 12.0001C4.25 11.7541 4.3685 11.5357 4.55155 11.3989L7.44259 8.47298C7.73373 8.17834 8.20859 8.17549 8.50323 8.46662C8.79788 8.75775 8.80073 9.23262 8.5096 9.52726L6.80727 11.2501H10.25V12.7501Z" fill="#4E5964"/>
</svg>
