<svg width="24" height="24" viewBox="0 0 24 24" fill="none" xmlns="http://www.w3.org/2000/svg">
<path fill-rule="evenodd" clip-rule="evenodd" d="M9.47337 4.05444C9.47337 3.62893 9.63514 3.05165 10.1768 2.73351C11.1802 2.1442 12.591 2.24842 13.4682 3.09453L19.4501 8.86432C21.1749 10.528 21.1864 13.5431 19.4748 15.2206L13.8213 20.7619C12.8029 21.76 11.3322 21.9191 10.1649 21.1741C9.65444 20.8483 9.47337 20.2923 9.47337 19.8378L9.47337 12.7498H15.5565C15.9707 12.7498 16.3065 12.414 16.3065 11.9998C16.3065 11.5855 15.9707 11.2498 15.5565 11.2498H9.47337L9.47337 4.05444ZM9.47337 11.2498H5.8115L8.08684 8.97442C8.37973 8.68153 8.37973 8.20665 8.08684 7.91376C7.79394 7.62087 7.31907 7.62087 7.02618 7.91376L4.09916 10.8408C3.45914 11.4808 3.45913 12.5185 4.09916 13.1585L7.02618 16.0855C7.31907 16.3784 7.79394 16.3784 8.08684 16.0855C8.37973 15.7926 8.37973 15.3178 8.08684 15.0249L5.81172 12.7498H9.47337V11.2498Z" fill="#4E5964"/>
</svg>
