<svg width="24" height="24" viewBox="0 0 24 24" fill="none" xmlns="http://www.w3.org/2000/svg">
<path fill-rule="evenodd" clip-rule="evenodd" d="M11.9999 5.03586C13.0621 3.90123 14.4976 3.24998 16.0105 3.25C17.559 3.25002 19.0264 3.9323 20.0954 5.11681C21.1621 6.29869 21.75 7.88665 21.75 9.52832C21.75 11.17 21.1621 12.7579 20.0954 13.9398L15.3145 19.2369C14.4498 20.195 13.2595 20.75 12 20.75C10.7405 20.75 9.5502 20.195 8.6855 19.2369L3.90461 13.9397C2.83789 12.7578 2.25 11.1699 2.25 9.52822C2.25 7.88655 2.83789 6.29859 3.90461 5.1167C6.12634 2.65518 9.7475 2.62823 11.9999 5.03586Z" fill="#4E5964"/>
</svg>
