<svg width="24" height="24" viewBox="0 0 24 24" fill="none" xmlns="http://www.w3.org/2000/svg">
<path d="M19.25 20.9999V5.73716L12.6455 16.8827C12.5104 17.1104 12.2648 17.2499 12 17.2499C11.7352 17.2499 11.4896 17.1104 11.3545 16.8827L4.75 5.73716V20.9999C4.75 21.4141 4.41421 21.7499 4 21.7499C3.58579 21.7499 3.25 21.4141 3.25 20.9999V2.99986C3.25 2.66199 3.4759 2.36553 3.80176 2.27623C4.12752 2.18698 4.47323 2.32654 4.64551 2.61705L12 15.0272L19.3545 2.61705C19.5268 2.32654 19.8725 2.18698 20.1982 2.27623C20.5241 2.36553 20.75 2.66199 20.75 2.99986V20.9999C20.75 21.4141 20.4142 21.7499 20 21.7499C19.5858 21.7499 19.25 21.4141 19.25 20.9999Z" fill="#4E5964"/>
</svg>
