<svg width="24" height="24" viewBox="0 0 24 24" fill="none" xmlns="http://www.w3.org/2000/svg">
<path d="M9.77051 3.07388C9.53227 2.30903 8.46727 2.30903 8.22903 3.07388L8.00853 3.78175H7.30883C6.90485 3.78175 6.63008 4.06002 6.53808 4.35538C6.44649 4.64942 6.51323 5.02564 6.82551 5.26231L7.40949 5.70488L7.18397 6.4289C7.07016 6.79424 7.21727 7.14323 7.4714 7.33583C7.72864 7.53078 8.11809 7.57829 8.43802 7.33583L8.99977 6.9101L9.56152 7.33583C9.88146 7.57829 10.2709 7.53078 10.5281 7.33583C10.7823 7.14323 10.9294 6.79424 10.8156 6.4289L10.5901 5.70488L11.174 5.26231C11.4863 5.02564 11.5531 4.64942 11.4615 4.35538C11.3695 4.06002 11.0947 3.78175 10.6907 3.78175H9.99101L9.77051 3.07388Z" fill="#4E5964"/>
<path d="M3.28618 16.0673C2.17524 17.1971 2.19055 19.0136 3.32038 20.1246C4.4502 21.2355 6.26669 21.2202 7.37763 20.0904L16.308 11.0081C17.419 9.87832 17.4036 8.06183 16.2738 6.95089C15.144 5.83996 13.3275 5.85527 12.2166 6.98509L3.28618 16.0673Z" fill="#4E5964"/>
<path d="M19.7705 11.0739C19.5323 10.309 18.4673 10.309 18.229 11.0739L18.0085 11.7817H17.3088C16.9048 11.7817 16.6301 12.06 16.5381 12.3554C16.4465 12.6494 16.5132 13.0256 16.8255 13.2623L17.4095 13.7049L17.184 14.4289C17.0702 14.7942 17.2173 15.1432 17.4714 15.3358C17.7286 15.5308 18.1181 15.5783 18.438 15.3358L18.9998 14.9101L19.5615 15.3358C19.8815 15.5783 20.2709 15.5308 20.5281 15.3358C20.7823 15.1432 20.9294 14.7942 20.8156 14.4289L20.5901 13.7049L21.174 13.2623C21.4863 13.0256 21.5531 12.6494 21.4615 12.3554C21.3695 12.06 21.0947 11.7817 20.6907 11.7817H19.991L19.7705 11.0739Z" fill="#4E5964"/>
</svg>
