<svg width="24" height="24" viewBox="0 0 24 24" fill="none" xmlns="http://www.w3.org/2000/svg">
<path d="M9.77051 3.07363C9.53227 2.30879 8.46727 2.30879 8.22903 3.07363L8.00853 3.7815H7.30883C6.90485 3.7815 6.63008 4.05978 6.53808 4.35514C6.44649 4.64917 6.51323 5.0254 6.82551 5.26207L7.40949 5.70464L7.18397 6.42865C7.07016 6.794 7.21727 7.14299 7.4714 7.33558C7.72864 7.53054 8.11809 7.57805 8.43802 7.33558L8.99977 6.90985L9.56152 7.33558C9.88146 7.57805 10.2709 7.53054 10.5281 7.33558C10.7823 7.14299 10.9294 6.794 10.8156 6.42865L10.5901 5.70464L11.174 5.26207C11.4863 5.0254 11.5531 4.64917 11.4615 4.35513C11.3695 4.05978 11.0947 3.7815 10.6907 3.7815H9.99101L9.77051 3.07363Z" fill="#4E5964"/>
<path d="M3.28618 16.0671C2.17524 17.1969 2.19055 19.0134 3.32038 20.1243C4.4502 21.2353 6.26669 21.2199 7.37763 20.0901L16.308 11.0079C17.419 9.87808 17.4036 8.06158 16.2738 6.95065C15.144 5.83971 13.3275 5.85502 12.2166 6.98485L3.28618 16.0671Z" fill="#4E5964"/>
<path d="M19.7705 11.0736C19.5323 10.3088 18.4673 10.3088 18.229 11.0736L18.0085 11.7815H17.3088C16.9048 11.7815 16.6301 12.0598 16.5381 12.3551C16.4465 12.6492 16.5132 13.0254 16.8255 13.2621L17.4095 13.7046L17.184 14.4287C17.0702 14.794 17.2173 15.143 17.4714 15.3356C17.7286 15.5305 18.1181 15.578 18.438 15.3356L18.9998 14.9099L19.5615 15.3356C19.8815 15.578 20.2709 15.5305 20.5281 15.3356C20.7823 15.143 20.9294 14.794 20.8156 14.4287L20.5901 13.7046L21.174 13.2621C21.4863 13.0254 21.5531 12.6492 21.4615 12.3551C21.3695 12.0598 21.0947 11.7815 20.6907 11.7815H19.991L19.7705 11.0736Z" fill="#4E5964"/>
</svg>
