<svg width="24" height="24" viewBox="0 0 24 24" fill="none" xmlns="http://www.w3.org/2000/svg">
<path fill-rule="evenodd" clip-rule="evenodd" d="M2.25 7.5C2.25 4.60051 4.60051 2.25 7.5 2.25H16.5C19.3995 2.25 21.75 4.60051 21.75 7.5V16.5C21.75 19.3995 19.3995 21.75 16.5 21.75H7.5C4.60051 21.75 2.25 19.3995 2.25 16.5V7.5ZM17.1567 6.38711C17.3195 6.50195 17.4299 6.67687 17.4636 6.87326L17.7392 8.48082C17.8092 8.88908 17.535 9.27678 17.1267 9.34678C16.734 9.41412 16.3602 9.16287 16.2701 8.78018L14.6282 10.6714C13.9311 11.4743 12.6842 11.4589 12.0068 10.6397L11.2575 9.73351C11.1567 9.61158 10.9655 9.63089 10.8926 9.77779L9.75908 12.0627C9.59335 12.3967 9.32399 12.6687 8.99038 12.8368L7.33751 13.6698C6.96761 13.8562 6.51663 13.7074 6.33023 13.3375C6.14383 12.9676 6.29259 12.5166 6.66249 12.3302L8.31536 11.4973C8.35767 11.476 8.39313 11.4408 8.41535 11.396L9.54889 9.11116C10.1025 7.99533 11.6176 7.81504 12.4136 8.77767L13.1628 9.68384C13.2499 9.78911 13.4062 9.79081 13.4955 9.68801L14.9546 8.00736C14.6725 7.93965 14.4434 7.71049 14.3904 7.40647C14.3194 6.99839 14.5926 6.60998 15.0006 6.53891L16.5957 6.26112C16.792 6.22693 16.9938 6.27227 17.1567 6.38711ZM8.75 15.417C8.75 15.0028 8.41421 14.667 8 14.667C7.58579 14.667 7.25 15.0028 7.25 15.417V17.417C7.25 17.8312 7.58579 18.167 8 18.167C8.41421 18.167 8.75 17.8312 8.75 17.417V15.417ZM12 13.667C12.4142 13.667 12.75 14.0028 12.75 14.417V17.417C12.75 17.8312 12.4142 18.167 12 18.167C11.5858 18.167 11.25 17.8312 11.25 17.417V14.417C11.25 14.0028 11.5858 13.667 12 13.667ZM16.75 12.417C16.75 12.0028 16.4142 11.667 16 11.667C15.5858 11.667 15.25 12.0028 15.25 12.417V17.417C15.25 17.8312 15.5858 18.167 16 18.167C16.4142 18.167 16.75 17.8312 16.75 17.417V12.417Z" fill="#4E5964"/>
</svg>
