<svg width="24" height="24" viewBox="0 0 24 24" fill="none" xmlns="http://www.w3.org/2000/svg">
<path d="M9.3 2.25C9.71421 2.25 10.05 2.58579 10.05 3C10.05 3.41421 9.71421 3.75 9.3 3.75H7.2C5.29462 3.75 3.75 5.29462 3.75 7.2V9.3C3.75 9.71421 3.41421 10.05 3 10.05C2.58579 10.05 2.25 9.71421 2.25 9.3V7.2C2.25 4.46619 4.46619 2.25 7.2 2.25H9.3Z" fill="#4E5964"/>
<path d="M13.05 3C13.05 2.58579 13.3858 2.25 13.8 2.25H16.8C19.5338 2.25 21.75 4.46619 21.75 7.2V9.3C21.75 9.71421 21.4142 10.05 21 10.05C20.5858 10.05 20.25 9.71421 20.25 9.3V7.2C20.25 5.29462 18.7054 3.75 16.8 3.75H13.8C13.3858 3.75 13.05 3.41421 13.05 3Z" fill="#4E5964"/>
<path d="M21 13.05C21.4142 13.05 21.75 13.3858 21.75 13.8V16.8193C21.75 19.5425 19.5425 21.75 16.8194 21.75H13.8C13.3858 21.75 13.05 21.4142 13.05 21C13.05 20.5858 13.3858 20.25 13.8 20.25H16.8194C18.714 20.25 20.25 18.714 20.25 16.8193V13.8C20.25 13.3858 20.5858 13.05 21 13.05Z" fill="#4E5964"/>
<path d="M10.9504 21C10.9504 21.4142 10.6146 21.75 10.2004 21.75H7.18103C4.45791 21.75 2.25039 19.5425 2.25039 16.8194V13.8C2.25039 13.3858 2.58618 13.05 3.00039 13.05C3.4146 13.05 3.75039 13.3858 3.75039 13.8V16.8194C3.75039 18.714 5.28634 20.25 7.18103 20.25H10.2004C10.6146 20.25 10.9504 20.5858 10.9504 21Z" fill="#4E5964"/>
<path d="M6.8557 7.95701L6.85572 8.75811C6.85573 9.17233 6.51995 9.50812 6.10574 9.50813C5.69153 9.50814 5.35573 9.17236 5.35572 8.75815L5.35566 6.14627C5.35566 5.94735 5.43468 5.75658 5.57533 5.61593C5.71598 5.47527 5.90675 5.39625 6.10566 5.39625L8.79873 5.39624C9.21294 5.39624 9.54873 5.73202 9.54873 6.14624C9.54873 6.56045 9.21295 6.89624 8.79873 6.89624L7.91626 6.89624L9.83027 8.81035C10.1232 9.10325 10.1231 9.57812 9.83025 9.87101C9.53734 10.1639 9.06247 10.1639 8.76959 9.87098L6.8557 7.95701Z" fill="#4E5964"/>
<path d="M14.3459 6.14624C14.3459 5.73202 14.6817 5.39624 15.0959 5.39624L17.789 5.39625C17.9879 5.39625 18.1787 5.47527 18.3193 5.61593C18.46 5.75658 18.539 5.94735 18.539 6.14627L18.5389 8.75815C18.5389 9.17236 18.2031 9.50814 17.7889 9.50813C17.3747 9.50812 17.0389 9.17233 17.0389 8.75811L17.0389 7.98401L15.2362 9.82474C14.9464 10.1207 14.4716 10.1256 14.1756 9.83581C13.8797 9.54599 13.8747 9.07114 14.1646 8.77521L16.0047 6.89624L15.0959 6.89624C14.6817 6.89624 14.3459 6.56045 14.3459 6.14624Z" fill="#4E5964"/>
<path d="M15.2279 14.1678C14.934 13.876 14.4591 13.8776 14.1672 14.1715C13.8754 14.4655 13.877 14.9403 14.1709 15.2322L15.9692 17.0178L15.0958 17.0179C14.6816 17.0179 14.3458 17.3536 14.3458 17.7679C14.3458 18.1821 14.6816 18.5179 15.0958 18.5179L17.7889 18.5178C17.9878 18.5178 18.1786 18.4388 18.3192 18.2982C18.4599 18.1575 18.5389 17.9667 18.5389 17.7678L18.5388 15.1559C18.5388 14.7417 18.203 14.406 17.7888 14.406C17.3746 14.406 17.0388 14.7418 17.0388 15.156L17.0388 15.9661L15.2279 14.1678Z" fill="#4E5964"/>
<path d="M6.10574 14.4059C6.51995 14.406 6.85573 14.7417 6.85572 15.156L6.85568 17.0178L8.79873 17.0178C9.21295 17.0178 9.54873 17.3536 9.54873 17.7678C9.54873 18.1821 9.21294 18.5178 8.79873 18.5178L6.10566 18.5178C5.90675 18.5178 5.71598 18.4388 5.57533 18.2981C5.43468 18.1575 5.35566 17.9667 5.35566 17.7678L5.35572 15.1559C5.35573 14.7417 5.69153 14.4059 6.10574 14.4059Z" fill="#4E5964"/>
</svg>
