<svg width="24" height="24" viewBox="0 0 24 24" fill="none" xmlns="http://www.w3.org/2000/svg">
<path d="M3.25 5.00024C3.25 4.58603 3.58579 4.25024 4 4.25024H20C20.4142 4.25024 20.75 4.58603 20.75 5.00024C20.75 5.41446 20.4142 5.75024 20 5.75024L4 5.75024C3.58579 5.75024 3.25 5.41446 3.25 5.00024Z" fill="#4E5964"/>
<path d="M11.25 19.0002C11.25 18.586 11.5858 18.2502 12 18.2502L20 18.2502C20.4142 18.2502 20.75 18.586 20.75 19.0002C20.75 19.4145 20.4142 19.7502 20 19.7502L12 19.7502C11.5858 19.7502 11.25 19.4145 11.25 19.0002Z" fill="#4E5964"/>
<path d="M8 11.2502C7.58579 11.2502 7.25 11.586 7.25 12.0002C7.25 12.4145 7.58579 12.7502 8 12.7502H20C20.4142 12.7502 20.75 12.4145 20.75 12.0002C20.75 11.586 20.4142 11.2502 20 11.2502H8Z" fill="#4E5964"/>
</svg>
