<svg width="24" height="24" viewBox="0 0 24 24" fill="none" xmlns="http://www.w3.org/2000/svg">
<path d="M3.25 5C3.25 4.58579 3.58579 4.25 4 4.25H20C20.4142 4.25 20.75 4.58579 20.75 5C20.75 5.41421 20.4142 5.75 20 5.75L4 5.75C3.58579 5.75 3.25 5.41421 3.25 5Z" fill="#00A881"/>
<path d="M7.25 12C7.25 11.5858 7.58579 11.25 8 11.25H20C20.4142 11.25 20.75 11.5858 20.75 12C20.75 12.4142 20.4142 12.75 20 12.75H8C7.58579 12.75 7.25 12.4142 7.25 12Z" fill="#00A881"/>
<path d="M12 18.25C11.5858 18.25 11.25 18.5858 11.25 19C11.25 19.4142 11.5858 19.75 12 19.75L20 19.75C20.4142 19.75 20.75 19.4142 20.75 19C20.75 18.5858 20.4142 18.25 20 18.25L12 18.25Z" fill="#00A881"/>
</svg>
