<svg width="24" height="24" viewBox="0 0 24 24" fill="none" xmlns="http://www.w3.org/2000/svg">
<path d="M4 4.25C3.58579 4.25 3.25 4.58579 3.25 5C3.25 5.41421 3.58579 5.75 4 5.75L20 5.75C20.4142 5.75 20.75 5.41421 20.75 5C20.75 4.58579 20.4142 4.25 20 4.25H4Z" fill="#00ABB8"/>
<path d="M3.25 12C3.25 11.5858 3.58579 11.25 4 11.25H16C16.4142 11.25 16.75 11.5858 16.75 12C16.75 12.4142 16.4142 12.75 16 12.75H4C3.58579 12.75 3.25 12.4142 3.25 12Z" fill="#00ABB8"/>
<path d="M3.25 19C3.25 18.5858 3.58579 18.25 4 18.25L12 18.25C12.4142 18.25 12.75 18.5858 12.75 19C12.75 19.4142 12.4142 19.75 12 19.75L4 19.75C3.58579 19.75 3.25 19.4142 3.25 19Z" fill="#00ABB8"/>
</svg>
