<svg width="24" height="24" viewBox="0 0 24 24" fill="none" xmlns="http://www.w3.org/2000/svg">
<path fill-rule="evenodd" clip-rule="evenodd" d="M3.25 5.00025C3.25 4.58603 3.58579 4.25025 4 4.25025L20 4.25024C20.4142 4.25024 20.75 4.58603 20.75 5.00024C20.75 5.41446 20.4142 5.75024 20 5.75024L4 5.75025C3.58579 5.75025 3.25 5.41446 3.25 5.00025Z" fill="#4E5964"/>
<path fill-rule="evenodd" clip-rule="evenodd" d="M3.25 19.0002C3.25 18.586 3.58579 18.2502 4 18.2502L12 18.2502C12.4142 18.2502 12.75 18.586 12.75 19.0002C12.75 19.4145 12.4142 19.7502 12 19.7502L4 19.7502C3.58579 19.7502 3.25 19.4145 3.25 19.0002Z" fill="#4E5964"/>
<path fill-rule="evenodd" clip-rule="evenodd" d="M3.25 12.0002C3.25 11.586 3.58579 11.2502 4 11.2502H16C16.4142 11.2502 16.75 11.586 16.75 12.0002C16.75 12.4145 16.4142 12.7502 16 12.7502H4C3.58579 12.7502 3.25 12.4145 3.25 12.0002Z" fill="#4E5964"/>
</svg>
