<svg width="24" height="24" viewBox="0 0 24 24" fill="none" xmlns="http://www.w3.org/2000/svg">
<path d="M16.5 3.25C19.3995 3.25 21.75 5.60051 21.75 8.5V15.5C21.75 18.3995 19.3995 20.75 16.5 20.75H4C3.0335 20.75 2.25 19.9665 2.25 19V8.5C2.25 5.60051 4.60051 3.25 7.5 3.25H16.5ZM7.97852 8C7.34652 8 6.85767 8.16791 6.51367 8.50391C6.16977 8.8399 5.99805 9.32042 5.99805 9.94434V10.3516C5.99805 10.5275 6.08203 10.6162 6.25 10.6162H7.27051C7.4382 10.6161 7.52246 10.5274 7.52246 10.3516V9.96777C7.52249 9.72019 7.57401 9.54445 7.67773 9.44043C7.7817 9.32847 7.96192 9.2725 8.21777 9.27246H8.6377C8.9017 9.27246 9.09015 9.32843 9.20215 9.44043C9.32193 9.54443 9.3818 9.72008 9.38184 9.96777V10.3281C9.38179 10.6721 9.20175 10.9921 8.8418 11.2881L6.63379 13.1602C6.24194 13.4801 6.0459 13.8683 6.0459 14.3242V15.4639C6.0459 15.6318 6.12998 15.7158 6.29785 15.7158H10.6182C10.7861 15.7158 10.8701 15.6318 10.8701 15.4639V14.624C10.8701 14.4561 10.7861 14.3721 10.6182 14.3721H7.75V14.1797C7.7501 14.0758 7.79863 13.9795 7.89453 13.8916L10.1504 11.9717C10.6302 11.5637 10.8701 11.0477 10.8701 10.4238V9.94434C10.8701 9.32045 10.6984 8.8399 10.3545 8.50391C10.0105 8.16791 9.52165 8 8.88965 8H7.97852ZM14.832 8C14.696 8 14.5915 8.02798 14.5195 8.08398C14.4556 8.13206 14.3836 8.2283 14.3037 8.37207L11.916 12.8115C11.836 12.9635 11.7959 13.1604 11.7959 13.4004V13.8682C11.7959 14.0041 11.836 14.1124 11.916 14.1924C11.996 14.2723 12.1043 14.3115 12.2402 14.3115H15.2158V15.4639C15.2158 15.6318 15.2999 15.7157 15.4678 15.7158H16.4043C16.4921 15.7158 16.552 15.6999 16.584 15.668C16.624 15.628 16.6436 15.5599 16.6436 15.4639V14.3115H17.5078C17.6678 14.3115 17.748 14.22 17.748 14.0361V13.2324C17.748 13.0724 17.6678 12.9922 17.5078 12.9922H16.6436V8.44434C16.6436 8.30834 16.5997 8.20012 16.5117 8.12012C16.4318 8.04027 16.3242 8.00009 16.1885 8H14.832ZM15.2158 12.9922H13.2725L15.2158 9.28418V12.9922Z" fill="#4E5964"/>
</svg>
