<svg width="24" height="25" viewBox="0 0 24 25" fill="none" xmlns="http://www.w3.org/2000/svg">
<path fill-rule="evenodd" clip-rule="evenodd" d="M2.25 8.77637C2.25 5.87687 4.60051 3.52637 7.5 3.52637H16.5C19.3995 3.52637 21.75 5.87687 21.75 8.77637V15.7764C21.75 18.6759 19.3995 21.0264 16.5 21.0264H4C3.0335 21.0264 2.25 20.2429 2.25 19.2764V8.77637ZM8.5 10.0264C8.1377 10.0264 7.75 10.3638 7.75 10.8859C7.75 11.3002 7.41421 11.6359 7 11.6359C6.58579 11.6359 6.25 11.3002 6.25 10.8859C6.25 9.63671 7.21141 8.52637 8.5 8.52637C9.78859 8.52637 10.75 9.63671 10.75 10.8859C10.75 12.1932 9.83822 12.8907 9.19437 13.3648L9.10355 13.4316C8.5443 13.8428 8.14943 14.1332 7.93509 14.5264H10C10.4142 14.5264 10.75 14.8622 10.75 15.2764C10.75 15.6906 10.4142 16.0264 10 16.0264H7.6213C6.77733 16.0264 6.13502 15.1935 6.38858 14.3546L6.38957 14.3514C6.70919 13.3109 7.55281 12.7012 8.14344 12.2744C8.19978 12.2337 8.25382 12.1946 8.30488 12.157C8.97687 11.6621 9.25 11.3691 9.25 10.8859C9.25 10.3638 8.8623 10.0264 8.5 10.0264ZM15.924 8.57656C15.3685 8.417 14.7729 8.64597 14.4661 9.14041L14.4618 9.14752C13.7872 10.2623 13.058 11.528 12.4255 12.6347L12.4236 12.6382C12.1921 13.0482 12.1921 13.5663 12.4236 13.9763C12.6604 14.3958 13.1069 14.6532 13.588 14.6532H15.3575V15.2764C15.3575 15.6906 15.6933 16.0264 16.1075 16.0264C16.5217 16.0264 16.8575 15.6906 16.8575 15.2764V14.6532H17C17.4142 14.6532 17.75 14.3174 17.75 13.9032C17.75 13.4889 17.4142 13.1532 17 13.1532H16.8575V9.83148C16.8575 9.26967 16.4973 8.7412 15.924 8.57656ZM15.3575 10.5708V13.1532H13.857C14.3334 12.3207 14.8534 11.4193 15.3575 10.5708Z" fill="#4E5964"/>
</svg>
