<svg width="24" height="24" viewBox="0 0 24 24" fill="none" xmlns="http://www.w3.org/2000/svg">
<path fill-rule="evenodd" clip-rule="evenodd" d="M2.25 8.50073C2.25 5.60124 4.60051 3.25073 7.5 3.25073H16.5C19.3995 3.25073 21.75 5.60124 21.75 8.50073V15.5007C21.75 18.4002 19.3995 20.7507 16.5 20.7507H4C3.0335 20.7507 2.25 19.9672 2.25 19.0007V8.50073ZM9.25 9.88107C9.25 8.32386 10.6812 7.25073 12.1945 7.25073H12.2971C12.6191 7.25073 12.94 7.30757 13.2407 7.41998C14.0141 7.70915 14.5523 8.31727 14.7061 9.04419C14.8616 9.77931 14.6033 10.5505 13.9616 11.0836L13.3049 11.6293C13.2465 11.6778 13.1911 11.7218 13.1453 11.7582L13.1328 11.7681C13.0818 11.8086 13.0458 11.8375 13.0147 11.8642C12.9557 11.9149 12.9419 11.935 12.9372 11.9425C12.932 11.9503 12.8719 12.0423 12.8719 12.477C12.8719 12.8912 12.5361 13.227 12.1219 13.227C11.7077 13.227 11.3719 12.8912 11.3719 12.477C11.3719 11.9427 11.437 11.5046 11.673 11.135C11.788 10.9551 11.922 10.8254 12.0371 10.7265C12.0817 10.6882 12.172 10.6158 12.2456 10.5568C12.2893 10.5218 12.3277 10.491 12.3463 10.4755L13.003 9.92991C13.2306 9.74079 13.2751 9.52728 13.2385 9.35457C13.2003 9.17366 13.0518 8.95078 12.7154 8.82498C12.5865 8.77679 12.4438 8.75073 12.2971 8.75073H12.1945C11.2838 8.75073 10.75 9.36132 10.75 9.88107C10.75 10.2953 10.4142 10.6311 10 10.6311C9.58579 10.6311 9.25 10.2953 9.25 9.88107ZM12.1426 16.0833C11.5903 16.0833 11.1426 15.6355 11.1426 15.0833C11.1426 14.531 11.5903 14.0833 12.1426 14.0833C12.6949 14.0833 13.1426 14.531 13.1426 15.0833C13.1426 15.6355 12.6949 16.0833 12.1426 16.0833Z" fill="#4E5964"/>
</svg>
