<svg width="24" height="24" viewBox="0 0 24 24" fill="none" xmlns="http://www.w3.org/2000/svg">
<path d="M16.5 3.25C19.3995 3.25 21.75 5.60051 21.75 8.5V15.5C21.75 18.3995 19.3995 20.75 16.5 20.75H4C3.0335 20.75 2.25 19.9665 2.25 19V8.5C2.25 5.60051 4.60051 3.25 7.5 3.25H16.5ZM8.5498 7.75C7.27648 7.75 6.24414 8.78234 6.24414 10.0557V10.5264C6.24419 10.9405 6.57996 11.2764 6.99414 11.2764C7.40832 11.2764 7.74409 10.9405 7.74414 10.5264V10.0557C7.74414 9.61077 8.10491 9.25 8.5498 9.25H9.32715C9.77205 9.25 10.1328 9.61077 10.1328 10.0557V10.542C10.1328 10.8316 9.97734 11.099 9.72559 11.2422L7.41016 12.5586C6.68949 12.9683 6.24431 13.7335 6.24414 14.5625V15.5C6.24416 15.9142 6.57994 16.25 6.99414 16.25H10.8828C11.297 16.25 11.6328 15.9142 11.6328 15.5C11.6328 15.0858 11.297 14.75 10.8828 14.75H7.74414V14.5625C7.74431 14.273 7.89966 14.0054 8.15137 13.8623L10.4668 12.5469C11.1877 12.1371 11.6328 11.3712 11.6328 10.542V10.0557C11.6328 8.78234 10.6005 7.75 9.32715 7.75H8.5498ZM16.5459 7.77832C16.2238 7.68641 15.8799 7.81997 15.7031 8.10449L12.2461 13.668C12.1024 13.8992 12.0952 14.1908 12.2275 14.4287C12.3598 14.6665 12.6107 14.8144 12.8828 14.8145H15.5898V15.5C15.5899 15.9142 15.9256 16.25 16.3398 16.25C16.754 16.25 17.0898 15.9142 17.0898 15.5V14.8145H17.5498C17.9638 14.8144 18.2996 14.4784 18.2998 14.0645C18.2998 13.6503 17.964 13.3145 17.5498 13.3145H17.0898V8.5C17.0898 8.1651 16.8679 7.87028 16.5459 7.77832ZM15.5898 13.3145H14.2324L15.5898 11.1279V13.3145Z" fill="#4E5964"/>
</svg>
