<svg width="24" height="24" viewBox="0 0 24 24" fill="none" xmlns="http://www.w3.org/2000/svg">
<path fill-rule="evenodd" clip-rule="evenodd" d="M2 9.5C2 6.46243 4.46243 4 7.5 4H16.5C19.5376 4 22 6.46243 22 9.5V14.5C22 17.5376 19.5376 20 16.5 20H3C2.44772 20 2 19.5523 2 19V9.5ZM8.5 9.75C8.1377 9.75 7.75 10.0874 7.75 10.6096C7.75 11.0238 7.41421 11.3596 7 11.3596C6.58579 11.3596 6.25 11.0238 6.25 10.6096C6.25 9.36034 7.21141 8.25 8.5 8.25C9.78859 8.25 10.75 9.36034 10.75 10.6096C10.75 11.9168 9.83822 12.6143 9.19437 13.0885L9.10355 13.1553C8.5443 13.5665 8.14943 13.8568 7.93509 14.25H10C10.4142 14.25 10.75 14.5858 10.75 15C10.75 15.4142 10.4142 15.75 10 15.75H7.6213C6.77733 15.75 6.13502 14.9172 6.38858 14.0783L6.38957 14.075C6.70919 13.0345 7.55281 12.4249 8.14344 11.998C8.19976 11.9573 8.25384 11.9182 8.30488 11.8806C8.97687 11.3858 9.25 11.0928 9.25 10.6096C9.25 10.0874 8.8623 9.75 8.5 9.75ZM15.924 8.30019C15.3685 8.14063 14.7729 8.3696 14.4661 8.86405L14.4618 8.87115C13.7872 9.98594 13.058 11.2517 12.4255 12.3583L12.4236 12.3618C12.1921 12.7718 12.1921 13.2899 12.4236 13.6999C12.6604 14.1195 13.1069 14.3768 13.588 14.3768H15.3575V15C15.3575 15.4142 15.6933 15.75 16.1075 15.75C16.5217 15.75 16.8575 15.4142 16.8575 15V14.3768H17C17.4142 14.3768 17.75 14.041 17.75 13.6268C17.75 13.2126 17.4142 12.8768 17 12.8768H16.8575V9.55511C16.8575 8.9933 16.4973 8.46483 15.924 8.30019ZM15.3575 10.2945V12.8768H13.857C14.3334 12.0444 14.8534 11.1429 15.3575 10.2945Z" fill="#4E5964"/>
</svg>
