<svg width="24" height="24" viewBox="0 0 24 24" fill="none" xmlns="http://www.w3.org/2000/svg">
<path fill-rule="evenodd" clip-rule="evenodd" d="M7.5 4C4.46243 4 2 6.46243 2 9.5V19C2 19.5523 2.44772 20 3 20H16.5C19.5376 20 22 17.5376 22 14.5V9.5C22 6.46243 19.5376 4 16.5 4H7.5ZM15.993 11.002C15.4407 11.002 14.993 11.4497 14.993 12.002C14.993 12.5543 15.4407 13.002 15.993 13.002H16.011C16.5632 13.002 17.011 12.5543 17.011 12.002C17.011 11.4497 16.5632 11.002 16.011 11.002H15.993ZM10.991 12.002C10.991 11.4497 11.4387 11.002 11.991 11.002H12.009C12.5613 11.002 13.009 11.4497 13.009 12.002C13.009 12.5543 12.5613 13.002 12.009 13.002H11.991C11.4387 13.002 10.991 12.5543 10.991 12.002ZM7.991 11.002C7.43872 11.002 6.991 11.4497 6.991 12.002C6.991 12.5543 7.43872 13.002 7.991 13.002H8.009C8.56128 13.002 9.009 12.5543 9.009 12.002C9.009 11.4497 8.56128 11.002 8.009 11.002H7.991Z" fill="#4E5964"/>
</svg>
