<svg width="24" height="25" viewBox="0 0 24 25" fill="none" xmlns="http://www.w3.org/2000/svg">
<path fill-rule="evenodd" clip-rule="evenodd" d="M2.25 8.77637C2.25 5.87687 4.60051 3.52637 7.5 3.52637H16.5C19.3995 3.52637 21.75 5.87687 21.75 8.77637V15.7764C21.75 18.6759 19.3995 21.0264 16.5 21.0264H4C3.0335 21.0264 2.25 20.2429 2.25 19.2764V8.77637ZM9.25 10.1567C9.25 8.59949 10.6812 7.52637 12.1945 7.52637H12.2971C12.6191 7.52637 12.94 7.58321 13.2407 7.69562C14.0141 7.98478 14.5523 8.59291 14.7061 9.31982C14.8616 10.0549 14.6033 10.8261 13.9616 11.3593L13.3049 11.9049C13.2465 11.9535 13.1911 11.9974 13.1453 12.0338L13.1328 12.0438C13.0818 12.0842 13.0458 12.1132 13.0147 12.1399C12.9557 12.1906 12.9419 12.2107 12.9372 12.2181C12.932 12.226 12.8719 12.3179 12.8719 12.7526C12.8719 13.1669 12.5361 13.5026 12.1219 13.5026C11.7077 13.5026 11.3719 13.1669 11.3719 12.7526C11.3719 12.2183 11.437 11.7802 11.673 11.4107C11.788 11.2307 11.922 11.1011 12.0371 11.0022C12.0817 10.9638 12.172 10.8914 12.2456 10.8324C12.2893 10.7974 12.3277 10.7666 12.3463 10.7512L13.003 10.2055C13.2306 10.0164 13.2751 9.80292 13.2385 9.63021C13.2003 9.44929 13.0518 9.22641 12.7154 9.10062C12.5865 9.05242 12.4438 9.02637 12.2971 9.02637H12.1945C11.2838 9.02637 10.75 9.63695 10.75 10.1567C10.75 10.5709 10.4142 10.9067 10 10.9067C9.58579 10.9067 9.25 10.5709 9.25 10.1567ZM12.1426 16.3589C11.5903 16.3589 11.1426 15.9112 11.1426 15.3589C11.1426 14.8066 11.5903 14.3589 12.1426 14.3589C12.6949 14.3589 13.1426 14.8066 13.1426 15.3589C13.1426 15.9112 12.6949 16.3589 12.1426 16.3589Z" fill="#4E5964"/>
</svg>
