<svg width="24" height="24" viewBox="0 0 24 24" fill="none" xmlns="http://www.w3.org/2000/svg">
<path fill-rule="evenodd" clip-rule="evenodd" d="M7.5 3.25C4.60051 3.25 2.25 5.60051 2.25 8.5V15.5C2.25 18.3995 4.60051 20.75 7.5 20.75H16.5C19.3995 20.75 21.75 18.3995 21.75 15.5V8.5C21.75 5.60051 19.3995 3.25 16.5 3.25H7.5ZM7 10.25C6.0335 10.25 5.25 11.0335 5.25 12C5.25 12.9665 6.0335 13.75 7 13.75C7.9665 13.75 8.75 12.9665 8.75 12C8.75 11.0335 7.9665 10.25 7 10.25ZM12 10.25C11.0335 10.25 10.25 11.0335 10.25 12C10.25 12.9665 11.0335 13.75 12 13.75C12.9665 13.75 13.75 12.9665 13.75 12C13.75 11.0335 12.9665 10.25 12 10.25ZM17 10.25C16.0335 10.25 15.25 11.0335 15.25 12C15.25 12.9665 16.0335 13.75 17 13.75C17.9665 13.75 18.75 12.9665 18.75 12C18.75 11.0335 17.9665 10.25 17 10.25Z" fill="#4E5964"/>
</svg>
