<svg width="24" height="25" viewBox="0 0 24 25" fill="none" xmlns="http://www.w3.org/2000/svg">
<path fill-rule="evenodd" clip-rule="evenodd" d="M7.5 3.52563C4.60051 3.52563 2.25 5.87614 2.25 8.77563V15.7756C2.25 18.6751 4.60051 21.0256 7.5 21.0256H16.5C19.3995 21.0256 21.75 18.6751 21.75 15.7756V8.77563C21.75 5.87614 19.3995 3.52563 16.5 3.52563H7.5ZM7 10.5256C6.0335 10.5256 5.25 11.3091 5.25 12.2756C5.25 13.2421 6.0335 14.0256 7 14.0256C7.9665 14.0256 8.75 13.2421 8.75 12.2756C8.75 11.3091 7.9665 10.5256 7 10.5256ZM12 10.5256C11.0335 10.5256 10.25 11.3091 10.25 12.2756C10.25 13.2421 11.0335 14.0256 12 14.0256C12.9665 14.0256 13.75 13.2421 13.75 12.2756C13.75 11.3091 12.9665 10.5256 12 10.5256ZM17 10.5256C16.0335 10.5256 15.25 11.3091 15.25 12.2756C15.25 13.2421 16.0335 14.0256 17 14.0256C17.9665 14.0256 18.75 13.2421 18.75 12.2756C18.75 11.3091 17.9665 10.5256 17 10.5256Z" fill="#4E5964"/>
</svg>
