<svg width="24" height="24" viewBox="0 0 24 24" fill="none" xmlns="http://www.w3.org/2000/svg">
<path fill-rule="evenodd" clip-rule="evenodd" d="M2 9.5C2 6.46243 4.46243 4 7.5 4H16.5C19.5376 4 22 6.46243 22 9.5V14.5C22 17.5376 19.5376 20 16.5 20H3C2.44772 20 2 19.5523 2 19V9.5ZM9.25 9.88034C9.25 8.32313 10.6812 7.25 12.1945 7.25H12.2971C12.6191 7.25 12.94 7.30684 13.2407 7.41925C14.0141 7.70841 14.5523 8.31654 14.7061 9.04346C14.8616 9.77858 14.6033 10.5497 13.9616 11.0829L13.3049 11.6285C13.2465 11.6771 13.191 11.7211 13.1452 11.7575L13.1451 11.7576L13.1328 11.7674C13.0818 11.8079 13.0458 11.8368 13.0147 11.8635C12.9557 11.9142 12.9419 11.9343 12.9372 11.9417L12.9369 11.9421C12.9318 11.9499 12.8719 12.0415 12.8719 12.4763C12.8719 12.8905 12.5361 13.2263 12.1219 13.2263C11.7077 13.2263 11.3719 12.8905 11.3719 12.4763C11.3719 11.9419 11.437 11.5039 11.673 11.1343C11.788 10.9543 11.922 10.8247 12.0371 10.7258C12.0817 10.6874 12.1722 10.6149 12.2458 10.5559C12.2897 10.5207 12.3277 10.4903 12.3463 10.4748L13.003 9.92918C13.2306 9.74006 13.2751 9.52655 13.2385 9.35384C13.2003 9.17292 13.0518 8.95005 12.7154 8.82425C12.5865 8.77606 12.4438 8.75 12.2971 8.75H12.1945C11.2838 8.75 10.75 9.36058 10.75 9.88034C10.75 10.2946 10.4142 10.6303 10 10.6303C9.58579 10.6303 9.25 10.2946 9.25 9.88034ZM12 14C11.4477 14 11 14.4477 11 15C11 15.5523 11.4477 16 12 16C12.5523 16 13 15.5523 13 15C13 14.4477 12.5523 14 12 14Z" fill="#4E5964"/>
</svg>
