<svg width="24" height="24" viewBox="0 0 24 24" fill="none" xmlns="http://www.w3.org/2000/svg">
<path d="M19 10.25C19.4142 10.25 19.75 10.5858 19.75 11V11.0811C19.75 15.091 16.6721 18.3799 12.75 18.7188V20.25H15.6006C16.0147 20.2501 16.3505 20.5859 16.3506 21C16.3506 21.4141 16.0147 21.7499 15.6006 21.75H8.40039C7.98618 21.75 7.65039 21.4142 7.65039 21C7.65043 20.5858 7.9862 20.25 8.40039 20.25H11.25V18.7227C7.33172 18.4074 4.25 15.1303 4.25 11.1309V11.0811C4.2502 10.667 4.58591 10.3311 5 10.3311C5.41409 10.3311 5.7498 10.667 5.75 11.0811V11.1309C5.75 14.5104 8.48963 17.25 11.8691 17.25H12.0811C15.4879 17.25 18.25 14.4879 18.25 11.0811V11C18.25 10.5858 18.5858 10.25 19 10.25Z" fill="#4E5964"/>
<path d="M12 2.25C14.8995 2.25 17.25 4.60051 17.25 7.5V11C17.25 13.8995 14.8995 16.25 12 16.25C9.71424 16.25 7.77061 14.7889 7.0498 12.75H11.5C11.9142 12.75 12.25 12.4142 12.25 12C12.25 11.5858 11.9142 11.25 11.5 11.25H7C6.91491 11.25 6.83405 11.2669 6.75781 11.293C6.75248 11.196 6.75 11.0983 6.75 11V9.75H11.5C11.9142 9.75 12.25 9.41421 12.25 9C12.25 8.58579 11.9142 8.25 11.5 8.25H6.75V7.5C6.75 7.24529 6.76963 6.99502 6.80469 6.75H11.5C11.9142 6.75 12.25 6.41421 12.25 6C12.25 5.58579 11.9142 5.25 11.5 5.25H7.25586C8.09851 3.47642 9.9058 2.25 12 2.25Z" fill="#4E5964"/>
</svg>
