<svg width="24" height="24" viewBox="0 0 24 24" fill="none" xmlns="http://www.w3.org/2000/svg">
<path d="M12 21L12 18" stroke="#4E5964" stroke-width="1.5" stroke-linecap="round"/>
<path d="M5 11.0813V11.1308V11.1308C5 14.9245 8.07545 18 11.8692 18H12.0813C15.9024 18 19 14.9024 19 11.0813V11.0813V11" stroke="#4E5964" stroke-width="1.5" stroke-linecap="round"/>
<path d="M8.40039 21H15.6004" stroke="#4E5964" stroke-width="1.5" stroke-linecap="round"/>
<path fill-rule="evenodd" clip-rule="evenodd" d="M7.50683 7.25C7.63655 4.881 9.59861 3 12 3C13.6656 3 15.1199 3.90495 15.898 5.25L14 5.25C13.5858 5.25 13.25 5.58579 13.25 6C13.25 6.41421 13.5858 6.75 14 6.75L16.4378 6.75C16.4787 6.99391 16.5 7.24447 16.5 7.5V11.5C16.5 13.9853 14.4853 16 12 16C9.51472 16 7.5 13.9853 7.5 11.5V8.75H10C10.4142 8.75 10.75 8.41421 10.75 8C10.75 7.58579 10.4142 7.25 10 7.25H7.50683Z" fill="#4E5964"/>
</svg>
