<svg width="24" height="24" viewBox="0 0 24 24" fill="none" xmlns="http://www.w3.org/2000/svg">
<path d="M13.3347 1.75903C10.777 1.75903 8.68717 3.80914 8.54901 6.3911H11.2045C11.6457 6.3911 12.0033 6.75708 12.0033 7.20853C12.0033 7.65998 11.6457 8.02595 11.2045 8.02595H8.54174V11.0232C8.54174 12.0917 8.87566 13.0804 9.44253 13.886L17.0577 5.84615L15.4649 5.84615C15.0237 5.84615 14.6661 5.48018 14.6661 5.02873C14.6661 4.57728 15.0237 4.21131 15.4649 4.21131L17.4864 4.21131C16.6577 2.74534 15.1088 1.75903 13.3347 1.75903Z" fill="#00ABB8"/>
<path d="M18.1276 6.8978L10.4848 14.9669C11.2813 15.5707 12.2673 15.9277 13.3347 15.9277C15.9818 15.9277 18.1276 13.7319 18.1276 11.0232V6.8978Z" fill="#00ABB8"/>
<path d="M20.5893 2.27479C20.8742 1.97406 20.8613 1.49936 20.5606 1.21452C20.2598 0.929676 19.7851 0.942553 19.5003 1.24328L7.7203 13.6802C7.3254 12.8246 7.10384 11.8635 7.10384 10.8477V10.7956C7.10384 10.3764 6.78195 10.0366 6.38489 10.0366C5.98783 10.0366 5.66595 10.3764 5.66595 10.7956V10.8477C5.66595 12.2867 6.02616 13.6369 6.65658 14.8033L3.20426 18.4481C2.91942 18.7488 2.9323 19.2235 3.23303 19.5084C3.53376 19.7932 4.00845 19.7803 4.2933 19.4796L20.5893 2.27479Z" fill="#00ABB8"/>
<path d="M12.6141 18.8137C11.0586 18.6801 9.63617 18.05 8.48905 17.0739L9.51306 15.9927C10.5454 16.8267 11.8361 17.3222 13.2363 17.3222H13.3262L13.333 17.3222L13.3399 17.3222H13.3803C16.7944 17.3222 19.5621 14.4002 19.5621 10.7956V10.71C19.5621 10.2908 19.884 9.95093 20.2811 9.95093C20.6782 9.95093 21 10.2908 21 10.71V10.7956C21 14.9996 17.9456 18.4504 14.052 18.8095V20.4811H16.9066C17.3037 20.4811 17.6256 20.821 17.6256 21.2402C17.6256 21.6594 17.3037 21.9992 16.9066 21.9992H13.3477L13.333 21.9994L13.3183 21.9992H9.76003C9.36296 21.9992 9.04108 21.6594 9.04108 21.2402C9.04108 20.821 9.36296 20.4811 9.76003 20.4811H12.6141V18.8137Z" fill="#00ABB8"/>
</svg>
