<svg width="24" height="24" viewBox="0 0 24 24" fill="none" xmlns="http://www.w3.org/2000/svg">
<path fill-rule="evenodd" clip-rule="evenodd" d="M6.92867 15.0106C6.03536 13.9106 5.5 12.5081 5.5 10.9806V10.9291C5.5 10.5149 5.16421 10.1791 4.75 10.1791C4.33579 10.1791 4 10.5149 4 10.9291V10.9806C4 12.9224 4.70084 14.7006 5.86339 16.0759L6.92867 15.0106ZM6.93561 17.125C8.13392 18.0939 9.62137 18.7193 11.2483 18.8517V20.4993H8.27094C7.85672 20.4993 7.52094 20.8351 7.52094 21.2493C7.52094 21.6635 7.85672 21.9993 8.27094 21.9993H11.983L11.9983 21.9995L12.0136 21.9993H15.7263C16.1405 21.9993 16.4763 21.6635 16.4763 21.2493C16.4763 20.8351 16.1405 20.4993 15.7263 20.4993H12.7483V18.8475C16.8102 18.4928 19.9965 15.0831 19.9965 10.9291V10.8445C19.9965 10.4303 19.6607 10.0945 19.2465 10.0945C18.8323 10.0945 18.4965 10.4303 18.4965 10.8445V10.9291C18.4965 14.4907 15.6092 17.378 12.0476 17.378H12.0054L11.9983 17.378L11.9911 17.378H11.8974C10.4323 17.378 9.08218 16.8855 8.00365 16.057L6.93561 17.125Z" fill="#F50800"/>
<path fill-rule="evenodd" clip-rule="evenodd" d="M12 2C9.33179 2 7.15172 4.0257 7.00759 6.57692H9.77778C10.238 6.57692 10.6111 6.93854 10.6111 7.38462C10.6111 7.83069 10.238 8.19231 9.77778 8.19231H7V11.1538C7 12.214 7.3512 13.1946 7.94699 13.9923L15.9009 6.03846L14.2222 6.03846C13.762 6.03846 13.3889 5.67685 13.3889 5.23077C13.3889 4.78469 13.762 4.42308 14.2222 4.42308L16.3311 4.42308C15.4666 2.97456 13.8507 2 12 2ZM17 7.06066L9.01712 15.0435C9.84983 15.6444 10.8821 16 12 16C14.7614 16 17 13.8303 17 11.1538V7.06066Z" fill="#F50800"/>
<path d="M19 2L2 19" stroke="#F50800" stroke-width="1.5" stroke-linecap="round" stroke-linejoin="round"/>
</svg>
