<svg width="24" height="24" viewBox="0 0 24 24" fill="none" xmlns="http://www.w3.org/2000/svg">
<path d="M18.9999 10.2498C19.4141 10.2499 19.7499 10.5856 19.7499 10.9998V11.0809C19.7499 15.0908 16.672 18.3797 12.7499 18.7186V20.2498H15.6005C16.0146 20.25 16.3505 20.5857 16.3505 20.9998C16.3504 21.4139 16.0145 21.7497 15.6005 21.7498H8.40033C7.98618 21.7498 7.65044 21.414 7.65033 20.9998C7.65033 20.5856 7.98611 20.2498 8.40033 20.2498H11.2499V18.7244C9.93299 18.6184 8.70923 18.1774 7.66595 17.4862C7.3207 17.2574 7.22637 16.7924 7.45501 16.4471C7.68379 16.1018 8.14877 16.0074 8.49408 16.2362C9.46111 16.8768 10.6205 17.2498 11.8691 17.2498H12.081C15.4878 17.2498 18.2499 14.4877 18.2499 11.0809V10.9998C18.2499 10.5856 18.5857 10.2498 18.9999 10.2498Z" fill="#4E5964"/>
<path d="M19.5634 1.46761C19.8573 1.17588 20.3321 1.17776 20.624 1.47152C20.9157 1.7655 20.914 2.24029 20.6201 2.53207L3.52826 19.4989C3.23437 19.7903 2.75946 19.7885 2.46771 19.495C2.17591 19.201 2.17766 18.7252 2.47162 18.4334L5.63275 15.2948C5.33326 14.8126 5.07543 14.3416 4.87494 13.9217C4.64768 13.4457 4.47054 12.9905 4.4013 12.6483C4.28972 12.0966 4.24995 11.6463 4.24994 11.1307V11.0809C4.25003 10.6668 4.58578 10.3309 4.99994 10.3309C5.41406 10.3309 5.74984 10.6668 5.74994 11.0809V11.1307C5.74995 11.5526 5.78138 11.9034 5.87201 12.3514C5.90407 12.5094 6.01623 12.8307 6.22845 13.2752C6.36434 13.5598 6.53422 13.8762 6.72845 14.2069L7.29681 13.6424C6.94309 13.0204 6.74995 12.3129 6.74994 11.5848V9.74984H11.4999C11.914 9.74979 12.2497 9.41381 12.2499 8.99984C12.2499 8.58566 11.9141 8.24989 11.4999 8.24984H6.74994V7.49984C6.74994 7.24516 6.76957 6.99483 6.80462 6.74984H11.4999C11.914 6.74979 12.2497 6.41381 12.2499 5.99984C12.2499 5.58566 11.9141 5.24989 11.4999 5.24984H7.2558C8.09843 3.47623 9.90571 2.24984 11.9999 2.24984C12.8575 2.24985 13.745 2.38643 14.5722 2.84261C15.266 3.22524 15.8688 3.80947 16.373 4.63363L19.5634 1.46761Z" fill="#4E5964"/>
<path d="M16.4999 7.62484C16.9141 7.62487 17.2499 7.96065 17.2499 8.37484V10.9998C17.2498 13.8992 14.8993 16.2498 11.9999 16.2498C11.1012 16.2498 10.2529 16.0234 9.51165 15.6239C9.14706 15.4273 9.01144 14.9719 9.20794 14.6073C9.4046 14.2429 9.85908 14.1071 10.2236 14.3036C10.7515 14.5881 11.3558 14.7498 11.9999 14.7498C14.0709 14.7498 15.7498 13.0707 15.7499 10.9998V8.37484C15.7499 7.96063 16.0857 7.62484 16.4999 7.62484Z" fill="#4E5964"/>
</svg>
