<svg width="24" height="24" viewBox="0 0 24 24" fill="none" xmlns="http://www.w3.org/2000/svg">
<path d="M20.6206 2.53229C20.9146 2.24048 20.9163 1.76561 20.6245 1.47163C20.3327 1.17766 19.8578 1.1759 19.5638 1.46771L16.3762 4.63185C15.8721 3.80784 15.266 3.22583 14.5723 2.84325C13.7451 2.38706 12.8576 2.25 12 2.25C9.18432 2.25 6.88635 4.46659 6.75586 7.25H10C10.4142 7.25 10.75 7.58579 10.75 8C10.75 8.41421 10.4142 8.75 10 8.75L6.75023 8.74977L6.74954 10.9998C6.74954 11.9198 6.98675 12.786 7.40325 13.5387L6.72771 14.2093C6.53314 13.8781 6.36501 13.5605 6.22894 13.2756C6.07935 12.9622 5.97912 12.7103 5.92174 12.5335C5.80947 12.068 5.75 11.5817 5.75 11.0813V11C5.75 10.5858 5.41421 10.25 5 10.25C4.58579 10.25 4.25 10.5858 4.25 11V11.1308C4.25 11.6465 4.28973 12.0968 4.40136 12.6487C4.41925 12.7372 4.44438 12.8332 4.47573 12.9351C4.69457 13.8163 5.06578 14.6375 5.55965 15.3688L2.47163 18.434C2.17766 18.7258 2.1759 19.2007 2.46771 19.4947C2.75952 19.7887 3.23439 19.7904 3.52837 19.4986L8.17238 14.8888L8.18646 14.931L8.94577 14.1211L20.6206 2.53229Z" fill="#4E5964"/>
<path d="M16.5 7.625C16.9142 7.625 17.25 7.96079 17.25 8.375V11C17.25 13.8995 14.8995 16.25 12 16.25C11.1012 16.25 10.2531 16.0235 9.51185 15.6239C9.14724 15.4274 9.011 14.9725 9.20756 14.6079C9.40411 14.2432 9.85902 14.107 10.2236 14.3036C10.7516 14.5882 11.3558 14.75 12 14.75C14.0711 14.75 15.75 13.0711 15.75 11V8.375C15.75 7.96079 16.0858 7.625 16.5 7.625Z" fill="#4E5964"/>
<path d="M19 10.25C19.4142 10.25 19.75 10.5858 19.75 11V11.0813C19.75 15.0913 16.6722 18.3825 12.75 18.7213V20.25H15.6004C16.0146 20.25 16.3504 20.5858 16.3504 21C16.3504 21.4142 16.0146 21.75 15.6004 21.75H8.40039C7.98618 21.75 7.65039 21.4142 7.65039 21C7.65039 20.5858 7.98618 20.25 8.40039 20.25H11.25V18.7252C9.93298 18.6191 8.70919 18.1778 7.66587 17.4865C7.32057 17.2578 7.22611 16.7924 7.45488 16.4471C7.68366 16.1018 8.14904 16.0073 8.49435 16.2361C9.46142 16.8768 10.6206 17.25 11.8692 17.25H12.0813C15.4882 17.25 18.25 14.4882 18.25 11.0813V11C18.25 10.5858 18.5858 10.25 19 10.25Z" fill="#4E5964"/>
</svg>
