<svg width="24" height="24" viewBox="0 0 24 24" fill="none" xmlns="http://www.w3.org/2000/svg">
<path d="M12 21L12 18" stroke="#4E5964" stroke-width="1.5" stroke-linecap="round"/>
<path d="M8.40039 21H15.6004" stroke="#4E5964" stroke-width="1.5" stroke-linecap="round"/>
<path fill-rule="evenodd" clip-rule="evenodd" d="M7.04438 14.895C6.23332 13.8569 5.75 12.5503 5.75 11.1308V11.0813C5.75 10.6671 5.41421 10.3313 5 10.3313C4.58579 10.3313 4.25 10.6671 4.25 11.0813V11.1308C4.25 12.9647 4.8979 14.6472 5.97729 15.962L7.04438 14.895ZM7.03795 17.0227C8.35277 18.1021 10.0353 18.75 11.8692 18.75H12.0813C16.3166 18.75 19.75 15.3166 19.75 11.0813V11C19.75 10.5858 19.4142 10.25 19 10.25C18.5858 10.25 18.25 10.5858 18.25 11V11.0813C18.25 14.4882 15.4882 17.25 12.0813 17.25H11.8692C10.4497 17.25 9.14315 16.7667 8.10504 15.9556L7.03795 17.0227Z" fill="#4E5964"/>
<path fill-rule="evenodd" clip-rule="evenodd" d="M12 3C13.876 3 15.4839 4.148 16.1595 5.77982L8.13435 13.805C7.7315 13.1308 7.5 12.3424 7.5 11.5V8.75H10C10.4142 8.75 10.75 8.41421 10.75 8C10.75 7.58579 10.4142 7.25 10 7.25H7.50683C7.63655 4.881 9.59861 3 12 3ZM9.11065 14.95L16.5 7.56066V11.5C16.5 13.9853 14.4853 16 12 16C10.9001 16 9.89236 15.6054 9.11065 14.95Z" fill="#4E5964"/>
<path d="M19 2L2 19" stroke="#4E5964" stroke-width="1.5" stroke-linecap="round" stroke-linejoin="round"/>
</svg>
