<svg width="24" height="24" viewBox="0 0 24 24" fill="none" xmlns="http://www.w3.org/2000/svg">
<path fill-rule="evenodd" clip-rule="evenodd" d="M19 10.25C19.4142 10.25 19.75 10.5858 19.75 11V11.0813C19.75 15.0913 16.6722 18.3825 12.75 18.7213V20.25H15.6004C16.0146 20.25 16.3504 20.5858 16.3504 21C16.3504 21.4142 16.0146 21.75 15.6004 21.75H8.40039C7.98618 21.75 7.65039 21.4142 7.65039 21C7.65039 20.5858 7.98618 20.25 8.40039 20.25H11.25V18.7252C7.33162 18.4101 4.25 15.1303 4.25 11.1308V11.0813C4.25 10.6671 4.58579 10.3313 5 10.3313C5.41421 10.3313 5.75 10.6671 5.75 11.0813V11.1308C5.75 14.5103 8.48967 17.25 11.8692 17.25H12.0813C15.4882 17.25 18.25 14.4882 18.25 11.0813V11C18.25 10.5858 18.5858 10.25 19 10.25ZM6.75585 7.25C6.88634 4.46659 9.18431 2.25 12 2.25C14.0943 2.25 15.9022 3.47629 16.7448 5.25L15 5.25C14.5858 5.25 14.25 5.58579 14.25 6C14.25 6.41421 14.5858 6.75 15 6.75L17 6.75C17.0668 6.75 17.1315 6.74127 17.1932 6.72488C17.2306 6.97783 17.25 7.23665 17.25 7.5V11C17.25 13.8995 14.8995 16.25 12 16.25C9.1005 16.25 6.75 13.8995 6.75 11V8.75H10C10.4142 8.75 10.75 8.41421 10.75 8C10.75 7.58579 10.4142 7.25 10 7.25H6.75585Z" fill="#4E5964"/>
</svg>
