<svg width="24" height="24" viewBox="0 0 24 24" fill="none" xmlns="http://www.w3.org/2000/svg">
<path d="M19.2465 10.0945C19.6607 10.0945 19.9965 10.4303 19.9965 10.8445V10.9291C19.9965 15.0831 16.8102 18.4928 12.7483 18.8475V20.4993H15.7263C16.1405 20.4993 16.4763 20.8351 16.4763 21.2493C16.4763 21.6635 16.1405 21.9993 15.7263 21.9993H12.0136C12.0085 21.9994 12.0034 21.9995 11.9983 21.9995C11.9932 21.9995 11.9881 21.9994 11.983 21.9993H8.27094C7.85672 21.9993 7.52094 21.6635 7.52094 21.2493C7.52094 20.8351 7.85672 20.4993 8.27094 20.4993H11.2483V18.8517C7.19031 18.5216 4 15.1236 4 10.9806V10.9291C4 10.5149 4.33579 10.1791 4.75 10.1791C5.16421 10.1791 5.5 10.5149 5.5 10.9291V10.9806C5.5 14.5138 8.36423 17.378 11.8974 17.378H11.9911L11.9983 17.378L12.0054 17.378H12.0476C15.6092 17.378 18.4965 14.4907 18.4965 10.9291V10.8445C18.4965 10.4303 18.8323 10.0945 19.2465 10.0945Z" fill="#4E5964"/>
<path fill-rule="evenodd" clip-rule="evenodd" d="M7.00759 6.57692C7.15172 4.0257 9.33179 2 12 2C13.8507 2 15.4666 2.97456 16.3311 4.42308L14.2222 4.42308C13.762 4.42308 13.3889 4.78469 13.3889 5.23077C13.3889 5.67685 13.762 6.03846 14.2222 6.03846L16.9309 6.03846C16.9763 6.30113 17 6.57096 17 6.84615V11.1538C17 13.8303 14.7614 16 12 16C9.23858 16 7 13.8303 7 11.1538V8.19231H9.77778C10.238 8.19231 10.6111 7.83069 10.6111 7.38462C10.6111 6.93854 10.238 6.57692 9.77778 6.57692H7.00759Z" fill="#4E5964"/>
</svg>
