<svg width="24" height="24" viewBox="0 0 24 24" fill="none" xmlns="http://www.w3.org/2000/svg">
<path d="M14.2389 21.5978C13.9087 21.4612 13.6046 21.2334 13.3678 20.9093L9.3756 15.4405C9.27631 15.3045 9.19676 15.1579 9.13244 15.0069H14.2389V21.5978Z" fill="#4E5964"/>
<path d="M20.8453 15.0069C20.781 15.158 20.7015 15.3044 20.6022 15.4405L16.61 20.9093C16.3731 21.2335 16.0691 21.4611 15.7389 21.5978V15.0069H20.8453Z" fill="#4E5964"/>
<path d="M5.27013 3.77257C4.52278 3.1556 5.30684 1.98793 6.16076 2.4464L10.149 4.58898L10.4508 4.21203C10.709 3.88843 11.1808 3.835 11.5045 4.09289C11.8282 4.35119 11.8819 4.82381 11.6237 5.14757L11.3014 5.54992L14.1256 9.09191C14.7067 9.82111 13.7442 10.7675 13.025 10.1739L9.76135 7.47961L4.76135 13.7462C4.50306 14.0698 4.03137 14.1234 3.70763 13.8653C3.38416 13.607 3.3314 13.1353 3.58947 12.8116L8.60412 6.52453L5.27013 3.77257Z" fill="#4E5964"/>
<path d="M17.7994 10.9943C18.2588 10.9944 18.6988 11.1569 19.0524 11.4454L20.233 12.4103C20.5885 12.7006 20.8253 13.088 20.942 13.5069H9.03576C9.15253 13.0879 9.38906 12.7007 9.74474 12.4103L10.9254 11.4454C11.279 11.1568 11.7189 10.9943 12.1783 10.9943H17.7994Z" fill="#4E5964"/>
<path d="M9.30627 9.71496C9.46352 9.33186 9.90164 9.14865 10.2848 9.30578L11.0709 9.62804C11.454 9.78522 11.637 10.2234 11.4801 10.6066C11.3229 10.9898 10.8848 11.173 10.5016 11.0157L9.71545 10.6935C9.3323 10.5362 9.14904 10.0981 9.30627 9.71496Z" fill="#4E5964"/>
<path d="M16.2272 7.25793C16.6372 7.31673 16.9217 7.69656 16.8629 8.10656L16.7428 8.94738C16.684 9.35729 16.3041 9.64169 15.8942 9.58312C15.4841 9.52435 15.1987 9.14451 15.2574 8.73449L15.3785 7.89367C15.4373 7.48366 15.8172 7.19916 16.2272 7.25793Z" fill="#4E5964"/>
</svg>
