<svg width="24" height="24" viewBox="0 0 24 24" fill="none" xmlns="http://www.w3.org/2000/svg">
<path fill-rule="evenodd" clip-rule="evenodd" d="M8.875 8.25C6.20374 11.0614 13.0889 17.9257 15.75 15.125C17.2194 13.5785 19.3776 14.8206 20.7873 15.632L20.8248 15.6535C23.642 17.2746 20.8201 21.7103 18.3639 21.9527C10.5128 22.7273 2.40525 13.8454 2.00284 6.35049C1.87524 3.97379 6.07693 0.237529 7.99089 2.94371C9.0107 4.38563 10.506 6.53344 8.875 8.25ZM15 6.74609C14.5858 6.74609 14.25 7.08188 14.25 7.49609C14.25 7.91031 14.5858 8.24609 15 8.24609L17.9937 8.24609C18.4079 8.24609 18.7437 7.91031 18.7437 7.49609C18.7437 7.08188 18.4079 6.74609 17.9937 6.74609L15 6.74609Z" fill="#4E5964"/>
</svg>
