<svg width="24" height="24" viewBox="0 0 24 24" fill="none" xmlns="http://www.w3.org/2000/svg">
<path fill-rule="evenodd" clip-rule="evenodd" d="M4.25 7C4.25 4.82169 5.7163 2.98585 7.71572 2.42566L8.3725 3.41083L9.3596 4.94633C9.6816 5.44722 10.2362 5.75 10.8317 5.75H13.1683C13.7638 5.75 14.3184 5.44722 14.6404 4.94633L15.6275 3.41082L16.2843 2.42566C18.2837 2.98585 19.75 4.82169 19.75 7V17C19.75 19.6234 17.6234 21.75 15 21.75H9C6.37665 21.75 4.25 19.6234 4.25 17V7ZM9.40139 2.25H14.5986L14.376 2.58397L14.3691 2.59443L13.3786 4.13519C13.3326 4.20675 13.2534 4.25 13.1683 4.25H10.8317C10.7466 4.25 10.6674 4.20675 10.6214 4.13519L9.63088 2.59443L9.62404 2.58397L9.40139 2.25ZM12 15.25C11.0335 15.25 10.25 16.0335 10.25 17C10.25 17.9665 11.0335 18.75 12 18.75C12.9665 18.75 13.75 17.9665 13.75 17C13.75 16.0335 12.9665 15.25 12 15.25Z" fill="#4E5964"/>
</svg>
