<svg width="24" height="24" viewBox="0 0 24 24" fill="none" xmlns="http://www.w3.org/2000/svg">
<path fill-rule="evenodd" clip-rule="evenodd" d="M4.25 7.2C4.25 4.46619 6.46619 2.25 9.2 2.25H14.8C17.5338 2.25 19.75 4.46619 19.75 7.2V16.8C19.75 19.5338 17.5338 21.75 14.8 21.75H9.2C6.46619 21.75 4.25 19.5338 4.25 16.8V7.2ZM10.25 17C10.25 16.0335 11.0335 15.25 12 15.25C12.9665 15.25 13.75 16.0335 13.75 17C13.75 17.9665 12.9665 18.75 12 18.75C11.0335 18.75 10.25 17.9665 10.25 17ZM10 5.25C9.58579 5.25 9.25 5.58579 9.25 6C9.25 6.41421 9.58579 6.75 10 6.75H14C14.4142 6.75 14.75 6.41421 14.75 6C14.75 5.58579 14.4142 5.25 14 5.25H10Z" fill="#4E5964"/>
</svg>
