<svg width="24" height="24" viewBox="0 0 24 24" fill="none" xmlns="http://www.w3.org/2000/svg">
<path d="M20.1385 9.62108C20.2655 9.82216 20.4847 9.95691 20.7325 9.97003C20.896 9.97932 21.0637 9.93532 21.2079 9.83329C21.4437 9.66633 21.5539 9.38807 21.5178 9.12028L21.2746 5.6921C21.2453 5.27893 20.8866 4.96774 20.4734 4.99705C20.0602 5.02636 19.7491 5.38507 19.7784 5.79824L19.8481 6.78139C19.2698 6.07706 18.5936 5.31405 17.9789 4.77995C17.1463 4.05645 16.0153 3.37635 15.1236 2.88853C14.6718 2.64136 14.2697 2.43727 13.9802 2.29477C13.8353 2.22345 13.7182 2.16737 13.6367 2.12885C13.596 2.10958 13.5641 2.09469 13.5421 2.08447L13.5166 2.07266L13.5096 2.06945L13.5076 2.06852C13.5076 2.06852 13.5166 2.07261 13.5096 2.06945L13.5066 2.06806C13.1298 1.89587 12.6849 2.06168 12.5127 2.4384C12.3405 2.8151 12.5063 3.26004 12.8829 3.43226L12.884 3.43275L12.8889 3.43501L12.9101 3.44481C12.9291 3.45367 12.9579 3.46712 12.9955 3.48487C13.0705 3.52038 13.1805 3.57305 13.3178 3.64059C13.5925 3.77581 13.9748 3.96988 14.4037 4.20448C15.2732 4.68019 16.2883 5.29804 16.995 5.9122C17.6449 6.47693 18.4301 7.39777 19.0726 8.20963C19.389 8.60941 19.6624 8.97197 19.8566 9.23447C19.9536 9.3656 20.0307 9.47147 20.0832 9.54417L20.1385 9.62108Z" fill="#4E5964"/>
<path fill-rule="evenodd" clip-rule="evenodd" d="M4.99584 13.3772C3.32351 12.0239 3.06493 9.57107 4.4183 7.89874L6.80393 4.95085C8.15729 3.27852 10.6101 3.01995 12.2824 4.37331L19.1493 9.93043C20.8216 11.2838 21.0802 13.7366 19.7268 15.4089L17.3412 18.3568C15.9878 20.0292 13.535 20.2877 11.8627 18.9344L4.99584 13.3772ZM14.8702 14.667C14.8702 13.9311 15.4667 13.3345 16.2026 13.3345C16.9385 13.3345 17.5351 13.9311 17.5351 14.667C17.5351 15.4029 16.9385 15.9994 16.2026 15.9994C15.4667 15.9994 14.8702 15.4029 14.8702 14.667ZM6.29012 8.93117C6.02955 9.25315 6.07933 9.72541 6.40132 9.98598C6.7233 10.2466 7.19556 10.1968 7.45613 9.87478L9.80526 6.97201C10.0658 6.65002 10.016 6.17776 9.69406 5.91719C9.37207 5.65662 8.89982 5.7064 8.63925 6.02839L6.29012 8.93117Z" fill="#4E5964"/>
<path d="M3.78369 14.0009C4.03155 14.0112 4.25228 14.1435 4.38152 14.3432L4.43769 14.4195C4.49101 14.4916 4.56922 14.5966 4.66769 14.7266C4.86482 14.9869 5.14225 15.3464 5.46309 15.7426C6.11465 16.5472 6.91009 17.4592 7.56627 18.0167C8.27987 18.6229 9.30178 19.2293 10.1766 19.6953C10.608 19.9251 10.9925 20.1148 11.2687 20.247C11.4067 20.313 11.5173 20.3644 11.5928 20.3991C11.6305 20.4164 11.6594 20.4295 11.6786 20.4382L11.6999 20.4477L11.7058 20.4504C12.0844 20.6184 12.2552 21.0615 12.0872 21.4401C11.9193 21.8187 11.4762 21.9895 11.0975 21.8215L11.4017 21.1359C11.0975 21.8215 11.0975 21.8215 11.0975 21.8215L11.0965 21.8211L11.0875 21.817L11.0618 21.8055C11.0397 21.7955 11.0077 21.781 10.9667 21.7622C10.8848 21.7246 10.7671 21.6698 10.6214 21.6001C10.3303 21.4609 9.926 21.2613 9.47146 21.0192C8.57436 20.5414 7.43578 19.874 6.59512 19.1598C5.97454 18.6327 5.28982 17.8773 4.70365 17.1795L4.78439 18.1618C4.81832 18.5746 4.51117 18.9367 4.09835 18.9707C3.68553 19.0046 3.32336 18.6974 3.28943 18.2846L3.00789 14.8594C2.96878 14.592 3.07591 14.3125 3.30985 14.143C3.4528 14.0393 3.62002 13.9934 3.78369 14.0009Z" fill="#4E5964"/>
</svg>
