<svg width="24" height="24" viewBox="0 0 24 24" fill="none" xmlns="http://www.w3.org/2000/svg">
<path fill-rule="evenodd" clip-rule="evenodd" d="M7.5 3.25C4.60051 3.25 2.25 5.60051 2.25 8.5V15.5C2.25 18.3995 4.60051 20.75 7.5 20.75H16.5C19.3995 20.75 21.75 18.3995 21.75 15.5V8.5C21.75 5.60051 19.3995 3.25 16.5 3.25H7.5ZM10.75 12C10.75 11.3096 11.3096 10.75 12 10.75C12.6904 10.75 13.25 11.3096 13.25 12C13.25 12.6904 12.6904 13.25 12 13.25C11.3096 13.25 10.75 12.6904 10.75 12ZM12 9.25C10.4812 9.25 9.25 10.4812 9.25 12C9.25 13.5188 10.4812 14.75 12 14.75C13.5188 14.75 14.75 13.5188 14.75 12C14.75 10.4812 13.5188 9.25 12 9.25ZM19.0145 10.2935C18.9736 10.7222 18.6204 11.035 18.2256 10.9921L17.4588 10.9088C16.366 10.7901 15.4594 9.76003 15.3996 8.56929L15.3577 7.73362C15.3361 7.30348 15.6398 6.93448 16.0361 6.90943C16.4323 6.88439 16.7711 7.21279 16.7927 7.64293L16.8346 8.4786C16.856 8.90357 17.2171 9.31386 17.6071 9.35623L18.374 9.43953C18.7687 9.48241 19.0555 9.86473 19.0145 10.2935ZM18.2256 13.0079C18.6204 12.965 18.9736 13.2778 19.0145 13.7065C19.0555 14.1353 18.7687 14.5176 18.374 14.5605L17.6071 14.6438C17.2171 14.6861 16.856 15.0964 16.8346 15.5214L16.7927 16.3571C16.7711 16.7872 16.4323 17.1156 16.0361 17.0906C15.6398 17.0655 15.3361 16.6965 15.3577 16.2664L15.3996 15.4307C15.4594 14.24 16.366 13.2099 17.4588 13.0912L18.2256 13.0079ZM7.62775 6.72209C8.02519 6.70856 8.36407 7.04588 8.38466 7.47551L8.42473 8.31129C8.48154 9.49667 7.68661 10.6174 6.61666 10.8604L5.86227 11.0317C5.47448 11.1198 5.08761 10.8501 4.99818 10.4294C4.90876 10.0087 5.15063 9.59622 5.53842 9.50815L6.29281 9.33683C6.68144 9.24857 7.00611 8.79082 6.98548 8.36027L6.94542 7.52449C6.92482 7.09486 7.23032 6.73561 7.62775 6.72209ZM8.38466 16.5245C8.36407 16.9541 8.02519 17.2914 7.62775 17.2779C7.23032 17.2644 6.92482 16.9051 6.94542 16.4755L6.98548 15.6397C7.00611 15.2092 6.68144 14.7514 6.29281 14.6632L5.53842 14.4918C5.15063 14.4038 4.90876 13.9913 4.99818 13.5706C5.08761 13.1499 5.47448 12.8802 5.86227 12.9683L6.61666 13.1396C7.68661 13.3826 8.48154 14.5033 8.42473 15.6887L8.38466 16.5245Z" fill="#4E5964"/>
</svg>
