<svg width="24" height="24" viewBox="0 0 24 24" fill="none" xmlns="http://www.w3.org/2000/svg">
<path fill-rule="evenodd" clip-rule="evenodd" d="M8.11111 3C4.73604 3 2 6.16599 2 10.0714V13.9286C2 17.834 4.73604 21 8.11111 21H15.8889C19.264 21 22 17.834 22 13.9286V10.0714C22 6.16599 19.264 3 15.8889 3H8.11111ZM10.75 12C10.75 11.3096 11.3096 10.75 12 10.75C12.6904 10.75 13.25 11.3096 13.25 12C13.25 12.6904 12.6904 13.25 12 13.25C11.3096 13.25 10.75 12.6904 10.75 12ZM12 9.25C10.4812 9.25 9.25 10.4812 9.25 12C9.25 13.5188 10.4812 14.75 12 14.75C13.5188 14.75 14.75 13.5188 14.75 12C14.75 10.4812 13.5188 9.25 12 9.25ZM19.7147 10.0952C19.6738 10.524 19.3206 10.8367 18.9258 10.7939L18.0737 10.7013C16.8986 10.5737 15.9216 9.46357 15.8573 8.18306L15.8107 7.25454C15.7891 6.8244 16.0928 6.4554 16.4891 6.43035C16.8854 6.40531 17.2241 6.73371 17.2457 7.16385L17.2923 8.09237C17.3182 8.60711 17.7497 9.09742 18.2221 9.14873L19.0742 9.24129C19.4689 9.28417 19.7557 9.66649 19.7147 10.0952ZM5.07411 10.7939C4.67937 10.8367 4.32617 10.524 4.28521 10.0952C4.24425 9.66649 4.53104 9.28417 4.92578 9.24129L5.77788 9.14873C6.25024 9.09742 6.68179 8.60711 6.70764 8.09237L6.75425 7.16385C6.77585 6.73371 7.11459 6.40531 7.51086 6.43035C7.90713 6.4554 8.21087 6.8244 8.18927 7.25454L8.14265 8.18306C8.07837 9.46357 7.10131 10.5737 5.92621 10.7013L5.07411 10.7939ZM19.7147 13.9048C19.6738 13.476 19.3206 13.1633 18.9258 13.2061L18.0737 13.2987C16.8986 13.4263 15.9216 14.5364 15.8573 15.8169L15.8107 16.7455C15.7891 17.1756 16.0928 17.5446 16.4891 17.5696C16.8854 17.5947 17.2241 17.2663 17.2457 16.8362L17.2923 15.9076C17.3182 15.3929 17.7497 14.9026 18.2221 14.8513L19.0742 14.7587C19.4689 14.7158 19.7557 14.3335 19.7147 13.9048ZM5.07411 13.2061C4.67937 13.1633 4.32617 13.476 4.28521 13.9048C4.24425 14.3335 4.53104 14.7158 4.92578 14.7587L5.77788 14.8513C6.25024 14.9026 6.68179 15.3929 6.70764 15.9076L6.75425 16.8362C6.77585 17.2663 7.11459 17.5947 7.51086 17.5696C7.90713 17.5446 8.21087 17.1756 8.18927 16.7455L8.14265 15.8169C8.07837 14.5364 7.10131 13.4263 5.92621 13.2987L5.07411 13.2061Z" fill="#00ABB8"/>
</svg>
