<svg width="24" height="24" viewBox="0 0 24 24" fill="none" xmlns="http://www.w3.org/2000/svg">
<path d="M11.885 12.8118L12 12.4427L12.115 12.8118C12.2693 13.3072 12.725 13.6723 13.2711 13.6723H13.7291L13.3317 13.9734C12.9098 14.2932 12.7476 14.8429 12.9006 15.3338L13.0357 15.7676L12.725 15.5321C12.2949 15.2062 11.7051 15.2062 11.275 15.5321L10.9643 15.7676L11.0994 15.3338C11.2523 14.8429 11.0902 14.2932 10.6683 13.9734L10.2709 13.6723H10.7289C11.275 13.6723 11.7307 13.3072 11.885 12.8118Z" fill="#4E5964"/>
<path fill-rule="evenodd" clip-rule="evenodd" d="M9.40288 5.25C9.30279 4.85492 9.25 4.43327 9.25 4C9.25 3.59644 9.35769 3.19716 9.57122 2.87687C9.78126 2.56182 10.1538 2.25 10.6667 2.25H13.3333C13.8462 2.25 14.2187 2.56182 14.4288 2.87687C14.6423 3.19716 14.75 3.59644 14.75 4C14.75 4.42405 14.6985 4.84747 14.5965 5.25H15C15.4142 5.25 15.75 5.58579 15.75 6C15.75 6.41421 15.4142 6.75 15 6.75H14.661C18.9496 8.21167 21.924 12.6308 21.742 17.631C21.7382 19.095 21.1729 20.1788 20.193 20.8649C19.2547 21.5218 18.028 21.7498 16.7958 21.7499C15.2988 21.75 14.5297 21.75 13.6592 21.75H10.3402C9.46971 21.75 8.70114 21.75 7.20413 21.7499C5.97193 21.7498 4.74516 21.5218 3.80688 20.8649C2.82702 20.1788 2.26168 19.095 2.25792 17.631C2.07588 12.6308 5.05027 8.21167 9.33887 6.75H9C8.58579 6.75 8.25 6.41421 8.25 6C8.25 5.58579 8.58579 5.25 9 5.25H9.40288ZM10.75 4C10.75 3.88771 10.7737 3.80279 10.7972 3.75H13.2028C13.2263 3.80279 13.25 3.88771 13.25 4C13.25 4.45933 13.1662 4.8898 13.0245 5.25H10.9751C10.8365 4.89851 10.75 4.47199 10.75 4ZM13.4869 12.1723L13.1561 11.1104C12.7988 9.96318 11.2012 9.96319 10.8439 11.1104L10.5131 12.1723H9.46358C8.85761 12.1723 8.44547 12.5897 8.30747 13.0327C8.17008 13.4738 8.27019 14.0381 8.73862 14.3931L9.61458 15.057L9.27629 16.143C9.10559 16.691 9.32624 17.2145 9.70744 17.5034C10.0933 17.7958 10.6775 17.8671 11.1574 17.5034L12 16.8648L12.8426 17.5034C13.3225 17.8671 13.9067 17.7958 14.2926 17.5034C14.6738 17.2145 14.8944 16.691 14.7237 16.143L14.3854 15.057L15.2614 14.3931C15.7298 14.0381 15.8299 13.4738 15.6925 13.0327C15.5545 12.5897 15.1424 12.1723 14.5364 12.1723H13.4869Z" fill="#4E5964"/>
</svg>
