<svg width="24" height="24" viewBox="0 0 24 24" fill="none" xmlns="http://www.w3.org/2000/svg">
<path fill-rule="evenodd" clip-rule="evenodd" d="M7.5 2.25C4.60051 2.25 2.25 4.60051 2.25 7.5V11.5C2.25 14.3995 4.60051 16.75 7.5 16.75H11.25V18C11.25 18.4142 11.5858 18.75 12 18.75C12.4142 18.75 12.75 18.4142 12.75 18V16.75H16.5C19.3995 16.75 21.75 14.3995 21.75 11.5V7.5C21.75 4.60051 19.3995 2.25 16.5 2.25H7.5ZM12.75 16.75V16C12.75 15.5858 12.4142 15.25 12 15.25C11.5858 15.25 11.25 15.5858 11.25 16V16.75H12.75ZM10 12.25C9.58579 12.25 9.25 12.5858 9.25 13C9.25 13.4142 9.58579 13.75 10 13.75L14 13.75C14.4142 13.75 14.75 13.4142 14.75 13C14.75 12.5858 14.4142 12.25 14 12.25L10 12.25ZM7.32608 21.6753C8.57775 21.071 10.2684 20.7501 11.9997 20.7501C13.7311 20.7501 15.4219 21.071 16.674 21.6753C17.047 21.8554 17.4954 21.6989 17.6754 21.3259C17.8555 20.9529 17.699 20.5045 17.326 20.3244C15.8163 19.5958 13.8877 19.2501 11.9997 19.2501C10.1118 19.2501 8.18328 19.5958 6.67392 20.3245C6.3009 20.5046 6.14451 20.9529 6.32459 21.326C6.50468 21.699 6.95306 21.8554 7.32608 21.6753Z" fill="#4E5964"/>
</svg>
