<svg width="24" height="24" viewBox="0 0 24 24" fill="none" xmlns="http://www.w3.org/2000/svg">
<path fill-rule="evenodd" clip-rule="evenodd" d="M9.81129 2.29822C10.2934 2.16383 10.8106 2.31541 11.1439 2.68984C11.4801 3.06754 11.5694 3.60481 11.3735 4.07098C11.368 4.0841 11.3621 4.09707 11.3559 4.10987C10.1111 6.65546 10.2708 9.98996 12.1125 11.8889C14.0108 13.7295 17.3448 13.8897 19.8889 12.6456C19.9011 12.6396 19.9135 12.6339 19.9261 12.6286C20.3925 12.4312 20.9309 12.5199 21.3095 12.8564C21.6847 13.1899 21.8365 13.7078 21.7016 14.1904C21.2546 15.918 20.354 17.4947 19.0931 18.7574C15.2715 22.6759 8.99729 22.757 5.07573 18.9377L5.06165 18.9236C1.24278 15.0015 1.32447 8.72695 5.24333 4.90558C6.50675 3.64529 8.08371 2.74519 9.81129 2.29822Z" fill="#4E5964"/>
</svg>
