<svg width="24" height="24" viewBox="0 0 24 24" fill="none" xmlns="http://www.w3.org/2000/svg">
<path d="M14.75 5.00024C14.75 3.48146 13.5188 2.25024 12 2.25024C10.4812 2.25024 9.25 3.48146 9.25 5.00024C9.25 6.51903 10.4812 7.75024 12 7.75024C13.5188 7.75024 14.75 6.51903 14.75 5.00024Z" fill="#4E5964"/>
<path d="M14.75 12.0002C14.75 10.4815 13.5188 9.25024 12 9.25024C10.4812 9.25024 9.25 10.4815 9.25 12.0002C9.25 13.519 10.4812 14.7502 12 14.7502C13.5188 14.7502 14.75 13.519 14.75 12.0002Z" fill="#4E5964"/>
<path d="M14.75 19.0002C14.75 17.4815 13.5188 16.2502 12 16.2502C10.4812 16.2502 9.25 17.4815 9.25 19.0002C9.25 20.519 10.4812 21.7502 12 21.7502C13.5188 21.7502 14.75 20.519 14.75 19.0002Z" fill="#4E5964"/>
</svg>
