<svg width="24" height="24" viewBox="0 0 24 24" fill="none" xmlns="http://www.w3.org/2000/svg">
<path d="M5 9.25024C3.48122 9.25024 2.25 10.4815 2.25 12.0002C2.25 13.519 3.48122 14.7502 5 14.7502C6.51878 14.7502 7.75 13.519 7.75 12.0002C7.75 10.4815 6.51878 9.25024 5 9.25024Z" fill="#4E5964"/>
<path d="M12 9.25024C10.4812 9.25024 9.25 10.4815 9.25 12.0002C9.25 13.519 10.4812 14.7502 12 14.7502C13.5188 14.7502 14.75 13.519 14.75 12.0002C14.75 10.4815 13.5188 9.25024 12 9.25024Z" fill="#4E5964"/>
<path d="M19 9.25024C17.4812 9.25024 16.25 10.4815 16.25 12.0002C16.25 13.519 17.4812 14.7502 19 14.7502C20.5188 14.7502 21.75 13.519 21.75 12.0002C21.75 10.4815 20.5188 9.25024 19 9.25024Z" fill="#4E5964"/>
</svg>
