<svg width="24" height="24" viewBox="0 0 24 24" fill="none" xmlns="http://www.w3.org/2000/svg">
<path fill-rule="evenodd" clip-rule="evenodd" d="M12 2.25C6.61522 2.25 2.25 6.61522 2.25 12C2.25 17.3848 6.61522 21.75 12 21.75C17.3848 21.75 21.75 17.3848 21.75 12C21.75 6.61522 17.3848 2.25 12 2.25ZM10.9397 10.9413C11.5261 10.3519 12.4757 10.3548 13.0613 10.9404C13.6462 11.5253 13.6462 12.4762 13.0613 13.0611C12.4764 13.646 11.5255 13.646 10.9406 13.0611C10.356 12.4765 10.3557 11.5263 10.9397 10.9413ZM8.06128 10.9404C7.47569 10.3548 6.52609 10.3519 5.93972 10.9413C5.35573 11.5263 5.35603 12.4765 5.94062 13.0611C6.52552 13.646 7.47639 13.646 8.06128 13.0611C8.64618 12.4762 8.64618 11.5253 8.06128 10.9404ZM15.9397 10.9413C16.5261 10.3519 17.4757 10.3548 18.0613 10.9404C18.6462 11.5253 18.6462 12.4762 18.0613 13.0611C17.4764 13.646 16.5255 13.646 15.9406 13.0611C15.356 12.4765 15.3557 11.5263 15.9397 10.9413Z" fill="#4E5964"/>
</svg>
