<svg width="24" height="24" viewBox="0 0 24 24" fill="none" xmlns="http://www.w3.org/2000/svg">
<path fill-rule="evenodd" clip-rule="evenodd" d="M2.25392 7.50032C2.25456 4.60082 4.60558 2.25083 7.50507 2.25146L16.5051 2.25344C19.4046 2.25407 21.7546 4.60509 21.7539 7.50458L21.752 16.5046C21.7513 19.4041 19.4003 21.7541 16.5008 21.7534L7.5008 21.7515C4.60131 21.7508 2.25132 19.3998 2.25195 16.5003L2.25392 7.50032ZM10.9568 5.71001C10.9667 5.29592 11.3105 4.96829 11.7246 4.97823C11.8411 4.98103 11.9577 4.98708 12.0743 4.99642C12.191 5.00577 12.3072 5.01838 12.4228 5.03419C12.8332 5.09032 13.1204 5.46851 13.0643 5.8789C13.0081 6.28929 12.6299 6.57648 12.2196 6.52035C12.1316 6.50833 12.0433 6.49874 11.9545 6.49163C11.8658 6.48453 11.7772 6.47992 11.6886 6.4778C11.2745 6.46785 10.9469 6.1241 10.9568 5.71001ZM9.99347 5.90524C10.1633 6.28303 9.99476 6.72698 9.61697 6.89683C9.53607 6.9332 9.45602 6.97189 9.37691 7.01287C9.29738 7.05407 9.21912 7.09744 9.1422 7.14289C8.78559 7.3536 8.32568 7.23534 8.11496 6.87873C7.90424 6.52212 8.02251 6.06221 8.37912 5.85149C8.47997 5.7919 8.58259 5.73504 8.68691 5.681C8.79067 5.62724 8.8957 5.57648 9.00188 5.52874C9.37967 5.35889 9.82362 5.52746 9.99347 5.90524ZM13.9867 6.22592C14.2142 5.87977 14.6792 5.78359 15.0253 6.01109C15.1227 6.07505 15.2184 6.14181 15.3124 6.21132C15.407 6.28126 15.4995 6.35371 15.5898 6.42856C15.9087 6.69291 15.9529 7.16572 15.6885 7.48461C15.4242 7.80351 14.9514 7.84773 14.6325 7.58338C14.5635 7.52619 14.4929 7.47085 14.4206 7.41744C14.3488 7.36436 14.2758 7.3134 14.2015 7.26459C13.8554 7.03709 13.7592 6.57206 13.9867 6.22592ZM7.38939 7.56279C7.73218 7.79531 7.82156 8.2617 7.58904 8.60449C7.53877 8.67859 7.49043 8.75421 7.44406 8.8313C7.39744 8.90882 7.35301 8.98751 7.3108 9.06727C7.11707 9.43338 6.66322 9.57312 6.29711 9.37939C5.93099 9.18566 5.79125 8.73181 5.98498 8.3657C6.03997 8.26178 6.09787 8.15923 6.15865 8.05818C6.21908 7.95771 6.28212 7.8591 6.34769 7.76244C6.58021 7.41965 7.0466 7.33026 7.38939 7.56279ZM16.3009 8.27791C16.6758 8.10168 17.1225 8.26271 17.2987 8.63757C17.3485 8.74342 17.3955 8.8508 17.4396 8.95961C17.5952 9.34349 17.4101 9.78082 17.0262 9.93642C16.6423 10.092 16.205 9.90695 16.0494 9.52307C16.0155 9.43947 15.9794 9.357 15.9412 9.27573C15.765 8.90087 15.926 8.45413 16.3009 8.27791ZM6.02875 10.3558C6.44242 10.3771 6.7605 10.7297 6.73921 11.1434C6.73457 11.2336 6.73236 11.3241 6.73261 11.4147C6.73286 11.5054 6.73558 11.5959 6.74072 11.686C6.76431 12.0996 6.4482 12.4539 6.03466 12.4775C5.62112 12.5011 5.26675 12.185 5.24316 11.7715C5.23647 11.6543 5.23295 11.5367 5.23262 11.4189C5.23229 11.3011 5.23516 11.1835 5.24119 11.0663C5.26248 10.6526 5.61509 10.3345 6.02875 10.3558ZM6.30838 13.4522C6.67339 13.2564 7.12802 13.3936 7.32383 13.7586C7.36647 13.8381 7.41134 13.9165 7.4584 13.9938C7.50518 14.0706 7.55395 14.1459 7.60462 14.2197C7.8391 14.5611 7.75237 15.028 7.41091 15.2625C7.06945 15.497 6.60257 15.4103 6.36809 15.0688C6.30199 14.9725 6.23839 14.8743 6.1774 14.7742C6.11605 14.6735 6.05757 14.5713 6.002 14.4677C5.8062 14.1027 5.94337 13.648 6.30838 13.4522ZM8.14009 15.942C8.34871 15.5842 8.80791 15.4632 9.16576 15.6718C9.24292 15.7168 9.32141 15.7597 9.40116 15.8004C9.77007 15.9888 9.91643 16.4405 9.72806 16.8095C9.5397 17.1784 9.08794 17.3247 8.71904 17.1364C8.61442 17.0829 8.51147 17.0267 8.41029 16.9677C8.05245 16.7591 7.93148 16.2999 8.14009 15.942ZM11.764 9.80611C10.5691 9.41921 9.42334 10.5163 9.7581 11.7269L11.0502 16.3993C11.4059 17.6857 13.099 17.9762 13.8632 16.882L13.8889 16.8454C13.9167 16.8054 13.9741 16.801 14.0078 16.8362L15.4077 18.2981C16.0101 18.9272 17.0084 18.9488 17.6376 18.3464L18.0359 17.965C18.665 17.3625 18.6867 16.3642 18.0842 15.7351L16.6843 14.2732C16.6507 14.238 16.6576 14.1809 16.6987 14.1547L16.7364 14.1307C17.8627 13.4146 17.6458 11.7105 16.3761 11.2994L11.764 9.80611ZM11.2038 11.3271C11.198 11.3058 11.2 11.2938 11.2023 11.286C11.2054 11.2756 11.2124 11.2627 11.2248 11.2508C11.2373 11.239 11.2505 11.2325 11.2609 11.2299C11.2688 11.2279 11.2809 11.2264 11.3019 11.2332L15.914 12.7265C15.9377 12.7341 15.9462 12.7432 15.9508 12.7489C15.9574 12.7573 15.9644 12.7713 15.9668 12.7901C15.9691 12.8089 15.9659 12.8242 15.9616 12.834C15.9586 12.8406 15.9526 12.8516 15.9316 12.8649L15.8939 12.8889C15.054 13.4229 14.9126 14.5918 15.601 15.3106L17.0008 16.7725C17.0303 16.8033 17.0292 16.8521 16.9985 16.8816L16.6001 17.263C16.5694 17.2925 16.5205 17.2914 16.4911 17.2607L15.0912 15.7987C14.4029 15.0799 13.229 15.1705 12.6591 15.9865L12.6335 16.0231C12.6192 16.0436 12.608 16.0491 12.6013 16.0517C12.5913 16.0556 12.5759 16.0582 12.5572 16.055C12.5385 16.0518 12.5248 16.0442 12.5167 16.0372C12.5112 16.0325 12.5025 16.0236 12.4959 15.9995L11.2038 11.3271Z" fill="#4E5964"/>
</svg>
