<svg width="25" height="25" viewBox="0 0 25 25" fill="none" xmlns="http://www.w3.org/2000/svg">
<path fill-rule="evenodd" clip-rule="evenodd" d="M2.2676 7.77595C2.26823 4.87646 4.61925 2.52646 7.51874 2.5271L16.5187 2.52907C19.4182 2.52971 21.7682 4.88072 21.7676 7.78022L21.7656 16.7802C21.765 19.6797 19.414 22.0297 16.5145 22.0291L7.51448 22.0271C4.61498 22.0265 2.26499 19.6754 2.26563 16.776L2.2676 7.77595ZM10.9705 5.98565C10.9804 5.57155 11.3242 5.24392 11.7383 5.25386C11.8548 5.25666 11.9714 5.26272 12.088 5.27206C12.2047 5.28141 12.3209 5.29401 12.4365 5.30982C12.8469 5.36595 13.1341 5.74414 13.0779 6.15453C13.0218 6.56493 12.6436 6.85211 12.2332 6.79599C12.1453 6.78396 12.0569 6.77438 11.9682 6.76727C11.8795 6.76016 11.7908 6.75556 11.7023 6.75343C11.2882 6.74349 10.9605 6.39974 10.9705 5.98565ZM10.0071 6.18088C10.177 6.55866 10.0084 7.00261 9.63064 7.17247C9.54974 7.20884 9.46969 7.24752 9.39058 7.28851C9.31105 7.32971 9.23279 7.37307 9.15587 7.41852C8.79926 7.62924 8.33935 7.51097 8.12863 7.15436C7.91792 6.79775 8.03618 6.33784 8.39279 6.12712C8.49364 6.06753 8.59627 6.01067 8.70058 5.95663C8.80434 5.90287 8.90938 5.85211 9.01555 5.80438C9.39334 5.63453 9.83729 5.80309 10.0071 6.18088ZM14.0003 6.50155C14.2278 6.15541 14.6929 6.05922 15.039 6.28672C15.1363 6.35069 15.2321 6.41745 15.3261 6.48695C15.4207 6.55689 15.5131 6.62934 15.6035 6.7042C15.9223 6.96854 15.9666 7.44135 15.7022 7.76025C15.4379 8.07914 14.9651 8.12336 14.6462 7.85901C14.5772 7.80182 14.5065 7.74648 14.4343 7.69307C14.3625 7.64 14.2894 7.58904 14.2152 7.54023C13.869 7.31273 13.7728 6.8477 14.0003 6.50155ZM7.40306 7.83842C7.74585 8.07095 7.83524 8.53733 7.60271 8.88012C7.55245 8.95422 7.5041 9.02985 7.45774 9.10693C7.41111 9.18445 7.36668 9.26314 7.32447 9.3429C7.13074 9.70902 6.67689 9.84876 6.31078 9.65503C5.94466 9.46129 5.80492 9.00745 5.99866 8.64133C6.05364 8.53741 6.11154 8.43487 6.17232 8.33382C6.23275 8.23334 6.29579 8.13473 6.36136 8.03808C6.59388 7.69529 7.06027 7.6059 7.40306 7.83842ZM16.3146 8.55354C16.6894 8.37732 17.1362 8.53834 17.3124 8.9132C17.3622 9.01905 17.4091 9.12644 17.4532 9.23525C17.6088 9.61913 17.4238 10.0565 17.0399 10.212C16.656 10.3676 16.2187 10.1826 16.0631 9.7987C16.0292 9.71511 15.9931 9.63263 15.9549 9.55136C15.7787 9.1765 15.9397 8.72976 16.3146 8.55354ZM6.04242 10.6315C6.45609 10.6528 6.77417 11.0054 6.75288 11.419C6.74824 11.5092 6.74603 11.5997 6.74628 11.6904C6.74654 11.781 6.74925 11.8715 6.75439 11.9617C6.77799 12.3752 6.46187 12.7296 6.04833 12.7532C5.63479 12.7768 5.28042 12.4606 5.25683 12.0471C5.25014 11.9299 5.24662 11.8124 5.24629 11.6946C5.24596 11.5768 5.24883 11.4592 5.25487 11.3419C5.27616 10.9283 5.62876 10.6102 6.04242 10.6315ZM6.32205 13.7279C6.68707 13.5321 7.1417 13.6692 7.3375 14.0342C7.38015 14.1137 7.42501 14.1922 7.47207 14.2694C7.51886 14.3462 7.56762 14.4215 7.61829 14.4953C7.85277 14.8368 7.76604 15.3037 7.42458 15.5381C7.08312 15.7726 6.61624 15.6859 6.38176 15.3444C6.31566 15.2482 6.25206 15.1499 6.19107 15.0498C6.12972 14.9491 6.07124 14.8469 6.01567 14.7433C5.81987 14.3783 5.95704 13.9237 6.32205 13.7279ZM8.15376 16.2177C8.36238 15.8598 8.82159 15.7389 9.17943 15.9475C9.25659 15.9925 9.33509 16.0353 9.41484 16.0761C9.78374 16.2644 9.9301 16.7162 9.74173 17.0851C9.55337 17.454 9.10161 17.6004 8.73271 17.412C8.62809 17.3586 8.52514 17.3023 8.42396 17.2433C8.06612 17.0347 7.94515 16.5755 8.15376 16.2177ZM11.7777 10.0817C10.5827 9.69485 9.43702 10.7919 9.77177 12.0025L11.0638 16.675C11.4196 17.9613 13.1127 18.2519 13.8769 17.1577L13.9025 17.121C13.9304 17.0811 13.9878 17.0767 14.0215 17.1118L15.4214 18.5737C16.0238 19.2028 17.0221 19.2245 17.6512 18.6221L18.0496 18.2406C18.6787 17.6382 18.7003 16.6398 18.0979 16.0107L16.698 14.5488C16.6644 14.5137 16.6713 14.4565 16.7123 14.4304L16.7501 14.4064C17.8764 13.6903 17.6595 11.9861 16.3897 11.575L11.7777 10.0817ZM11.2175 11.6027C11.2116 11.5815 11.2137 11.5694 11.216 11.5616C11.2191 11.5513 11.2261 11.5384 11.2385 11.5265C11.2509 11.5146 11.2641 11.5081 11.2746 11.5055C11.2825 11.5035 11.2946 11.502 11.3156 11.5088L15.9277 13.0021C15.9514 13.0098 15.9599 13.0188 15.9644 13.0246C15.9711 13.0329 15.978 13.0469 15.9804 13.0657C15.9828 13.0845 15.9796 13.0999 15.9753 13.1096C15.9723 13.1163 15.9663 13.1272 15.9453 13.1406L15.9075 13.1646C15.0677 13.6986 14.9263 14.8674 15.6146 15.5862L17.0145 17.0482C17.044 17.0789 17.0429 17.1277 17.0122 17.1572L16.6138 17.5387C16.583 17.5681 16.5342 17.5671 16.5047 17.5363L15.1049 16.0744C14.4165 15.3556 13.2426 15.4462 12.6728 16.2621L12.6471 16.2988C12.6329 16.3192 12.6217 16.3247 12.6149 16.3274C12.605 16.3313 12.5895 16.3338 12.5709 16.3306C12.5522 16.3274 12.5385 16.3199 12.5304 16.3129C12.5249 16.3081 12.5162 16.2992 12.5096 16.2752L11.2175 11.6027Z" fill="#4E5964"/>
</svg>
