<svg width="24" height="24" viewBox="0 0 24 24" fill="none" xmlns="http://www.w3.org/2000/svg">
<path d="M8.33759 5.15899C9.53822 4.53081 10.8859 4.25293 12.2313 4.35525C13.5768 4.45756 14.8692 4.93623 15.965 5.73961C17.0609 6.54309 17.9177 7.64028 18.4386 8.91063C18.6299 9.37723 19.1633 9.60038 19.6299 9.40906C20.0965 9.21774 20.3196 8.68439 20.1283 8.2178C19.4808 6.63871 18.4141 5.27071 17.0448 4.26681C15.6753 3.26281 14.0572 2.6626 12.3698 2.53428C10.6824 2.40596 8.99354 2.75471 7.49097 3.54087C5.98853 4.32696 4.73197 5.51912 3.85929 6.98346C2.98667 8.44769 2.53151 10.1275 2.54319 11.8366C2.55486 13.5457 3.03292 15.219 3.92551 16.6709C4.81816 18.1229 6.09096 19.2973 7.60408 20.0622C8.05414 20.2897 8.60342 20.1093 8.83093 19.6592C9.05845 19.2092 8.87804 18.6599 8.42798 18.4324C7.21884 17.8211 6.19838 16.8809 5.48124 15.7144C4.76405 14.5478 4.37877 13.2012 4.36937 11.8241C4.35996 10.447 4.7268 9.09504 5.42805 7.91837C6.12923 6.74181 7.13683 5.78723 8.33759 5.15899Z" fill="#4E5964"/>
<path d="M11.8773 9.20211C10.2631 8.67945 8.71531 10.1615 9.16753 11.7969L11.0693 18.6742C11.5498 20.412 13.8371 20.8045 14.8695 19.3263L14.9072 19.2723C15.0172 19.1149 15.2437 19.0974 15.3765 19.2361L17.437 21.3879C18.2508 22.2377 19.5995 22.267 20.4493 21.4532L21.0357 20.8917C21.8855 20.0779 21.9148 18.7292 21.101 17.8794L19.0405 15.7276C18.9077 15.5889 18.9349 15.3633 19.097 15.2603L19.1526 15.2249C20.6741 14.2576 20.3811 11.9555 18.6658 11.4001L11.8773 9.20211Z" fill="#4E5964"/>
</svg>
