<svg width="25" height="25" viewBox="0 0 25 25" fill="none" xmlns="http://www.w3.org/2000/svg">
<path d="M8.35517 5.43462C9.5558 4.80644 10.9035 4.52857 12.2489 4.63088C13.5943 4.7332 14.8868 5.21187 15.9826 6.01525C17.0785 6.81872 17.9353 7.91592 18.4562 9.18627C18.6475 9.65286 19.1809 9.87602 19.6475 9.6847C20.1141 9.49338 20.3372 8.96003 20.1459 8.49343C19.4984 6.91435 18.4317 5.54635 17.0623 4.54244C15.6929 3.53844 14.0747 2.93824 12.3874 2.80992C10.7 2.6816 9.01111 3.03035 7.50855 3.8165C6.00611 4.60259 4.74955 5.79476 3.87687 7.25909C3.00425 8.72332 2.54909 10.4031 2.56077 12.1122C2.57244 13.8213 3.0505 15.4946 3.94308 16.9465C4.83574 18.3985 6.10854 19.5729 7.62166 20.3378C8.07172 20.5653 8.621 20.3849 8.84851 19.9349C9.07602 19.4848 8.89561 18.9355 8.44555 18.708C7.23642 18.0968 6.21595 17.1566 5.49882 15.9901C4.78162 14.8235 4.39635 13.4768 4.38694 12.0997C4.37754 10.7227 4.74438 9.37068 5.44563 8.19401C6.14681 7.01744 7.15441 6.06287 8.35517 5.43462Z" fill="#4E5964"/>
<path d="M11.8949 9.47775C10.2806 8.95509 8.73289 10.4372 9.18511 12.0725L11.0869 18.9499C11.5674 20.6876 13.8547 21.0801 14.8871 19.6019L14.9248 19.5479C15.0347 19.3905 15.2613 19.373 15.3941 19.5117L17.4546 21.6635C18.2684 22.5134 19.6171 22.5426 20.4669 21.7288L21.0533 21.1673C21.9031 20.3535 21.9323 19.0049 21.1185 18.155L19.0581 16.0032C18.9252 15.8645 18.9525 15.639 19.1146 15.5359L19.1702 15.5006C20.6916 14.5332 20.3986 12.2311 18.6833 11.6757L11.8949 9.47775Z" fill="#4E5964"/>
</svg>
