<svg width="24" height="24" viewBox="0 0 24 24" fill="none" xmlns="http://www.w3.org/2000/svg">
<path fill-rule="evenodd" clip-rule="evenodd" d="M20.6245 2.47163C20.9163 2.76561 20.9146 3.24048 20.6206 3.53229L6.63507 17.4148L6.31876 17.7362C6.29162 17.7638 6.26368 17.789 6.23509 17.8118L3.52837 20.4986C3.23439 20.7904 2.75952 20.7887 2.46771 20.4947C2.1759 20.2007 2.17766 19.7258 2.47163 19.434L4.62952 17.292L4.20748 17.0301L4.14707 16.9702C3.98866 16.8131 3.83839 16.6469 3.6969 16.4726C3.56637 16.3117 3.44328 16.1439 3.32818 15.9697C3.19513 15.7683 3.07271 15.5584 2.96171 15.341C2.83986 15.1023 2.73176 14.8544 2.63846 14.5987C2.56552 14.3987 2.50163 14.194 2.4473 13.985C2.40576 13.8251 2.36982 13.6629 2.3397 13.4984C2.30574 13.313 2.27918 13.1248 2.26036 12.9342C2.23801 12.7078 2.22656 12.4782 2.22656 12.2459V11.5963C2.22656 8.11574 4.82041 5.17671 8.15865 5.17671H9.25784C9.72222 5.17671 10.1829 4.97289 10.531 4.58447L11.8612 3.10004L11.8651 3.09565C12.6153 2.26084 13.7112 2.10272 14.6145 2.3693C15.5145 2.63491 16.3485 3.35763 16.5564 4.43203L16.5584 4.44233L16.6548 5.0275C16.6708 5.12464 16.6829 5.22193 16.6912 5.31916L19.5638 2.46771C19.8578 2.1759 20.3327 2.17766 20.6245 2.47163ZM16.4883 8.88374C16.9004 8.8421 17.2682 9.14242 17.3099 9.55453L17.332 9.77389L17.3327 9.78328C17.5442 12.5748 17.313 15.0545 16.7132 18.3457C16.6874 18.487 16.6709 18.6245 16.6513 18.7862C16.6448 18.8408 16.6378 18.8984 16.6301 18.9596C16.6016 19.1856 16.5633 19.4497 16.487 19.7182C16.2083 20.6988 15.4644 21.4058 14.583 21.6536C13.6843 21.9062 12.6727 21.6707 11.9403 20.8443L10.582 19.3116C10.1998 18.8804 9.69009 18.6525 9.17452 18.6525H8.10371C7.6895 18.6525 7.35371 18.3167 7.35371 17.9025C7.35371 17.4883 7.6895 17.1525 8.10371 17.1525H9.17452C10.1429 17.1525 11.0537 17.5824 11.7046 18.3167L13.0594 19.8454L13.0665 19.8535C13.4058 20.2336 13.817 20.3107 14.1771 20.2095C14.5558 20.1031 14.9077 19.7882 15.0442 19.3081C15.088 19.154 15.1152 18.9832 15.1419 18.7719C15.1472 18.7298 15.1526 18.6846 15.1583 18.6373C15.1789 18.4664 15.2028 18.267 15.2375 18.0767C15.8234 14.8621 16.0349 12.5213 15.8377 9.90592L15.8175 9.70535C15.7758 9.29323 16.0761 8.92539 16.4883 8.88374ZM19.9784 7.74541C20.2517 7.43414 20.7255 7.40335 21.0368 7.67663C22.0977 8.60803 22.7489 10.1065 22.7489 11.7518C22.7489 13.3952 22.0987 14.8922 21.0399 15.824C20.7289 16.0976 20.255 16.0673 19.9814 15.7564C19.7077 15.4454 19.738 14.9715 20.049 14.6979C20.7462 14.0843 21.2489 13.0173 21.2489 11.7518C21.2489 10.4844 20.7453 9.4168 20.0472 8.80384C19.7359 8.53055 19.7051 8.05668 19.9784 7.74541ZM18.2775 9.36751C18.5017 9.01921 18.9658 8.9186 19.3141 9.14278C20.1315 9.66888 20.6115 10.678 20.6115 11.7526C20.6115 12.8261 20.132 13.8375 19.3106 14.3597C18.961 14.5819 18.4975 14.4787 18.2753 14.1291C18.0531 13.7796 18.1563 13.3161 18.5058 13.0938C18.8131 12.8985 19.1115 12.4172 19.1115 11.7526C19.1115 11.089 18.8136 10.6045 18.5023 10.4041C18.154 10.1799 18.0534 9.71581 18.2775 9.36751Z" fill="#4E5964"/>
</svg>
