<svg width="24" height="24" viewBox="0 0 24 24" fill="none" xmlns="http://www.w3.org/2000/svg">
<path d="M18.3008 13.7268C18.8782 13.368 19.2762 12.6217 19.2762 11.7526C19.2762 10.8835 18.8782 10.1367 18.3008 9.77344" stroke="#4E5964" stroke-width="1.5" stroke-linecap="round" stroke-linejoin="round"/>
<path d="M19.9751 15.2609C20.8735 14.4882 21.4634 13.2062 21.4634 11.7518C21.4634 10.2954 20.8725 9.01241 19.9727 8.24023" stroke="#4E5964" stroke-width="1.5" stroke-linecap="round" stroke-linejoin="round"/>
<path fill-rule="evenodd" clip-rule="evenodd" d="M15.4745 6.4643C15.4266 6.19742 15.3752 5.92509 15.3204 5.6466C15.2901 5.49254 15.2692 5.33545 15.2483 5.17828C15.205 4.85363 15.1617 4.52871 15.0358 4.2298C14.5109 2.98341 12.6431 2.52997 11.6634 3.5985L10.3009 5.0845C9.80732 5.62288 9.13189 5.92623 8.4268 5.92623H7.30215C4.37385 5.92623 2 8.46458 2 11.5958V12.2454C2 14.3798 3.10551 16.238 4.73764 17.2012L15.4745 6.4643ZM6.26442 17.7958C6.59621 17.8655 6.93913 17.902 7.29003 17.902H8.34155C9.1007 17.902 9.82746 18.2309 10.3559 18.8137L11.7457 20.3464C12.8395 21.5526 14.649 20.977 15.0812 19.5266C15.1611 19.2588 15.1955 18.9798 15.2299 18.7009C15.2508 18.5314 15.2718 18.362 15.3029 18.1951C16.0198 14.3457 16.2035 11.6758 15.7618 8.29836L6.26442 17.7958Z" fill="#4E5964"/>
<path d="M19 2L2 19" stroke="#4E5964" stroke-width="1.5" stroke-linecap="round" stroke-linejoin="round"/>
</svg>
