<svg width="24" height="24" viewBox="0 0 24 24" fill="none" xmlns="http://www.w3.org/2000/svg">
<path fill-rule="evenodd" clip-rule="evenodd" d="M20.1349 8.47271C20.4082 8.16144 20.8821 8.13065 21.1933 8.40394C22.2542 9.33534 22.9055 10.8338 22.9055 12.4791C22.9055 14.1225 22.2552 15.6195 21.1964 16.5513C20.8855 16.8249 20.4116 16.7946 20.1379 16.4837C19.8643 16.1727 19.8945 15.6988 20.2055 15.4252C20.9028 14.8116 21.4055 13.7446 21.4055 12.4791C21.4055 11.2117 20.9018 10.1441 20.2037 9.53114C19.8924 9.25786 19.8616 8.78398 20.1349 8.47271ZM18.4338 10.0948C18.658 9.74651 19.1221 9.6459 19.4704 9.87009C20.2878 10.3962 20.7678 11.4053 20.7678 12.4799C20.7678 13.5534 20.2882 14.5648 19.4669 15.087C19.1173 15.3092 18.6538 15.206 18.4316 14.8564C18.2093 14.5069 18.3126 14.0434 18.6621 13.8211C18.9694 13.6258 19.2678 13.1445 19.2678 12.4799C19.2678 11.8163 18.9699 11.3318 18.6586 11.1314C18.3103 10.9072 18.2096 10.4431 18.4338 10.0948Z" fill="#00ABB8"/>
<path d="M20.3127 2.22017C20.6053 2.51334 20.6048 2.98821 20.3117 3.28083L3.27983 20.2807C2.98666 20.5733 2.51179 20.5729 2.21917 20.2797C1.92655 19.9865 1.927 19.5117 2.22017 19.219L4.40678 17.0524C3.79074 16.5034 3.3145 15.5077 3.15338 15.0785C3.08862 14.901 3.03183 14.719 2.98352 14.5331C2.94658 14.391 2.91459 14.2466 2.88777 14.1001C2.85753 13.935 2.83221 13.709 2.81542 13.539C2.79548 13.3371 2.78525 13.1321 2.78525 12.9244V12.2748C2.78525 9.1436 5.39431 6.66925 8.2563 6.66925H9.35549C10.0446 6.66925 10.6534 6.3053 11.1358 5.76692C11.5363 5.32004 12.1827 4.63393 12.3908 4.41365C12.4356 4.36618 12.4791 4.31774 12.5252 4.27157C13.5881 3.20844 15.7042 3.80115 15.9722 5.49631L19.252 2.21917C19.5452 1.92655 20.02 1.927 20.3127 2.22017Z" fill="#00ABB8"/>
<path d="M9.2722 18.645H8.24448C8.07528 18.645 7.82241 18.6427 7.65737 18.6254C7.50737 18.6096 7.18852 18.5671 7.04254 18.5376L16.5468 9.03955C17.0117 12.5156 16.7947 15.0395 16.0738 18.9529C15.9942 19.3849 15.9837 19.8334 15.8617 20.2554C15.4477 21.6873 13.705 22.2866 12.6252 21.1791C12.5769 21.1296 12.5309 21.0779 12.4836 21.0275C12.2675 20.7969 11.6029 20.0855 11.1753 19.6031C10.6588 19.0203 10.0341 18.6968 9.2722 18.645Z" fill="#00ABB8"/>
</svg>
