<svg width="24" height="24" viewBox="0 0 24 24" fill="none" xmlns="http://www.w3.org/2000/svg">
<path d="M16.3018 10.75C16.7159 10.745 17.0555 11.0771 17.0605 11.4912C17.0931 14.1787 16.8684 16.8685 16.3857 19.5234C16.1527 20.8051 14.6058 21.337 13.6338 20.4697L10.4922 17.667C10.1831 17.3912 10.1559 16.9165 10.4316 16.6074C10.7073 16.2986 11.1812 16.2715 11.4902 16.5469L14.6328 19.3506C14.7306 19.4376 14.8854 19.3845 14.9092 19.2559C15.3747 16.6954 15.5919 14.1006 15.5605 11.5088C15.5557 11.0947 15.8877 10.755 16.3018 10.75Z" fill="#4E5964"/>
<path d="M13.6348 3.52956C14.6067 2.66246 16.1535 3.19447 16.3867 4.47585C16.538 5.30787 16.661 6.14399 16.7617 6.98171L19.4814 4.45046C19.7846 4.16861 20.2589 4.18564 20.541 4.48855C20.8233 4.79171 20.8061 5.26684 20.5029 5.54909L6.00293 19.0491C5.6998 19.3309 5.22551 19.3139 4.94336 19.011C4.66111 18.7078 4.67828 18.2327 4.98145 17.9505L7.51465 15.5911C7.50786 15.5904 7.50109 15.5894 7.49432 15.5883C7.48646 15.5871 7.4786 15.5858 7.4707 15.5852L6.77734 15.5305C5.34632 15.4184 4.24225 14.2247 4.24219 12.7893V11.0833C4.24219 9.56449 5.4734 8.33327 6.99219 8.33327H7.39355C7.94601 8.33327 8.47935 8.12976 8.8916 7.76198L13.6348 3.52956Z" fill="#4E5964"/>
</svg>
