<svg width="24" height="24" viewBox="0 0 24 24" fill="none" xmlns="http://www.w3.org/2000/svg">
<path fill-rule="evenodd" clip-rule="evenodd" d="M19.3797 7.71978C19.653 7.40851 20.1268 7.37772 20.4381 7.65101C21.499 8.58241 22.1502 10.0808 22.1502 11.7262C22.1502 13.3695 21.5 14.8666 20.4412 15.7983C20.1302 16.072 19.6563 16.0417 19.3827 15.7308C19.109 15.4198 19.1393 14.9459 19.4502 14.6723C20.1475 14.0586 20.6502 12.9917 20.6502 11.7262C20.6502 10.4587 20.1466 9.39117 19.4484 8.77821C19.1372 8.50493 19.1064 8.03105 19.3797 7.71978ZM17.6786 9.34189C17.9028 8.99359 18.3669 8.89297 18.7152 9.11716C19.5325 9.64326 20.0126 10.6524 20.0126 11.727C20.0126 12.8005 19.533 13.8119 18.7116 14.3341C18.3621 14.5563 17.8985 14.4531 17.6763 14.1035C17.4541 13.754 17.5573 13.2904 17.9069 13.0682C18.2141 12.8729 18.5126 12.3916 18.5126 11.727C18.5126 11.0634 18.2146 10.5788 17.9033 10.3785C17.555 10.1543 17.4544 9.69019 17.6786 9.34189Z" fill="#4E5964"/>
<path d="M19.5574 1.46724C19.85 1.76041 19.8496 2.23528 19.5564 2.5279L2.52458 19.5278C2.23141 19.8204 1.75654 19.8199 1.46392 19.5268C1.17131 19.2336 1.17175 18.7587 1.46492 18.4661L3.65153 16.2995C3.03549 15.7504 2.55925 14.7548 2.39813 14.3256C2.33337 14.148 2.27658 13.9661 2.22827 13.7802C2.19133 13.6381 2.15934 13.4937 2.13252 13.3472C2.10228 13.1821 2.07696 12.9561 2.06017 12.7861C2.04023 12.5842 2.03 12.3791 2.03 12.1715V11.5219C2.03 8.39067 4.63906 5.91632 7.50105 5.91632H8.60024C9.28936 5.91632 9.89813 5.55237 10.3806 5.01399C10.781 4.56711 11.4274 3.881 11.6356 3.66072C11.6804 3.61325 11.7238 3.56481 11.77 3.51864C12.8329 2.45551 14.9489 3.04822 15.217 4.74338L18.4968 1.46624C18.7899 1.17362 19.2648 1.17407 19.5574 1.46724Z" fill="#4E5964"/>
<path d="M8.51695 17.8921H7.48924C7.32003 17.8921 7.06716 17.8898 6.90212 17.8724C6.75212 17.8566 6.43327 17.8142 6.28729 17.7846L15.7915 8.28662C16.2565 11.7627 16.0395 14.2866 15.3186 18.2C15.239 18.632 15.2285 19.0805 15.1064 19.5025C14.6925 20.9344 12.9497 21.5337 11.8699 20.4262C11.8217 20.3767 11.7756 20.325 11.7284 20.2746C11.5122 20.044 10.8477 19.3326 10.4201 18.8501C9.90357 18.2674 9.27886 17.9439 8.51695 17.8921Z" fill="#4E5964"/>
</svg>
