<svg width="24" height="24" viewBox="0 0 24 24" fill="none" xmlns="http://www.w3.org/2000/svg">
<path d="M5.25 21V3.00002C5.25 2.66966 5.46613 2.37815 5.78223 2.28224C6.09855 2.18647 6.44069 2.30901 6.62402 2.584L17.25 18.5225V3.00002C17.25 2.5858 17.5858 2.25002 18 2.25002C18.4142 2.25002 18.75 2.5858 18.75 3.00002V21C18.75 21.3304 18.5339 21.6219 18.2178 21.7178C17.9015 21.8136 17.5593 21.691 17.376 21.416L6.75 5.47658V21C6.75 21.4142 6.41421 21.75 6 21.75C5.58579 21.75 5.25 21.4142 5.25 21Z" fill="#4E5964"/>
</svg>
