<svg width="24" height="24" viewBox="0 0 24 24" fill="none" xmlns="http://www.w3.org/2000/svg">
<path d="M7.5 2.25C4.60051 2.25 2.25 4.60051 2.25 7.5V16.5C2.25 19.3995 4.60051 21.75 7.5 21.75H16.5C19.3995 21.75 21.75 19.3995 21.75 16.5V7.5C21.75 4.60051 19.3995 2.25 16.5 2.25H7.5ZM16 14.667C16.4142 14.667 16.75 15.0028 16.75 15.417V17.417C16.7498 17.8311 16.4141 18.167 16 18.167C15.5859 18.167 15.2502 17.8311 15.25 17.417V15.417C15.25 15.0028 15.5858 14.667 16 14.667ZM12 13.25C12.4142 13.25 12.75 13.5858 12.75 14V17.417C12.7498 17.8311 12.4141 18.167 12 18.167C11.5859 18.167 11.2502 17.8311 11.25 17.417V14C11.25 13.5858 11.5858 13.25 12 13.25ZM8 10.75C8.41421 10.75 8.75 11.0858 8.75 11.5V17.417C8.74985 17.8311 8.41412 18.167 8 18.167C7.58588 18.167 7.25015 17.8311 7.25 17.417V11.5C7.25 11.0858 7.58579 10.75 8 10.75ZM7.33398 6.65527C7.52437 6.28745 7.97687 6.14364 8.34473 6.33398L9.06543 6.70703C9.37643 6.868 9.62348 7.12624 9.77441 7.43848L10.7637 9.48438C10.7763 9.51051 10.7899 9.52331 10.7998 9.53027C10.8109 9.53802 10.8235 9.54323 10.8369 9.54492C10.8505 9.54656 10.8638 9.54506 10.874 9.54102C10.8827 9.53753 10.8961 9.52969 10.9121 9.50977L11.5654 8.69824C12.1938 7.91782 13.3631 7.90203 14.0107 8.66797L15.3301 10.2305C15.4724 9.94126 15.7888 9.76474 16.123 9.82031C16.5315 9.88851 16.8082 10.2752 16.7402 10.6836L16.499 12.123C16.466 12.3207 16.3552 12.4978 16.1914 12.6133C16.0688 12.6996 15.9241 12.7467 15.7764 12.75L15.6279 12.7383L14.2363 12.4893C13.8288 12.4162 13.557 12.0268 13.6299 11.6191C13.6758 11.3626 13.848 11.1613 14.0703 11.0645L12.8652 9.63672C12.8424 9.60975 12.8193 9.60335 12.7998 9.60352C12.7802 9.60376 12.7561 9.61049 12.7334 9.63867L12.0801 10.4502C11.3372 11.3727 9.92146 11.189 9.41309 10.1377L8.42383 8.09082C8.41087 8.06424 8.39254 8.04764 8.37598 8.03906L7.65527 7.66602C7.28746 7.47564 7.14366 7.02312 7.33398 6.65527Z" fill="#4E5964"/>
</svg>
