<svg width="24" height="24" viewBox="0 0 24 24" fill="none" xmlns="http://www.w3.org/2000/svg">
<path fill-rule="evenodd" clip-rule="evenodd" d="M18.6219 19.2311L14.733 21.3294C14.0376 21.7046 13.2924 21.9281 12.5377 22V13.4211L21.3287 7.68816C21.7621 8.60165 22 9.62798 22 10.6933V13.3342C22 15.832 20.6922 18.1141 18.6219 19.2311ZM11.0377 13.4421V21.9433C10.4291 21.8387 9.83164 21.634 9.26703 21.3294L5.37814 19.2311C3.30779 18.1141 2 15.8306 2 13.3328V10.6931C2 9.86896 2.14236 9.06819 2.4075 8.32494L11.0377 13.4421ZM5.37814 4.79479C4.43053 5.30607 3.64268 6.06169 3.06685 6.97038L11.7689 12.1301L20.5372 6.41193C20.0147 5.75115 19.3678 5.19725 18.6219 4.79479L14.7317 2.69586C13.0113 1.76759 10.9875 1.76827 9.26703 2.69654L5.37814 4.79479ZM11 5.25415C10.5858 5.25415 10.25 5.59037 10.25 6.00511C10.25 6.41986 10.5858 6.75607 11 6.75607H14C14.4142 6.75607 14.75 6.41986 14.75 6.00511C14.75 5.59037 14.4142 5.25415 14 5.25415H11Z" fill="#4E5964"/>
</svg>
