<svg width="24" height="25" viewBox="0 0 24 25" fill="none" xmlns="http://www.w3.org/2000/svg">
<path fill-rule="evenodd" clip-rule="evenodd" d="M14.778 3.31197C13.0295 2.3698 10.9675 2.37059 9.21934 3.31258L5.71934 5.19859C4.87238 5.65498 4.15578 6.30129 3.60276 7.07097L11.9987 11.9839L20.3956 7.07062C19.8423 6.30034 19.1259 5.65492 18.2791 5.19859L14.778 3.31197ZM21.068 8.24129L12.6737 13.1531V21.9163C13.3981 21.8312 14.1115 21.6089 14.7791 21.2492L18.2791 19.3631C20.3768 18.2328 21.6742 15.9433 21.6742 13.4684V11.0947C21.6742 10.0917 21.4611 9.11888 21.068 8.24129ZM11.3237 21.9161V13.1531L2.93015 8.24152C2.53759 9.11759 2.32422 10.0896 2.32422 11.0945V13.4672C2.32422 15.9419 3.6215 18.2327 5.71934 19.3631L9.21935 21.2492C9.8866 21.6087 10.5997 21.831 11.3237 21.9161ZM10.249 7.28052C10.249 6.8663 10.5848 6.53052 10.999 6.53052H12.999C13.4132 6.53052 13.749 6.8663 13.749 7.28052C13.749 7.69473 13.4132 8.03052 12.999 8.03052H10.999C10.5848 8.03052 10.249 7.69473 10.249 7.28052Z" fill="#4E5964"/>
</svg>
