<svg width="24" height="24" viewBox="0 0 24 24" fill="none" xmlns="http://www.w3.org/2000/svg">
<path fill-rule="evenodd" clip-rule="evenodd" d="M18.6219 19.2091L14.733 21.3047C14.0376 21.6794 13.2924 21.9027 12.5377 21.9745V13.4066L21.3287 7.6809C21.7621 8.59322 22 9.61824 22 10.6822V13.3197C22 15.8143 20.6922 18.0935 18.6219 19.2091ZM11.0377 13.4275V21.9179C10.4291 21.8133 9.83164 21.6089 9.26703 21.3047L5.37814 19.2091C3.30779 18.0935 2 15.813 2 13.3184V10.682C2 9.85892 2.14236 9.05917 2.4075 8.31686L11.0377 13.4275ZM5.37814 4.79122C4.43053 5.30185 3.64268 6.05651 3.06685 6.96404L11.7689 12.1172L20.5372 6.4063C20.0147 5.74636 19.3678 5.19317 18.6219 4.79122L14.7317 2.69497C13.0113 1.76789 10.9875 1.76857 9.26703 2.69565L5.37814 4.79122ZM11 5.25C10.5858 5.25 10.25 5.58579 10.25 6C10.25 6.41421 10.5858 6.75 11 6.75H14C14.4142 6.75 14.75 6.41421 14.75 6C14.75 5.58579 14.4142 5.25 14 5.25H11Z" fill="#4E5964"/>
</svg>
