<svg width="24" height="24" viewBox="0 0 24 24" fill="none" xmlns="http://www.w3.org/2000/svg">
<g clip-path="url(#clip0_3923_1098)">
<path d="M19.2841 19.93L15.0063 22.2352C13.1138 23.2549 10.8862 23.2549 8.99373 22.2352L4.71595 19.93C2.43857 18.7028 1 16.1943 1 13.4502V10.5502C1 9.22356 1.33622 7.95199 1.9409 6.85363C2.58699 5.68006 3.53956 4.70425 4.71595 4.07034L8.99373 1.76522C10.8862 0.745427 13.1124 0.744679 15.0049 1.76447L19.284 4.07034C21.5614 5.29753 23 7.8063 23 10.5504V13.4517C23 16.1957 21.5614 18.7028 19.2841 19.93Z" fill="#4E5964"/>
<path d="M12 12.5929L21.7778 6.66547M12 12.5929L1.9409 6.85363M12 12.5929V22.6696M1.9409 6.85363L1.61111 6.66547M1.9409 6.85363C2.58699 5.68006 3.53956 4.70425 4.71595 4.07034L8.99373 1.76522C10.8862 0.745427 13.1124 0.744679 15.0049 1.76447L19.284 4.07034C21.5614 5.29753 23 7.8063 23 10.5504V13.4517C23 16.1957 21.5614 18.7028 19.2841 19.93L15.0063 22.2352C13.1138 23.2549 10.8862 23.2549 8.99373 22.2352L4.71595 19.93C2.43857 18.7028 1 16.1943 1 13.4502V10.5502C1 9.22356 1.33622 7.95199 1.9409 6.85363Z" stroke="white" stroke-width="1.5"/>
<path d="M10 7L14 7" stroke="#F9FAFB" stroke-width="1.5" stroke-linecap="round"/>
</g>
<defs>
<clipPath id="clip0_3923_1098">
<rect width="24" height="24" fill="white"/>
</clipPath>
</defs>
</svg>
