<svg width="24" height="24" viewBox="0 0 24 24" fill="none" xmlns="http://www.w3.org/2000/svg">
<path d="M16.5 2.25C19.3995 2.25 21.75 4.60051 21.75 7.5V16.5C21.75 19.3995 19.3995 21.75 16.5 21.75H7.5C4.60051 21.75 2.25 19.3995 2.25 16.5V7.5C2.25 4.60051 4.60051 2.25 7.5 2.25H16.5ZM8.33301 8.75C7.91895 8.75018 7.58302 9.0859 7.58301 9.5V12.0225L5.62402 9.08398C5.44069 8.809 5.09854 8.68646 4.78223 8.78223C4.46614 8.87813 4.25001 9.16965 4.25 9.5V14.5C4.25 14.9142 4.58579 15.25 5 15.25C5.41421 15.25 5.75 14.9142 5.75 14.5V11.9766L7.70898 14.916C7.89231 15.191 8.23446 15.3135 8.55078 15.2178C8.86704 15.122 9.08301 14.8305 9.08301 14.5V9.5C9.083 9.08579 8.74722 8.75 8.33301 8.75ZM10.334 8.75C9.9199 8.75014 9.58399 9.08588 9.58398 9.5V14.5C9.58398 14.9141 9.91989 15.2499 10.334 15.25C10.7482 15.25 11.084 14.9142 11.084 14.5V12.75H12.9756C13.3898 12.75 13.7256 12.4142 13.7256 12C13.7256 11.5858 13.3898 11.25 12.9756 11.25H11.084V10.25H13.668C14.082 10.2498 14.418 9.91408 14.418 9.5C14.418 9.08592 14.082 8.75021 13.668 8.75H10.334ZM15.667 8.75C15.2528 8.75 14.917 9.08579 14.917 9.5C14.917 9.91421 15.2528 10.25 15.667 10.25H16.582V14.5C16.582 14.9141 16.918 15.2498 17.332 15.25C17.7462 15.25 18.082 14.9142 18.082 14.5V10.25H19C19.4142 10.25 19.75 9.91421 19.75 9.5C19.75 9.08579 19.4142 8.75 19 8.75H15.667Z" fill="#4E5964"/>
</svg>
