<svg width="24" height="24" viewBox="0 0 24 24" fill="none" xmlns="http://www.w3.org/2000/svg">
<path fill-rule="evenodd" clip-rule="evenodd" d="M2.25 7.5C2.25 4.60051 4.60051 2.25 7.5 2.25H16.5C19.3995 2.25 21.75 4.60051 21.75 7.5V16.5C21.75 19.3995 19.3995 21.75 16.5 21.75H7.5C4.60051 21.75 2.25 19.3995 2.25 16.5V7.5ZM11.8571 8.75C11.798 8.75 11.75 8.79797 11.75 8.85714V10.25H14C14.4142 10.25 14.75 10.5858 14.75 11C14.75 11.4142 14.4142 11.75 14 11.75H11.75V15.5589C11.75 16.5845 10.3404 16.8669 9.94534 15.9205L7.75 10.6621V16C7.75 16.4142 7.41421 16.75 7 16.75C6.58579 16.75 6.25 16.4142 6.25 16V8.37327C6.25 7.24844 7.78627 6.92245 8.2431 7.95031L8.24656 7.9581L10.25 12.7568V8.85714C10.25 7.96954 10.9695 7.25 11.8571 7.25H18C18.4142 7.25 18.75 7.58579 18.75 8C18.75 8.41421 18.4142 8.75 18 8.75H16.75V16C16.75 16.4142 16.4142 16.75 16 16.75C15.5858 16.75 15.25 16.4142 15.25 16V8.75H11.8571Z" fill="#4E5964"/>
</svg>
