<svg width="24" height="24" viewBox="0 0 24 24" fill="none" xmlns="http://www.w3.org/2000/svg">
<path d="M16.5 2.25C19.3995 2.25 21.75 4.60051 21.75 7.5V16.5C21.75 19.3995 19.3995 21.75 16.5 21.75H7.5C4.60051 21.75 2.25 19.3995 2.25 16.5V7.5C2.25 4.60051 4.60051 2.25 7.5 2.25H16.5ZM5.20996 9C5.07 9.00001 5.00001 9.07 5 9.20996V15.2197C5 15.3597 5.06999 15.4297 5.20996 15.4297H6.04004C6.18001 15.4297 6.25 15.3597 6.25 15.2197V11.5098H6.29004L8.29004 15.2305C8.35672 15.3635 8.46383 15.4297 8.61035 15.4297H9.33984C9.47984 15.4297 9.5498 15.3597 9.5498 15.2197V9.20996C9.54979 9.06999 9.47983 9 9.33984 9H8.50977C8.36993 9.00008 8.29982 9.07007 8.2998 9.20996V12.9297H8.25977L6.24023 9.13965C6.19354 9.04644 6.09987 9 5.95996 9H5.20996ZM11.0596 9C10.9196 9.00001 10.8496 9.07 10.8496 9.20996V15.2197C10.8496 15.3597 10.9196 15.4297 11.0596 15.4297H11.9092C12.0492 15.4297 12.1191 15.3597 12.1191 15.2197V13.0898C12.1192 13.0167 12.1595 12.9806 12.2393 12.9805H13.9492C14.0892 12.9805 14.1592 12.9064 14.1592 12.7598V12.0898C14.1591 11.9499 14.0892 11.8799 13.9492 11.8799H12.2393C12.1595 11.8798 12.1191 11.8396 12.1191 11.7598V10.21C12.1192 10.1368 12.1595 10.0997 12.2393 10.0996H14.25C14.3831 10.0995 14.4492 10.0295 14.4492 9.88965V9.20996C14.4492 9.07012 14.3831 9.00014 14.25 9H11.0596ZM15.0312 9C14.8915 9.0001 14.8213 9.07009 14.8213 9.20996V9.88965C14.8213 10.0295 14.8915 10.0995 15.0312 10.0996H16.1719C16.245 10.0997 16.2812 10.1368 16.2812 10.21V15.2197C16.2812 15.3597 16.3553 15.4297 16.502 15.4297H17.3418C17.4816 15.4296 17.5518 15.3596 17.5518 15.2197V10.21C17.5518 10.1367 17.5919 10.0996 17.6719 10.0996H18.8115C18.9515 10.0996 19.0215 10.0296 19.0215 9.88965V9.20996C19.0215 9.06999 18.9515 9 18.8115 9H15.0312Z" fill="#4E5964"/>
</svg>
