<svg width="24" height="24" viewBox="0 0 24 24" fill="none" xmlns="http://www.w3.org/2000/svg">
<path fill-rule="evenodd" clip-rule="evenodd" d="M13 11.75C11.7574 11.75 10.75 12.7574 10.75 14C10.75 15.2426 11.7574 16.25 13 16.25C14.2426 16.25 15.25 15.2426 15.25 14C15.25 12.7574 14.2426 11.75 13 11.75ZM9.25 14C9.25 11.9289 10.9289 10.25 13 10.25C15.0711 10.25 16.75 11.9289 16.75 14C16.75 14.7581 16.5251 15.4636 16.1383 16.0535C16.2103 16.0924 16.277 16.1439 16.3353 16.2077L17.5543 17.5437C17.8334 17.8497 17.8117 18.3241 17.5057 18.6033C17.1997 18.8825 16.7254 18.8608 16.4462 18.5548L15.2272 17.2188C15.1895 17.1774 15.1573 17.133 15.1305 17.0864C14.5254 17.5049 13.7913 17.75 13 17.75C10.9289 17.75 9.25 16.0711 9.25 14ZM14.2838 2.25H7.5C4.60051 2.25 2.25 4.60051 2.25 7.5V16.5C2.25 19.3995 4.60051 21.75 7.5 21.75H16.5C19.3995 21.75 21.75 19.3995 21.75 16.5V8.72019C21.7277 8.72596 21.7084 8.72998 21.6931 8.73289C21.6171 8.74727 21.5489 8.74999 21.5 8.74999L15.3933 8.74999C14.8957 8.74999 14.25 8.38968 14.25 7.67222V2.5C14.25 2.44432 14.2542 2.35337 14.2838 2.25ZM19.4839 7.24999L15.75 4.13839V7.24999L19.4839 7.24999ZM6 10.25C6 9.83578 6.33579 9.49999 6.75 9.49999H8.25C8.66421 9.49999 9 9.83578 9 10.25C9 10.6642 8.66421 11 8.25 11H6.75C6.33579 11 6 10.6642 6 10.25ZM6 7.24999C6 6.83578 6.33579 6.49999 6.75 6.49999H11.25C11.6642 6.49999 12 6.83578 12 7.24999C12 7.66421 11.6642 7.99999 11.25 7.99999H6.75C6.33579 7.99999 6 7.66421 6 7.24999Z" fill="#4E5964"/>
</svg>
