<svg width="24" height="24" viewBox="0 0 24 24" fill="none" xmlns="http://www.w3.org/2000/svg">
<path fill-rule="evenodd" clip-rule="evenodd" d="M9 2.25C9.41421 2.25 9.75 2.58579 9.75 3V3.25H8.25V3C8.25 2.58579 8.58579 2.25 9 2.25ZM15.75 3.25H16.5C19.3995 3.25 21.75 5.60051 21.75 8.5V16.5C21.75 19.3995 19.3995 21.75 16.5 21.75H7.5C4.60051 21.75 2.25 19.3995 2.25 16.5V8.5C2.25 5.60051 4.6005 3.25 7.5 3.25H8.25V5.28571C8.25 5.69993 8.58579 6.03571 9 6.03571C9.41421 6.03571 9.75 5.69993 9.75 5.28571V3.25H14.25V5.28571C14.25 5.69993 14.5858 6.03571 15 6.03571C15.4142 6.03571 15.75 5.69993 15.75 5.28571V3.25ZM15.75 3.25H14.25V3C14.25 2.58579 14.5858 2.25 15 2.25C15.4142 2.25 15.75 2.58579 15.75 3V3.25ZM6.75 8.5C6.33579 8.5 6 8.83579 6 9.25C6 9.66421 6.33579 10 6.75 10H13.25C13.6642 10 14 9.66421 14 9.25C14 8.83579 13.6642 8.5 13.25 8.5H6.75ZM6 12.25C6 11.8358 6.33579 11.5 6.75 11.5H11.25C11.6642 11.5 12 11.8358 12 12.25C12 12.6642 11.6642 13 11.25 13H6.75C6.33579 13 6 12.6642 6 12.25ZM6.75 14.5C6.33579 14.5 6 14.8358 6 15.25C6 15.6642 6.33579 16 6.75 16H8.25C8.66421 16 9 15.6642 9 15.25C9 14.8358 8.66421 14.5 8.25 14.5H6.75Z" fill="#4E5964"/>
</svg>
