<svg width="24" height="24" viewBox="0 0 24 24" fill="none" xmlns="http://www.w3.org/2000/svg">
<path d="M12.0004 2.25C8.05828 2.25 4.82181 5.35546 4.82181 9.23338V12.3551C4.82181 12.4615 4.75934 12.5732 4.63685 12.6331L3.99158 12.9453L3.99021 12.946C2.93358 13.4599 2.25038 14.5166 2.25038 15.6887C2.25038 17.4011 3.67528 18.75 5.3841 18.75H18.6167C20.3255 18.75 21.7504 17.4011 21.7504 15.6887C21.7504 14.5168 21.0667 13.4593 20.0092 12.9466L19.3657 12.6352L19.3645 12.6346C19.2405 12.5733 19.179 12.461 19.179 12.3551V9.23338C19.179 5.35546 15.9425 2.25 12.0004 2.25Z" fill="#4E5964"/>
<path d="M9.76321 19.2885C10.1474 19.1604 10.562 19.3606 10.7027 19.7368C10.705 19.7416 10.7101 19.7515 10.7185 19.7652C10.7406 19.8014 10.7852 19.8635 10.8635 19.9306C11.0073 20.0538 11.3297 20.25 12.0004 20.25C12.671 20.25 12.9935 20.0538 13.1373 19.9306C13.2156 19.8635 13.2602 19.8014 13.2823 19.7652C13.2907 19.7515 13.2957 19.7416 13.2981 19.7368C13.4388 19.3606 13.8534 19.1604 14.2376 19.2885C14.6305 19.4195 14.8429 19.8442 14.7119 20.2372L14.7115 20.2382L14.7112 20.2393L14.7104 20.2415L14.7088 20.2463L14.705 20.257C14.7022 20.2647 14.699 20.2734 14.6952 20.2831C14.6877 20.3024 14.6781 20.3256 14.6661 20.3521C14.6422 20.4051 14.6084 20.4718 14.5622 20.5473C14.4698 20.6986 14.3269 20.8865 14.1135 21.0694C13.674 21.4462 12.9964 21.75 12.0004 21.75C11.0044 21.75 10.3268 21.4462 9.88729 21.0694C9.67391 20.8865 9.53101 20.6986 9.43855 20.5473C9.39237 20.4718 9.35859 20.4051 9.33463 20.3521C9.32263 20.3256 9.31304 20.3024 9.30553 20.2831C9.30177 20.2734 9.29853 20.2647 9.29577 20.257L9.29198 20.2463L9.29034 20.2415L9.28959 20.2393L9.28922 20.2382C9.28922 20.2382 9.29577 20.257 9.28887 20.2415V20.2372C9.15788 19.8442 9.37025 19.4195 9.76321 19.2885Z" fill="#4E5964"/>
<path d="M20.5317 9.32474C20.1673 9.49756 20.0065 9.93064 20.1725 10.303C20.3415 10.682 20.7854 10.8546 21.1639 10.6883L21.183 10.6796L21.1649 10.6879L21.1659 10.6874L21.168 10.6865L21.1726 10.6844L21.183 10.6796C21.1905 10.6761 21.199 10.672 21.2087 10.6672C21.2279 10.6576 21.2513 10.6454 21.2781 10.6302C21.3318 10.5999 21.3998 10.5574 21.4764 10.5007C21.6297 10.3873 21.8194 10.2152 21.9963 9.96726C22.3608 9.45651 22.6249 8.68952 22.5068 7.60029C22.3887 6.51107 21.9659 5.81375 21.4998 5.38724C21.2735 5.18016 21.0512 5.04992 20.8769 4.96969C20.7897 4.92959 20.7141 4.90175 20.6551 4.88282C20.6256 4.87335 20.6001 4.86606 20.5792 4.86055C20.5688 4.85779 20.5595 4.85548 20.5514 4.85355L20.5402 4.85096L20.5353 4.84986L20.533 4.84937L20.5319 4.84913C20.5319 4.84913 20.5514 4.85355 20.5353 4.84986L20.5309 4.8489C20.125 4.76223 19.7278 5.02007 19.6437 5.42481C19.5611 5.82233 19.8113 6.21372 20.2049 6.30967C20.2116 6.31183 20.2297 6.31811 20.2562 6.33026C20.3098 6.35493 20.3955 6.40292 20.4897 6.48917C20.6647 6.64934 20.9329 6.99914 21.0144 7.75166C21.096 8.50419 20.9087 8.90018 20.7719 9.09198C20.6981 9.19527 20.6246 9.25941 20.5775 9.2943C20.5542 9.31149 20.5378 9.32127 20.5317 9.32474Z" fill="#4E5964"/>
<path d="M3.85152 10.1939C3.99386 9.81238 3.80622 9.38941 3.43176 9.23826C3.42545 9.23516 3.40843 9.22635 3.38413 9.21052C3.33486 9.17844 3.25744 9.11871 3.17742 9.01993C3.02884 8.83652 2.81717 8.45232 2.85153 7.69658C2.88589 6.94084 3.1316 6.5761 3.29626 6.40601C3.38494 6.31441 3.46748 6.26148 3.51947 6.23371C3.54511 6.22001 3.56287 6.21268 3.56944 6.21012C3.95616 6.09135 4.18147 5.68595 4.0743 5.29384C3.96519 4.89462 3.55277 4.66036 3.15313 4.7706L3.14877 4.77182C3.15313 4.7706 3.15208 4.77089 3.15208 4.77089L3.151 4.77119L3.14877 4.77182L3.14394 4.77319L3.13293 4.77644C3.12499 4.77883 3.11586 4.78168 3.10561 4.78504C3.08514 4.79176 3.06014 4.80053 3.03127 4.81171C2.9736 4.83405 2.89988 4.86626 2.81542 4.91138C2.64646 5.00164 2.43265 5.14464 2.21972 5.36459C1.78116 5.81762 1.40264 6.53851 1.35289 7.63283C1.30314 8.72715 1.61478 9.47739 2.01053 9.96591C2.20267 10.2031 2.40268 10.3637 2.56279 10.468C2.64283 10.5201 2.71334 10.5584 2.76876 10.5856C2.79651 10.5992 2.82062 10.61 2.8404 10.6185C2.8503 10.6227 2.85914 10.6263 2.86683 10.6293L2.87751 10.6335L2.88219 10.6353L2.88436 10.6361L2.88541 10.6365C2.88541 10.6365 2.88642 10.6369 2.87751 10.6335L2.88642 10.6369C3.27451 10.7806 3.7066 10.5823 3.85152 10.1939Z" fill="#4E5964"/>
</svg>
