<svg width="24" height="24" viewBox="0 0 24 24" fill="none" xmlns="http://www.w3.org/2000/svg">
<path fill-rule="evenodd" clip-rule="evenodd" d="M18.4286 8.64894C18.4286 4.97739 15.5499 2 12 2C8.45014 2 5.57143 4.97739 5.57143 8.64894V11.9787C5.57143 12.4096 5.33614 12.8019 4.96457 12.9947L4.31786 13.3285C3.51043 13.7473 3 14.6011 3 15.5346C3 16.8963 4.06714 18 5.38371 18H18.6163C19.9329 18 21 16.8963 21 15.5346C21 14.6011 20.4896 13.7473 19.6821 13.3298L19.0354 12.996C18.6639 12.8019 18.4286 12.4096 18.4286 11.9787V8.64894Z" fill="#4E5964"/>
<path d="M14 21C14 21 13.6667 22 12 22C10.3333 22 10 21 10 21M18.4286 8.64894C18.4286 4.97739 15.5499 2 12 2C8.45014 2 5.57143 4.97739 5.57143 8.64894V11.9787C5.57143 12.4096 5.33614 12.8019 4.96457 12.9947L4.31786 13.3285C3.51043 13.7473 3 14.6011 3 15.5346C3 16.8963 4.06714 18 5.38371 18H18.6163C19.9329 18 21 16.8963 21 15.5346C21 14.6011 20.4896 13.7473 19.6821 13.3298L19.0354 12.996C18.6639 12.8019 18.4286 12.4096 18.4286 11.9787V8.64894Z" stroke="#4E5964" stroke-width="1.5" stroke-linecap="round" stroke-linejoin="round"/>
<path d="M20.5405 4.52748C20.5405 4.52748 21.7008 4.86715 21.763 6.71865C21.8251 8.57014 20.6897 8.97107 20.6897 8.97107" stroke="#4E5964" stroke-width="1.5" stroke-linecap="round" stroke-linejoin="round"/>
<path d="M3.29708 4.52748C3.29708 4.52748 2.1368 4.86715 2.07463 6.71865C2.01245 8.57014 3.14786 8.97107 3.14786 8.97107" stroke="#4E5964" stroke-width="1.5" stroke-linecap="round" stroke-linejoin="round"/>
</svg>
