<svg width="24" height="24" viewBox="0 0 24 24" fill="none" xmlns="http://www.w3.org/2000/svg">
<path fill-rule="evenodd" clip-rule="evenodd" d="M18.4286 9.06449C18.4286 5.16348 15.5499 2 12 2C8.45014 2 5.57143 5.16348 5.57143 9.06449V12.6024C5.57143 13.0602 5.33614 13.477 4.96457 13.6818L4.31786 14.0365C3.51043 14.4816 3 15.3886 3 16.3805C3 17.8273 4.06714 19 5.38371 19H18.6163C19.9329 19 21 17.8273 21 16.3805C21 15.3886 20.4896 14.4816 19.6821 14.0379L19.0354 13.6833C18.6639 13.477 18.4286 13.0602 18.4286 12.6024V9.06449Z" fill="#00A881"/>
<path d="M14 21C14 21 13.6667 22 12 22C10.3333 22 10 21 10 21M18.4286 9.06449C18.4286 5.16348 15.5499 2 12 2C8.45014 2 5.57143 5.16348 5.57143 9.06449V12.6024C5.57143 13.0602 5.33614 13.477 4.96457 13.6818L4.31786 14.0365C3.51043 14.4815 3 15.3886 3 16.3805C3 17.8273 4.06714 19 5.38371 19H18.6163C19.9329 19 21 17.8273 21 16.3805C21 15.3886 20.4896 14.4816 19.6821 14.0379L19.0354 13.6833C18.6639 13.477 18.4286 13.0602 18.4286 12.6024V9.06449Z" stroke="#00A881" stroke-width="1.5" stroke-linecap="round" stroke-linejoin="round"/>
</svg>
