<svg width="24" height="24" viewBox="0 0 24 24" fill="none" xmlns="http://www.w3.org/2000/svg">
<path fill-rule="evenodd" clip-rule="evenodd" d="M18.4286 8.80915C18.4286 5.04914 15.5499 2 12 2C8.45014 2 5.57143 5.04914 5.57143 8.80915V12.2192C5.57143 12.6604 5.33614 13.0621 4.96457 13.2596L4.31786 13.6014C3.51043 14.0304 3 14.9047 3 15.8607C3 17.2552 4.06714 18.3855 5.38371 18.3855H18.6163C19.9329 18.3855 21 17.2552 21 15.8607C21 14.9047 20.4896 14.0304 19.6821 13.6028L19.0354 13.261C18.6639 13.0621 18.4286 12.6604 18.4286 12.2192V8.80915Z" fill="#00A881"/>
<path d="M4.0352 8.12065C4.41095 8.25999 4.604 8.66365 4.46724 9.03337C4.32783 9.41024 3.89855 9.60913 3.5084 9.47762L3.76081 8.79524C3.5084 9.47762 3.50738 9.47728 3.50738 9.47728L3.50634 9.47692L3.50418 9.47618L3.49954 9.47458L3.48901 9.47083C3.48145 9.46808 3.47279 9.46485 3.46313 9.46108C3.4438 9.45355 3.42037 9.44388 3.39344 9.43176C3.33967 9.40756 3.27144 9.37338 3.19401 9.32676C3.03915 9.23354 2.84549 9.08934 2.65849 8.8749C2.27257 8.43234 1.96693 7.75051 2.00194 6.75457C2.03695 5.75864 2.38992 5.09359 2.80625 4.67148C3.00797 4.46696 3.21141 4.33288 3.37254 4.24771C3.45311 4.20512 3.52362 4.17448 3.57899 4.15306C3.60672 4.14234 3.63079 4.13387 3.65061 4.12734C3.66052 4.12407 3.66939 4.12128 3.67714 4.11893L3.68791 4.11572L3.69265 4.11435L3.69486 4.11373L3.69593 4.11343C3.69593 4.11343 3.69696 4.11314 3.90096 4.80705L3.69696 4.11314C4.09565 4.00173 4.5102 4.22214 4.62288 4.60543C4.73343 4.98145 4.51238 5.37455 4.12751 5.49451C4.12166 5.49684 4.10726 5.50291 4.08671 5.51377C4.04147 5.53768 3.96854 5.58367 3.89023 5.66307C3.7465 5.8088 3.52482 6.12702 3.50142 6.7928C3.47801 7.45857 3.67695 7.78752 3.81019 7.94031C3.88278 8.02355 3.95235 8.07317 3.99582 8.09934C4.01557 8.11123 4.02953 8.11803 4.0352 8.12065Z" fill="#00A881"/>
<path d="M19.9656 8.12065C19.5898 8.25999 19.3968 8.66365 19.5335 9.03337C19.6729 9.41024 20.1022 9.60913 20.4924 9.47762L20.24 8.79524C20.4924 9.47762 20.4934 9.47728 20.4934 9.47728L20.4944 9.47692L20.4966 9.47618L20.5012 9.47458L20.5118 9.47083C20.5193 9.46808 20.528 9.46485 20.5376 9.46108C20.557 9.45355 20.5804 9.44388 20.6073 9.43176C20.6611 9.40756 20.7293 9.37338 20.8068 9.32676C20.9616 9.23354 21.1553 9.08934 21.3423 8.8749C21.7282 8.43234 22.0338 7.75051 21.9988 6.75457C21.9638 5.75864 21.6108 5.09359 21.1945 4.67148C20.9928 4.46696 20.7894 4.33288 20.6282 4.24771C20.5477 4.20512 20.4772 4.17448 20.4218 4.15306C20.3941 4.14234 20.37 4.13387 20.3502 4.12734C20.3402 4.12407 20.3314 4.12128 20.3236 4.11893L20.3129 4.11572L20.3081 4.11435L20.3059 4.11373L20.3048 4.11343C20.3048 4.11343 20.3038 4.11314 20.0998 4.80705L20.3038 4.11314C19.9051 4.00173 19.4906 4.22214 19.3779 4.60543C19.2673 4.98145 19.4884 5.37455 19.8733 5.49451C19.8791 5.49684 19.8935 5.50291 19.9141 5.51377C19.9593 5.53768 20.0322 5.58367 20.1105 5.66307C20.2543 5.8088 20.476 6.12702 20.4994 6.7928C20.5228 7.45857 20.3238 7.78752 20.1906 7.94031C20.118 8.02355 20.0484 8.07317 20.0049 8.09934C19.9852 8.11123 19.9712 8.11803 19.9656 8.12065Z" fill="#00A881"/>
<path d="M9.76283 19.6275C10.147 19.5041 10.5616 19.697 10.7023 20.0596C10.7046 20.0642 10.7097 20.0737 10.7181 20.0869C10.7402 20.1218 10.7848 20.1817 10.8631 20.2464C11.0069 20.3652 11.3294 20.5542 12 20.5542C12.6706 20.5542 12.9931 20.3652 13.1369 20.2464C13.2152 20.1817 13.2598 20.1218 13.2819 20.0869C13.2903 20.0737 13.2954 20.0642 13.2977 20.0596C13.4384 19.697 13.853 19.5041 14.2372 19.6275C14.6301 19.7537 14.8425 20.1631 14.7115 20.5419L14 20.3133C14.7115 20.5419 14.7112 20.5429 14.7112 20.5429L14.7108 20.5439L14.71 20.5461L14.7084 20.5507L14.7046 20.561C14.7018 20.5684 14.6986 20.5768 14.6949 20.5861C14.6873 20.6047 14.6778 20.6271 14.6658 20.6527C14.6418 20.7037 14.608 20.768 14.5618 20.8408C14.4694 20.9867 14.3265 21.1678 14.1131 21.3441C13.6736 21.7072 12.996 22 12 22C11.004 22 10.3264 21.7072 9.88691 21.3441C9.67353 21.1678 9.53063 20.9867 9.43816 20.8408C9.39198 20.768 9.35821 20.7037 9.33425 20.6527C9.32225 20.6271 9.31265 20.6047 9.30515 20.5861C9.30139 20.5768 9.29815 20.5684 9.29539 20.561L9.2916 20.5507L9.28996 20.5461L9.2892 20.5439L9.28884 20.5429C9.28884 20.5429 9.28849 20.5419 10 20.3133L9.28849 20.5419C9.1575 20.1631 9.36987 19.7537 9.76283 19.6275Z" fill="#00A881"/>
</svg>
