<svg width="24" height="24" viewBox="0 0 24 24" fill="none" xmlns="http://www.w3.org/2000/svg">
<path d="M3.76317 16.0531C3.76317 16.5046 3.87345 16.9289 4.06702 17.2972L2.21948 19.0792C1.92668 19.3616 1.92686 19.8193 2.21989 20.1015C2.51292 20.3837 2.98783 20.3835 3.28063 20.1011L20.5043 3.48818C20.7971 3.20576 20.7969 2.74805 20.5039 2.46585C20.2109 2.18365 19.7359 2.18383 19.4431 2.46625L17.6473 4.19841C16.4582 2.84591 14.7629 2 12.8816 2C9.28502 2 6.36843 5.09145 6.36843 8.90365V12.361C6.36843 12.8084 6.13005 13.2157 5.75359 13.4159L5.09837 13.7624C4.28031 14.1974 3.76317 15.0838 3.76317 16.0531Z" fill="#00ABB8"/>
<path d="M19.089 6.80764C19.2876 7.4687 19.3947 8.17294 19.3947 8.90365V12.361C19.3947 12.8084 19.6331 13.2157 20.0096 13.4173L20.6648 13.7638C21.4829 14.1974 22 15.0838 22 16.0531C22 17.4669 20.9188 18.6129 19.5849 18.6129H6.84973L19.089 6.80764Z" fill="#00ABB8"/>
<path d="M10.762 19.6275C11.1462 19.504 11.5608 19.6969 11.7016 20.0596C11.7039 20.0642 11.709 20.0737 11.7173 20.0869C11.7395 20.1218 11.784 20.1816 11.8623 20.2463C12.0062 20.3651 12.3286 20.5542 12.9993 20.5542C13.67 20.5542 13.9925 20.3651 14.1363 20.2463C14.2146 20.1816 14.2592 20.1218 14.2813 20.0869C14.2897 20.0737 14.2948 20.0642 14.2971 20.0596C14.4378 19.6969 14.8524 19.504 15.2367 19.6275C15.6296 19.7537 15.842 20.1631 15.711 20.5418L14.9995 20.3132C15.711 20.5418 15.7107 20.5429 15.7107 20.5429L15.7103 20.5439L15.7096 20.5461L15.7079 20.5507L15.7041 20.561C15.7014 20.5684 15.6981 20.5768 15.6944 20.5861C15.6869 20.6047 15.6773 20.6271 15.6653 20.6526C15.6413 20.7037 15.6075 20.768 15.5614 20.8408C15.4689 20.9866 15.326 21.1678 15.1126 21.344C14.673 21.7071 13.9954 22 12.9993 22C12.0032 22 11.3256 21.7071 10.8861 21.344C10.6727 21.1678 10.5298 20.9866 10.4373 20.8408C10.3911 20.768 10.3574 20.7037 10.3334 20.6526C10.3214 20.6271 10.3118 20.6047 10.3043 20.5861C10.3034 20.5839 10.3026 20.5818 10.3017 20.5797C10.2991 20.5729 10.2967 20.5667 10.2945 20.561L10.2907 20.5507L10.2891 20.5461L10.2883 20.5439L10.288 20.5429C10.288 20.5429 10.2876 20.5418 10.9992 20.3132L10.2876 20.5418C10.1566 20.1631 10.369 19.7537 10.762 19.6275Z" fill="#00ABB8"/>
</svg>
