<svg width="24" height="24" viewBox="0 0 24 24" fill="none" xmlns="http://www.w3.org/2000/svg">
<g clip-path="url(#clip0_11478_12389)">
<path d="M12 2.25C8.0579 2.25 4.82143 5.35546 4.82143 9.23338V12.3551C4.82143 12.4615 4.75896 12.5732 4.63647 12.6331L3.99119 12.9453L3.98983 12.946C2.9332 13.4599 2.25 14.5166 2.25 15.6887C2.25 17.4011 3.6749 18.75 5.38371 18.75H18.6163C20.3251 18.75 21.75 17.4011 21.75 15.6887C21.75 14.5168 21.0663 13.4593 20.0088 12.9466L19.3654 12.6352L19.3641 12.6346C19.2401 12.5733 19.1786 12.461 19.1786 12.3551V9.23338C19.1786 5.35546 15.9421 2.25 12 2.25Z" fill="#4E5964"/>
<path d="M9.76283 19.2885C10.147 19.1604 10.5616 19.3606 10.7023 19.7368C10.7046 19.7416 10.7097 19.7515 10.7181 19.7652C10.7402 19.8014 10.7848 19.8635 10.8631 19.9306C11.0069 20.0538 11.3294 20.25 12 20.25C12.6706 20.25 12.9931 20.0538 13.1369 19.9306C13.2152 19.8635 13.2598 19.8014 13.2819 19.7652C13.2903 19.7515 13.2954 19.7416 13.2977 19.7368C13.4384 19.3606 13.853 19.1604 14.2372 19.2885C14.6301 19.4195 14.8425 19.8442 14.7115 20.2372L14.7108 20.2393L14.71 20.2415L14.7084 20.2463L14.7046 20.257C14.7018 20.2647 14.6986 20.2734 14.6949 20.2831C14.6873 20.3024 14.6778 20.3256 14.6658 20.3521C14.6418 20.4051 14.608 20.4718 14.5618 20.5473C14.4694 20.6986 14.3265 20.8865 14.1131 21.0694C13.6736 21.4462 12.996 21.75 12 21.75C11.004 21.75 10.3264 21.4462 9.88691 21.0694C9.67353 20.8865 9.53063 20.6986 9.43816 20.5473C9.39198 20.4718 9.35821 20.4051 9.33425 20.3521C9.32225 20.3256 9.31265 20.3024 9.30515 20.2831C9.30139 20.2734 9.29815 20.2647 9.29539 20.257L9.2916 20.2463L9.28996 20.2415L9.2892 20.2393L9.28884 20.2382C9.28884 20.2382 9.28849 20.2831 9.28996 20.2415L9.28849 20.2372C9.1575 19.8442 9.36987 19.4195 9.76283 19.2885Z" fill="#4E5964"/>
</g>
<defs>
<clipPath id="clip0_11478_12389">
<rect width="24" height="24" fill="white"/>
</clipPath>
</defs>
</svg>
