<svg width="24" height="24" viewBox="0 0 24 24" fill="none" xmlns="http://www.w3.org/2000/svg">
<path d="M4.98549 7.74639C5.68773 4.59118 8.57856 2.25 12.0014 2.25C13.8969 2.25 15.6558 2.5874 17.0324 3.97035L17.5317 4.46967L17.5395 4.47756L19.5642 2.46771C19.8582 2.1759 20.3331 2.17766 20.6249 2.47163C20.9167 2.76561 20.9149 3.24048 20.621 3.53229L4.83979 19.1972L4.54896 19.5104C4.50338 19.5595 4.45276 19.6011 4.39864 19.6351L3.52875 20.4986C3.23478 20.7904 2.7599 20.7887 2.4681 20.4947C2.17629 20.2007 2.17804 19.7258 2.47202 19.434L3.66581 18.249C2.8184 17.7055 2.24982 16.7687 2.24982 15.6887C2.24982 14.6207 2.8172 13.6479 3.71828 13.0957C3.80615 13.0417 3.89719 12.9917 3.99118 12.946L3.99255 12.9453L4.63783 12.6331C4.6502 12.627 4.66195 12.6205 4.67309 12.6134C4.7721 12.5495 4.82125 12.4497 4.82125 12.3551V9.23338C4.82125 9.06941 4.82708 8.90664 4.83855 8.74527C4.85102 8.56989 4.87016 8.39622 4.89574 8.22448C4.91778 8.07648 4.9446 7.92996 4.97604 7.78506C4.97887 7.77202 4.98202 7.75912 4.98549 7.74639Z" fill="#4E5964"/>
<path d="M18.1453 7.20863C18.5467 7.12841 18.9383 7.38497 19.0251 7.78506C19.0566 7.92996 19.0834 8.07648 19.1054 8.22448C19.131 8.39621 19.1502 8.56989 19.1626 8.74527C19.1741 8.90664 19.1799 9.06941 19.1799 9.23338V12.3551C19.1799 12.461 19.2414 12.5733 19.3654 12.6346L19.3667 12.6352L20.0102 12.9466C21.0677 13.4593 21.7514 14.5168 21.7514 15.6887C21.7514 17.4011 20.3265 18.75 18.6176 18.75H7.86618C7.45197 18.75 7.11618 18.4142 7.11618 18C7.11618 17.5858 7.45197 17.25 7.86618 17.25H18.6176C19.542 17.25 20.2514 16.5294 20.2514 15.6887C20.2514 15.1104 19.9138 14.5671 19.3568 14.2968L18.7101 13.9839L18.7069 13.9823C18.0886 13.6794 17.6799 13.0566 17.6799 12.3551V9.24667L17.6655 8.83878C17.656 8.71026 17.642 8.58303 17.6236 8.45725L17.5544 8.07891C17.4808 7.67618 17.7438 7.28884 18.1453 7.20863Z" fill="#4E5964"/>
<path fill-rule="evenodd" clip-rule="evenodd" d="M20.5317 9.32474C20.1673 9.49756 20.0065 9.93064 20.1725 10.303C20.3415 10.682 20.7854 10.8546 21.1639 10.6883L21.1649 10.6879C21.1649 10.6879 21.2087 10.6883 21.2087 10.6672C21.2279 10.6576 21.2513 10.6454 21.2781 10.6302C21.3318 10.5999 21.3998 10.5574 21.4764 10.5007C21.6297 10.3873 21.8194 10.2152 21.9963 9.96726C22.3608 9.45651 22.6249 8.68952 22.5068 7.60029C22.3887 6.51107 21.9659 5.81375 21.4998 5.38724C21.2735 5.18016 21.0512 5.04992 20.8769 4.96969C20.7897 4.92959 20.7141 4.90175 20.6551 4.88282C20.6256 4.87335 20.6001 4.86606 20.5792 4.86055C20.5688 4.85779 20.5595 4.85548 20.5514 4.85355L20.5402 4.85096L20.5353 4.84986L20.533 4.84937L20.5319 4.84913L20.5309 4.8489C20.125 4.76223 19.7278 5.02007 19.6437 5.42481C19.5611 5.82233 19.8113 6.21372 20.2049 6.30967C20.2116 6.31183 20.2297 6.31811 20.2562 6.33026C20.3098 6.35493 20.3955 6.40292 20.4897 6.48917C20.6647 6.64934 20.9329 6.99914 21.0144 7.75166C21.096 8.50419 20.9087 8.90018 20.7719 9.09198C20.6981 9.19527 20.6246 9.25941 20.5775 9.2943C20.5542 9.31149 20.5378 9.32127 20.5317 9.32474ZM21.2087 10.6672C21.199 10.672 21.1905 10.6761 21.183 10.6796L21.1726 10.6844L21.168 10.6865L21.1659 10.6874L21.2087 10.6672Z" fill="#4E5964"/>
<path d="M3.43176 9.23826C3.80622 9.38941 3.99386 9.81238 3.85152 10.1939C3.7066 10.5823 3.27451 10.7806 2.88642 10.6369L2.86683 10.6293L2.88541 10.6365L2.88436 10.6361L2.88219 10.6353L2.87751 10.6335L2.86683 10.6293C2.85914 10.6263 2.8503 10.6227 2.8404 10.6185C2.82062 10.61 2.79651 10.5992 2.76876 10.5856C2.71334 10.5584 2.64283 10.5201 2.56279 10.468C2.40268 10.3637 2.20267 10.2031 2.01053 9.96591C1.61478 9.47739 1.30314 8.72715 1.35289 7.63283C1.40264 6.53851 1.78116 5.81762 2.21972 5.36459C2.43265 5.14464 2.64646 5.00164 2.81542 4.91138C2.89988 4.86626 2.9736 4.83405 3.03127 4.81171C3.06014 4.80053 3.08514 4.79176 3.10561 4.78504C3.11586 4.78168 3.12499 4.77883 3.13293 4.77644L3.14394 4.77319L3.14877 4.77182L3.151 4.77119L3.15208 4.77089L3.15313 4.7706C3.55277 4.66036 3.96519 4.89462 4.0743 5.29384C4.18147 5.68595 3.95616 6.09135 3.56944 6.21012C3.56287 6.21268 3.54511 6.22001 3.51947 6.23371C3.46748 6.26148 3.38494 6.31441 3.29626 6.40601C3.1316 6.5761 2.88589 6.94084 2.85153 7.69658C2.81717 8.45232 3.02884 8.83652 3.17742 9.01993C3.25744 9.11871 3.33486 9.17844 3.38413 9.21052C3.40843 9.22635 3.42545 9.23516 3.43176 9.23826Z" fill="#4E5964"/>
<path d="M10.7023 19.7368C10.5616 19.3606 10.147 19.1604 9.76283 19.2885C9.36987 19.4195 9.1575 19.8442 9.28849 20.2372L9.30515 20.2831C9.29539 20.257 9.28884 20.2382 9.28884 20.2382L9.2892 20.2393L9.28996 20.2415L9.2916 20.2463L9.29539 20.257C9.29815 20.2647 9.30139 20.2734 9.30515 20.2831C9.31265 20.3024 9.32225 20.3256 9.33425 20.3521C9.35821 20.4051 9.39198 20.4718 9.43816 20.5473C9.53063 20.6986 9.67353 20.8865 9.88691 21.0694C10.3264 21.4462 11.004 21.75 12 21.75C12.996 21.75 13.6736 21.4462 14.1131 21.0694C14.3265 20.8865 14.4694 20.6986 14.5618 20.5473C14.608 20.4718 14.6418 20.4051 14.6658 20.3521C14.6778 20.3256 14.6873 20.3024 14.6949 20.2831C14.6986 20.2734 14.7018 20.2647 14.7046 20.257L14.7084 20.2463L14.71 20.2415L14.7108 20.2393L14.7112 20.2382C14.7112 20.2382 14.7084 20.2463 14.71 20.2415L14.7115 20.2372C14.8425 19.8442 14.6301 19.4195 14.2372 19.2885C13.853 19.1604 13.4384 19.3606 13.2977 19.7368C13.2954 19.7416 13.2903 19.7515 13.2819 19.7652C13.2598 19.8014 13.2152 19.8635 13.1369 19.9306C12.9931 20.0538 12.6706 20.25 12 20.25C11.3294 20.25 11.0069 20.0538 10.8631 19.9306C10.7848 19.8635 10.7402 19.8014 10.7181 19.7652C10.7097 19.7515 10.7046 19.7416 10.7023 19.7368Z" fill="#4E5964"/>
</svg>
