<svg width="24" height="24" viewBox="0 0 24 24" fill="none" xmlns="http://www.w3.org/2000/svg">
<path fill-rule="evenodd" clip-rule="evenodd" d="M18.4286 8.80915C18.4286 5.04914 15.5499 2 12 2C8.45014 2 5.57143 5.04914 5.57143 8.80915V12.2192C5.57143 12.6604 5.33614 13.0621 4.96457 13.2596L4.31786 13.6014C3.51043 14.0304 3 14.9047 3 15.8607C3 17.2552 4.06714 18.3855 5.38371 18.3855H18.6163C19.9329 18.3855 21 17.2552 21 15.8607C21 14.9047 20.4896 14.0304 19.6821 13.6028L19.0354 13.261C18.6639 13.0621 18.4286 12.6604 18.4286 12.2192V8.80915Z" fill="#00ABB8"/>
<path d="M9.76283 19.6275C10.147 19.504 10.5616 19.6969 10.7023 20.0596C10.7046 20.0642 10.7097 20.0737 10.7181 20.0869C10.7402 20.1218 10.7848 20.1816 10.8631 20.2463C11.0069 20.3651 11.3294 20.5542 12 20.5542C12.6706 20.5542 12.9931 20.3651 13.1369 20.2463C13.2152 20.1816 13.2598 20.1218 13.2819 20.0869C13.2903 20.0737 13.2954 20.0642 13.2977 20.0596C13.4384 19.6969 13.853 19.504 14.2372 19.6275C14.6301 19.7537 14.8425 20.1631 14.7115 20.5419L14 20.3133C14.7115 20.5419 14.7112 20.5429 14.7112 20.5429L14.71 20.5461L14.7084 20.5507L14.7046 20.561C14.7018 20.5684 14.6986 20.5768 14.6949 20.5861C14.6873 20.6047 14.6777 20.6271 14.6658 20.6526C14.6418 20.7037 14.608 20.768 14.5618 20.8408C14.4694 20.9866 14.3265 21.1678 14.1131 21.344C13.6736 21.7072 12.996 22 12 22C11.004 22 10.3264 21.7072 9.88691 21.344C9.67353 21.1678 9.53063 20.9866 9.43816 20.8408C9.39198 20.768 9.35821 20.7037 9.33425 20.6526C9.32225 20.6271 9.31265 20.6047 9.30515 20.5861C9.30139 20.5768 9.29815 20.5684 9.29539 20.561L9.2916 20.5507L9.28996 20.5461L9.2892 20.5439L9.28884 20.5429C9.28884 20.5429 9.28849 20.5419 10 20.3133L9.28849 20.5419C9.1575 20.1631 9.36987 19.7537 9.76283 19.6275Z" fill="#00ABB8"/>
</svg>
