<svg width="24" height="24" viewBox="0 0 24 24" fill="none" xmlns="http://www.w3.org/2000/svg">
<path d="M14 21C14 21 13.6667 22 12 22C10.3333 22 10 21 10 21" stroke="#4E5964" stroke-width="1.5" stroke-linecap="round" stroke-linejoin="round"/>
<path fill-rule="evenodd" clip-rule="evenodd" d="M19.1429 8.48005V8.52793V12.2261C19.1429 12.7108 19.4043 13.1521 19.8171 13.3705L20.5357 13.746C21.4329 14.2158 22 15.1762 22 16.2264C22 17.7583 20.8143 19 19.3514 19H5.06066L18.5555 5.50521C18.9333 6.41697 19.1429 7.42294 19.1429 8.48005ZM17.8104 4.12896L3.31562 18.6237C2.52872 18.1429 2 17.2494 2 16.2264C2 15.1762 2.56714 14.2158 3.46429 13.7445L4.18286 13.369C4.59571 13.1521 4.85714 12.7108 4.85714 12.2261V8.52793V8.48005C4.85714 4.34957 8.05571 1 12 1C14.3946 1 16.5144 2.23458 17.8104 4.12896Z" fill="#4E5964"/>
<path d="M19 2L2 19" stroke="#4E5964" stroke-width="1.5" stroke-linecap="round" stroke-linejoin="round"/>
</svg>
