<svg width="24" height="24" viewBox="0 0 24 24" fill="none" xmlns="http://www.w3.org/2000/svg">
<path fill-rule="evenodd" clip-rule="evenodd" d="M18.4286 8.80915C18.4286 5.04914 15.5499 2 12 2C8.45014 2 5.57143 5.04914 5.57143 8.80915V12.2192C5.57143 12.6604 5.33614 13.0621 4.96457 13.2596L4.31786 13.6014C3.51043 14.0304 3 14.9047 3 15.8607C3 17.2552 4.06714 18.3855 5.38371 18.3855H18.6163C19.9329 18.3855 21 17.2552 21 15.8607C21 14.9047 20.4896 14.0304 19.6821 13.6028L19.0354 13.261C18.6639 13.0621 18.4286 12.6604 18.4286 12.2192V8.80915Z" fill="#00ABB8"/>
<path d="M4.0352 8.12062C4.41095 8.25996 4.604 8.66362 4.46724 9.03334C4.32783 9.4102 3.89855 9.6091 3.5084 9.47759L3.76081 8.79521C3.5084 9.47759 3.50738 9.47724 3.50738 9.47724L3.50634 9.47689L3.50418 9.47615L3.49954 9.47454L3.48901 9.47079C3.48145 9.46805 3.47279 9.46481 3.46313 9.46105C3.4438 9.45352 3.42037 9.44384 3.39344 9.43173C3.33967 9.40753 3.27144 9.37335 3.19401 9.32673C3.03915 9.23351 2.84549 9.0893 2.65849 8.87487C2.27257 8.43231 1.96693 7.75048 2.00194 6.75454C2.03695 5.75861 2.38992 5.09356 2.80625 4.67145C3.00797 4.46693 3.21141 4.33285 3.37254 4.24768C3.45311 4.20509 3.52362 4.17444 3.57899 4.15303C3.60672 4.1423 3.63079 4.13384 3.65061 4.12731C3.66052 4.12404 3.66939 4.12125 3.67714 4.1189L3.68791 4.11569L3.69265 4.11432L3.69486 4.11369L3.69593 4.1134C3.69593 4.1134 3.69696 4.1131 3.90096 4.80702L3.69696 4.1131C4.09565 4.0017 4.5102 4.22211 4.62288 4.6054C4.73343 4.98142 4.51238 5.37452 4.12751 5.49448C4.12166 5.49681 4.10726 5.50288 4.08671 5.51374C4.04147 5.53765 3.96854 5.58364 3.89023 5.66304C3.7465 5.80877 3.52482 6.12699 3.50142 6.79276C3.47801 7.45854 3.67695 7.78748 3.81019 7.94028C3.88278 8.02352 3.95235 8.07314 3.99582 8.09931C4.01557 8.1112 4.02953 8.11799 4.0352 8.12062Z" fill="#00ABB8"/>
<path d="M19.9656 8.12062C19.5898 8.25996 19.3968 8.66362 19.5335 9.03334C19.6729 9.4102 20.1022 9.6091 20.4924 9.47759L20.24 8.79521C20.4924 9.47759 20.4934 9.47724 20.4934 9.47724L20.4944 9.47689L20.4966 9.47615L20.5012 9.47454L20.5118 9.47079C20.5193 9.46805 20.528 9.46481 20.5376 9.46105C20.557 9.45352 20.5804 9.44384 20.6073 9.43173C20.6611 9.40753 20.7293 9.37335 20.8068 9.32673C20.9616 9.23351 21.1553 9.0893 21.3423 8.87487C21.7282 8.43231 22.0338 7.75048 21.9988 6.75454C21.9638 5.75861 21.6108 5.09356 21.1945 4.67145C20.9928 4.46693 20.7894 4.33285 20.6282 4.24768C20.5477 4.20509 20.4772 4.17444 20.4218 4.15303C20.3941 4.1423 20.37 4.13384 20.3502 4.12731C20.3402 4.12404 20.3314 4.12125 20.3236 4.1189L20.3129 4.11569L20.3081 4.11432L20.3059 4.11369L20.3048 4.1134C20.3048 4.1134 20.3038 4.1131 20.0998 4.80702L20.3038 4.1131C19.9051 4.0017 19.4906 4.22211 19.3779 4.6054C19.2673 4.98142 19.4884 5.37452 19.8733 5.49448C19.8791 5.49681 19.8935 5.50288 19.9141 5.51374C19.9593 5.53765 20.0322 5.58364 20.1105 5.66304C20.2543 5.80877 20.476 6.12699 20.4994 6.79276C20.5228 7.45854 20.3238 7.78748 20.1906 7.94028C20.118 8.02352 20.0484 8.07314 20.0049 8.09931C19.9852 8.1112 19.9712 8.11799 19.9656 8.12062Z" fill="#00ABB8"/>
<path d="M9.76283 19.6275C10.147 19.504 10.5616 19.6969 10.7023 20.0596C10.7046 20.0642 10.7097 20.0737 10.7181 20.0869C10.7402 20.1218 10.7848 20.1816 10.8631 20.2463C11.0069 20.3651 11.3294 20.5542 12 20.5542C12.6706 20.5542 12.9931 20.3651 13.1369 20.2463C13.2152 20.1816 13.2598 20.1218 13.2819 20.0869C13.2903 20.0737 13.2954 20.0642 13.2977 20.0596C13.4384 19.6969 13.853 19.504 14.2372 19.6275C14.6301 19.7537 14.8425 20.1631 14.7115 20.5419L14 20.3133C14.7115 20.5419 14.7112 20.5429 14.7112 20.5429L14.71 20.5461L14.7084 20.5507L14.7046 20.561C14.7018 20.5684 14.6986 20.5768 14.6949 20.5861C14.6873 20.6047 14.6778 20.6271 14.6658 20.6526C14.6418 20.7037 14.608 20.768 14.5618 20.8408C14.4694 20.9866 14.3265 21.1678 14.1131 21.344C13.6736 21.7071 12.996 22 12 22C11.004 22 10.3264 21.7071 9.88691 21.344C9.67353 21.1678 9.53063 20.9866 9.43816 20.8408C9.39198 20.768 9.35821 20.7037 9.33425 20.6526C9.32225 20.6271 9.31265 20.6047 9.30515 20.5861C9.30139 20.5768 9.29815 20.5684 9.29539 20.561L9.2916 20.5507L9.28996 20.5461L9.2892 20.5439L9.28884 20.5429C9.28884 20.5429 9.28849 20.5419 10 20.3133L9.28849 20.5419C9.1575 20.1631 9.36987 19.7537 9.76283 19.6275Z" fill="#00ABB8"/>
</svg>
