<svg width="24" height="24" viewBox="0 0 24 24" fill="none" xmlns="http://www.w3.org/2000/svg">
<path d="M11.4531 14.7158C11.5498 15.0093 11.7089 15.2734 11.9131 15.4961L11.5195 16.1777C11.098 15.7853 10.8028 15.2772 10.6719 14.7158H11.4531Z" fill="#4E5964"/>
<path d="M16.3281 14.7158C16.1972 15.2774 15.9012 15.7852 15.4795 16.1777L15.0859 15.4971C15.2908 15.2741 15.4509 15.01 15.5479 14.7158H16.3281Z" fill="#4E5964"/>
<path d="M13.501 13.1973C13.9669 13.1975 14.3447 13.575 14.3447 14.041C14.3447 14.507 13.9669 14.8845 13.501 14.8848C13.0348 14.8848 12.6572 14.5071 12.6572 14.041C12.6572 13.5749 13.0349 13.1973 13.501 13.1973Z" fill="#4E5964"/>
<path d="M12.6523 11.2451C13.2035 11.0758 13.7916 11.0761 14.3428 11.2451L13.9473 11.9316C13.8032 11.9013 13.654 11.8848 13.501 11.8848C13.3463 11.8848 13.1952 11.9017 13.0498 11.9326L12.6523 11.2451Z" fill="#4E5964"/>
<path fill-rule="evenodd" clip-rule="evenodd" d="M15.9502 5.25C17.4994 5.25 18.8337 6.34326 19.1377 7.8623L21.6152 20.251H22L22.0762 20.2549C22.4544 20.2932 22.7499 20.6127 22.75 21.001C22.75 21.3894 22.4544 21.7087 22.0762 21.7471L22 21.751H1.99805C1.5838 21.751 1.24805 21.4152 1.24805 21.001C1.24818 20.5868 1.58388 20.251 1.99805 20.251H2.35059L3.65234 11.1816C3.81135 10.0739 4.75982 9.25114 5.87891 9.25098H6.75C7.04431 9.25098 7.328 9.31555 7.58496 9.43359L7.87695 7.89551L7.94336 7.6123C8.33603 6.22605 9.60626 5.25 11.0703 5.25H15.9502ZM5.87891 10.751C5.50597 10.7511 5.18971 11.0253 5.13672 11.3945L3.86523 20.251H5.38965L6.84375 13.3457L7.25586 11.166L7.21191 11.0586C7.13425 10.8723 6.95182 10.751 6.75 10.751H5.87891ZM14.5322 9.93359C13.854 9.76107 13.1431 9.76116 12.4648 9.93359L12.1289 10.0342L12.1104 10.041C11.8096 10.1551 11.5661 10.3799 11.4287 10.667L11.376 10.7939C11.2548 11.1411 11.2935 11.5247 11.4814 11.8408L11.4824 11.8398L11.9111 12.5859C11.6988 12.8178 11.5357 13.0954 11.4404 13.4033H10.5908C10.2597 13.4056 9.94471 13.5393 9.71289 13.7705L9.61816 13.875C9.38192 14.1707 9.29209 14.558 9.37305 14.9277L9.37402 14.9268C9.56324 15.8237 10.0395 16.6349 10.7314 17.2363L10.7451 17.248L10.8555 17.3291C11.1227 17.5032 11.4487 17.5693 11.7656 17.5098C12.1249 17.4421 12.4363 17.2197 12.6172 16.9023L13.0508 16.1494C13.1959 16.1802 13.3467 16.1973 13.501 16.1973C13.6544 16.1972 13.8039 16.1799 13.9482 16.1494L14.3828 16.9023C14.5637 17.2198 14.875 17.4421 15.2344 17.5098C15.5963 17.5777 15.9703 17.4817 16.2549 17.248L16.2695 17.2363L16.5186 17.001C17.0758 16.4307 17.4604 15.7114 17.626 14.9268L17.627 14.9277C17.6978 14.6042 17.6374 14.2674 17.4629 13.9902L17.3818 13.875L17.2871 13.7705C17.0886 13.5724 16.8293 13.4456 16.5508 13.4121L16.4092 13.4033H15.5605C15.4648 13.0938 15.2999 12.8156 15.0859 12.583L15.5195 11.833L15.5186 11.832C15.6792 11.5572 15.7287 11.233 15.6582 10.9258L15.6201 10.7939L15.5684 10.667C15.4506 10.4209 15.2546 10.2199 15.0117 10.0957L14.8867 10.041L14.8682 10.0342L14.5322 9.93359Z" fill="#4E5964"/>
<path d="M11 2.75C11.3882 2.75 11.7075 3.04485 11.7461 3.42285L11.75 3.5V4C11.7499 4.41413 11.4142 4.75 11 4.75C10.5858 4.75 10.2501 4.41413 10.25 4V3.5C10.25 3.08575 10.5858 2.75 11 2.75Z" fill="#4E5964"/>
<path d="M14 2.25C14.3882 2.25 14.7075 2.54485 14.7461 2.92285L14.75 3V4C14.7499 4.41413 14.4142 4.75 14 4.75C13.5858 4.75 13.2501 4.41413 13.25 4V3C13.25 2.58575 13.5858 2.25 14 2.25Z" fill="#4E5964"/>
<path d="M17 2.75C17.4142 2.75 17.75 3.08575 17.75 3.5V4C17.7499 4.41413 17.4142 4.75 17 4.75C16.5858 4.75 16.2501 4.41413 16.25 4V3.5C16.25 3.08575 16.5858 2.75 17 2.75Z" fill="#4E5964"/>
</svg>
