<svg width="24" height="24" viewBox="0 0 24 24" fill="none" xmlns="http://www.w3.org/2000/svg">
<path fill-rule="evenodd" clip-rule="evenodd" d="M8.24414 13.1113C8.24414 12.9119 8.08225 12.75 7.88281 12.75H7.10547C6.90603 12.75 6.74414 12.9119 6.74414 13.1113V14.8887C6.74414 15.0881 6.90603 15.25 7.10547 15.25H7.88281C8.08225 15.25 8.24414 15.0881 8.24414 14.8887V13.1113Z" fill="#4E5964"/>
<path fill-rule="evenodd" clip-rule="evenodd" d="M21.7441 12C21.7441 17.3848 17.3789 21.75 11.9941 21.75C6.60936 21.75 2.24414 17.3848 2.24414 12C2.24414 6.61522 6.60936 2.25 11.9941 2.25C17.3789 2.25 21.7441 6.61522 21.7441 12ZM10.2441 12V16C10.2441 16.4142 10.5799 16.75 10.9941 16.75C11.4084 16.75 11.7441 16.4142 11.7441 16V14.9404H13.5703C13.9845 14.9404 14.3203 14.6046 14.3203 14.1904C14.3203 13.7763 13.9845 13.4404 13.5703 13.4404H11.7441V12.75H13.9941C14.4084 12.75 14.7441 12.4142 14.7441 12C14.7441 11.5858 14.4084 11.25 13.9941 11.25H10.9941C10.5799 11.25 10.2441 11.5858 10.2441 12ZM15.2441 12V16C15.2441 16.4142 15.5799 16.75 15.9941 16.75C16.4084 16.75 16.7441 16.4142 16.7441 16V14.9404H18.5703C18.9845 14.9404 19.3203 14.6046 19.3203 14.1904C19.3203 13.7763 18.9845 13.4404 18.5703 13.4404H16.7441V12.75H18.9941C19.4084 12.75 19.7441 12.4142 19.7441 12C19.7441 11.5858 19.4084 11.25 18.9941 11.25H15.9941C15.5799 11.25 15.2441 11.5858 15.2441 12ZM11.2441 6V9C11.2441 9.41421 11.5799 9.75 11.9941 9.75C12.4084 9.75 12.7441 9.41421 12.7441 9V6C12.7441 5.58579 12.4084 5.25 11.9941 5.25C11.5799 5.25 11.2441 5.58579 11.2441 6ZM7.88281 16.75C8.91068 16.75 9.74414 15.9165 9.74414 14.8887V13.1113C9.74414 12.0835 8.91068 11.25 7.88281 11.25H7.10547C6.07761 11.25 5.24414 12.0835 5.24414 13.1113V14.8887C5.24414 15.9165 6.07761 16.75 7.10547 16.75H7.88281Z" fill="#4E5964"/>
</svg>
