<svg width="24" height="24" viewBox="0 0 24 24" fill="none" xmlns="http://www.w3.org/2000/svg">
<path d="M12 2.25C12.414 2.25024 12.75 2.58593 12.75 3V3.31445L15.626 3.33203C15.7215 3.33262 15.8167 3.35261 15.9043 3.39062C17.9473 4.27442 19.622 5.82522 20.6416 7.78418C21.6612 9.7434 21.9631 11.9905 21.4961 14.1445C21.029 16.2982 19.8216 18.2254 18.0811 19.6025C16.3405 20.9795 14.1717 21.7231 11.9414 21.71C9.71115 21.6967 7.55182 20.9277 5.82812 19.5303C4.1042 18.1324 2.92016 16.1906 2.47949 14.0312C2.03887 11.8716 2.36932 9.62867 3.41309 7.68164C4.45675 5.73498 6.14932 4.20406 8.20312 3.34473C8.29111 3.30818 8.38617 3.28906 8.48145 3.28906L11.25 3.30566V3C11.25 2.58586 11.5859 2.25011 12 2.25ZM6.86133 10.5C5.83346 10.5 5 11.3335 5 12.3613V15.1387C5 16.1665 5.83346 17 6.86133 17H7.97266C9.00032 16.9998 9.83301 16.1664 9.83301 15.1387V12.3613C9.83301 11.3336 9.00032 10.5002 7.97266 10.5H6.86133ZM10.7822 10.5C10.3682 10.5002 10.0322 10.8359 10.0322 11.25V16.25C10.0322 16.6641 10.3682 16.9998 10.7822 17C11.1964 17 11.5322 16.6642 11.5322 16.25V14.5H13.4219C13.8361 14.5 14.1719 14.1642 14.1719 13.75C14.1719 13.3358 13.8361 13 13.4219 13H11.5322V12H14.1162C14.5303 11.9999 14.8662 11.6641 14.8662 11.25C14.8662 10.8359 14.5303 10.5001 14.1162 10.5H10.7822ZM15.8174 10.5C15.4033 10.5001 15.0674 10.8359 15.0674 11.25V16.25C15.0674 16.6641 15.4033 16.9999 15.8174 17C16.2316 17 16.5674 16.6642 16.5674 16.25V14.5H18.4551C18.8693 14.5 19.2051 14.1642 19.2051 13.75C19.2051 13.3358 18.8693 13 18.4551 13H16.5674V12H19.1514C19.5654 11.9998 19.9014 11.6641 19.9014 11.25C19.9014 10.8359 19.5654 10.5002 19.1514 10.5H15.8174ZM7.97266 12C8.17189 12.0002 8.33301 12.162 8.33301 12.3613V15.1387C8.33301 15.338 8.17189 15.4998 7.97266 15.5H6.86133C6.66189 15.5 6.5 15.3381 6.5 15.1387V12.3613C6.5 12.1619 6.66189 12 6.86133 12H7.97266ZM11.25 6.5C11.25 6.91414 11.5859 7.24989 12 7.25C12.414 7.24976 12.75 6.91407 12.75 6.5V4.73535L11.25 4.72656V6.5Z" fill="#4E5964"/>
</svg>
