<svg width="24" height="24" viewBox="0 0 24 24" fill="none" xmlns="http://www.w3.org/2000/svg">
<path d="M8.05935 11.0996C8.27261 11.0996 8.42287 11.147 8.50955 11.2402C8.60288 11.3269 8.65017 11.4771 8.65017 11.6904V14.7402C8.65014 14.9534 8.60285 15.1069 8.50955 15.2002C8.42283 15.2866 8.27242 15.3301 8.05935 15.3301H7.34939C7.13662 15.33 6.9868 15.2866 6.90017 15.2002C6.8136 15.1069 6.76935 14.9534 6.76931 14.7402V11.6904C6.76931 11.4772 6.81358 11.3269 6.90017 11.2402C6.98677 11.147 7.13643 11.0997 7.34939 11.0996H8.05935Z" fill="#4E5964"/>
<path fill-rule="evenodd" clip-rule="evenodd" d="M11.9998 2.25C12.414 2.25 12.7498 2.58579 12.7498 3V3.31445L15.6265 3.33212C15.722 3.33271 15.8164 3.35261 15.9041 3.39062C17.9473 4.27439 19.6217 5.8251 20.6414 7.78418C21.6611 9.74347 21.9629 11.9904 21.4959 14.1445C21.0288 16.2983 19.8215 18.2254 18.0808 19.6025C16.3401 20.9796 14.1716 21.7232 11.9412 21.71C9.71082 21.6967 7.55165 20.9279 5.82791 19.5303C4.10396 18.1324 2.91992 16.1907 2.47927 14.0312C2.03865 11.8716 2.3691 9.62867 3.41287 7.68164C4.45653 5.73489 6.14904 4.20409 8.20291 3.34473C8.291 3.30808 8.38582 3.28906 8.48123 3.28906L11.2498 3.30566V3C11.2498 2.58586 11.5857 2.25011 11.9998 2.25ZM7.15017 10C6.62361 10 6.2161 10.14 5.92947 10.4199C5.64298 10.6999 5.4998 11.1034 5.49978 11.6299V14.7998C5.49978 15.3262 5.64306 15.7298 5.92947 16.0098C6.2161 16.2897 6.62361 16.4297 7.15017 16.4297H8.26931C8.79591 16.4297 9.20336 16.2897 9.49002 16.0098C9.77653 15.7298 9.9197 15.3263 9.9197 14.7998V11.6299C9.91968 11.1033 9.77661 10.6999 9.49002 10.4199C9.20336 10.14 8.79591 10 8.26931 10H7.15017ZM11.3269 10C11.1874 10.0002 11.117 10.0702 11.117 10.21V16.2197C11.117 16.3595 11.1874 16.4295 11.3269 16.4297H12.1775C12.3174 16.4296 12.3875 16.3597 12.3875 16.2197V14.0898C12.3875 14.0167 12.4278 13.9805 12.5076 13.9805H14.2176C14.3574 13.9804 14.4275 13.9064 14.4275 13.7598V13.0898C14.4275 12.95 14.3574 12.8799 14.2176 12.8799H12.5076C12.4277 12.8798 12.3875 12.8397 12.3875 12.7598V11.21C12.3875 11.1367 12.4277 11.0997 12.5076 11.0996H14.5174C14.6507 11.0996 14.7176 11.0296 14.7176 10.8896V10.21C14.7175 10.07 14.6507 10 14.5174 10H11.3269ZM15.8289 10C15.6893 10.0002 15.6189 10.0702 15.6189 10.21V16.2197C15.6189 16.3595 15.6893 16.4295 15.8289 16.4297H16.6795C16.8194 16.4296 16.8894 16.3597 16.8894 16.2197V14.0898C16.8895 14.0167 16.9297 13.9805 17.0095 13.9805H18.7195C18.8594 13.9804 18.9295 13.9064 18.9295 13.7598V13.0898C18.9294 12.95 18.8593 12.8799 18.7195 12.8799H17.0095C16.9297 12.8798 16.8894 12.8397 16.8894 12.7598V11.21C16.8894 11.1367 16.9297 11.0997 17.0095 11.0996H19.0193C19.1526 11.0996 19.2195 11.0296 19.2195 10.8896V10.21C19.2195 10.07 19.1526 10 19.0193 10H15.8289ZM11.2498 6.5C11.2498 6.91414 11.5857 7.24989 11.9998 7.25C12.414 7.25 12.7498 6.91421 12.7498 6.5V4.73535L11.2498 4.72656V6.5Z" fill="#4E5964"/>
</svg>
