<svg width="24" height="25" viewBox="0 0 24 25" fill="none" xmlns="http://www.w3.org/2000/svg">
<path fill-rule="evenodd" clip-rule="evenodd" d="M12.749 3.27588C12.749 2.86167 12.4132 2.52588 11.999 2.52588C11.5848 2.52588 11.249 2.86167 11.249 3.27588V3.58226L8.50148 3.56593C8.39258 3.56529 8.28394 3.5866 8.18234 3.62937C6.13758 4.49032 4.45272 6.01742 3.4125 7.9578C2.36871 9.90484 2.03875 12.1475 2.47937 14.3072C2.91997 16.4668 4.10349 18.4085 5.82752 19.8065C7.55131 21.2042 9.7105 21.9734 11.941 21.9867C14.1715 21.9999 16.3399 21.2565 18.0807 19.8793C19.8217 18.5021 21.0289 16.5746 21.496 14.4205C21.9631 12.2662 21.6607 10.0198 20.6409 8.06037C19.6245 6.10769 17.9584 4.56061 15.9243 3.67539C15.8233 3.6314 15.7149 3.60879 15.6059 3.60815L12.749 3.59117V3.27588ZM12.749 3.59117L11.249 3.58226V6.77588C11.249 7.19009 11.5848 7.52588 11.999 7.52588C12.4132 7.52588 12.749 7.19009 12.749 6.77588V3.59117ZM11.9049 9.53058C11.9319 9.52764 11.9593 9.52612 11.9871 9.52612H13.9986C14.4128 9.52612 14.7486 9.86191 14.7486 10.2761C14.7486 10.6903 14.4128 11.0261 13.9986 11.0261H12.5749V12.0583H14.0921C14.5063 12.0583 14.8421 12.3941 14.8421 12.8083C14.8421 13.2226 14.5063 13.5583 14.0921 13.5583H12.5749V14.7764C12.5749 15.1906 12.2391 15.5264 11.8249 15.5264C11.4107 15.5264 11.0749 15.1906 11.0749 14.7764V10.2764C11.0749 9.86215 11.4107 9.52637 11.8249 9.52637C11.8519 9.52637 11.8786 9.5278 11.9049 9.53058ZM16.5222 9.52612C15.8125 9.52612 15.2371 10.1015 15.2371 10.8112V14.7761C15.2371 15.1903 15.5729 15.5261 15.9871 15.5261C16.4014 15.5261 16.7371 15.1903 16.7371 14.7761V13.5583H18.0921C18.5063 13.5583 18.8421 13.2226 18.8421 12.8083C18.8421 12.3941 18.5063 12.0583 18.0921 12.0583H16.7371V11.0261H17.9986C18.4128 11.0261 18.7486 10.6903 18.7486 10.2761C18.7486 9.86191 18.4128 9.52612 17.9986 9.52612H16.5222ZM7.84902 11.5806C7.24151 11.5806 6.74902 12.0731 6.74902 12.6806C6.74902 13.2881 7.24151 13.7806 7.84902 13.7806C8.45654 13.7806 8.94902 13.2881 8.94902 12.6806C8.94902 12.0731 8.45654 11.5806 7.84902 11.5806ZM5.24902 12.6806C5.24902 11.2446 6.41308 10.0806 7.84902 10.0806C9.28496 10.0806 10.449 11.2446 10.449 12.6806C10.449 14.1165 9.28496 15.2806 7.84902 15.2806C6.41308 15.2806 5.24902 14.1165 5.24902 12.6806Z" fill="#4E5964"/>
</svg>
