<svg width="24" height="24" viewBox="0 0 24 24" fill="none" xmlns="http://www.w3.org/2000/svg">
<path d="M21.75 12C21.75 17.3848 17.3848 21.75 12 21.75C6.61522 21.75 2.25 17.3848 2.25 12C2.25 6.61522 6.61522 2.25 12 2.25C17.3848 2.25 21.75 6.61522 21.75 12ZM8.54883 7.40039C7.15429 8.44819 6.25 10.1186 6.25 12C6.25 15.1756 8.82436 17.75 12 17.75C15.1756 17.75 17.75 15.1756 17.75 12C17.75 10.1186 16.8457 8.44819 15.4512 7.40039C15.12 7.15158 14.6492 7.21864 14.4004 7.5498C14.152 7.8809 14.2189 8.35089 14.5498 8.59961C15.5835 9.37627 16.25 10.6102 16.25 12C16.25 14.3472 14.3472 16.25 12 16.25C9.65279 16.25 7.75 14.3472 7.75 12C7.75 10.6102 8.41646 9.37627 9.4502 8.59961C9.78111 8.35089 9.84801 7.8809 9.59961 7.5498C9.3508 7.21864 8.87999 7.15158 8.54883 7.40039ZM11.25 6V10C11.25 10.4142 11.5858 10.75 12 10.75C12.4142 10.75 12.75 10.4142 12.75 10V6C12.75 5.58579 12.4142 5.25 12 5.25C11.5858 5.25 11.25 5.58579 11.25 6Z" fill="#4E5964"/>
</svg>
