<svg width="24" height="24" viewBox="0 0 24 24" fill="none" xmlns="http://www.w3.org/2000/svg">
<path d="M12.749 4.0332C17.3692 4.41377 21 8.28161 21 13C21 17.9706 16.9706 22 12 22C7.02961 21.9998 3 17.9704 3 13C3 8.28253 6.63011 4.41505 11.249 4.0332V8C11.249 8.41421 11.5848 8.75 11.999 8.75C12.4131 8.74989 12.749 8.41414 12.749 8V4.0332ZM11.999 2.25C12.4131 2.25011 12.749 2.58586 12.749 3V4.0332C12.5021 4.01286 12.2522 4 12 4C11.747 4.00001 11.4967 4.01273 11.249 4.0332V3C11.249 2.58579 11.5848 2.25 11.999 2.25Z" fill="#4E5964"/>
</svg>
