<svg width="24" height="25" viewBox="0 0 24 25" fill="none" xmlns="http://www.w3.org/2000/svg">
<path fill-rule="evenodd" clip-rule="evenodd" d="M8.18234 3.62889C8.28394 3.58611 8.39258 3.5648 8.50148 3.56544L15.6059 3.60766C15.7149 3.60831 15.8233 3.63091 15.9243 3.67491C17.9584 4.56012 19.6245 6.1072 20.6409 8.05988C21.6607 10.0193 21.9631 12.2657 21.496 14.42C21.0289 16.5741 19.8217 18.5016 18.0807 19.8789C16.3399 21.256 14.1715 21.9994 11.941 21.9862C9.7105 21.9729 7.55131 21.2037 5.82752 19.806C4.10349 18.408 2.91997 16.4663 2.47937 14.3067C2.03875 12.147 2.36871 9.90436 3.4125 7.95731C4.45272 6.01693 6.13758 4.48984 8.18234 3.62889ZM11.999 2.52588C12.4132 2.52588 12.749 2.86167 12.749 3.27588V6.77588C12.749 7.19009 12.4132 7.52588 11.999 7.52588C11.5848 7.52588 11.249 7.19009 11.249 6.77588V3.27588C11.249 2.86167 11.5848 2.52588 11.999 2.52588ZM16.999 9.52588C17.4132 9.52588 17.749 9.86167 17.749 10.2759V14.6436C17.749 15.3795 16.8395 15.7253 16.3506 15.1753L13.749 12.2485V14.7759C13.749 15.1901 13.4132 15.5259 12.999 15.5259C12.5848 15.5259 12.249 15.1901 12.249 14.7759V10.6592C12.249 9.83557 13.2671 9.44851 13.8143 10.0641L16.249 12.8032V10.2759C16.249 9.86167 16.5848 9.52588 16.999 9.52588ZM8.84902 12.0259C8.24151 12.0259 7.74902 12.5184 7.74902 13.1259C7.74902 13.7334 8.24151 14.2259 8.84902 14.2259C9.45654 14.2259 9.94902 13.7334 9.94902 13.1259C9.94902 12.5184 9.45654 12.0259 8.84902 12.0259ZM6.24902 13.1259C6.24902 11.6899 7.41308 10.5259 8.84902 10.5259C10.285 10.5259 11.449 11.6899 11.449 13.1259C11.449 14.5618 10.285 15.7259 8.84902 15.7259C7.41308 15.7259 6.24902 14.5618 6.24902 13.1259Z" fill="#4E5964"/>
</svg>
