<svg width="24" height="24" viewBox="0 0 24 24" fill="none" xmlns="http://www.w3.org/2000/svg">
<path d="M12 2.25C12.414 2.25024 12.75 2.58593 12.75 3V3.31445L15.4229 3.33105C15.6499 3.33246 15.8844 3.37793 16.1055 3.47949C18.0574 4.37638 19.6556 5.88973 20.6416 7.78418C21.6613 9.74344 21.9631 11.9905 21.4961 14.1445C21.029 16.2983 19.8217 18.2254 18.0811 19.6025C16.3404 20.9796 14.1718 21.7231 11.9414 21.71C9.71109 21.6967 7.55184 20.9278 5.82812 19.5303C4.10419 18.1324 2.92015 16.1907 2.47949 14.0312C2.03887 11.8716 2.36932 9.62867 3.41309 7.68164C4.42233 5.79914 6.03824 4.30519 8.00098 3.43164C8.22327 3.33278 8.45845 3.28967 8.68555 3.29102L11.25 3.30566V3C11.25 2.58579 11.5858 2.25 12 2.25ZM8.70508 10C7.67722 10 6.84376 10.8335 6.84375 11.8613V14.6387C6.84375 15.6665 7.67721 16.5 8.70508 16.5H9.81641C10.8441 16.4998 11.6768 15.6664 11.6768 14.6387V11.8613C11.6767 10.8336 10.8441 10.0002 9.81641 10H8.70508ZM16.2607 10C15.8467 10.0002 15.5108 10.3359 15.5107 10.75V13.2725L13.5518 10.334C13.3684 10.059 13.0263 9.93646 12.71 10.0322C12.3939 10.1281 12.1777 10.4197 12.1777 10.75V15.75C12.1777 16.1642 12.5135 16.5 12.9277 16.5C13.3419 16.5 13.6777 16.1642 13.6777 15.75V13.2266L15.6367 16.166C15.82 16.441 16.1622 16.5635 16.4785 16.4678C16.7948 16.372 17.0107 16.0805 17.0107 15.75V10.75C17.0107 10.3358 16.6749 10 16.2607 10ZM9.81641 11.5C10.0156 11.5002 10.1767 11.662 10.1768 11.8613V14.6387C10.1768 14.838 10.0156 14.9998 9.81641 15H8.70508C8.50564 15 8.34375 14.8381 8.34375 14.6387V11.8613C8.34376 11.6619 8.50565 11.5 8.70508 11.5H9.81641ZM11.25 6.5C11.25 6.91421 11.5858 7.25 12 7.25C12.414 7.24976 12.75 6.91407 12.75 6.5V4.73535L11.25 4.72656V6.5Z" fill="#4E5964"/>
</svg>
