<svg width="24" height="24" viewBox="0 0 24 24" fill="none" xmlns="http://www.w3.org/2000/svg">
<path d="M21.7441 12C21.7441 17.3848 17.3789 21.75 11.9941 21.75C6.60936 21.75 2.24414 17.3848 2.24414 12C2.24414 6.61522 6.60936 2.25 11.9941 2.25C17.3789 2.25 21.7441 6.61522 21.7441 12ZM12.2441 12V16C12.2441 16.4142 12.5799 16.75 12.9941 16.75C13.4084 16.75 13.7441 16.4142 13.7441 16V14.249L15.3945 16.4502C15.5883 16.7082 15.9253 16.814 16.2314 16.7119C16.5377 16.6098 16.7441 16.3228 16.7441 16V12C16.7441 11.5858 16.4084 11.25 15.9941 11.25C15.5799 11.25 15.2441 11.5858 15.2441 12V13.75L13.5938 11.5498C13.4 11.2918 13.063 11.186 12.7568 11.2881C12.4506 11.3902 12.2441 11.6772 12.2441 12ZM11.2441 6V9C11.2441 9.41421 11.5799 9.75 11.9941 9.75C12.4084 9.75 12.7441 9.41421 12.7441 9V6C12.7441 5.58579 12.4084 5.25 11.9941 5.25C11.5799 5.25 11.2441 5.58579 11.2441 6ZM9.88281 16.75C10.9107 16.75 11.7441 15.9165 11.7441 14.8887V13.1113C11.7441 12.0835 10.9107 11.25 9.88281 11.25H9.10547C8.07761 11.25 7.24414 12.0835 7.24414 13.1113V14.8887C7.24414 15.9165 8.07761 16.75 9.10547 16.75H9.88281Z" fill="#4E5964"/>
<path fill-rule="evenodd" clip-rule="evenodd" d="M10.2441 13.1113C10.2441 12.9119 10.0822 12.75 9.88281 12.75H9.10547C8.90603 12.75 8.74414 12.9119 8.74414 13.1113V14.8887C8.74414 15.0881 8.90603 15.25 9.10547 15.25H9.88281C10.0822 15.25 10.2441 15.0881 10.2441 14.8887V13.1113Z" fill="#4E5964"/>
</svg>
