<svg width="24" height="24" viewBox="0 0 24 24" fill="none" xmlns="http://www.w3.org/2000/svg">
<path d="M9.55935 11.0996C9.77257 11.0996 9.92291 11.1469 10.0095 11.2402C10.1028 11.3269 10.1502 11.4772 10.1502 11.6904V14.7402C10.1501 14.9534 10.1028 15.1069 10.0095 15.2002C9.92288 15.2867 9.77239 15.33 9.55935 15.3301H8.84939C8.6366 15.33 8.48685 15.2865 8.40017 15.2002C8.31354 15.1069 8.26935 14.9534 8.26931 14.7402V11.6904C8.26931 11.4771 8.31351 11.3269 8.40017 11.2402C8.48681 11.1471 8.6364 11.0997 8.84939 11.0996H9.55935Z" fill="#4E5964"/>
<path fill-rule="evenodd" clip-rule="evenodd" d="M11.9998 2.25C12.4139 2.25012 12.7498 2.58586 12.7498 3V3.31445L15.4226 3.33105C15.6498 3.33243 15.8841 3.3779 16.1053 3.47949C18.0572 4.37637 19.6553 5.88967 20.6414 7.78418C21.6611 9.74347 21.9629 11.9904 21.4959 14.1445C21.0288 16.2983 19.8215 18.2254 18.0808 19.6025C16.3401 20.9796 14.1716 21.7232 11.9412 21.71C9.71082 21.6967 7.55165 20.9279 5.82791 19.5303C4.10396 18.1324 2.91992 16.1907 2.47927 14.0312C2.03865 11.8716 2.3691 9.62867 3.41287 7.68164C4.42211 5.79909 6.03799 4.30521 8.00076 3.43164C8.22311 3.33272 8.45817 3.28967 8.68533 3.29102L11.2498 3.30566V3C11.2498 2.58579 11.5856 2.25 11.9998 2.25ZM8.65017 10C8.12357 10 7.71613 10.14 7.42947 10.4199C7.1429 10.6999 6.9998 11.1033 6.99978 11.6299V14.7998C6.99978 15.3263 7.14299 15.7298 7.42947 16.0098C7.71613 16.2897 8.12357 16.4297 8.65017 16.4297H9.76931C10.2959 16.4296 10.7034 16.2897 10.99 16.0098C11.2765 15.7298 11.4197 15.3263 11.4197 14.7998V11.6299C11.4197 11.1034 11.2765 10.6999 10.99 10.4199C10.7034 10.14 10.2959 10 9.76931 10H8.65017ZM12.8269 10C12.6872 10.0001 12.617 10.0701 12.617 10.21V16.2197C12.617 16.3596 12.6872 16.4295 12.8269 16.4297H13.657C13.7969 16.4296 13.867 16.3597 13.867 16.2197V12.5098H13.907L15.907 16.2305C15.9737 16.3636 16.0808 16.4297 16.2273 16.4297H16.9578C17.0974 16.4295 17.1678 16.3595 17.1678 16.2197V10.21C17.1677 10.0702 17.0973 10.0002 16.9578 10H16.1277C15.9877 10 15.9178 10.07 15.9178 10.21V13.9297H15.8777L13.8572 10.1396C13.8105 10.0466 13.7166 10 13.5769 10H12.8269ZM11.2498 6.5C11.2498 6.91421 11.5856 7.25 11.9998 7.25C12.4139 7.24988 12.7498 6.91414 12.7498 6.5V4.73535L11.2498 4.72656V6.5Z" fill="#4E5964"/>
</svg>
