<svg width="24" height="24" viewBox="0 0 24 24" fill="none" xmlns="http://www.w3.org/2000/svg">
<path fill-rule="evenodd" clip-rule="evenodd" d="M2.27787 17.2033C2.25971 17.1386 2.25 17.0704 2.25 17V5.65625C2.25 3.77503 3.77503 2.25 5.65625 2.25H6.8182C8.71413 2.25 10.1011 3.61751 10.8781 5.05034C10.9227 5.13262 10.9642 5.20984 11.0032 5.28254L11.0037 5.28345C11.3439 5.91659 11.4998 6.20683 11.9351 6.51685C12.3434 6.80768 13.1663 7.02471 14.2754 7.1395C15.3423 7.24992 16.5334 7.25402 17.5564 7.22073C19.2453 7.16577 20.75 8.49125 20.75 10.2414V11.5C20.75 11.5367 20.7474 11.5727 20.7423 11.608C21.7905 12.833 22.11 14.6833 21.2642 16.2873L19.5068 19.6206C18.82 20.9233 17.4949 21.75 16.0374 21.75H6.20602C3.70738 21.75 2.02593 19.4915 2.27787 17.2033ZM3.75 5.65625C3.75 4.60346 4.60346 3.75 5.65625 3.75H6.8182C7.92349 3.75 8.90576 4.55987 9.55944 5.76536C9.60175 5.84337 9.64305 5.92122 9.68421 5.9988C10.0114 6.61548 10.3294 7.21476 11.0649 7.73863C11.8214 8.27747 13.0002 8.51554 14.121 8.63153C15.2839 8.75188 16.5507 8.75425 17.6052 8.71993C18.5079 8.69056 19.25 9.39861 19.25 10.2414V10.5279C18.8078 10.3495 18.3194 10.25 17.7949 10.25H7.96343C6.50594 10.25 5.18085 11.0767 4.49405 12.3794L3.75 13.7906V5.65625ZM15 15.25C14.5858 15.25 14.25 15.5858 14.25 16C14.25 16.4142 14.5858 16.75 15 16.75H16C16.4142 16.75 16.75 16.4142 16.75 16C16.75 15.5858 16.4142 15.25 16 15.25H15Z" fill="#4E5964"/>
</svg>
