<svg width="24" height="24" viewBox="0 0 24 24" fill="none" xmlns="http://www.w3.org/2000/svg">
<path fill-rule="evenodd" clip-rule="evenodd" d="M20.8636 11.1125V10.2996C20.8636 8.51972 19.3469 7.17089 17.6461 7.22553C16.6081 7.25888 15.4061 7.25232 14.3301 7.13494C13.2164 7.01345 12.375 6.78545 11.9469 6.47003C11.4874 6.13154 11.3189 5.807 10.9742 5.14304C10.9342 5.0659 10.8915 4.98382 10.846 4.89697C10.0611 3.39989 8.65055 2 6.73648 2H5.60795C3.74086 2 2.22727 3.53098 2.22727 5.41954V16.6239C1.37068 19.163 3.03413 22 5.56175 22H16.4856C17.7836 22 18.9786 21.2078 19.6033 19.933L21.556 15.9483C22.3928 14.2407 21.9823 12.2885 20.8636 11.1125ZM5.60795 3.37931C4.49397 3.37931 3.59091 4.29275 3.59091 5.41954V13.7573L4.39672 12.113C5.02142 10.8382 6.21639 10.046 7.51444 10.046H18.4383C18.8123 10.046 19.1673 10.1081 19.4981 10.2222C19.4547 9.31424 18.6519 8.57322 17.6894 8.60414C16.6219 8.63844 15.3493 8.63343 14.1839 8.5063C13.056 8.38326 11.889 8.13378 11.1441 7.58499C10.4143 7.04742 10.1012 6.4373 9.76868 5.78958C9.72681 5.70802 9.68464 5.62586 9.64129 5.54317C8.97054 4.26376 7.92941 3.37931 6.73648 3.37931H5.60795ZM14.0455 15.5632C14.0455 15.1823 14.3507 14.8736 14.7273 14.8736H16.5455C16.922 14.8736 17.2273 15.1823 17.2273 15.5632C17.2273 15.9441 16.922 16.2529 16.5455 16.2529H14.7273C14.3507 16.2529 14.0455 15.9441 14.0455 15.5632Z" fill="#4E5964"/>
</svg>
