<svg width="24" height="24" viewBox="0 0 24 24" fill="none" xmlns="http://www.w3.org/2000/svg">
<path d="M21 11.3793V10.2759V10.2759C21 8.79536 19.7143 7.63538 18.2346 7.68238C15.9185 7.75595 12.7904 7.65725 11.5 6.71742C10.766 6.18284 10.5219 5.6077 10.068 4.75183V4.75183C9.26742 3.24211 7.91898 2 6.21013 2H4.96875V2C3.32915 2 2 3.32915 2 4.96875V6.71742V15.366V18" stroke="#4E5964" stroke-width="1.5" stroke-linecap="round"/>
<path fill-rule="evenodd" clip-rule="evenodd" d="M1.48843 16.5812L3.63639 12.2479C4.32356 10.8616 5.63802 10 7.06588 10H19.0821C22.0565 10 23.943 13.5309 22.5116 16.4188L20.3636 20.7521C19.6764 22.1384 18.362 23 16.9341 23H4.91793C1.94348 23 0.0569503 19.4691 1.48843 16.5812ZM15 15.25C14.5858 15.25 14.25 15.5858 14.25 16C14.25 16.4142 14.5858 16.75 15 16.75H17C17.4142 16.75 17.75 16.4142 17.75 16C17.75 15.5858 17.4142 15.25 17 15.25H15Z" fill="#4E5964"/>
</svg>
