<svg width="24" height="25" viewBox="0 0 24 25" fill="none" xmlns="http://www.w3.org/2000/svg">
<path d="M4.75001 4.77588C4.75001 3.53324 5.75737 2.52588 7.00001 2.52588C8.24265 2.52588 9.25001 3.53324 9.25001 4.77588C9.25001 6.01852 8.24265 7.02588 7.00001 7.02588C5.75737 7.02588 4.75001 6.01852 4.75001 4.77588Z" fill="#4E5964"/>
<path d="M14.75 11.7759C14.75 10.5332 15.7574 9.52588 17 9.52588C18.2427 9.52588 19.25 10.5332 19.25 11.7759C19.25 13.0185 18.2427 14.0259 17 14.0259C15.7574 14.0259 14.75 13.0185 14.75 11.7759Z" fill="#4E5964"/>
<path d="M2.25001 10.4577C2.25001 8.90126 3.42113 7.52588 5.00001 7.52588H9.00001C10.5789 7.52588 11.75 8.90126 11.75 10.4577V11.2759C11.75 13.2842 10.2431 15.0259 8.25001 15.0259H5.75001C3.75692 15.0259 2.25001 13.2842 2.25001 11.2759V10.4577Z" fill="#4E5964"/>
<path d="M12.25 17.4577C12.25 15.9013 13.4211 14.5259 15 14.5259H19C20.5789 14.5259 21.75 15.9013 21.75 17.4577V18.2759C21.75 20.2842 20.2431 22.0259 18.25 22.0259H15.75C13.7569 22.0259 12.25 20.2842 12.25 18.2759V17.4577Z" fill="#4E5964"/>
<path d="M16.6769 4.95295C16.8101 5.23174 16.7613 5.57578 16.5303 5.8067C16.2374 6.09959 15.7626 6.09959 15.4697 5.8067L14.4697 4.8067C14.1768 4.5138 14.1768 4.03893 14.4697 3.74604L15.4697 2.74604C15.7626 2.45314 16.2374 2.45314 16.5303 2.74604C16.7207 2.93635 16.7873 3.20351 16.7303 3.44764C16.9833 3.43584 17.2788 3.43426 17.595 3.45642C18.5062 3.5203 19.7755 3.79512 20.5857 4.80785C21.1212 5.47725 21.4123 6.04732 21.5697 6.47454C21.6482 6.68761 21.6927 6.86319 21.7178 6.99545C21.7304 7.0615 21.738 7.11652 21.7427 7.15976C21.745 7.18138 21.7466 7.20003 21.7477 7.21563L21.749 7.23672L21.7494 7.24552L21.7495 7.24948L21.7496 7.25315C21.7625 7.66716 21.4372 8.01318 21.0232 8.02601C20.6159 8.03862 20.2745 7.72409 20.2513 7.31971C20.2506 7.31402 20.2487 7.29909 20.2442 7.27535C20.2343 7.2232 20.2117 7.12749 20.1622 6.99304C20.0635 6.7252 19.8547 6.29528 19.4144 5.74489C19.0047 5.23287 18.274 5.0077 17.4901 4.95275C17.1889 4.93164 16.9068 4.9378 16.6769 4.95295C16.7255 4.94854 16.6219 4.95658 16.6769 4.95295C16.7392 4.94469 16.5829 4.96148 16.6769 4.95295C17.1243 4.90687 16.6565 4.95567 16.6769 4.95295C16.6924 4.95036 16.6436 4.95779 16.6769 4.95295Z" fill="#4E5964"/>
<path d="M2.97679 16.5267C3.38407 16.5141 3.72555 16.8286 3.74876 17.233C3.74941 17.2387 3.75135 17.2536 3.75586 17.2774C3.76576 17.3295 3.78831 17.4252 3.83784 17.5597C3.9365 17.8275 4.14535 18.2575 4.58566 18.8078C4.99527 19.3199 5.72603 19.545 6.50987 19.6C6.8111 19.6211 7.09318 19.6149 7.32309 19.5998C7.1899 19.321 7.23876 18.977 7.46968 18.746C7.76257 18.4531 8.23744 18.4531 8.53034 18.746L9.53034 19.746C9.82323 20.0389 9.82323 20.5138 9.53034 20.8067L8.53034 21.8067C8.23744 22.0996 7.76257 22.0996 7.46968 21.8067C7.27936 21.6164 7.21271 21.3492 7.26972 21.1051C7.01671 21.1169 6.72126 21.1185 6.40499 21.0963C5.49378 21.0324 4.22453 20.7576 3.41436 19.7449C2.87883 19.0755 2.58768 18.5054 2.4303 18.0782C2.35181 17.8651 2.30732 17.6895 2.2822 17.5573C2.26966 17.4912 2.26199 17.4362 2.25731 17.393C2.25497 17.3714 2.25338 17.3527 2.2523 17.3371L2.25104 17.316L2.25064 17.3072L2.25049 17.3033L2.25042 17.3014C2.25042 17.3014 2.25242 17.3371 2.25104 17.316L2.25037 17.2996C2.23754 16.8856 2.56277 16.5395 2.97679 16.5267Z" fill="#4E5964"/>
</svg>
