<svg width="24" height="24" viewBox="0 0 24 24" fill="none" xmlns="http://www.w3.org/2000/svg">
<path d="M4.75001 4.50024C4.75001 3.2576 5.75737 2.25024 7.00001 2.25024C8.24265 2.25024 9.25001 3.2576 9.25001 4.50024C9.25001 5.74288 8.24265 6.75024 7.00001 6.75024C5.75737 6.75024 4.75001 5.74288 4.75001 4.50024Z" fill="#4E5964"/>
<path d="M14.75 11.5002C14.75 10.2576 15.7574 9.25024 17 9.25024C18.2427 9.25024 19.25 10.2576 19.25 11.5002C19.25 12.7429 18.2427 13.7502 17 13.7502C15.7574 13.7502 14.75 12.7429 14.75 11.5002Z" fill="#4E5964"/>
<path d="M2.25001 10.1821C2.25001 8.62563 3.42113 7.25024 5.00001 7.25024H9.00001C10.5789 7.25024 11.75 8.62563 11.75 10.1821V11.0002C11.75 13.0085 10.2431 14.7502 8.25001 14.7502H5.75001C3.75692 14.7502 2.25001 13.0085 2.25001 11.0002V10.1821Z" fill="#4E5964"/>
<path d="M12.25 17.1821C12.25 15.6256 13.4211 14.2502 15 14.2502H19C20.5789 14.2502 21.75 15.6256 21.75 17.1821V18.0002C21.75 20.0085 20.2431 21.7502 18.25 21.7502H15.75C13.7569 21.7502 12.25 20.0085 12.25 18.0002V17.1821Z" fill="#4E5964"/>
<path d="M16.6769 4.67732C16.8101 4.95611 16.7613 5.30014 16.5303 5.53106C16.2374 5.82396 15.7626 5.82396 15.4697 5.53106L14.4697 4.53106C14.1768 4.23817 14.1768 3.7633 14.4697 3.4704L15.4697 2.4704C15.7626 2.17751 16.2374 2.17751 16.5303 2.4704C16.7207 2.66072 16.7873 2.92787 16.7303 3.17201C16.9833 3.16021 17.2788 3.15862 17.595 3.18079C18.5062 3.24466 19.7755 3.51949 20.5857 4.53221C21.1212 5.20161 21.4123 5.77169 21.5697 6.1989C21.6482 6.41198 21.6927 6.58756 21.7178 6.71981C21.7304 6.78587 21.738 6.84088 21.7427 6.88413C21.745 6.90574 21.7466 6.9244 21.7477 6.94L21.749 6.96109L21.7494 6.96989L21.7495 6.97385L21.7496 6.97751C21.7625 7.39153 21.4372 7.73755 21.0232 7.75037C20.6159 7.76299 20.2745 7.44845 20.2513 7.04407C20.2506 7.03839 20.2487 7.02345 20.2442 6.99972C20.2343 6.94757 20.2117 6.85186 20.1622 6.71741C20.0635 6.44957 19.8547 6.01964 19.4144 5.46925C19.0047 4.95724 18.274 4.73206 17.4901 4.67712C17.1889 4.656 16.9068 4.66216 16.6769 4.67732C16.7255 4.67291 16.6219 4.68095 16.6769 4.67732C16.7392 4.66906 16.5829 4.68585 16.6769 4.67732C17.1243 4.63124 16.6565 4.68003 16.6769 4.67732C16.6924 4.67472 16.6436 4.68215 16.6769 4.67732Z" fill="#4E5964"/>
<path d="M2.97679 16.2511C3.38407 16.2385 3.72555 16.553 3.74876 16.9574C3.74941 16.9631 3.75135 16.978 3.75586 17.0017C3.76576 17.0539 3.78831 17.1496 3.83784 17.2841C3.9365 17.5519 4.14535 17.9818 4.58566 18.5322C4.99527 19.0442 5.72603 19.2694 6.50987 19.3243C6.8111 19.3455 7.09318 19.3393 7.32309 19.3241C7.1899 19.0454 7.23876 18.7013 7.46968 18.4704C7.76257 18.1775 8.23744 18.1775 8.53034 18.4704L9.53034 19.4704C9.82323 19.7633 9.82323 20.2382 9.53034 20.5311L8.53034 21.5311C8.23744 21.824 7.76257 21.824 7.46968 21.5311C7.27936 21.3407 7.21271 21.0736 7.26972 20.8295C7.01671 20.8413 6.72126 20.8428 6.40499 20.8207C5.49378 20.7568 4.22453 20.482 3.41436 19.4693C2.87883 18.7999 2.58768 18.2298 2.4303 17.8026C2.35181 17.5895 2.30732 17.4139 2.2822 17.2817C2.26966 17.2156 2.26199 17.1606 2.25731 17.1173C2.25497 17.0957 2.25338 17.0771 2.2523 17.0615L2.25104 17.0404L2.25064 17.0316L2.25049 17.0276L2.25042 17.0257C2.25042 17.0257 2.25242 17.0615 2.25104 17.0404L2.25037 17.024C2.23754 16.6099 2.56277 16.2639 2.97679 16.2511Z" fill="#4E5964"/>
</svg>
