<svg width="24" height="24" viewBox="0 0 24 24" fill="none" xmlns="http://www.w3.org/2000/svg">
<path d="M12 5.80249C12.4141 5.80248 12.7499 5.46659 12.75 5.05249C12.75 4.63828 12.4142 4.3025 12 4.30249H4C3.58579 4.30249 3.25 4.63828 3.25 5.05249C3.25013 5.46659 3.58587 5.80249 4 5.80249H12Z" fill="#4E5964"/>
<path d="M12 10.5076C12.4142 10.5076 12.75 10.1718 12.75 9.75757C12.7497 9.34358 12.414 9.00757 12 9.00757H4C3.58595 9.00757 3.25026 9.34358 3.25 9.75757C3.25 10.1718 3.58579 10.5076 4 10.5076H12Z" fill="#4E5964"/>
<path d="M19.5 15.2136C19.9141 15.2135 20.25 14.8778 20.25 14.4636C20.2499 14.0496 19.914 13.7137 19.5 13.7136H4C3.58587 13.7136 3.25013 14.0495 3.25 14.4636C3.25 14.8778 3.58579 15.2136 4 15.2136H19.5Z" fill="#4E5964"/>
<path d="M19.5 19.9197C19.9141 19.9196 20.25 19.5838 20.25 19.1697C20.25 18.7555 19.9141 18.4198 19.5 18.4197H4C3.58579 18.4197 3.25 18.7555 3.25 19.1697C3.25 19.5839 3.58579 19.9197 4 19.9197H19.5Z" fill="#4E5964"/>
<path d="M18.917 6.55566C18.917 6.11084 18.5561 5.75012 18.1113 5.75H15.75V8.41211H18.1113C18.5561 8.41199 18.917 8.05127 18.917 7.60645V6.55566ZM20.417 7.60645C20.417 8.8797 19.3846 9.91199 18.1113 9.91211H15.75V12C15.75 12.4142 15.4142 12.75 15 12.75C14.5858 12.75 14.25 12.4142 14.25 12V5C14.25 4.58579 14.5858 4.25 15 4.25H18.1113C19.3846 4.25012 20.417 5.28241 20.417 6.55566V7.60645Z" fill="#4E5964"/>
</svg>
