<svg width="24" height="24" viewBox="0 0 24 24" fill="none" xmlns="http://www.w3.org/2000/svg">
<path fill-rule="evenodd" clip-rule="evenodd" d="M16.2725 11.7156C16.4402 11.7154 16.5244 11.6315 16.5244 11.4636V9.19604C16.5244 9.10805 16.572 9.06422 16.668 9.06421H18.1797C18.8035 9.06421 19.2879 8.89615 19.6318 8.5603C19.9758 8.21633 20.1484 7.73208 20.1484 7.10815V5.95581C20.1484 5.33196 19.9757 4.85232 19.6318 4.51636C19.2878 4.17236 18.8037 3.99976 18.1797 3.99976H15.252C15.0841 3.99977 15.0001 4.08392 15 4.25171V11.4636C15 11.6316 15.084 11.7156 15.252 11.7156H16.2725ZM16.6562 7.73218C16.5684 7.73218 16.5245 7.68811 16.5244 7.60034V5.4519C16.5244 5.36397 16.5683 5.32007 16.6562 5.32007H17.9277C18.1837 5.32007 18.3638 5.3761 18.4678 5.48804C18.5718 5.59204 18.624 5.77208 18.624 6.02808V7.03589C18.624 7.28389 18.5718 7.46393 18.4678 7.57593C18.3638 7.67988 18.1837 7.73218 17.9277 7.73218H16.6562Z" fill="#4E5964"/>
<path d="M12 5.80249C12.4141 5.80248 12.7499 5.46659 12.75 5.05249C12.75 4.63828 12.4142 4.3025 12 4.30249H4C3.58579 4.30249 3.25 4.63828 3.25 5.05249C3.25013 5.46659 3.58587 5.80249 4 5.80249H12Z" fill="#4E5964"/>
<path d="M12 10.5076C12.4142 10.5076 12.75 10.1718 12.75 9.75757C12.7497 9.34358 12.414 9.00757 12 9.00757H4C3.58595 9.00757 3.25026 9.34358 3.25 9.75757C3.25 10.1718 3.58579 10.5076 4 10.5076H12Z" fill="#4E5964"/>
<path d="M19.5 15.2136C19.9141 15.2135 20.25 14.8778 20.25 14.4636C20.2499 14.0496 19.914 13.7137 19.5 13.7136H4C3.58587 13.7136 3.25013 14.0495 3.25 14.4636C3.25 14.8778 3.58579 15.2136 4 15.2136H19.5Z" fill="#4E5964"/>
<path d="M19.5 19.9197C19.9141 19.9196 20.25 19.5838 20.25 19.1697C20.25 18.7555 19.9141 18.4198 19.5 18.4197H4C3.58579 18.4197 3.25 18.7555 3.25 19.1697C3.25 19.5839 3.58579 19.9197 4 19.9197H19.5Z" fill="#4E5964"/>
</svg>
