<svg width="24" height="24" viewBox="0 0 24 24" fill="none" xmlns="http://www.w3.org/2000/svg">
<path fill-rule="evenodd" clip-rule="evenodd" d="M20.5656 6.03749C20.854 7.77747 21.4041 11.9669 20.5148 14.4325C19.7419 16.5754 19.0065 17.7787 17.3344 19.2973C15.6061 20.867 14.3481 22 12.0338 22C9.7194 22 8.4614 20.867 6.73312 19.2973C5.06105 17.7787 4.34402 16.5685 3.55273 14.4325C2.59575 11.8492 3.11156 7.80044 3.40019 6.07116C3.49043 5.53049 3.76898 5.03943 4.20153 4.70274C6.74623 2.72199 8.79377 1.99433 12.0338 2.00003C15.2573 2.0057 17.3635 2.64284 19.8214 4.70274C20.2245 5.04057 20.4796 5.5186 20.5656 6.03749ZM15.7847 9.96872C16.0436 9.64535 15.9913 9.17337 15.6679 8.91452C15.3445 8.65567 14.8726 8.70797 14.6137 9.03134L11.1974 13.2992L9.78514 11.5318C9.52657 11.2083 9.05463 11.1555 8.73103 11.4141C8.40744 11.6727 8.35473 12.1446 8.6133 12.4682L10.6109 14.9682C10.7532 15.1462 10.9687 15.2499 11.1965 15.25C11.4244 15.2501 11.64 15.1466 11.7824 14.9687L15.7847 9.96872Z" fill="#4E5964"/>
</svg>
