<svg width="24" height="24" viewBox="0 0 24 24" fill="none" xmlns="http://www.w3.org/2000/svg">
<path fill-rule="evenodd" clip-rule="evenodd" d="M13 2.25C14.987 2.25 16.6125 3.79551 16.7412 5.75H14C13.3188 5.75 12.6805 5.9325 12.1299 6.25H6.5C5.25736 6.25 4.25 7.25736 4.25 8.5V10.5C4.25 11.7426 5.25736 12.75 6.5 12.75H10.25V17.5C10.25 19.5711 11.9289 21.25 14 21.25H15.2285C14.7276 21.5655 14.1357 21.75 13.5 21.75H6C3.92893 21.75 2.25 20.0711 2.25 18V5.70801C2.25018 3.79828 3.79828 2.25018 5.70801 2.25H13ZM6 17C5.44772 17 5 17.4477 5 18V18.0195C5 18.5718 5.44772 19.0195 6 19.0195C6.55228 19.0195 7 18.5718 7 18.0195V18C7 17.4477 6.55228 17 6 17ZM9 17C8.44772 17 8 17.4477 8 18V18.0195C8 18.5718 8.44772 19.0195 9 19.0195C9.55228 19.0195 10 18.5718 10 18.0195V18C10 17.4477 9.55228 17 9 17ZM6 14C5.44772 14 5 14.4477 5 15V15.0195C5 15.5718 5.44772 16.0195 6 16.0195C6.55228 16.0195 7 15.5718 7 15.0195V15C7 14.4477 6.55228 14 6 14ZM9 14C8.44772 14 8 14.4477 8 15V15.0195C8 15.5718 8.44772 16.0195 9 16.0195C9.55228 16.0195 10 15.5718 10 15.0195V15C10 14.4477 9.55228 14 9 14Z" fill="#4E5964"/>
<path d="M17.1074 7.25V19.75H14C12.7574 19.75 11.75 18.7426 11.75 17.5V9.5C11.75 8.25736 12.7574 7.25 14 7.25H17.1074Z" fill="#4E5964"/>
<path d="M19 7.25C20.5188 7.25 21.75 8.48122 21.75 10V17C21.75 18.5188 20.5188 19.75 19 19.75H18.6074V7.25H19Z" fill="#4E5964"/>
<path d="M18 3.25C19.5188 3.25 20.75 4.48122 20.75 6C20.75 6.41421 20.4142 6.75 20 6.75C19.5858 6.75 19.25 6.41421 19.25 6C19.25 5.30964 18.6904 4.75 18 4.75C17.5858 4.75 17.25 4.41421 17.25 4C17.25 3.58579 17.5858 3.25 18 3.25Z" fill="#4E5964"/>
<path d="M18 1.25C20.6234 1.25 22.75 3.37665 22.75 6C22.75 6.41421 22.4142 6.75 22 6.75C21.5858 6.75 21.25 6.41421 21.25 6C21.25 4.20507 19.7949 2.75 18 2.75C17.5858 2.75 17.25 2.41421 17.25 2C17.25 1.58579 17.5858 1.25 18 1.25Z" fill="#4E5964"/>
</svg>
