<svg width="24" height="24" viewBox="0 0 24 24" fill="none" xmlns="http://www.w3.org/2000/svg">
<path d="M17.25 2C17.25 1.58579 17.5858 1.25 18 1.25C20.6234 1.25 22.75 3.37665 22.75 6C22.75 6.41421 22.4142 6.75 22 6.75C21.5858 6.75 21.25 6.41421 21.25 6C21.25 4.20507 19.7949 2.75 18 2.75C17.5858 2.75 17.25 2.41421 17.25 2Z" fill="#4E5964"/>
<path fill-rule="evenodd" clip-rule="evenodd" d="M5.70833 2.25C3.79835 2.25 2.25 3.79835 2.25 5.70833V18C2.25 20.0711 3.92894 21.75 6 21.75H13.5C14.852 21.75 16.0111 20.9245 16.5009 19.75H17.1074V7.25H16.75V6C16.75 3.92893 15.0711 2.25 13 2.25H5.70833ZM11.25 12.75V11.25H6.5C6.08579 11.25 5.75 10.9142 5.75 10.5V8.5C5.75 8.08579 6.08579 7.75 6.5 7.75H12.4185C12.8658 7.43499 13.4113 7.25 14 7.25H14.5816C14.3007 6.65876 13.6981 6.25 13 6.25H6.5C5.25736 6.25 4.25 7.25736 4.25 8.5V10.5C4.25 11.7426 5.25736 12.75 6.5 12.75H11.25ZM7 15C7 14.4477 6.55228 14 6 14C5.44772 14 5 14.4477 5 15V15.0195C5 15.5718 5.44772 16.0195 6 16.0195C6.55228 16.0195 7 15.5718 7 15.0195V15ZM9 14C9.55228 14 10 14.4477 10 15V15.0195C10 15.5718 9.55228 16.0195 9 16.0195C8.44772 16.0195 8 15.5718 8 15.0195V15C8 14.4477 8.44772 14 9 14ZM7 18C7 17.4477 6.55228 17 6 17C5.44772 17 5 17.4477 5 18V18.0195C5 18.5718 5.44772 19.0195 6 19.0195C6.55228 19.0195 7 18.5718 7 18.0195V18ZM9 17C9.55228 17 10 17.4477 10 18V18.0195C10 18.5718 9.55228 19.0195 9 19.0195C8.44772 19.0195 8 18.5718 8 18.0195V18C8 17.4477 8.44772 17 9 17Z" fill="#4E5964"/>
<path d="M18.6074 19.75H19C20.5188 19.75 21.75 18.5188 21.75 17V10C21.75 8.48122 20.5188 7.25 19 7.25H18.6074V19.75Z" fill="#4E5964"/>
<path d="M18 3.25C17.5858 3.25 17.25 3.58579 17.25 4C17.25 4.41421 17.5858 4.75 18 4.75C18.6904 4.75 19.25 5.30964 19.25 6C19.25 6.41421 19.5858 6.75 20 6.75C20.4142 6.75 20.75 6.41421 20.75 6C20.75 4.48122 19.5188 3.25 18 3.25Z" fill="#4E5964"/>
</svg>
