<svg width="24" height="24" viewBox="0 0 24 24" fill="none" xmlns="http://www.w3.org/2000/svg">
<path d="M6.44416 14.25C6.8583 14.2501 7.19416 14.5858 7.19416 15C7.19416 15.4142 6.8583 15.7499 6.44416 15.75H5.61409C5.09136 15.75 4.62397 16.0754 4.44221 16.5654L3.701 18.5654C3.39868 19.3817 4.00252 20.2497 4.87287 20.25H19.1268C19.997 20.2496 20.6009 19.3816 20.2987 18.5654L19.5574 16.5654C19.3757 16.0754 18.9082 15.7501 18.3856 15.75H17.5555C17.1413 15.75 16.8055 15.4142 16.8055 15C16.8055 14.5858 17.1413 14.25 17.5555 14.25H18.3856C19.5359 14.2501 20.5651 14.9662 20.9647 16.0449L21.7049 18.0449C22.37 19.8408 21.0417 21.7496 19.1268 21.75H4.87287C2.9578 21.7497 1.62958 19.8409 2.29475 18.0449L3.03498 16.0449C3.43455 14.9662 4.46369 14.25 5.61409 14.25H6.44416Z" fill="#4E5964"/>
<path fill-rule="evenodd" clip-rule="evenodd" d="M11.9998 2.25C15.2233 2.2501 17.7498 5.03418 17.7498 8.35742C17.7497 10.4414 16.6301 12.4807 15.4617 13.9512C14.8689 14.6973 14.2366 15.3307 13.6737 15.7852C13.3932 16.0115 13.1172 16.2041 12.8612 16.3438C12.6312 16.4691 12.3206 16.6074 11.9998 16.6074C11.6791 16.6074 11.3685 16.4691 11.1385 16.3438C10.8824 16.2041 10.6065 16.0115 10.326 15.7852C9.763 15.3307 9.13081 14.6973 8.53791 13.9512C7.36953 12.4807 6.24993 10.4414 6.24983 8.35742C6.24983 5.03412 8.77629 2.25 11.9998 2.25ZM11.9998 5.85742C10.8166 5.85757 9.8574 6.81675 9.85725 8C9.85725 9.18337 10.8165 10.1434 11.9998 10.1436C13.1832 10.1435 14.1434 9.18341 14.1434 8C14.1432 6.81672 13.1831 5.85751 11.9998 5.85742Z" fill="#4E5964"/>
</svg>
