<svg width="24" height="24" viewBox="0 0 24 24" fill="none" xmlns="http://www.w3.org/2000/svg">
<path d="M12.1758 1.25024C10.1047 1.25024 8.42578 2.92918 8.42578 5.00024C8.42578 7.07131 10.1047 8.75024 12.1758 8.75024C14.2468 8.75024 15.9258 7.07131 15.9258 5.00024C15.9258 2.92918 14.2468 1.25024 12.1758 1.25024Z" fill="#4E5964"/>
<path d="M8.17578 10.2502C5.6213 10.2502 3.42578 12.1484 3.42578 14.6366V16.0002C3.42578 19.2415 6.29287 21.7502 9.67578 21.7502H14.6758C18.0587 21.7502 20.9258 19.2415 20.9258 16.0002L18.994 16.0002C16.7849 16.0001 14.9941 14.2092 14.9941 12.0002V10.2502H8.17578Z" fill="#4E5964"/>
<path d="M19.5024 9.75024C19.5028 9.33602 19.1674 8.99991 18.7532 8.99951C18.3389 8.99911 18.0028 9.33458 18.0024 9.74879L18.0012 10.9993L16.7507 10.9981C16.3365 10.9977 16.0004 11.3331 16 11.7474C15.9996 12.1616 16.3351 12.4977 16.7493 12.4981L17.9998 12.4993L17.9986 13.7488C17.9982 14.163 18.3336 14.4991 18.7478 14.4995C19.1621 14.4999 19.4982 14.1644 19.4986 13.7502L19.4998 12.5007L20.7493 12.5019C21.1635 12.5023 21.4996 12.1669 21.5 11.7527C21.5004 11.3385 21.1649 11.0023 20.7507 11.0019L19.5012 11.0007L19.5024 9.75024Z" fill="#4E5964"/>
</svg>
