<svg width="24" height="25" viewBox="0 0 24 25" fill="none" xmlns="http://www.w3.org/2000/svg">
<path fill-rule="evenodd" clip-rule="evenodd" d="M12 2.52637C6.61522 2.52637 2.25 6.89159 2.25 12.2764C2.25 17.6611 6.61522 22.0264 12 22.0264C17.3848 22.0264 21.75 17.6611 21.75 12.2764C21.75 6.89159 17.3848 2.52637 12 2.52637ZM12.75 9.27686C12.75 8.86264 12.4142 8.52686 12 8.52686C11.5858 8.52686 11.25 8.86264 11.25 9.27686V11.5269H9C8.58579 11.5269 8.25 11.8626 8.25 12.2769C8.25 12.6911 8.58579 13.0269 9 13.0269H11.25V15.2769C11.25 15.6911 11.5858 16.0269 12 16.0269C12.4142 16.0269 12.75 15.6911 12.75 15.2769V13.0269H15C15.4142 13.0269 15.75 12.6911 15.75 12.2769C15.75 11.8626 15.4142 11.5269 15 11.5269H12.75V9.27686Z" fill="#4E5964"/>
</svg>
