<svg width="24" height="24" viewBox="0 0 24 24" fill="none" xmlns="http://www.w3.org/2000/svg">
<circle cx="12" cy="5" r="3" fill="#4E5964" stroke="#4E5964" stroke-width="1.5"/>
<path d="M9.5 22H15.2799C17.8867 22 20 19.8867 20 17.2799C20 17.1529 19.8971 17.05 19.7701 17.05H17.7143C16.4519 17.05 15.4286 16.0267 15.4286 14.7643V14.025C15.4286 12.3543 14.0742 11 12.4036 11H8C5.79086 11 4 12.7909 4 15V16.5C4 19.5376 6.46243 22 9.5 22Z" fill="#4E5964" stroke="#4E5964" stroke-width="1.5" stroke-linecap="round"/>
<path d="M20.7519 11.0002C20.7523 10.586 20.4169 10.2499 20.0027 10.2495C19.5885 10.2491 19.2523 10.5846 19.2519 10.9988L19.2507 12.2493L18.0002 12.2481C17.586 12.2477 17.2499 12.5831 17.2495 12.9974C17.2491 13.4116 17.5846 13.7477 17.9988 13.7481L19.2493 13.7493L19.2481 14.9988C19.2477 15.413 19.5831 15.7491 19.9974 15.7495C20.4116 15.7499 20.7477 15.4144 20.7481 15.0002L20.7493 13.7507L21.9988 13.7519C22.413 13.7523 22.7491 13.4169 22.7495 13.0027C22.7499 12.5885 22.4144 12.2523 22.0002 12.2519L20.7507 12.2507L20.7519 11.0002Z" fill="#4E5964"/>
</svg>
