<svg width="24" height="24" viewBox="0 0 24 24" fill="none" xmlns="http://www.w3.org/2000/svg">
<path fill-rule="evenodd" clip-rule="evenodd" d="M12 2.25073C6.61522 2.25073 2.25 6.61596 2.25 12.0007C2.25 17.3855 6.61522 21.7507 12 21.7507C17.3848 21.7507 21.75 17.3855 21.75 12.0007C21.75 6.61596 17.3848 2.25073 12 2.25073ZM12.75 9.00122C12.75 8.58701 12.4142 8.25122 12 8.25122C11.5858 8.25122 11.25 8.58701 11.25 9.00122V11.2512H9C8.58579 11.2512 8.25 11.587 8.25 12.0012C8.25 12.4154 8.58579 12.7512 9 12.7512H11.25V15.0012C11.25 15.4154 11.5858 15.7512 12 15.7512C12.4142 15.7512 12.75 15.4154 12.75 15.0012V12.7512H15C15.4142 12.7512 15.75 12.4154 15.75 12.0012C15.75 11.587 15.4142 11.2512 15 11.2512H12.75V9.00122Z" fill="#4E5964"/>
</svg>
