<svg width="24" height="24" viewBox="0 0 24 24" fill="none" xmlns="http://www.w3.org/2000/svg">
<path fill-rule="evenodd" clip-rule="evenodd" d="M8 4.75C8 2.67893 9.67893 1 11.75 1C13.8211 1 15.5 2.67893 15.5 4.75C15.5 6.82107 13.8211 8.5 11.75 8.5C9.67893 8.5 8 6.82107 8 4.75Z" fill="#4E5964"/>
<path fill-rule="evenodd" clip-rule="evenodd" d="M3 14.75C3 12.1266 4.62665 10 7.25 10H11.4793C12.4594 10 13.3313 10 13.9569 10C14.5092 10 14.9568 10.447 14.9568 10.9993C14.9568 11.8264 14.9568 13.0254 14.9568 14.0473C14.9568 15.1518 15.8522 16.0463 16.9568 16.0463H19.25H19.5C20.0523 16.0463 20.5 16.4939 20.5 17.0462C20.5 17.1125 20.5 17.1806 20.5 17.25C20.5 20.1495 18.1495 22.5 15.25 22.5H9.25C5.79822 22.5 3 19.7018 3 16.25V14.75Z" fill="#4E5964"/>
<path d="M19.502 9.75024C19.5024 9.33603 19.1669 8.99992 18.7527 8.99952C18.3385 8.99912 18.0024 9.33458 18.002 9.74879L18.0007 10.9993L16.7502 10.9981C16.336 10.9977 15.9999 11.3332 15.9995 11.7474C15.9991 12.1616 16.3346 12.4977 16.7488 12.4981L17.9993 12.4993L17.9981 13.7488C17.9977 14.163 18.3332 14.4991 18.7474 14.4995C19.1616 14.4999 19.4977 14.1645 19.4981 13.7502L19.4993 12.5007L20.7488 12.502C21.163 12.5024 21.4991 12.1669 21.4995 11.7527C21.4999 11.3385 21.1645 11.0024 20.7502 11.002L19.5007 11.0007L19.502 9.75024Z" fill="#4E5964"/>
</svg>
