<svg width="24" height="24" viewBox="0 0 24 24" fill="none" xmlns="http://www.w3.org/2000/svg">
<path d="M15 5C15 7.20914 13.2091 9 11 9C8.79086 9 7 7.20914 7 5C7 2.79086 8.79086 1 11 1C13.2091 1 15 2.79086 15 5Z" fill="#00A881"/>
<path d="M15 5C15 7.20914 13.2091 9 11 9C8.79086 9 7 7.20914 7 5C7 2.79086 8.79086 1 11 1C13.2091 1 15 2.79086 15 5Z" fill="#00A881"/>
<path fill-rule="evenodd" clip-rule="evenodd" d="M11 2.75C9.75736 2.75 8.75 3.75736 8.75 5C8.75 6.24264 9.75736 7.25 11 7.25C12.2426 7.25 13.25 6.24264 13.25 5C13.25 3.75736 12.2426 2.75 11 2.75ZM7.25 5C7.25 2.92893 8.92893 1.25 11 1.25C13.0711 1.25 14.75 2.92893 14.75 5C14.75 7.07107 13.0711 8.75 11 8.75C8.92893 8.75 7.25 7.07107 7.25 5Z" fill="#00A881"/>
<path d="M8.5 22H14.2799C16.8867 22 19 19.8867 19 17.2799C19 17.1529 18.8971 17.05 18.7701 17.05H16.7143C15.4519 17.05 14.4286 16.0267 14.4286 14.7643V14.025C14.4286 12.3543 13.0742 11 11.4036 11H7C4.79086 11 3 12.7909 3 15V16.5C3 19.5376 5.46243 22 8.5 22Z" fill="#00A881"/>
<path fill-rule="evenodd" clip-rule="evenodd" d="M7 11.75C5.20507 11.75 3.75 13.2051 3.75 15V16.5C3.75 19.1234 5.87665 21.25 8.5 21.25H14.2799C16.2963 21.25 17.9615 19.7469 18.2162 17.8H16.7143C15.0377 17.8 13.6786 16.4409 13.6786 14.7643V14.025C13.6786 12.7686 12.66 11.75 11.4036 11.75H7ZM2.25 15C2.25 12.3766 4.37665 10.25 7 10.25H11.4036C13.4884 10.25 15.1786 11.9401 15.1786 14.025V14.7643C15.1786 15.6124 15.8661 16.3 16.7143 16.3H18.7701C19.3113 16.3 19.75 16.7387 19.75 17.2799C19.75 20.301 17.301 22.75 14.2799 22.75H8.5C5.04822 22.75 2.25 19.9518 2.25 16.5V15Z" fill="#00A881"/>
<path d="M19.7519 11.0002C19.7523 10.586 19.4169 10.2499 19.0027 10.2495C18.5885 10.2491 18.2523 10.5846 18.2519 10.9988L18.2507 12.2493L17.0002 12.2481C16.586 12.2477 16.2499 12.5831 16.2495 12.9974C16.2491 13.4116 16.5846 13.7477 16.9988 13.7481L18.2493 13.7493L18.2481 14.9988C18.2477 15.413 18.5831 15.7491 18.9974 15.7495C19.4116 15.7499 19.7477 15.4144 19.7481 15.0002L19.7493 13.7507L20.9988 13.7519C21.413 13.7523 21.7491 13.4169 21.7495 13.0027C21.7499 12.5885 21.4144 12.2523 21.0002 12.2519L19.7507 12.2507L19.7519 11.0002Z" fill="#00A881"/>
</svg>
