<svg width="24" height="24" viewBox="0 0 24 24" fill="none" xmlns="http://www.w3.org/2000/svg">
<path d="M14.75 4.75C14.75 6.40685 13.4069 7.75 11.75 7.75C10.0931 7.75 8.75 6.40685 8.75 4.75C8.75 3.09315 10.0931 1.75 11.75 1.75C13.4069 1.75 14.75 3.09315 14.75 4.75Z" fill="#4E5964"/>
<path fill-rule="evenodd" clip-rule="evenodd" d="M11.75 2.5C10.5074 2.5 9.5 3.50736 9.5 4.75C9.5 5.99264 10.5074 7 11.75 7C12.9926 7 14 5.99264 14 4.75C14 3.50736 12.9926 2.5 11.75 2.5ZM8 4.75C8 2.67893 9.67893 1 11.75 1C13.8211 1 15.5 2.67893 15.5 4.75C15.5 6.82107 13.8211 8.5 11.75 8.5C9.67893 8.5 8 6.82107 8 4.75Z" fill="#4E5964"/>
<path d="M9.25 21.75H15.0299C17.6367 21.75 19.75 19.6367 19.75 17.0299C19.75 16.8753 19.6247 16.75 19.4701 16.75H17.4643C16.2019 16.75 15.1786 15.7267 15.1786 14.4643V13.75C15.1786 12.0931 13.8354 10.75 12.1786 10.75H7.25C5.317 10.75 3.75 12.317 3.75 14.25V16.25C3.75 19.2876 6.21243 21.75 9.25 21.75Z" fill="#4E5964"/>
<path fill-rule="evenodd" clip-rule="evenodd" d="M7.25 11.5C5.73122 11.5 4.5 12.7312 4.5 14.25V16.25C4.5 18.8734 6.62665 21 9.25 21H15.0299C17.0635 21 18.7399 19.4711 18.9725 17.5H17.4643C15.7877 17.5 14.4286 16.1409 14.4286 14.4643V13.75C14.4286 12.5074 13.4212 11.5 12.1786 11.5H7.25ZM3 14.25C3 11.9028 4.90279 10 7.25 10H12.1786C14.2496 10 15.9286 11.6789 15.9286 13.75V14.4643C15.9286 15.3124 16.6161 16 17.4643 16H19.4701C20.0389 16 20.5 16.4611 20.5 17.0299C20.5 20.051 18.051 22.5 15.0299 22.5H9.25C5.79822 22.5 3 19.7018 3 16.25V14.25Z" fill="#4E5964"/>
<path fill-rule="evenodd" clip-rule="evenodd" d="M21.2151 10.2885C21.5105 10.5845 21.51 11.0639 21.214 11.3593L18.3557 14.2122C18.0597 14.5076 17.5803 14.5071 17.2849 14.2111C16.9895 13.9151 16.9899 13.4357 17.2859 13.1403L20.1442 10.2875C20.4402 9.99205 20.9197 9.99251 21.2151 10.2885Z" fill="#4E5964"/>
<path fill-rule="evenodd" clip-rule="evenodd" d="M17.289 10.2849C17.585 9.98948 18.0644 9.98995 18.3599 10.2859L21.2127 13.1443C21.5081 13.4403 21.5076 13.9197 21.2116 14.2151C20.9157 14.5105 20.4362 14.5101 20.1408 14.2141L17.288 11.3557C16.9926 11.0598 16.993 10.5803 17.289 10.2849Z" fill="#4E5964"/>
</svg>
