<svg width="24" height="24" viewBox="0 0 24 24" fill="none" xmlns="http://www.w3.org/2000/svg">
<path d="M12 2.25C12.4142 2.25 12.75 2.58579 12.75 3V4.25H14C14.4142 4.25 14.75 4.58579 14.75 5C14.75 5.41421 14.4142 5.75 14 5.75H12.75V10C12.75 10.4142 12.4142 10.75 12 10.75C11.5858 10.75 11.25 10.4142 11.25 10V5.75H10C9.58579 5.75 9.25 5.41421 9.25 5C9.25 4.58579 9.58579 4.25 10 4.25H11.25V3C11.25 2.58579 11.5858 2.25 12 2.25Z" fill="#4E5964"/>
<path d="M3.30299 4.51738C2.65618 4.9093 2.25 5.66475 2.25 6.53034V14.4305C2.25 15.6313 2.90206 16.6651 3.59045 17.4332C4.29047 18.2142 5.11886 18.822 5.66416 19.1819C5.78826 19.2638 5.9215 19.4674 5.9215 19.7416C5.9215 20.6944 6.57229 21.75 7.68943 21.75H9.22222C10.759 21.75 11.75 20.2739 11.75 18.8023V16.6884C11.75 15.9091 11.4863 15.1367 10.9822 14.5679L6.75 9.23842V6.5C6.75 5.91264 6.33582 5.49301 6.12108 5.29316C5.99092 5.17203 5.85368 5.06193 5.74701 4.9765C5.62768 4.88092 5.55752 4.8244 5.51108 4.78003C4.85068 4.14908 3.97896 4.10779 3.30299 4.51738Z" fill="#4E5964"/>
<path d="M20.697 4.51738C21.3438 4.9093 21.75 5.66475 21.75 6.53034V14.4305C21.75 15.6313 21.0979 16.6651 20.4095 17.4332C19.7095 18.2142 18.8811 18.822 18.3358 19.1819C18.2117 19.2638 18.0785 19.4674 18.0785 19.7416C18.0785 20.6944 17.4277 21.75 16.3106 21.75H14.7778C13.241 21.75 12.25 20.2739 12.25 18.8023V16.6884C12.25 15.9091 12.5137 15.1367 13.0178 14.5679L17.25 9.23842V6.5C17.25 5.91264 17.6642 5.49301 17.8789 5.29316C18.0091 5.17203 18.1463 5.06193 18.253 4.9765C18.3723 4.88092 18.4425 4.8244 18.4889 4.78003C19.1493 4.14908 20.021 4.10779 20.697 4.51738Z" fill="#4E5964"/>
</svg>
