<svg width="24" height="24" viewBox="0 0 24 24" fill="none" xmlns="http://www.w3.org/2000/svg">
<path d="M13.2919 19.7598C13.424 19.3687 13.8482 19.1574 14.2401 19.2881C14.6329 19.4192 14.8447 19.8445 14.7138 20.2373L14.0028 20C14.714 20.2371 14.7139 20.2378 14.7138 20.2383V20.2393L14.7128 20.2412C14.7123 20.2427 14.7114 20.2445 14.7108 20.2461C14.7097 20.2494 14.7083 20.253 14.7069 20.2568C14.7042 20.2645 14.7009 20.2736 14.6972 20.2832C14.6897 20.3025 14.6798 20.3261 14.6679 20.3525C14.6439 20.4054 14.6103 20.4717 14.5643 20.5469C14.4719 20.6982 14.3285 20.8865 14.1151 21.0693C13.6757 21.4459 12.9985 21.7499 12.0028 21.75C11.0068 21.75 10.3291 21.4461 9.88954 21.0693C9.67617 20.8865 9.53279 20.6982 9.44032 20.5469C9.39441 20.4717 9.36071 20.4053 9.33681 20.3525C9.32483 20.3261 9.31501 20.3025 9.30751 20.2832C9.30376 20.2736 9.30051 20.2645 9.29775 20.2568C9.29639 20.2531 9.29497 20.2494 9.29384 20.2461C9.2933 20.2445 9.29336 20.2427 9.29286 20.2412L9.29189 20.2393L9.29091 20.2383C9.29079 20.2377 9.29755 20.2351 10.0028 20L9.29091 20.2373C9.15992 19.8444 9.37256 19.4191 9.76552 19.2881C10.158 19.1574 10.5824 19.3695 10.7138 19.7617V19.7608L10.7128 19.7588C10.7123 19.7575 10.7122 19.7561 10.7118 19.7549C10.711 19.7527 10.7095 19.7509 10.7089 19.749C10.7075 19.7452 10.7069 19.7416 10.7059 19.7393L10.7206 19.7647C10.7427 19.8008 10.787 19.8636 10.8651 19.9307C11.009 20.054 11.3322 20.25 12.0028 20.25C12.6732 20.2499 12.9957 20.0539 13.1395 19.9307C13.2178 19.8636 13.262 19.8009 13.2841 19.7647C13.2951 19.7466 13.3009 19.7351 13.3017 19.7334C13.3017 19.7334 13.3012 19.7355 13.2997 19.7393C13.2988 19.7416 13.2972 19.7452 13.2958 19.749C13.2952 19.7508 13.2946 19.7528 13.2938 19.7549C13.2934 19.7561 13.2923 19.7575 13.2919 19.7588V19.7598ZM18.8085 4.96681C18.895 4.56188 19.2932 4.30345 19.6981 4.38966L19.5585 5.04396C19.6982 4.38989 19.6996 4.39053 19.7001 4.39064H19.703C19.7045 4.39097 19.7062 4.39124 19.7079 4.39161C19.7112 4.39236 19.7148 4.39362 19.7186 4.39454C19.7264 4.39638 19.7352 4.39878 19.745 4.40138C19.7649 4.40663 19.7895 4.41297 19.8173 4.42189C19.8728 4.4397 19.9432 4.46657 20.0243 4.50392C20.1866 4.5786 20.393 4.69903 20.6024 4.89064C21.0348 5.28634 21.4231 5.93059 21.5311 6.92774C21.6392 7.92473 21.3981 8.63494 21.0575 9.11232C20.8925 9.3435 20.715 9.50396 20.5712 9.61036C20.4994 9.6635 20.4355 9.70368 20.3847 9.73243C20.3592 9.74681 20.3367 9.75839 20.3183 9.76759C20.3092 9.77209 20.301 9.77594 20.2938 9.77931C20.2902 9.78102 20.2862 9.78276 20.2831 9.78419L20.2772 9.78712L20.2763 9.7881C20.2758 9.78832 20.2751 9.78821 19.9735 9.10157L20.2743 9.7881C19.8951 9.95444 19.4526 9.78247 19.286 9.40333C19.13 9.04793 19.2719 8.63654 19.6024 8.44923L19.6708 8.41505L19.6698 8.41603L19.6679 8.417C19.6667 8.41753 19.665 8.41749 19.664 8.41798L19.6464 8.42677C19.6496 8.42493 19.6618 8.41743 19.6796 8.40431C19.7163 8.37711 19.7764 8.32586 19.8368 8.24122C19.9473 8.08632 20.1115 7.74929 20.0399 7.08888C19.9683 6.42858 19.7343 6.12938 19.5897 5.99708C19.511 5.92511 19.44 5.88586 19.3974 5.86622C19.3768 5.85676 19.3633 5.8519 19.3593 5.8506C19.36 5.85079 19.3609 5.85123 19.3622 5.85157C19.3643 5.85212 19.3674 5.85267 19.371 5.85353C19.3729 5.85398 19.3755 5.85495 19.3778 5.85548C19.3789 5.85573 19.3805 5.85619 19.3817 5.85646H19.3847V5.85548C18.9801 5.76858 18.7221 5.37159 18.8085 4.96681ZM4.29677 8.3379C4.68352 8.48271 4.88076 8.91321 4.7372 9.30079C4.5933 9.68916 4.16173 9.88704 3.77333 9.74317L4.03408 9.04005C3.78119 9.72276 3.77307 9.74277 3.77236 9.74317L3.77138 9.7422H3.76943C3.768 9.74166 3.7661 9.74084 3.76454 9.74024C3.76132 9.73901 3.75755 9.73783 3.7538 9.73634C3.74632 9.73337 3.7379 9.72964 3.72841 9.7256C3.70942 9.7175 3.6863 9.70721 3.66005 9.69435C3.60767 9.66868 3.5415 9.6327 3.46669 9.58399C3.31683 9.48641 3.13083 9.33594 2.95204 9.11524C2.58294 8.65959 2.29712 7.96568 2.34267 6.96388C2.38825 5.96215 2.73572 5.29619 3.14345 4.87501C3.34091 4.67107 3.53954 4.53834 3.69716 4.45411C3.77594 4.41203 3.84493 4.38143 3.89931 4.36036C3.92643 4.34986 3.95009 4.34138 3.96962 4.33497C3.97929 4.3318 3.98836 4.32946 3.99599 4.32716C3.9998 4.32601 4.00346 4.3242 4.00673 4.32325C4.00835 4.32279 4.01013 4.3227 4.01161 4.32228L4.01357 4.3213H4.01454C4.01503 4.32117 4.01597 4.32097 4.17372 4.89259L4.0165 4.3213C4.41569 4.21139 4.82826 4.44556 4.93837 4.84474C5.04836 5.24385 4.81395 5.65535 4.41494 5.76564C4.41534 5.76685 4.41585 5.76663 4.41591 5.76661H4.41689L4.41884 5.76564C4.42008 5.76529 4.42161 5.76499 4.42275 5.76466L4.4374 5.75978C4.4393 5.75915 4.44066 5.75903 4.4413 5.7588C4.4381 5.76004 4.42462 5.76548 4.40419 5.77638C4.36302 5.79837 4.29447 5.84168 4.2206 5.91798C4.08546 6.05758 3.87087 6.36899 3.84072 7.03224C3.81058 7.69544 3.9963 8.02279 4.11708 8.17189C4.18318 8.25342 4.2465 8.30206 4.28505 8.32716C4.30403 8.33951 4.31704 8.34513 4.32021 8.34669C4.31952 8.34638 4.31804 8.34646 4.3163 8.34571C4.31424 8.34483 4.31116 8.34326 4.30751 8.34181C4.30578 8.34112 4.30376 8.34066 4.30165 8.33985C4.30053 8.33942 4.29898 8.33836 4.29775 8.3379H4.29677Z" fill="#4E5964"/>
<path fill-rule="evenodd" clip-rule="evenodd" d="M12.7656 10.8877C13.0469 10.9346 13.2529 11.1777 13.2529 11.4629V11.667C13.2528 11.9607 13.0354 12.2007 12.7529 12.2412V10.8848L12.7656 10.8877Z" fill="#4E5964"/>
<path fill-rule="evenodd" clip-rule="evenodd" d="M11.2402 9.1123C10.9592 9.06526 10.7529 8.82213 10.7529 8.53711V8.33301C10.7531 8.03945 10.9706 7.79845 11.2529 7.75781V9.11426L11.2402 9.1123Z" fill="#4E5964"/>
<path fill-rule="evenodd" clip-rule="evenodd" d="M18.5986 11.9541C18.5208 11.914 18.4658 11.8301 18.4658 11.7314V8.81738C18.4656 5.20352 15.5841 2.25 12.002 2.25C8.41982 2.25 5.53832 5.20352 5.53809 8.81738V11.7314C5.53807 11.8056 5.50708 11.8707 5.45996 11.915L5.40723 11.9521L4.83203 12.2441C3.85947 12.7408 3.25195 13.7486 3.25195 14.8428C3.25196 16.4357 4.52396 17.75 6.12109 17.75H17.8828C19.4799 17.75 20.7519 16.4357 20.752 14.8428C20.752 13.7488 20.1434 12.7407 19.1699 12.2451L18.5986 11.9541ZM13.2529 8.33301V8.66699C13.2531 9.08097 13.5889 9.41686 14.0029 9.41699C14.417 9.41699 14.7527 9.08105 14.7529 8.66699V8.33301C14.7528 7.21041 13.8649 6.29757 12.7529 6.25391V6C12.7529 5.58579 12.4171 5.25 12.0029 5.25C11.5888 5.25014 11.2529 5.58587 11.2529 6V6.25391C10.1412 6.29781 9.25309 7.21058 9.25293 8.33301V8.53711C9.25293 9.55552 9.98958 10.4244 10.9941 10.5918L11.2529 10.6348V12.2412C10.9707 12.2005 10.7531 11.9605 10.7529 11.667V11.333C10.7528 10.9189 10.417 10.583 10.0029 10.583C9.58893 10.5831 9.2531 10.919 9.25293 11.333V11.667C9.25311 12.7894 10.1413 13.7012 11.2529 13.7451V14C11.2529 14.4141 11.5888 14.7499 12.0029 14.75C12.4171 14.75 12.7529 14.4142 12.7529 14V13.7451C13.8648 13.7014 14.7527 12.7896 14.7529 11.667V11.4629C14.7529 10.4446 14.017 9.5758 13.0127 9.4082L12.7529 9.36426V7.75781C13.0355 7.79825 13.2528 8.03928 13.2529 8.33301Z" fill="#4E5964"/>
</svg>
