<svg width="24" height="24" viewBox="0 0 24 24" fill="none" xmlns="http://www.w3.org/2000/svg">
<path d="M12.7498 12.2441C13.0325 12.2037 13.2498 11.9605 13.2498 11.6667C13.2498 11.3728 13.0325 11.1297 12.7498 11.0892V12.2441Z" fill="#4E5964"/>
<path d="M11.2498 8.42257C10.9671 8.46301 10.7498 8.70613 10.7498 9C10.7498 9.29387 10.9671 9.53699 11.2498 9.57743V8.42257Z" fill="#4E5964"/>
<path fill-rule="evenodd" clip-rule="evenodd" d="M5.5355 8.81782C5.5355 5.20376 8.4175 2.25 11.9998 2.25C15.5821 2.25 18.4641 5.20376 18.4641 8.81782V11.7314C18.4641 11.8297 18.5181 11.9137 18.5955 11.954L18.5965 11.9546L19.1681 12.2449C20.1416 12.7405 20.7498 13.7488 20.7498 14.8428C20.7498 16.4357 19.4781 17.75 17.8809 17.75H6.11864C4.5215 17.75 3.24978 16.4357 3.24978 14.8428C3.24978 13.7486 3.85751 12.7411 4.8301 12.2445L5.40489 11.9524C5.48052 11.9136 5.5355 11.8303 5.5355 11.7314V8.81782ZM11.2542 6.91813C10.1402 6.95962 9.24978 7.87583 9.24978 9C9.24978 10.1227 10.1378 11.038 11.2498 11.0817V12.2486C10.9972 12.2308 10.7876 12.0519 10.7261 11.8131C10.6229 11.4119 10.214 11.1704 9.81284 11.2737C9.4117 11.3769 9.17021 11.7858 9.27345 12.1869C9.50176 13.074 10.2988 13.7332 11.2543 13.7497C11.2956 14.1248 11.6136 14.4167 11.9998 14.4167C12.3863 14.4167 12.7046 14.1242 12.7454 13.7485C13.8594 13.707 14.7498 12.7908 14.7498 11.6667C14.7498 10.544 13.8617 9.62871 12.7498 9.58497V8.41811C13.0023 8.43584 13.212 8.61477 13.2735 8.85361C13.3767 9.25475 13.7856 9.49624 14.1867 9.39299C14.5879 9.28975 14.8294 8.88086 14.7261 8.47972C14.4978 7.59269 13.7007 6.93351 12.7452 6.91698C12.7039 6.54184 12.3859 6.25 11.9998 6.25C11.6132 6.25 11.295 6.54243 11.2542 6.91813Z" fill="#4E5964"/>
<path fill-rule="evenodd" clip-rule="evenodd" d="M4.3002 8.33819L4.30372 8.33953L4.30979 8.3419L4.31829 8.34538C4.32238 8.34713 4.32202 8.347 4.32202 8.347L4.31976 8.34587C4.69232 8.49801 4.87864 8.9198 4.73666 9.30033C4.59175 9.68874 4.15966 9.88707 3.77156 9.74332L3.77055 9.74294L3.76951 9.74256L3.76735 9.74175L3.76273 9.73999L3.75229 9.73591C3.74482 9.73294 3.7363 9.72945 3.72681 9.72541C3.70785 9.71734 3.68496 9.70702 3.65875 9.69418C3.6064 9.66854 3.54027 9.63256 3.46546 9.58384C3.31582 9.4864 3.12968 9.33681 2.95115 9.11642C2.58261 8.66149 2.29713 7.96796 2.34267 6.96613C2.38822 5.9643 2.73554 5.29769 3.14394 4.87581C3.34179 4.67144 3.54078 4.53823 3.69869 4.45387C3.77763 4.4117 3.84677 4.38147 3.90124 4.36037C3.92852 4.34981 3.95226 4.34147 3.97188 4.33504C3.9817 4.33182 3.9905 4.32907 3.99822 4.32674L4.00898 4.32357L4.01374 4.32221L4.01597 4.32159L4.01704 4.32129C4.01704 4.32129 4.01808 4.321 3.99822 4.32674L4.01808 4.321C4.41772 4.21076 4.83015 4.44502 4.93926 4.84424C5.04615 5.23535 4.82227 5.63969 4.43735 5.75961C4.432 5.7618 4.41988 5.76705 4.40275 5.7762C4.3618 5.79807 4.29408 5.8412 4.22048 5.91723C4.08598 6.05617 3.87147 6.36663 3.84132 7.02988C3.81117 7.69314 3.99667 8.02062 4.11804 8.17044C4.18445 8.25242 4.248 8.30114 4.2868 8.3264C4.30304 8.33698 4.31464 8.34324 4.31976 8.34587C4.31271 8.34299 4.30559 8.3402 4.2984 8.33752L4.3002 8.33819Z" fill="#4E5964"/>
<path d="M19.2862 9.40256C19.1206 9.0312 19.2802 8.59938 19.6426 8.42568C19.6475 8.42275 19.6587 8.41584 19.6742 8.40435C19.7113 8.37688 19.7717 8.32455 19.8329 8.23882C19.9447 8.08214 20.1094 7.74429 20.0378 7.08384C19.9662 6.42339 19.7326 6.12594 19.5897 5.9951C19.5114 5.92351 19.4412 5.88444 19.3989 5.86501C19.3813 5.85689 19.3689 5.85236 19.3634 5.8505C18.9716 5.75329 18.7229 5.36289 18.8053 4.96638C18.8893 4.56164 19.2865 4.3038 19.6924 4.39047L19.7017 4.39251C20 4.5 19.6935 4.3907 19.6935 4.3907L19.6946 4.39094L19.6968 4.39143L19.7017 4.39251L19.7126 4.39505C19.7205 4.39692 19.7294 4.39915 19.7394 4.40179C19.7594 4.40707 19.7837 4.414 19.8116 4.42295C19.8673 4.44083 19.9382 4.46696 20.0196 4.50444C20.1826 4.57942 20.3895 4.70075 20.5998 4.89317C21.0338 5.29035 21.4221 5.93532 21.5302 6.93247C21.6383 7.92962 21.3967 8.63847 21.0573 9.1141C20.8929 9.34452 20.7165 9.50474 20.5732 9.61078C20.5015 9.66379 20.4378 9.70358 20.3871 9.73225C20.3617 9.74661 20.3395 9.75825 20.3211 9.76742L20.3011 9.77715L20.2963 9.7794L20.2861 9.78408L20.2816 9.78611L20.2795 9.78704L20.2785 9.78749C20.2785 9.78749 20.3211 9.76742 20.2775 9.78793C19.899 9.95416 19.4552 9.78163 19.2862 9.40256Z" fill="#4E5964"/>
<path d="M9.76359 19.2885C10.1478 19.1604 10.5624 19.3606 10.7031 19.7368C10.7054 19.7416 10.7105 19.7515 10.7188 19.7652C10.741 19.8014 10.7856 19.8635 10.8639 19.9306C11.0077 20.0538 11.3301 20.25 12.0008 20.25C12.6714 20.25 12.9938 20.0538 13.1377 19.9306C13.216 19.8635 13.2606 19.8014 13.2827 19.7652C13.291 19.7515 13.2961 19.7416 13.2984 19.7368C13.4391 19.3606 13.8537 19.1604 14.2379 19.2885C14.6309 19.4195 14.8433 19.8442 14.7123 20.2372L14.7119 20.2382L14.7116 20.2393L14.7108 20.2415L14.7092 20.2463L14.7054 20.257C14.7026 20.2647 14.6994 20.2734 14.6956 20.2831C14.6881 20.3024 14.6785 20.3256 14.6665 20.3521C14.6425 20.4051 14.6088 20.4718 14.5626 20.5473C14.4701 20.6986 14.3272 20.8865 14.1139 21.0694C13.6743 21.4462 12.9968 21.75 12.0008 21.75C11.0047 21.75 10.3272 21.4462 9.88766 21.0694C9.67429 20.8865 9.53139 20.6986 9.43892 20.5473C9.39274 20.4718 9.35897 20.4051 9.335 20.3521C9.32301 20.3256 9.31341 20.3024 9.3059 20.2831L9.29998 20.2675L9.29615 20.257L9.29236 20.2463L9.29072 20.2415L9.28996 20.2393L9.2896 20.2382L9.28925 20.2372C9.15826 19.8442 9.37063 19.4195 9.76359 19.2885Z" fill="#4E5964"/>
</svg>
