<svg width="24" height="24" viewBox="0 0 24 24" fill="none" xmlns="http://www.w3.org/2000/svg">
<path fill-rule="evenodd" clip-rule="evenodd" d="M16.25 17H7.75V13H16.25V17ZM9 15.25C9 14.8358 9.33579 14.5 9.75 14.5H14.25C14.6642 14.5 15 14.8358 15 15.25C15 15.6642 14.6642 16 14.25 16H9.75C9.33579 16 9 15.6642 9 15.25Z" fill="#4E5964"/>
<path d="M10.75 17.5C10.3358 17.5 10 17.8358 10 18.25C10 18.6642 10.3358 19 10.75 19H13.25C13.6642 19 14 18.6642 14 18.25C14 17.8358 13.6642 17.5 13.25 17.5H10.75Z" fill="#4E5964"/>
<path fill-rule="evenodd" clip-rule="evenodd" d="M6.25 7H5.5C4.11929 7 3 8.11929 3 9.5V14.5C3 15.8807 4.11929 17 5.5 17H6.25V18.5C6.25 20.2949 7.70507 21.75 9.5 21.75H14.5C16.2949 21.75 17.75 20.2949 17.75 18.5V17H18.5C19.8807 17 21 15.8807 21 14.5V9.5C21 8.11929 19.8807 7 18.5 7H17.75V5.5C17.75 3.70507 16.2949 2.25 14.5 2.25H9.5C7.70507 2.25 6.25 3.70507 6.25 5.5V7ZM7.75 7H16.25V5.5C16.25 4.5335 15.4665 3.75 14.5 3.75H9.5C8.5335 3.75 7.75 4.5335 7.75 5.5V7ZM16.25 17H17.75V13H18.25C18.6642 13 19 12.6642 19 12.25C19 11.8358 18.6642 11.5 18.25 11.5H5.75C5.33579 11.5 5 11.8358 5 12.25C5 12.6642 5.33579 13 5.75 13H6.25V17H7.75V18.5C7.75 19.4665 8.5335 20.25 9.5 20.25H14.5C15.4665 20.25 16.25 19.4665 16.25 18.5V17ZM16.5 9.25C16.5 8.83579 16.8358 8.5 17.25 8.5H17.75C18.1642 8.5 18.5 8.83579 18.5 9.25C18.5 9.66421 18.1642 10 17.75 10H17.25C16.8358 10 16.5 9.66421 16.5 9.25Z" fill="#4E5964"/>
</svg>
