<svg width="25" height="25" viewBox="0 0 25 25" fill="none" xmlns="http://www.w3.org/2000/svg">
<path fill-rule="evenodd" clip-rule="evenodd" d="M6.77627 12.5275C4.29104 12.5269 2.27593 14.5411 2.27539 17.0264C2.27485 19.5116 4.28907 21.5267 6.77429 21.5272C9.25952 21.5278 11.2746 19.5135 11.2752 17.0283C11.2752 16.6846 11.2368 16.3499 11.1639 16.0282L12.8865 16.0286C12.8134 16.3502 12.7755 16.6849 12.7754 17.0287C12.7748 19.5139 14.7891 21.529 17.2743 21.5296C19.7595 21.5301 21.7746 19.5159 21.7752 17.0306C21.7757 14.5454 19.7615 12.5303 17.2763 12.5298C15.7162 12.5294 14.3413 13.323 13.5338 14.5287L10.5178 14.528C9.71085 13.322 8.33636 12.5278 6.77627 12.5275ZM17.1772 15.4266C17.2831 15.0261 17.6936 14.7873 18.094 14.8932C19.2281 15.193 19.9045 16.3554 19.6047 17.4896C19.4988 17.89 19.0884 18.1288 18.6879 18.023C18.2874 17.9171 18.0486 17.5067 18.1545 17.1062C18.2426 16.773 18.0439 16.4315 17.7107 16.3434C17.3102 16.2375 17.0714 15.8271 17.1772 15.4266Z" fill="#4E5964"/>
<path d="M4.37238 10.5267L3.02791 10.5264C2.6137 10.5263 2.27784 10.862 2.27775 11.2762C2.27766 11.6904 2.61337 12.0263 3.02759 12.0264L4.16935 12.0266L4.16935 12.0303L18.5296 12.0303C18.5413 12.0303 18.5529 12.0301 18.5645 12.0298L21.0271 12.0303C21.4413 12.0304 21.7771 11.6947 21.7772 11.2805C21.7773 10.8663 21.4416 10.5304 21.0274 10.5303L19.6819 10.53L19.0158 5.62845C18.8589 4.47387 18.275 3.51247 17.4425 2.97483C16.5923 2.42582 15.5147 2.34928 14.5528 2.94389L12.6604 4.11369C12.2546 4.36453 11.8024 4.36443 11.3967 4.11341L9.50483 2.94279C8.54318 2.34776 7.46554 2.42382 6.61516 2.97246C5.78241 3.50973 5.19804 4.47088 5.04063 5.62539L4.37238 10.5267Z" fill="#4E5964"/>
</svg>
