<svg width="24" height="24" viewBox="0 0 24 24" fill="none" xmlns="http://www.w3.org/2000/svg">
<path fill-rule="evenodd" clip-rule="evenodd" d="M6.75283 12.2518C4.26761 12.2513 2.2525 14.2655 2.25195 16.7507C2.25141 19.2359 4.26564 21.2511 6.75086 21.2516C9.23608 21.2521 11.2512 19.2379 11.2517 16.7527C11.2518 16.409 11.2133 16.0742 11.1404 15.7526L12.8631 15.7529C12.79 16.0746 12.752 16.4093 12.752 16.753C12.7514 19.2383 14.7656 21.2534 17.2509 21.2539C19.7361 21.2545 21.7512 19.2402 21.7517 16.755C21.7523 14.2698 19.738 12.2547 17.2528 12.2541C15.6927 12.2538 14.3179 13.0474 13.5104 14.2531L10.4944 14.2524C9.68741 13.0464 8.31292 12.2522 6.75283 12.2518ZM17.1538 15.151C17.2597 14.7505 17.6701 14.5117 18.0706 14.6176C19.2047 14.9174 19.881 16.0798 19.5812 17.2139C19.4754 17.6144 19.0649 17.8532 18.6645 17.7473C18.264 17.6415 18.0252 17.231 18.1311 16.8306C18.2191 16.4974 18.0204 16.1558 17.6872 16.0677C17.2868 15.9619 17.0479 15.5514 17.1538 15.151Z" fill="#4E5964"/>
<path d="M4.34895 10.251L3.00448 10.2507C2.59026 10.2506 2.2544 10.5864 2.25431 11.0006C2.25422 11.4148 2.58994 11.7506 3.00415 11.7507L4.14591 11.751L4.14591 11.7546L18.5061 11.7546C18.5178 11.7546 18.5295 11.7545 18.5411 11.7541L21.0036 11.7547C21.4178 11.7548 21.7537 11.4191 21.7538 11.0048C21.7539 10.5906 21.4182 10.2548 21.0039 10.2547L19.6585 10.2544L18.9924 5.35282C18.8355 4.19823 18.2515 3.23684 17.419 2.6992C16.5689 2.15018 15.4913 2.07365 14.5294 2.66826L12.637 3.83805C12.2312 4.0889 11.7789 4.0888 11.3733 3.83778L9.48139 2.66715C8.51974 2.07212 7.4421 2.14818 6.59172 2.69682C5.75897 3.2341 5.1746 4.19524 5.01719 5.34976L4.34895 10.251Z" fill="#4E5964"/>
</svg>
