<svg width="24" height="24" viewBox="0 0 24 24" fill="none" xmlns="http://www.w3.org/2000/svg">
<path d="M12 8C13.6569 8 15 6.65685 15 5C15 3.34315 13.6569 2 12 2C10.3431 2 9 3.34315 9 5C9 6.65685 10.3431 8 12 8Z" fill="#4E5964"/>
<path d="M8 11C5.79086 11 4 12.7909 4 15V16.5C4 19.5376 6.46243 22 9.5 22H14.5C17.5376 22 20 19.5376 20 16.5V15C20 12.7909 18.2091 11 16 11H8Z" fill="#4E5964"/>
<path d="M12 8C13.6569 8 15 6.65685 15 5C15 3.34315 13.6569 2 12 2C10.3431 2 9 3.34315 9 5C9 6.65685 10.3431 8 12 8Z" stroke="#4E5964" stroke-width="1.5"/>
<path d="M8 11C5.79086 11 4 12.7909 4 15V16.5C4 19.5376 6.46243 22 9.5 22H14.5C17.5376 22 20 19.5376 20 16.5V15C20 12.7909 18.2091 11 16 11H8Z" stroke="#4E5964" stroke-width="1.5"/>
</svg>
