<svg width="24" height="24" viewBox="0 0 24 24" fill="none" xmlns="http://www.w3.org/2000/svg">
<path fill-rule="evenodd" clip-rule="evenodd" d="M12 8C13.6569 8 15 6.65685 15 5C15 3.34315 13.6569 2 12 2C10.3431 2 9 3.34315 9 5C9 6.65685 10.3431 8 12 8ZM8 11C5.79086 11 4 12.7909 4 15V16.5C4 19.5376 6.46243 22 9.5 22H14.5C17.5376 22 20 19.5376 20 16.5V15C20 12.7909 18.2091 11 16 11H8Z" fill="#4E5964"/>
<path fill-rule="evenodd" clip-rule="evenodd" d="M12 2.75C10.7574 2.75 9.75 3.75736 9.75 5C9.75 6.24264 10.7574 7.25 12 7.25C13.2426 7.25 14.25 6.24264 14.25 5C14.25 3.75736 13.2426 2.75 12 2.75ZM8.25 5C8.25 2.92893 9.92893 1.25 12 1.25C14.0711 1.25 15.75 2.92893 15.75 5C15.75 7.07107 14.0711 8.75 12 8.75C9.92893 8.75 8.25 7.07107 8.25 5ZM8 11.75C6.20507 11.75 4.75 13.2051 4.75 15V16.5C4.75 19.1234 6.87665 21.25 9.5 21.25H14.5C17.1234 21.25 19.25 19.1234 19.25 16.5V15C19.25 13.2051 17.7949 11.75 16 11.75H8ZM3.25 15C3.25 12.3766 5.37665 10.25 8 10.25H16C18.6234 10.25 20.75 12.3766 20.75 15V16.5C20.75 19.9518 17.9518 22.75 14.5 22.75H9.5C6.04822 22.75 3.25 19.9518 3.25 16.5V15Z" fill="#4E5964"/>
</svg>
