<svg width="24" height="24" viewBox="0 0 24 24" fill="none" xmlns="http://www.w3.org/2000/svg">
<path fill-rule="evenodd" clip-rule="evenodd" d="M8.25076 7C8.25076 4.92893 9.9297 3.25 12.0008 3.25C14.0718 3.25 15.7508 4.92893 15.7508 7C15.7508 9.07107 14.0718 10.75 12.0008 10.75C9.9297 10.75 8.25076 9.07107 8.25076 7Z" fill="#4E5964"/>
<path fill-rule="evenodd" clip-rule="evenodd" d="M8.68384 12.8277C9.73784 12.4457 10.8647 12.25 12.0009 12.25C13.137 12.25 14.2639 12.4457 15.3179 12.8277C16.3719 13.2097 17.3355 13.7717 18.1516 14.4858C18.9679 15.2001 19.6215 16.0534 20.0698 17.0003C20.4693 17.8443 20.6977 18.746 20.7426 19.6634C20.7729 20.2813 20.2705 20.75 19.7009 20.75H4.30087C3.73124 20.75 3.22884 20.2813 3.25911 19.6634C3.30407 18.746 3.5324 17.8443 3.93195 17.0003C4.38019 16.0534 5.03387 15.2001 5.85014 14.4858C6.66622 13.7718 7.62983 13.2097 8.68384 12.8277Z" fill="#4E5964"/>
</svg>
