<svg width="24" height="24" viewBox="0 0 24 24" fill="none" xmlns="http://www.w3.org/2000/svg">
<path d="M16.5 2.25C19.3995 2.25 21.75 4.60051 21.75 7.5V16.5C21.75 19.3995 19.3995 21.75 16.5 21.75H7.5C4.60051 21.75 2.25 19.3995 2.25 16.5V7.5C2.25 4.60051 4.60051 2.25 7.5 2.25H16.5ZM9.75195 8C9.584 8.00002 9.50002 8.084 9.5 8.25195V15.4639C9.5 15.6319 9.58398 15.7158 9.75195 15.7158H10.7725C10.9402 15.7157 11.0244 15.6317 11.0244 15.4639V13.0039C11.0244 12.916 11.072 12.8721 11.168 12.8721H11.9717L13.1719 15.4639C13.2119 15.5679 13.2641 15.636 13.3281 15.668C13.3921 15.6999 13.4959 15.7158 13.6396 15.7158H14.6123C14.8201 15.7157 14.8884 15.6196 14.8164 15.4277L13.5322 12.752V12.7041C14.244 12.4081 14.5995 11.8081 14.5996 10.9043V9.96777C14.5996 9.34388 14.4242 8.85958 14.0723 8.51562C13.7203 8.17173 13.2322 8.00007 12.6084 8H9.75195ZM12.332 9.32031C12.588 9.32032 12.7765 9.37629 12.8965 9.48828C13.0162 9.60031 13.0762 9.7806 13.0762 10.0283V10.9639C13.0762 11.2038 13.0164 11.3802 12.8965 11.4922C12.7765 11.5962 12.588 11.6484 12.332 11.6484H11.1562C11.0682 11.6484 11.0244 11.6036 11.0244 11.5156V9.45215C11.0244 9.36415 11.0682 9.32031 11.1562 9.32031H12.332Z" fill="#4E5964"/>
</svg>
