<svg width="24" height="24" viewBox="0 0 24 24" fill="none" xmlns="http://www.w3.org/2000/svg">
<path d="M17.25 7C17.25 5.20507 15.7949 3.75 14 3.75H6.75V13.1055C6.87558 13.0107 7.03074 12.9531 7.2002 12.9531H14C15.7948 12.9531 17.2498 11.4979 17.25 9.70312V7ZM18.75 9.70312C18.7498 12.2861 16.6878 14.3855 14.1201 14.4492L17.6514 20.6279C17.8568 20.9876 17.7317 21.4459 17.3721 21.6514C17.0124 21.8568 16.5541 21.7317 16.3486 21.3721L12.3945 14.4531H7.2002C7.0305 14.4531 6.87567 14.3938 6.75 14.2988V21C6.75 21.4142 6.41421 21.75 6 21.75C5.58579 21.75 5.25 21.4142 5.25 21V3C5.25 2.58579 5.58579 2.25 6 2.25H14C16.6234 2.25 18.75 4.37665 18.75 7V9.70312Z" fill="#4E5964"/>
</svg>
