<svg width="24" height="24" viewBox="0 0 24 24" fill="none" xmlns="http://www.w3.org/2000/svg">
<path fill-rule="evenodd" clip-rule="evenodd" d="M7.5 2.25C4.60051 2.25 2.25 4.60051 2.25 7.5V16.5C2.25 19.3995 4.60051 21.75 7.5 21.75H16.5C19.3995 21.75 21.75 19.3995 21.75 16.5V7.5C21.75 4.60051 19.3995 2.25 16.5 2.25H7.5ZM9.38462 7.25C8.9704 7.25 8.63462 7.58579 8.63462 8C8.63462 8.41421 8.9704 8.75 9.38462 8.75H13.8463C14.532 8.75 15.0963 9.31459 15.0963 10.0097C15.0963 10.6941 14.5406 11.25 13.8655 11.25H10.1348V11C10.1348 10.5858 9.79898 10.25 9.38477 10.25C8.97055 10.25 8.63477 10.5858 8.63477 11V15.5789C8.63477 15.9932 8.97055 16.3289 9.38477 16.3289C9.79898 16.3289 10.1348 15.9932 10.1348 15.5789V12.75H11.5982L15.3847 16.1379C15.6934 16.4141 16.1675 16.3877 16.4437 16.079C16.7199 15.7704 16.6936 15.2962 16.3849 15.02L13.8478 12.75H13.8655C15.3784 12.75 16.5963 11.5131 16.5963 10.0097C16.5963 8.49559 15.3698 7.25 13.8463 7.25H9.38462Z" fill="#4E5964"/>
</svg>
