<svg width="24" height="24" viewBox="0 0 24 24" fill="none" xmlns="http://www.w3.org/2000/svg">
<path d="M9.77835 13.8599C9.9862 13.5079 10.4397 13.3909 10.792 13.5982C11.1774 13.8252 11.6163 13.9468 12.0635 13.9507C12.5108 13.9546 12.9515 13.8409 13.3409 13.6207C13.6969 13.4192 14.1489 13.5441 14.3506 13.9L17.5909 19.6187C17.6877 19.7897 17.7125 19.9928 17.6602 20.1822C17.6077 20.3715 17.4816 20.5327 17.3106 20.6294C15.6897 21.5465 13.8554 22.0206 11.9932 22.0044C10.1311 21.9882 8.30574 21.4817 6.7012 20.5367C6.53204 20.4369 6.40854 20.2737 6.35941 20.0835C6.31047 19.8935 6.33985 19.6911 6.43948 19.522L9.77835 13.8599Z" fill="#4E5964"/>
<path d="M12.0703 9.50054C13.1362 9.50066 14 10.3644 14 11.4302C14 12.496 13.1361 13.3598 12.0703 13.3599C11.0044 13.3599 10.1397 12.4961 10.1397 11.4302C10.1397 10.3643 11.0044 9.50054 12.0703 9.50054Z" fill="#4E5964"/>
<path d="M16.4278 2.46148C16.6356 2.10926 17.09 1.9922 17.4424 2.19976C19.0462 3.14446 20.373 4.49499 21.2901 6.1148C22.207 7.7346 22.6823 9.567 22.667 11.4283C22.6654 11.6248 22.5854 11.8129 22.4453 11.9507C22.3052 12.0885 22.1155 12.1644 21.919 12.1627L15.3409 12.106C15.1444 12.1042 14.9561 12.0245 14.8184 11.8843C14.6807 11.7441 14.6037 11.5545 14.6055 11.358C14.6096 10.9105 14.4967 10.4692 14.2764 10.0796C14.0561 9.69019 13.7371 9.36533 13.3516 9.13824C13.1822 9.03847 13.059 8.87543 13.0098 8.68511C12.9608 8.49515 12.9894 8.29364 13.0889 8.12456L16.4278 2.46148Z" fill="#4E5964"/>
<path d="M6.83304 2.10796C7.18903 1.90655 7.64108 2.03149 7.8428 2.38726L11.083 8.10699C11.1795 8.27767 11.2045 8.47951 11.1524 8.66851C11.0999 8.85793 10.9738 9.01895 10.8028 9.11577C10.4133 9.33611 10.0894 9.65601 9.86234 10.0416C9.6353 10.4273 9.51341 10.8664 9.5098 11.314C9.50817 11.5106 9.42827 11.6987 9.28812 11.8365C9.14795 11.9742 8.95829 12.0501 8.76175 12.0484L2.18363 11.9918C1.98711 11.99 1.79889 11.9103 1.66116 11.7701C1.52343 11.6298 1.44745 11.4403 1.44925 11.2437C1.46635 9.38239 1.97295 7.55828 2.918 5.95464C3.86301 4.35116 5.21318 3.0246 6.83304 2.10796Z" fill="#4E5964"/>
</svg>
