<svg width="24" height="25" viewBox="0 0 24 25" fill="none" xmlns="http://www.w3.org/2000/svg">
<path d="M7.63272 5.27666C9.24272 4.27208 11.1498 3.85325 13.0326 4.09077C13.4435 4.14262 13.8187 3.8515 13.8706 3.44054C13.9224 3.02959 13.6313 2.65441 13.2203 2.60257C10.9952 2.32186 8.74139 2.81684 6.83867 4.00407C4.93595 5.1913 3.5007 6.99819 2.77481 9.12021C2.04893 11.2422 2.07679 13.5496 2.85372 15.6535C3.32639 16.9334 4.05872 18.0904 4.9946 19.0573C5.10922 19.2312 5.26176 19.3771 5.43625 19.4856C5.92596 19.9315 6.46275 20.3289 7.03996 20.67C8.9708 21.8109 11.2359 22.2513 13.4536 21.9169C15.6713 21.5826 17.7059 20.4939 19.2145 18.8344C20.7231 17.1749 21.6135 15.046 21.7355 12.8066C21.8576 10.5672 21.2039 8.35415 19.8846 6.54049C19.641 6.20552 19.1719 6.1315 18.8369 6.37516C18.502 6.61882 18.428 7.08789 18.6716 7.42286C19.7879 8.95749 20.3411 10.8301 20.2378 12.7249C20.161 14.1324 19.7257 15.4883 18.9837 16.6681C18.821 16.234 18.581 15.8467 18.2555 15.5212C17.5666 14.8323 16.6012 14.5264 15.5003 14.5264H8.5003C7.42233 14.5264 6.52288 14.9302 5.87452 15.6202C5.54861 15.967 5.29641 16.3747 5.11427 16.82C4.76836 16.2959 4.48124 15.7307 4.26084 15.1339C3.60344 13.3537 3.57986 11.4013 4.19407 9.6057C4.80828 7.81014 6.02273 6.28124 7.63272 5.27666Z" fill="#4E5964"/>
<path d="M16.4961 2.5259C16.9103 2.5259 17.2461 2.86168 17.2461 3.2759V4.02297L17.9937 4.02297C18.4079 4.02297 18.7437 4.35875 18.7437 4.77297C18.7437 5.18718 18.4079 5.52297 17.9937 5.52297H17.2461V6.26958C17.2461 6.68379 16.9103 7.01958 16.4961 7.01958C16.0819 7.01958 15.7461 6.68379 15.7461 6.26958V5.52297H15C14.5858 5.52297 14.25 5.18718 14.25 4.77297C14.25 4.35875 14.5858 4.02297 15 4.02297L15.7461 4.02297V3.2759C15.7461 2.86168 16.0819 2.5259 16.4961 2.5259Z" fill="#4E5964"/>
<path d="M8.25 10.2764C8.25 8.20532 9.92893 6.52638 12 6.52638C14.0711 6.52638 15.75 8.20532 15.75 10.2764C15.75 12.3475 14.0711 14.0264 12 14.0264C9.92893 14.0264 8.25 12.3475 8.25 10.2764Z" fill="#4E5964"/>
</svg>
