<svg width="24" height="24" viewBox="0 0 24 24" fill="none" xmlns="http://www.w3.org/2000/svg">
<path d="M7.63272 5.00102C9.24272 3.99644 11.1498 3.57762 13.0326 3.81514C13.4435 3.86698 13.8187 3.57586 13.8706 3.16491C13.9224 2.75395 13.6313 2.37878 13.2203 2.32693C10.9952 2.04623 8.74139 2.5412 6.83867 3.72843C4.93595 4.91566 3.5007 6.72256 2.77481 8.84457C2.04893 10.9666 2.07679 13.274 2.85372 15.3778C3.32639 16.6578 4.05872 17.8148 4.9946 18.7816C5.10922 18.9556 5.26176 19.1014 5.43625 19.21C5.92596 19.6558 6.46275 20.0533 7.03996 20.3943C8.9708 21.5353 11.2359 21.9757 13.4536 21.6413C15.6713 21.3069 17.7059 20.2182 19.2145 18.5587C20.7231 16.8992 21.6135 14.7704 21.7355 12.531C21.8576 10.2915 21.2039 8.07851 19.8846 6.26485C19.641 5.92989 19.1719 5.85587 18.8369 6.09953C18.502 6.34319 18.428 6.81226 18.6716 7.14722C19.7879 8.68186 20.3411 10.5544 20.2378 12.4493C20.161 13.8568 19.7257 15.2126 18.9837 16.3925C18.821 15.9583 18.581 15.5711 18.2555 15.2455C17.5666 14.5567 16.6012 14.2507 15.5003 14.2507H8.5003C7.42233 14.2507 6.52288 14.6545 5.87452 15.3445C5.54861 15.6914 5.29641 16.0991 5.11427 16.5444C4.76836 16.0203 4.48124 15.455 4.26084 14.8582C3.60344 13.078 3.57986 11.1256 4.19407 9.33006C4.80828 7.53451 6.02273 6.0056 7.63272 5.00102Z" fill="#4E5964"/>
<path d="M16.4961 2.25026C16.9103 2.25026 17.2461 2.58605 17.2461 3.00026V3.74733L17.9937 3.74733C18.4079 3.74733 18.7437 4.08312 18.7437 4.49733C18.7437 4.91155 18.4079 5.24733 17.9937 5.24733H17.2461V5.99394C17.2461 6.40816 16.9103 6.74394 16.4961 6.74394C16.0819 6.74394 15.7461 6.40816 15.7461 5.99394V5.24733H15C14.5858 5.24733 14.25 4.91155 14.25 4.49733C14.25 4.08312 14.5858 3.74733 15 3.74733L15.7461 3.74733V3.00026C15.7461 2.58605 16.0819 2.25026 16.4961 2.25026Z" fill="#4E5964"/>
<path d="M8.25 10.0008C8.25 7.92968 9.92893 6.25075 12 6.25075C14.0711 6.25075 15.75 7.92968 15.75 10.0008C15.75 12.0718 14.0711 13.7507 12 13.7507C9.92893 13.7507 8.25 12.0718 8.25 10.0008Z" fill="#4E5964"/>
</svg>
