<svg width="24" height="24" viewBox="0 0 24 24" fill="none" xmlns="http://www.w3.org/2000/svg">
<path d="M3.39535 12C3.39535 7.24861 7.21504 3.39535 12 3.39535C14.8952 3.39535 17.0681 4.59907 18.531 5.81946C19.1004 6.29448 19.5591 6.76967 19.9063 7.17209H17.1721C16.7868 7.17209 16.4744 7.48445 16.4744 7.86977C16.4744 8.25508 16.7868 8.56744 17.1721 8.56744H21.3023C21.6876 8.56744 22 8.25508 22 7.86977V3.2186C22 2.83329 21.6876 2.52093 21.3023 2.52093C20.917 2.52093 20.6047 2.83329 20.6047 3.2186V5.86234C20.2751 5.51056 19.8819 5.12931 19.4248 4.74798C17.7878 3.38233 15.3095 2 12 2C6.44077 2 2 6.48162 2 12C2 12.3853 2.31236 12.6977 2.69767 12.6977C3.08299 12.6977 3.39535 12.3853 3.39535 12Z" fill="#4E5964"/>
<path d="M22 12C22 11.6147 21.6876 11.3023 21.3023 11.3023C20.917 11.3023 20.6047 11.6147 20.6047 12C20.6047 16.7496 16.7496 20.6047 12 20.6047C9.67485 20.6047 7.76792 19.4327 6.40825 18.1995C5.8776 17.7182 5.4399 17.2359 5.10428 16.8279H7.93488C8.3202 16.8279 8.63256 16.5155 8.63256 16.1302C8.63256 15.7449 8.3202 15.4326 7.93488 15.4326H3.73023C3.34492 15.4326 3.03256 15.7449 3.03256 16.1302V20.7814C3.03256 21.1667 3.34492 21.4791 3.73023 21.4791C4.11555 21.4791 4.42791 21.1667 4.42791 20.7814V18.1818C4.72647 18.5153 5.07492 18.874 5.47082 19.2331C6.96231 20.5859 9.19027 22 12 22C17.5202 22 22 17.5202 22 12Z" fill="#4E5964"/>
</svg>
