<svg width="24" height="24" viewBox="0 0 24 24" fill="none" xmlns="http://www.w3.org/2000/svg">
<path fill-rule="evenodd" clip-rule="evenodd" d="M20.901 11.25C21.3152 11.25 21.651 11.5858 21.651 12C21.651 17.3822 17.2832 21.75 11.901 21.75C9.15654 21.75 6.98374 20.3688 5.53363 19.0535C5.20495 18.7554 4.90993 18.4576 4.65 18.1751V20.496C4.65 20.9102 4.31421 21.246 3.9 21.246C3.48579 21.246 3.15 20.9102 3.15 20.496V15.996C3.15 15.5818 3.48579 15.246 3.9 15.246H7.968C8.38221 15.246 8.718 15.5818 8.718 15.996C8.718 16.4102 8.38221 16.746 7.968 16.746H5.38949C5.69722 17.1107 6.08333 17.527 6.54137 17.9425C7.84976 19.1292 9.67746 20.25 11.901 20.25C16.4548 20.25 20.151 16.5538 20.151 12C20.151 11.5858 20.4868 11.25 20.901 11.25Z" fill="#4E5964"/>
<path fill-rule="evenodd" clip-rule="evenodd" d="M12 3.46924C7.41217 3.46924 3.75 7.16349 3.75 11.7192C3.75 12.1335 3.41421 12.4692 3 12.4692C2.58579 12.4692 2.25 12.1335 2.25 11.7192C2.25 6.33898 6.57983 1.96924 12 1.96924C15.2242 1.96924 17.6383 3.31624 19.2316 4.64532C19.6179 4.96762 19.9573 5.28984 20.25 5.59329V3.22324C20.25 2.80902 20.5858 2.47324 21 2.47324C21.4142 2.47324 21.75 2.80902 21.75 3.22324V7.72324C21.75 8.13745 21.4142 8.47324 21 8.47324H17.004C16.5898 8.47324 16.254 8.13745 16.254 7.72324C16.254 7.30902 16.5898 6.97324 17.004 6.97324H19.484C19.1652 6.61463 18.7606 6.20582 18.2707 5.79716C16.8647 4.62424 14.7788 3.46924 12 3.46924Z" fill="#4E5964"/>
</svg>
