<svg width="24" height="24" viewBox="0 0 24 24" fill="none" xmlns="http://www.w3.org/2000/svg">
<path d="M12 2C17.5228 2 22 6.47715 22 12C22 17.5228 17.5228 22 12 22C6.47715 22 2 17.5228 2 12C2 6.47715 6.47715 2 12 2ZM10 7.75C9.58579 7.75 9.25 8.08579 9.25 8.5V15.5C9.25 15.9142 9.58579 16.25 10 16.25C10.4142 16.25 10.75 15.9142 10.75 15.5V13.4121H12.2207L13.627 15.8721C13.8324 16.2317 14.2908 16.3568 14.6504 16.1514C15.01 15.9459 15.1352 15.4876 14.9297 15.1279L13.873 13.2803C14.7715 12.9654 15.417 12.1124 15.417 11.1064V10.0557C15.417 8.78241 14.3846 7.75012 13.1113 7.75H10ZM13.1113 9.25C13.5561 9.25012 13.917 9.61084 13.917 10.0557V11.1064C13.917 11.5513 13.5561 11.912 13.1113 11.9121H10.75V9.25H13.1113Z" fill="#4E5964"/>
</svg>
