<svg width="24" height="24" viewBox="0 0 24 24" fill="none" xmlns="http://www.w3.org/2000/svg">
<path d="M6.79911 2.2504C7.64025 2.24168 8.43134 2.6066 9.00415 3.41651L9.01075 3.42584C9.45722 4.05711 10.0915 4.95384 10.3988 5.91666C10.7238 6.93489 10.7059 8.11602 9.73123 9.14184C9.38492 9.50632 9.28601 10.0453 9.51904 10.79C9.75356 11.5394 10.2975 12.3694 11.0115 13.0824C11.7263 13.7961 12.5472 14.3282 13.2754 14.5468C13.9935 14.7624 14.4949 14.6502 14.8313 14.2961C15.7481 13.3312 16.8902 13.28 17.8647 13.5226C18.7709 13.7482 19.6437 14.2509 20.2542 14.6026L20.3164 14.6384C21.1502 15.1181 21.6024 15.8416 21.7192 16.6522C21.831 17.4294 21.6284 18.2271 21.2876 18.9195C20.9441 19.6176 20.4334 20.2652 19.845 20.7593C19.2634 21.2477 18.5523 21.6299 17.8012 21.704C13.9651 22.0825 10.1655 20.1045 7.32063 17.2578C4.47338 14.4088 2.44709 10.5587 2.25365 6.95589C2.21345 6.20714 2.50973 5.44013 2.91996 4.79102C3.3379 4.12971 3.92262 3.51221 4.57766 3.05303C5.22534 2.599 6.00191 2.25866 6.79911 2.2504Z" fill="#4E5964"/>
<path d="M14.9072 5.90693C15.2001 5.61403 15.6749 5.61403 15.9678 5.90693L16.4961 6.43519L17.0244 5.90693C17.3173 5.61403 17.7921 5.61403 18.085 5.90693C18.3779 6.19982 18.3779 6.67469 18.085 6.96759L17.5568 7.49585L18.0847 8.02378C18.3776 8.31667 18.3776 8.79155 18.0847 9.08444C17.7918 9.37733 17.3169 9.37733 17.024 9.08444L16.4961 8.55651L15.9682 9.08444C15.6753 9.37733 15.2004 9.37733 14.9075 9.08444C14.6146 8.79155 14.6146 8.31667 14.9075 8.02378L15.4354 7.49585L14.9072 6.96759C14.6143 6.67469 14.6143 6.19982 14.9072 5.90693Z" fill="#4E5964"/>
</svg>
