<svg width="24" height="24" viewBox="0 0 24 24" fill="none" xmlns="http://www.w3.org/2000/svg">
<path fill-rule="evenodd" clip-rule="evenodd" d="M14.25 15.4971C14.25 15.0829 14.5858 14.7471 15 14.7471H17.9937C18.4079 14.7471 18.7437 15.0829 18.7437 15.4971C18.7437 15.9113 18.4079 16.2471 17.9937 16.2471H15C14.5858 16.2471 14.25 15.9113 14.25 15.4971ZM5.8125 2.25C3.84499 2.25 2.25 3.84498 2.25 5.8125V10.25H21.6998C21.3826 8.30142 19.6067 6.89111 17.6225 6.9102C16.5997 6.92003 15.499 6.89025 14.5309 6.77756C13.5303 6.6611 12.7897 6.46765 12.3991 6.22217C11.9362 5.93121 11.7735 5.66372 11.4173 5.07835L11.4168 5.0774C11.3749 5.00863 11.3304 4.93547 11.2824 4.85737C10.478 3.5482 9.14369 2.25 7.32296 2.25H5.8125ZM21.75 11.75H2.25V16.5C2.25 19.3995 4.60051 21.75 7.5 21.75H16.5C19.3995 21.75 21.75 19.3995 21.75 16.5V11.75Z" fill="#4E5964"/>
</svg>
