<svg width="24" height="25" viewBox="0 0 24 25" fill="none" xmlns="http://www.w3.org/2000/svg">
<path d="M6.79911 2.52603C7.64025 2.51731 8.43134 2.88224 9.00415 3.69214L9.01075 3.70148C9.45722 4.33274 10.0915 5.22947 10.3988 6.19229C10.7238 7.21052 10.7059 8.39166 9.73123 9.41748C9.38492 9.78196 9.28601 10.321 9.51904 11.0656C9.75356 11.815 10.2975 12.6451 11.0115 13.358C11.7263 14.0717 12.5472 14.6039 13.2754 14.8225C13.9935 15.0381 14.4949 14.9258 14.8313 14.5718C15.7481 13.6069 16.8902 13.5557 17.8647 13.7983C18.7709 14.0238 19.6437 14.5265 20.2542 14.8782L20.3164 14.914C21.1502 15.3938 21.6024 16.1172 21.7192 16.9278C21.831 17.705 21.6284 18.5028 21.2876 19.1951C20.9441 19.8932 20.4334 20.5408 19.845 21.0349C19.2634 21.5234 18.5523 21.9055 17.8012 21.9796C13.9651 22.3582 10.1655 20.3801 7.32063 17.5334C4.47338 14.6844 2.44709 10.8343 2.25365 7.23153C2.21345 6.48278 2.50973 5.71576 2.91996 5.06666C3.3379 4.40534 3.92262 3.78784 4.57766 3.32866C5.22534 2.87463 6.00191 2.5343 6.79911 2.52603Z" fill="#4E5964"/>
<path d="M14.9072 6.18256C15.2001 5.88967 15.6749 5.88967 15.9678 6.18256L16.4961 6.71082L17.0244 6.18256C17.3173 5.88967 17.7921 5.88967 18.085 6.18256C18.3779 6.47545 18.3779 6.95033 18.085 7.24322L17.5568 7.77148L18.0847 8.29941C18.3776 8.59231 18.3776 9.06718 18.0847 9.36007C17.7918 9.65297 17.3169 9.65297 17.024 9.36007L16.4961 8.83215L15.9682 9.36007C15.6753 9.65297 15.2004 9.65297 14.9075 9.36007C14.6146 9.06718 14.6146 8.59231 14.9075 8.29941L15.4354 7.77148L14.9072 7.24322C14.6143 6.95033 14.6143 6.47545 14.9072 6.18256Z" fill="#4E5964"/>
</svg>
