<svg width="24" height="24" viewBox="0 0 24 24" fill="none" xmlns="http://www.w3.org/2000/svg">
<path fill-rule="evenodd" clip-rule="evenodd" d="M8.875 8.25C6.20374 11.0614 13.0889 17.9257 15.75 15.125C17.2194 13.5785 19.3776 14.8206 20.7873 15.632L20.8248 15.6535C23.642 17.2746 20.8201 21.7103 18.3639 21.9527C10.5128 22.7273 2.40525 13.8454 2.00284 6.35049C1.87524 3.97379 6.07693 0.237529 7.99089 2.94371C9.0107 4.38563 10.506 6.53344 8.875 8.25ZM14.9072 5.90717C15.2001 5.61428 15.6749 5.61428 15.9678 5.90717L16.4961 6.43543L17.0244 5.90717C17.3173 5.61428 17.7921 5.61428 18.085 5.90717C18.3779 6.20006 18.3779 6.67494 18.085 6.96783L17.5568 7.49609L18.0847 8.02402C18.3776 8.31692 18.3776 8.79179 18.0847 9.08468C17.7918 9.37758 17.3169 9.37758 17.024 9.08468L16.4961 8.55675L15.9682 9.08468C15.6753 9.37758 15.2004 9.37758 14.9075 9.08468C14.6146 8.79179 14.6146 8.31692 14.9075 8.02402L15.4354 7.49609L14.9072 6.96783C14.6143 6.67494 14.6143 6.20006 14.9072 5.90717Z" fill="#4E5964"/>
</svg>
