<svg width="24" height="24" viewBox="0 0 24 24" fill="none" xmlns="http://www.w3.org/2000/svg">
<g clip-path="url(#clip0_14363_552)">
<path d="M3.40654 10.3811C3.79788 10.3816 4.11505 10.6995 4.1147 11.0908L4.11401 11.9407C4.11397 11.9771 4.10787 12.0126 4.10254 12.0475C4.10786 12.0827 4.11325 12.1183 4.11321 12.1549L4.11336 12.1791C4.11329 12.2401 4.15214 12.2953 4.21 12.3146L5.77535 12.8382C6.24066 12.9939 6.6058 13.3594 6.7606 13.825L6.92737 14.3264C7.07078 14.7582 7.01846 15.2314 6.78401 15.6214L6.05006 16.8424C6.01654 16.8981 6.02474 16.9704 6.07065 17.0165L6.8311 17.779C6.87705 17.825 6.95015 17.8339 7.00597 17.8005L8.22824 17.0682C8.6187 16.8348 9.0916 16.784 9.52304 16.9283L9.94179 17.0677C10.4895 17.251 10.8914 17.7224 10.9858 18.2922L11.2066 19.6291C11.2182 19.6971 11.2779 19.7463 11.3469 19.7465L13.178 19.7488C13.5693 19.7494 13.8865 20.0672 13.8861 20.4586C13.8857 20.8499 13.5678 21.167 13.1764 21.1667L11.3453 21.1644C10.5832 21.1635 9.93259 20.6122 9.80795 19.8604L9.58643 18.5242C9.57787 18.4726 9.54222 18.4296 9.49271 18.4128L9.07324 18.2727C9.03418 18.2597 8.9916 18.2641 8.95621 18.2851L7.73389 19.016C7.11988 19.3835 6.3337 19.2865 5.82828 18.78L5.06783 18.0175C4.56241 17.511 4.46656 16.7249 4.83538 16.1117L5.56933 14.8907C5.59043 14.8553 5.59547 14.8125 5.58251 14.7734L5.41574 14.2721C5.40161 14.2299 5.36775 14.1968 5.32555 14.1827L3.75948 13.6584C3.12326 13.4452 2.69472 12.8486 2.69547 12.1776L2.69531 12.1534C2.69535 12.1168 2.70067 12.081 2.70607 12.0459C2.70083 12.011 2.69607 11.9755 2.69612 11.9391L2.69681 11.0892C2.69734 10.6979 3.01512 10.3806 3.40654 10.3811Z" fill="#4E5964"/>
<path d="M7.49289 11.5089C7.88065 11.4567 8.23821 11.729 8.29077 12.1167C8.38531 12.8176 8.70125 13.4705 9.19196 13.9798C9.68264 14.4889 10.3228 14.8291 11.0196 14.9496C11.4051 15.0164 11.6642 15.3833 11.5975 15.7689C11.5307 16.1545 11.1632 16.4128 10.7775 16.3462C9.78375 16.1743 8.87041 15.6896 8.17056 14.9635C7.47078 14.2371 7.01995 13.3064 6.8851 12.3068C6.83286 11.919 7.10513 11.5614 7.49289 11.5089Z" fill="#4E5964"/>
<path d="M9.89712 5.3334L9.92441 5.36285C10.6666 6.1848 10.9316 7.2668 10.75 8.28506C10.7702 8.30216 10.7929 8.31971 10.8113 8.33958L15.6101 13.5219C16.6526 13.4057 17.7293 13.7545 18.5024 14.5685C18.5058 14.5719 18.512 14.5769 18.5153 14.5805L18.5311 14.5979C19.1983 15.3337 19.5057 16.327 19.3828 17.3174L19.3812 17.332L19.3423 17.504C19.2611 17.7758 19.0864 18.0088 18.857 18.1691L17.503 16.7129C17.3526 16.5517 17.1 16.5426 16.9384 16.6926L16.4258 17.1693C16.2644 17.3197 16.2541 17.5736 16.4041 17.7352L17.6806 19.1071L17.649 19.1711C17.437 19.5193 17.0632 19.7479 16.6473 19.7685L16.632 19.7677C15.6333 19.793 14.6738 19.3885 14.0068 18.6509C14.0039 18.647 14.0017 18.6403 13.9987 18.6367C13.9939 18.632 13.9874 18.627 13.9829 18.6221C13.2305 17.7515 12.9967 16.6116 13.2438 15.5642C13.2244 15.5476 13.2031 15.5315 13.1854 15.5123L8.53445 10.4893C7.46184 10.6669 6.32901 10.35 5.51097 9.52467C5.50629 9.5197 5.5018 9.51293 5.49725 9.50787C5.49363 9.50449 5.48782 9.5008 5.48444 9.49727C4.80131 8.7763 4.47097 7.7905 4.57268 6.79779L4.57491 6.78251C4.62889 6.35908 4.89788 5.99713 5.27633 5.81691L6.63828 7.28181C6.78868 7.44323 7.04184 7.4529 7.20353 7.30281L7.71613 6.8261C7.87762 6.67572 7.88652 6.4219 7.73643 6.26019L6.34148 4.76052C6.51945 4.52913 6.77369 4.36274 7.06194 4.30003L7.23665 4.27734L7.25245 4.27472C8.24898 4.22795 9.21498 4.61192 9.89712 5.3334Z" fill="#4E5964"/>
<path d="M15.3341 8.5698C16.0379 9.29242 16.4929 10.2216 16.6331 11.2205C16.6875 11.6081 16.4178 11.9671 16.0303 12.0217C15.6428 12.0759 15.2844 11.8055 15.2298 11.4181C15.1315 10.7177 14.8119 10.0669 14.3184 9.5602C13.825 9.05359 13.1832 8.717 12.4856 8.60027C12.0997 8.5357 11.8387 8.17052 11.903 7.78458C11.9676 7.39855 12.3333 7.13676 12.7193 7.20121C13.7141 7.36764 14.6302 7.84743 15.3341 8.5698Z" fill="#4E5964"/>
<path d="M18.7543 5.88265C19.2596 6.38913 19.3554 7.17538 18.9868 7.78847L18.3279 8.88317C18.2999 8.93005 18.3016 8.98957 18.3318 9.03505L18.7358 9.64278C18.7517 9.66666 18.7754 9.68576 18.802 9.69644L20.1468 10.2361C20.7385 10.4735 21.126 11.0478 21.1254 11.6853L21.1253 11.9589L21.1253 11.9603L21.1247 12.8116C21.1241 13.2029 20.8062 13.52 20.415 13.5198C20.0238 13.5191 19.7065 13.2013 19.7068 12.81L19.7082 11.9594L19.7087 11.956L19.7089 11.6837C19.7088 11.626 19.6728 11.5737 19.6193 11.5521L18.2731 11.0125C17.9806 10.8951 17.7302 10.6913 17.5555 10.4289L17.1514 9.81978C16.8178 9.31809 16.8028 8.66881 17.1132 8.15245L17.7714 7.05846C17.805 7.00272 17.7961 6.92976 17.7501 6.88371L16.9897 6.12122C16.9439 6.07534 16.8719 6.06655 16.8162 6.09964L15.5939 6.83194C15.2033 7.06567 14.7294 7.11634 14.2977 6.97191L13.879 6.83247C13.3313 6.64914 12.9293 6.17777 12.835 5.60797L12.6149 4.27175C12.6035 4.20365 12.5443 4.15399 12.4753 4.15364L11.4471 4.15227C11.0558 4.15167 10.7385 3.8339 10.7389 3.44254C10.7394 3.05116 11.0573 2.7341 11.4487 2.73438L12.4762 2.73508C13.2382 2.73599 13.8881 3.28806 14.0128 4.03978L14.2344 5.37595C14.2429 5.42764 14.2792 5.47129 14.3288 5.48804L14.7476 5.62748C14.7868 5.64061 14.8304 5.6363 14.866 5.61505L16.0883 4.88413C16.7022 4.51669 17.4871 4.61377 17.9925 5.12021L18.7543 5.88265Z" fill="#4E5964"/>
</g>
<defs>
<clipPath id="clip0_14363_552">
<rect width="24" height="24" fill="white"/>
</clipPath>
</defs>
</svg>
