<svg width="24" height="24" viewBox="0 0 24 24" fill="none" xmlns="http://www.w3.org/2000/svg">
<path d="M3.40654 10.3806C3.79788 10.3811 4.11505 10.699 4.1147 11.0903L4.11401 11.9402C4.11397 11.9766 4.10787 12.0121 4.10254 12.047C4.10786 12.0822 4.11325 12.1178 4.11321 12.1545L4.11336 12.1786C4.11329 12.2396 4.15214 12.2948 4.21 12.3141L5.77535 12.8377C6.24066 12.9934 6.6058 13.359 6.7606 13.8245L6.92737 14.3259C7.07078 14.7578 7.01846 15.2309 6.78401 15.6209L6.05006 16.8419C6.01654 16.8976 6.02474 16.9699 6.07065 17.016L6.8311 17.7785C6.87705 17.8245 6.95015 17.8334 7.00597 17.8L8.22824 17.0677C8.6187 16.8343 9.0916 16.7835 9.52304 16.9278L9.94179 17.0672C10.4895 17.2505 10.8914 17.7219 10.9858 18.2917L11.2066 19.6286C11.2182 19.6966 11.2779 19.7458 11.3469 19.746L13.178 19.7483C13.5693 19.7489 13.8865 20.0668 13.8861 20.4581C13.8857 20.8495 13.5678 21.1665 13.1764 21.1662L11.3453 21.1639C10.5832 21.163 9.93259 20.6117 9.80795 19.8599L9.58643 18.5238C9.57787 18.4721 9.54222 18.4291 9.49271 18.4123L9.07324 18.2722C9.03418 18.2592 8.9916 18.2636 8.95621 18.2846L7.73389 19.0155C7.11988 19.383 6.3337 19.2861 5.82828 18.7795L5.06783 18.017C4.56241 17.5105 4.46656 16.7244 4.83538 16.1112L5.56933 14.8902C5.59043 14.8548 5.59547 14.812 5.58251 14.7729L5.41574 14.2716C5.40161 14.2294 5.36775 14.1963 5.32555 14.1822L3.75948 13.6579C3.12326 13.4448 2.69472 12.8481 2.69547 12.1771L2.69531 12.1529C2.69535 12.1163 2.70067 12.0805 2.70607 12.0454C2.70083 12.0105 2.69607 11.975 2.69612 11.9387L2.69681 11.0888C2.69734 10.6974 3.01512 10.3802 3.40654 10.3806Z" fill="#4E5964"/>
<path d="M7.49289 11.5084C7.88065 11.4562 8.23821 11.7285 8.29077 12.1162C8.38531 12.8171 8.70125 13.47 9.19196 13.9793C9.68264 14.4884 10.3228 14.8286 11.0196 14.9491C11.4051 15.0159 11.6642 15.3828 11.5975 15.7684C11.5307 16.154 11.1632 16.4123 10.7775 16.3457C9.78375 16.1738 8.87041 15.6892 8.17056 14.963C7.47078 14.2366 7.01995 13.3059 6.8851 12.3063C6.83286 11.9185 7.10513 11.5609 7.49289 11.5084Z" fill="#4E5964"/>
<path d="M9.89712 5.33291L9.92441 5.36236C10.6666 6.18431 10.9316 7.26631 10.75 8.28457C10.7702 8.30168 10.7929 8.31922 10.8113 8.33909L15.6101 13.5214C16.6526 13.4052 17.7293 13.754 18.5024 14.568C18.5058 14.5714 18.512 14.5765 18.5153 14.58L18.5311 14.5974C19.1983 15.3333 19.5057 16.3265 19.3828 17.3169L19.3812 17.3315L19.3423 17.5035C19.2611 17.7754 19.0864 18.0083 18.857 18.1686L17.503 16.7124C17.3526 16.5512 17.1 16.5421 16.9384 16.6921L16.4258 17.1688C16.2644 17.3192 16.2541 17.5731 16.4041 17.7347L17.6806 19.1066L17.649 19.1706C17.437 19.5188 17.0632 19.7474 16.6473 19.768L16.632 19.7672C15.6333 19.7925 14.6738 19.388 14.0068 18.6505C14.0039 18.6465 14.0017 18.6398 13.9987 18.6362C13.9939 18.6315 13.9874 18.6266 13.9829 18.6216C13.2305 17.751 12.9967 16.6111 13.2438 15.5637C13.2244 15.5471 13.2031 15.531 13.1854 15.5118L8.53445 10.4888C7.46184 10.6664 6.32901 10.3496 5.51097 9.52418C5.50629 9.51921 5.5018 9.51244 5.49725 9.50739C5.49363 9.504 5.48782 9.50031 5.48444 9.49678C4.80131 8.77582 4.47097 7.79001 4.57268 6.7973L4.57491 6.78202C4.62889 6.35859 4.89788 5.99665 5.27633 5.81642L6.63828 7.28132C6.78868 7.44274 7.04184 7.45242 7.20353 7.30232L7.71613 6.82561C7.87762 6.67523 7.88652 6.42141 7.73643 6.2597L6.34148 4.76003C6.51945 4.52864 6.77369 4.36225 7.06194 4.29954L7.23665 4.27685L7.25245 4.27423C8.24898 4.22746 9.21498 4.61144 9.89712 5.33291Z" fill="#4E5964"/>
<path d="M15.3341 8.56931C16.0379 9.29193 16.4929 10.2211 16.6331 11.22C16.6875 11.6076 16.4178 11.9667 16.0303 12.0212C15.6428 12.0754 15.2844 11.805 15.2298 11.4176C15.1315 10.7173 14.8119 10.0664 14.3184 9.55971C13.825 9.05311 13.1832 8.71651 12.4856 8.59978C12.0997 8.53521 11.8387 8.17003 11.903 7.78409C11.9676 7.39806 12.3333 7.13628 12.7193 7.20072C13.7141 7.36715 14.6302 7.84694 15.3341 8.56931Z" fill="#4E5964"/>
<path d="M18.7543 5.88216C19.2596 6.38864 19.3554 7.17489 18.9868 7.78798L18.3279 8.88269C18.2999 8.92956 18.3016 8.98908 18.3318 9.03456L18.7358 9.64229C18.7517 9.66617 18.7754 9.68527 18.802 9.69595L20.1468 10.2356C20.7385 10.473 21.126 11.0473 21.1254 11.6848L21.1253 11.9585L21.1253 11.9598L21.1247 12.8111C21.1241 13.2024 20.8062 13.5195 20.415 13.5193C20.0238 13.5186 19.7065 13.2008 19.7068 12.8096L19.7082 11.9589L19.7087 11.9555L19.7089 11.6832C19.7088 11.6255 19.6728 11.5733 19.6193 11.5516L18.2731 11.0121C17.9806 10.8946 17.7302 10.6908 17.5555 10.4284L17.1514 9.81929C16.8178 9.3176 16.8028 8.66832 17.1132 8.15197L17.7714 7.05797C17.805 7.00223 17.7961 6.92927 17.7501 6.88322L16.9897 6.12073C16.9439 6.07485 16.8719 6.06606 16.8162 6.09915L15.5939 6.83145C15.2033 7.06518 14.7294 7.11585 14.2977 6.97142L13.879 6.83198C13.3313 6.64865 12.9293 6.17728 12.835 5.60748L12.6149 4.27126C12.6035 4.20316 12.5443 4.1535 12.4753 4.15315L11.4471 4.15178C11.0558 4.15118 10.7385 3.83341 10.7389 3.44205C10.7394 3.05067 11.0573 2.73361 11.4487 2.73389L12.4762 2.73459C13.2382 2.7355 13.8881 3.28757 14.0128 4.03929L14.2344 5.37546C14.2429 5.42715 14.2792 5.4708 14.3288 5.48755L14.7476 5.62699C14.7868 5.64012 14.8304 5.63581 14.866 5.61456L16.0883 4.88364C16.7022 4.5162 17.4871 4.61328 17.9925 5.11972L18.7543 5.88216Z" fill="#4E5964"/>
</svg>
