<svg width="24" height="24" viewBox="0 0 24 24" fill="none" xmlns="http://www.w3.org/2000/svg">
<path d="M6.16406 2.66797C6.36523 1.77739 7.63477 1.77739 7.83594 2.66797L7.90625 2.98242C8.03661 3.55955 8.69892 3.83337 9.19922 3.51758L9.47266 3.3457C10.2445 2.85871 11.1413 3.75553 10.6543 4.52734L10.4814 4.7998C10.1655 5.30013 10.4404 5.96337 11.0176 6.09375L11.332 6.16406C12.2226 6.36523 12.2226 7.63477 11.332 7.83594L11.0176 7.90625C10.4406 8.03658 10.1661 8.69896 10.4814 9.19922L10.6543 9.47266C11.1412 10.2444 10.2444 11.1412 9.47266 10.6543L9.19922 10.4814C8.69896 10.1661 8.03658 10.4406 7.90625 11.0176L7.83594 11.332C7.63477 12.2226 6.36523 12.2226 6.16406 11.332L6.09375 11.0176C5.96337 10.4404 5.30013 10.1655 4.7998 10.4814L4.52734 10.6543C3.75553 11.1413 2.85871 10.2445 3.3457 9.47266L3.51758 9.19922C3.83337 8.69892 3.55955 8.03661 2.98242 7.90625L2.66797 7.83594C1.77739 7.63477 1.77739 6.36523 2.66797 6.16406L2.98242 6.09375C3.55961 5.96337 3.83352 5.30013 3.51758 4.7998L3.3457 4.52734C2.85863 3.75551 3.75551 2.85863 4.52734 3.3457L4.7998 3.51758C5.30013 3.83352 5.96337 3.55961 6.09375 2.98242L6.16406 2.66797ZM7 5.5C6.17157 5.5 5.5 6.17157 5.5 7C5.50002 7.82841 6.17159 8.5 7 8.5C7.8284 8.49998 8.49998 7.8284 8.5 7C8.5 6.17159 7.82841 5.50002 7 5.5Z" fill="#4E5964"/>
<path d="M14.9971 10.8018C15.2385 9.73307 16.7615 9.73307 17.0029 10.8018L17.0879 11.1787C17.2444 11.8713 18.0393 12.2004 18.6396 11.8213L18.9668 11.6152C19.8932 11.0303 20.9697 12.1068 20.3848 13.0332L20.1777 13.3604C19.799 13.9607 20.1288 14.7557 20.8213 14.9121L21.1982 14.9971C22.2669 15.2385 22.2669 16.7615 21.1982 17.0029L20.8213 17.0879C20.1287 17.2443 19.7986 18.0393 20.1777 18.6396L20.3848 18.9668C20.9695 19.8931 19.8931 20.9695 18.9668 20.3848L18.6396 20.1777C18.0393 19.7986 17.2443 20.1287 17.0879 20.8213L17.0029 21.1982C16.7615 22.2669 15.2385 22.2669 14.9971 21.1982L14.9121 20.8213C14.7557 20.1288 13.9607 19.799 13.3604 20.1777L13.0332 20.3848C12.1068 20.9697 11.0303 19.8932 11.6152 18.9668L11.8213 18.6396C12.2004 18.0393 11.8713 17.2444 11.1787 17.0879L10.8018 17.0029C9.73307 16.7615 9.73307 15.2385 10.8018 14.9971L11.1787 14.9121C11.8713 14.7557 12.2003 13.9607 11.8213 13.3604L11.6152 13.0332C11.0303 12.1068 12.1068 11.0303 13.0332 11.6152L13.3604 11.8213C13.9607 12.2003 14.7557 11.8713 14.9121 11.1787L14.9971 10.8018ZM16 14C14.8954 14 14 14.8954 14 16C14.0001 17.1045 14.8955 18 16 18C17.1044 17.9999 17.9999 17.1044 18 16C18 14.8955 17.1045 14.0001 16 14Z" fill="#4E5964"/>
</svg>
