<svg width="24" height="24" viewBox="0 0 24 24" fill="none" xmlns="http://www.w3.org/2000/svg">
<path fill-rule="evenodd" clip-rule="evenodd" d="M3.25 7.50073C3.25 4.60124 5.60051 2.25073 8.5 2.25073H15.5C18.3995 2.25073 20.75 4.60124 20.75 7.50073V14.2507H3.25V7.50073ZM3.25 15.7507V18.8698C3.25 21.2102 5.91034 22.5079 7.83425 21.2707L7.85154 21.2596L9.35391 20.1726C10.9201 19.0395 13.0799 19.0395 14.6461 20.1726L16.1485 21.2596L16.1658 21.2707C18.0897 22.5079 20.75 21.2102 20.75 18.8698V15.7507H3.25ZM10.8439 6.11118C11.2012 4.96392 12.7988 4.96391 13.1561 6.11118L13.4869 7.17299H14.5364C15.1424 7.17299 15.5545 7.5904 15.6925 8.03343C15.8299 8.47449 15.7298 9.03883 15.2614 9.39383L14.3854 10.0577L14.7237 11.1437C14.8944 11.6917 14.6738 12.2152 14.2926 12.5041C13.9067 12.7965 13.3225 12.8678 12.8426 12.5041L12 11.8655L11.1574 12.5041C10.6775 12.8678 10.0933 12.7965 9.70744 12.5041C9.32624 12.2152 9.10559 11.6917 9.27629 11.1437L9.61458 10.0577L8.73862 9.39383C8.27019 9.03883 8.17008 8.47449 8.30747 8.03344C8.44547 7.5904 8.85761 7.17299 9.46358 7.17299H10.5131L10.8439 6.11118ZM12 7.44338L11.885 7.81254C11.7307 8.30796 11.275 8.67299 10.7289 8.67299H10.2709L10.6683 8.97415C11.0902 9.29392 11.2523 9.84361 11.0994 10.3345L10.9643 10.7683L11.275 10.5328C11.7051 10.2069 12.2949 10.2069 12.725 10.5328L13.0357 10.7683L12.9006 10.3345C12.7476 9.8436 12.9098 9.29392 13.3317 8.97415L13.7291 8.67299H13.2711C12.725 8.67299 12.2693 8.30796 12.115 7.81254L12 7.44338Z" fill="#4E5964"/>
</svg>
