<svg width="24" height="24" viewBox="0 0 24 24" fill="none" xmlns="http://www.w3.org/2000/svg">
<path fill-rule="evenodd" clip-rule="evenodd" d="M3.25 7.50098C3.25 4.60148 5.60051 2.25098 8.5 2.25098H15.5C18.3995 2.25098 20.75 4.60148 20.75 7.50098V14.251H3.25V7.50098ZM3.25 15.751V18.8701C3.25 21.2104 5.91034 22.5082 7.83425 21.2709L7.85154 21.2598L9.35391 20.1729C10.9201 19.0397 13.0799 19.0397 14.6461 20.1729L16.1485 21.2598L16.1658 21.2709C18.0897 22.5082 20.75 21.2104 20.75 18.8701V15.751H3.25ZM10.8439 6.11143C11.2012 4.96416 12.7988 4.96416 13.1561 6.11143L13.4869 7.17323H14.5364C15.1424 7.17323 15.5545 7.59064 15.6925 8.03368C15.8299 8.47473 15.7298 9.03907 15.2614 9.39408L14.3854 10.0579L14.7237 11.144C14.8944 11.692 14.6738 12.2155 14.2926 12.5043C13.9067 12.7968 13.3225 12.868 12.8426 12.5043L12 11.8658L11.1574 12.5043C10.6775 12.868 10.0933 12.7968 9.70744 12.5043C9.32624 12.2155 9.10559 11.692 9.27629 11.144L9.61458 10.0579L8.73862 9.39408C8.27019 9.03907 8.17008 8.47474 8.30747 8.03368C8.44547 7.59065 8.85761 7.17323 9.46358 7.17323H10.5131L10.8439 6.11143ZM12 7.44363L11.885 7.81278C11.7307 8.30821 11.275 8.67323 10.7289 8.67323H10.2709L10.6683 8.97439C11.0902 9.29417 11.2523 9.84385 11.0994 10.3348L10.9643 10.7686L11.275 10.5331C11.7051 10.2072 12.2949 10.2072 12.725 10.5331L13.0357 10.7686L12.9006 10.3348C12.7476 9.84385 12.9098 9.29417 13.3317 8.97439L13.7291 8.67323H13.2711C12.725 8.67323 12.2693 8.30821 12.115 7.81278L12 7.44363Z" fill="#4E5964"/>
</svg>
