<svg width="24" height="24" viewBox="0 0 24 24" fill="none" xmlns="http://www.w3.org/2000/svg">
<path fill-rule="evenodd" clip-rule="evenodd" d="M2.25 17.0002C2.25 19.6236 4.37665 21.7502 7 21.7502H12C13.5188 21.7502 14.75 20.519 14.75 19.0002V18.0002C14.75 17.8622 14.8619 17.7502 15 17.7502C15.1381 17.7502 15.25 17.8622 15.25 18.0002V19.0002C15.25 20.519 16.4812 21.7502 18 21.7502H18.5C20.2949 21.7502 21.75 20.2952 21.75 18.5002V5.50024C21.75 3.70532 20.2949 2.25024 18.5 2.25024H18C16.4812 2.25024 15.25 3.48146 15.25 5.00024V6.00024C15.25 6.13832 15.1381 6.25024 15 6.25024C14.8619 6.25024 14.75 6.13832 14.75 6.00024V5.00024C14.75 3.48146 13.5188 2.25024 12 2.25024H7C4.37665 2.25024 2.25 4.37689 2.25 7.00025V17.0002ZM15 11.7498C15.4142 11.7498 15.75 11.414 15.75 10.9998V8.99976C15.75 8.58554 15.4142 8.24976 15 8.24976C14.5858 8.24976 14.25 8.58554 14.25 8.99976V10.9998C14.25 11.414 14.5858 11.7498 15 11.7498ZM15.75 14.9998C15.75 15.414 15.4142 15.7498 15 15.7498C14.5858 15.7498 14.25 15.414 14.25 14.9998V12.9998C14.25 12.5855 14.5858 12.2498 15 12.2498C15.4142 12.2498 15.75 12.5855 15.75 12.9998V14.9998ZM6 10.2498C6 9.83554 6.33579 9.49976 6.75 9.49976H11.25C11.6642 9.49976 12 9.83554 12 10.2498C12 10.664 11.6642 10.9998 11.25 10.9998H6.75C6.33579 10.9998 6 10.664 6 10.2498ZM6.75 12.4998C6.33579 12.4998 6 12.8355 6 13.2498C6 13.664 6.33579 13.9998 6.75 13.9998H8.25C8.66421 13.9998 9 13.664 9 13.2498C9 12.8355 8.66421 12.4998 8.25 12.4998H6.75Z" fill="#4E5964"/>
</svg>
