<svg width="24" height="24" viewBox="0 0 24 24" fill="none" xmlns="http://www.w3.org/2000/svg">
<path fill-rule="evenodd" clip-rule="evenodd" d="M3.25 3.75H3C2.58579 3.75 2.25 3.41421 2.25 3C2.25 2.58579 2.58579 2.25 3 2.25L21 2.25C21.4142 2.25 21.75 2.58579 21.75 3C21.75 3.41422 21.4142 3.75 21 3.75H20.75V14.9334C20.75 17.139 19.3715 19.1094 17.2995 19.8654L13.7995 21.1424C12.6373 21.5665 11.3627 21.5665 10.2005 21.1424L6.7005 19.8654C4.62854 19.1094 3.25 17.139 3.25 14.9334V3.75ZM3.37956 3.75H3.36673C3.37095 3.75042 3.37523 3.75 3.37956 3.75ZM13.1561 6.11059L13.4869 7.17239H14.5364C15.1424 7.17239 15.5545 7.58981 15.6925 8.03284C15.8299 8.4739 15.7298 9.03823 15.2614 9.39324L14.3854 10.0571L14.7237 11.1431C14.8944 11.6911 14.6738 12.2146 14.2926 12.5035C13.9067 12.7959 13.3225 12.8672 12.8426 12.5035L12 11.8649L11.1574 12.5035C10.6775 12.8672 10.0933 12.7959 9.70744 12.5035C9.32624 12.2146 9.10559 11.6911 9.27629 11.1431L9.61458 10.0571L8.73862 9.39324C8.27019 9.03823 8.17008 8.4739 8.30747 8.03284C8.44547 7.58981 8.85761 7.17239 9.46358 7.17239H10.5131L10.8439 6.11059C11.2012 4.96333 12.7988 4.96332 13.1561 6.11059ZM9 15.7501C9.41421 15.7501 9.75 15.4144 9.75 15.0001C9.75 14.5859 9.41421 14.2501 9 14.2501H5C4.58579 14.2501 4.25 14.5859 4.25 15.0001C4.25 15.4144 4.58579 15.7501 5 15.7501H9ZM19.75 15.0001C19.75 15.4144 19.4142 15.7501 19 15.7501H15C14.5858 15.7501 14.25 15.4144 14.25 15.0001C14.25 14.5859 14.5858 14.2501 15 14.2501H19C19.4142 14.2501 19.75 14.5859 19.75 15.0001Z" fill="#4E5964"/>
</svg>
