<svg width="24" height="24" viewBox="0 0 24 24" fill="none" xmlns="http://www.w3.org/2000/svg">
<path d="M12 7.44304L11.885 7.81219C11.7307 8.30762 11.275 8.67264 10.7289 8.67264H10.2709L10.6683 8.9738C11.0902 9.29357 11.2523 9.84326 11.0994 10.3342L10.9643 10.768L11.275 10.5325C11.7051 10.2066 12.2949 10.2066 12.725 10.5325L13.0357 10.768L12.9006 10.3342C12.7476 9.84326 12.9098 9.29357 13.3317 8.9738L13.7291 8.67264H13.2711C12.725 8.67264 12.2693 8.30761 12.115 7.81219L12 7.44304Z" fill="#4E5964"/>
<path fill-rule="evenodd" clip-rule="evenodd" d="M3.25 3.75024H3C2.58579 3.75024 2.25 3.41446 2.25 3.00024C2.25 2.58603 2.58579 2.25024 3 2.25024L21 2.25025C21.4142 2.25025 21.75 2.58603 21.75 3.00025C21.75 3.41446 21.4142 3.75025 21 3.75025H20.75V14.9337C20.75 17.1392 19.3715 19.1096 17.2995 19.8656L13.7995 21.1427C12.6373 21.5667 11.3627 21.5667 10.2005 21.1427L6.7005 19.8656C4.62854 19.1096 3.25 17.1392 3.25 14.9337V3.75024ZM3.37956 3.75024H3.36673C3.37095 3.75066 3.37523 3.75024 3.37956 3.75024ZM13.1561 6.11083L13.4869 7.17264H14.5364C15.1424 7.17264 15.5545 7.59005 15.6925 8.03309C15.8299 8.47414 15.7298 9.03848 15.2614 9.39348L14.3854 10.0573L14.7237 11.1434C14.8944 11.6914 14.6738 12.2149 14.2926 12.5038C13.9067 12.7962 13.3225 12.8675 12.8426 12.5038L12 11.8652L11.1574 12.5038C10.6775 12.8675 10.0933 12.7962 9.70744 12.5038C9.32624 12.2149 9.10559 11.6914 9.27629 11.1434L9.61458 10.0573L8.73862 9.39348C8.27019 9.03848 8.17008 8.47414 8.30747 8.03309C8.44547 7.59005 8.85761 7.17264 9.46358 7.17264H10.5131L10.8439 6.11083C11.2012 4.96357 12.7988 4.96357 13.1561 6.11083ZM9 15.7504C9.41421 15.7504 9.75 15.4146 9.75 15.0004C9.75 14.5862 9.41421 14.2504 9 14.2504H5C4.58579 14.2504 4.25 14.5862 4.25 15.0004C4.25 15.4146 4.58579 15.7504 5 15.7504H9ZM19.75 15.0004C19.75 15.4146 19.4142 15.7504 19 15.7504H15C14.5858 15.7504 14.25 15.4146 14.25 15.0004C14.25 14.5862 14.5858 14.2504 15 14.2504H19C19.4142 14.2504 19.75 14.5862 19.75 15.0004Z" fill="#4E5964"/>
</svg>
