<svg width="24" height="24" viewBox="0 0 24 24" fill="none" xmlns="http://www.w3.org/2000/svg">
<path d="M18 15.75C18.4142 15.75 18.75 15.4142 18.75 15C18.75 14.5858 18.4142 14.25 18 14.25H6C5.89831 14.25 5.80134 14.2702 5.71291 14.3069C5.62445 14.3435 5.54158 14.3978 5.46967 14.4697C5.39776 14.5416 5.34351 14.6245 5.30691 14.7129C5.27024 14.8013 5.25 14.8983 5.25 15C5.25 15.1017 5.27024 15.1987 5.30691 15.2871C5.34351 15.3755 5.39776 15.4584 5.46967 15.5303L8.46967 18.5303C8.76256 18.8232 9.23744 18.8232 9.53033 18.5303C9.82322 18.2374 9.82322 17.7626 9.53033 17.4697L7.81066 15.75H18Z" fill="#4E5964"/>
<path d="M6 8C5.58579 8 5.25 8.33579 5.25 8.75C5.25 9.16421 5.58579 9.5 6 9.5L18 9.5C18.1017 9.5 18.1987 9.47976 18.2871 9.44309C18.3755 9.40649 18.4584 9.35224 18.5303 9.28033C18.6022 9.20842 18.6565 9.12555 18.6931 9.03709C18.7298 8.94866 18.75 8.85169 18.75 8.75C18.75 8.64831 18.7298 8.55134 18.6931 8.46291C18.6565 8.37445 18.6022 8.29158 18.5303 8.21967L15.5303 5.21967C15.2374 4.92678 14.7626 4.92678 14.4697 5.21967C14.1768 5.51256 14.1768 5.98744 14.4697 6.28033L16.1893 8L6 8Z" fill="#4E5964"/>
</svg>
