<svg width="24" height="24" viewBox="0 0 24 24" fill="none" xmlns="http://www.w3.org/2000/svg">
<path d="M12 6.25C14.5544 6.25 16.9011 6.65334 18.6367 7.33105C19.5022 7.66899 20.254 8.09001 20.8018 8.5957C21.3502 9.1021 21.75 9.75001 21.75 10.5146C21.7498 11.6013 20.9567 12.4409 20.0049 13.0283C19.0222 13.6349 17.6771 14.1016 16.1426 14.3994C15.736 14.4781 15.3426 14.2122 15.2637 13.8057C15.185 13.3992 15.4509 13.0056 15.8574 12.9268C17.2862 12.6495 18.4414 12.2311 19.2178 11.752C20.0243 11.2541 20.2498 10.8076 20.25 10.5146C20.25 10.309 20.1464 10.0317 19.7842 9.69727C19.4211 9.36211 18.854 9.02555 18.0908 8.72754C16.5691 8.13345 14.4159 7.75 12 7.75C9.58407 7.75 7.43088 8.13345 5.90918 8.72754C5.14598 9.02555 4.57887 9.36211 4.21582 9.69727C3.85358 10.0317 3.75 10.309 3.75 10.5146C3.75012 10.7049 3.83838 10.9529 4.13672 11.2539C4.4383 11.5581 4.91373 11.8708 5.56641 12.1582C6.80038 12.7015 8.54085 13.0959 10.5488 13.2275L9.81152 12.5088C9.53326 12.2375 9.57938 11.7897 9.91504 11.5088C10.2511 11.228 10.7498 11.22 11.0283 11.4912L12.9883 13.4004C13.13 13.5387 13.1855 13.7228 13.1631 13.9072C13.1854 14.0835 13.1366 14.2599 13.0078 14.3975L11.0479 16.4883C10.783 16.7706 10.2874 16.7804 9.94043 16.5107C9.5938 16.241 9.52741 15.7941 9.79199 15.5117L10.5215 14.7314C8.36047 14.5965 6.41231 14.1698 4.96191 13.5312C4.20605 13.1984 3.54955 12.793 3.07129 12.3105C2.5901 11.8251 2.25013 11.2184 2.25 10.5146C2.25 9.75001 2.64985 9.1021 3.19824 8.5957C3.74602 8.09001 4.49784 7.66899 5.36328 7.33105C7.09892 6.65334 9.44559 6.25 12 6.25Z" fill="#4E5964"/>
</svg>
