<svg width="24" height="24" viewBox="0 0 24 24" fill="none" xmlns="http://www.w3.org/2000/svg">
<path d="M13.7942 0.921957C13.4111 1.07939 13.2281 1.5176 13.3856 1.90073L14.0168 3.43704C13.3846 3.3191 12.7129 3.25008 12 3.25008C6.61347 3.25008 2.25 7.61354 2.25 13.0001C2.25 18.3866 6.61347 22.7501 12 22.7501C17.3865 22.7501 21.75 18.3866 21.75 13.0001C21.75 10.9987 21.1425 9.13161 20.1085 7.58059C19.8787 7.23594 19.4131 7.14281 19.0684 7.37258C18.7238 7.60234 18.6306 8.06799 18.8604 8.41264C19.7364 9.72667 20.25 11.306 20.25 13.0001C20.25 17.5582 16.5581 21.2501 12 21.2501C7.4419 21.2501 3.75 17.5582 3.75 13.0001C3.75 8.44197 7.4419 4.75008 12 4.75008C12.8384 4.75008 13.6129 4.86061 14.3307 5.04022L12.009 5.49269C11.6024 5.57192 11.3371 5.96574 11.4163 6.37231C11.4955 6.77887 11.8893 7.04423 12.2959 6.96499L15.7964 6.28279C15.857 6.27421 15.9176 6.25801 15.9768 6.23366C16.3477 6.08126 16.531 5.66572 16.3995 5.29175C16.3936 5.27464 16.387 5.25785 16.38 5.24141L14.773 1.33062C14.6156 0.947494 14.1774 0.764527 13.7942 0.921957Z" fill="#4E5964"/>
</svg>
