<svg width="24" height="24" viewBox="0 0 24 24" fill="none" xmlns="http://www.w3.org/2000/svg">
<g clip-path="url(#clip0_11478_12319)">
<path d="M10.2054 0.921957C10.5885 1.07939 10.7715 1.5176 10.6141 1.90073L9.98275 3.43713C10.6151 3.31915 11.287 3.25009 12 3.25009C17.3865 3.25009 21.75 7.61356 21.75 13.0001C21.75 18.3866 17.3865 22.7501 12 22.7501C6.61347 22.7501 2.25 18.3866 2.25 13.0001C2.25 10.9987 2.85752 9.13163 3.89153 7.5806C4.1213 7.23596 4.58695 7.14283 4.9316 7.37259C5.27624 7.60236 5.36937 8.06801 5.13961 8.41265C4.26359 9.72668 3.75 11.306 3.75 13.0001C3.75 17.5582 7.4419 21.2501 12 21.2501C16.5581 21.2501 20.25 17.5582 20.25 13.0001C20.25 8.44198 16.5581 4.75009 12 4.75009C11.1615 4.75009 10.3871 4.86063 9.6692 5.04026L11.9908 5.4927C12.3973 5.57194 12.6627 5.96576 12.5834 6.37232C12.5042 6.77888 12.1104 7.04424 11.7038 6.965L8.2034 6.28281C8.14271 6.27424 8.08209 6.25802 8.0228 6.23366C7.64073 6.07666 7.45771 5.64044 7.61283 5.25806C7.61396 5.25528 7.6151 5.2525 7.61625 5.24973L9.22663 1.33062C9.38406 0.947494 9.82227 0.764527 10.2054 0.921957Z" fill="#4E5964"/>
</g>
<defs>
<clipPath id="clip0_11478_12319">
<rect width="24" height="24" fill="white"/>
</clipPath>
</defs>
</svg>
