<svg width="24" height="24" viewBox="0 0 24 24" fill="none" xmlns="http://www.w3.org/2000/svg">
<path d="M10.2058 0.921957C10.5889 1.07939 10.7719 1.5176 10.6144 1.90073L9.98317 3.43704C10.6154 3.3191 11.2871 3.25008 12 3.25008C17.3865 3.25008 21.75 7.61354 21.75 13.0001C21.75 18.3866 17.3865 22.7501 12 22.7501C6.61347 22.7501 2.25 18.3866 2.25 13.0001C2.25 10.9987 2.85752 9.13161 3.89153 7.58059C4.1213 7.23594 4.58695 7.14281 4.9316 7.37258C5.27624 7.60234 5.36937 8.06799 5.13961 8.41264C4.26359 9.72667 3.75 11.306 3.75 13.0001C3.75 17.5582 7.4419 21.2501 12 21.2501C16.5581 21.2501 20.25 17.5582 20.25 13.0001C20.25 8.44197 16.5581 4.75008 12 4.75008C11.1616 4.75008 10.3871 4.86061 9.66932 5.04022L11.991 5.49269C12.3976 5.57192 12.6629 5.96574 12.5837 6.37231C12.5045 6.77887 12.1107 7.04423 11.7041 6.96499L8.20364 6.28279C8.14299 6.27421 8.08243 6.25801 8.02318 6.23366C7.65228 6.08126 7.46897 5.66572 7.60047 5.29175C7.60642 5.27464 7.61296 5.25785 7.62005 5.24141L9.22701 1.33062C9.38444 0.947494 9.82265 0.764527 10.2058 0.921957Z" fill="#4E5964"/>
</svg>
