<svg width="24" height="24" viewBox="0 0 24 24" fill="none" xmlns="http://www.w3.org/2000/svg">
<path d="M17.25 21C17.6642 21 18 21.3358 18 21.75C18 22.1642 17.6642 22.5 17.25 22.5H6.75C6.33579 22.5 6 22.1642 6 21.75C6 21.3358 6.33579 21 6.75 21H9V19.123C8.68661 19.0024 8.38021 18.8635 8.08301 18.7061L11.4199 13.6865C11.0157 13.5993 10.6394 13.4238 10.3174 13.1748L7.06445 18.0693C6.82904 17.8974 6.60076 17.7139 6.38281 17.5166C4.84764 16.1264 3.88241 14.2158 3.67383 12.1553C3.66565 12.0744 3.66108 11.9929 3.65527 11.9121H9.40625C9.26853 11.5206 9.22433 11.111 9.2666 10.7119H3.6543C3.76665 9.14875 4.31508 7.63811 5.25391 6.35938C5.77891 5.64437 6.40935 5.02355 7.11816 4.51465L10.0645 9.04688C10.3622 8.75171 10.7114 8.54107 11.082 8.41016L8.14062 3.88574C8.7013 3.59444 9.29687 3.36701 9.91602 3.20801L9.63965 2.36523C9.45914 1.81579 9.86803 1.25048 10.4463 1.25H13.5625C14.127 1.25005 14.5346 1.7902 14.3799 2.33301L14.126 3.21875C14.7295 3.37731 15.3099 3.60128 15.8574 3.88574L12.916 8.41113C13.2667 8.53538 13.5979 8.73113 13.8848 9.00195L13.8877 9.00391L13.9336 9.0459L16.8799 4.51465C17.597 5.02955 18.235 5.65845 18.7637 6.38379C19.6919 7.6577 20.2348 9.15917 20.3467 10.7119H14.7344C14.7765 11.1111 14.7315 11.5206 14.5938 11.9121H20.3467C20.3402 12.0027 20.3337 12.0939 20.3242 12.1846C20.1084 14.2445 19.1359 16.1513 17.5957 17.5361C17.384 17.7265 17.1617 17.9028 16.9336 18.0693L13.6797 13.1768C13.3577 13.425 12.982 13.6007 12.5781 13.6875L15.916 18.7051C15.619 18.8625 15.313 19.0014 15 19.1221V21H17.25Z" fill="#4E5964"/>
</svg>
