<svg width="24" height="24" viewBox="0 0 24 24" fill="none" xmlns="http://www.w3.org/2000/svg">
<path d="M11.0176 3.34766L11.7646 4.17383L12.6152 3.32422L13.3799 3.12988L13.5488 3.08594L13.7197 3.12207C14.4697 3.27956 15.188 3.53795 15.8574 3.88574L12.3438 9.29199L12.8467 9.61914L13.3496 9.94531L16.8799 4.51465C17.597 5.02955 18.235 5.65845 18.7637 6.38379C19.6919 7.6577 20.2348 9.15917 20.3467 10.7119H14.1172V11.9121H20.3467C20.3402 12.0027 20.3337 12.0939 20.3242 12.1846C20.1084 14.2445 19.1359 16.1513 17.5957 17.5361C17.384 17.7265 17.1617 17.9028 16.9336 18.0693L13.3447 12.6738L12.8457 13.0059L12.3457 13.3379L15.916 18.7051C14.7138 19.3422 13.3665 19.685 11.9854 19.6826C10.6141 19.6802 9.27646 19.3385 8.08301 18.7061L11.6523 13.3379L11.1523 13.0059L10.6523 12.6729L7.06445 18.0693C6.82904 17.8974 6.60076 17.7139 6.38281 17.5166C4.84764 16.1264 3.88241 14.2158 3.67383 12.1553C3.66565 12.0744 3.66108 11.9929 3.65527 11.9121H9.88379V10.7119H3.6543C3.76665 9.14875 4.31508 7.63811 5.25391 6.35938C5.77891 5.64437 6.40935 5.02355 7.11816 4.51465L10.6494 9.94629L11.6553 9.29199L8.14062 3.88574C8.81923 3.53317 9.54869 3.27315 10.3096 3.11621L10.7305 3.02832L11.0176 3.34766Z" fill="#4E5964"/>
<path fill-rule="evenodd" clip-rule="evenodd" d="M13.4142 9.58578C13.9862 10.1578 14.1573 11.018 13.8477 11.7654C13.5382 12.5127 12.8089 13 12 13C11.1911 13 10.4618 12.5127 10.1523 11.7654C9.84274 11.018 10.0138 10.1578 10.5858 9.58578C11.3669 8.80474 12.6331 8.80474 13.4142 9.58578Z" fill="white"/>
<path d="M13.4142 9.58578C13.9862 10.1578 14.1573 11.018 13.8477 11.7654C13.5382 12.5127 12.8089 13 12 13C11.1911 13 10.4618 12.5127 10.1523 11.7654C9.84274 11.018 10.0138 10.1578 10.5858 9.58578C11.3669 8.80474 12.6331 8.80474 13.4142 9.58578" stroke="#4E5964" stroke-width="1.5" stroke-linecap="round" stroke-linejoin="round"/>
<path d="M11.4 5.31764L10.3518 2.13125C10.3305 2.06657 10.3787 2 10.4468 2H13.5624C13.6289 2 13.6768 2.06358 13.6586 2.12746L13.2114 3.69319L12.7485 5.31385C12.7363 5.35679 12.697 5.38639 12.6524 5.38639H11.495C11.4518 5.38639 11.4135 5.35866 11.4 5.31764Z" fill="#4E5964" stroke="#4E5964" stroke-width="1.5"/>
<path d="M9 18C11.6805 18.7399 12.3699 18.7584 15 18V21H9V18Z" fill="#4E5964"/>
<rect x="6" y="21" width="12" height="1.5" rx="0.75" fill="#4E5964"/>
</svg>
