<svg width="24" height="24" viewBox="0 0 24 24" fill="none" xmlns="http://www.w3.org/2000/svg">
<path d="M17.25 8.49512V7C17.25 5.20507 15.7949 3.75 14 3.75H10C8.20507 3.75 6.75 5.20507 6.75 7V7.59668C6.75 9.19065 7.90611 10.5493 9.47949 10.8047L14.7607 11.6621C17.0603 12.0353 18.75 14.021 18.75 16.3506V17C18.75 19.6234 16.6234 21.75 14 21.75H10C7.37665 21.75 5.25 19.6234 5.25 17V16C5.25 15.5858 5.58579 15.25 6 15.25C6.41421 15.25 6.75 15.5858 6.75 16V17C6.75 18.7949 8.20507 20.25 10 20.25H14C15.7949 20.25 17.25 18.7949 17.25 17V16.3506C17.25 14.7566 16.0939 13.3979 14.5205 13.1426L9.23926 12.2852C6.93969 11.912 5.25 9.92633 5.25 7.59668V7C5.25 4.37665 7.37665 2.25 10 2.25H14C16.6234 2.25 18.75 4.37665 18.75 7V8.49512C18.7497 8.90911 18.4141 9.24512 18 9.24512C17.5859 9.24512 17.2503 8.90911 17.25 8.49512Z" fill="#4E5964"/>
</svg>
