<svg width="24" height="24" viewBox="0 0 24 24" fill="none" xmlns="http://www.w3.org/2000/svg">
<path d="M17.25 7C17.25 5.20507 15.7949 3.75 14 3.75H10C8.20507 3.75 6.75 5.20507 6.75 7V7.86328C6.75 9.35953 7.77159 10.6625 9.22461 11.0195L15.1689 12.4795C17.2717 12.996 18.7499 14.8817 18.75 17.0469C18.75 19.6443 16.6443 21.75 14.0469 21.75H10C7.37665 21.75 5.25 19.6234 5.25 17V16C5.25 15.5858 5.58579 15.25 6 15.25C6.41421 15.25 6.75 15.5858 6.75 16V17C6.75 18.7949 8.20507 20.25 10 20.25H14.0469C15.8158 20.25 17.25 18.8158 17.25 17.0469C17.2499 15.5722 16.2426 14.2883 14.8105 13.9365L8.86719 12.4766C6.74338 11.9549 5.25 10.0502 5.25 7.86328V7C5.25 4.37665 7.37665 2.25 10 2.25H14C16.6234 2.25 18.75 4.37665 18.75 7C18.75 7.41421 18.4142 7.75 18 7.75C17.5858 7.75 17.25 7.41421 17.25 7Z" fill="#4E5964"/>
</svg>
