<svg width="24" height="24" viewBox="0 0 24 24" fill="none" xmlns="http://www.w3.org/2000/svg">
<path d="M16.5 2.25C19.3995 2.25 21.75 4.60051 21.75 7.5V16.5C21.75 19.3995 19.3995 21.75 16.5 21.75H7.5C4.60051 21.75 2.25 19.3995 2.25 16.5V7.5C2.25 4.60051 4.60051 2.25 7.5 2.25H16.5ZM11.957 14.9551C10.7105 14.9551 9.71266 15.3291 9.02832 15.7021C8.68626 15.8887 8.41886 16.0764 8.23438 16.2207C8.14226 16.2928 8.06989 16.3546 8.01855 16.4004C7.99299 16.4232 7.97224 16.4426 7.95703 16.457C7.94954 16.4641 7.94245 16.4698 7.9375 16.4746C7.93515 16.4769 7.93335 16.4797 7.93164 16.4814L7.92871 16.4834L7.92773 16.4844C7.93033 16.4873 7.96453 16.4499 7.95703 16.457L7.92676 16.4854C7.63385 16.778 7.63426 17.2529 7.92676 17.5459C8.21847 17.8378 8.69112 17.8403 8.98438 17.5508C8.98438 17.5508 8.98643 17.5486 8.98828 17.5469C8.99339 17.542 9.00349 17.5331 9.01758 17.5205C9.04645 17.4947 9.09367 17.4538 9.1582 17.4033C9.28818 17.3017 9.48687 17.1609 9.74609 17.0195C10.265 16.7367 11.017 16.4551 11.957 16.4551C12.8977 16.4551 13.6503 16.7367 14.1689 17.0195C14.4279 17.1608 14.6261 17.3008 14.7559 17.4023C14.8203 17.4528 14.8676 17.4937 14.8965 17.5195C14.9107 17.5323 14.9207 17.5421 14.9258 17.5469L14.9297 17.5508C15.2227 17.8401 15.6955 17.8391 15.9873 17.5479C16.2801 17.255 16.28 16.7792 15.9873 16.4863L15.9854 16.4844L15.9824 16.4824C15.9807 16.4807 15.9788 16.4779 15.9766 16.4756C15.9717 16.4709 15.9653 16.4649 15.958 16.458C15.9429 16.4437 15.922 16.4242 15.8965 16.4014C15.8452 16.3555 15.772 16.2939 15.6797 16.2217C15.4953 16.0774 15.2288 15.8887 14.8867 15.7021C14.2024 15.329 13.2043 14.9551 11.957 14.9551ZM10.2227 9.65918C9.77059 9.29043 9.1029 9.31422 8.67969 9.73828C8.22975 10.1882 8.22975 10.9192 8.67969 11.3691C9.12963 11.819 9.86063 11.8191 10.3105 11.3691C10.7321 10.9474 10.7584 10.2788 10.3896 9.82617L10.3105 9.73828L10.2227 9.65918ZM15.2227 9.65918C14.7706 9.29043 14.1029 9.31422 13.6797 9.73828C13.2298 10.1882 13.2298 10.9192 13.6797 11.3691C14.1296 11.819 14.8606 11.8191 15.3105 11.3691C15.7321 10.9474 15.7584 10.2788 15.3896 9.82617L15.3105 9.73828L15.2227 9.65918ZM10.6309 6.50586C10.5101 6.10973 10.0905 5.88613 9.69434 6.00684L7.78125 6.58984C7.38505 6.71059 7.16151 7.13015 7.28223 7.52637C7.40297 7.92257 7.82254 8.14611 8.21875 8.02539L10.1318 7.44238C10.5281 7.32166 10.7516 6.90209 10.6309 6.50586ZM14.2188 6.00684C13.8225 5.88608 13.403 6.10964 13.2822 6.50586C13.1615 6.90208 13.385 7.32163 13.7812 7.44238L15.6943 8.02539C16.0906 8.14615 16.5101 7.92259 16.6309 7.52637C16.7516 7.13017 16.528 6.7106 16.1318 6.58984L14.2188 6.00684Z" fill="#4E5964"/>
</svg>
