<svg width="24" height="24" viewBox="0 0 24 24" fill="none" xmlns="http://www.w3.org/2000/svg">
<path d="M16.5 2.25C19.3995 2.25 21.75 4.60051 21.75 7.5V16.5C21.75 19.3995 19.3995 21.75 16.5 21.75H7.5C4.60051 21.75 2.25 19.3995 2.25 16.5V7.5C2.25 4.60051 4.60051 2.25 7.5 2.25H16.5ZM12 13.25C10.4812 13.25 9.25 14.4812 9.25 16C9.25 17.5188 10.4812 18.75 12 18.75C13.5188 18.75 14.75 17.5188 14.75 16C14.75 14.4812 13.5188 13.25 12 13.25ZM10.2227 9.65918C9.77059 9.29043 9.1029 9.31422 8.67969 9.73828C8.22975 10.1882 8.22975 10.9192 8.67969 11.3691C9.12963 11.819 9.86063 11.8191 10.3105 11.3691C10.7321 10.9474 10.7584 10.2788 10.3896 9.82617L10.3105 9.73828L10.2227 9.65918ZM15.2227 9.65918C14.7706 9.29043 14.1029 9.31422 13.6797 9.73828C13.2298 10.1882 13.2298 10.9192 13.6797 11.3691C14.1296 11.819 14.8606 11.8191 15.3105 11.3691C15.7321 10.9474 15.7584 10.2788 15.3896 9.82617L15.3105 9.73828L15.2227 9.65918ZM10.6309 6.50586C10.5101 6.10973 10.0905 5.88613 9.69434 6.00684L7.78125 6.58984C7.38505 6.71059 7.16151 7.13015 7.28223 7.52637C7.40297 7.92257 7.82254 8.14611 8.21875 8.02539L10.1318 7.44238C10.5281 7.32166 10.7516 6.90209 10.6309 6.50586ZM14.2188 6.00684C13.8225 5.88608 13.403 6.10964 13.2822 6.50586C13.1615 6.90208 13.385 7.32163 13.7812 7.44238L15.6943 8.02539C16.0906 8.14615 16.5101 7.92259 16.6309 7.52637C16.7516 7.13017 16.528 6.7106 16.1318 6.58984L14.2188 6.00684Z" fill="#4E5964"/>
</svg>
