<svg width="24" height="24" viewBox="0 0 24 24" fill="none" xmlns="http://www.w3.org/2000/svg">
<path fill-rule="evenodd" clip-rule="evenodd" d="M7.5 2.25C4.60051 2.25 2.25 4.60051 2.25 7.5V16.5C2.25 19.3995 4.60051 21.75 7.5 21.75H16.5C19.3995 21.75 21.75 19.3995 21.75 16.5V7.5C21.75 4.60051 19.3995 2.25 16.5 2.25H7.5ZM15.31 9.73865C14.8603 9.28894 14.1298 9.28603 13.6783 9.73955C13.2293 10.1896 13.2296 10.9198 13.6792 11.3694C14.1292 11.8193 14.8601 11.8193 15.31 11.3694C15.7599 10.9195 15.7599 10.1886 15.31 9.73865ZM8.67834 9.73955C9.12976 9.28603 9.86029 9.28894 10.31 9.73865C10.7599 10.1886 10.7599 10.9195 10.31 11.3694C9.86006 11.8193 9.12918 11.8193 8.67925 11.3694C8.22961 10.9198 8.22931 10.1896 8.67834 9.73955ZM8.98482 15.1715L8.9881 15.1746C8.99316 15.1794 9.00296 15.1886 9.01741 15.2015C9.04633 15.2273 9.09363 15.268 9.15841 15.3187C9.28831 15.4203 9.48637 15.5605 9.74559 15.7019C10.2643 15.9847 11.0163 16.2663 11.957 16.2663C12.8972 16.2663 13.6493 15.9847 14.1682 15.7019C14.4275 15.5605 14.6256 15.4203 14.7557 15.3186C14.8205 15.2679 14.8678 15.2272 14.8968 15.2013C14.9113 15.1884 14.9211 15.1792 14.9261 15.1744L14.9299 15.1708C15.2232 14.881 15.6958 14.8822 15.9876 15.1742C16.2803 15.4672 16.2802 15.9421 15.9872 16.2349L15.9862 16.2358L15.9852 16.2368L15.9827 16.2393L15.9762 16.2456L15.9574 16.2637C15.9421 16.2782 15.9216 16.2972 15.8959 16.3201C15.8445 16.366 15.7722 16.4278 15.6798 16.5001C15.4952 16.6444 15.2285 16.8322 14.8862 17.0188C14.2018 17.3919 13.2039 17.7663 11.957 17.7663C10.7097 17.7663 9.71178 17.392 9.02747 17.0188C8.6852 16.8322 8.4185 16.6444 8.23403 16.5C8.14162 16.4277 8.06932 16.3659 8.01795 16.32C7.99225 16.297 7.97173 16.278 7.9565 16.2636L7.93762 16.2454L7.93116 16.2391L7.92868 16.2366L7.92763 16.2356C7.92763 16.2356 8.01795 16.32 7.9267 16.2347C7.63381 15.9418 7.63381 15.4669 7.9267 15.174C8.21859 14.8821 8.69169 14.8816 8.98482 15.1715ZM10.6306 6.50577C10.7513 6.902 10.528 7.32108 10.1318 7.4418C10.1318 7.4418 10.4744 7.25459 10.565 7.09536C10.7176 6.82719 10.6306 6.50577 10.6306 6.50577C10.6306 6.50577 10.4845 6.19676 10.31 6.08793C10.1043 5.95968 9.69457 6.00693 9.69457 6.00693C10.0908 5.8862 10.5099 6.10954 10.6306 6.50577ZM9.69457 6.00693C9.69457 6.00693 10.1043 5.95968 10.31 6.08793C10.4845 6.19676 10.6306 6.50577 10.6306 6.50577C10.6306 6.50577 10.7176 6.82719 10.565 7.09536C10.4744 7.25459 10.1318 7.4418 10.1318 7.4418L8.21912 8.02456C7.82289 8.14529 7.40329 7.9221 7.28256 7.52587C7.16184 7.12964 7.38518 6.71057 7.78141 6.58984L9.69457 6.00693ZM14.2187 6.00695C13.8224 5.88619 13.4033 6.10949 13.2826 6.50571C13.1618 6.90193 13.3851 7.32103 13.7813 7.44178L15.6936 8.02461C16.0899 8.14537 16.5098 7.92231 16.6305 7.52609C16.7513 7.12987 16.528 6.71078 16.1318 6.59002L14.2187 6.00695Z" fill="#4E5964"/>
</svg>
