<svg width="24" height="24" viewBox="0 0 24 24" fill="none" xmlns="http://www.w3.org/2000/svg">
<path fill-rule="evenodd" clip-rule="evenodd" d="M7.98014 3.8025C10.3041 1.7325 13.6959 1.7325 16.0199 3.8025L19.5199 6.91997C20.9405 8.18538 21.75 10.047 21.75 11.9961V15.1213C21.75 18.7344 18.998 21.75 15.5 21.75H8.5C5.00197 21.75 2.25 18.7344 2.25 15.1213V11.9961C2.25 10.047 3.05947 8.18538 4.48014 6.91998L7.98014 3.8025ZM11.5 8.75C11.0858 8.75 10.75 9.08579 10.75 9.5V10.1943H13.25V9.5C13.25 9.08579 12.9142 8.75 12.5 8.75H11.5ZM14.75 10.4434V9.5C14.75 8.25736 13.7426 7.25 12.5 7.25H11.5C10.2574 7.25 9.25 8.25736 9.25 9.5V10.4434C8.07552 10.9332 7.25 12.0924 7.25 13.4443V14.4443C7.25 16.2393 8.70507 17.6943 10.5 17.6943H13.5C15.2949 17.6943 16.75 16.2393 16.75 14.4443V13.4443C16.75 12.0924 15.9245 10.9332 14.75 10.4434ZM10.5 11.6943C9.5335 11.6943 8.75 12.4778 8.75 13.4443V14.4443C8.75 15.4108 9.5335 16.1943 10.5 16.1943H13.5C14.4665 16.1943 15.25 15.4108 15.25 14.4443V13.4443C15.25 12.4778 14.4665 11.6943 13.5 11.6943H10.5ZM13.1496 13.3443C13.1496 13.6927 12.9947 14.0049 12.75 14.2158V14.9443C12.75 15.3585 12.4142 15.6943 12 15.6943C11.5858 15.6943 11.25 15.3586 11.25 14.9443V14.2165C11.0049 14.0056 10.8496 13.6931 10.8496 13.3443C10.8496 12.7092 11.3645 12.1943 11.9996 12.1943C12.6347 12.1943 13.1496 12.7092 13.1496 13.3443Z" fill="#4E5964"/>
</svg>
