<svg width="24" height="24" viewBox="0 0 24 24" fill="none" xmlns="http://www.w3.org/2000/svg">
<path fill-rule="evenodd" clip-rule="evenodd" d="M7.98014 3.8025C10.3041 1.7325 13.6959 1.7325 16.0199 3.8025L19.5199 6.91997C20.9405 8.18538 21.75 10.047 21.75 11.9961V15.1213C21.75 18.7344 18.998 21.75 15.5 21.75H8.5C5.00197 21.75 2.25 18.7344 2.25 15.1213V11.9961C2.25 10.047 3.05947 8.18538 4.48014 6.91998L7.98014 3.8025ZM10.4046 8.97803C9.95599 9.13381 9.51773 9.38591 8.99469 9.79304L8.96985 9.81266C8.949 9.82932 8.93048 9.85695 8.92395 9.89535C8.86374 10.2492 8.77637 10.8597 8.75489 11.5132C8.73284 12.1841 8.78387 12.8194 8.94895 13.265C9.26775 14.1256 9.52646 14.554 10.1634 15.1325C10.9468 15.844 11.3085 16.1389 12.015 16.1389C12.7215 16.1389 13.0833 15.844 13.8666 15.1325C14.5068 14.5511 14.7708 14.1251 15.0788 13.2711C15.2283 12.8566 15.2708 12.2219 15.241 11.5317C15.2121 10.8638 15.1204 10.233 15.0602 9.87642C15.0537 9.83778 15.0366 9.81213 15.0187 9.79668L14.9944 9.77603C14.5027 9.36392 14.0758 9.11819 13.6333 8.96883C13.1866 8.81804 12.682 8.75117 12.0137 8.75C11.3517 8.74883 10.8526 8.82251 10.4046 8.97803ZM9.91263 7.56102C10.5625 7.33539 11.2383 7.24863 12.0163 7.25C12.7807 7.25135 13.4605 7.32732 14.1131 7.54763C14.7699 7.76936 15.3573 8.12297 15.9579 8.62637C15.9716 8.63783 15.9853 8.64951 15.9987 8.66107C16.2927 8.91476 16.4772 9.25914 16.5393 9.62669C16.6049 10.0153 16.7069 10.7132 16.7396 11.4668C16.7712 12.1981 16.7431 13.0778 16.4899 13.78C16.1108 14.8308 15.7212 15.4744 14.8751 16.2429L14.8306 16.2833C14.0922 16.9545 13.3391 17.6389 12.015 17.6389C10.6909 17.6389 9.93786 16.9545 9.19943 16.2833L9.15492 16.2429C8.30558 15.4715 7.92693 14.8241 7.54236 13.7861C7.27459 13.0633 7.23175 12.1927 7.2557 11.4639C7.28023 10.7177 7.37874 10.0343 7.4452 9.64374C7.51141 9.25465 7.71549 8.89495 8.03338 8.64089C8.04658 8.63035 8.05999 8.61975 8.07333 8.60936C8.68127 8.13615 9.26352 7.7864 9.91263 7.56102ZM13.1946 11.4444C13.1946 11.8201 13.0211 12.1552 12.75 12.3742V13.7778C12.75 14.192 12.4142 14.5278 12 14.5278C11.5858 14.5278 11.25 14.192 11.25 13.7778V12.374C10.979 12.1551 10.8057 11.82 10.8057 11.4444C10.8057 10.7848 11.3404 10.25 12.0001 10.25C12.6598 10.25 13.1946 10.7848 13.1946 11.4444Z" fill="#4E5964"/>
</svg>
