<svg width="24" height="24" viewBox="0 0 24 24" fill="none" xmlns="http://www.w3.org/2000/svg">
<path fill-rule="evenodd" clip-rule="evenodd" d="M12.0137 8.75044C11.3517 8.74928 10.8522 8.82343 10.4043 8.97896C9.9559 9.13471 9.51785 9.38655 8.99512 9.79341L8.9668 9.81587C8.94726 9.83274 8.93003 9.8595 8.92383 9.89595C8.86362 10.2499 8.77636 10.8607 8.75488 11.5141C8.73288 12.1848 8.78424 12.8196 8.94922 13.2651C9.26802 14.1257 9.52616 14.5548 10.1631 15.1333C10.9463 15.8446 11.3084 16.139 12.0146 16.1391C12.721 16.1391 13.0831 15.8445 13.8662 15.1333C14.5063 14.5519 14.7711 14.1258 15.0791 13.2719C15.2286 12.8575 15.2711 12.2219 15.2412 11.5317C15.2123 10.864 15.1207 10.2329 15.0605 9.87642C15.054 9.838 15.0364 9.81272 15.0186 9.79732L15.0007 9.78231C14.5091 9.37033 14.0761 9.11856 13.6338 8.96919C13.1871 8.8184 12.682 8.75162 12.0137 8.75044ZM11.25 12.0004V12.5004C11.25 12.9147 11.5858 13.2504 12 13.2504C12.4142 13.2504 12.75 12.9147 12.75 12.5004V12.0004C12.75 11.5862 12.4142 11.2504 12 11.2504C11.5858 11.2504 11.25 11.5862 11.25 12.0004Z" fill="#4E5964"/>
<path fill-rule="evenodd" clip-rule="evenodd" d="M10.4043 8.97896C10.8522 8.82343 11.3517 8.74928 12.0137 8.75044C12.682 8.75162 13.1871 8.8184 13.6338 8.96919C14.0761 9.11856 14.5091 9.37033 15.0007 9.78231C15.0079 9.7883 15.0096 9.78956 15.0186 9.79732C15.0364 9.81272 15.054 9.838 15.0605 9.87642C15.1207 10.2329 15.2123 10.864 15.2412 11.5317C15.2711 12.2219 15.2286 12.8575 15.0791 13.2719C14.7711 14.1258 14.5063 14.5519 13.8662 15.1333C13.0831 15.8445 12.721 16.1391 12.0146 16.1391C11.3084 16.139 10.9463 15.8446 10.1631 15.1333C9.52616 14.5548 9.26802 14.1257 8.94922 13.2651C8.78424 12.8196 8.73288 12.1848 8.75488 11.5141C8.77636 10.8607 8.86362 10.2499 8.92383 9.89595C8.93003 9.8595 8.94726 9.83274 8.9668 9.81587L8.99512 9.79341C9.51785 9.38655 9.9559 9.13471 10.4043 8.97896ZM11.25 12.5004V12.0004C11.25 11.5862 11.5858 11.2504 12 11.2504C12.4142 11.2504 12.75 11.5862 12.75 12.0004V12.5004C12.75 12.9147 12.4142 13.2504 12 13.2504C11.5858 13.2504 11.25 12.9147 11.25 12.5004Z" fill="#4E5964"/>
<path fill-rule="evenodd" clip-rule="evenodd" d="M21.75 15.1215C21.75 18.7346 18.998 21.7504 15.5 21.7504H8.5C5.00197 21.7504 2.25 18.7346 2.25 15.1215V11.9965C2.25001 10.0474 3.0598 8.18576 4.48047 6.92036L7.98047 3.80317C10.3044 1.73325 13.6956 1.73325 16.0195 3.80317L19.5195 6.92036C20.9402 8.18576 21.75 10.0474 21.75 11.9965V15.1215ZM14.1133 7.54829C13.4607 7.32801 12.7809 7.2518 12.0166 7.25044C11.2388 7.24907 10.5627 7.3355 9.91309 7.56099C9.26398 7.78636 8.67727 8.13954 8.06934 8.61274L8.0332 8.64107C7.71536 8.89508 7.51155 9.25498 7.44531 9.64399C7.37885 10.0346 7.28039 10.7181 7.25586 11.4643C7.23191 12.1931 7.27424 13.0638 7.54199 13.7866C7.92656 14.8247 8.30593 15.4722 9.15527 16.2436L9.19915 16.2835C9.93761 16.9546 10.6906 17.639 12.0146 17.6391C13.3395 17.6391 14.0931 16.9542 14.8319 16.2827L14.875 16.2436C15.7211 15.4752 16.1112 14.8315 16.4902 13.7807C16.7435 13.0785 16.7709 12.1985 16.7393 11.4672C16.7066 10.7137 16.6047 10.016 16.5391 9.62739C16.477 9.25993 16.2929 8.91524 15.999 8.66157L15.9913 8.65488C15.9801 8.64525 15.968 8.63482 15.9582 8.62658C15.3577 8.12331 14.77 7.77001 14.1133 7.54829Z" fill="#4E5964"/>
</svg>
