<svg width="24" height="24" viewBox="0 0 24 24" fill="none" xmlns="http://www.w3.org/2000/svg">
<path d="M7.98047 3.80317C10.3044 1.73325 13.6956 1.73325 16.0195 3.80317L19.5195 6.92036C20.9401 8.18575 21.75 10.0475 21.75 11.9965V15.1215C21.7498 18.7344 18.9979 21.7504 15.5 21.7504H8.5C5.0021 21.7504 2.25021 18.7344 2.25 15.1215V11.9965C2.25001 10.0475 3.05993 8.18576 4.48047 6.92036L7.98047 3.80317ZM12.0166 7.25044C11.2388 7.24907 10.5627 7.33551 9.91309 7.56099C9.34507 7.75822 8.82744 8.05084 8.2998 8.43794L8.07324 8.60982L8.06934 8.61274L8.03711 8.63814L8.0332 8.64107C7.71544 8.89507 7.51155 9.25504 7.44531 9.64399C7.37886 10.0346 7.28039 10.7182 7.25586 11.4643C7.23193 12.1931 7.27428 13.0639 7.54199 13.7866C7.92653 14.8245 8.30599 15.4723 9.15527 16.2436C9.90796 16.9272 10.6644 17.639 12.0146 17.6391C13.3652 17.6391 14.1222 16.9273 14.875 16.2436C15.721 15.4752 16.1113 14.8313 16.4902 13.7807C16.7435 13.0786 16.7709 12.1985 16.7393 11.4672C16.7066 10.7139 16.6047 10.0161 16.5391 9.62739C16.477 9.25998 16.2928 8.91523 15.999 8.66157C15.9857 8.65004 15.9716 8.63784 15.958 8.62642C15.3575 8.12317 14.77 7.77001 14.1133 7.54829C13.4607 7.32801 12.7809 7.2518 12.0166 7.25044ZM12.0137 8.75044C12.682 8.75162 13.1871 8.8184 13.6338 8.96919C14.0761 9.11856 14.5026 9.36485 14.9941 9.77681C15.0013 9.78278 15.0096 9.7896 15.0186 9.79732C15.0364 9.81273 15.054 9.83809 15.0605 9.87642C15.1207 10.233 15.2123 10.8641 15.2412 11.5317C15.2711 12.2218 15.2286 12.8576 15.0791 13.2719C14.7711 14.1256 14.5063 14.5519 13.8662 15.1333C13.0832 15.8444 12.721 16.1391 12.0146 16.1391C11.3084 16.139 10.9462 15.8445 10.1631 15.1333C9.52622 14.5548 9.26798 14.1255 8.94922 13.2651C8.78426 12.8196 8.73289 12.1847 8.75488 11.5141C8.77635 10.8609 8.86362 10.2499 8.92383 9.89595C8.93002 9.85957 8.94731 9.83275 8.9668 9.81587L8.99512 9.79341C9.51782 9.38658 9.95592 9.13471 10.4043 8.97896C10.8522 8.82343 11.3517 8.74928 12.0137 8.75044ZM11.999 10.2504C11.3394 10.2505 10.8048 10.7852 10.8047 11.4448C10.8048 11.8205 10.9787 12.1556 11.25 12.3745V13.7807C11.2503 14.1947 11.5859 14.5307 12 14.5307C12.4141 14.5307 12.7497 14.1947 12.75 13.7807V12.3725C13.0201 12.1536 13.1933 11.8196 13.1934 11.4448C13.1933 10.7852 12.6586 10.2504 11.999 10.2504Z" fill="#4E5964"/>
</svg>
