<svg width="24" height="24" viewBox="0 0 24 24" fill="none" xmlns="http://www.w3.org/2000/svg">
<path fill-rule="evenodd" clip-rule="evenodd" d="M13.5 11.6943C14.4664 11.6943 15.2499 12.4779 15.25 13.4443V14.4443C15.25 15.4108 14.4665 16.1943 13.5 16.1943H10.5C9.5335 16.1943 8.75 15.4108 8.75 14.4443V13.4443C8.75011 12.4779 9.53357 11.6943 10.5 11.6943H13.5ZM11.25 14.4951V13.9951C11.25 13.5809 11.5858 13.2451 12 13.2451C12.4142 13.2451 12.75 13.5809 12.75 13.9951V14.4951C12.7498 14.9091 12.4141 15.2451 12 15.2451C11.5859 15.2451 11.2502 14.9091 11.25 14.4951Z" fill="#4E5964"/>
<path fill-rule="evenodd" clip-rule="evenodd" d="M12.5 8.74995C12.9142 8.74995 13.25 9.08574 13.25 9.49995V10.1943H10.75V9.49995C10.75 9.08574 11.0858 8.74995 11.5 8.74995H12.5Z" fill="#4E5964"/>
<path fill-rule="evenodd" clip-rule="evenodd" d="M21.75 15.121C21.75 18.7341 18.998 21.75 15.5 21.75H8.5C5.00197 21.75 2.25 18.7341 2.25 15.121V11.996C2.25001 10.0469 3.0598 8.18527 4.48047 6.91987L7.98047 3.80269C10.3044 1.73277 13.6956 1.73276 16.0195 3.80269L19.5195 6.91987C20.9402 8.18527 21.75 10.0469 21.75 11.996V15.121ZM16.75 13.4443C16.7499 12.0925 15.9243 10.9341 14.75 10.4443V9.49995C14.75 8.25731 13.7426 7.24995 12.5 7.24995H11.5C10.2574 7.24995 9.25 8.25731 9.25 9.49995V10.4443C8.07572 10.9341 7.25008 12.0925 7.25 13.4443V14.4443C7.25 16.2392 8.70507 17.6943 10.5 17.6943H13.5C15.2949 17.6943 16.75 16.2392 16.75 14.4443V13.4443Z" fill="#4E5964"/>
</svg>
