<svg width="24" height="24" viewBox="0 0 24 24" fill="none" xmlns="http://www.w3.org/2000/svg">
<path d="M16 2.25C17.5188 2.25 18.75 3.48122 18.75 5V7.66699C18.7499 8.77704 18.0823 9.77813 17.0576 10.2051L14.2236 11.3857L14.1641 11.416C14.0325 11.4958 13.9502 11.6398 13.9502 11.7969C13.9502 11.9384 14.0173 12.07 14.1289 12.1533L14.1787 12.1855L15.3477 12.8359L17.2295 13.7764C18.1611 14.2422 18.75 15.1947 18.75 16.2363V19C18.75 20.5188 17.5188 21.75 16 21.75H8C6.48122 21.75 5.25 20.5188 5.25 19V16.2363C5.25 15.2598 5.76722 14.3614 6.59961 13.8691L6.77051 13.7764L8.65332 12.8359L9.82129 12.1855C9.96238 12.107 10.0498 11.9584 10.0498 11.7969C10.0498 11.6172 9.94213 11.4549 9.77637 11.3857L6.94238 10.2051L6.75488 10.1182C5.83711 9.65236 5.25012 8.70775 5.25 7.66699V5C5.25 3.48122 6.48122 2.25 8 2.25H16ZM13.3477 15.0215C12.6744 14.267 11.5257 14.2198 10.793 14.8799L10.6523 15.0215L8.62402 17.2949C8.41336 17.5311 8.28471 17.8278 8.25586 18.1406L8.25 18.2764L8.25781 18.4268C8.33331 19.1699 8.96063 19.7498 9.72363 19.75H14.2031C15.0573 19.7498 15.7497 19.0573 15.75 18.2031C15.75 17.9278 15.6616 17.6602 15.499 17.4404L15.4248 17.3496L13.3477 15.0215ZM12 7.25C11.5858 7.25 11.25 7.58579 11.25 8V9C11.25 9.41421 11.5858 9.75 12 9.75C12.4142 9.75 12.75 9.41421 12.75 9V8C12.75 7.58579 12.4142 7.25 12 7.25Z" fill="#4E5964"/>
</svg>
