<svg width="24" height="24" viewBox="0 0 24 24" fill="none" xmlns="http://www.w3.org/2000/svg">
<path d="M14.7734 2.25C16.9694 2.25 18.75 4.03061 18.75 6.22656C18.7498 7.58779 18.0528 8.85476 16.9033 9.58398L13.3525 11.8369L17.0264 14.4043C18.1066 15.1596 18.75 16.3948 18.75 17.7129C18.75 19.9425 16.9425 21.75 14.7129 21.75H9.28711C7.0575 21.75 5.25 19.9425 5.25 17.7129C5.25001 16.4769 5.81614 15.3136 6.77734 14.5508L6.97461 14.4043L10.6484 11.8369L7.09668 9.58398L6.88672 9.44141C5.8629 8.69643 5.25014 7.50284 5.25 6.22656C5.25 4.03061 7.03061 2.25 9.22656 2.25H14.7734ZM15.7451 16.9131C13.96 14.4369 10.3328 14.3601 8.43262 16.6816L8.25391 16.9131L8.12598 17.0908L7.93848 17.415C7.49552 18.5195 8.30665 19.7496 9.52246 19.75H14.5498C15.7352 19.7498 16.5247 18.5489 16.0879 17.4727L16.042 17.3682C16.0212 17.3252 15.9981 17.2831 15.9736 17.2422L15.8945 17.1221L15.7451 16.9131ZM11.999 7.25C11.585 7.25025 11.2491 7.58597 11.249 8V9C11.2491 9.41398 11.5851 9.74975 11.999 9.75C12.4132 9.75 12.7489 9.41413 12.749 9V8C12.749 7.58581 12.4132 7.25 11.999 7.25Z" fill="#4E5964"/>
</svg>
