<svg width="24" height="24" viewBox="0 0 24 24" fill="none" xmlns="http://www.w3.org/2000/svg">
<path d="M8.875 1.00004H15.125C16.7283 1.00004 17.5668 0.933172 18.3147 1.62467L1.93936 18L2 8.33216C2 4.28274 5.07804 1.00004 8.875 1.00004Z" fill="#4E5964"/>
<path d="M2.1299 21.7388C2.55933 22.8993 3.96479 23.4245 5 22.5965L9.27273 19.1789C10.8889 17.8861 13.1111 17.8861 14.7273 19.1789L19 22.5965C20.2361 23.5852 22 22.6446 22 20.9967V8.33216C22 6.55066 21.4043 4.91755 20.4136 3.64707L2.53033 21.5304C2.41705 21.6436 2.27656 21.7131 2.1299 21.7388Z" fill="#4E5964"/>
<path d="M19.5303 1.46971C19.8232 1.7626 19.8232 2.23748 19.5303 2.53037L2.53033 19.5304C2.23744 19.8233 1.76256 19.8233 1.46967 19.5304C1.17678 19.2375 1.17678 18.7626 1.46967 18.4697L18.4697 1.46971C18.7626 1.17682 19.2374 1.17682 19.5303 1.46971Z" fill="#4E5964"/>
</svg>
