<svg width="24" height="24" viewBox="0 0 24 24" fill="none" xmlns="http://www.w3.org/2000/svg">
<path d="M8.875 1H15.125C16.7283 1 18.2035 1.58533 19.3728 2.56656L2 19.9393V8.33212C2 4.2827 5.07804 1 8.875 1Z" fill="#4E5964"/>
<path d="M2.1299 21.7387C2.55933 22.8993 3.96479 23.4245 5 22.5964L9.27273 19.1788C10.8889 17.8861 13.1111 17.8861 14.7273 19.1788L19 22.5964C20.2361 23.5851 22 22.6445 22 20.9967V8.33212C22 6.55062 21.4043 4.91751 20.4136 3.64703L2.53033 21.5303C2.41705 21.6436 2.27656 21.7131 2.1299 21.7387Z" fill="#4E5964"/>
<path d="M19.5303 1.46967C19.8232 1.76256 19.8232 2.23744 19.5303 2.53033L2.53033 19.5303C2.23744 19.8232 1.76256 19.8232 1.46967 19.5303C1.17678 19.2374 1.17678 18.7626 1.46967 18.4697L18.4697 1.46967C18.7626 1.17678 19.2374 1.17678 19.5303 1.46967Z" fill="#4E5964"/>
</svg>
