<svg width="24" height="24" viewBox="0 0 24 24" fill="none" xmlns="http://www.w3.org/2000/svg">
<path fill-rule="evenodd" clip-rule="evenodd" d="M8.875 1H15.125C16.7283 1 18.2035 1.58533 19.3728 2.56656L2 19.9393V8.33212C2 4.2827 5.07804 1 8.875 1ZM2.1299 21.7387C2.55933 22.8993 3.96479 23.4245 5 22.5964L9.27273 19.1788C10.8889 17.8861 13.1111 17.8861 14.7273 19.1788L19 22.5964C20.2361 23.5851 22 22.6445 22 20.9967V8.33212C22 6.55062 21.4043 4.91751 20.4136 3.64703L2.53033 21.5303C2.41705 21.6436 2.27656 21.7131 2.1299 21.7387Z" fill="#4E5964"/>
<path d="M19 2L2 19" stroke="#4E5964" stroke-width="1.5" stroke-linecap="round" stroke-linejoin="round"/>
</svg>
