<svg width="24" height="24" viewBox="0 0 24 24" fill="none" xmlns="http://www.w3.org/2000/svg">
<path d="M9.5 2.25C5.98824 2.25 3.25 5.33428 3.25 8.99901V17.6688L1.47163 19.434C1.17766 19.7258 1.1759 20.2007 1.46771 20.4947C1.75952 20.7887 2.23439 20.7904 2.52837 20.4986L3.90696 19.1302C3.95065 19.1019 3.99205 19.0686 4.03033 19.0303L7.10137 15.9593L19.6206 3.53229C19.9146 3.24048 19.9163 2.76561 19.6245 2.47163C19.3327 2.17766 18.8578 2.1759 18.5638 2.46771L17.776 3.24978C16.8266 2.61807 15.7042 2.25 14.5 2.25H9.5Z" fill="#4E5964"/>
<path d="M19.8682 5.53995C19.6676 5.17754 19.2112 5.04635 18.8488 5.24692C18.4864 5.4475 18.3552 5.90389 18.5558 6.2663C18.5813 6.31241 18.6062 6.359 18.6305 6.40605C18.6509 6.44579 18.671 6.48586 18.6906 6.52625C19.0465 7.26067 19.25 8.1017 19.25 8.99901V19.3609C19.25 19.7611 19.0467 20.0377 18.8117 20.1659C18.5844 20.2898 18.3168 20.2872 18.0749 20.0893L14.6567 17.2931C13.0875 16.0094 10.9125 16.0094 9.3433 17.2931L5.92512 20.0893C5.62293 20.3365 5.23988 20.29 4.97912 19.9993C4.70257 19.6909 4.2284 19.6651 3.92003 19.9416C3.61166 20.2182 3.58586 20.6924 3.86241 21.0007C4.58942 21.8114 5.87481 22.0684 6.87488 21.2503L10.2931 18.4541C11.3097 17.6224 12.6903 17.6224 13.7069 18.4541L17.1251 21.2503C17.872 21.8613 18.8045 21.8784 19.5299 21.4827C20.2477 21.0913 20.75 20.309 20.75 19.3609V8.99901C20.75 7.87383 20.4947 6.80923 20.0404 5.872C20.0154 5.82045 19.9898 5.7693 19.9636 5.71854C19.9326 5.65845 19.9008 5.59891 19.8682 5.53995Z" fill="#4E5964"/>
</svg>
