<svg width="24" height="24" viewBox="0 0 24 24" fill="none" xmlns="http://www.w3.org/2000/svg">
<path d="M9.61446 2.00159H15.0361C16.427 2.00159 17.1543 1.94081 17.8031 2.56939L3.598 17.4549L3.6506 8.66663C3.6506 4.98563 6.32071 2.00159 9.61446 2.00159Z" fill="#4E5964"/>
<path d="M3.76328 20.8535C4.1358 21.9084 5.355 22.3858 6.25301 21.6332L9.95947 18.5265C11.3614 17.3514 13.2892 17.3514 14.6911 18.5265L18.3976 21.6332C19.4698 22.5319 21 21.6769 21 20.179V8.66663C21 7.0472 20.4832 5.56268 19.6239 4.40779L4.11065 20.664C4.01239 20.767 3.89051 20.8302 3.76328 20.8535Z" fill="#4E5964"/>
<path d="M18.8576 2.42853C19.1117 2.69477 19.1117 3.12644 18.8576 3.39269L4.11065 18.846C3.85657 19.1122 3.44463 19.1122 3.19056 18.846C2.93648 18.5798 2.93648 18.1481 3.19056 17.8818L17.9375 2.42853C18.1916 2.16228 18.6036 2.16228 18.8576 2.42853Z" fill="#4E5964"/>
</svg>
