<svg width="24" height="24" viewBox="0 0 24 24" fill="none" xmlns="http://www.w3.org/2000/svg">
<path d="M9 2.25C9.41421 2.25 9.75 2.58579 9.75 3C9.75 3.41421 9.41421 3.75 9 3.75H7C5.20507 3.75 3.75 5.20507 3.75 7V9C3.75 9.41421 3.41421 9.75 3 9.75C2.58579 9.75 2.25 9.41421 2.25 9V7C2.25 4.37665 4.37665 2.25 7 2.25H9Z" fill="#4E5964"/>
<path d="M13.25 3C13.25 2.58579 13.5858 2.25 14 2.25H17C19.6234 2.25 21.75 4.37665 21.75 7V9C21.75 9.41421 21.4142 9.75 21 9.75C20.5858 9.75 20.25 9.41421 20.25 9V7C20.25 5.20507 18.7949 3.75 17 3.75H14C13.5858 3.75 13.25 3.41421 13.25 3Z" fill="#4E5964"/>
<path d="M21 13.25C21.4142 13.25 21.75 13.5858 21.75 14V16.9355C21.75 19.5945 19.5945 21.75 16.9355 21.75H14C13.5858 21.75 13.25 21.4142 13.25 21C13.25 20.5858 13.5858 20.25 14 20.25H16.9355C18.766 20.25 20.25 18.766 20.25 16.9355V14C20.25 13.5858 20.5858 13.25 21 13.25Z" fill="#4E5964"/>
<path d="M10.75 21C10.75 21.4142 10.4142 21.75 10 21.75H7.06452C4.40553 21.75 2.25 19.5945 2.25 16.9355V14C2.25 13.5858 2.58579 13.25 3 13.25C3.41421 13.25 3.75 13.5858 3.75 14V16.9355C3.75 18.766 5.23396 20.25 7.06452 20.25H10C10.4142 20.25 10.75 20.5858 10.75 21Z" fill="#4E5964"/>
<path d="M6.25 9.5C6.25 7.70507 7.70508 6.25 9.5 6.25H14.5C16.2949 6.25 17.75 7.70507 17.75 9.5V11.25H6.25V9.5Z" fill="#4E5964"/>
<path d="M6.25 12.75H17.75V14.5C17.75 16.2949 16.2949 17.75 14.5 17.75H9.5C7.70507 17.75 6.25 16.2949 6.25 14.5V12.75Z" fill="#4E5964"/>
<path d="M6.25 12.75V11.25H3C2.58579 11.25 2.25 11.5858 2.25 12C2.25 12.4142 2.58579 12.75 3 12.75H6.25Z" fill="#4E5964"/>
<path d="M17.75 12.75V11.25H21C21.4142 11.25 21.75 11.5858 21.75 12C21.75 12.4142 21.4142 12.75 21 12.75H17.75Z" fill="#4E5964"/>
</svg>
