<svg width="24" height="24" viewBox="0 0 24 24" fill="none" xmlns="http://www.w3.org/2000/svg">
<path d="M9.75 2C9.75 1.58579 9.41421 1.25 9 1.25H6.66667C3.67512 1.25 1.25 3.67512 1.25 6.66667V9C1.25 9.41421 1.58579 9.75 2 9.75C2.41421 9.75 2.75 9.41421 2.75 9V6.66667C2.75 4.50355 4.50355 2.75 6.66667 2.75H9C9.41421 2.75 9.75 2.41421 9.75 2Z" fill="#4E5964"/>
<path d="M14 1.25C13.5858 1.25 13.25 1.58579 13.25 2C13.25 2.41421 13.5858 2.75 14 2.75H17.3333C19.4964 2.75 21.25 4.50355 21.25 6.66667V9C21.25 9.41421 21.5858 9.75 22 9.75C22.4142 9.75 22.75 9.41421 22.75 9V6.66667C22.75 3.67512 20.3249 1.25 17.3333 1.25H14Z" fill="#4E5964"/>
<path d="M22.75 14C22.75 13.5858 22.4142 13.25 22 13.25C21.5858 13.25 21.25 13.5858 21.25 14V17.3548C21.25 19.5061 19.5061 21.25 17.3548 21.25H14C13.5858 21.25 13.25 21.5858 13.25 22C13.25 22.4142 13.5858 22.75 14 22.75H17.3548C20.3345 22.75 22.75 20.3345 22.75 17.3548V14Z" fill="#4E5964"/>
<path d="M10 22.75C10.4142 22.75 10.75 22.4142 10.75 22C10.75 21.5858 10.4142 21.25 10 21.25H6.64516C4.49392 21.25 2.75 19.5061 2.75 17.3548V14C2.75 13.5858 2.41421 13.25 2 13.25C1.58579 13.25 1.25 13.5858 1.25 14V17.3548C1.25 20.3345 3.6655 22.75 6.64516 22.75H10Z" fill="#4E5964"/>
<path fill-rule="evenodd" clip-rule="evenodd" d="M7 15C7 16.1046 7.89543 17 9 17H15C16.1046 17 17 16.1046 17 15V12.75H22C22.4142 12.75 22.75 12.4142 22.75 12C22.75 11.5858 22.4142 11.25 22 11.25H17V9C17 7.89543 16.1046 7 15 7H9C7.89543 7 7 7.89543 7 9V11.25H2C1.58579 11.25 1.25 11.5858 1.25 12C1.25 12.4142 1.58579 12.75 2 12.75H7V15ZM7 12.75H17V11.25H7V12.75Z" fill="#4E5964"/>
</svg>
