<svg width="24" height="24" viewBox="0 0 24 24" fill="none" xmlns="http://www.w3.org/2000/svg">
<path fill-rule="evenodd" clip-rule="evenodd" d="M2.25 6.57955C2.25 4.1884 4.1884 2.25 6.57954 2.25H17.4205C19.8116 2.25 21.75 4.1884 21.75 6.57955V16.5H21.7462C21.7622 16.7039 21.7283 16.9145 21.6363 17.1137C21.497 17.4154 21.2494 17.6394 20.953 17.7785C20.5083 17.9871 20.3822 18.2889 20.3822 18.5C20.3822 18.7111 20.5083 19.0129 20.953 19.2215C21.2494 19.3606 21.497 19.5846 21.6363 19.8863C21.7753 20.1874 21.7818 20.5146 21.6833 20.805C21.4842 21.3929 20.9069 21.75 20.2618 21.75H6.12146C4.14727 21.75 2.25 20.4418 2.25 18.5C2.25 18.3871 2.25641 18.2764 2.26887 18.1679C2.25652 18.1139 2.25 18.0577 2.25 18V6.57955ZM4.07607 17.6304C3.86352 17.9031 3.75 18.2085 3.75 18.5C3.75 19.3197 4.64778 20.25 6.12146 20.25H19.7763C19.2105 19.8084 18.8822 19.1817 18.8822 18.5C18.8822 17.8183 19.2105 17.1916 19.7763 16.75H6.5C5.68861 16.75 4.89911 17.0132 4.25 17.5L4.07607 17.6304ZM12 5.25C12.4142 5.25 12.75 5.58579 12.75 6V7.25H14C14.4142 7.25 14.75 7.58579 14.75 8C14.75 8.41421 14.4142 8.75 14 8.75H12.75V13C12.75 13.4142 12.4142 13.75 12 13.75C11.5858 13.75 11.25 13.4142 11.25 13V8.75H10C9.58579 8.75 9.25 8.41421 9.25 8C9.25 7.58579 9.58579 7.25 10 7.25H11.25V6C11.25 5.58579 11.5858 5.25 12 5.25ZM20.3157 16.7555C20.3182 16.7563 20.3192 16.757 20.3192 16.757L20.3157 16.7555Z" fill="#4E5964"/>
</svg>
