<svg width="24" height="24" viewBox="0 0 24 24" fill="none" xmlns="http://www.w3.org/2000/svg">
<path fill-rule="evenodd" clip-rule="evenodd" d="M11 19C15.4183 19 19 15.4183 19 11C19 6.58172 15.4183 3 11 3C6.58172 3 3 6.58172 3 11C3 15.4183 6.58172 19 11 19ZM11 7.25C11.4142 7.25 11.75 7.58579 11.75 8V10.25H14C14.4142 10.25 14.75 10.5858 14.75 11C14.75 11.4142 14.4142 11.75 14 11.75H11.75V14C11.75 14.4142 11.4142 14.75 11 14.75C10.5858 14.75 10.25 14.4142 10.25 14V11.75H8C7.58579 11.75 7.25 11.4142 7.25 11C7.25 10.5858 7.58579 10.25 8 10.25H10.25V8C10.25 7.58579 10.5858 7.25 11 7.25Z" fill="#4E5964"/>
<path d="M18.1244 16.9274C17.8452 16.6215 17.3708 16.5997 17.0648 16.8789C16.7588 17.1581 16.7371 17.6325 17.0163 17.9385L19.8759 21.0726C20.155 21.3786 20.6294 21.4003 20.9354 21.1211C21.2414 20.8419 21.2631 20.3676 20.9839 20.0616L18.1244 16.9274Z" fill="#4E5964"/>
</svg>
