<svg width="24" height="24" viewBox="0 0 24 24" fill="none" xmlns="http://www.w3.org/2000/svg">
<path d="M11 2.25073C6.16751 2.25073 2.25 6.16824 2.25 11.0007C2.25 15.8332 6.16751 19.7507 11 19.7507C13.2377 19.7507 15.2792 18.9108 16.8264 17.5289C16.8452 17.6768 16.9082 17.8204 17.0163 17.9389L19.8759 21.073C20.155 21.379 20.6294 21.4007 20.9354 21.1215C21.2414 20.8423 21.2631 20.368 20.9839 20.062L18.1244 16.9278C17.9958 16.787 17.826 16.7064 17.6502 16.6876C18.9593 15.1582 19.75 13.1718 19.75 11.0007C19.75 6.16824 15.8325 2.25073 11 2.25073Z" fill="#4E5964"/>
</svg>
