<svg width="24" height="24" viewBox="0 0 24 24" fill="none" xmlns="http://www.w3.org/2000/svg">
<path d="M12.0312 2.25003C13.5126 2.25267 14.786 2.40224 15.9893 2.81351C17.1964 3.22616 18.291 3.88761 19.4375 4.86038C19.9439 5.29012 20.2513 5.88452 20.3535 6.50784C20.4842 7.30548 20.6759 8.67355 20.7334 10.1328C20.79 11.5707 20.721 13.1893 20.2754 14.4405C19.5536 16.4665 18.8377 17.6593 17.249 19.1201C15.7295 20.5175 14.4127 21.7499 12.0303 21.75C9.64749 21.75 8.33023 20.5176 6.81054 19.1201C5.21881 17.6564 4.52255 16.4573 3.7871 14.4473C3.31176 13.1481 3.21725 11.5389 3.25878 10.1123C3.30082 8.66924 3.48498 7.33226 3.6162 6.53714C3.72438 5.88174 4.06245 5.27035 4.60351 4.84378C5.77674 3.91915 6.86963 3.25934 8.06835 2.83792C9.26798 2.4162 10.5325 2.24737 12.0312 2.25003ZM12 8.90042C10.8405 8.90063 9.90059 9.84054 9.90038 11C9.90059 11.8949 10.4614 12.6578 11.25 12.96V15C11.2503 15.4139 11.5861 15.7498 12 15.75C12.414 15.75 12.7497 15.414 12.75 15V12.96C13.539 12.658 14.1004 11.8952 14.1006 11C14.1004 9.84041 13.1597 8.90042 12 8.90042ZM12 10.4004C12.3312 10.4004 12.6004 10.6688 12.6006 11C12.6003 11.3312 12.3312 11.6006 12 11.6006C11.669 11.6004 11.4006 11.331 11.4004 11C11.4006 10.669 11.6689 10.4006 12 10.4004Z" fill="#4E5964"/>
</svg>
