<svg width="24" height="24" viewBox="0 0 24 24" fill="none" xmlns="http://www.w3.org/2000/svg">
<path fill-rule="evenodd" clip-rule="evenodd" d="M20.5656 6.03749C20.854 7.77747 21.4041 11.9669 20.5148 14.4325C19.7419 16.5754 19.0065 17.7787 17.3344 19.2973C15.6061 20.867 14.3481 22 12.0338 22C9.7194 22 8.4614 20.867 6.73312 19.2973C5.06105 17.7787 4.34402 16.5685 3.55273 14.4325C2.59575 11.8492 3.11156 7.80044 3.40019 6.07116C3.49043 5.53049 3.76898 5.03943 4.20153 4.70274C6.74623 2.72199 8.79377 1.99433 12.0338 2.00003C15.2573 2.0057 17.3635 2.64284 19.8214 4.70274C20.2245 5.04057 20.4796 5.5186 20.5656 6.03749ZM13 11C13 11.2821 12.8832 11.5368 12.6954 11.7186C12.7306 11.8055 12.75 11.9005 12.75 12V15C12.75 15.4142 12.4142 15.75 12 15.75C11.5858 15.75 11.25 15.4142 11.25 15V12C11.25 11.9005 11.2694 11.8055 11.3046 11.7186C11.1168 11.5368 11 11.2821 11 11C11 10.4477 11.4477 10 12 10C12.5523 10 13 10.4477 13 11Z" fill="#4E5964"/>
</svg>
