<svg width="24" height="24" viewBox="0 0 24 24" fill="none" xmlns="http://www.w3.org/2000/svg">
<path fill-rule="evenodd" clip-rule="evenodd" d="M12.0314 2.25003C10.5325 2.24736 9.2682 2.41653 8.06855 2.83827C6.8698 3.25969 5.77706 3.91876 4.60382 4.84341C4.06255 5.26999 3.7248 5.88128 3.6166 6.53683C3.48538 7.33192 3.30084 8.6687 3.2588 10.112C3.21724 11.5387 3.31162 13.1476 3.78701 14.4469C4.52251 16.4571 5.21886 17.6558 6.81069 19.1197L6.85554 19.1609C8.3565 20.5414 9.67064 21.75 12.03 21.75C14.3894 21.75 15.7036 20.5414 17.2045 19.1609L17.2494 19.1197C18.8381 17.6588 19.5535 16.467 20.2752 14.4409C20.721 13.1897 20.7897 11.5711 20.7331 10.1331C20.6757 8.67371 20.484 7.30575 20.3533 6.50806C20.2511 5.88467 19.9441 5.29037 19.4377 4.86059C18.291 3.88764 17.1964 3.22592 15.989 2.81325C14.7857 2.40199 13.5128 2.25267 12.0314 2.25003ZM12 9.24997C11.0335 9.24997 10.25 10.0335 10.25 11C10.25 11.6981 10.6587 12.3007 11.25 12.5816V15C11.25 15.4142 11.5858 15.75 12 15.75C12.4142 15.75 12.75 15.4142 12.75 15L12.75 12.5816C13.3412 12.3007 13.75 11.6981 13.75 11C13.75 10.0335 12.9665 9.24997 12 9.24997Z" fill="#4E5964"/>
</svg>
