<svg width="24" height="24" viewBox="0 0 24 24" fill="none" xmlns="http://www.w3.org/2000/svg">
<path d="M3.98922 2.75C3.0125 2.75 2.2207 3.54179 2.2207 4.51852V5.74074C2.2207 6.71747 3.01249 7.50926 3.98922 7.50926H5.21144C6.18817 7.50926 6.97996 6.71747 6.97996 5.74074V4.51852C6.97996 3.54179 6.18817 2.75 5.21144 2.75H3.98922Z" fill="#4E5964"/>
<path d="M3.98922 9.37036C3.0125 9.37036 2.2207 10.1622 2.2207 11.1389V12.3611C2.2207 13.3378 3.01249 14.1296 3.98922 14.1296H5.21144C6.18817 14.1296 6.97996 13.3378 6.97996 12.3611V11.1389C6.97996 10.1622 6.18817 9.37036 5.21144 9.37036H3.98922Z" fill="#4E5964"/>
<path d="M3.98922 15.9907C3.0125 15.9907 2.2207 16.7825 2.2207 17.7592V18.9815C2.2207 19.9582 3.01249 20.75 3.98922 20.75H5.21144C6.18817 20.75 6.97996 19.9582 6.97996 18.9815V17.7592C6.97996 16.7825 6.18817 15.9907 5.21144 15.9907H3.98922Z" fill="#4E5964"/>
<path d="M9 5.75L21.1153 5.75C21.5295 5.75 21.8653 5.41421 21.8653 5C21.8653 4.58579 21.5295 4.25 21.1153 4.25L9 4.25C8.58579 4.25 8.25 4.58579 8.25 5C8.25 5.41421 8.58579 5.75 9 5.75Z" fill="#4E5964"/>
<path d="M9 12.3704H21.1153C21.5295 12.3704 21.8653 12.0346 21.8653 11.6204C21.8653 11.2061 21.5295 10.8704 21.1153 10.8704H9C8.58579 10.8704 8.25 11.2061 8.25 11.6204C8.25 12.0346 8.58579 12.3704 9 12.3704Z" fill="#4E5964"/>
<path d="M21.1153 18.9907H9C8.58579 18.9907 8.25 18.6549 8.25 18.2407C8.25 17.8265 8.58579 17.4907 9 17.4907H21.1153C21.5295 17.4907 21.8653 17.8265 21.8653 18.2407C21.8653 18.6549 21.5295 18.9907 21.1153 18.9907Z" fill="#4E5964"/>
</svg>
