<svg width="24" height="24" viewBox="0 0 24 24" fill="none" xmlns="http://www.w3.org/2000/svg">
<path fill-rule="evenodd" clip-rule="evenodd" d="M8.75 4.25H21C21.4142 4.25 21.75 4.58579 21.75 5C21.75 5.41421 21.4142 5.75 21 5.75L8.75 5.75V4.25Z" fill="#4E5964"/>
<path fill-rule="evenodd" clip-rule="evenodd" d="M15.75 11.25L21 11.25C21.4142 11.25 21.75 11.5858 21.75 12C21.75 12.4142 21.4142 12.75 21 12.75L15.75 12.75V11.25Z" fill="#4E5964"/>
<path fill-rule="evenodd" clip-rule="evenodd" d="M9.75 18.25L21 18.25C21.4142 18.25 21.75 18.5858 21.75 19C21.75 19.4142 21.4142 19.75 21 19.75L9.75 19.75V18.25Z" fill="#4E5964"/>
<path fill-rule="evenodd" clip-rule="evenodd" d="M2.25 5C2.25 4.58579 2.58579 4.25 3 4.25L4.25 4.25C4.25 4.73828 4.25 4.58579 4.25 5C4.25 5.41421 4.25 5.15625 4.25 5.75L3 5.75C2.58579 5.75 2.25 5.41421 2.25 5Z" fill="#4E5964"/>
<path fill-rule="evenodd" clip-rule="evenodd" d="M2.25 12C2.25 11.5858 2.58579 11.25 3 11.25L11.25 11.25V12.75L3 12.75C2.58579 12.75 2.25 12.4142 2.25 12Z" fill="#4E5964"/>
<path fill-rule="evenodd" clip-rule="evenodd" d="M2.25 19C2.25 18.5858 2.58579 18.25 3 18.25H5.25V19.75H3C2.58579 19.75 2.25 19.4142 2.25 19Z" fill="#4E5964"/>
<path fill-rule="evenodd" clip-rule="evenodd" d="M4.25 4C4.25 3.0335 5.0335 2.25 6 2.25H7C7.9665 2.25 8.75 3.0335 8.75 4V6C8.75 6.9665 7.9665 7.75 7 7.75H6C5.0335 7.75 4.25 6.9665 4.25 6V4Z" fill="#4E5964"/>
<path fill-rule="evenodd" clip-rule="evenodd" d="M11.25 11C11.25 10.0335 12.0335 9.25 13 9.25H14C14.9665 9.25 15.75 10.0335 15.75 11V13C15.75 13.9665 14.9665 14.75 14 14.75H13C12.0335 14.75 11.25 13.9665 11.25 13V11Z" fill="#4E5964"/>
<path fill-rule="evenodd" clip-rule="evenodd" d="M5.25 18C5.25 17.0335 6.0335 16.25 7 16.25H8C8.9665 16.25 9.75 17.0335 9.75 18V20C9.75 20.9665 8.9665 21.75 8 21.75H7C6.0335 21.75 5.25 20.9665 5.25 20V18Z" fill="#4E5964"/>
</svg>
