<svg width="24" height="24" viewBox="0 0 24 24" fill="none" xmlns="http://www.w3.org/2000/svg">
<path d="M9.76457 4.03703C10.3028 1.65432 13.6971 1.65433 14.2353 4.03703L14.3632 4.60343C14.4839 5.13662 15.0961 5.39011 15.5585 5.09855L16.0497 4.788C18.115 3.48406 20.5158 5.88482 19.2118 7.95011L18.9013 8.44132C18.6097 8.90375 18.8632 9.51599 19.3964 9.63664L19.9628 9.76457C22.3454 10.3028 22.3454 13.697 19.9628 14.2353L19.3964 14.3632C18.8632 14.4838 18.6097 15.0961 18.9013 15.5585L19.2118 16.0497C20.5156 18.115 18.115 20.5156 16.0497 19.2118L15.5585 18.9013C15.0961 18.6097 14.4839 18.8632 14.3632 19.3964L14.2353 19.9628C13.697 22.3454 10.3028 22.3454 9.76457 19.9628L9.63664 19.3964C9.51599 18.8632 8.90375 18.6097 8.44132 18.9013L7.95011 19.2118C5.88482 20.5158 3.48407 18.115 4.788 16.0497L5.09855 15.5585C5.39011 15.0961 5.13662 14.4839 4.60343 14.3632L4.03703 14.2353C1.65432 13.6971 1.65433 10.3028 4.03703 9.76457L4.60343 9.63664C5.1366 9.51596 5.39002 8.90372 5.09855 8.44132L4.788 7.95011C3.48403 5.88481 5.88481 3.48404 7.95011 4.788L8.44132 5.09855C8.90372 5.39002 9.51596 5.13661 9.63664 4.60343L9.76457 4.03703ZM11.9999 8.24992C9.92885 8.24992 8.24992 9.92885 8.24992 11.9999C8.24992 14.071 9.92885 15.7499 11.9999 15.7499C14.071 15.7499 15.7499 14.071 15.7499 11.9999C15.7499 9.92885 14.071 8.24992 11.9999 8.24992Z" fill="#4E5964"/>
</svg>
