<svg width="24" height="24" viewBox="0 0 24 24" fill="none" xmlns="http://www.w3.org/2000/svg">
<path fill-rule="evenodd" clip-rule="evenodd" d="M14.2357 4.03776C13.6975 1.65506 10.3025 1.65505 9.76429 4.03776L9.63641 4.60388C9.51587 5.1375 8.90351 5.39115 8.44094 5.09906L7.95022 4.78917C5.88482 3.48493 3.48419 5.88554 4.78844 7.95095L5.09832 8.44168C5.39042 8.90424 5.13677 9.51661 4.60315 9.63714L4.03703 9.76502C1.65433 10.3032 1.65432 13.6982 4.03703 14.2364L4.60314 14.3643C5.13677 14.4849 5.39042 15.0972 5.09832 15.5598L4.78844 16.0505C3.48419 18.1159 5.88481 20.5165 7.95021 19.2123L8.44094 18.9024C8.90351 18.6103 9.51587 18.864 9.63641 19.3976L9.76429 19.9637C10.3025 22.3464 13.6975 22.3464 14.2357 19.9637L14.3636 19.3976C14.4841 18.864 15.0965 18.6103 15.5591 18.9024L16.0498 19.2123C18.1152 20.5165 20.5158 18.1159 19.2116 16.0505L18.9017 15.5598C18.6096 15.0972 18.8632 14.4849 19.3969 14.3643L19.963 14.2364C22.3457 13.6982 22.3457 10.3032 19.963 9.76502L19.3969 9.63714C18.8632 9.51661 18.6096 8.90424 18.9017 8.44168L19.2116 7.95095C20.5158 5.88555 18.1152 3.48492 16.0498 4.78917L15.5591 5.09906C15.0965 5.39115 14.4841 5.1375 14.3636 4.60388L14.2357 4.03776ZM8.75 12.0007C8.75 10.2058 10.2051 8.75073 12 8.75073C13.7949 8.75073 15.25 10.2058 15.25 12.0007C15.25 13.7957 13.7949 15.2507 12 15.2507C10.2051 15.2507 8.75 13.7957 8.75 12.0007ZM12 7.25073C9.37665 7.25073 7.25 9.37738 7.25 12.0007C7.25 14.6241 9.37665 16.7507 12 16.7507C14.6234 16.7507 16.75 14.6241 16.75 12.0007C16.75 9.37738 14.6234 7.25073 12 7.25073Z" fill="#4E5964"/>
</svg>
