<svg width="24" height="24" viewBox="0 0 24 24" fill="none" xmlns="http://www.w3.org/2000/svg">
<path d="M8.75 12C8.75 10.2051 10.2051 8.75 12 8.75C13.7949 8.75 15.25 10.2051 15.25 12C15.25 13.7949 13.7949 15.25 12 15.25C10.2051 15.25 8.75 13.7949 8.75 12Z" fill="#4E5964"/>
<path fill-rule="evenodd" clip-rule="evenodd" d="M13.6713 3.33586C13.2689 1.55471 10.7311 1.55471 10.3287 3.33586L10.1866 3.96488C9.92589 5.11925 8.60119 5.66796 7.60055 5.03608L7.0553 4.69177C5.51134 3.71679 3.71679 5.51134 4.69176 7.0553L5.03608 7.60055C5.66796 8.60119 5.11925 9.92589 3.96488 10.1866L3.33586 10.3287C1.55471 10.7311 1.55471 13.2689 3.33586 13.6713L3.96488 13.8134C5.11925 14.0741 5.66796 15.3988 5.03608 16.3995L4.69177 16.9447C3.71679 18.4887 5.51134 20.2832 7.0553 19.3082L7.60055 18.9639C8.60119 18.332 9.92589 18.8808 10.1866 20.0351L10.3287 20.6641C10.7311 22.4453 13.2689 22.4453 13.6713 20.6641L13.8134 20.0351C14.0741 18.8808 15.3988 18.332 16.3995 18.9639L16.9447 19.3082C18.4887 20.2832 20.2832 18.4887 19.3082 16.9447L18.9639 16.3995C18.332 15.3988 18.8808 14.0741 20.0351 13.8134L20.6641 13.6713C22.4453 13.2689 22.4453 10.7311 20.6641 10.3287L20.0351 10.1866C18.8808 9.92589 18.332 8.60119 18.9639 7.60055L19.3082 7.0553C20.2832 5.51134 18.4887 3.71679 16.9447 4.69176L16.3995 5.03608C15.3988 5.66796 14.0741 5.11925 13.8134 3.96488L13.6713 3.33586ZM12 7.25C9.37665 7.25 7.25 9.37665 7.25 12C7.25 14.6234 9.37665 16.75 12 16.75C14.6234 16.75 16.75 14.6234 16.75 12C16.75 9.37665 14.6234 7.25 12 7.25Z" fill="#4E5964"/>
</svg>
