<svg width="24" height="24" viewBox="0 0 24 24" fill="none" xmlns="http://www.w3.org/2000/svg">
<path fill-rule="evenodd" clip-rule="evenodd" d="M9.25 5C9.25 4.58579 9.58579 4.25 10 4.25L21 4.25C21.4142 4.25 21.75 4.58579 21.75 5C21.75 5.41421 21.4142 5.75 21 5.75L10 5.75C9.58579 5.75 9.25 5.41421 9.25 5Z" fill="#00ABB8"/>
<path fill-rule="evenodd" clip-rule="evenodd" d="M15.25 11.25L21 11.25C21.4142 11.25 21.75 11.5858 21.75 12C21.75 12.4142 21.4142 12.75 21 12.75L15.25 12.75V11.25Z" fill="#00ABB8"/>
<path fill-rule="evenodd" clip-rule="evenodd" d="M9.25 19C9.25 18.5858 9.58579 18.25 10 18.25L21 18.25C21.4142 18.25 21.75 18.5858 21.75 19C21.75 19.4142 21.4142 19.75 21 19.75L10 19.75C9.58579 19.75 9.25 19.4142 9.25 19Z" fill="#00ABB8"/>
<path fill-rule="evenodd" clip-rule="evenodd" d="M2.25 5C2.25 4.58579 2.58579 4.25 3 4.25L5.75 4.25V5.75L3 5.75C2.58579 5.75 2.25 5.41421 2.25 5Z" fill="#00ABB8"/>
<path fill-rule="evenodd" clip-rule="evenodd" d="M2.25 12C2.25 11.5858 2.58579 11.25 3 11.25L11 11.25C11.4142 11.25 11.75 11.5858 11.75 12C11.75 12.4142 11.4142 12.75 11 12.75L3 12.75C2.58579 12.75 2.25 12.4142 2.25 12Z" fill="#00ABB8"/>
<path fill-rule="evenodd" clip-rule="evenodd" d="M2.25 19C2.25 18.5858 2.58579 18.25 3 18.25H5C5.41421 18.25 5.75 18.5858 5.75 19C5.75 19.4142 5.41421 19.75 5 19.75H3C2.58579 19.75 2.25 19.4142 2.25 19Z" fill="#00ABB8"/>
<path d="M12 10.9C12 10.4029 12.4029 10 12.9 10H14.1C14.5971 10 15 10.4029 15 10.9V13.1C15 13.5971 14.5971 14 14.1 14H12.9C12.4029 14 12 13.5971 12 13.1V10.9Z" fill="#00ABB8"/>
<path fill-rule="evenodd" clip-rule="evenodd" d="M11.25 10.9C11.25 9.98873 11.9887 9.25 12.9 9.25H14.1C15.0113 9.25 15.75 9.98873 15.75 10.9V13.1C15.75 14.0113 15.0113 14.75 14.1 14.75H12.9C11.9887 14.75 11.25 14.0113 11.25 13.1V10.9ZM12.9 10.75C12.8172 10.75 12.75 10.8172 12.75 10.9V13.1C12.75 13.1828 12.8172 13.25 12.9 13.25H14.1C14.1828 13.25 14.25 13.1828 14.25 13.1V10.9C14.25 10.8172 14.1828 10.75 14.1 10.75H12.9Z" fill="#00ABB8"/>
<path d="M6 17.9C6 17.4029 6.40294 17 6.9 17H8.1C8.59706 17 9 17.4029 9 17.9V20.1C9 20.5971 8.59706 21 8.1 21H6.9C6.40294 21 6 20.5971 6 20.1V17.9Z" fill="#00ABB8"/>
<path fill-rule="evenodd" clip-rule="evenodd" d="M5.25 17.9C5.25 16.9887 5.98873 16.25 6.9 16.25H8.1C9.01127 16.25 9.75 16.9887 9.75 17.9V20.1C9.75 21.0113 9.01127 21.75 8.1 21.75H6.9C5.98873 21.75 5.25 21.0113 5.25 20.1V17.9ZM6.9 17.75C6.81716 17.75 6.75 17.8172 6.75 17.9V20.1C6.75 20.1828 6.81716 20.25 6.9 20.25H8.1C8.18284 20.25 8.25 20.1828 8.25 20.1V17.9C8.25 17.8172 8.18284 17.75 8.1 17.75H6.9Z" fill="#00ABB8"/>
<path d="M6 3.9C6 3.40294 6.40294 3 6.9 3H8.1C8.59706 3 9 3.40294 9 3.9V6.1C9 6.59706 8.59706 7 8.1 7H6.9C6.40294 7 6 6.59706 6 6.1V3.9Z" fill="#00ABB8"/>
<path fill-rule="evenodd" clip-rule="evenodd" d="M5.25 3.9C5.25 2.98873 5.98873 2.25 6.9 2.25H8.1C9.01127 2.25 9.75 2.98873 9.75 3.9V6.1C9.75 7.01127 9.01127 7.75 8.1 7.75H6.9C5.98873 7.75 5.25 7.01127 5.25 6.1V3.9ZM6.9 3.75C6.81716 3.75 6.75 3.81716 6.75 3.9V6.1C6.75 6.18284 6.81716 6.25 6.9 6.25H8.1C8.18284 6.25 8.25 6.18284 8.25 6.1V3.9C8.25 3.81716 8.18284 3.75 8.1 3.75H6.9Z" fill="#00ABB8"/>
</svg>
