<svg width="24" height="24" viewBox="0 0 24 24" fill="none" xmlns="http://www.w3.org/2000/svg">
<path fill-rule="evenodd" clip-rule="evenodd" d="M10.0557 3.05606C11.1107 2.00107 12.8071 1.98461 13.8848 3.00235L13.8878 3.0043L13.9444 3.05606L14.086 3.20742C14.4124 3.58703 14.6213 4.04217 14.7061 4.51992C16.536 5.13697 18.1042 6.36153 19.1466 7.99453C20.2444 9.71456 20.6852 11.7726 20.3887 13.7914C20.3332 14.1693 20.2531 14.5421 20.1485 14.9057C20.1218 14.9985 20.0924 15.0904 20.0626 15.182L20.086 15.2074C20.7582 15.9892 20.9401 17.0898 20.5411 18.0531C20.1154 19.0805 19.1121 19.7504 18.0001 19.7504C17.5999 19.7504 17.2145 19.6623 16.8643 19.5033C15.4359 20.5048 13.7279 21.0477 11.9698 21.0424C10.3001 21.0373 8.67718 20.5396 7.29987 19.6244C7.242 19.586 7.18498 19.5462 7.128 19.5063C6.77987 19.663 6.39734 19.7504 6.00007 19.7504C4.88798 19.7504 3.8848 19.0805 3.45905 18.0531C3.05702 17.0825 3.24586 15.9736 3.93073 15.1908C3.77741 14.7213 3.66449 14.2366 3.59479 13.7416C3.31034 11.7209 3.7639 9.66507 4.87214 7.95156C5.91673 6.33657 7.47726 5.12727 9.29401 4.51699C9.39107 3.97497 9.64939 3.46247 10.0557 3.05606ZM9.45808 6.05117C8.09656 6.58213 6.93024 7.5303 6.13093 8.76602C5.21889 10.1763 4.84616 11.8685 5.08015 13.5316C5.11947 13.811 5.17608 14.0866 5.24811 14.3568C6.15095 14.1016 7.1583 14.3162 7.88483 15.0023L7.88776 15.0043L7.9444 15.0561L8.086 15.2074C8.75818 15.9892 8.94008 17.0898 8.54108 18.0531C8.47729 18.2071 8.39876 18.3518 8.31061 18.4887C9.40459 19.1686 10.6711 19.5383 11.9737 19.5424C13.2932 19.5464 14.5788 19.175 15.6866 18.4848C15.5995 18.3491 15.5222 18.2055 15.4591 18.0531C15.0334 17.0256 15.2694 15.8426 16.0557 15.0561C16.783 14.3288 17.8152 14.0946 18.7393 14.3529C18.8076 14.0975 18.8665 13.8385 18.9053 13.5746C19.1495 11.9125 18.7858 10.2172 17.8819 8.80117C17.0838 7.55084 15.9112 6.59173 14.5391 6.05508C14.1128 7.08108 13.1113 7.75037 12.0001 7.75039C10.888 7.75039 9.8848 7.08045 9.45905 6.05313L9.45808 6.05117Z" fill="#4E5964"/>
</svg>
