<svg width="24" height="24" viewBox="0 0 24 24" fill="none" xmlns="http://www.w3.org/2000/svg">
<path d="M14.4336 6.43463C14.4336 4.70574 15.8351 3.3042 17.564 3.3042C19.2929 3.3042 20.6945 4.70574 20.6945 6.43463C20.6945 8.16353 19.2929 9.56507 17.564 9.56507C16.5384 9.56507 15.6279 9.07181 15.057 8.30956L9.43799 11.119C9.51975 11.3984 9.5636 11.694 9.5636 11.9998C9.5636 12.1458 9.55361 12.2894 9.53428 12.4301L15.0563 15.1911C15.6272 14.4283 16.538 13.9346 17.564 13.9346C19.2929 13.9346 20.6945 15.3362 20.6945 17.0651C20.6945 18.794 19.2929 20.1955 17.564 20.1955C15.8351 20.1955 14.4336 18.794 14.4336 17.0651C14.4336 16.8986 14.4466 16.7352 14.4716 16.5758L8.97497 13.8275C8.40661 14.6165 7.47988 15.1303 6.43317 15.1303C4.70428 15.1303 3.30273 13.7287 3.30273 11.9998C3.30273 10.2709 4.70428 8.86938 6.43317 8.86938C7.31499 8.86938 8.11164 9.23399 8.68061 9.82068L14.4718 6.92509C14.4466 6.7653 14.4336 6.60149 14.4336 6.43463Z" fill="#4E5964"/>
</svg>
