<svg width="24" height="24" viewBox="0 0 24 24" fill="none" xmlns="http://www.w3.org/2000/svg">
<path fill-rule="evenodd" clip-rule="evenodd" d="M12.0314 2.25003C10.5325 2.24736 9.2682 2.41653 8.06855 2.83827C6.8698 3.25969 5.77706 3.91876 4.60382 4.84341C4.06255 5.26999 3.7248 5.88128 3.6166 6.53683C3.48538 7.33192 3.30084 8.6687 3.2588 10.112C3.21724 11.5387 3.31162 13.1476 3.78701 14.4469C4.52251 16.4571 5.21886 17.6558 6.81069 19.1197L6.85554 19.1609C8.3565 20.5414 9.67064 21.75 12.03 21.75C14.3894 21.75 15.7036 20.5414 17.2045 19.1609L17.2494 19.1197C18.8381 17.6588 19.5535 16.467 20.2752 14.4409C20.721 13.1897 20.7897 11.5711 20.7331 10.1331C20.6757 8.67371 20.484 7.30575 20.3533 6.50806C20.2511 5.88467 19.9441 5.29037 19.4377 4.86059C18.291 3.88764 17.1964 3.22592 15.989 2.81325C14.7857 2.40199 13.5128 2.25267 12.0314 2.25003ZM8 7.25C7.58579 7.25 7.25 7.58579 7.25 8C7.25 8.41421 7.58579 8.75 8 8.75H13.0637C14.0055 8.75 14.7008 8.96598 15.012 9.43809C15.2988 9.87321 15.2932 10.2559 15.1688 10.5518C15.0465 10.8427 14.7846 11.1047 14.4285 11.25H9.75V11C9.75 10.5858 9.41421 10.25 9 10.25C8.58579 10.25 8.25 10.5858 8.25 11V15.5C8.25 16.1904 8.80964 16.75 9.5 16.75H13.2795C14.172 16.75 15.3814 16.5609 16.1079 15.5992C16.7524 14.7462 16.8209 13.8182 16.5022 13.0188C16.3602 12.6628 16.1469 12.3436 15.8907 12.0701C16.1727 11.8088 16.4007 11.492 16.5516 11.1331C16.8777 10.3574 16.8154 9.44858 16.2644 8.6126C15.5007 7.45387 14.0752 7.25 13.0637 7.25H8ZM9.75 12.75H14.3686C14.7114 12.9578 14.9833 13.2595 15.1088 13.5743C15.2354 13.8918 15.2356 14.2654 14.9111 14.695C14.6299 15.0671 14.0587 15.25 13.2795 15.25H9.75V12.75ZM12.75 17.25V19C12.75 19.4142 12.4142 19.75 12 19.75C11.5858 19.75 11.25 19.4142 11.25 19V17.25H12.75ZM12.75 5C12.75 4.58579 12.4142 4.25 12 4.25C11.5858 4.25 11.25 4.58579 11.25 5V6.75H12.75V5Z" fill="#4E5964"/>
</svg>
