<svg width="24" height="24" viewBox="0 0 24 24" fill="none" xmlns="http://www.w3.org/2000/svg">
<path d="M19.5048 5.96027C19.9136 5.89432 20.299 6.17165 20.3652 6.58039C20.4972 7.39847 20.6826 8.75785 20.7353 10.1986C20.7872 11.6184 20.7145 13.2076 20.2753 14.4407C19.5536 16.4667 18.8376 17.6596 17.249 19.1204L17.204 19.1614C15.7033 20.5417 14.3892 21.7502 12.0302 21.7503C9.78923 21.7503 8.49746 20.663 7.08588 19.3724C6.78046 19.0929 6.75968 18.6184 7.03901 18.3128C7.31855 18.0074 7.793 17.9865 8.09858 18.2659C9.48821 19.5365 10.4054 20.2503 12.0302 20.2503C13.7615 20.2502 14.6817 19.4437 16.2343 18.0159C17.6181 16.7434 18.2099 15.7689 18.8623 13.9378C19.2024 12.9829 19.2866 11.6295 19.2363 10.2532C19.1867 8.89766 19.0105 7.60534 18.8837 6.81964C18.8178 6.41088 19.0961 6.02641 19.5048 5.96027Z" fill="#4E5964"/>
<path d="M20.0185 1.98468C20.3124 1.69299 20.7872 1.69484 21.079 1.98859C21.3708 2.28256 21.3691 2.75735 21.0751 3.04914L3.98335 20.0159C3.68946 20.3074 3.21456 20.3056 2.9228 20.012C2.63099 19.7181 2.63273 19.2423 2.9267 18.9505L4.94917 16.9417C4.49003 16.2072 4.14008 15.4123 3.78706 14.4476C3.31173 13.1485 3.21722 11.5391 3.25874 10.1126C3.30077 8.66965 3.48494 7.33257 3.61616 6.53742C3.72433 5.88203 4.06244 5.27063 4.60346 4.84406C5.77669 3.91942 6.86958 3.25962 8.06831 2.8382C9.26793 2.41648 10.5324 2.24765 12.0312 2.25031C12.5946 2.25132 13.1282 2.27382 13.6386 2.32355C14.2163 2.37985 14.7654 2.47163 15.2968 2.60773C15.5999 2.68538 15.8972 2.77739 16.1894 2.88507C16.4076 2.96551 16.6235 3.05447 16.8369 3.15265L16.8915 3.17707L16.8935 3.17804C16.9717 3.21285 17.0779 3.25927 17.2011 3.31281C17.3299 3.3688 17.4781 3.43315 17.6328 3.50129C17.8296 3.588 18.0519 3.69067 18.2167 3.77179L20.0185 1.98468Z" fill="#4E5964"/>
</svg>
