<svg width="24" height="24" viewBox="0 0 24 24" fill="none" xmlns="http://www.w3.org/2000/svg">
<path d="M20.0542 2.52672C20.3451 2.23184 20.3418 1.75698 20.047 1.46608C19.7521 1.17518 19.2772 1.17841 18.9863 1.47328L17.4205 3.06048C15.8675 2.28176 14.2505 2.00377 12.1548 2.00003C8.9585 1.99433 6.93859 2.72199 4.42823 4.70273C4.00118 5.03969 3.72721 5.52826 3.63871 6.06499C3.35417 7.79079 2.843 11.8461 3.78818 14.4324C4.02454 15.0792 4.25419 15.6411 4.50531 16.1524L2.21571 18.4733C1.92482 18.7682 1.92804 19.243 2.22292 19.5339C2.51779 19.8248 2.99266 19.8216 3.28355 19.5267L20.0542 2.52672Z" fill="#4E5964"/>
<path d="M20.5214 14.4324C21.3996 11.9644 20.8548 7.76885 20.5706 6.03213C20.4862 5.51676 20.2353 5.04084 19.8373 4.70273C19.7546 4.63247 19.6723 4.56386 19.5904 4.49688L5.9555 18.3182C6.23987 18.6384 6.55956 18.9603 6.92565 19.2973C8.63062 20.867 9.87163 22 12.1548 22C14.4379 22 15.6789 20.867 17.3839 19.2973C19.0334 17.7787 19.7588 16.5754 20.5214 14.4324Z" fill="#4E5964"/>
</svg>
