<svg width="24" height="24" viewBox="0 0 24 24" fill="none" xmlns="http://www.w3.org/2000/svg">
<path fill-rule="evenodd" clip-rule="evenodd" d="M20.5656 6.03749C20.854 7.77747 21.4041 11.9669 20.5148 14.4325C19.7419 16.5754 19.0065 17.7787 17.3344 19.2973C15.6061 20.867 14.3481 22 12.0338 22C9.7194 22 8.4614 20.867 6.73312 19.2973C6.36054 18.9589 6.03537 18.6359 5.74624 18.3144L19.567 4.49364C19.6515 4.56165 19.7362 4.63134 19.8214 4.70274C20.2245 5.04057 20.4796 5.5186 20.5656 6.03749ZM18.335 3.60435L4.8245 17.1149C4.33157 16.3506 3.95158 15.5091 3.55273 14.4325C2.59575 11.8492 3.11156 7.80044 3.40019 6.07116C3.49043 5.53049 3.76898 5.03943 4.20153 4.70274C6.74623 2.72199 8.79377 1.99433 12.0338 2.00003C14.5936 2.00454 16.4488 2.40723 18.335 3.60435Z" fill="#4E5964"/>
<path d="M19.5 2L2.5 19" stroke="#4E5964" stroke-width="1.5" stroke-linecap="round" stroke-linejoin="round"/>
</svg>
