<svg width="24" height="24" viewBox="0 0 24 24" fill="none" xmlns="http://www.w3.org/2000/svg">
<path fill-rule="evenodd" clip-rule="evenodd" d="M8.06855 2.83827C9.2682 2.41653 10.5325 2.24736 12.0314 2.25003C13.5128 2.25267 14.7857 2.40199 15.989 2.81325C17.1964 3.22592 18.291 3.88764 19.4377 4.86059C19.9441 5.29037 20.2511 5.88467 20.3533 6.50806C20.484 7.30575 20.6757 8.67371 20.7331 10.1331C20.7897 11.5711 20.721 13.1897 20.2752 14.4409C19.5535 16.467 18.8381 17.6588 17.2494 19.1197L17.2045 19.1609C15.7036 20.5414 14.3894 21.75 12.03 21.75C9.67064 21.75 8.3565 20.5414 6.85554 19.1609L6.81069 19.1197C5.21886 17.6558 4.52251 16.4571 3.78701 14.4469C3.31162 13.1476 3.21724 11.5387 3.2588 10.112C3.30084 8.6687 3.48538 7.33192 3.6166 6.53683C3.7248 5.88128 4.06255 5.26999 4.60382 4.84341C5.77706 3.91876 6.8698 3.25969 8.06855 2.83827Z" fill="#4E5964"/>
</svg>
