<svg width="24" height="24" viewBox="0 0 24 24" fill="none" xmlns="http://www.w3.org/2000/svg">
<path d="M4.49134 14.1892C3.63977 11.8618 4.10019 8.21245 4.35659 6.65896C4.43637 6.1756 4.68329 5.7357 5.06806 5.43246C7.33001 3.64979 9.15005 2.9949 12.03 3.00003C12.5749 3.001 13.0838 3.02252 13.5658 3.06948C14.1111 3.12261 14.6218 3.20829 15.1111 3.33362C15.3902 3.40511 15.6624 3.4895 15.9299 3.5881C16.1307 3.6621 16.3289 3.7441 16.5256 3.83467L16.5865 3.86218C16.8983 4.00098 17.7864 4.37738 18 4.5L5.97203 16.8645C5.86621 16.9733 5.68176 16.8984 5.68176 16.7466C5.68176 16.7136 5.67208 16.6814 5.65417 16.6538C5.20017 15.9524 4.85456 15.1819 4.49134 14.1892Z" fill="#4E5964"/>
<path fill-rule="evenodd" clip-rule="evenodd" d="M8.56602 4.25337C7.56926 4.60378 6.621 5.16349 5.5323 6.02151C5.30404 6.20141 5.14794 6.46993 5.09658 6.7811C4.97141 7.5395 4.79753 8.80413 4.75816 10.1557C4.7183 11.5239 4.81949 12.9033 5.19568 13.9315C5.4632 14.6627 5.713 15.2479 5.99629 15.764L16.7166 4.74371L16.2815 4.54733C16.2809 4.54708 16.2803 4.54682 16.2797 4.54657C16.2551 4.53558 16.232 4.52518 16.2118 4.5159C16.0387 4.43619 15.8646 4.36386 15.6883 4.2984L14.9071 4.05558C14.4709 3.94495 14.0106 3.8672 13.5122 3.81782L12.0126 3.75001C10.6391 3.74878 9.558 3.90464 8.56602 4.25337ZM16.8366 3.15222C16.6231 3.05396 16.4076 2.96485 16.1893 2.88437C15.897 2.77666 15.6004 2.68473 15.2972 2.60707C14.7656 2.47091 14.2164 2.37932 13.6386 2.32302C13.1281 2.27328 12.5948 2.25103 12.0314 2.25003C10.5325 2.24736 9.2682 2.41653 8.06855 2.83827C6.8698 3.25968 5.77706 3.91876 4.60382 4.84341C4.06255 5.26999 3.7248 5.88127 3.6166 6.53683C3.48537 7.33191 3.30084 8.66869 3.2588 10.112C3.21724 11.5387 3.31162 13.1476 3.78701 14.4469C4.14117 15.4149 4.49158 16.2122 4.95286 16.9487C5.10011 17.6339 5.98359 17.9282 6.50962 17.3875L19.2112 4.33052L18.3734 3.84956C18.2234 3.76342 17.9025 3.6198 17.6325 3.50084C17.4777 3.43263 17.3299 3.36838 17.201 3.31235C17.0776 3.2587 16.9715 3.21259 16.8932 3.17776C16.8927 3.17751 16.8921 3.17727 16.8916 3.17702L16.8366 3.15222ZM5.02459 17.0613C5.02412 17.0606 5.02365 17.0599 5.02319 17.0592L5.02459 17.0613ZM19.5051 5.9595C19.9141 5.89349 20.2991 6.17148 20.3651 6.58041C20.4971 7.39846 20.6829 8.75705 20.7356 10.1979C20.7875 11.6181 20.7146 13.2075 20.2752 14.4409C19.5535 16.4669 18.8381 17.6587 17.2494 19.1196L17.2045 19.1609C15.7036 20.5414 14.3894 21.75 12.03 21.75C9.78894 21.75 8.49776 20.6631 7.08611 19.3724C6.78041 19.0929 6.75917 18.6185 7.03867 18.3128C7.31818 18.0071 7.79257 17.9859 8.09827 18.2654C9.4882 19.5362 10.405 20.25 12.03 20.25C13.7616 20.25 14.6813 19.4434 16.2341 18.0155C17.618 16.7429 18.2099 15.7688 18.8622 13.9375C19.2024 12.9825 19.2869 11.6291 19.2366 10.2527C19.187 8.89697 19.011 7.60509 18.8842 6.81942C18.8182 6.4105 19.0962 6.0255 19.5051 5.9595Z" fill="#4E5964"/>
<path d="M20.5473 2.51685L3.45508 19.4832" stroke="#4E5964" stroke-width="1.5" stroke-linecap="round" stroke-linejoin="round"/>
</svg>
