<svg width="24" height="24" viewBox="0 0 24 24" fill="none" xmlns="http://www.w3.org/2000/svg">
<path d="M12.0312 2.25C13.5126 2.25264 14.786 2.40221 15.9893 2.81348C17.1964 3.22612 18.291 3.88758 19.4375 4.86035C19.9439 5.29008 20.2513 5.8845 20.3535 6.50781C20.4842 7.30544 20.6759 8.67353 20.7334 10.1328C20.79 11.5709 20.7211 13.1902 20.2754 14.4414C19.5537 16.4672 18.8376 17.6593 17.249 19.1201L17.2041 19.1611C15.7033 20.5414 14.3893 21.7499 12.0303 21.75C9.67091 21.75 8.3564 20.5416 6.85547 19.1611L6.81055 19.1201C5.2188 17.6564 4.52257 16.4573 3.78711 14.4473C3.31175 13.1481 3.21725 11.5389 3.25879 10.1123C3.30083 8.66916 3.48499 7.33223 3.61621 6.53711C3.72439 5.88169 4.06244 5.27032 4.60352 4.84375C5.77675 3.91911 6.86963 3.25931 8.06836 2.83789C9.26799 2.41616 10.5325 2.24734 12.0312 2.25ZM12.25 4.99512C11.8358 4.99512 11.5 5.3309 11.5 5.74512V7.24512H10.5C10.4519 7.24512 10.405 7.25014 10.3594 7.25879C10.3237 7.25357 10.2872 7.25098 10.25 7.25098H8.75C8.33579 7.25098 8 7.58676 8 8.00098C8.00051 8.41476 8.3361 8.75098 8.75 8.75098H9.75V14.251H8.75C8.33579 14.251 8 14.5868 8 15.001C8.00051 15.4148 8.3361 15.751 8.75 15.751H10.25C10.2991 15.751 10.3471 15.7453 10.3936 15.7363C10.4284 15.7413 10.4638 15.7451 10.5 15.7451H11.5V17.2451C11.5002 17.6591 11.8359 17.9951 12.25 17.9951C12.6641 17.9951 12.9998 17.6591 13 17.2451V15.7451H13.6113C14.8844 15.745 15.9167 14.7125 15.917 13.4395V13.0508C15.917 12.4407 15.6779 11.887 15.291 11.4746C15.6779 11.0622 15.9168 10.5087 15.917 9.89941V9.55078C15.917 8.27753 14.8846 7.24524 13.6113 7.24512H13V5.74512C13 5.33091 12.6642 4.99512 12.25 4.99512ZM13.6113 12.2451C14.0561 12.2452 14.417 12.606 14.417 13.0508V13.4395C14.4167 13.8841 14.056 14.245 13.6113 14.2451H11.25V12.2451H13.6113ZM13.6113 8.74512C14.0561 8.74524 14.417 9.10596 14.417 9.55078V9.89941C14.4165 10.3395 14.0622 10.6979 13.6221 10.7041L11.25 10.7373V8.74512H13.6113Z" fill="#4E5964"/>
</svg>
