<svg width="24" height="24" viewBox="0 0 24 24" fill="none" xmlns="http://www.w3.org/2000/svg">
<path d="M20.0546 3.27672C20.3455 2.98184 20.3423 2.50698 20.0474 2.21608C19.7525 1.92518 19.2776 1.92841 18.9867 2.22328L17.421 3.81048C15.8679 3.03176 14.2509 2.75377 12.1552 2.75003C8.95893 2.74433 6.93901 3.47199 4.42865 5.45273C4.0016 5.78969 3.72764 6.27826 3.63914 6.81499C3.3546 8.54079 2.84342 12.5961 3.78861 15.1824C4.02497 15.8292 4.25462 16.3911 4.50574 16.9024L2.21614 19.2233C1.92524 19.5182 1.92847 19.993 2.22335 20.2839C2.51822 20.5748 2.99308 20.5716 3.28398 20.2767L20.0546 3.27672Z" fill="#4E5964"/>
<path d="M20.5218 15.1824C21.4 12.7144 20.8553 8.51885 20.571 6.78213C20.4867 6.26676 20.2358 5.79084 19.8378 5.45273C19.7551 5.38247 19.6728 5.31386 19.5908 5.24688L5.95592 19.0682C6.2403 19.3884 6.55999 19.7103 6.92608 20.0473C8.63104 21.617 9.87206 22.75 12.1552 22.75C14.4383 22.75 15.6794 21.617 17.3843 20.0473C19.0338 18.5287 19.7593 17.3254 20.5218 15.1824Z" fill="#4E5964"/>
</svg>
