<svg width="24" height="24" viewBox="0 0 24 24" fill="none" xmlns="http://www.w3.org/2000/svg">
<path d="M19.5049 5.95996C19.9137 5.89397 20.2991 6.17132 20.3652 6.58008C20.4973 7.39813 20.6827 8.75736 20.7354 10.1982C20.7872 11.6182 20.7146 13.2072 20.2754 14.4404C19.5536 16.4665 18.8377 17.6592 17.249 19.1201L17.2041 19.1611C15.7033 20.5414 14.3893 21.7499 12.0303 21.75C9.78918 21.75 8.49759 20.6628 7.08594 19.3721C6.78048 19.0925 6.75964 18.6181 7.03906 18.3125C7.31861 18.0071 7.79305 17.9862 8.09863 18.2656C9.48838 19.5363 10.4053 20.25 12.0303 20.25C13.7617 20.2499 14.6817 19.4434 16.2344 18.0156C17.6182 16.7431 18.21 15.7687 18.8623 13.9375C19.2025 12.9825 19.2866 11.6293 19.2363 10.2529C19.1868 8.89718 19.0106 7.605 18.8838 6.81934C18.8179 6.41057 19.0962 6.0261 19.5049 5.95996ZM12.0312 2.25C12.5947 2.251 13.1282 2.27351 13.6387 2.32324C14.2164 2.37954 14.7654 2.47131 15.2969 2.60742C15.6001 2.68508 15.8972 2.77706 16.1895 2.88477C16.4077 2.96522 16.6235 3.05413 16.8369 3.15234L16.8916 3.17676L16.8936 3.17773C16.9718 3.21255 17.0779 3.25891 17.2012 3.3125C17.33 3.36851 17.4781 3.43281 17.6328 3.50098C17.9026 3.61984 18.2229 3.76348 18.373 3.84961L19.2109 4.33008L6.50977 17.3877C5.98372 17.9284 5.10036 17.6334 4.95312 16.9482C4.49196 16.2119 4.14119 15.415 3.78711 14.4473C3.31176 13.1481 3.21725 11.5389 3.25879 10.1123C3.30083 8.66918 3.48499 7.33223 3.61621 6.53711C3.72439 5.8817 4.06245 5.27032 4.60352 4.84375C5.77675 3.91911 6.86964 3.25931 8.06836 2.83789C9.26798 2.41616 10.5325 2.24734 12.0312 2.25Z" fill="#4E5964"/>
<path d="M20.5473 2.51685L3.45508 19.4832" stroke="#4E5964" stroke-width="1.5" stroke-linecap="round" stroke-linejoin="round"/>
</svg>
