<svg width="24" height="24" viewBox="0 0 24 24" fill="none" xmlns="http://www.w3.org/2000/svg">
<path d="M11.1816 2.48022C11.7031 2.23245 12.31 2.2401 12.8262 2.49878L18.6377 5.41089C19.1442 5.66473 19.5218 6.14017 19.623 6.72144C19.7405 7.39755 19.9204 8.60038 19.9805 9.9187C20.0399 11.2224 19.9852 12.7078 19.5957 13.9187C19.0902 15.4899 17.9082 17.0296 16.7246 18.2859C15.5278 19.5562 14.2655 20.6031 13.5225 21.1853C12.8946 21.677 12.027 21.6935 11.3809 21.2253C10.5983 20.6581 9.24861 19.6243 7.94727 18.3552C6.65922 17.0991 5.35478 15.5527 4.7373 13.9558C4.29296 12.8065 4.10735 11.3793 4.03711 10.1023C3.96625 8.81346 4.01107 7.61953 4.05371 6.90698C4.09429 6.22913 4.50903 5.65269 5.09961 5.37183L11.1816 2.48022ZM13.0605 4.46948C12.5735 4.226 12.0007 4.58137 12.002 5.12573L12.042 18.8953L12.0508 19.0085C12.1296 19.5198 12.7258 19.8035 13.167 19.4998L13.2588 19.4246C13.7759 18.9395 14.6699 18.0701 15.5654 17.0466C16.456 16.0287 17.3722 14.8327 17.9141 13.697C18.4017 12.6745 18.5382 11.2868 18.5537 10.114C18.5694 8.9251 18.4605 7.88281 18.416 7.50952C18.3861 7.25944 18.2305 7.05458 18.0195 6.94897L13.0605 4.46948Z" fill="#4E5964"/>
</svg>
