<svg width="24" height="24" viewBox="0 0 24 24" fill="none" xmlns="http://www.w3.org/2000/svg">
<path d="M12.8252 2.52783L18.5713 5.31982C19.1763 5.614 19.6051 6.20994 19.6318 6.91455C19.6378 7.0712 19.6481 7.27477 19.6602 7.51416C19.6966 8.23623 19.7495 9.28652 19.75 10.3745C19.7506 11.8062 19.6636 13.4385 19.2813 14.5913C18.7497 16.1933 17.4791 17.6448 16.2402 18.772C14.9848 19.9142 13.6763 20.8006 12.9541 21.2583C12.8879 21.3002 12.8196 21.3372 12.75 21.3696V2.49561C12.775 2.50642 12.8006 2.51588 12.8252 2.52783Z" fill="#4E5964"/>
<path d="M11.25 21.3687C11.1808 21.3363 11.1127 21.3 11.0469 21.2583C10.3246 20.8006 9.01546 19.9143 7.75977 18.772C6.52085 17.6449 5.25038 16.1942 4.71876 14.5923C4.33633 13.4395 4.24916 11.8072 4.25001 10.3755C4.25067 9.28708 4.30348 8.23552 4.33985 7.51318C4.35189 7.27413 4.36226 7.07094 4.36817 6.91455C4.39495 6.20987 4.82451 5.61391 5.42969 5.31982L11.1758 2.52783C11.2 2.51608 11.2254 2.50724 11.25 2.49658V21.3687Z" fill="#4E5964"/>
</svg>
