<svg width="24" height="24" viewBox="0 0 24 24" fill="none" xmlns="http://www.w3.org/2000/svg">
<path fill-rule="evenodd" clip-rule="evenodd" d="M11.1817 2.48031C11.7031 2.23255 12.3101 2.24022 12.8262 2.49886L18.6377 5.41097C19.1442 5.6648 19.5218 6.1403 19.6231 6.72152C19.7405 7.39761 19.9204 8.6005 19.9805 9.91879C20.0399 11.2225 19.9852 12.7079 19.5957 13.9188C19.0902 15.4899 17.9082 17.0297 16.7246 18.286C15.5278 19.5563 14.2655 20.6032 13.5225 21.1854C12.8947 21.6771 12.027 21.6936 11.3809 21.2254C10.5983 20.6582 9.24859 19.6243 7.94729 18.3553C6.65926 17.0992 5.3548 15.5527 4.73733 13.9559C4.29301 12.8066 4.10737 11.3793 4.03713 10.1024C3.96628 8.81359 4.01109 7.6196 4.05374 6.90707C4.09435 6.22926 4.50909 5.65276 5.09963 5.37191L11.1817 2.48031ZM13.0606 4.46957C12.5736 4.22616 12.0008 4.58154 12.002 5.12582L12.042 18.8953L12.0508 19.0086C12.1296 19.5199 12.7258 19.8036 13.167 19.4998L13.2588 19.4246C13.7759 18.9396 14.67 18.0702 15.5655 17.0467C16.456 16.0288 17.3723 14.8328 17.9141 13.6971C18.4017 12.6746 18.5383 11.2869 18.5537 10.1141C18.5694 8.92523 18.4606 7.88288 18.416 7.50961C18.3861 7.25957 18.2305 7.05465 18.0196 6.94906L13.0606 4.46957Z" fill="#4E5964"/>
</svg>
