<svg width="24" height="24" viewBox="0 0 24 24" fill="none" xmlns="http://www.w3.org/2000/svg">
<path d="M20.5148 14.4324C21.4041 11.9669 20.854 7.77746 20.5656 6.03748C20.4796 5.5186 20.2245 5.04057 19.8214 4.70273C17.3635 2.64284 15.2573 2.0057 12.0338 2.00003C8.79377 1.99433 6.74623 2.72199 4.20153 4.70273C3.76898 5.03942 3.49043 5.53049 3.40019 6.07115C3.11156 7.80043 2.59575 11.8492 3.55273 14.4324C4.34402 16.5684 5.06105 17.7787 6.73312 19.2973C8.4614 20.867 9.7194 22 12.0338 22C14.3481 22 15.6061 20.867 17.3344 19.2973C19.0065 17.7787 19.7419 16.5754 20.5148 14.4324Z" fill="#4E5964"/>
</svg>
