<svg width="24" height="24" viewBox="0 0 24 24" fill="none" xmlns="http://www.w3.org/2000/svg">
<path d="M21.4609 14.6757C22.449 11.9636 21.8377 7.35521 21.5173 5.44123C21.4218 4.87046 21.1384 4.34462 20.6905 3.973C17.9594 1.70713 15.6192 1.00627 12.0375 1.00004C8.43753 0.993767 6.16247 1.79418 3.33503 3.973C2.85442 4.34336 2.54492 4.88354 2.44465 5.47827C2.12395 7.38047 1.55084 11.8341 2.61414 14.6757C3.49335 17.0253 4.29005 18.3566 6.14791 20.027C8.06823 21.7537 9.466 23 12.0375 23C14.609 23 16.0068 21.7537 17.9271 20.027C19.785 18.3566 20.6021 17.033 21.4609 14.6757Z" fill="#4E5964"/>
</svg>
