<svg width="24" height="24" viewBox="0 0 24 24" fill="none" xmlns="http://www.w3.org/2000/svg">
<path d="M12 9.57617C12.5625 10.2729 13.3922 10.7264 14.334 10.748C14.493 10.7517 14.6535 10.7509 14.8125 10.7471C15.7496 10.7246 16.5757 10.2755 17.1377 9.58398C17.7535 10.3466 18.6891 10.8146 19.7354 10.7412C20.168 10.75 20.9648 10.6699 21.75 10.5264V16.5029C21.7498 19.4027 19.3988 21.7535 16.499 21.7529L7.49902 21.751C4.60031 21.7502 2.25027 19.3997 2.25 16.501V10.4805C2.99331 10.6523 3.79262 10.7506 4.26367 10.7412C5.31091 10.815 6.24594 10.3454 6.8623 9.58203C7.42473 10.2753 8.25253 10.7252 9.19141 10.7471C9.34949 10.7507 9.50891 10.7507 9.66699 10.7471C10.6082 10.7251 11.4374 10.2724 12 9.57617ZM11 13.25C10.0335 13.25 9.25 14.0335 9.25 15V19C9.25 19.4142 9.58581 19.75 10 19.75C10.4142 19.75 10.75 19.4142 10.75 19V15C10.75 14.8619 10.8619 14.75 11 14.75H13C13.1381 14.75 13.25 14.8619 13.25 15V19C13.25 19.4142 13.5858 19.75 14 19.75C14.4142 19.75 14.75 19.4142 14.75 19V15C14.75 14.0335 13.9665 13.25 13 13.25H11ZM18.1709 2.25C19.6189 2.25 20.9376 3.08362 21.5586 4.3916L22.4648 6.30078L22.4727 6.31836C22.8226 7.10775 22.8389 8.00857 22.5332 8.80273C22.3016 8.87285 22.0384 8.93949 21.7598 8.99707C20.9012 9.17446 20.0413 9.25496 19.7441 9.24316L19.6523 9.24512C18.8112 9.31545 17.992 8.64857 17.8936 7.62891V7.62109C17.8936 7.21785 17.5748 6.88626 17.1719 6.87109C16.7689 6.85604 16.4257 7.16236 16.3955 7.56445C16.3218 8.54952 15.5772 9.22896 14.7764 9.24805C14.6407 9.25128 14.5038 9.25116 14.3682 9.24805C13.5714 9.22953 12.8303 8.55749 12.75 7.58008V7.5C12.75 7.0858 12.4142 6.75001 12 6.75C11.586 6.75025 11.25 7.08594 11.25 7.5V7.58887C11.166 8.56096 10.4266 9.22953 9.63184 9.24805C9.497 9.25118 9.3614 9.25118 9.22656 9.24805C8.42538 9.22944 7.68019 8.5499 7.60645 7.56445C7.57626 7.16236 7.23304 6.85605 6.83008 6.87109C6.42711 6.88623 6.1084 7.21783 6.1084 7.62109V7.62891C6.00898 8.64875 5.18928 9.31549 4.34766 9.24512C4.31716 9.24257 4.28644 9.24099 4.25586 9.24219C3.96638 9.25352 3.23805 9.17631 2.51367 9.00195C2.15848 8.91645 1.83701 8.81558 1.59375 8.70703C1.50743 8.6685 1.44412 8.63316 1.39746 8.60547C1.16552 7.86171 1.20608 7.04306 1.52734 6.31836L1.53516 6.30078L2.44141 4.3916C3.06241 3.08363 4.38118 2.25005 5.8291 2.25H18.1709Z" fill="#4E5964"/>
</svg>
