<svg width="24" height="24" viewBox="0 0 24 24" fill="none" xmlns="http://www.w3.org/2000/svg">
<path d="M12 9.57617C12.5625 10.2729 13.3921 10.7264 14.334 10.748C14.493 10.7517 14.6534 10.7509 14.8125 10.7471C15.7496 10.7246 16.5757 10.2755 17.1377 9.58398C17.7534 10.3466 18.689 10.8146 19.7353 10.7412C20.168 10.75 20.9647 10.6699 21.75 10.5264V16.5029C21.7498 19.4027 19.3988 21.7535 16.499 21.7529L7.499 21.751C4.60028 21.7502 2.25025 19.3997 2.24998 16.501V10.4805C2.99329 10.6523 3.79259 10.7506 4.26365 10.7412C5.31089 10.815 6.24592 10.3454 6.86228 9.58203C7.4247 10.2753 8.25251 10.7252 9.19138 10.7471C9.34946 10.7507 9.50889 10.7507 9.66697 10.7471C10.6082 10.7251 11.4374 10.2724 12 9.57617ZM11 13.25C10.0335 13.25 9.24998 14.0335 9.24998 15V19C9.24998 19.4142 9.58578 19.75 9.99998 19.75C10.4142 19.75 10.75 19.4142 10.75 19V15C10.75 14.8619 10.8619 14.75 11 14.75H13C13.138 14.75 13.25 14.8619 13.25 15V19C13.25 19.4142 13.5858 19.75 14 19.75C14.4142 19.75 14.75 19.4142 14.75 19V15C14.75 14.0335 13.9665 13.25 13 13.25H11ZM18.1709 2.25C19.6188 2.25 20.9375 3.08362 21.5586 4.3916L22.4648 6.30078L22.4726 6.31836C22.8226 7.10775 22.8389 8.00857 22.5332 8.80273C22.3016 8.87285 22.0384 8.93949 21.7597 8.99707C20.9011 9.17446 20.0413 9.25496 19.7441 9.24316L19.6523 9.24512C18.8112 9.31545 17.992 8.64857 17.8935 7.62891V7.62109C17.8935 7.21785 17.5748 6.88626 17.1719 6.87109C16.7689 6.85604 16.4257 7.16236 16.3955 7.56445C16.3218 8.54952 15.5772 9.22896 14.7763 9.24805C14.6407 9.25128 14.5038 9.25116 14.3681 9.24805C13.5714 9.22953 12.8303 8.55749 12.75 7.58008V7.5C12.75 7.0858 12.4142 6.75001 12 6.75C11.586 6.75025 11.25 7.08594 11.25 7.5V7.58887C11.1659 8.56096 10.4266 9.22953 9.63181 9.24805C9.49697 9.25118 9.36137 9.25118 9.22654 9.24805C8.42535 9.22944 7.68016 8.5499 7.60642 7.56445C7.57623 7.16236 7.23302 6.85605 6.83005 6.87109C6.42709 6.88623 6.10838 7.21783 6.10838 7.62109V7.62891C6.00895 8.64875 5.18926 9.31549 4.34763 9.24512C4.31714 9.24257 4.28641 9.24099 4.25584 9.24219C3.96636 9.25352 3.23803 9.17631 2.51365 9.00195C2.15845 8.91645 1.83699 8.81558 1.59373 8.70703C1.50741 8.6685 1.4441 8.63316 1.39744 8.60547C1.1655 7.86171 1.20606 7.04306 1.52732 6.31836L1.53513 6.30078L2.44138 4.3916C3.06238 3.08363 4.38116 2.25005 5.82908 2.25H18.1709Z" fill="#4E5964"/>
</svg>
