<svg width="24" height="24" viewBox="0 0 24 24" fill="none" xmlns="http://www.w3.org/2000/svg">
<path d="M10.1074 20.5801C10.1073 20.9941 9.77139 21.3299 9.35742 21.3301C8.94331 21.3301 8.60759 20.9942 8.60742 20.5801V19.792H10.1074V20.5801ZM12.25 20.5801C12.2498 20.9941 11.914 21.3299 11.5 21.3301C11.086 21.3299 10.7502 20.9941 10.75 20.5801V19.792H12.25V20.5801ZM14.3936 20.5801C14.3934 20.9939 14.0573 21.3297 13.6436 21.3301C13.2294 21.3301 12.8937 20.9942 12.8936 20.5801V19.792H14.3936V20.5801ZM11.4854 3.25001C15.9066 3.2435 19.7498 6.31144 19.75 10.2695V13.4756L19.7402 13.6983C19.6935 14.2154 19.485 14.7027 19.1514 15.1113C18.7721 15.5757 18.2494 15.9175 17.665 16.1113L16.7393 16.417L16.7402 16.418C16.6482 16.4485 16.5799 16.4935 16.5361 16.5371C16.5162 16.5571 16.5022 16.576 16.4922 16.5928V18.7412C16.4922 19.3211 16.0222 19.7919 15.4424 19.792H14.3936V19.5547C14.3936 19.1407 14.0574 18.8051 13.6436 18.8047C13.2293 18.8047 12.8936 19.1405 12.8936 19.5547V19.792H12.25V19.5547C12.25 19.1406 11.9141 18.8049 11.5 18.8047C11.0859 18.8048 10.75 19.1406 10.75 19.5547V19.792H10.1074V19.5547C10.1074 19.1406 9.7715 18.8049 9.35742 18.8047C8.94321 18.8047 8.60742 19.1405 8.60742 19.5547V19.792H7.55762C6.97781 19.7919 6.50781 19.3211 6.50781 18.7412V16.5928C6.49782 16.5762 6.48357 16.5578 6.46387 16.5381C6.42017 16.4945 6.3525 16.4495 6.26074 16.419L5.33594 16.1123C4.75158 15.9185 4.22793 15.5767 3.84863 15.1123C3.515 14.7037 3.30654 14.2163 3.25977 13.6992L3.25 13.4766V10.2168C3.25001 6.24808 7.07329 3.25657 11.4854 3.25001ZM11.5 13.5908C11.2797 13.5909 11.0721 13.6877 10.9307 13.8525L10.874 13.9277L9.80273 15.5518C9.65086 15.782 9.63786 16.0774 9.76855 16.3203C9.89939 16.5631 10.1529 16.7149 10.4287 16.7149H12.5713C12.8472 16.7148 13.1017 16.5633 13.2324 16.3203C13.3631 16.0774 13.3492 15.782 13.1973 15.5518L12.126 13.9277C11.9872 13.7175 11.7519 13.5909 11.5 13.5908ZM8.5 8.27149C8.1796 8.27149 7.86655 8.3845 7.59668 8.53321C7.32207 8.68458 7.05977 8.89093 6.83301 9.1211C6.40266 9.55806 6.00011 10.1862 6 10.8008C6.00019 11.4195 6.40721 12.0345 6.83984 12.458C7.27343 12.8823 7.89332 13.2715 8.5 13.2715C9.61002 13.2715 10.5 12.3627 10.5 11.2539C10.4999 10.7345 10.3019 10.0341 10.0029 9.46583C9.85118 9.17748 9.65861 8.89371 9.4248 8.67579C9.19282 8.45962 8.87932 8.27149 8.5 8.27149ZM14.5 8.27149C14.1207 8.27149 13.8072 8.45962 13.5752 8.67579C13.3414 8.89371 13.1488 9.17748 12.9971 9.46583C12.6981 10.0341 12.5001 10.7345 12.5 11.2539C12.5 12.3627 13.39 13.2715 14.5 13.2715C15.1067 13.2715 15.7266 12.8823 16.1602 12.458C16.5928 12.0345 16.9998 11.4195 17 10.8008C16.9999 10.1862 16.5973 9.55806 16.167 9.1211C15.9402 8.89093 15.6779 8.68458 15.4033 8.53321C15.1334 8.3845 14.8204 8.27149 14.5 8.27149Z" fill="#4E5964"/>
</svg>
