<svg width="24" height="24" viewBox="0 0 24 24" fill="none" xmlns="http://www.w3.org/2000/svg">
<path d="M12 19.25C13.8879 19.25 15.8166 19.5956 17.3262 20.3242C17.6991 20.5043 17.8558 20.9532 17.6758 21.3262C17.4957 21.6991 17.0468 21.8548 16.6738 21.6748C15.4219 21.0706 13.7311 20.75 12 20.75C10.2687 20.75 8.57782 21.0706 7.32617 21.6748C6.9532 21.8549 6.50435 21.6991 6.32422 21.3262C6.14413 20.9532 6.30083 20.5043 6.67383 20.3242C8.18319 19.5955 10.112 19.25 12 19.25ZM17 2.25C19.6234 2.25 21.75 4.37665 21.75 7V13C21.75 15.6234 19.6234 17.75 17 17.75H7C4.37665 17.75 2.25 15.6234 2.25 13V7C2.25 4.37665 4.37665 2.25 7 2.25H17ZM6.19922 6.25C5.78503 6.25 5.44926 6.58583 5.44922 7C5.44922 7.41421 5.78501 7.75 6.19922 7.75H7.78125V14C7.78125 14.4142 8.11704 14.75 8.53125 14.75C8.94546 14.75 9.28125 14.4142 9.28125 14V7.75H10.8662C11.2803 7.74982 11.6162 7.4141 11.6162 7C11.6162 6.58593 11.2802 6.25018 10.8662 6.25H6.19922ZM17.7686 6.28809C17.3757 6.15713 16.9504 6.36984 16.8193 6.7627L15.1973 11.6279L13.5762 6.7627C13.4451 6.36982 13.0199 6.15713 12.627 6.28809C12.2341 6.4191 12.0224 6.8444 12.1533 7.2373L14.4863 14.2373C14.5884 14.5433 14.8747 14.7498 15.1973 14.75C15.52 14.75 15.8071 14.5435 15.9092 14.2373L18.2422 7.2373C18.3731 6.84443 18.1614 6.41914 17.7686 6.28809Z" fill="#4E5964"/>
</svg>
