<svg width="24" height="24" viewBox="0 0 24 24" fill="none" xmlns="http://www.w3.org/2000/svg">
<path fill-rule="evenodd" clip-rule="evenodd" d="M2.25 7C2.25 4.37665 4.37665 2.25 7 2.25H17C19.6234 2.25 21.75 4.37665 21.75 7V13C21.75 15.6234 19.6234 17.75 17 17.75H7C4.37665 17.75 2.25 15.6234 2.25 13V7ZM11.9997 20.75C10.2684 20.75 8.57775 21.0709 7.32608 21.6752C6.95306 21.8552 6.50468 21.6988 6.32459 21.3258C6.14451 20.9528 6.3009 20.5044 6.67392 20.3243C8.18328 19.5956 10.1118 19.25 11.9997 19.25C13.8877 19.25 15.8163 19.5956 17.326 20.3243C17.699 20.5044 17.8555 20.9527 17.6754 21.3258C17.4954 21.6988 17.047 21.8552 16.674 21.6752C15.4219 21.0709 13.7311 20.75 11.9997 20.75ZM17.6708 7.60792C17.8561 7.23745 17.7059 6.78694 17.3355 6.60167C16.965 6.4164 16.5145 6.56653 16.3292 6.937L14.2723 11.0501L12.2434 6.99233C12.0994 6.70436 11.8051 6.52246 11.4831 6.52246H7C6.58579 6.52246 6.25 6.85825 6.25 7.27246C6.25 7.68667 6.58579 8.02246 7 8.02246H8.06641V12.727C8.06641 13.1412 8.40219 13.477 8.81641 13.477C9.23062 13.477 9.56641 13.1412 9.56641 12.727V8.02246H11.0814L13.5119 12.8835C13.8252 13.51 14.7192 13.51 15.0324 12.8836L17.6708 7.60792Z" fill="#4E5964"/>
</svg>
