<svg width="24" height="24" viewBox="0 0 24 24" fill="none" xmlns="http://www.w3.org/2000/svg">
<path d="M12 19.2522C13.8879 19.2522 15.8166 19.5978 17.3262 20.3264C17.699 20.5065 17.8558 20.9554 17.6758 21.3284C17.4956 21.7011 17.0467 21.8569 16.6738 21.677C15.4218 21.0728 13.7311 20.7522 12 20.7522C10.2687 20.7522 8.57781 21.0728 7.32617 21.677C6.95329 21.857 6.5044 21.7011 6.32421 21.3284C6.14415 20.9554 6.3009 20.5066 6.67382 20.3264C8.18318 19.5977 10.112 19.2522 12 19.2522ZM16 2.25213C16 3.83967 16.4486 5.24711 17.3515 6.27266C17.1103 6.33255 16.9037 6.50987 16.8193 6.76289L15.1972 11.6281L13.5762 6.76289C13.4452 6.36996 13.0199 6.1573 12.6269 6.28828C12.2341 6.41932 12.0223 6.84459 12.1533 7.2375L14.4863 14.2375C14.5884 14.5435 14.8747 14.75 15.1972 14.7502C15.52 14.7502 15.807 14.5437 15.9092 14.2375L18.2422 7.2375C18.2597 7.18485 18.2697 7.13136 18.2754 7.07832C19.1553 7.66294 20.2916 8.0002 21.6904 8.0002L21.75 13.0022C21.7499 15.6254 19.6233 17.7522 17 17.7522H6.99999C4.37672 17.7522 2.25012 15.6254 2.25 13.0022V7.00215C2.25 4.37879 4.37664 2.25213 6.99999 2.25213H16ZM6.19921 6.2502C5.785 6.2502 5.44921 6.58598 5.44921 7.0002C5.44927 7.41436 5.78504 7.7502 6.19921 7.7502H7.78124V14.0002C7.7813 14.4144 8.11707 14.7502 8.53124 14.7502C8.94542 14.7502 9.28118 14.4144 9.28124 14.0002V7.7502H10.8662C11.2802 7.75002 11.6161 7.41425 11.6162 7.0002C11.6162 6.58609 11.2803 6.25037 10.8662 6.2502H6.19921ZM18.1601 1.18963C20.7743 1.40714 22.7173 3.70335 22.5 6.31758C22.4655 6.73016 22.103 7.03644 21.6904 7.00215C21.2776 6.96783 20.9705 6.60537 21.0049 6.19258C21.1534 4.40395 19.8238 2.83345 18.0351 2.68475C17.6225 2.65025 17.3163 2.28785 17.3506 1.87518C17.3849 1.46244 17.7474 1.15531 18.1601 1.18963ZM17.9961 3.1828C19.5094 3.30881 20.6346 4.63812 20.5088 6.15156C20.4743 6.56412 20.1118 6.87027 19.6992 6.83613C19.2864 6.80182 18.9793 6.43935 19.0136 6.02656C19.0706 5.33877 18.5589 4.73511 17.8711 4.67792C17.4585 4.64344 17.1523 4.28096 17.1865 3.86835C17.2208 3.45557 17.5833 3.14848 17.9961 3.1828Z" fill="#4E5964"/>
</svg>
