<svg width="24" height="24" viewBox="0 0 24 24" fill="none" xmlns="http://www.w3.org/2000/svg">
<path d="M12 19.2502C13.8879 19.2503 15.8166 19.5958 17.3262 20.3245C17.699 20.5046 17.8557 20.9535 17.6758 21.3264C17.4956 21.6991 17.0467 21.8549 16.6738 21.675C15.4219 21.0708 13.7311 20.7503 12 20.7502C10.2688 20.7502 8.57782 21.0708 7.32617 21.675C6.95331 21.855 6.50441 21.6991 6.32422 21.3264C6.14422 20.9535 6.30094 20.5046 6.67383 20.3245C8.18318 19.5958 10.1121 19.2502 12 19.2502ZM12.7559 2.25024C14.0765 2.25028 15.3376 2.80014 16.2363 3.76782L20.4805 8.33911C21.2961 9.21754 21.7499 10.3719 21.75 11.5706V13.0002C21.7498 15.6235 19.6232 17.7502 17 17.7502H7C4.37675 17.7502 2.25017 15.6235 2.25 13.0002V7.00024C2.25006 4.37694 4.37668 2.25024 7 2.25024H12.7559ZM6.20117 6.25024C5.78696 6.25024 5.45117 6.58603 5.45117 7.00024C5.4513 7.41435 5.78704 7.75024 6.20117 7.75024H7.7832V14.0002C7.78333 14.4144 8.11907 14.7502 8.5332 14.7502C8.94734 14.7502 9.28308 14.4144 9.2832 14.0002V7.75024H10.8682C11.2822 7.75007 11.618 7.41424 11.6182 7.00024C11.6182 6.58614 11.2822 6.25042 10.8682 6.25024H6.20117ZM17.8115 6.28833C17.4186 6.15735 16.9933 6.37002 16.8623 6.76294L15.2402 11.6282L13.6191 6.76294C13.4881 6.37 13.0629 6.15735 12.6699 6.28833C12.2771 6.41938 12.0653 6.84465 12.1963 7.23755L14.5293 14.2375C14.6314 14.5435 14.9177 14.7501 15.2402 14.7502C15.5629 14.7502 15.85 14.5436 15.9521 14.2375L18.2852 7.23755C18.4161 6.84468 18.2043 6.41942 17.8115 6.28833ZM18.3945 1.2522C21.0087 1.46971 22.9517 3.76595 22.7344 6.38013C22.6999 6.79271 22.3374 7.09898 21.9248 7.0647C21.512 7.03038 21.2049 6.66791 21.2393 6.25513C21.3877 4.46654 20.0582 2.89601 18.2695 2.74731C17.8569 2.71281 17.5507 2.35041 17.585 1.93774C17.6194 1.52505 17.9818 1.21789 18.3945 1.2522ZM18.2305 3.24536C19.7438 3.37137 20.8689 4.70071 20.7432 6.21411C20.7087 6.62667 20.3462 6.93282 19.9336 6.89868C19.5208 6.86436 19.2137 6.5019 19.248 6.08911C19.3049 5.40135 18.7933 4.79766 18.1055 4.74048C17.6929 4.70599 17.3867 4.34351 17.4209 3.93091C17.4553 3.51817 17.8177 3.21105 18.2305 3.24536Z" fill="#4E5964"/>
</svg>
