<svg width="24" height="24" viewBox="0 0 24 24" fill="none" xmlns="http://www.w3.org/2000/svg">
<path d="M12 19.2504C13.8879 19.2505 15.8166 19.596 17.3262 20.3246C17.6991 20.5048 17.8558 20.9536 17.6758 21.3266C17.4956 21.6993 17.0467 21.8551 16.6738 21.6752C15.4219 21.071 13.7311 20.7505 12 20.7504C10.2687 20.7504 8.57782 21.071 7.32617 21.6752C6.95331 21.8552 6.50441 21.6993 6.32422 21.3266C6.14415 20.9536 6.30092 20.5048 6.67383 20.3246C8.18319 19.5959 10.112 19.2504 12 19.2504Z" fill="#4E5964"/>
<path fill-rule="evenodd" clip-rule="evenodd" d="M12.7559 2.25042C14.0765 2.25046 15.3376 2.80028 16.2363 3.768L20.4805 8.33929C21.2961 9.21774 21.7499 10.372 21.75 11.5707V13.0004C21.7498 15.6236 19.6232 17.7504 17 17.7504H7C4.37675 17.7504 2.25017 15.6236 2.25 13.0004V7.00042C2.25 4.37707 4.37665 2.25042 7 2.25042H12.7559ZM6.25195 6.50042C6.084 6.50044 6.00002 6.58442 6 6.75237V7.56878C6.00022 7.73632 6.08421 7.82072 6.25195 7.82073H7.62012C7.70804 7.82077 7.75195 7.86461 7.75195 7.95257V13.9643C7.75206 14.132 7.83998 14.2161 8.01562 14.2162H9.02441C9.19204 14.2161 9.27626 14.1319 9.27637 13.9643V7.95257C9.27637 7.86459 9.32397 7.82076 9.41992 7.82073H10.7881C10.9558 7.8207 11.0398 7.73631 11.04 7.56878V6.75237C11.04 6.58443 10.956 6.50045 10.7881 6.50042H6.25195ZM11.6084 6.50042C11.3924 6.50042 11.3122 6.59279 11.3682 6.77679L13.2285 13.9643C13.2606 14.1321 13.3604 14.2162 13.5283 14.2162H15.1006C15.2523 14.2161 15.3487 14.132 15.3887 13.9643L17.248 6.77679C17.288 6.59293 17.2084 6.50057 17.0088 6.50042H15.8799C15.7202 6.50057 15.6248 6.58461 15.5928 6.75237L14.332 12.6567H14.2842L13.0244 6.75237C12.9924 6.5844 12.8963 6.50043 12.7363 6.50042H11.6084Z" fill="#4E5964"/>
<path d="M18.3945 1.25237C21.0087 1.46989 22.9517 3.76608 22.7344 6.3803C22.6999 6.79288 22.3374 7.09916 21.9248 7.06487C21.512 7.03056 21.2049 6.66809 21.2393 6.2553C21.3878 4.46667 20.0582 2.89619 18.2695 2.74749C17.8569 2.71299 17.5507 2.35059 17.585 1.93792C17.6193 1.52517 17.9818 1.21806 18.3945 1.25237Z" fill="#4E5964"/>
<path d="M18.2305 3.24554C19.7439 3.37155 20.869 4.70084 20.7432 6.21429C20.7087 6.62684 20.3462 6.93299 19.9336 6.89886C19.5208 6.86454 19.2137 6.50208 19.248 6.08929C19.305 5.40149 18.7933 4.79784 18.1055 4.74065C17.6929 4.70617 17.3867 4.34369 17.4209 3.93108C17.4552 3.51829 17.8177 3.21122 18.2305 3.24554Z" fill="#4E5964"/>
</svg>
