<svg width="24" height="24" viewBox="0 0 24 24" fill="none" xmlns="http://www.w3.org/2000/svg">
<path d="M18.3932 1.25262C17.9804 1.2183 17.618 1.52511 17.5836 1.9379C17.5493 2.35069 17.8561 2.71315 18.2689 2.74746C20.0577 2.89617 21.3872 4.4668 21.2385 6.25555C21.2042 6.66834 21.511 7.0308 21.9238 7.06511C22.3366 7.09943 22.699 6.79262 22.7333 6.37983C22.9507 3.7655 21.0075 1.46997 18.3932 1.25262Z" fill="#4E5964"/>
<path fill-rule="evenodd" clip-rule="evenodd" d="M2.25 7.00004C2.25 4.37669 4.37665 2.25004 7 2.25004H12.7557C14.0765 2.25004 15.3377 2.8 16.2365 3.7679L20.4808 8.33866C21.2966 9.21725 21.75 10.3718 21.75 11.5708V13C21.75 15.6234 19.6234 17.75 17 17.75H7C4.37665 17.75 2.25 15.6234 2.25 13V7.00004ZM17.6708 7.60821C17.8561 7.23774 17.7059 6.78722 17.3355 6.60195C16.965 6.41668 16.5145 6.56681 16.3292 6.93728L14.2723 11.0504L12.2434 6.99262C12.0994 6.70465 11.8051 6.52275 11.4831 6.52275H7C6.58579 6.52275 6.25 6.85853 6.25 7.27275C6.25 7.68696 6.58579 8.02275 7 8.02275H8.06641V12.7273C8.06641 13.1415 8.40219 13.4773 8.81641 13.4773C9.23062 13.4773 9.56641 13.1415 9.56641 12.7273V8.02275H11.0814L13.5119 12.8838C13.8252 13.5103 14.7192 13.5103 15.0324 12.8839L17.6708 7.60821Z" fill="#4E5964"/>
<path d="M11.9997 20.75C10.2684 20.75 8.57775 21.0709 7.32608 21.6752C6.95306 21.8553 6.50468 21.6989 6.32459 21.3259C6.14451 20.9529 6.3009 20.5045 6.67392 20.3244C8.18328 19.5957 10.1118 19.25 11.9997 19.25C13.8877 19.25 15.8163 19.5957 17.326 20.3244C17.699 20.5044 17.8555 20.9528 17.6754 21.3258C17.4954 21.6988 17.047 21.8553 16.674 21.6752C15.4219 21.0709 13.7311 20.75 11.9997 20.75Z" fill="#4E5964"/>
<path d="M17.4196 3.93082C17.4539 3.51803 17.8163 3.21122 18.2291 3.24554C19.7427 3.37137 20.8677 4.70036 20.7418 6.21392C20.7075 6.62671 20.3451 6.93353 19.9323 6.89921C19.5195 6.86489 19.2127 6.50244 19.247 6.08965C19.3042 5.40167 18.7928 4.79758 18.1049 4.74038C17.6921 4.70607 17.3853 4.34361 17.4196 3.93082Z" fill="#4E5964"/>
</svg>
