<svg width="24" height="24" viewBox="0 0 24 24" fill="none" xmlns="http://www.w3.org/2000/svg">
<path d="M12 19.25C13.8879 19.25 15.8166 19.5956 17.3262 20.3242C17.6991 20.5043 17.8558 20.9532 17.6758 21.3262C17.4957 21.6991 17.0468 21.8548 16.6738 21.6748C15.4219 21.0706 13.7311 20.75 12 20.75C10.2687 20.75 8.57782 21.0706 7.32617 21.6748C6.9532 21.8549 6.50435 21.6991 6.32422 21.3262C6.14413 20.9532 6.30083 20.5043 6.67383 20.3242C8.18319 19.5955 10.112 19.25 12 19.25Z" fill="#4E5964"/>
<path fill-rule="evenodd" clip-rule="evenodd" d="M17 2.25C19.6234 2.25 21.75 4.37665 21.75 7V13C21.75 15.6234 19.6234 17.75 17 17.75H7C4.37665 17.75 2.25 15.6234 2.25 13V7C2.25 4.37665 4.37665 2.25 7 2.25H17ZM6.75195 6.5C6.584 6.50002 6.50002 6.584 6.5 6.75195V7.56836C6.50012 7.7361 6.5841 7.8203 6.75195 7.82031H8.12012C8.20804 7.82035 8.25195 7.86419 8.25195 7.95215V13.9639C8.25195 14.1317 8.33988 14.2157 8.51562 14.2158H9.52441C9.69214 14.2157 9.77637 14.1317 9.77637 13.9639V7.95215C9.77637 7.86417 9.82397 7.82034 9.91992 7.82031H11.2881C11.4559 7.82028 11.5399 7.73609 11.54 7.56836V6.75195C11.54 6.58401 11.456 6.50003 11.2881 6.5H6.75195ZM12.1084 6.5C11.8924 6.5 11.8122 6.59237 11.8682 6.77637L13.7285 13.9639C13.7605 14.1319 13.8603 14.2158 14.0283 14.2158H15.6006C15.7524 14.2157 15.8487 14.1318 15.8887 13.9639L17.748 6.77637C17.788 6.59251 17.7084 6.50015 17.5088 6.5H16.3799C16.2202 6.50015 16.1248 6.58419 16.0928 6.75195L14.832 12.6562H14.7842L13.5244 6.75195C13.4924 6.58398 13.3963 6.50001 13.2363 6.5H12.1084Z" fill="#4E5964"/>
</svg>
