<svg width="24" height="25" viewBox="0 0 24 25" fill="none" xmlns="http://www.w3.org/2000/svg">
<path fill-rule="evenodd" clip-rule="evenodd" d="M15.7771 20.2757H7.5C4.46244 20.2757 2 17.8132 2 14.7757V9.53687C2 8.31021 2.40157 7.17735 3.08042 6.26256L7.94963 11.3615L4.81292 15.8259C4.5748 16.1648 4.65651 16.6326 4.99543 16.8707C5.33435 17.1089 5.80214 17.0272 6.04027 16.6882L9.0058 12.4674L10.1136 13.6275C10.9786 14.5329 12.394 14.526 13.2506 13.6131L14.0188 12.7945L16.7554 16.69C16.9935 17.029 17.4612 17.1107 17.8002 16.8726C18.1391 16.6345 18.2209 16.1668 17.9828 15.8278L15.0672 11.6773L16.0409 10.6396L16.0449 10.6353L17.5977 8.95438C17.9328 9.07737 18.3137 9.15646 18.7442 9.19713C20.0891 9.32416 21.2771 10.2979 21.2771 11.6488V14.7757C21.2771 17.8132 18.8147 20.2757 15.7771 20.2757ZM16.3724 8.07018L14.9451 9.61527L12.1568 12.5867C11.8886 12.8725 11.4684 12.8741 11.1984 12.5916L4.13011 5.18984C5.06101 4.46714 6.23026 4.03687 7.5 4.03687H14.5301C15.0624 4.03687 15.4894 4.4711 15.5188 5.00261C15.5966 6.40553 15.861 7.39987 16.3724 8.07018Z" fill="#4E5964"/>
<path fill-rule="evenodd" clip-rule="evenodd" d="M19.8313 3.27563C18.6335 3.27563 17.6626 4.29803 17.6626 5.55922C17.6626 6.8204 18.6335 7.8428 19.8313 7.8428C21.029 7.8428 21.9999 6.8204 21.9999 5.55922C21.9999 4.29803 21.029 3.27563 19.8313 3.27563ZM19.1084 5.55922C19.1084 5.13882 19.432 4.79802 19.8313 4.79802C20.2305 4.79802 20.5542 5.13882 20.5542 5.55922C20.5542 5.97961 20.2305 6.32041 19.8313 6.32041C19.432 6.32041 19.1084 5.97961 19.1084 5.55922Z" fill="#4E5964"/>
</svg>
