<svg width="24" height="24" viewBox="0 0 24 24" fill="none" xmlns="http://www.w3.org/2000/svg">
<path fill-rule="evenodd" clip-rule="evenodd" d="M15.7771 20H7.5C4.46244 20 2 17.5376 2 14.5V9.26123C2 8.03457 2.40157 6.90171 3.08042 5.98692L7.94963 11.0858L4.81292 15.5503C4.5748 15.8892 4.65651 16.357 4.99543 16.5951C5.33435 16.8332 5.80214 16.7515 6.04027 16.4126L9.0058 12.1918L10.1136 13.3519L10.1137 13.352C10.9787 14.2574 12.394 14.2503 13.2506 13.3375L14.0188 12.5188L16.7554 16.4144C16.9935 16.7533 17.4612 16.8351 17.8002 16.597C18.1391 16.3589 18.2209 15.8911 17.9828 15.5522L15.0672 11.4017L16.0409 10.364L16.0409 10.364L16.0449 10.3597L17.5977 8.67874C17.9328 8.80173 18.3137 8.88083 18.7442 8.92149C20.0891 9.04852 21.2771 10.0223 21.2771 11.3732V11.8806V14.5C21.2771 17.5376 18.8147 20 15.7771 20ZM16.3724 7.79454L14.9451 9.33963L13.5558 10.8202L12.1568 12.311C11.8886 12.5968 11.4684 12.5985 11.1984 12.3159L11.1983 12.3158L4.13011 4.9142C5.06101 4.1915 6.23026 3.76123 7.5 3.76123H12.4418H14.5301C15.0624 3.76123 15.4894 4.19546 15.5188 4.72697C15.5966 6.12989 15.861 7.12423 16.3724 7.79454Z" fill="#00A881"/>
<path fill-rule="evenodd" clip-rule="evenodd" d="M19.8313 3C18.6335 3 17.6626 4.02239 17.6626 5.28358C17.6626 6.54477 18.6335 7.56716 19.8313 7.56716C21.029 7.56716 21.9999 6.54477 21.9999 5.28358C21.9999 4.02239 21.029 3 19.8313 3ZM19.1084 5.28358C19.1084 4.86319 19.432 4.52239 19.8313 4.52239C20.2305 4.52239 20.5542 4.86319 20.5542 5.28358C20.5542 5.70398 20.2305 6.04477 19.8313 6.04477C19.432 6.04477 19.1084 5.70398 19.1084 5.28358Z" fill="#00A881"/>
</svg>
