<svg width="24" height="24" viewBox="0 0 24 24" fill="none" xmlns="http://www.w3.org/2000/svg">
<path d="M20.376 19.585C20.6058 19.2408 21.0716 19.1476 21.416 19.377C21.7602 19.6067 21.8533 20.0725 21.624 20.417C21.3313 20.856 20.9702 21.2125 20.5176 21.4463C20.064 21.6803 19.5672 21.766 19.0439 21.7441C18.3124 21.7134 17.8694 21.2083 17.667 21.001C17.4009 20.7285 17.3725 20.75 17.3545 20.751C17.3339 20.7514 17.3058 20.7363 17.0645 20.9932C16.8758 21.1941 16.4697 21.6731 15.7803 21.7412C14.9661 21.8213 14.4384 21.3029 14.1807 21.0684C13.8507 20.7681 13.7825 20.7463 13.7021 20.75C13.7007 20.75 13.6986 20.75 13.6973 20.75C13.6196 20.7547 13.5566 20.7832 13.2793 21.0498C13.0502 21.2701 12.599 21.7347 11.8672 21.7451C11.8589 21.7452 11.85 21.7443 11.8418 21.7441C11.8053 21.745 11.7674 21.7457 11.7295 21.7441C10.9978 21.7134 10.5549 21.2083 10.3525 21.001C10.0864 20.7285 10.0581 20.75 10.04 20.751C10.0194 20.7513 9.99074 20.7369 9.75 20.9932C9.5613 21.1941 9.15525 21.6731 8.46582 21.7412C7.65164 21.8212 7.12395 21.3029 6.86621 21.0684C6.53392 20.766 6.4669 20.7459 6.38574 20.75C6.30671 20.7542 6.24546 20.78 5.96484 21.0498C5.73579 21.2701 5.28524 21.7346 4.55371 21.7451C3.8622 21.7546 3.29255 21.3421 2.97754 21.0664C2.80322 20.9138 2.66124 20.7623 2.56348 20.6504C2.51444 20.5942 2.47527 20.5459 2.44727 20.5107C2.43338 20.4933 2.42142 20.4786 2.41309 20.4678C2.40918 20.4627 2.40593 20.4576 2.40332 20.4541C2.40207 20.4525 2.40037 20.4505 2.39941 20.4492L2.39844 20.4473L2.39746 20.4463C2.15145 20.1135 2.22127 19.6438 2.55371 19.3975C2.88617 19.1518 3.355 19.2212 3.60156 19.5527C3.6018 19.5531 3.60256 19.5534 3.60352 19.5547C3.60647 19.5586 3.61248 19.5666 3.62012 19.5762C3.63585 19.5959 3.66081 19.6268 3.69336 19.6641C3.75998 19.7403 3.85473 19.8403 3.96582 19.9375C4.22209 20.1617 4.42537 20.2463 4.53223 20.2451C4.59839 20.2441 4.65244 20.2316 4.92578 19.9688C5.14744 19.7556 5.59097 19.2892 6.30859 19.252C7.10834 19.2108 7.62655 19.732 7.87598 19.959C8.19992 20.2537 8.25548 20.2553 8.31934 20.249C8.36303 20.2447 8.40328 20.2371 8.65723 19.9668C8.85808 19.753 9.27748 19.2748 9.99316 19.252C10.752 19.2282 11.2108 19.733 11.4258 19.9531C11.7053 20.2393 11.7472 20.2442 11.792 20.2461C11.846 20.2484 11.8791 20.2558 12.1738 19.9707C12.4156 19.7368 12.8618 19.284 13.6025 19.2539C13.6091 19.2535 13.6165 19.2523 13.623 19.252C13.6451 19.2508 13.6678 19.2513 13.6895 19.251C13.6915 19.2511 13.6942 19.2519 13.6963 19.252C14.4544 19.2449 14.9487 19.739 15.1904 19.959C15.5136 20.2529 15.5692 20.2552 15.6328 20.249C15.6766 20.2447 15.7163 20.2376 15.9707 19.9668C16.1715 19.753 16.5911 19.275 17.3066 19.252C18.0657 19.228 18.5243 19.733 18.7393 19.9531C19.0194 20.24 19.0616 20.2442 19.1064 20.2461C19.4221 20.2592 19.6508 20.2058 19.8301 20.1133C20.0103 20.0201 20.1925 19.8602 20.376 19.585Z" fill="#4E5964"/>
<path fill-rule="evenodd" clip-rule="evenodd" d="M12.0547 2.25C12.8323 2.25006 13.6086 2.55163 14.1943 3.02832C14.7796 3.50484 15.2489 4.22224 15.249 5.08301V12.96C15.2692 13.1878 15.2923 13.289 15.3193 13.376C15.3365 13.431 15.3583 13.489 15.3926 13.5811C15.4257 13.67 15.4675 13.7818 15.5156 13.9229C15.5524 14.0306 15.5822 14.1401 15.6084 14.25H21C21.4142 14.25 21.75 14.5858 21.75 15C21.75 15.4142 21.4142 15.75 21 15.75H15.6426C15.6158 15.8912 15.5829 16.0318 15.5391 16.1699C15.3064 16.9027 14.8454 17.5433 14.2246 18.0039L14.2207 18.0068C14.1767 18.0564 14.1267 18.1029 14.0684 18.1406C13.4814 18.5203 12.7989 18.7275 12.1006 18.7461C12.0935 18.7464 12.0852 18.7478 12.0781 18.748C12.0554 18.7487 12.032 18.7484 12.0098 18.7471C11.9857 18.7471 11.9606 18.7467 11.9365 18.7471C11.9312 18.7471 11.9252 18.7482 11.9199 18.748C11.9185 18.7478 11.9164 18.7471 11.915 18.7471C11.9032 18.7472 11.8907 18.7484 11.8789 18.748C11.8453 18.7469 11.8116 18.7426 11.7793 18.7373C11.0544 18.6877 10.3562 18.4363 9.77344 18.0039C9.15278 17.5432 8.69158 16.9026 8.45898 16.1699C8.41516 16.0318 8.3832 15.8911 8.35645 15.75H3C2.58579 15.75 2.25 15.4142 2.25 15C2.25 14.5858 2.58579 14.25 3 14.25H8.39062C8.41682 14.1401 8.4457 14.0305 8.48242 13.9229C8.53055 13.7818 8.57236 13.67 8.60547 13.5811C8.63974 13.489 8.66157 13.431 8.67871 13.376C8.70579 13.289 8.7288 13.1879 8.74902 12.96V5.08301C8.74914 4.22237 9.21859 3.50484 9.80371 3.02832C10.3615 2.57433 11.0921 2.28213 11.832 2.25488C11.834 2.25466 11.8368 2.25416 11.8389 2.25391L11.916 2.25H12.0547ZM12.041 9.85742C11.6269 9.85758 11.291 10.1933 11.291 10.6074V13.4004C10.678 13.6726 10.25 14.287 10.25 15.001C10.2505 15.9669 11.034 16.7508 12 16.751C12.9661 16.7509 13.7495 15.967 13.75 15.001C13.75 14.3195 13.3596 13.7294 12.791 13.4404V10.6074C12.791 10.1932 12.4552 9.85746 12.041 9.85742Z" fill="#4E5964"/>
</svg>
