<svg width="24" height="24" viewBox="0 0 24 24" fill="none" xmlns="http://www.w3.org/2000/svg">
<path d="M19.5 12.0736C19.9142 12.0736 20.25 12.4093 20.25 12.8236C20.25 13.2378 19.9142 13.5736 19.5 13.5736H17.5C17.0858 13.5736 16.75 13.2378 16.75 12.8236C16.75 12.4093 17.0858 12.0736 17.5 12.0736H19.5ZM19.5 8.07355C19.9142 8.07355 20.25 8.40934 20.25 8.82355C20.25 9.23776 19.9142 9.57355 19.5 9.57355H17.5C17.0858 9.57355 16.75 9.23776 16.75 8.82355C16.75 8.40934 17.0858 8.07355 17.5 8.07355H19.5ZM19.5 4.07355C19.9142 4.07355 20.25 4.40934 20.25 4.82355C20.25 5.23776 19.9142 5.57355 19.5 5.57355H17.5C17.0858 5.57355 16.75 5.23776 16.75 4.82355C16.75 4.40934 17.0858 4.07355 17.5 4.07355H19.5Z" fill="#4E5964"/>
<path d="M21 15.234C21.4142 15.234 21.75 15.5697 21.75 15.984C21.75 16.3982 21.4142 16.734 21 16.734H16.4814C16.5274 16.2308 16.4883 15.7237 16.3661 15.234H21Z" fill="#4E5964"/>
<path fill-rule="evenodd" clip-rule="evenodd" d="M16.4814 16.734C16.5274 16.2308 16.4883 15.7237 16.3661 15.234C16.3016 14.9756 16.214 14.7221 16.1035 14.4766C16.0123 14.2739 15.9093 14.0818 15.8281 13.9317L15.7894 13.8602C15.7194 13.7312 15.6648 13.6306 15.6152 13.5294C15.5194 13.3337 15.5026 13.2509 15.5 13.238L15.5 6.00104C15.4998 4.06002 13.9195 2.48939 11.9785 2.50104C10.0541 2.51285 8.50022 4.07658 8.5 6.00104V13.2735C8.49558 13.2898 8.47503 13.3657 8.39746 13.5215C8.34288 13.6312 8.28109 13.7427 8.19629 13.8956C8.1192 14.0345 8.0184 14.2162 7.92969 14.4044C7.80344 14.6721 7.70467 14.95 7.63382 15.234H3C2.58579 15.234 2.25 15.5697 2.25 15.984C2.25 16.3982 2.58579 16.734 3 16.734H7.51864C7.5371 16.9357 7.56925 17.1368 7.61523 17.336C7.82144 18.2291 8.29533 19.0357 8.96966 19.6501C8.8479 19.7521 8.75271 19.854 8.68132 19.9304L8.65723 19.9561C8.40229 20.2275 8.36322 20.234 8.31934 20.2383C8.25534 20.2446 8.20063 20.2437 7.87598 19.9483L7.83267 19.9086C7.56912 19.666 7.06503 19.2021 6.30859 19.2413C5.62802 19.2765 5.1944 19.6974 4.9623 19.9227L4.92578 19.9581C4.65168 20.2216 4.59861 20.2335 4.53223 20.2344C4.42541 20.2358 4.22245 20.1514 3.96582 19.9268C3.85455 19.8294 3.76003 19.7297 3.69336 19.6534C3.66062 19.6159 3.63586 19.5852 3.62012 19.5655L3.60156 19.5421C3.35496 19.2103 2.88623 19.1409 2.55371 19.3868C2.22106 19.6332 2.15713 20.1105 2.40332 20.4434C2.4051 20.446 2.41077 20.4541 2.41309 20.4571C2.41867 20.4644 2.42578 20.4732 2.43406 20.4836L2.44727 20.5001C2.4753 20.5352 2.51428 20.5834 2.56348 20.6397C2.66128 20.7517 2.80302 20.903 2.97754 21.0557C3.29254 21.3314 3.86188 21.7441 4.55371 21.7344C5.25601 21.7245 5.69886 21.2963 5.93591 21.0671L5.96484 21.0391C6.24601 20.7688 6.30655 20.7435 6.38574 20.7393C6.46712 20.7351 6.53316 20.7546 6.86621 21.0577L6.89954 21.0881C7.16797 21.334 7.68488 21.8074 8.46582 21.7305C9.11547 21.6665 9.51306 21.2378 9.71478 21.0203L9.75 20.9825C9.97869 20.739 10.0157 20.7398 10.0365 20.7403C10.0553 20.7381 10.1016 20.7334 10.3525 20.9903L10.3909 21.03C10.6081 21.2555 11.0406 21.7046 11.7295 21.7335C12.4739 21.7646 12.9383 21.3104 13.179 21.075L13.2168 21.0382C13.4897 20.7742 13.5617 20.7397 13.6826 20.7403H13.7031L13.7246 20.7393C13.8017 20.7353 13.8611 20.7504 14.1865 21.0528L14.2183 21.0825C14.4821 21.3291 14.9943 21.808 15.7803 21.7305C16.4299 21.6665 16.8275 21.2378 17.0292 21.0203L17.0645 20.9825C17.2931 20.7391 17.33 20.7398 17.3508 20.7403C17.3696 20.7381 17.4161 20.7334 17.667 20.9903L17.7053 21.0299C17.9226 21.2555 18.3551 21.7046 19.0439 21.7335C19.5675 21.7554 20.0638 21.6698 20.5176 21.4356C20.9704 21.2018 21.3312 20.8455 21.624 20.4063C21.8536 20.0617 21.7606 19.596 21.416 19.3663C21.0715 19.1367 20.6058 19.2299 20.376 19.5743C20.1923 19.8498 20.0105 20.0094 19.8301 20.1026C19.6506 20.1953 19.4224 20.2486 19.1064 20.2354C19.0615 20.2335 19.0202 20.2302 18.7393 19.9424L18.7126 19.915C18.4876 19.6832 18.0361 19.2181 17.3066 19.2413C16.618 19.2633 16.2039 19.7066 15.9946 19.9305L15.9707 19.9561C15.7153 20.2279 15.6768 20.234 15.6328 20.2383C15.5732 20.2442 15.5245 20.2473 15.208 19.9532L15.1654 19.9132C15.1063 19.8577 15.0348 19.7905 14.9507 19.7205C15.6465 19.1162 16.1421 18.3113 16.3662 17.4131C16.4222 17.1889 16.4605 16.9618 16.4814 16.734ZM11.25 9.32892V16.9891C11.25 17.4033 11.5858 17.7391 12 17.7391C12.4142 17.7391 12.75 17.4033 12.75 16.9891V9.32892C12.75 8.91471 12.4142 8.57892 12 8.57892C11.5858 8.57892 11.25 8.91471 11.25 9.32892Z" fill="#4E5964"/>
</svg>
