<svg width="24" height="24" viewBox="0 0 24 24" fill="none" xmlns="http://www.w3.org/2000/svg">
<path d="M9 5.25C9.41421 5.25 9.75 5.58579 9.75 6V19C9.75 19.4142 9.41421 19.75 9 19.75C8.58579 19.75 8.25 19.4142 8.25 19V6C8.25 5.58579 8.58579 5.25 9 5.25Z" fill="#4E5964"/>
<path d="M12 8.13867C12.4141 8.13867 12.7499 8.47457 12.75 8.88867V16.1113C12.7498 16.5253 12.4141 16.8613 12 16.8613C11.5859 16.8613 11.2502 16.5253 11.25 16.1113V8.88867C11.2501 8.47457 11.5859 8.13867 12 8.13867Z" fill="#4E5964"/>
<path d="M6 9.58301C6.41413 9.58301 6.74987 9.91891 6.75 10.333V14.666C6.75 15.0802 6.41421 15.416 6 15.416C5.58579 15.416 5.25 15.0802 5.25 14.666V10.333C5.25013 9.91891 5.58587 9.58301 6 9.58301Z" fill="#4E5964"/>
<path d="M18 9.58301C18.4141 9.58301 18.7499 9.91891 18.75 10.333V14.666C18.75 15.0802 18.4142 15.416 18 15.416C17.5858 15.416 17.25 15.0802 17.25 14.666V10.333C17.2501 9.91891 17.5859 9.58301 18 9.58301Z" fill="#4E5964"/>
<path d="M15 11.0283C15.4141 11.0283 15.7497 11.3634 15.75 11.7773V13.2217C15.75 13.6359 15.4142 13.9727 15 13.9727C14.5859 13.9727 14.2503 13.6366 14.25 13.2227V11.7783C14.25 11.3641 14.5858 11.0283 15 11.0283Z" fill="#4E5964"/>
</svg>
