<svg width="24" height="24" viewBox="0 0 24 24" fill="none" xmlns="http://www.w3.org/2000/svg">
<path d="M6 10.25C6.41421 10.25 6.75 10.5858 6.75 11V13C6.75 13.4142 6.41421 13.75 6 13.75C5.58579 13.75 5.25 13.4142 5.25 13V11C5.25 10.5858 5.58579 10.25 6 10.25Z" fill="#4E5964"/>
<path d="M9 10.25C9.41421 10.25 9.75 10.5858 9.75 11V13C9.75 13.4142 9.41421 13.75 9 13.75C8.58579 13.75 8.25 13.4142 8.25 13V11C8.25 10.5858 8.58579 10.25 9 10.25Z" fill="#4E5964"/>
<path d="M12 10.25C12.4142 10.25 12.75 10.5858 12.75 11V13C12.75 13.4142 12.4142 13.75 12 13.75C11.5858 13.75 11.25 13.4142 11.25 13V11C11.25 10.5858 11.5858 10.25 12 10.25Z" fill="#4E5964"/>
<path d="M15 10.25C15.4142 10.25 15.75 10.5858 15.75 11V13C15.75 13.4142 15.4142 13.75 15 13.75C14.5858 13.75 14.25 13.4142 14.25 13V11C14.25 10.5858 14.5858 10.25 15 10.25Z" fill="#4E5964"/>
<path d="M18 10.25C18.4142 10.25 18.75 10.5858 18.75 11V13C18.75 13.4142 18.4142 13.75 18 13.75C17.5858 13.75 17.25 13.4142 17.25 13V11C17.25 10.5858 17.5858 10.25 18 10.25Z" fill="#4E5964"/>
</svg>
