<svg width="24" height="24" viewBox="0 0 24 24" fill="none" xmlns="http://www.w3.org/2000/svg">
<path fill-rule="evenodd" clip-rule="evenodd" d="M8.3291 11.25C8.74324 11.2501 9.0791 11.5858 9.0791 12C9.0791 12.1898 9.07655 12.356 9.07227 12.5H13.9893C13.983 12.365 13.9772 12.2004 13.9736 12C13.9736 11.5858 14.3094 11.25 14.7236 11.25H16.7529C18.9895 11.2502 20.8026 13.0632 20.8027 15.2998V17.2266C20.8026 19.4631 18.9895 21.2762 16.7529 21.2764H6.2998C4.06322 21.2763 2.25013 19.4631 2.25 17.2266V15.2998C2.2501 13.0632 4.06321 11.2501 6.2998 11.25H8.3291ZM8.73633 14.5918C8.04613 14.5918 7.48659 15.1517 7.48633 15.8418V16.6836C7.48633 17.374 8.04597 17.9336 8.73633 17.9336H14.3154C15.0057 17.9335 15.5654 17.3739 15.5654 16.6836V15.8418C15.5652 15.1517 15.0056 14.5919 14.3154 14.5918H8.73633Z" fill="#4E5964"/>
<path d="M10.4307 4.00586C11.0359 3.40094 12.0168 3.40094 12.6221 4.00586L14.7842 6.16797C15.3886 6.77325 15.3889 7.7543 14.7842 8.35938L12.6221 10.5215C12.017 11.1262 11.0359 11.1259 10.4307 10.5215L8.26855 8.35938C7.66363 7.75414 7.66363 6.77321 8.26855 6.16797L10.4307 4.00586Z" fill="#4E5964"/>
<path d="M19.1055 2.72363C19.5197 2.72363 19.8554 3.05945 19.8555 3.47363V5.45215L20.4697 4.83789C20.7626 4.54505 21.2374 4.54505 21.5303 4.83789C21.8232 5.13077 21.8231 5.60554 21.5303 5.89844L19.6357 7.79297C19.5872 7.84156 19.5316 7.87866 19.4746 7.91113C19.4474 7.92664 19.4208 7.94301 19.3916 7.95508C19.3614 7.96756 19.3301 7.97602 19.2988 7.98438C19.2838 7.98838 19.2693 7.99398 19.2539 7.99707C19.2484 7.99818 19.2428 7.99901 19.2373 8C19.1944 8.00761 19.1505 8.0127 19.1055 8.0127C19.0601 8.0127 19.0158 8.00772 18.9727 8C18.9671 7.99901 18.9616 7.99819 18.9561 7.99707C18.941 7.99403 18.9268 7.9883 18.9121 7.98438C18.8805 7.97594 18.8488 7.96771 18.8184 7.95508C18.7892 7.94298 18.7625 7.92666 18.7354 7.91113C18.6787 7.87874 18.6236 7.84135 18.5752 7.79297L16.6807 5.89844C16.3878 5.60554 16.3878 5.13077 16.6807 4.83789C16.9736 4.54525 17.4484 4.54512 17.7412 4.83789L18.3555 5.45215V3.47363C18.3555 3.05945 18.6913 2.72363 19.1055 2.72363Z" fill="#4E5964"/>
</svg>
