<svg width="24" height="24" viewBox="0 0 24 24" fill="none" xmlns="http://www.w3.org/2000/svg">
<path fill-rule="evenodd" clip-rule="evenodd" d="M8.3291 11.25C8.74324 11.2501 9.0791 11.5858 9.0791 12C9.0791 12.1898 9.07655 12.356 9.07227 12.5H13.9893C13.983 12.365 13.9772 12.2004 13.9736 12C13.9736 11.5858 14.3094 11.25 14.7236 11.25H16.7529C18.9895 11.2502 20.8026 13.0632 20.8027 15.2998V17.2266C20.8026 19.4631 18.9895 21.2762 16.7529 21.2764H6.2998C4.06322 21.2763 2.25013 19.4631 2.25 17.2266V15.2998C2.2501 13.0632 4.06321 11.2501 6.2998 11.25H8.3291ZM8.73633 14.8418C8.18421 14.8418 7.73659 15.2897 7.73633 15.8418V16.6836C7.73633 17.2359 8.18404 17.6836 8.73633 17.6836H14.3154C14.8676 17.6835 15.3154 17.2358 15.3154 16.6836V15.8418C15.3152 15.2898 14.8675 14.8419 14.3154 14.8418H8.73633Z" fill="#4E5964"/>
<path fill-rule="evenodd" clip-rule="evenodd" d="M11.5254 2.72363C14.0323 2.72363 16.0652 4.7558 16.0654 7.2627C16.0654 9.76978 14.0325 11.8027 11.5254 11.8027C9.0185 11.8025 6.98633 9.76964 6.98633 7.2627C6.98655 4.75594 9.01863 2.72386 11.5254 2.72363ZM11.7383 5.79102C11.6211 5.6739 11.4306 5.67387 11.3135 5.79102L10.0537 7.05078C9.93657 7.16793 9.93659 7.35843 10.0537 7.47559L11.3135 8.73535C11.4306 8.85251 11.6211 8.85251 11.7383 8.73535L12.998 7.47559C13.1152 7.35843 13.1152 7.16794 12.998 7.05078L11.7383 5.79102Z" fill="#4E5964"/>
<path d="M19.1055 2.72363C19.5197 2.72363 19.8554 3.05945 19.8555 3.47363V5.45215L20.4697 4.83789C20.7626 4.54505 21.2374 4.54505 21.5303 4.83789C21.8232 5.13077 21.8231 5.60554 21.5303 5.89844L19.6357 7.79297C19.5872 7.84156 19.5316 7.87866 19.4746 7.91113C19.4474 7.92664 19.4208 7.94301 19.3916 7.95508C19.3595 7.96832 19.3262 7.97675 19.293 7.98535C19.2798 7.98875 19.2673 7.99438 19.2539 7.99707C19.2484 7.99818 19.2428 7.99901 19.2373 8C19.1944 8.00761 19.1505 8.0127 19.1055 8.0127C19.0601 8.0127 19.0158 8.00772 18.9727 8C18.9671 7.99901 18.9616 7.99819 18.9561 7.99707C18.9427 7.99436 18.9301 7.98876 18.917 7.98535C18.8837 7.97671 18.8504 7.96835 18.8184 7.95508C18.7892 7.94298 18.7625 7.92666 18.7354 7.91113C18.6787 7.87874 18.6236 7.84135 18.5752 7.79297L16.6807 5.89844C16.3878 5.60554 16.3878 5.13077 16.6807 4.83789C16.9736 4.54525 17.4484 4.54512 17.7412 4.83789L18.3555 5.45215V3.47363C18.3555 3.05945 18.6913 2.72363 19.1055 2.72363Z" fill="#4E5964"/>
</svg>
