<svg width="24" height="24" viewBox="0 0 24 24" fill="none" xmlns="http://www.w3.org/2000/svg">
<path d="M14.0355 3.77744C13.4011 1.74085 10.5975 1.74085 9.96308 3.77744L8.79007 7.54322C8.69662 7.84324 8.44172 8.01676 8.18599 8.01676H4.39005C3.33586 8.01676 2.60642 8.73332 2.35383 9.54421C2.10187 10.3531 2.2901 11.354 3.12115 11.9838L6.19213 14.3112C6.41887 14.483 6.52817 14.8048 6.43332 15.1092L6.30976 15.5059L2.35249 19.434C2.05852 19.7258 2.05676 20.2007 2.34857 20.4947C2.64038 20.7887 3.11525 20.7904 3.40923 20.4986L20.5014 3.53229C20.7954 3.24048 20.7972 2.76561 20.5054 2.47163C20.2136 2.17766 19.7387 2.1759 19.4447 2.46771L15.0014 6.87829L14.0355 3.77744Z" fill="#4E5964"/>
<path d="M17.2361 8.01676C16.8219 8.01676 16.4861 8.35255 16.4861 8.76676C16.4861 9.18098 16.8219 9.51676 17.2361 9.51676H19.6085C19.899 9.51676 20.1215 9.69764 20.2126 9.99031C20.3044 10.2849 20.2283 10.5937 19.9714 10.7883L16.9005 13.1157C16.1542 13.6813 15.8563 14.6667 16.1332 15.5553L17.3062 19.3211C17.4125 19.6624 17.2837 19.9534 17.065 20.1192C16.8509 20.2814 16.5845 20.3051 16.3392 20.1192L13.2682 17.7918C12.5138 17.2201 11.4848 17.2201 10.7304 17.7918L7.65942 20.1192C7.46491 20.2666 7.27417 20.2756 7.10745 20.2147C6.92309 20.1474 6.7615 19.9894 6.69158 19.7873C6.55616 19.3958 6.12904 19.1883 5.73759 19.3237C5.34614 19.4591 5.13859 19.8862 5.27401 20.2777C5.69791 21.503 7.2703 22.2962 8.56542 21.3146L11.6364 18.9873C11.855 18.8216 12.1436 18.8216 12.3622 18.9873L15.4332 21.3146C16.2757 21.9532 17.2851 21.8344 17.971 21.3146C18.6522 20.7984 19.0475 19.8677 18.7383 18.875L17.5653 15.1092C17.4704 14.8048 17.5797 14.483 17.8065 14.3112L20.8775 11.9838C21.7085 11.354 21.8967 10.3531 21.6448 9.54421C21.3922 8.73332 20.6627 8.01676 19.6085 8.01676H17.2361Z" fill="#4E5964"/>
</svg>
