<svg width="24" height="25" viewBox="0 0 24 25" fill="none" xmlns="http://www.w3.org/2000/svg">
<path fill-rule="evenodd" clip-rule="evenodd" d="M9.96308 4.05821C10.5975 2.02162 13.4011 2.02161 14.0355 4.0582L15.2085 7.82399C15.302 8.124 15.5569 8.29753 15.8126 8.29753H19.6085C20.6627 8.29753 21.3922 9.01408 21.6448 9.82497C21.8967 10.6339 21.7085 11.6348 20.8775 12.2646L17.8065 14.592C17.5797 14.7638 17.4704 15.0855 17.5653 15.39L18.7383 19.1558C19.0475 20.1485 18.6522 21.0792 17.971 21.5954C17.2851 22.1152 16.2757 22.2339 15.4332 21.5954L12.3622 19.268C12.1436 19.1023 11.855 19.1023 11.6364 19.268L8.56542 21.5954C7.7229 22.2339 6.71347 22.1152 6.02762 21.5954C5.34645 21.0792 4.9511 20.1485 5.26031 19.1558L6.43332 15.39C6.52817 15.0855 6.41887 14.7638 6.19213 14.592L3.12115 12.2646C2.2901 11.6348 2.10187 10.6339 2.35383 9.82497C2.60642 9.01409 3.33586 8.29753 4.39005 8.29753H8.18599C8.44172 8.29753 8.69662 8.124 8.79007 7.82399L9.96308 4.05821Z" fill="#4E5964"/>
</svg>
