<svg width="24" height="24" viewBox="0 0 24 24" fill="none" xmlns="http://www.w3.org/2000/svg">
<path fill-rule="evenodd" clip-rule="evenodd" d="M13.4661 3.11166C13.0044 1.62945 10.9942 1.62945 10.5325 3.11166L9.22912 7.29586C9.02264 7.95872 8.43046 8.40752 7.76229 8.40752H3.54457C2.05049 8.40752 1.42928 10.4018 2.63802 11.3179L6.05022 13.9039C6.47007 14.222 6.70027 14.7311 6.68542 15.2532L14.7394 7.19925L13.4661 3.11166ZM15.7385 8.32151L5.82017 18.2398L5.30716 19.8868C4.84546 21.369 6.47181 22.6015 7.68054 21.6855L11.0927 19.0995C11.6333 18.6898 12.3653 18.6898 12.9059 19.0995L16.3181 21.6855C17.5268 22.6015 19.1531 21.369 18.6914 19.8868L17.3881 15.7025C17.1816 15.0397 17.4078 14.3135 17.9484 13.9039L21.3606 11.3179C22.5693 10.4018 21.9481 8.40752 20.454 8.40752H16.2363C16.0635 8.40752 15.8957 8.37749 15.7385 8.32151Z" fill="#4E5964"/>
<path d="M19 2L2 19" stroke="#4E5964" stroke-width="1.5" stroke-linecap="round" stroke-linejoin="round"/>
</svg>
