<svg width="24" height="24" viewBox="0 0 24 24" fill="none" xmlns="http://www.w3.org/2000/svg">
<path fill-rule="evenodd" clip-rule="evenodd" d="M9.96308 3.77769C10.5975 1.7411 13.4011 1.74109 14.0355 3.77769L15.2085 7.54347C15.302 7.84348 15.5569 8.01701 15.8126 8.01701H19.6085C20.6627 8.01701 21.3922 8.73357 21.6448 9.54445C21.8967 10.3534 21.7085 11.3542 20.8775 11.9841L17.8065 14.3114C17.5797 14.4833 17.4704 14.805 17.5653 15.1095L18.7383 18.8753C19.0475 19.868 18.6522 20.7987 17.971 21.3149C17.2851 21.8347 16.2757 21.9534 15.4332 21.3149L12.3622 18.9875C12.1436 18.8218 11.855 18.8218 11.6364 18.9875L8.56542 21.3149C7.7229 21.9534 6.71347 21.8347 6.02762 21.3149C5.34645 20.7987 4.9511 19.868 5.26031 18.8753L6.43332 15.1095C6.52817 14.805 6.41887 14.4833 6.19213 14.3114L3.12115 11.9841C2.2901 11.3542 2.10187 10.3534 2.35383 9.54445C2.60642 8.73357 3.33586 8.01701 4.39005 8.01701H8.18599C8.44172 8.01701 8.69662 7.84348 8.79007 7.54347L9.96308 3.77769Z" fill="#4E5964"/>
</svg>
