<svg width="24" height="24" viewBox="0 0 24 24" fill="none" xmlns="http://www.w3.org/2000/svg">
<path d="M21.75 16.5C21.75 19.3995 19.3995 21.75 16.5 21.75H7.5C4.60051 21.75 2.25 19.3995 2.25 16.5V7.5C2.25 4.60051 4.60051 2.25 7.5 2.25H16.5C19.3995 2.25 21.75 4.60051 21.75 7.5V16.5ZM16.502 6.44246C16.1941 6.16539 15.7195 6.1903 15.4424 6.49813L12.0615 10.255L10.3691 8.3741C10.2269 8.21611 10.0241 8.12606 9.81152 8.12606C9.62574 8.12618 9.44738 8.19452 9.31055 8.31746L9.25488 8.3741L6.44238 11.4981C6.1653 11.806 6.19022 12.2806 6.49805 12.5577C6.80591 12.8348 7.28052 12.8099 7.55762 12.502L9.81152 9.9952L11.5049 11.877C11.647 12.035 11.8491 12.1259 12.0615 12.1261C12.2741 12.1261 12.4769 12.0351 12.6191 11.877L16.5576 7.50203C16.8347 7.19417 16.8098 6.71957 16.502 6.44246ZM7.25 15.4168V17.4168C7.25 17.831 7.58579 18.1668 8 18.1668C8.41421 18.1668 8.75 17.831 8.75 17.4168V15.4168C8.75 15.0026 8.41421 14.6668 8 14.6668C7.58579 14.6668 7.25 15.0026 7.25 15.4168ZM11.25 14.4168V17.4168C11.25 17.831 11.5858 18.1668 12 18.1668C12.4142 18.1668 12.75 17.831 12.75 17.4168V14.4168C12.75 14.0026 12.4142 13.6668 12 13.6668C11.5858 13.6668 11.25 14.0026 11.25 14.4168ZM15.25 12.4168V17.4168C15.25 17.831 15.5858 18.1668 16 18.1668C16.4142 18.1668 16.75 17.831 16.75 17.4168V12.4168C16.75 12.0026 16.4142 11.6668 16 11.6668C15.5858 11.6668 15.25 12.0026 15.25 12.4168Z" fill="#4E5964"/>
</svg>
