<svg width="24" height="24" viewBox="0 0 24 24" fill="none" xmlns="http://www.w3.org/2000/svg">
<path fill-rule="evenodd" clip-rule="evenodd" d="M7.5 3C4.46243 3 2 5.46243 2 8.5V15.5C2 18.5376 4.46243 21 7.5 21H16.5C19.5376 21 22 18.5376 22 15.5V8.5C22 5.46243 19.5376 3 16.5 3H7.5ZM16.5575 7.50172C16.8346 7.19384 16.8096 6.71962 16.5017 6.44253C16.1938 6.16544 15.7196 6.19039 15.4425 6.49828L12.062 10.2544L10.3695 8.37383C10.2272 8.2158 10.0246 8.12556 9.812 8.12556C9.59939 8.12556 9.39676 8.2158 9.25453 8.37383L6.44253 11.4983C6.16544 11.8062 6.19039 12.2804 6.49828 12.5575C6.80616 12.8346 7.28038 12.8096 7.55747 12.5017L9.812 9.99669L11.5045 11.8773C11.6468 12.0353 11.8494 12.1256 12.062 12.1256C12.2746 12.1256 12.4772 12.0353 12.6195 11.8773L16.5575 7.50172ZM10 14.25C10.4142 14.25 10.75 14.5858 10.75 15V17C10.75 17.4142 10.4142 17.75 10 17.75C9.58579 17.75 9.25 17.4142 9.25 17V15C9.25 14.5858 9.58579 14.25 10 14.25ZM6.75 16C6.75 15.5858 6.41421 15.25 6 15.25C5.58579 15.25 5.25 15.5858 5.25 16V17C5.25 17.4142 5.58579 17.75 6 17.75C6.41421 17.75 6.75 17.4142 6.75 17V16ZM14 13.25C14.4142 13.25 14.75 13.5858 14.75 14V17C14.75 17.4142 14.4142 17.75 14 17.75C13.5858 17.75 13.25 17.4142 13.25 17V14C13.25 13.5858 13.5858 13.25 14 13.25ZM18.75 12C18.75 11.5858 18.4142 11.25 18 11.25C17.5858 11.25 17.25 11.5858 17.25 12V17C17.25 17.4142 17.5858 17.75 18 17.75C18.4142 17.75 18.75 17.4142 18.75 17V12Z" fill="#4E5964"/>
</svg>
