<svg width="24" height="24" viewBox="0 0 24 24" fill="none" xmlns="http://www.w3.org/2000/svg">
<path d="M13.4639 2.24951C13.7283 2.24951 13.991 2.27081 14.25 2.31006V7.67236C14.2503 8.38952 14.8961 8.74951 15.3936 8.74951H21.5L21.5859 8.74658C21.6 8.74552 21.6146 8.74248 21.6299 8.74072C21.7074 9.10067 21.75 9.47097 21.75 9.84619V16.5005C21.7497 19.3998 19.3993 21.7505 16.5 21.7505H7.5C4.60067 21.7505 2.25026 19.3998 2.25 16.5005V7.50049C2.25 4.60099 4.60051 2.24951 7.5 2.24951H13.4639ZM8.65039 12.0005C8.12372 12.0005 7.71635 12.1404 7.42969 12.4204C7.14326 12.7004 7 13.1039 7 13.6304V16.8003C7.00005 17.3268 7.1431 17.7303 7.42969 18.0103C7.71635 18.2903 8.12372 18.4302 8.65039 18.4302H9.74023C10.2601 18.4301 10.6636 18.2902 10.9502 18.0103C11.2435 17.7236 11.3896 17.3202 11.3896 16.8003V16.3296C11.3895 16.1832 11.3165 16.1099 11.1699 16.1099H10.3301C10.1902 16.1099 10.1202 16.1832 10.1201 16.3296V16.7397C10.1201 16.9528 10.0735 17.1063 9.98047 17.1997C9.89384 17.2863 9.74346 17.3296 9.53027 17.3296H8.84961C8.64319 17.3295 8.49367 17.2863 8.40039 17.1997C8.31372 17.1064 8.26953 16.9531 8.26953 16.7397V13.6899C8.26954 13.4766 8.31373 13.3264 8.40039 13.2397C8.49369 13.1467 8.64338 13.1002 8.84961 13.1001H9.53027C9.74346 13.1001 9.89384 13.1465 9.98047 13.2397C10.0737 13.3264 10.1201 13.4767 10.1201 13.6899V14.1001C10.1201 14.2467 10.1901 14.3198 10.3301 14.3198H11.1699C11.3166 14.3198 11.3896 14.2467 11.3896 14.1001V13.6304C11.3896 13.1105 11.2434 12.7102 10.9502 12.4302C10.6636 12.1436 10.2601 12.0005 9.74023 12.0005H8.65039ZM14.0312 12.0005C13.5046 12.0005 13.0972 12.1404 12.8105 12.4204C12.5241 12.7004 12.3809 13.1039 12.3809 13.6304V16.8003C12.3809 17.3268 12.524 17.7303 12.8105 18.0103C13.0972 18.2903 13.5046 18.4302 14.0312 18.4302H15.1211C15.641 18.4301 16.0444 18.2902 16.3311 18.0103C16.6243 17.7236 16.7705 17.3202 16.7705 16.8003V16.3296C16.7704 16.1832 16.6973 16.1099 16.5508 16.1099H15.7109C15.5711 16.1099 15.5011 16.1832 15.501 16.3296V16.7397C15.501 16.9528 15.4544 17.1063 15.3613 17.1997C15.2747 17.2863 15.1243 17.3296 14.9111 17.3296H14.2305C14.0241 17.3295 13.8745 17.2863 13.7812 17.1997C13.6946 17.1064 13.6504 16.9531 13.6504 16.7397V13.6899C13.6504 13.4766 13.6946 13.3264 13.7812 13.2397C13.8745 13.1467 14.0242 13.1002 14.2305 13.1001H14.9111C15.1243 13.1001 15.2747 13.1465 15.3613 13.2397C15.4546 13.3264 15.501 13.4767 15.501 13.6899V14.1001C15.501 14.2467 15.571 14.3198 15.7109 14.3198H16.5508C16.6974 14.3198 16.7705 14.2467 16.7705 14.1001V13.6304C16.7705 13.1105 16.6243 12.7102 16.3311 12.4302C16.0444 12.1436 15.641 12.0005 15.1211 12.0005H14.0312ZM6.75 8.50049C6.33579 8.50049 6 8.83627 6 9.25049C6.00026 9.66448 6.33595 10.0005 6.75 10.0005H8.25C8.66405 10.0005 8.99974 9.66448 9 9.25049C9 8.83627 8.66421 8.50049 8.25 8.50049H6.75ZM19.4844 7.24951H15.75V4.13721L19.4844 7.24951ZM6.75 5.50049C6.33579 5.50049 6 5.83627 6 6.25049C6.00026 6.66448 6.33595 7.00049 6.75 7.00049H11.25C11.6641 7.00049 11.9997 6.66448 12 6.25049C12 5.83627 11.6642 5.50049 11.25 5.50049H6.75Z" fill="#4E5964"/>
</svg>
