<svg width="24" height="24" viewBox="0 0 24 24" fill="none" xmlns="http://www.w3.org/2000/svg">
<path d="M16.5 2.25C19.3995 2.25 21.75 4.60051 21.75 7.5V16.5C21.75 19.3995 19.3995 21.75 16.5 21.75H7.5C4.60051 21.75 2.25 19.3995 2.25 16.5V7.5C2.25 4.60051 4.60051 2.25 7.5 2.25H16.5ZM7.98047 8C7.34847 8 6.85962 8.16791 6.51562 8.50391C6.17172 8.8399 6 9.32414 6 9.95605V13.7598C6 14.3916 6.17178 14.8759 6.51562 15.2119C6.85962 15.5479 7.34847 15.7158 7.98047 15.7158H9.28809C9.91204 15.7158 10.3962 15.5479 10.7402 15.2119C11.0921 14.8679 11.2676 14.3837 11.2676 13.7598V13.1963C11.2676 13.0203 11.1799 12.9316 11.0039 12.9316H9.99609C9.82809 12.9316 9.74414 13.0203 9.74414 13.1963V13.6885C9.74407 13.9442 9.6881 14.1283 9.57617 14.2402C9.47219 14.3442 9.29204 14.3965 9.03613 14.3965H8.21973C7.97187 14.3964 7.79165 14.3442 7.67969 14.2402C7.57577 14.1283 7.52448 13.9442 7.52441 13.6885V10.0283C7.52441 9.77256 7.57589 9.59233 7.67969 9.48828C7.79165 9.37632 7.97187 9.32035 8.21973 9.32031H9.03613C9.29206 9.32033 9.47219 9.3763 9.57617 9.48828C9.68802 9.59231 9.74414 9.7725 9.74414 10.0283V10.5195C9.74414 10.6955 9.82809 10.7842 9.99609 10.7842H11.0039C11.1799 10.7842 11.2676 10.6955 11.2676 10.5195V9.95605C11.2676 9.33205 11.0922 8.85162 10.7402 8.51562C10.3963 8.17169 9.912 8.00002 9.28809 8H7.98047ZM14.4375 8C13.8055 8 13.3167 8.16791 12.9727 8.50391C12.6288 8.8399 12.457 9.32414 12.457 9.95605V13.7598C12.457 14.3916 12.6288 14.8759 12.9727 15.2119C13.3167 15.5479 13.8055 15.7158 14.4375 15.7158H15.7451C16.3691 15.7158 16.8533 15.5479 17.1973 15.2119C17.5492 14.8679 17.7246 14.3837 17.7246 13.7598V13.1963C17.7246 13.0203 17.6369 12.9316 17.4609 12.9316H16.4531C16.2851 12.9316 16.2012 13.0203 16.2012 13.1963V13.6885C16.2011 13.9442 16.1451 14.1283 16.0332 14.2402C15.9292 14.3442 15.7491 14.3965 15.4932 14.3965H14.6768C14.4289 14.3964 14.2487 14.3442 14.1367 14.2402C14.0328 14.1283 13.9815 13.9442 13.9814 13.6885V10.0283C13.9814 9.77256 14.0329 9.59233 14.1367 9.48828C14.2487 9.37632 14.4289 9.32035 14.6768 9.32031H15.4932C15.7491 9.32033 15.9292 9.3763 16.0332 9.48828C16.145 9.59231 16.2012 9.7725 16.2012 10.0283V10.5195C16.2012 10.6955 16.2851 10.7842 16.4531 10.7842H17.4609C17.6369 10.7842 17.7246 10.6955 17.7246 10.5195V9.95605C17.7246 9.33205 17.5493 8.85162 17.1973 8.51562C16.8533 8.17169 16.369 8.00002 15.7451 8H14.4375Z" fill="#4E5964"/>
</svg>
