<svg width="24" height="24" viewBox="0 0 24 24" fill="none" xmlns="http://www.w3.org/2000/svg">
<path d="M12 2.25C17.3848 2.25 21.75 6.61522 21.75 12C21.75 17.3848 17.3848 21.75 12 21.75C6.61522 21.75 2.25 17.3848 2.25 12C2.25 6.61522 6.61522 2.25 12 2.25ZM7.80566 7.7998C6.53242 7.7998 5.50013 8.83226 5.5 10.1055V13.9941C5.5 15.2675 6.53234 16.2998 7.80566 16.2998H9.36133C10.6346 16.2997 11.667 15.2674 11.667 13.9941V13.7998C11.6669 13.3858 11.331 13.05 10.917 13.0498C10.5029 13.0498 10.1671 13.3857 10.167 13.7998V13.9941C10.167 14.439 9.80612 14.7997 9.36133 14.7998H7.80566C7.36077 14.7998 7 14.439 7 13.9941V10.1055C7.00013 9.66068 7.36085 9.2998 7.80566 9.2998H9.36133C9.80604 9.29992 10.1669 9.66076 10.167 10.1055V10.8828C10.167 11.297 10.5028 11.6328 10.917 11.6328C11.3311 11.6326 11.667 11.2969 11.667 10.8828V10.1055C11.6669 8.83233 10.6345 7.79992 9.36133 7.7998H7.80566ZM14.4736 7.7998C13.2004 7.7998 12.1681 8.83226 12.168 10.1055V13.9941C12.168 15.2675 13.2003 16.2998 14.4736 16.2998H16.0293C17.3025 16.2997 18.335 15.2674 18.335 13.9941V13.7998C18.3348 13.3858 17.9989 13.05 17.585 13.0498C17.1708 13.0498 16.8351 13.3857 16.835 13.7998V13.9941C16.835 14.439 16.4741 14.7997 16.0293 14.7998H14.4736C14.0287 14.7998 13.668 14.439 13.668 13.9941V10.1055C13.6681 9.66069 14.0288 9.2998 14.4736 9.2998H16.0293C16.474 9.29992 16.8348 9.66076 16.835 10.1055V10.8828C16.835 11.297 17.1707 11.6328 17.585 11.6328C17.999 11.6326 18.335 11.2969 18.335 10.8828V10.1055C18.3348 8.83233 17.3024 7.79992 16.0293 7.7998H14.4736Z" fill="#4E5964"/>
</svg>
