<svg width="24" height="24" viewBox="0 0 24 24" fill="none" xmlns="http://www.w3.org/2000/svg">
<path fill-rule="evenodd" clip-rule="evenodd" d="M14.2838 2.25H7.5C4.60051 2.25 2.25 4.60051 2.25 7.5V16.5C2.25 19.3995 4.60051 21.75 7.5 21.75H16.5C19.3995 21.75 21.75 19.3995 21.75 16.5V8.72019C21.7277 8.72596 21.7084 8.72998 21.6931 8.73289C21.6171 8.74727 21.5489 8.74999 21.5 8.74999L15.3933 8.74999C14.8957 8.74999 14.25 8.38968 14.25 7.67222V2.5C14.25 2.44432 14.2542 2.35337 14.2838 2.25ZM6.75 8.5C6.33579 8.5 6 8.83579 6 9.25C6 9.66421 6.33579 10 6.75 10H8.25C8.66421 10 9 9.66421 9 9.25C9 8.83579 8.66421 8.5 8.25 8.5H6.75ZM6 6.25C6 5.83579 6.33579 5.5 6.75 5.5H11.25C11.6642 5.5 12 5.83579 12 6.25C12 6.66421 11.6642 7 11.25 7H6.75C6.33579 7 6 6.66421 6 6.25ZM7.24111 12.5103C7.83264 12.2876 8.47841 12.2527 9.09049 12.4103C9.70255 12.568 10.2512 12.9104 10.6616 13.3911C10.9306 13.7061 10.8932 14.1795 10.5782 14.4484C10.2632 14.7174 9.78984 14.6801 9.52087 14.3651C9.31072 14.119 9.02982 13.9437 8.71642 13.863C8.40303 13.7823 8.07237 13.8001 7.7695 13.9141C7.46662 14.0281 7.20625 14.2327 7.02384 14.5C6.84143 14.7673 6.74586 15.0844 6.75014 15.408C6.75442 15.7316 6.85834 16.046 7.04775 16.3084C7.23716 16.5708 7.50285 16.7684 7.80863 16.8743C8.11442 16.9803 8.44543 16.9894 8.75658 16.9005C9.06773 16.8115 9.3439 16.6288 9.54747 16.3772C9.80802 16.0552 10.2803 16.0054 10.6023 16.2659C10.9243 16.5265 10.9741 16.9988 10.7135 17.3208C10.316 17.8121 9.7766 18.1689 9.16891 18.3427C8.56122 18.5164 7.91475 18.4986 7.31755 18.2917C6.72034 18.0848 6.20144 17.6988 5.83151 17.1863C5.46159 16.6738 5.25862 16.0598 5.25027 15.4278C5.24191 14.7958 5.42857 14.1766 5.78482 13.6545C6.14107 13.1325 6.64958 12.7329 7.24111 12.5103ZM16.0905 12.3471C15.4784 12.1895 14.8326 12.2244 14.2411 12.447C13.6496 12.6697 13.1411 13.0692 12.7848 13.5913C12.4286 14.1134 12.2419 14.7326 12.2503 15.3646C12.2586 15.9965 12.4616 16.6106 12.8315 17.1231C13.2014 17.6355 13.7203 18.0215 14.3175 18.2284C14.9148 18.4354 15.5612 18.4532 16.1689 18.2794C16.7766 18.1057 17.316 17.7489 17.7135 17.2575C17.9741 16.9355 17.9243 16.4633 17.6023 16.2027C17.2803 15.9422 16.808 15.992 16.5475 16.314C16.3439 16.5656 16.0677 16.7483 15.7566 16.8372C15.4454 16.9262 15.1144 16.9171 14.8086 16.8111C14.5029 16.7052 14.2372 16.5075 14.0477 16.2451C13.8583 15.9827 13.7544 15.6683 13.7501 15.3447C13.7459 15.0211 13.8414 14.7041 14.0238 14.4368C14.2062 14.1695 14.4666 13.9649 14.7695 13.8509C15.0724 13.7369 15.403 13.719 15.7164 13.7997C16.0298 13.8804 16.3107 14.0558 16.5209 14.3019C16.7898 14.6169 17.2632 14.6542 17.5782 14.3852C17.8932 14.1162 17.9306 13.6428 17.6616 13.3278C17.2512 12.8472 16.7026 12.5047 16.0905 12.3471Z" fill="#4E5964"/>
<path d="M19.4839 7.24999L15.75 4.13839V7.24999L19.4839 7.24999Z" fill="#4E5964"/>
</svg>
