<svg width="24" height="24" viewBox="0 0 24 24" fill="none" xmlns="http://www.w3.org/2000/svg">
<path fill-rule="evenodd" clip-rule="evenodd" d="M2.25 12C2.25 6.61522 6.61522 2.25 12 2.25C17.3848 2.25 21.75 6.61522 21.75 12C21.75 17.3848 17.3848 21.75 12 21.75C6.61522 21.75 2.25 17.3848 2.25 12ZM7.33806 9.28811C7.9758 9.04808 8.67202 9.01046 9.33191 9.18039C9.99179 9.35032 10.5833 9.71952 11.0257 10.2377C11.3157 10.5773 11.2755 11.0877 10.9359 11.3777C10.5963 11.6677 10.0859 11.6275 9.79591 11.2879C9.56935 11.0225 9.2665 10.8335 8.92863 10.7465C8.59075 10.6595 8.23427 10.6787 7.90773 10.8016C7.58119 10.9245 7.30048 11.1451 7.10382 11.4333C6.90716 11.7215 6.80412 12.0633 6.80874 12.4122C6.81335 12.761 6.92539 13.1 7.1296 13.3829C7.3338 13.6658 7.62025 13.8789 7.94992 13.9931C8.27959 14.1073 8.63646 14.1172 8.97192 14.0213C9.30738 13.9253 9.60512 13.7284 9.82459 13.4571C10.1055 13.11 10.6146 13.0563 10.9618 13.3372C11.309 13.6181 11.3627 14.1272 11.0818 14.4744C10.6531 15.0041 10.0716 15.3888 9.41646 15.5761C8.7613 15.7634 8.06433 15.7443 7.42047 15.5212C6.77661 15.2981 6.21717 14.8819 5.81835 14.3294C5.41953 13.7769 5.20071 13.1149 5.1917 12.4336C5.18269 11.7522 5.38393 11.0846 5.76801 10.5218C6.15209 9.95893 6.70033 9.52814 7.33806 9.28811ZM16.8788 9.11203C16.2189 8.9421 15.5227 8.97972 14.8849 9.21975C14.2472 9.45978 13.699 9.89057 13.3149 10.4534C12.9308 11.0163 12.7296 11.6838 12.7386 12.3652C12.7476 13.0465 12.9664 13.7086 13.3652 14.2611C13.764 14.8136 14.3235 15.2297 14.9673 15.4528C15.6112 15.6759 16.3082 15.6951 16.9633 15.5078C17.6185 15.3205 18.2 14.9357 18.6286 14.406C18.9095 14.0589 18.8558 13.5497 18.5087 13.2688C18.1615 12.9879 17.6524 13.0416 17.3715 13.3888C17.152 13.66 16.8543 13.857 16.5188 13.9529C16.1833 14.0488 15.8265 14.039 15.4968 13.9247C15.1671 13.8105 14.8807 13.5974 14.6765 13.3146C14.4723 13.0317 14.3602 12.6927 14.3556 12.3438C14.351 11.995 14.454 11.6531 14.6507 11.3649C14.8474 11.0767 15.1281 10.8562 15.4546 10.7333C15.7811 10.6104 16.1376 10.5911 16.4755 10.6781C16.8134 10.7651 17.1162 10.9542 17.3428 11.2195C17.6328 11.5591 18.1432 11.5993 18.4828 11.3093C18.8224 11.0194 18.8626 10.509 18.5726 10.1694C18.1301 9.65116 17.5387 9.28196 16.8788 9.11203Z" fill="#4E5964"/>
</svg>
