<svg width="24" height="24" viewBox="0 0 24 24" fill="none" xmlns="http://www.w3.org/2000/svg">
<path d="M13.4639 2.24951C13.7283 2.24951 13.991 2.27081 14.25 2.31006V7.67236C14.2503 8.38952 14.8961 8.74951 15.3936 8.74951H21.5L21.5859 8.74658C21.6 8.74552 21.6146 8.74248 21.6299 8.74072C21.7074 9.10067 21.75 9.47097 21.75 9.84619V16.5005C21.7497 19.3998 19.3993 21.7505 16.5 21.7505H7.5C4.60067 21.7505 2.25026 19.3998 2.25 16.5005V7.50049C2.25 4.60099 4.60051 2.24951 7.5 2.24951H13.4639ZM8.33301 12.2446C7.18267 12.2448 6.25018 13.1773 6.25 14.3276V17.6616C6.25018 18.812 7.18267 19.7445 8.33301 19.7446H9.66699C10.8173 19.7445 11.7498 18.812 11.75 17.6616V17.4946C11.75 17.0804 11.4142 16.7446 11 16.7446C10.5858 16.7446 10.25 17.0804 10.25 17.4946V17.6616C10.2498 17.9835 9.9889 18.2445 9.66699 18.2446H8.33301C8.0111 18.2445 7.75018 17.9835 7.75 17.6616V14.3276C7.75018 14.0057 8.0111 13.7448 8.33301 13.7446H9.66699L9.78418 13.7563C10.0499 13.8107 10.2498 14.0459 10.25 14.3276V14.9946C10.25 15.4088 10.5858 15.7446 11 15.7446C11.4142 15.7446 11.75 15.4088 11.75 14.9946V14.3276C11.7498 13.2492 10.9302 12.3621 9.87988 12.2554L9.66699 12.2446H8.33301ZM14.333 12.2446C13.1827 12.2448 12.2502 13.1773 12.25 14.3276V17.6616C12.2502 18.812 13.1827 19.7445 14.333 19.7446H15.667C16.8173 19.7445 17.7498 18.812 17.75 17.6616V17.4946C17.75 17.0804 17.4142 16.7446 17 16.7446C16.5858 16.7446 16.25 17.0804 16.25 17.4946V17.6616C16.2498 17.9835 15.9889 18.2445 15.667 18.2446H14.333C14.0111 18.2445 13.7502 17.9835 13.75 17.6616V14.3276C13.7502 14.0057 14.0111 13.7448 14.333 13.7446H15.667L15.7842 13.7563C16.0499 13.8107 16.2498 14.0459 16.25 14.3276V14.9946C16.25 15.4088 16.5858 15.7446 17 15.7446C17.4142 15.7446 17.75 15.4088 17.75 14.9946V14.3276C17.7498 13.2492 16.9302 12.3621 15.8799 12.2554L15.667 12.2446H14.333ZM6.75 8.50049C6.33579 8.50049 6 8.83627 6 9.25049C6.00026 9.66448 6.33595 10.0005 6.75 10.0005H8.25C8.66405 10.0005 8.99974 9.66448 9 9.25049C9 8.83627 8.66421 8.50049 8.25 8.50049H6.75ZM19.4844 7.24951H15.75V4.13721L19.4844 7.24951ZM6.75 5.50049C6.33579 5.50049 6 5.83627 6 6.25049C6.00026 6.66448 6.33595 7.00049 6.75 7.00049H11.25C11.6641 7.00049 11.9997 6.66448 12 6.25049C12 5.83627 11.6642 5.50049 11.25 5.50049H6.75Z" fill="#4E5964"/>
</svg>
