<svg width="24" height="24" viewBox="0 0 24 24" fill="none" xmlns="http://www.w3.org/2000/svg">
<path d="M16.5 2.25C19.3995 2.25 21.75 4.60051 21.75 7.5V16.5C21.75 19.3995 19.3995 21.75 16.5 21.75H7.5C4.60051 21.75 2.25 19.3995 2.25 16.5V7.5C2.25 4.60051 4.60051 2.25 7.5 2.25H16.5ZM7.80566 7.7998C6.53241 7.7998 5.50011 8.83224 5.5 10.1055V13.9941C5.5 15.2675 6.53234 16.2998 7.80566 16.2998H9.36133C10.6346 16.2997 11.667 15.2674 11.667 13.9941V13.7998C11.6669 13.3858 11.331 13.05 10.917 13.0498C10.5028 13.0498 10.1671 13.3857 10.167 13.7998V13.9941C10.167 14.439 9.80612 14.7997 9.36133 14.7998H7.80566C7.36077 14.7998 7 14.439 7 13.9941V10.1055C7.00011 9.66066 7.36083 9.2998 7.80566 9.2998H9.36133C9.80606 9.29992 10.1669 9.66074 10.167 10.1055V10.8828C10.167 11.297 10.5028 11.6328 10.917 11.6328C11.3311 11.6326 11.667 11.2969 11.667 10.8828V10.1055C11.6669 8.83231 10.6345 7.79992 9.36133 7.7998H7.80566ZM14.4736 7.7998C13.2004 7.7998 12.1681 8.83224 12.168 10.1055V13.9941C12.168 15.2675 13.2003 16.2998 14.4736 16.2998H16.0293C17.3025 16.2997 18.335 15.2674 18.335 13.9941V13.7998C18.3349 13.3858 17.999 13.05 17.585 13.0498C17.1708 13.0498 16.8351 13.3857 16.835 13.7998V13.9941C16.835 14.439 16.4741 14.7997 16.0293 14.7998H14.4736C14.0287 14.7998 13.668 14.439 13.668 13.9941V10.1055C13.6681 9.66066 14.0288 9.2998 14.4736 9.2998H16.0293C16.474 9.29992 16.8349 9.66074 16.835 10.1055V10.8828C16.835 11.297 17.1707 11.6328 17.585 11.6328C17.999 11.6326 18.335 11.2969 18.335 10.8828V10.1055C18.3349 8.83231 17.3025 7.79992 16.0293 7.7998H14.4736Z" fill="#4E5964"/>
</svg>
