<svg width="24" height="24" viewBox="0 0 24 24" fill="none" xmlns="http://www.w3.org/2000/svg">
<path d="M12 3.75C11.5858 3.75 11.25 3.41421 11.25 3V2C11.25 1.58579 11.5858 1.25 12 1.25C12.4142 1.25 12.75 1.58579 12.75 2V3C12.75 3.41421 12.4142 3.75 12 3.75Z" fill="#00ABB8"/>
<path d="M18 12C18 15.3137 15.3137 18 12 18C8.68629 18 6 15.3137 6 12C6 8.68629 8.68629 6 12 6C15.3137 6 18 8.68629 18 12Z" fill="#00ABB8"/>
<path d="M11.25 22C11.25 22.4142 11.5858 22.75 12 22.75C12.4142 22.75 12.75 22.4142 12.75 22V21C12.75 20.5858 12.4142 20.25 12 20.25C11.5858 20.25 11.25 20.5858 11.25 21V22Z" fill="#00ABB8"/>
<path d="M3.75 12C3.75 12.4142 3.41421 12.75 3 12.75H2C1.58579 12.75 1.25 12.4142 1.25 12C1.25 11.5858 1.58579 11.25 2 11.25H3C3.41421 11.25 3.75 11.5858 3.75 12Z" fill="#00ABB8"/>
<path d="M22 12.75C22.4142 12.75 22.75 12.4142 22.75 12C22.75 11.5858 22.4142 11.25 22 11.25H21C20.5858 11.25 20.25 11.5858 20.25 12C20.25 12.4142 20.5858 12.75 21 12.75H22Z" fill="#00ABB8"/>
<path d="M6.34283 17.6572C6.63572 17.9501 6.63572 18.4249 6.34283 18.7178L5.45895 19.6017C5.16605 19.8946 4.69118 19.8946 4.39829 19.6017C4.10539 19.3088 4.10539 18.8339 4.39829 18.5411L5.28217 17.6572C5.57506 17.3643 6.04994 17.3643 6.34283 17.6572Z" fill="#00ABB8"/>
<path d="M19.6651 5.03033C19.958 4.73744 19.958 4.26256 19.6651 3.96967C19.3722 3.67678 18.8973 3.67678 18.6044 3.96967L17.7206 4.85355C17.4277 5.14645 17.4277 5.62132 17.7206 5.91421C18.0134 6.20711 18.4883 6.20711 18.7812 5.91421L19.6651 5.03033Z" fill="#00ABB8"/>
<path d="M6.34283 6.34283C6.04994 6.63572 5.57506 6.63572 5.28217 6.34283L4.39829 5.45895C4.10539 5.16605 4.10539 4.69118 4.39829 4.39829C4.69118 4.10539 5.16605 4.10539 5.45895 4.39829L6.34283 5.28217C6.63572 5.57506 6.63572 6.04994 6.34283 6.34283Z" fill="#00ABB8"/>
<path d="M18.6044 19.6651C18.8973 19.958 19.3722 19.958 19.6651 19.6651C19.958 19.3722 19.958 18.8973 19.6651 18.6044L18.7812 17.7206C18.4883 17.4277 18.0134 17.4277 17.7206 17.7206C17.4277 18.0134 17.4277 18.4883 17.7206 18.7812L18.6044 19.6651Z" fill="#00ABB8"/>
</svg>
