<svg width="24" height="24" viewBox="0 0 24 24" fill="none" xmlns="http://www.w3.org/2000/svg">
<path d="M11.9996 4.64976C11.5854 4.64976 11.2496 4.31397 11.2496 3.89976V2.99976C11.2496 2.58554 11.5854 2.24976 11.9996 2.24976C12.4138 2.24976 12.7496 2.58554 12.7496 2.99976V3.89976C12.7496 4.31397 12.4138 4.64976 11.9996 4.64976Z" fill="#4E5964"/>
<path d="M5.84922 12C5.84922 8.6034 8.60267 5.84995 11.9992 5.84995C15.3958 5.84995 18.1492 8.6034 18.1492 12C18.1492 15.3965 15.3958 18.15 11.9992 18.15C8.60267 18.15 5.84922 15.3965 5.84922 12Z" fill="#4E5964"/>
<path d="M11.2496 20.9999C11.2496 21.4141 11.5854 21.7499 11.9996 21.7499C12.4138 21.7499 12.7496 21.4141 12.7496 20.9999V20.0999C12.7496 19.6856 12.4138 19.3499 11.9996 19.3499C11.5854 19.3499 11.2496 19.6856 11.2496 20.0999V20.9999Z" fill="#4E5964"/>
<path d="M4.65 11.9999C4.65 12.4141 4.31421 12.7499 3.9 12.7499H3C2.58579 12.7499 2.25 12.4141 2.25 11.9999C2.25 11.5856 2.58579 11.2499 3 11.2499H3.9C4.31421 11.2499 4.65 11.5856 4.65 11.9999Z" fill="#4E5964"/>
<path d="M20.9996 12.7499C21.4138 12.7499 21.7496 12.4141 21.7496 11.9999C21.7496 11.5856 21.4138 11.2499 20.9996 11.2499H20.0996C19.6854 11.2499 19.3496 11.5856 19.3496 11.9999C19.3496 12.4141 19.6854 12.7499 20.0996 12.7499H20.9996Z" fill="#4E5964"/>
<path d="M6.96158 17.0384C7.25447 17.3313 7.25447 17.8061 6.96158 18.099L6.16609 18.8945C5.87319 19.1874 5.39832 19.1874 5.10543 18.8945C4.81253 18.6016 4.81253 18.1268 5.10542 17.8339L5.90092 17.0384C6.19381 16.7455 6.66869 16.7455 6.96158 17.0384Z" fill="#4E5964"/>
<path d="M18.9508 5.78018C19.2437 5.48729 19.2437 5.01242 18.9508 4.71952C18.6579 4.42663 18.1831 4.42663 17.8902 4.71952L17.0947 5.51502C16.8018 5.80791 16.8018 6.28279 17.0947 6.57568C17.3876 6.86857 17.8624 6.86857 18.1553 6.57568L18.9508 5.78018Z" fill="#4E5964"/>
<path d="M6.96158 6.96134C6.66869 7.25423 6.19381 7.25423 5.90092 6.96134L5.10542 6.16584C4.81253 5.87295 4.81253 5.39807 5.10542 5.10518C5.39832 4.81229 5.87319 4.81229 6.16609 5.10518L6.96158 5.90068C7.25447 6.19357 7.25447 6.66844 6.96158 6.96134Z" fill="#4E5964"/>
<path d="M17.8902 18.9516C18.1831 19.2445 18.6579 19.2445 18.9508 18.9516C19.2437 18.6587 19.2437 18.1838 18.9508 17.8909L18.1553 17.0954C17.8624 16.8025 17.3876 16.8025 17.0947 17.0954C16.8018 17.3883 16.8018 17.8632 17.0947 18.1561L17.8902 18.9516Z" fill="#4E5964"/>
</svg>
