<svg width="24" height="24" viewBox="0 0 24 24" fill="none" xmlns="http://www.w3.org/2000/svg">
<path d="M12.7463 2C12.7463 1.58579 12.4106 1.25 11.9963 1.25C11.5821 1.25 11.2463 1.58579 11.2463 2V2.8416C11.2463 3.25581 11.5821 3.5916 11.9963 3.5916C12.4106 3.5916 12.7463 3.25581 12.7463 2.8416V2Z" fill="#4E5964"/>
<path d="M5.53033 4.46965C5.23744 4.17676 4.76256 4.17676 4.46967 4.46965C4.17678 4.76255 4.17678 5.23742 4.46967 5.53031L5.21354 6.27419C5.50644 6.56708 5.98131 6.56708 6.27421 6.27419C6.5671 5.9813 6.5671 5.50642 6.27421 5.21353L5.53033 4.46965Z" fill="#4E5964"/>
<path d="M19.2742 5.53031C19.5671 5.23742 19.5671 4.76255 19.2742 4.46965C18.9813 4.17676 18.5064 4.17676 18.2135 4.46965L17.4697 5.21353C17.1768 5.50642 17.1768 5.9813 17.4697 6.27419C17.7626 6.56708 18.2374 6.56708 18.5303 6.27419L19.2742 5.53031Z" fill="#4E5964"/>
<path d="M3 13.25C2.58579 13.25 2.25 13.5858 2.25 14C2.25 14.4142 2.58579 14.75 3 14.75L21 14.75C21.4142 14.75 21.75 14.4142 21.75 14C21.75 13.5858 21.4142 13.25 21 13.25L3 13.25Z" fill="#4E5964"/>
<path d="M7 16.25C6.58579 16.25 6.25 16.5858 6.25 17C6.25 17.4142 6.58579 17.75 7 17.75H17C17.4142 17.75 17.75 17.4142 17.75 17C17.75 16.5858 17.4142 16.25 17 16.25H7Z" fill="#4E5964"/>
<path d="M12.511 19.4656C12.219 19.1781 11.7503 19.1781 11.4584 19.4657L10.4737 20.4355C10.1786 20.7262 10.175 21.2011 10.4657 21.4962C10.7563 21.7913 11.2312 21.7949 11.5263 21.5042L11.9847 21.0527L12.4737 21.5343C12.7688 21.825 13.2437 21.8214 13.5343 21.5263C13.825 21.2312 13.8214 20.7563 13.5263 20.4656L12.511 19.4656Z" fill="#4E5964"/>
<path d="M12 5.25C8.27208 5.25 5.21354 7.96118 5.21354 11.6891H18.8106C18.8106 7.96118 15.7279 5.25 12 5.25Z" fill="#4E5964"/>
</svg>
