<svg width="24" height="24" viewBox="0 0 24 24" fill="none" xmlns="http://www.w3.org/2000/svg">
<path d="M11.2461 2.8416C11.2461 3.25581 11.5819 3.5916 11.9961 3.5916C12.4103 3.5916 12.7461 3.25581 12.7461 2.8416V2C12.7461 1.58579 12.4103 1.25 11.9961 1.25C11.5819 1.25 11.2461 1.58579 11.2461 2V2.8416Z" fill="#4E5964"/>
<path d="M12 5.25C8.27208 5.25 5.5 7.77206 5.5 11.5H18.5C18.5 7.77206 15.7279 5.25 12 5.25Z" fill="#4E5964"/>
<path d="M19.2745 4.46965C19.5674 4.76255 19.5674 5.23742 19.2745 5.53031L18.5306 6.27419C18.2377 6.56708 17.7628 6.56708 17.4699 6.27419C17.177 5.9813 17.177 5.50642 17.4699 5.21353L18.2138 4.46965C18.5067 4.17676 18.9816 4.17676 19.2745 4.46965Z" fill="#4E5964"/>
<path d="M5.21381 6.2742C5.5067 6.56709 5.98158 6.56709 6.27447 6.2742C6.56736 5.9813 6.56736 5.50643 6.27447 5.21354L5.5306 4.46966C5.2377 4.17677 4.76283 4.17677 4.46994 4.46966C4.17704 4.76255 4.17704 5.23743 4.46994 5.53032L5.21381 6.2742Z" fill="#4E5964"/>
<path d="M2.25 14C2.25 13.5858 2.58579 13.25 3 13.25L21 13.25C21.4142 13.25 21.75 13.5858 21.75 14C21.75 14.4142 21.4142 14.75 21 14.75L3 14.75C2.58579 14.75 2.25 14.4142 2.25 14Z" fill="#4E5964"/>
<path d="M6.25 17C6.25 16.5858 6.58579 16.25 7 16.25H17C17.4142 16.25 17.75 16.5858 17.75 17C17.75 17.4142 17.4142 17.75 17 17.75H7C6.58579 17.75 6.25 17.4142 6.25 17Z" fill="#4E5964"/>
<path d="M11.5263 19.4656C11.2312 19.175 10.7563 19.1786 10.4657 19.4737C10.175 19.7688 10.1786 20.2437 10.4737 20.5343L11.489 21.5343C11.781 21.8219 12.2497 21.8219 12.5416 21.5343L13.5263 20.5644C13.8214 20.2738 13.825 19.7989 13.5343 19.5038C13.2437 19.2087 12.7688 19.2051 12.4737 19.4958L12.0153 19.9473L11.5263 19.4656Z" fill="#4E5964"/>
</svg>
