<svg width="24" height="24" viewBox="0 0 24 24" fill="none" xmlns="http://www.w3.org/2000/svg">
<path fill-rule="evenodd" clip-rule="evenodd" d="M3.25 7.5C3.25 4.60051 5.60051 2.25 8.5 2.25H15.5C18.3995 2.25 20.75 4.60051 20.75 7.5V16.5C20.75 19.3995 18.3995 21.75 15.5 21.75H8.5C5.60051 21.75 3.25 19.3995 3.25 16.5V7.5ZM10.25 17C10.25 16.0335 11.0335 15.25 12 15.25C12.9665 15.25 13.75 16.0335 13.75 17C13.75 17.9665 12.9665 18.75 12 18.75C11.0335 18.75 10.25 17.9665 10.25 17ZM10 5.25C9.58579 5.25 9.25 5.58579 9.25 6C9.25 6.41421 9.58579 6.75 10 6.75H14C14.4142 6.75 14.75 6.41421 14.75 6C14.75 5.58579 14.4142 5.25 14 5.25H10Z" fill="#4E5964"/>
</svg>
