<svg width="24" height="24" viewBox="0 0 24 24" fill="none" xmlns="http://www.w3.org/2000/svg">
<path fill-rule="evenodd" clip-rule="evenodd" d="M8 2.25C5.37665 2.25 3.25 4.37665 3.25 7V14.25H20.75V7C20.75 4.37665 18.6234 2.25 16 2.25H8ZM20.75 15.75H3.25V17C3.25 19.6234 5.37665 21.75 8 21.75H16C18.6234 21.75 20.75 19.6234 20.75 17V15.75ZM10.25 18C10.25 17.0335 11.0335 16.25 12 16.25C12.9665 16.25 13.75 17.0335 13.75 18C13.75 18.9665 12.9665 19.75 12 19.75C11.0335 19.75 10.25 18.9665 10.25 18ZM11 5.25C10.5858 5.25 10.25 5.58579 10.25 6C10.25 6.41421 10.5858 6.75 11 6.75H13C13.4142 6.75 13.75 6.41421 13.75 6C13.75 5.58579 13.4142 5.25 13 5.25L11 5.25Z" fill="#4E5964"/>
</svg>
