<svg width="24" height="24" viewBox="0 0 24 24" fill="none" xmlns="http://www.w3.org/2000/svg">
<path fill-rule="evenodd" clip-rule="evenodd" d="M9.51729 3.25073C7.60308 3.25073 5.8374 4.27654 4.6995 5.95865L3.53984 7.67294C1.82005 10.2152 1.82005 13.7862 3.53984 16.3285L4.6995 18.0428C5.8374 19.7249 7.60309 20.7507 9.51729 20.7507H15.6424C19.1234 20.7507 21.75 17.4839 21.75 13.715V10.2864C21.75 6.51757 19.1234 3.25073 15.6424 3.25073H9.51729ZM10.9307 9.47089C10.6378 9.178 10.163 9.178 9.87006 9.47089C9.57717 9.76378 9.57717 10.2387 9.87006 10.5316L11.4608 12.1223L9.86961 13.7135C9.57671 14.0064 9.57671 14.4813 9.86961 14.7742C10.1625 15.0671 10.6374 15.0671 10.9303 14.7742L12.5215 13.183L14.1127 14.7742C14.4056 15.0671 14.8805 15.0671 15.1734 14.7742C15.4663 14.4813 15.4663 14.0064 15.1734 13.7135L13.5821 12.1223L15.1729 10.5316C15.4658 10.2387 15.4658 9.76378 15.1729 9.47089C14.88 9.178 14.4051 9.178 14.1122 9.47089L12.5215 11.0617L10.9307 9.47089Z" fill="#4E5964"/>
</svg>
