<svg width="24" height="24" viewBox="0 0 24 24" fill="none" xmlns="http://www.w3.org/2000/svg">
<path fill-rule="evenodd" clip-rule="evenodd" d="M16.0471 5H9.24143C7.42492 5 5.70782 5.76629 4.57858 7.08088L3.29006 8.58088C1.56998 10.5833 1.56998 13.4167 3.29006 15.4191L4.57858 16.9191C5.70782 18.2337 7.42492 19 9.24143 19H16.0471C19.3348 19 22 16.5376 22 13.5V10.5C22 7.46243 19.3348 5 16.0471 5ZM15.1729 9.46967C15.4658 9.76256 15.4658 10.2374 15.1729 10.5303L13.5821 12.1211L15.1734 13.7123C15.4663 14.0052 15.4663 14.4801 15.1734 14.773C14.8805 15.0659 14.4056 15.0659 14.1127 14.773L12.5215 13.1818L10.9303 14.773C10.6374 15.0659 10.1625 15.0659 9.86961 14.773C9.57671 14.4801 9.57671 14.0052 9.86961 13.7123L11.4608 12.1211L9.87006 10.5303C9.57717 10.2374 9.57717 9.76256 9.87006 9.46967C10.163 9.17678 10.6378 9.17678 10.9307 9.46967L12.5215 11.0604L14.1122 9.46967C14.4051 9.17678 14.88 9.17678 15.1729 9.46967Z" fill="#4E5964"/>
</svg>
