<svg width="24" height="24" viewBox="0 0 24 24" fill="none" xmlns="http://www.w3.org/2000/svg">
<path d="M17.4567 3.25842C16.8127 3.0164 16.088 3.14537 15.567 3.59469L5.95867 11.8819C5.8896 11.9415 5.80142 11.9742 5.7102 11.9742H3.93451C3.00418 11.9742 2.25 12.7284 2.25 13.6588C2.25 14.1179 2.43746 14.5572 2.76899 14.8749L4.91638 16.9329C5.58272 17.5714 6.61401 17.6321 7.35057 17.0759L10.6485 14.5858C10.8901 14.4034 11.2376 14.5626 11.2573 14.8647L11.4874 18.3925C11.5887 19.9456 13.5039 20.6175 14.5533 19.4682C14.7995 19.1985 14.956 18.8592 15.0014 18.497L15.9511 10.9125C15.9627 10.8196 16.0082 10.7344 16.0787 10.6729L20.7781 6.57868C21.5288 5.92469 21.3088 4.70611 20.3769 4.35587L17.4567 3.25842Z" fill="#4E5964"/>
<path d="M11.9872 5.47487C12.401 5.48585 12.7426 5.15885 12.7501 4.7445C12.7576 4.33014 12.4281 3.98534 12.0143 3.97435L8.52256 3.88168C8.29093 3.87553 8.06106 3.91895 7.84834 4.00904C6.55914 4.55504 6.53149 6.37528 7.80318 6.98193L8.68313 7.4017C9.05804 7.58054 9.50418 7.42239 9.67962 7.04846C9.85506 6.67453 9.69336 6.22641 9.31845 6.04757L8.4385 5.6278C8.40492 5.61178 8.39023 5.59417 8.38171 5.57973C8.37133 5.56214 8.36377 5.53734 8.36421 5.50824C8.36465 5.47914 8.37296 5.45471 8.38387 5.43762C8.39282 5.4236 8.40803 5.4067 8.44208 5.39228C8.45893 5.38515 8.47714 5.38171 8.49549 5.38219L11.9872 5.47487Z" fill="#4E5964"/>
</svg>
