<svg width="24" height="25" viewBox="0 0 24 25" fill="none" xmlns="http://www.w3.org/2000/svg">
<path d="M17.4567 3.53405C16.8127 3.29203 16.088 3.421 15.567 3.87033L5.95867 12.1575C5.8896 12.2171 5.80142 12.2499 5.7102 12.2499H3.93451C3.00418 12.2499 2.25 13.0041 2.25 13.9344C2.25 14.3936 2.43746 14.8329 2.76899 15.1506L4.91638 17.2085C5.58272 17.8471 6.61401 17.9077 7.35057 17.3516L10.6485 14.8615C10.8901 14.679 11.2376 14.8382 11.2573 15.1403L11.4874 18.6681C11.5887 20.2212 13.5039 20.8931 14.5533 19.7438C14.7995 19.4742 14.956 19.1349 15.0014 18.7726L15.9511 11.1881C15.9627 11.0953 16.0082 11.01 16.0787 10.9485L20.7781 6.85431C21.5288 6.20032 21.3088 4.98175 20.3769 4.63151L17.4567 3.53405Z" fill="#4E5964"/>
<path d="M11.9872 5.7505C12.401 5.76149 12.7426 5.43449 12.7501 5.02013C12.7576 4.60578 12.4281 4.26097 12.0143 4.24999L8.52256 4.15731C8.29093 4.15116 8.06106 4.19459 7.84834 4.28468C6.55914 4.83068 6.53149 6.65092 7.80318 7.25756L8.68313 7.67733C9.05804 7.85618 9.50418 7.69803 9.67962 7.3241C9.85506 6.95016 9.69336 6.50205 9.31845 6.3232L8.4385 5.90343C8.40492 5.88741 8.39023 5.8698 8.38171 5.85537C8.37133 5.83778 8.36377 5.81297 8.36421 5.78387C8.36465 5.75477 8.37296 5.73034 8.38387 5.71326C8.39282 5.69924 8.40803 5.68234 8.44208 5.66792C8.45893 5.66078 8.47714 5.65734 8.49549 5.65783L11.9872 5.7505Z" fill="#4E5964"/>
</svg>
