<svg width="24" height="24" viewBox="0 0 24 24" fill="none" xmlns="http://www.w3.org/2000/svg">
<path d="M7.03243 5.60955C8.63626 4.74271 10.4756 4.40994 12.2815 4.66033C12.6674 4.71421 12.9373 5.07113 12.884 5.4572C12.8298 5.84277 12.4729 6.11291 12.0871 6.05974C10.5794 5.85075 9.04343 6.12801 7.70431 6.85173C6.36525 7.57569 5.29186 8.70914 4.64083 10.0851C3.99013 11.4611 3.7946 13.0098 4.08419 14.5041C4.37416 15.9984 5.13412 17.3626 6.25216 18.3957C7.37026 19.4285 8.78948 20.0782 10.302 20.2492C11.8145 20.4199 13.3439 20.1033 14.6643 19.3459C15.9843 18.5883 17.0288 17.4281 17.6447 16.0363C18.2604 14.6444 18.4163 13.0911 18.0891 11.6047C18.0054 11.2239 18.2465 10.847 18.6272 10.7629C19.0076 10.6796 19.3848 10.9197 19.469 11.3C19.8609 13.0801 19.6741 14.9406 18.9367 16.6076C18.1991 18.2745 16.9484 19.6642 15.3674 20.5715C13.7862 21.4785 11.9552 21.858 10.1438 21.6535C8.33232 21.4488 6.63226 20.6707 5.29317 19.4338C3.95426 18.1967 3.04474 16.5632 2.69747 14.7736C2.35051 12.9839 2.58411 11.1286 3.36349 9.48064C4.14311 7.83291 5.42893 6.47652 7.03243 5.60955ZM8.85665 7.85369C10.0604 7.34236 11.4043 7.25605 12.6633 7.61052C13.0379 7.71673 13.2559 8.10759 13.1506 8.48259C13.0446 8.85742 12.6546 9.0761 12.2795 8.97088C11.33 8.70356 10.3163 8.76782 9.40841 9.15349C8.50078 9.53937 7.75096 10.224 7.28438 11.0929C6.81804 11.9619 6.66213 12.9651 6.842 13.9347C7.02224 14.9045 7.52821 15.7852 8.2756 16.4289C9.02307 17.0723 9.96862 17.4415 10.9543 17.4758C11.9399 17.5097 12.9083 17.2065 13.6984 16.6164C14.4884 16.0261 15.055 15.1834 15.302 14.2287C15.5104 13.4218 15.4804 12.5729 15.2219 11.7873C15.1006 11.4171 15.302 11.0177 15.6721 10.8957C16.0424 10.7741 16.4416 10.9767 16.5637 11.3469C16.9063 12.3883 16.9463 13.5115 16.6701 14.5812C16.3428 15.8474 15.5927 16.9654 14.5451 17.7482C13.4974 18.531 12.2126 18.932 10.9055 18.8869C9.59855 18.8415 8.34481 18.3523 7.35372 17.4992C6.36281 16.6457 5.69223 15.4783 5.45333 14.1926C5.2147 12.9066 5.42264 11.5773 6.04122 10.425C6.65993 9.27278 7.65306 8.36529 8.85665 7.85369ZM16.8352 2.48259C17.3889 2.04345 18.2503 2.40814 18.2795 3.15447L18.3186 4.19158L16.1311 6.6242C15.8544 6.93203 15.8792 7.4058 16.1867 7.68279C16.4946 7.95941 16.9693 7.9348 17.2463 7.62713L19.3547 5.28338L20.5324 5.23845L20.6779 5.24334C21.3795 5.32491 21.7308 6.19222 21.2238 6.74041L18.4123 9.77654C18.1823 10.0249 17.8311 10.1226 17.5061 10.0285L15.6379 9.48455C15.5954 9.47216 15.5539 9.45522 15.5139 9.4367L12.6984 12.4777C13.0447 13.3041 12.701 14.2703 11.8899 14.6838C11.0397 15.1163 9.99997 14.7776 9.56661 13.9279C9.13401 13.0777 9.47172 12.038 10.3215 11.6047C10.7563 11.3834 11.2406 11.3648 11.6682 11.5119L14.4768 8.47771C14.456 8.44026 14.4372 8.40068 14.4221 8.36052L13.7365 6.54119C13.6174 6.22418 13.6881 5.8659 13.9182 5.61736L16.7297 2.58123L16.8352 2.48259Z" fill="#4E5964"/>
</svg>
