<svg width="24" height="24" viewBox="0 0 24 24" fill="none" xmlns="http://www.w3.org/2000/svg">
<path d="M15.0009 3.37003C16.4205 2.39584 18.4031 2.95069 19.1191 4.52238L20.6855 7.96183C21.4012 9.53351 20.4966 11.3451 18.8066 11.7255L13.3652 12.9511C12.8178 13.0743 12.2641 13.025 11.7656 12.8378L16.8154 20.3398C17.0471 20.6842 16.9558 21.1487 16.6123 21.3778C16.2686 21.6068 15.8023 21.5141 15.5703 21.1698L10.8945 14.2245L7.59665 21.079C7.41705 21.4523 6.96892 21.6092 6.59567 21.4296C6.22256 21.2499 6.06551 20.8018 6.24509 20.4286L9.84372 12.9482L6.74899 14.1757C6.24316 14.3761 5.70001 14.3579 5.22751 14.1659L4.89353 14.3124C4.24665 14.594 3.48484 14.3012 3.19235 13.6591L3.15915 13.5868C2.86675 12.9444 3.15523 12.1956 3.80173 11.914L4.01755 11.8193C4.15554 11.2732 4.52572 10.7913 5.07419 10.5263L9.0947 8.58585C9.15174 8.55831 9.20952 8.53264 9.26853 8.51066C9.33235 7.72403 9.73939 6.98161 10.4297 6.50773L15.0009 3.37003Z" fill="#4E5964"/>
</svg>
