<svg width="24" height="24" viewBox="0 0 24 24" fill="none" xmlns="http://www.w3.org/2000/svg">
<path d="M11.4998 2.25C13.2947 2.25009 14.7498 3.70513 14.7498 5.5V15C14.7498 15.1093 14.7702 15.1589 14.783 15.1846C14.8007 15.2198 14.8316 15.2639 14.9149 15.3506C15.0566 15.4982 15.4592 15.8406 15.6121 16.4258C15.8357 17.2816 15.7863 18.1861 15.4715 19.0127C15.1565 19.8395 14.5908 20.5478 13.8543 21.0381C13.1179 21.5282 12.2463 21.7766 11.3621 21.748C10.4781 21.7194 9.62489 21.4154 8.9217 20.8789C8.21835 20.3421 7.70022 19.5984 7.43928 18.7529C7.17843 17.9075 7.18717 17.0019 7.46565 16.1621C7.6109 15.7242 7.88691 15.3637 8.02424 15.1602C8.17773 14.9326 8.23555 14.8071 8.24983 14.6777V5.5C8.24983 3.70507 9.7049 2.25 11.4998 2.25ZM11.4998 11.25C11.0856 11.25 10.7498 11.5858 10.7498 12V15.3809C9.8764 15.69 9.24983 16.5207 9.24983 17.5C9.24983 18.7426 10.2572 19.75 11.4998 19.75C12.7425 19.75 13.7498 18.7426 13.7498 17.5C13.7498 16.5207 13.1233 15.69 12.2498 15.3809V12C12.2498 11.5858 11.914 11.25 11.4998 11.25Z" fill="#4E5964"/>
</svg>
