<svg width="24" height="24" viewBox="0 0 24 24" fill="none" xmlns="http://www.w3.org/2000/svg">
<path d="M19.5001 12.0735C19.9143 12.0735 20.2501 12.4093 20.2501 12.8235C20.2501 13.2377 19.9143 13.5735 19.5001 13.5735H17.5001C17.0859 13.5735 16.7501 13.2377 16.7501 12.8235C16.7501 12.4093 17.0859 12.0735 17.5001 12.0735H19.5001ZM19.5001 8.07347C19.9143 8.07347 20.2501 8.40925 20.2501 8.82347C20.2501 9.23768 19.9143 9.57347 19.5001 9.57347H17.5001C17.0859 9.57347 16.7501 9.23768 16.7501 8.82347C16.7501 8.40925 17.0859 8.07347 17.5001 8.07347H19.5001ZM19.5001 4.07347C19.9143 4.07347 20.2501 4.40925 20.2501 4.82347C20.2501 5.23768 19.9143 5.57347 19.5001 5.57347H17.5001C17.0859 5.57347 16.7501 5.23768 16.7501 4.82347C16.7501 4.40925 17.0859 4.07347 17.5001 4.07347H19.5001Z" fill="#4E5964"/>
<path fill-rule="evenodd" clip-rule="evenodd" d="M15.5001 13.238L15.5001 6.00104C15.4999 4.06002 13.9196 2.48939 11.9786 2.50104C10.0542 2.51285 8.50031 4.07658 8.5001 6.00104V13.2735C8.49568 13.2898 8.47512 13.3657 8.39756 13.5215C8.34298 13.6312 8.28119 13.7427 8.19638 13.8956C8.1193 14.0345 8.0185 14.2162 7.92978 14.4044C7.49877 15.3185 7.38799 16.3513 7.61533 17.336C7.84271 18.3207 8.39553 19.2004 9.18369 19.8331C9.97175 20.4655 10.9496 20.8143 11.9601 20.8233C12.9706 20.8322 13.9548 20.5004 14.754 19.8819C15.5533 19.2633 16.1216 18.3938 16.3663 17.4131C16.611 16.4326 16.5184 15.3982 16.1036 14.4766C16.0124 14.2739 15.9094 14.0818 15.8282 13.9317L15.7895 13.8602C15.7195 13.7312 15.6649 13.6306 15.6153 13.5294C15.5195 13.3337 15.5027 13.2509 15.5001 13.238ZM11.2501 9.32884L11.2501 16.989C11.2501 17.4032 11.5859 17.739 12.0001 17.739C12.4143 17.739 12.7501 17.4032 12.7501 16.989V9.32884C12.7501 8.91462 12.4143 8.57884 12.0001 8.57884C11.5859 8.57884 11.2501 8.91462 11.2501 9.32884Z" fill="#4E5964"/>
</svg>
