<svg width="24" height="24" viewBox="0 0 24 24" fill="none" xmlns="http://www.w3.org/2000/svg">
<path fill-rule="evenodd" clip-rule="evenodd" d="M11.5 2.25C9.70507 2.25 8.25 3.70507 8.25 5.5V14.686C8.23416 14.8126 8.1747 14.9375 8.02424 15.1605C8.00531 15.1886 7.98376 15.2196 7.96028 15.2534C7.81341 15.4648 7.59127 15.7846 7.46604 16.1622C7.18753 17.0021 7.17808 17.9079 7.43901 18.7533C7.69994 19.5988 8.21823 20.3417 8.9216 20.8785C9.62498 21.4153 10.4783 21.7192 11.3627 21.7478C12.247 21.7764 13.1182 21.5282 13.8548 21.038C14.5914 20.5477 15.1566 19.8398 15.4716 19.013C15.7866 18.1861 15.8356 17.2816 15.6119 16.4255C15.4765 15.9071 15.1456 15.5794 14.9733 15.4087C14.951 15.3867 14.9313 15.3672 14.9151 15.3503C14.8318 15.2636 14.8008 15.2199 14.7832 15.1847C14.7703 15.159 14.75 15.1095 14.75 15L14.75 5.5C14.75 3.70507 13.2949 2.25 11.5 2.25ZM12.25 12C12.25 11.5858 11.9142 11.25 11.5 11.25C11.0858 11.25 10.75 11.5858 10.75 12V15.378C9.87611 15.6869 9.25 16.5203 9.25 17.5C9.25 18.7426 10.2574 19.75 11.5 19.75C12.7426 19.75 13.75 18.7426 13.75 17.5C13.75 16.5203 13.1239 15.6869 12.25 15.378V12ZM10.75 17.5C10.75 17.0858 11.0858 16.75 11.5 16.75C11.9142 16.75 12.25 17.0858 12.25 17.5C12.25 17.9142 11.9142 18.25 11.5 18.25C11.0858 18.25 10.75 17.9142 10.75 17.5Z" fill="#4E5964"/>
</svg>
