<svg width="24" height="24" viewBox="0 0 24 24" fill="none" xmlns="http://www.w3.org/2000/svg">
<path fill-rule="evenodd" clip-rule="evenodd" d="M9.5 4.00049C6.46243 4.00049 4 6.46292 4 9.50049V16.5005C4 19.5381 6.46243 22.0005 9.5 22.0005H16.5C19.5376 22.0005 22 19.5381 22 16.5005V9.50049C22 6.46292 19.5376 4.00049 16.5 4.00049H9.5ZM13.1172 8.43799C13.5314 8.43799 13.8672 8.77377 13.8672 9.18799V13.339C14.0228 13.5153 14.1172 13.7469 14.1172 14.0005C14.1172 14.5528 13.6695 15.0005 13.1172 15.0005C12.5649 15.0005 12.1172 14.5528 12.1172 14.0005C12.1172 13.7469 12.2116 13.5153 12.3672 13.339V9.18799C12.3672 8.77377 12.703 8.43799 13.1172 8.43799Z" fill="#4E5964"/>
<path d="M5.75708 3.35624C6.05296 3.07455 6.08269 2.58554 5.82349 2.26399C5.56429 1.94245 5.11431 1.91013 4.81843 2.19182L2.24292 4.64376C1.94704 4.92545 1.91731 5.41446 2.17651 5.73601C2.43571 6.05755 2.88569 6.08987 3.18157 5.80818L5.75708 3.35624Z" fill="#4E5964"/>
</svg>
