<svg width="24" height="24" viewBox="0 0 24 24" fill="none" xmlns="http://www.w3.org/2000/svg">
<path d="M5.468 2.56403C5.77957 2.29109 5.81088 1.81725 5.53793 1.50568C5.26499 1.19411 4.79115 1.1628 4.47958 1.43575L1.76752 3.81161C1.45595 4.08455 1.42464 4.55839 1.69759 4.86996C1.97053 5.18153 2.44437 5.21284 2.75594 4.93989L5.468 2.56403Z" fill="#4E5964"/>
<path fill-rule="evenodd" clip-rule="evenodd" d="M2.24966 9.19437C2.24966 5.87154 5.08884 3.24993 8.49966 3.24993H15.4997C18.9105 3.24993 21.7497 5.87154 21.7497 9.19437V15.8055C21.7497 19.1283 18.9105 21.7499 15.4997 21.7499H8.49966C5.08884 21.7499 2.24966 19.1283 2.24966 15.8055V9.19437ZM12.8668 9.18743C12.8668 8.77322 12.5311 8.43743 12.1168 8.43743C11.7026 8.43743 11.3668 8.77322 11.3668 9.18743V13.2796C11.1415 13.481 10.9997 13.7739 10.9997 14.0999C10.9997 14.7074 11.4921 15.1999 12.0997 15.1999C12.7072 15.1999 13.1997 14.7074 13.1997 14.0999C13.1997 13.7908 13.0721 13.5115 12.8668 13.3116V9.18743Z" fill="#4E5964"/>
</svg>
