<svg width="24" height="24" viewBox="0 0 24 24" fill="none" xmlns="http://www.w3.org/2000/svg">
<path fill-rule="evenodd" clip-rule="evenodd" d="M15.5001 3.24981C18.9106 3.25003 21.7499 5.87157 21.7501 9.19415V15.8055C21.75 19.1281 18.9107 21.7496 15.5001 21.7498H8.50008C5.08931 21.7498 2.25015 19.1283 2.25008 15.8055V9.19415C2.25023 5.87143 5.08936 3.24981 8.50008 3.24981H15.5001ZM12.0001 8.24981C11.5859 8.24981 11.2502 8.58566 11.2501 8.99981V12.451C10.8019 12.7103 10.5001 13.1947 10.5001 13.7498C10.5001 14.5782 11.1717 15.2498 12.0001 15.2498C12.8283 15.2496 13.5001 14.5781 13.5001 13.7498C13.5 13.1949 13.1981 12.7104 12.7501 12.451V8.99981C12.75 8.58581 12.4141 8.25004 12.0001 8.24981Z" fill="#4E5964"/>
<path d="M4.47958 1.43536C4.79115 1.16261 5.26528 1.19417 5.53817 1.50567C5.81102 1.81724 5.77939 2.29135 5.46786 2.56426L2.75594 4.94024C2.44437 5.21304 1.97025 5.18144 1.69735 4.86993C1.42454 4.55836 1.45614 4.08424 1.76766 3.81133L4.47958 1.43536Z" fill="#4E5964"/>
</svg>
