<svg width="24" height="24" viewBox="0 0 24 24" fill="none" xmlns="http://www.w3.org/2000/svg">
<path fill-rule="evenodd" clip-rule="evenodd" d="M8.5 2.99994C5.46243 2.99994 3 5.46237 3 8.49994V15.4999C3 18.5375 5.46243 20.9999 8.5 20.9999H15.5C18.5376 20.9999 21 18.5375 21 15.4999V8.49994C21 5.46237 18.5376 2.99994 15.5 2.99994H8.5ZM12.1172 7.43744C12.5314 7.43744 12.8672 7.77323 12.8672 8.18744V12.3385C13.0228 12.5148 13.1172 12.7463 13.1172 12.9999C13.1172 13.5522 12.6695 13.9999 12.1172 13.9999C11.5649 13.9999 11.1172 13.5522 11.1172 12.9999C11.1172 12.7463 11.2116 12.5148 11.3672 12.3385V8.18744C11.3672 7.77323 11.703 7.43744 12.1172 7.43744Z" fill="#4E5964"/>
<path d="M1.26207 3.37533L3.97413 0.99947" stroke="#4E5964" stroke-width="1.5" stroke-linecap="round"/>
</svg>
