<svg width="24" height="24" viewBox="0 0 24 24" fill="none" xmlns="http://www.w3.org/2000/svg">
<path fill-rule="evenodd" clip-rule="evenodd" d="M2.25 7.5C2.25 4.60051 4.60051 2.25 7.5 2.25H16.5C19.3995 2.25 21.75 4.60051 21.75 7.5V16.5C21.75 19.3995 19.3995 21.75 16.5 21.75H7.5C4.60051 21.75 2.25 19.3995 2.25 16.5V7.5ZM4.75 8C4.75 7.58579 5.08579 7.25 5.5 7.25H10.5C10.9142 7.25 11.25 7.58579 11.25 8C11.25 8.41421 10.9142 8.75 10.5 8.75H8.75V16C8.75 16.4142 8.41421 16.75 8 16.75C7.58579 16.75 7.25 16.4142 7.25 16V8.75H5.5C5.08579 8.75 4.75 8.41421 4.75 8ZM12.5 7.25C12.0858 7.25 11.75 7.58579 11.75 8V16C11.75 16.4142 12.0858 16.75 12.5 16.75C12.9142 16.75 13.25 16.4142 13.25 16V8.91446L14.2841 12.2237C14.382 12.5368 14.672 12.75 15 12.75C15.328 12.75 15.618 12.5368 15.7159 12.2237L16.75 8.91446V16C16.75 16.4142 17.0858 16.75 17.5 16.75C17.9142 16.75 18.25 16.4142 18.25 16V8C18.25 7.58579 17.9142 7.25 17.5 7.25H16.25C15.922 7.25 15.632 7.46319 15.5341 7.77629L15 9.48554L14.4659 7.77629C14.368 7.46319 14.078 7.25 13.75 7.25H12.5Z" fill="#4E5964"/>
</svg>
