<svg width="24" height="24" viewBox="0 0 24 24" fill="none" xmlns="http://www.w3.org/2000/svg">
<path d="M16.5 2.25C19.3995 2.25 21.75 4.60051 21.75 7.5V16.5C21.75 19.3995 19.3995 21.75 16.5 21.75H7.5C4.60051 21.75 2.25 19.3995 2.25 16.5V7.5C2.25 4.60051 4.60051 2.25 7.5 2.25H16.5ZM5.25195 8C5.084 8.00002 5.00002 8.084 5 8.25195V9.06836C5.00012 9.2361 5.0841 9.3203 5.25195 9.32031H6.62012C6.70804 9.32035 6.75195 9.36419 6.75195 9.45215V15.4639C6.75195 15.6317 6.83988 15.7157 7.01562 15.7158H8.02441C8.19214 15.7157 8.27637 15.6317 8.27637 15.4639V9.45215C8.27637 9.36417 8.32397 9.32034 8.41992 9.32031H9.78809C9.95591 9.32028 10.0399 9.23609 10.04 9.06836V8.25195C10.04 8.08401 9.95601 8.00003 9.78809 8H5.25195ZM11.208 8C11.0402 8.0001 10.9561 8.08409 10.9561 8.25195V15.4639C10.9561 15.6318 11.0402 15.7157 11.208 15.7158H12.1924C12.2963 15.7158 12.3645 15.7 12.3965 15.668C12.4284 15.628 12.4443 15.5598 12.4443 15.4639V9.76367H12.4922L13.7402 13.7959C13.7882 13.9558 13.8882 14.036 14.04 14.0361H15.0479C15.1999 14.0361 15.3006 13.9559 15.3486 13.7959L16.5723 9.77637H16.6201V15.4639C16.6201 15.6318 16.7042 15.7157 16.8721 15.7158H17.8564C18.0244 15.7158 18.1084 15.6318 18.1084 15.4639V8.25195C18.1084 8.08403 18.0243 8.00004 17.8564 8H16.0801C15.9522 8.00007 15.8765 8.05609 15.8525 8.16797L14.5684 12.4043H14.4961L13.2246 8.16797C13.1846 8.05597 13.1081 8 12.9961 8H11.208Z" fill="#4E5964"/>
</svg>
