<svg width="24" height="24" viewBox="0 0 24 24" fill="none" xmlns="http://www.w3.org/2000/svg">
<path d="M12.25 2.25C17.7728 2.25 22.25 6.72715 22.25 12.25C22.25 17.7728 17.7728 22.25 12.25 22.25C6.72715 22.25 2.25 17.7728 2.25 12.25C2.25 6.72715 6.72715 2.25 12.25 2.25ZM5.25 8C4.83582 8 4.50006 8.33584 4.5 8.75C4.5 9.16421 4.83579 9.5 5.25 9.5H6.83203V15.75C6.83203 16.1641 7.168 16.4998 7.58203 16.5C7.99624 16.5 8.33203 16.1642 8.33203 15.75V9.5H9.91699C10.3311 9.49982 10.667 9.1641 10.667 8.75C10.6669 8.33595 10.331 8.00018 9.91699 8H5.25ZM18.3379 8.02637C18.0122 7.93713 17.6665 8.07681 17.4941 8.36719L15.0283 12.5273L12.5625 8.36719C12.3902 8.07677 12.0445 7.93712 11.7188 8.02637C11.393 8.11568 11.167 8.4122 11.167 8.75V15.75C11.167 16.1642 11.5028 16.4999 11.917 16.5C12.3312 16.5 12.667 16.1642 12.667 15.75V11.4873L14.3828 14.3828C14.5179 14.6106 14.7635 14.75 15.0283 14.75C15.2931 14.75 15.5388 14.6106 15.6738 14.3828L17.3896 11.4863V15.75C17.3896 16.1642 17.7254 16.5 18.1396 16.5C18.5537 16.4998 18.8896 16.1641 18.8896 15.75V8.75C18.8896 8.41224 18.6636 8.11572 18.3379 8.02637Z" fill="#4E5964"/>
</svg>
