<svg width="24" height="24" viewBox="0 0 24 24" fill="none" xmlns="http://www.w3.org/2000/svg">
<path d="M6.75 11.5C6.75 11.0858 7.08579 10.75 7.5 10.75H16.5C16.9142 10.75 17.25 11.0858 17.25 11.5C17.25 11.9142 16.9142 12.25 16.5 12.25H7.5C7.08579 12.25 6.75 11.9142 6.75 11.5Z" fill="#4E5964"/>
<path fill-rule="evenodd" clip-rule="evenodd" d="M12.75 5.85V5.58159C13.3412 5.30073 13.75 4.6981 13.75 4C13.75 3.0335 12.9665 2.25 12 2.25C11.0335 2.25 10.25 3.0335 10.25 4C10.25 4.6981 10.6588 5.30073 11.25 5.58159V5.85H8.8C8.77239 5.85 8.75 5.82761 8.75 5.8C8.75 4.94396 8.05604 4.25 7.2 4.25H7C4.37665 4.25 2.25 6.37665 2.25 9V12.2927C2.17181 12.265 2.08766 12.25 2 12.25C1.58579 12.25 1.25 12.5858 1.25 13V15C1.25 15.4142 1.58579 15.75 2 15.75C2.08766 15.75 2.17181 15.735 2.25 15.7073V16.5C2.25 19.3995 4.6005 21.75 7.5 21.75H16.5C19.3995 21.75 21.75 19.3995 21.75 16.5V15.7073C21.8282 15.735 21.9123 15.75 22 15.75C22.4142 15.75 22.75 15.4142 22.75 15V13C22.75 12.5858 22.4142 12.25 22 12.25C21.9123 12.25 21.8282 12.265 21.75 12.2927V9C21.75 6.37664 19.6234 4.25 17 4.25H16.8C15.944 4.25 15.25 4.94396 15.25 5.8C15.25 5.82761 15.2276 5.85 15.2 5.85H12.75ZM11.75 4C11.75 4.13807 11.8619 4.25 12 4.25C12.1381 4.25 12.25 4.13807 12.25 4C12.25 3.86193 12.1381 3.75 12 3.75C11.8619 3.75 11.75 3.86193 11.75 4ZM7.5 9.25C6.25736 9.25 5.25 10.2574 5.25 11.5C5.25 12.7426 6.25736 13.75 7.5 13.75H16.5C17.7426 13.75 18.75 12.7426 18.75 11.5C18.75 10.2574 17.7426 9.25 16.5 9.25H7.5ZM8.33634 16.6506C8.5293 16.2841 8.98285 16.1434 9.34937 16.3363C10.3944 16.8865 11.3097 17.1421 12.1435 17.1458C12.9678 17.1496 13.7675 16.9077 14.5907 16.3715C14.9378 16.1455 15.4024 16.2436 15.6285 16.5907C15.8545 16.9378 15.7564 17.4024 15.4093 17.6284C14.3712 18.3046 13.2885 18.651 12.1368 18.6458C10.9946 18.6406 9.84056 18.2901 8.65063 17.6637C8.2841 17.4707 8.14339 17.0172 8.33634 16.6506Z" fill="#4E5964"/>
</svg>
