<svg width="24" height="24" viewBox="0 0 24 24" fill="none" xmlns="http://www.w3.org/2000/svg">
<path fill-rule="evenodd" clip-rule="evenodd" d="M2.25 7.5C2.25 4.60051 4.60051 2.25 7.5 2.25H16.5C19.3995 2.25 21.75 4.60051 21.75 7.5V16.5C21.75 19.3995 19.3995 21.75 16.5 21.75H7.5C4.60051 21.75 2.25 19.3995 2.25 16.5V7.5ZM13.9697 6.46967C14.2626 6.17678 14.7374 6.17678 15.0303 6.46967L17.5303 8.96967C17.7448 9.18417 17.809 9.50676 17.6929 9.78701C17.5768 10.0673 17.3033 10.25 17 10.25H7C6.58579 10.25 6.25 9.91421 6.25 9.5C6.25 9.08579 6.58579 8.75 7 8.75H15.1893L13.9697 7.53033C13.6768 7.23744 13.6768 6.76256 13.9697 6.46967ZM7 13.75C6.69665 13.75 6.42318 13.9327 6.30709 14.213C6.191 14.4932 6.25517 14.8158 6.46967 15.0303L8.96967 17.5303C9.26256 17.8232 9.73744 17.8232 10.0303 17.5303C10.3232 17.2374 10.3232 16.7626 10.0303 16.4697L8.81066 15.25H17C17.4142 15.25 17.75 14.9142 17.75 14.5C17.75 14.0858 17.4142 13.75 17 13.75H7Z" fill="#4E5964"/>
</svg>
