<svg width="24" height="24" viewBox="0 0 24 24" fill="none" xmlns="http://www.w3.org/2000/svg">
<path fill-rule="evenodd" clip-rule="evenodd" d="M8 11.75C7.30964 11.75 6.75 12.3096 6.75 13V15C6.75 15.6904 7.30964 16.25 8 16.25H16C16.6904 16.25 17.25 15.6904 17.25 15V13C17.25 12.3096 16.6904 11.75 16 11.75H8ZM9.75 13.5C9.75 13.0858 9.41421 12.75 9 12.75C8.58579 12.75 8.25 13.0858 8.25 13.5V14.5C8.25 14.9142 8.58579 15.25 9 15.25C9.41421 15.25 9.75 14.9142 9.75 14.5V13.5ZM15 12.75C15.4142 12.75 15.75 13.0858 15.75 13.5V14.5C15.75 14.9142 15.4142 15.25 15 15.25C14.5858 15.25 14.25 14.9142 14.25 14.5V13.5C14.25 13.0858 14.5858 12.75 15 12.75Z" fill="#4E5964"/>
<path fill-rule="evenodd" clip-rule="evenodd" d="M21.75 12.2927V9C21.75 6.37664 19.6234 4.25 17 4.25H16.8C15.944 4.25 15.25 4.94396 15.25 5.8C15.25 5.82761 15.2276 5.85 15.2 5.85H12.75V5.58159C13.3412 5.30073 13.75 4.6981 13.75 4C13.75 3.0335 12.9665 2.25 12 2.25C11.0335 2.25 10.25 3.0335 10.25 4C10.25 4.6981 10.6588 5.30073 11.25 5.58159V5.85H8.8C8.77239 5.85 8.75 5.82761 8.75 5.8C8.75 4.94396 8.05604 4.25 7.2 4.25H7C4.37665 4.25 2.25 6.37665 2.25 9V12.2927C2.17181 12.265 2.08766 12.25 2 12.25C1.58579 12.25 1.25 12.5858 1.25 13V15C1.25 15.4142 1.58579 15.75 2 15.75C2.08766 15.75 2.17181 15.735 2.25 15.7073V16.5C2.25 19.3995 4.6005 21.75 7.5 21.75H16.5C19.3995 21.75 21.75 19.3995 21.75 16.5V15.7073C21.8282 15.735 21.9123 15.75 22 15.75C22.4142 15.75 22.75 15.4142 22.75 15V13C22.75 12.5858 22.4142 12.25 22 12.25C21.9123 12.25 21.8282 12.265 21.75 12.2927ZM12.75 6.5C12.75 6.91421 12.4142 7.25 12 7.25C11.5858 7.25 11.25 6.91421 11.25 6.5V5.85H12.75V6.5ZM21.75 12.2927V15.7073C21.4587 15.6044 21.25 15.3266 21.25 15V13C21.25 12.6734 21.4587 12.3956 21.75 12.2927ZM2.25 15.7073V12.2927C2.5413 12.3956 2.75 12.6734 2.75 13V15C2.75 15.3266 2.5413 15.6044 2.25 15.7073ZM11.75 4C11.75 4.13807 11.8619 4.25 12 4.25C12.1381 4.25 12.25 4.13807 12.25 4C12.25 3.86193 12.1381 3.75 12 3.75C11.8619 3.75 11.75 3.86193 11.75 4ZM5.25 13C5.25 11.4812 6.48122 10.25 8 10.25H16C17.5188 10.25 18.75 11.4812 18.75 13V15C18.75 16.5188 17.5188 17.75 16 17.75H8C6.48122 17.75 5.25 16.5188 5.25 15V13Z" fill="#4E5964"/>
</svg>
