<svg width="24" height="24" viewBox="0 0 24 24" fill="none" xmlns="http://www.w3.org/2000/svg">
<path fill-rule="evenodd" clip-rule="evenodd" d="M2.25 12C2.25 6.61522 6.61522 2.25 12 2.25C17.3848 2.25 21.75 6.61522 21.75 12C21.75 14.6849 20.6647 17.1164 18.909 18.8796L17.75 18.523V16C17.75 15.5858 17.4142 15.25 17 15.25C16.5858 15.25 16.25 15.5858 16.25 16V19.0769C16.25 19.4062 16.4647 19.6969 16.7794 19.7938L17.5364 20.0267C15.9638 21.1135 14.0563 21.75 12 21.75C6.61522 21.75 2.25 17.3848 2.25 12ZM17.5364 20.0267L19.7794 20.7168C20.1753 20.8386 20.595 20.6165 20.7168 20.2206C20.8386 19.8247 20.6165 19.405 20.2206 19.2832L18.909 18.8796C18.4881 19.3023 18.0287 19.6865 17.5364 20.0267ZM12 6.25C12.4142 6.25 12.75 6.58579 12.75 7V7.25H13.063C14.3454 7.25 15.4211 8.12712 15.7263 9.31306C15.8296 9.7142 15.5881 10.1231 15.1869 10.2263C14.7858 10.3296 14.3769 10.0881 14.2737 9.68694C14.1349 9.14765 13.6444 8.75 13.063 8.75H12.75V11.25H13C14.5188 11.25 15.75 12.4812 15.75 14C15.75 15.5188 14.5188 16.75 13 16.75H12.75V17C12.75 17.4142 12.4142 17.75 12 17.75C11.5858 17.75 11.25 17.4142 11.25 17V16.75H10.937C9.65457 16.75 8.57891 15.8729 8.27367 14.6869C8.17043 14.2858 8.41192 13.8769 8.81306 13.7737C9.2142 13.6704 9.62308 13.9119 9.72633 14.3131C9.86513 14.8524 10.3556 15.25 10.937 15.25H11.25V12.75H11C9.48122 12.75 8.25 11.5188 8.25 10C8.25 8.48122 9.48122 7.25 11 7.25H11.25V7C11.25 6.58579 11.5858 6.25 12 6.25ZM11.25 8.75H11C10.3096 8.75 9.75 9.30964 9.75 10C9.75 10.6904 10.3096 11.25 11 11.25H11.25V8.75ZM12.75 12.75V15.25H13C13.6904 15.25 14.25 14.6904 14.25 14C14.25 13.3096 13.6904 12.75 13 12.75H12.75Z" fill="#4E5964"/>
</svg>
