<svg width="24" height="24" viewBox="0 0 24 24" fill="none" xmlns="http://www.w3.org/2000/svg">
<path d="M13.1465 12.9609C13.7492 13.0614 14.1914 13.5833 14.1914 14.1943V14.5C14.1914 15.1903 13.6317 15.75 12.9414 15.75H12.6914V12.8848L13.1465 12.9609Z" fill="#4E5964"/>
<path d="M11.1914 11.1143L10.7363 11.0391C10.1336 10.9386 9.69141 10.4167 9.69141 9.80566V9.5C9.69141 8.80964 10.251 8.25 10.9414 8.25H11.1914V11.1143Z" fill="#4E5964"/>
<path fill-rule="evenodd" clip-rule="evenodd" d="M11.9414 2.25C13.3286 2.25 14.6471 2.54223 15.8418 3.06445C15.431 3.69279 15.1914 4.44326 15.1914 5.25C15.1914 7.45914 16.9823 9.25 19.1914 9.25C19.8963 9.25 20.5577 9.06614 21.1328 8.74609C21.4932 9.76394 21.6914 10.8587 21.6914 12C21.6914 17.3848 17.3262 21.75 11.9414 21.75C6.55663 21.75 2.19141 17.3848 2.19141 12C2.19141 6.61522 6.55663 2.25 11.9414 2.25ZM11.9414 5.25C11.5272 5.25001 11.1914 5.58579 11.1914 6V6.75H10.9414C9.42262 6.75 8.19141 7.98122 8.19141 9.5V9.80566C8.19141 11.15 9.16324 12.2976 10.4893 12.5186L11.1914 12.6348V15.75H10.9414C10.2511 15.75 9.69144 15.1903 9.69141 14.5V14C9.69141 13.5858 9.35562 13.25 8.94141 13.25C8.52719 13.25 8.19141 13.5858 8.19141 14V14.5C8.19144 16.0188 9.42265 17.25 10.9414 17.25H11.1914V18C11.1914 18.4142 11.5272 18.75 11.9414 18.75C12.3556 18.75 12.6914 18.4142 12.6914 18V17.25H12.9414C14.4602 17.25 15.6914 16.0188 15.6914 14.5V14.1943C15.6914 12.85 14.7196 11.7025 13.3936 11.4814L12.6914 11.3643V8.25H12.9414C13.6318 8.25 14.1914 8.80964 14.1914 9.5V10C14.1914 10.4142 14.5272 10.75 14.9414 10.75C15.3556 10.75 15.6914 10.4142 15.6914 10V9.5C15.6914 7.98122 14.4602 6.75 12.9414 6.75H12.6914V6C12.6914 5.58579 12.3556 5.25 11.9414 5.25Z" fill="#4E5964"/>
<path d="M18.25 3C18.25 2.58579 18.5858 2.25 19 2.25C19.4142 2.25 19.75 2.58579 19.75 3V4.75391L21.6943 5.27539C22.0943 5.38267 22.3318 5.79429 22.2246 6.19434C22.1173 6.59434 21.7057 6.8318 21.3057 6.72461L18.8057 6.05469C18.4779 5.96677 18.25 5.66947 18.25 5.33008V3Z" fill="#4E5964"/>
</svg>
