<svg width="24" height="24" viewBox="0 0 24 24" fill="none" xmlns="http://www.w3.org/2000/svg">
<path d="M20 8H13.12H9.94667H6.77333H4" stroke="#4E5964" stroke-width="1.5" stroke-linecap="round"/>
<path d="M7 6V6C7 4.34315 8.34315 3 10 3H14C15.6569 3 17 4.34315 17 6V6" stroke="#4E5964" stroke-width="1.5" stroke-linecap="round"/>
<path fill-rule="evenodd" clip-rule="evenodd" d="M19 12.8657V16.0362C19 19.3299 17.0848 22 14.7222 22H9.27779C6.91524 22 5.00001 19.3299 5.00001 16.0362V12.8657L5 8.49984C5 8.2237 5.22386 8 5.5 8H18C18.5523 8 19 8.44751 19 8.99979V12.8657ZM9.75 13C9.75 12.5858 9.41422 12.25 9 12.25C8.58579 12.25 8.25 12.5858 8.25 13L8.24998 17C8.24998 17.4142 8.58577 17.75 8.99998 17.75C9.4142 17.75 9.74998 17.4142 9.74998 17L9.75 13ZM15 12.25C15.4142 12.25 15.75 12.5858 15.75 13V17C15.75 17.4142 15.4142 17.75 15 17.75C14.5858 17.75 14.25 17.4142 14.25 17V13C14.25 12.5858 14.5858 12.25 15 12.25ZM12.75 13C12.75 12.5858 12.4142 12.25 12 12.25C11.5858 12.25 11.25 12.5858 11.25 13V17C11.25 17.4142 11.5858 17.75 12 17.75C12.4142 17.75 12.75 17.4142 12.75 17V13Z" fill="#4E5964"/>
</svg>
