<svg width="24" height="24" viewBox="0 0 24 24" fill="none" xmlns="http://www.w3.org/2000/svg">
<path fill-rule="evenodd" clip-rule="evenodd" d="M3 7.82278C3 7.40333 3.34538 7.06329 3.77143 7.06329H20.2286C20.6546 7.06329 21 7.40333 21 7.82278C21 8.24224 20.6546 8.58228 20.2286 8.58228H3.77143C3.34538 8.58228 3 8.24224 3 7.82278Z" fill="#00ABB8"/>
<path fill-rule="evenodd" clip-rule="evenodd" d="M9.94286 3.51899C8.66471 3.51899 7.62857 4.5391 7.62857 5.79747C7.62857 6.21693 7.28319 6.55696 6.85714 6.55696C6.43109 6.55696 6.08571 6.21693 6.08571 5.79747C6.08571 3.70018 7.81262 2 9.94286 2H14.0571C16.1874 2 17.9143 3.70018 17.9143 5.79747C17.9143 6.21693 17.5689 6.55696 17.1429 6.55696C16.7168 6.55696 16.3714 6.21693 16.3714 5.79747C16.3714 4.5391 15.3353 3.51899 14.0571 3.51899H9.94286Z" fill="#00ABB8"/>
<path fill-rule="evenodd" clip-rule="evenodd" d="M19.2 15.9607C19.2 19.2961 17.2301 22 14.8 22H9.20001C6.76996 22 4.80001 19.2961 4.80001 15.9607L4.8 8.32896C4.8 8.04932 5.03025 7.82278 5.31429 7.82278C5.31429 7.82278 17.6034 7.82278 18.1714 7.82278C18.7395 7.82278 19.2 8.27596 19.2 8.83523V15.9607ZM9.68571 12.8861C9.68572 12.4666 9.34034 12.1266 8.91429 12.1266C8.48824 12.1266 8.14286 12.4666 8.14286 12.8861L8.14284 16.9367C8.14284 17.3562 8.48822 17.6962 8.91427 17.6962C9.34031 17.6962 9.6857 17.3562 9.6857 16.9367L9.68571 12.8861ZM15.0857 12.1266C15.5118 12.1266 15.8571 12.4666 15.8571 12.8861V16.9367C15.8571 17.3562 15.5118 17.6962 15.0857 17.6962C14.6597 17.6962 14.3143 17.3562 14.3143 16.9367V12.8861C14.3143 12.4666 14.6597 12.1266 15.0857 12.1266ZM12.7714 12.8861C12.7714 12.4666 12.426 12.1266 12 12.1266C11.574 12.1266 11.2286 12.4666 11.2286 12.8861V16.9367C11.2286 17.3562 11.574 17.6962 12 17.6962C12.426 17.6962 12.7714 17.3562 12.7714 16.9367V12.8861Z" fill="#00ABB8"/>
</svg>
