<svg width="24" height="24" viewBox="0 0 24 24" fill="none" xmlns="http://www.w3.org/2000/svg">
<path fill-rule="evenodd" clip-rule="evenodd" d="M10 3.75C8.75736 3.75 7.75 4.75736 7.75 6C7.75 6.41421 7.41421 6.75 7 6.75C6.58579 6.75 6.25 6.41421 6.25 6C6.25 3.92893 7.92893 2.25 10 2.25H14C16.0711 2.25 17.75 3.92893 17.75 6C17.75 6.41421 17.4142 6.75 17 6.75C16.5858 6.75 16.25 6.41421 16.25 6C16.25 4.75736 15.2426 3.75 14 3.75H10ZM3.25 8C3.25 7.58579 3.58579 7.25 4 7.25H6.77333H9.94667H13.12H20C20.4142 7.25 20.75 7.58579 20.75 8C20.75 8.41421 20.4142 8.75 20 8.75H18.9748C18.9914 8.82618 19 8.90935 19 9V16.0362C19 19.3299 17.0848 22 14.7222 22H9.27779C6.91524 22 5.00001 19.3299 5.00001 16.0362V12.8657L5 8.75H4C3.58579 8.75 3.25 8.41421 3.25 8ZM9 12.25C9.41422 12.25 9.75 12.5858 9.75 13L9.74998 17C9.74998 17.4142 9.4142 17.75 8.99998 17.75C8.58577 17.75 8.24998 17.4142 8.24998 17L8.25 13C8.25 12.5858 8.58579 12.25 9 12.25ZM15.75 13C15.75 12.5858 15.4142 12.25 15 12.25C14.5858 12.25 14.25 12.5858 14.25 13V17C14.25 17.4142 14.5858 17.75 15 17.75C15.4142 17.75 15.75 17.4142 15.75 17V13ZM12 12.25C12.4142 12.25 12.75 12.5858 12.75 13V17C12.75 17.4142 12.4142 17.75 12 17.75C11.5858 17.75 11.25 17.4142 11.25 17V13C11.25 12.5858 11.5858 12.25 12 12.25Z" fill="#4E5964"/>
</svg>
