<svg width="24" height="25" viewBox="0 0 24 25" fill="none" xmlns="http://www.w3.org/2000/svg">
<path d="M7.75 6.27563C7.75 5.03299 8.75736 4.02563 10 4.02563H14C15.2426 4.02563 16.25 5.03299 16.25 6.27563C16.25 6.68985 16.5858 7.02563 17 7.02563C17.4142 7.02563 17.75 6.68985 17.75 6.27563C17.75 4.20457 16.0711 2.52563 14 2.52563H10C7.92893 2.52563 6.25 4.20457 6.25 6.27563C6.25 6.68985 6.58579 7.02563 7 7.02563C7.41421 7.02563 7.75 6.68985 7.75 6.27563Z" fill="#4E5964"/>
<path fill-rule="evenodd" clip-rule="evenodd" d="M3.25 8.27563C3.25 7.86142 3.58579 7.52563 4 7.52563H20C20.4142 7.52563 20.75 7.86142 20.75 8.27563C20.75 8.68985 20.4142 9.02563 20 9.02563H19.6567C19.7164 9.14593 19.75 9.2815 19.75 9.42491V17.7756C19.75 20.6751 17.3995 23.0256 14.5 23.0256H9.5C6.60051 23.0256 4.25 20.6751 4.25 17.7756V9.50024C4.25 9.32794 4.29471 9.16608 4.37317 9.02563H4C3.58579 9.02563 3.25 8.68985 3.25 8.27563ZM9.75 13.2756C9.75 12.8614 9.41422 12.5256 9 12.5256C8.58579 12.5256 8.25 12.8614 8.25 13.2756L8.24998 17.2756C8.24998 17.6898 8.58577 18.0256 8.99998 18.0256C9.4142 18.0256 9.74998 17.6899 9.74998 17.2756L9.75 13.2756ZM15 12.5256C15.4142 12.5256 15.75 12.8614 15.75 13.2756V17.2756C15.75 17.6898 15.4142 18.0256 15 18.0256C14.5858 18.0256 14.25 17.6898 14.25 17.2756V13.2756C14.25 12.8614 14.5858 12.5256 15 12.5256ZM12.75 13.2756C12.75 12.8614 12.4142 12.5256 12 12.5256C11.5858 12.5256 11.25 12.8614 11.25 13.2756V17.2756C11.25 17.6898 11.5858 18.0256 12 18.0256C12.4142 18.0256 12.75 17.6898 12.75 17.2756V13.2756Z" fill="#4E5964"/>
</svg>
