<svg width="24" height="24" viewBox="0 0 24 24" fill="none" xmlns="http://www.w3.org/2000/svg">
<path d="M20 7.25C20.4142 7.25 20.75 7.58579 20.75 8C20.75 8.41421 20.4142 8.75 20 8.75H19.6562C19.716 8.8703 19.75 9.006 19.75 9.14941V17.5C19.75 20.3995 17.3995 22.75 14.5 22.75H9.5C6.60051 22.75 4.25 20.3995 4.25 17.5V9.22461C4.25 9.05233 4.29461 8.89043 4.37305 8.75H4C3.58579 8.75 3.25 8.41421 3.25 8C3.25 7.58579 3.58579 7.25 4 7.25H20ZM9 12.25C8.58579 12.25 8.25 12.5858 8.25 13V17C8.25001 17.4142 8.58579 17.75 9 17.75C9.41421 17.75 9.75 17.4142 9.75 17V13C9.75 12.5858 9.41421 12.25 9 12.25ZM12 12.25C11.5858 12.25 11.25 12.5858 11.25 13V17C11.25 17.4142 11.5858 17.75 12 17.75C12.4142 17.75 12.75 17.4142 12.75 17V13C12.75 12.5858 12.4142 12.25 12 12.25ZM15 12.25C14.5858 12.25 14.25 12.5858 14.25 13V17C14.25 17.4142 14.5858 17.75 15 17.75C15.4142 17.75 15.75 17.4142 15.75 17V13C15.75 12.5858 15.4142 12.25 15 12.25ZM14 2.25C16.0711 2.25 17.75 3.92893 17.75 6C17.75 6.41421 17.4142 6.75 17 6.75C16.5858 6.75 16.25 6.41421 16.25 6C16.25 4.75736 15.2426 3.75 14 3.75H10C8.75736 3.75 7.75 4.75736 7.75 6C7.75 6.41421 7.41421 6.75 7 6.75C6.58579 6.75 6.25 6.41421 6.25 6C6.25 3.92893 7.92893 2.25 10 2.25H14Z" fill="#4E5964"/>
</svg>
