<svg width="24" height="24" viewBox="0 0 24 24" fill="none" xmlns="http://www.w3.org/2000/svg">
<path fill-rule="evenodd" clip-rule="evenodd" d="M10.2227 2.82835C11.2483 1.95956 12.7517 1.95956 13.7773 2.82835L14.2754 3.25023H18.5264C20.277 3.25044 21.5817 4.86461 21.2148 6.5764L20.416 10.301C21.1814 10.488 21.7498 11.1774 21.75 12.0002V14.5002H17.75C17.3359 14.5002 17.0002 14.8362 17 15.2502C17.0003 15.6642 17.3359 16.0002 17.75 16.0002H21.75V17.5998C21.7497 19.8916 19.8914 21.7502 17.5996 21.7502H6.40039C4.10857 21.7502 2.25026 19.8916 2.25 17.5998V16.0002H6.25C6.66405 16.0002 6.99974 15.6642 7 15.2502C6.99979 14.8362 6.66408 14.5002 6.25 14.5002H2.25V12.0002C2.25018 11.1777 2.81811 10.4883 3.58301 10.301L2.78516 6.5764C2.41835 4.86461 3.72303 3.25044 5.47363 3.25023H9.72461L10.2227 2.82835ZM12 13.2502C11.0336 13.2502 10.2502 14.0339 10.25 15.0002C10.2502 15.6977 10.6595 16.2983 11.25 16.5793V18.0002C11.2503 18.4142 11.5859 18.7502 12 18.7502C12.4141 18.7502 12.7497 18.4142 12.75 18.0002V16.5793C13.3405 16.2983 13.7498 15.6977 13.75 15.0002C13.7498 14.0339 12.9664 13.2502 12 13.2502ZM5.47363 4.75023C4.67805 4.75044 4.08533 5.48397 4.25195 6.26195L5.10645 10.2493H5.24805C5.24646 10.1642 5.25625 10.0776 5.28516 9.99242L5.28613 9.99144V9.98851C5.28662 9.9871 5.28744 9.98546 5.28809 9.98363C5.28953 9.9795 5.29174 9.97412 5.29395 9.968C5.29839 9.95565 5.30397 9.93894 5.31152 9.91918C5.3267 9.87949 5.3488 9.82526 5.37695 9.76097C5.43271 9.63365 5.51741 9.45888 5.63184 9.27367C5.83857 8.93915 6.24152 8.40783 6.88965 8.22875C7.26498 8.12517 7.58617 8.18203 7.75293 8.20824C7.93407 8.23669 7.96032 8.23384 7.99121 8.22582C7.99822 8.22399 7.99273 8.25397 8.12012 8.08128C8.2524 7.90194 8.51792 7.51941 9.08203 7.3723C9.4524 7.27577 9.76774 7.33138 9.93262 7.35668C10.1073 7.38347 10.138 7.38065 10.1709 7.3723C10.1884 7.35477 10.2101 7.32755 10.2822 7.22386C10.4204 7.02536 10.7083 6.6026 11.3379 6.50414L11.4746 6.48851C11.6117 6.47766 11.7452 6.48034 11.834 6.48363C11.8999 6.48607 11.9575 6.48938 11.999 6.49242C12.0094 6.49317 12.0189 6.49372 12.0273 6.49437C12.1786 6.47761 12.3127 6.47568 12.46 6.48851L12.6621 6.5139C13.2908 6.61203 13.5783 7.03334 13.7168 7.23168C13.7889 7.33495 13.8107 7.36179 13.8281 7.37914C13.8616 7.38767 13.8922 7.39028 14.0674 7.36351C14.2322 7.33831 14.5472 7.28311 14.917 7.37914C15.4811 7.52568 15.7474 7.90714 15.8799 8.08617C16.0059 8.25645 16.0006 8.22825 16.0078 8.22972C16.0394 8.23791 16.0662 8.24062 16.248 8.21214C16.4149 8.186 16.7348 8.12963 17.1094 8.23265C17.7574 8.41097 18.1611 8.94065 18.3682 9.27464C18.4827 9.45939 18.5672 9.63395 18.623 9.76097C18.6511 9.82479 18.6723 9.8787 18.6875 9.9182C18.6951 9.93802 18.7016 9.95464 18.7061 9.96703C18.7082 9.9731 18.7095 9.97853 18.7109 9.98265C18.7117 9.98472 18.7124 9.98697 18.7129 9.98851L18.7139 9.99046L18.7148 9.99144C18.7438 10.0766 18.7535 10.1642 18.752 10.2493H18.8936L19.748 6.26195C19.9147 5.48397 19.322 4.75044 18.5264 4.75023H5.47363ZM12.1162 8.00609C12.0207 8.02097 11.927 8.01502 11.8379 7.99535C11.8193 7.99436 11.7989 7.99321 11.7773 7.99242C11.6903 7.9892 11.6227 7.99199 11.5869 7.99535C11.5709 8.01523 11.553 8.04183 11.5215 8.08714C11.4074 8.25118 11.141 8.68016 10.5537 8.83324C10.1838 8.9296 9.86906 8.87515 9.7041 8.84984C9.52559 8.82246 9.49665 8.82444 9.46289 8.83324C9.45615 8.83452 9.46126 8.80657 9.33496 8.97777C9.20272 9.15705 8.93657 9.53962 8.37207 9.68675C7.99921 9.78389 7.68064 9.72493 7.51855 9.69945C7.34185 9.67168 7.31831 9.67657 7.29199 9.68382C7.21638 9.7047 7.07367 9.81245 6.91602 10.0676C6.87735 10.1302 6.84397 10.1924 6.81543 10.2493H17.1836C17.1553 10.1932 17.1221 10.132 17.084 10.0705C16.9268 9.8171 16.7851 9.70979 16.709 9.68871C16.682 9.6813 16.6586 9.67659 16.4814 9.70433C16.3194 9.72971 16.0005 9.78744 15.6279 9.69066C15.0645 9.5441 14.7985 9.16369 14.666 8.9846C14.539 8.81296 14.5446 8.84293 14.5371 8.84105C14.503 8.8322 14.4739 8.82946 14.2959 8.85668C14.131 8.88189 13.8161 8.93712 13.4463 8.84105C12.8592 8.68845 12.5937 8.25954 12.4795 8.09593C12.448 8.05086 12.4291 8.02582 12.4131 8.00609L12.4121 8.00414C12.2927 7.98623 12.2422 7.98645 12.1162 8.00609Z" fill="#4E5964"/>
</svg>
