<svg width="24" height="24" viewBox="0 0 24 24" fill="none" xmlns="http://www.w3.org/2000/svg">
<path fill-rule="evenodd" clip-rule="evenodd" d="M12 2.25C9.10412 2.25 7.46666 3.67156 6.59279 5.17797C5.94617 6.29264 5.72198 7.43799 5.65272 8.05505C5.62954 8.06427 5.60409 8.07426 5.57617 8.0851L5.48239 8.12129C5.18189 8.2369 4.74894 8.40347 4.31582 8.65058C3.82882 8.92843 3.30573 9.32636 2.90567 9.91912C2.50023 10.5198 2.24999 11.2783 2.25 12.2251C2.25001 12.989 2.42233 13.6268 2.73604 14.1447C3.04936 14.6619 3.47752 15.0162 3.92289 15.2543C4.78925 15.7175 5.7549 15.7602 6.25546 15.7484C6.39241 15.7452 6.49839 15.7403 6.59537 15.7357C6.71797 15.73 6.82616 15.7249 6.9643 15.7249H11.25V21C11.25 21.4142 11.5858 21.75 12 21.75C12.4142 21.75 12.75 21.4142 12.75 21V15.7249H17.0357C17.1738 15.7249 17.282 15.73 17.4047 15.7357C17.5016 15.7403 17.6076 15.7452 17.7445 15.7484C18.2451 15.7602 19.2108 15.7175 20.0771 15.2543C20.5225 15.0162 20.9507 14.6619 21.264 14.1447C21.5777 13.6268 21.75 12.989 21.75 12.2251C21.75 11.2783 21.4998 10.5198 21.0943 9.91912C20.6942 9.32636 20.1712 8.92843 19.6842 8.65058C19.251 8.40347 18.8181 8.23689 18.5176 8.12129L18.4238 8.0851C18.3959 8.07426 18.3705 8.06427 18.3473 8.05505C18.278 7.43799 18.0538 6.29264 17.4072 5.17797C16.5333 3.67156 14.8959 2.25 12 2.25ZM12.75 15.7249V13.4508L15.5432 10.5171C15.8288 10.2171 15.8172 9.74236 15.5172 9.45675C15.2172 9.17113 14.7424 9.18278 14.4568 9.48277L12.75 11.2755V10C12.75 9.58579 12.4142 9.25 12 9.25C11.5858 9.25 11.25 9.58579 11.25 10V15.7249H12.75Z" fill="#4E5964"/>
</svg>
