<svg width="24" height="24" viewBox="0 0 24 24" fill="none" xmlns="http://www.w3.org/2000/svg">
<path fill-rule="evenodd" clip-rule="evenodd" d="M6 2.84C6 2.37608 6.35346 2 6.78947 2H13.1053C14.704 2 16 3.37896 16 5.08V9H14.4211V5.08C14.4211 4.3068 13.832 3.68 13.1053 3.68H6.78947C6.35346 3.68 6 3.30392 6 2.84Z" fill="#4E5964"/>
<path fill-rule="evenodd" clip-rule="evenodd" d="M4 6C4 5.44772 4.35817 5 4.8 5H11.2C11.6418 5 12 5.44772 12 6C12 6.55228 11.6418 7 11.2 7H4.8C4.35817 7 4 6.55228 4 6Z" fill="#4E5964"/>
<path fill-rule="evenodd" clip-rule="evenodd" d="M7.84484 17.6364C7.50197 17.6364 7.17317 17.7801 6.93089 18.0359C6.56107 18.4258 6.4501 19.0125 6.65021 19.522C6.85032 20.0314 7.3218 20.3636 7.84484 20.3636C8.36789 20.3636 8.83937 20.0314 9.03948 19.522C9.23958 19.0125 9.12896 18.4261 8.75914 18.0362C8.51686 17.7805 8.18772 17.6364 7.84484 17.6364ZM5.83342 16.879C6.36674 16.3162 7.09033 16 7.84484 16C8.59936 16 9.32294 16.3162 9.85626 16.879C9.85623 16.879 9.85629 16.8791 9.85626 16.879M9.85626 16.879C9.85623 16.879 9.85629 16.8791 9.85626 16.879V16.879ZM9.85626 16.879C10.6697 17.7369 10.9133 19.0274 10.4731 20.1482C10.0328 21.2692 8.99542 22 7.84484 22C6.69426 22 5.65693 21.2692 5.21661 20.1482C4.77635 19.0274 5.02003 17.7369 5.83342 16.879M17.1552 17.6364C16.8123 17.6364 16.4835 17.7801 16.2412 18.0359C15.8714 18.4258 15.7604 19.0125 15.9605 19.522C16.1606 20.0314 16.6321 20.3636 17.1552 20.3636C17.6782 20.3636 18.1497 20.0314 18.3498 19.522C18.5499 19.0125 18.4393 18.4261 18.0695 18.0362C17.8272 17.7805 17.498 17.6364 17.1552 17.6364ZM15.1437 16.879C15.6771 16.3162 16.4006 16 17.1552 16C17.9097 16 18.6333 16.3162 19.1666 16.879C19.9802 17.7369 20.2237 19.0272 19.7834 20.1482C19.3431 21.2692 18.3057 22 17.1552 22C16.0046 22 14.9672 21.2692 14.5269 20.1482C14.0866 19.0272 14.3301 17.7369 15.1437 16.879Z" fill="#4E5964"/>
<path fill-rule="evenodd" clip-rule="evenodd" d="M20.7143 11.8571L19 9.00001L13 9V11.8571L20.7143 11.8571ZM21 14.7143L3 14.7143V16.1429C3 17.7208 4.34314 19 6 19L5.5 17.5714L7.5 17.0952H9.5L10.5 18.0476H15L16.5 16.1428H17.5L19 18.0476V19H20C20.5523 19 21 18.5736 21 18.0476V14.7143Z" fill="#4E5964"/>
<path fill-rule="evenodd" clip-rule="evenodd" d="M12.4817 8.21967C12.626 8.07902 12.8216 8 13.0256 8L19.1795 8.00001C19.4555 8.00001 19.7104 8.14422 19.8474 8.3779L21.6056 11.3779C21.7417 11.61 21.7407 11.8952 21.603 12.1264C21.4654 12.3577 21.2119 12.5 20.9377 12.5L13.0256 12.5C12.8216 12.5 12.626 12.421 12.4817 12.2803C12.3375 12.1397 12.2564 11.9489 12.2564 11.75V8.75C12.2564 8.55109 12.3375 8.36032 12.4817 8.21967ZM13.7949 9.5V11L19.6122 11L18.7331 9.5L13.7949 9.5ZM2.76923 14L21.2308 14C21.4348 14 21.6304 14.079 21.7747 14.2197C21.919 14.3603 22 14.5511 22 14.75V18.25C22 19.2165 21.1964 20 20.2051 20H19.1795C18.7547 20 18.4103 19.6642 18.4103 19.25V18.5L17.2564 17H17L15.6923 18.7C15.547 18.8888 15.319 19 15.0769 19H10.4615C10.2575 19 10.0619 18.921 9.91761 18.7803L9.11727 18H7.47931L6.32577 18.2812L6.57591 19.0128C6.6541 19.2415 6.61476 19.493 6.47019 19.6885C6.32561 19.8841 6.09342 20 5.84615 20C3.72198 20 2 18.3211 2 16.25V14.75C2 14.3358 2.3444 14 2.76923 14ZM3.53846 15.5V16.25C3.53846 17.0746 3.99346 17.7957 4.67204 18.1874L4.60358 17.9872C4.53582 17.789 4.55592 17.5722 4.65902 17.3891C4.76213 17.206 4.9389 17.073 5.14677 17.0224L7.19805 16.5224C7.25907 16.5075 7.32172 16.5 7.38462 16.5H9.4359C9.63991 16.5 9.83557 16.579 9.97983 16.7197L10.7802 17.5H14.6923L16 15.8C16.1453 15.6111 16.3733 15.5 16.6154 15.5L3.53846 15.5ZM20.4615 15.5L17.641 15.5C17.8831 15.5 18.1111 15.6111 18.2564 15.8L19.7949 17.8C19.8947 17.9298 19.9487 18.0877 19.9487 18.25V18.5H20.2051C20.3467 18.5 20.4615 18.3881 20.4615 18.25V15.5Z" fill="#4E5964"/>
<path fill-rule="evenodd" clip-rule="evenodd" d="M2 9C2 8.44772 2.29848 8 2.66667 8H5.33333C5.70152 8 6 8.44772 6 9C6 9.55228 5.70152 10 5.33333 10H2.66667C2.29848 10 2 9.55228 2 9Z" fill="#4E5964"/>
</svg>
