<svg width="24" height="24" viewBox="0 0 24 24" fill="none" xmlns="http://www.w3.org/2000/svg">
<path fill-rule="evenodd" clip-rule="evenodd" d="M17.9141 17.5862C18.4861 18.1581 18.6573 19.0182 18.3477 19.7655C18.0382 20.5128 17.3089 21 16.5 21C15.6911 21 14.9618 20.5128 14.6523 19.7655C14.3427 19.0182 14.5139 18.1581 15.0859 17.5862C15.4608 17.2109 15.9695 17 16.5 17C17.0305 17 17.5392 17.2109 17.9141 17.5862Z" stroke="#4E5964" stroke-width="1.5" stroke-linecap="round" stroke-linejoin="round"/>
<path fill-rule="evenodd" clip-rule="evenodd" d="M8.9141 17.5862C9.48612 18.1581 9.65727 19.0182 9.34772 19.7655C9.03818 20.5128 8.30892 21 7.5 21C6.69108 21 5.96182 20.5128 5.65228 19.7655C5.34273 19.0182 5.51388 18.1581 6.0859 17.5862C6.46079 17.2109 6.96952 17 7.5 17C8.03048 17 8.53921 17.2109 8.9141 17.5862Z" stroke="#4E5964" stroke-width="1.5" stroke-linecap="round" stroke-linejoin="round"/>
<path d="M14.5 19.75L15.25 19.75L15.25 18.25L14.5 18.25L14.5 19.75ZM9.5 19.75L14.5 19.75L14.5 18.25L9.5 18.25L9.5 19.75Z" fill="#4E5964"/>
<path d="M6.5 2.25C6.08579 2.25 5.75 2.58579 5.75 3C5.75 3.41421 6.08579 3.75 6.5 3.75V2.25ZM15.25 8.5V5H13.75V8.5H15.25ZM12.5 2.25H6.5V3.75H12.5V2.25ZM15.25 5C15.25 3.48122 14.0188 2.25 12.5 2.25V3.75C13.1904 3.75 13.75 4.30964 13.75 5H15.25Z" fill="#4E5964"/>
<path d="M10.5 6H4.5" stroke="#4E5964" stroke-width="1.5" stroke-linecap="round"/>
<path fill-rule="evenodd" clip-rule="evenodd" d="M20.2143 11.5L18.5 8.50001L12.5 8.5V11.5L20.2143 11.5ZM20.5 14.5L2.5 14.5V16C2.5 17.6569 3.84314 19 5.5 19L5 17.5L7 17H9L10 18H14.5L16 16H17L18.5 18V19H19.5C20.0523 19 20.5 18.5523 20.5 18V14.5Z" fill="#4E5964"/>
<path d="M18.5 8.50001L19.1512 8.1279C19.0177 7.89422 18.7691 7.75001 18.5 7.75001V8.50001ZM20.2143 11.5V12.25C20.4816 12.25 20.7288 12.1077 20.863 11.8764C20.9972 11.6452 20.9981 11.36 20.8655 11.1279L20.2143 11.5ZM12.5 8.5L12.5 7.75C12.3011 7.75 12.1103 7.82902 11.9697 7.96967C11.829 8.11032 11.75 8.30109 11.75 8.5H12.5ZM12.5 11.5H11.75C11.75 11.6989 11.829 11.8897 11.9697 12.0303C12.1103 12.171 12.3011 12.25 12.5 12.25V11.5ZM20.5 14.5H21.25C21.25 14.3011 21.171 14.1103 21.0303 13.9697C20.8897 13.829 20.6989 13.75 20.5 13.75V14.5ZM2.5 14.5L2.5 13.75C2.08579 13.75 1.75 14.0858 1.75 14.5H2.5ZM5.5 19L5.5 19.75C5.74108 19.75 5.96747 19.6341 6.10843 19.4385C6.2494 19.243 6.28775 18.9916 6.21151 18.7628L5.5 19ZM5 17.5L4.8181 16.7724C4.61543 16.8231 4.44308 16.956 4.34255 17.1391C4.24202 17.3222 4.22243 17.539 4.28849 17.7372L5 17.5ZM7 17V16.25C6.93868 16.25 6.87759 16.2575 6.8181 16.2724L7 17ZM9 17L9.53033 16.4697C9.38968 16.329 9.19891 16.25 9 16.25V17ZM10 18L9.46967 18.5303C9.61032 18.671 9.80109 18.75 10 18.75V18ZM14.5 18V18.75C14.7361 18.75 14.9584 18.6389 15.1 18.45L14.5 18ZM16 16V15.25C15.7639 15.25 15.5416 15.3611 15.4 15.55L16 16ZM17 16L17.6 15.55C17.4584 15.3611 17.2361 15.25 17 15.25V16ZM18.5 18H19.25C19.25 17.8377 19.1974 17.6798 19.1 17.55L18.5 18ZM18.5 19H17.75C17.75 19.4142 18.0858 19.75 18.5 19.75V19ZM17.8488 8.87211L19.5631 11.8721L20.8655 11.1279L19.1512 8.1279L17.8488 8.87211ZM12.5 9.25L18.5 9.25001L18.5 7.75001L12.5 7.75L12.5 9.25ZM13.25 11.5V8.5H11.75V11.5H13.25ZM12.5 12.25L20.2143 12.25V10.75L12.5 10.75V12.25ZM20.5 13.75L2.5 13.75L2.5 15.25L20.5 15.25V13.75ZM3.25 16V14.5H1.75V16H3.25ZM5.5 18.25C4.25736 18.25 3.25 17.2426 3.25 16H1.75C1.75 18.0711 3.42893 19.75 5.5 19.75L5.5 18.25ZM4.28849 17.7372L4.78849 19.2372L6.21151 18.7628L5.71151 17.2628L4.28849 17.7372ZM6.8181 16.2724L4.8181 16.7724L5.1819 18.2276L7.1819 17.7276L6.8181 16.2724ZM9 16.25H7V17.75H9V16.25ZM10.5303 17.4697L9.53033 16.4697L8.46967 17.5303L9.46967 18.5303L10.5303 17.4697ZM14.5 17.25H10V18.75H14.5V17.25ZM15.4 15.55L13.9 17.55L15.1 18.45L16.6 16.45L15.4 15.55ZM17 15.25H16V16.75H17V15.25ZM19.1 17.55L17.6 15.55L16.4 16.45L17.9 18.45L19.1 17.55ZM19.25 19V18H17.75V19H19.25ZM19.5 18.25H18.5V19.75H19.5V18.25ZM19.75 18C19.75 18.1381 19.6381 18.25 19.5 18.25V19.75C20.4665 19.75 21.25 18.9665 21.25 18H19.75ZM19.75 14.5V18H21.25V14.5H19.75Z" fill="#4E5964"/>
<path d="M5.5 9H2.5" stroke="#4E5964" stroke-width="1.5" stroke-linecap="round"/>
</svg>
