<svg width="24" height="25" viewBox="0 0 24 25" fill="none" xmlns="http://www.w3.org/2000/svg">
<path fill-rule="evenodd" clip-rule="evenodd" d="M6.99219 2.53076C6.57797 2.53076 6.24219 2.86655 6.24219 3.28076C6.24219 3.69498 6.57797 4.03076 6.99219 4.03076H13.0007C13.691 4.03076 14.2507 4.59041 14.2507 5.28076V7.98584L13 7.98584C12.8011 7.98584 12.6103 8.06486 12.4697 8.20551C12.329 8.34616 12.25 8.53693 12.25 8.73584V12.502L3 12.502C2.80109 12.502 2.61032 12.581 2.46967 12.7217C2.32902 12.8623 2.25 13.0531 2.25 13.252V16.7736C2.25 18.5191 3.62591 19.943 5.35267 20.0203C5.3818 20.1241 5.41721 20.2269 5.45902 20.3282C5.88397 21.3577 6.88621 22.031 8.00001 22.031C9.11382 22.031 10.1161 21.3577 10.541 20.3282C10.5823 20.228 10.6174 20.1264 10.6464 20.0238H14.3536C14.3826 20.1264 14.4177 20.228 14.459 20.3282C14.884 21.3577 15.8862 22.031 17 22.031C18.1138 22.031 19.1161 21.3577 19.541 20.3282C19.6154 20.1479 19.6696 19.9629 19.7041 19.776C19.7235 19.7864 19.7433 19.7964 19.7633 19.806C20.0987 19.9658 20.5516 20.0074 20.9657 19.7331C21.4368 19.4211 21.75 18.8841 21.75 18.2736V12.2484C21.75 12.1183 21.7161 11.9904 21.6518 11.8773L19.6518 8.36475C19.5184 8.1305 19.2696 7.98585 19 7.98585L15.7507 7.98584V5.28076C15.7507 3.76198 14.5194 2.53076 13.0007 2.53076H6.99219ZM20.25 12.502H13.75V9.48584L18.564 9.48584L20.25 12.447V12.502ZM7.11748 18.384C7.35189 18.1485 7.66944 18.0166 8.00001 18.0166C8.33059 18.0166 8.64847 18.1488 8.88289 18.3843C9.24099 18.7436 9.34877 19.2851 9.15447 19.7559C8.96034 20.2262 8.50405 20.531 8.00001 20.531C7.49598 20.531 7.03969 20.2262 6.84556 19.7559C6.65126 19.2851 6.75937 18.7433 7.11748 18.384ZM16.1175 18.384C16.3519 18.1485 16.6694 18.0166 17 18.0166C17.3306 18.0166 17.6485 18.1488 17.8829 18.3843C18.241 18.7436 18.3488 19.2851 18.1545 19.7559C17.9603 20.2262 17.504 20.531 17 20.531C16.496 20.531 16.0397 20.2262 15.8456 19.7559C15.6513 19.2851 15.7594 18.7433 16.1175 18.384Z" fill="#4E5964"/>
<path d="M4.25 6.22705C4.25 5.81284 4.58579 5.47705 5 5.47705H11C11.4142 5.47705 11.75 5.81284 11.75 6.22705C11.75 6.64126 11.4142 6.97705 11 6.97705H5C4.58579 6.97705 4.25 6.64126 4.25 6.22705Z" fill="#4E5964"/>
<path d="M3 8.48779C2.58579 8.48779 2.25 8.82358 2.25 9.23779C2.25 9.65201 2.58579 9.98779 3 9.98779H6C6.41421 9.98779 6.75 9.65201 6.75 9.23779C6.75 8.82358 6.41421 8.48779 6 8.48779H3Z" fill="#4E5964"/>
</svg>
