<svg width="24" height="24" viewBox="0 0 24 24" fill="none" xmlns="http://www.w3.org/2000/svg">
<path fill-rule="evenodd" clip-rule="evenodd" d="M6.99219 2.25024C6.57797 2.25024 6.24219 2.58603 6.24219 3.00024C6.24219 3.41446 6.57797 3.75024 6.99219 3.75024H13.0007C13.691 3.75024 14.2507 4.30989 14.2507 5.00024V7.70532L13 7.70532C12.8011 7.70532 12.6103 7.78434 12.4697 7.92499C12.329 8.06564 12.25 8.25641 12.25 8.45532V12.2215L3 12.2215C2.80109 12.2215 2.61032 12.3005 2.46967 12.4412C2.32902 12.5818 2.25 12.7726 2.25 12.9715V16.4931C2.25 18.2386 3.62591 19.6625 5.35267 19.7398C5.3818 19.8435 5.41721 19.9464 5.45902 20.0476C5.88397 21.0772 6.88621 21.7505 8.00001 21.7505C9.11382 21.7505 10.1161 21.0772 10.541 20.0476C10.5823 19.9475 10.6174 19.8459 10.6464 19.7433H14.3536C14.3826 19.8459 14.4177 19.9475 14.459 20.0476C14.884 21.0772 15.8862 21.7505 17 21.7505C18.1138 21.7505 19.1161 21.0772 19.541 20.0476C19.6154 19.8674 19.6696 19.6824 19.7041 19.4955C19.7235 19.5059 19.7433 19.5159 19.7633 19.5255C20.0987 19.6853 20.5516 19.7269 20.9657 19.4526C21.4368 19.1406 21.75 18.6036 21.75 17.9931V11.9679C21.75 11.8378 21.7161 11.7099 21.6518 11.5968L19.6518 8.08423C19.5184 7.84998 19.2696 7.70533 19 7.70533L15.7507 7.70532V5.00024C15.7507 3.48146 14.5194 2.25024 13.0007 2.25024H6.99219ZM20.25 12.2214H13.75V9.20532L18.564 9.20533L20.25 12.1665V12.2214ZM7.11748 18.1034C7.35189 17.8679 7.66944 17.7361 8.00001 17.7361C8.33059 17.7361 8.64847 17.8683 8.88289 18.1038C9.24099 18.4631 9.34877 19.0046 9.15447 19.4754C8.96034 19.9457 8.50405 20.2505 8.00001 20.2505C7.49598 20.2505 7.03969 19.9457 6.84556 19.4754C6.65126 19.0046 6.75937 18.4628 7.11748 18.1034ZM16.1175 18.1034C16.3519 17.8679 16.6694 17.7361 17 17.7361C17.3306 17.7361 17.6485 17.8683 17.8829 18.1038C18.241 18.4631 18.3488 19.0046 18.1545 19.4754C17.9603 19.9457 17.504 20.2505 17 20.2505C16.496 20.2505 16.0397 19.9457 15.8456 19.4754C15.6513 19.0046 15.7594 18.4628 16.1175 18.1034Z" fill="#4E5964"/>
<path d="M4.25 5.94653C4.25 5.53232 4.58579 5.19653 5 5.19653H11C11.4142 5.19653 11.75 5.53232 11.75 5.94653C11.75 6.36075 11.4142 6.69653 11 6.69653H5C4.58579 6.69653 4.25 6.36075 4.25 5.94653Z" fill="#4E5964"/>
<path d="M3 8.20728C2.58579 8.20728 2.25 8.54306 2.25 8.95728C2.25 9.37149 2.58579 9.70728 3 9.70728H6C6.41421 9.70728 6.75 9.37149 6.75 8.95728C6.75 8.54306 6.41421 8.20728 6 8.20728H3Z" fill="#4E5964"/>
</svg>
