<svg width="24" height="24" viewBox="0 0 24 24" fill="none" xmlns="http://www.w3.org/2000/svg">
<path fill-rule="evenodd" clip-rule="evenodd" d="M6 2.84C6 2.37608 6.35346 2 6.78947 2H13.1053C14.704 2 16 3.37896 16 5.08V8H14.4211V5.08C14.4211 4.3068 13.832 3.68 13.1053 3.68H6.78947C6.35346 3.68 6 3.30392 6 2.84Z" fill="#4E5964"/>
<path fill-rule="evenodd" clip-rule="evenodd" d="M4 6C4 5.44772 4.35817 5 4.8 5H11.2C11.6418 5 12 5.44772 12 6C12 6.55228 11.6418 7 11.2 7H4.8C4.35817 7 4 6.55228 4 6Z" fill="#4E5964"/>
<path fill-rule="evenodd" clip-rule="evenodd" d="M7.84484 17.6364C7.50197 17.6364 7.17317 17.7801 6.93089 18.0359C6.56107 18.4258 6.4501 19.0125 6.65021 19.522C6.85032 20.0314 7.3218 20.3636 7.84484 20.3636C8.36789 20.3636 8.83937 20.0314 9.03948 19.522C9.23958 19.0125 9.12896 18.4261 8.75914 18.0362C8.51686 17.7805 8.18772 17.6364 7.84484 17.6364ZM5.83513 16.8546C6.36845 16.2918 7.09033 16 7.84484 16C8.59936 16 9.32294 16.3162 9.85626 16.879M9.85626 16.879C10.6697 17.7369 10.9133 19.0274 10.4731 20.1482C10.0328 21.2692 8.99542 22 7.84484 22C6.69426 22 5.65693 21.2692 5.21661 20.1482C4.77463 19.0199 5.01913 17.7014 5.83513 16.8546M17.1552 17.6364C16.8123 17.6364 16.4835 17.7801 16.2412 18.0359C15.8714 18.4258 15.7604 19.0125 15.9605 19.522C16.1606 20.0314 16.6321 20.3636 17.1552 20.3636C17.6782 20.3636 18.1497 20.0314 18.3498 19.522C18.5499 19.0125 18.4393 18.4261 18.0695 18.0362C17.8272 17.7805 17.498 17.6364 17.1552 17.6364ZM15.1437 16.879C15.6771 16.3162 16.4006 16 17.1552 16C17.9162 16.0008 18.6709 16.3225 19.1666 16.879C20.011 17.7341 20.2443 19.0253 19.7834 20.1482C19.3431 21.2692 18.3057 22 17.1552 22C16.0046 22 14.9672 21.2692 14.5269 20.1482C14.0866 19.0272 14.3301 17.7369 15.1437 16.879Z" fill="#4E5964"/>
<path fill-rule="evenodd" clip-rule="evenodd" d="M12.4817 8.21967C12.626 8.07902 12.8216 8 13.0256 8L19.1795 8.00001C19.4555 8.00001 19.7104 8.14422 19.8474 8.3779L21.6056 11.3779C21.7417 11.61 21.7407 11.8952 21.603 12.1264C21.4654 12.3577 21.2119 12.5 20.9377 12.5L13.0256 12.5C12.8216 12.5 12.626 12.421 12.4817 12.2803C12.3375 12.1397 12.2564 11.9489 12.2564 11.75V8.75C12.2564 8.55109 12.3375 8.36032 12.4817 8.21967ZM2.76923 14L21.2308 14C21.4348 14 21.6304 14.079 21.7747 14.2197C21.919 14.3603 22 14.5511 22 14.75V16.5V18.25C22 19.2165 21.1964 20 20.2051 20H19.8373C20 19.5 20.0348 19.0361 19.9959 18.6216L19.919 18.2088L19.7834 17.8059C19.6251 17.4555 19.5208 17.2703 19.2751 17C19.015 16.6815 18.8093 16.5101 18.2564 16.234C17.7837 16.0474 17.5044 15.9908 16.995 16.0106C15.9652 16.0924 15.264 16.5713 14.6923 17.5C14.3103 18.2366 14.3064 18.9761 14.3103 19H10.6896C10.6398 18.6607 10.6063 18.1874 10.5223 17.9872C10.1281 17.0463 9.76103 16.6903 8.95209 16.2367C8.35858 15.9978 8.01775 15.964 7.38462 16.0395C7.38462 16.0395 6.65896 16.2323 6.27266 16.5C5.8903 16.765 5.76845 16.8821 5.45761 17.3688C5.14677 17.8555 5.11152 18.2838 5.04006 18.5C5.20867 17.8624 4.74401 18.9186 5.21661 20.1482C3.09244 20.1482 2 18.3211 2 16.25V14.75C2 14.3358 2.3444 14 2.76923 14Z" fill="#4E5964"/>
<path fill-rule="evenodd" clip-rule="evenodd" d="M2 9C2 8.44772 2.29848 8 2.66667 8H5.33333C5.70152 8 6 8.44772 6 9C6 9.55228 5.70152 10 5.33333 10H2.66667C2.29848 10 2 9.55228 2 9Z" fill="#4E5964"/>
</svg>
