<svg width="24" height="24" viewBox="0 0 24 24" fill="none" xmlns="http://www.w3.org/2000/svg">
<path fill-rule="evenodd" clip-rule="evenodd" d="M6.99219 2.25C6.57797 2.25 6.24219 2.58579 6.24219 3C6.24219 3.41421 6.57797 3.75 6.99219 3.75H13.0007C13.691 3.75 14.2507 4.30964 14.2507 5V7.70508L13 7.70508C12.8011 7.70508 12.6103 7.7841 12.4697 7.92475C12.329 8.0654 12.25 8.25617 12.25 8.45508V12.2213L3 12.2212C2.80109 12.2212 2.61032 12.3003 2.46967 12.4409C2.32902 12.5816 2.25 12.7723 2.25 12.9712V16.4928C2.25 18.2384 3.62591 19.6623 5.35267 19.7395C5.3818 19.8433 5.41721 19.9461 5.45902 20.0474C5.88397 21.077 6.88621 21.7502 8.00001 21.7502C9.11382 21.7502 10.1161 21.077 10.541 20.0474C10.5823 19.9472 10.6174 19.8456 10.6464 19.743H14.3536C14.3826 19.8456 14.4177 19.9472 14.459 20.0474C14.884 21.077 15.8862 21.7502 17 21.7502C18.1138 21.7502 19.1161 21.077 19.541 20.0474C19.6154 19.8672 19.6696 19.6821 19.7041 19.4953C19.7235 19.5057 19.7433 19.5157 19.7633 19.5252C20.0987 19.6851 20.5516 19.7267 20.9657 19.4524C21.4368 19.1403 21.75 18.6033 21.75 17.9928V11.9677C21.75 11.8375 21.7161 11.7096 21.6518 11.5966L19.6518 8.08398C19.5184 7.84974 19.2696 7.70508 19 7.70508L15.7507 7.70508V5C15.7507 3.48122 14.5194 2.25 13.0007 2.25H6.99219ZM20.25 12.2212H13.75V9.20508L18.564 9.20508L20.25 12.1662V12.2212ZM7.11748 18.1032C7.35189 17.8677 7.66944 17.7358 8.00001 17.7358C8.33059 17.7358 8.64847 17.868 8.88289 18.1035C9.24099 18.4629 9.34877 19.0044 9.15447 19.4751C8.96034 19.9455 8.50405 20.2502 8.00001 20.2502C7.49598 20.2502 7.03969 19.9455 6.84556 19.4751C6.65126 19.0044 6.75937 18.4625 7.11748 18.1032ZM16.1175 18.1032C16.3519 17.8677 16.6694 17.7358 17 17.7358C17.3306 17.7358 17.6485 17.868 17.8829 18.1035C18.241 18.4629 18.3488 19.0044 18.1545 19.4751C17.9603 19.9455 17.504 20.2502 17 20.2502C16.496 20.2502 16.0397 19.9455 15.8456 19.4751C15.6513 19.0044 15.7594 18.4625 16.1175 18.1032Z" fill="#4E5964"/>
<path d="M4.25 5.94629C4.25 5.53208 4.58579 5.19629 5 5.19629H11C11.4142 5.19629 11.75 5.53208 11.75 5.94629C11.75 6.3605 11.4142 6.69629 11 6.69629H5C4.58579 6.69629 4.25 6.3605 4.25 5.94629Z" fill="#4E5964"/>
<path d="M3 8.20703C2.58579 8.20703 2.25 8.54282 2.25 8.95703C2.25 9.37124 2.58579 9.70703 3 9.70703H6C6.41421 9.70703 6.75 9.37124 6.75 8.95703C6.75 8.54282 6.41421 8.20703 6 8.20703H3Z" fill="#4E5964"/>
</svg>
