<svg width="24" height="24" viewBox="0 0 24 24" fill="none" xmlns="http://www.w3.org/2000/svg">
<path d="M10.2041 5.25C11.2344 6.14211 12.7656 6.14211 13.7959 5.25H16.5C19.3995 5.25 21.75 7.6005 21.75 10.5V16.5C21.75 19.3995 19.3995 21.75 16.5 21.75H7.5C4.60053 21.75 2.25005 19.3995 2.25 16.5V10.5C2.25 7.6005 4.60051 5.25 7.5 5.25H10.2041ZM12.918 9.25C12.5039 9.25018 12.168 9.58589 12.168 10V17C12.168 17.4141 12.5039 17.7498 12.918 17.75H16.0293C17.3024 17.7498 18.335 16.7175 18.335 15.4443V11.5557C18.335 10.2825 17.3024 9.25022 16.0293 9.25H12.918ZM8.58398 9.25C8.30165 9.25012 8.04753 9.40871 7.91992 9.65332L7.87305 9.7627L5.53906 16.7627C5.40808 17.1557 5.62071 17.5809 6.01367 17.7119C6.40653 17.8427 6.83194 17.6301 6.96289 17.2373L7.44043 15.8057H9.72852L10.2061 17.2373C10.3371 17.6301 10.7624 17.8429 11.1553 17.7119C11.5478 17.5807 11.7597 17.1554 11.6289 16.7627L9.2959 9.7627C9.19383 9.45662 8.90661 9.25017 8.58398 9.25ZM16.0293 10.75C16.474 10.7502 16.835 11.1109 16.835 11.5557V15.4443C16.835 15.8891 16.474 16.2498 16.0293 16.25H13.668V10.75H16.0293ZM9.22852 14.3057H7.94043L8.58398 12.3711L9.22852 14.3057ZM14.4697 2.46973C14.7626 2.17683 15.2374 2.17683 15.5303 2.46973C15.8232 2.76262 15.8232 3.23738 15.5303 3.53027L13.9443 5.11621C13.8968 5.16371 13.8459 5.2067 13.7959 5.25C12.7656 6.14211 11.2344 6.14211 10.2041 5.25C10.1541 5.2067 10.1032 5.16371 10.0557 5.11621L8.46973 3.53027C8.17684 3.23738 8.17685 2.76262 8.46973 2.46973C8.76262 2.17683 9.23738 2.17683 9.53027 2.46973L11.1162 4.05566C11.6043 4.5436 12.3957 4.5436 12.8838 4.05566L14.4697 2.46973Z" fill="#4E5964"/>
</svg>
