<svg width="24" height="24" viewBox="0 0 24 24" fill="none" xmlns="http://www.w3.org/2000/svg">
<path d="M10.2041 5.24994C11.2344 6.14207 12.7656 6.14207 13.7959 5.24994H16.5C19.3995 5.24994 21.75 7.60045 21.75 10.4999V16.4999C21.75 19.3994 19.3995 21.7499 16.5 21.7499H7.5C4.60052 21.7499 2.25003 19.3994 2.25 16.4999V10.4999C2.25 7.60045 4.60051 5.24994 7.5 5.24994H10.2041ZM7.77441 9.49994C7.59042 9.49994 7.47006 9.5839 7.41406 9.7519L5.51758 16.9638C5.4696 17.1318 5.51812 17.2158 5.66211 17.2158H6.81445C6.89421 17.2157 6.95048 17.1999 6.98242 17.1679C7.02232 17.1279 7.05043 17.0597 7.06641 16.9638L7.40234 15.6435H9.74219L10.0781 16.9638C10.0941 17.0598 10.1184 17.1279 10.1504 17.1679C10.1824 17.1998 10.2423 17.2158 10.3301 17.2158H11.4824C11.6261 17.2156 11.6739 17.1316 11.626 16.9638L9.73047 9.7519C9.69048 9.58393 9.57005 9.49998 9.37012 9.49994H7.77441ZM12.9414 9.49994C12.7736 9.50004 12.6895 9.58399 12.6895 9.7519V16.9638C12.6895 17.1317 12.7736 17.2157 12.9414 17.2158H15.9053C16.5292 17.2158 17.0134 17.0478 17.3574 16.7119C17.7094 16.3679 17.8857 15.8837 17.8857 15.2597V11.456C17.8857 10.832 17.7094 10.3516 17.3574 10.0156C17.0134 9.67176 16.5291 9.49994 15.9053 9.49994H12.9414ZM15.6533 10.8203C15.9093 10.8203 16.0894 10.8762 16.1934 10.9882C16.3054 11.0922 16.3613 11.2723 16.3613 11.5283V15.1874C16.3613 15.4434 16.3054 15.6282 16.1934 15.7402C16.0893 15.844 15.9091 15.8955 15.6533 15.8955H14.3457C14.2577 15.8955 14.2139 15.8516 14.2139 15.7636V10.9521C14.2139 10.8641 14.2577 10.8203 14.3457 10.8203H15.6533ZM8.60156 10.9521L9.46582 14.4199H7.69043L8.55371 10.9521H8.60156ZM14.4697 2.46967C14.7626 2.17678 15.2374 2.17678 15.5303 2.46967C15.8232 2.76256 15.8232 3.23732 15.5303 3.53022L13.9443 5.11615C13.8968 5.16366 13.8459 5.20664 13.7959 5.24994H10.2041C10.1541 5.20664 10.1032 5.16366 10.0557 5.11615L8.46973 3.53022C8.17683 3.23732 8.17683 2.76256 8.46973 2.46967C8.76262 2.17678 9.23738 2.17678 9.53027 2.46967L11.1162 4.05561C11.6043 4.54356 12.3957 4.54356 12.8838 4.05561L14.4697 2.46967Z" fill="#4E5964"/>
</svg>
