<svg width="24" height="24" viewBox="0 0 24 24" fill="none" xmlns="http://www.w3.org/2000/svg">
<path d="M7.83182 9.4625C6.93749 9.4625 6.2125 10.1875 6.2125 11.0818V15.9182C6.2125 16.8125 6.93749 17.5375 7.83182 17.5375H13.6682C14.5625 17.5375 15.2875 16.8125 15.2875 15.9182V11.0818C15.2875 10.1875 14.5625 9.4625 13.6682 9.4625H7.83182Z" fill="#4E5964"/>
<path fill-rule="evenodd" clip-rule="evenodd" d="M15.5303 3.53033C15.8232 3.23744 15.8232 2.76256 15.5303 2.46967C15.2374 2.17678 14.7626 2.17678 14.4697 2.46967L12.1768 4.76256C12.0791 4.86019 11.9209 4.86019 11.8232 4.76256L10.5303 3.46967C10.2374 3.17678 9.76256 3.17678 9.46967 3.46967C9.17678 3.76256 9.17678 4.23744 9.46967 4.53033L10.1893 5.25H7C4.37665 5.25 2.25 7.37665 2.25 10V17C2.25 19.6234 4.37665 21.75 7 21.75H17C19.6234 21.75 21.75 19.6234 21.75 17V10C21.75 7.37665 19.6234 5.25 17 5.25H13.8107L15.5303 3.53033ZM19.0303 9.96467C18.7374 9.67178 18.2626 9.67178 17.9697 9.96467L17.9647 9.96967C17.6718 10.2626 17.6718 10.7374 17.9647 11.0303L17.9697 11.0353C18.2626 11.3282 18.7374 11.3282 19.0303 11.0353L19.0353 11.0303C19.3282 10.7374 19.3282 10.2626 19.0353 9.96967L19.0303 9.96467ZM17.9697 11.9647C18.2626 11.6718 18.7374 11.6718 19.0303 11.9647L19.0353 11.9697C19.3282 12.2626 19.3282 12.7374 19.0353 13.0303L19.0303 13.0353C18.7374 13.3282 18.2626 13.3282 17.9697 13.0353L17.9647 13.0303C17.6718 12.7374 17.6718 12.2626 17.9647 11.9697L17.9697 11.9647ZM19.25 16.001V15C19.25 14.5858 18.9142 14.25 18.5 14.25C18.0858 14.25 17.75 14.5858 17.75 15V16.001C17.75 16.4152 18.0858 16.751 18.5 16.751C18.9142 16.751 19.25 16.4152 19.25 16.001ZM4.7875 11.0818C4.7875 9.40049 6.15049 8.0375 7.83182 8.0375H13.6682C15.3495 8.0375 16.7125 9.40049 16.7125 11.0818V15.9182C16.7125 17.5995 15.3495 18.9625 13.6682 18.9625H7.83182C6.15049 18.9625 4.7875 17.5995 4.7875 15.9182V11.0818Z" fill="#4E5964"/>
</svg>
