<svg width="24" height="24" viewBox="0 0 24 24" fill="none" xmlns="http://www.w3.org/2000/svg">
<path d="M17.5 4C19.9853 4 22 6.01472 22 8.5V15.5C22 17.9852 19.9853 20 17.5 20H6.5C4.01475 20 2.00004 17.9852 2 15.5V8.5C2 6.01472 4.01472 4 6.5 4H17.5ZM8.33301 8.75C7.91894 8.75018 7.58301 9.0859 7.58301 9.5V13.3887C7.58301 13.588 7.42189 13.7498 7.22266 13.75H6.11133C5.91189 13.75 5.75 13.5881 5.75 13.3887V9.5C5.75 9.08579 5.41421 8.75 5 8.75C4.58579 8.75 4.25 9.08579 4.25 9.5V13.3887C4.25 14.4165 5.08346 15.25 6.11133 15.25H7.22266C8.25032 15.2498 9.08301 14.4164 9.08301 13.3887V9.5C9.08301 9.08579 8.74722 8.75 8.33301 8.75ZM13.667 8.75C13.2528 8.75 12.917 9.08579 12.917 9.5V11.25H11.082V9.5C11.082 9.08579 10.7462 8.75 10.332 8.75C9.91799 8.7502 9.58203 9.08591 9.58203 9.5V14.5C9.58203 14.9141 9.91799 15.2498 10.332 15.25C10.7462 15.25 11.082 14.9142 11.082 14.5V12.75H12.917V14.5C12.917 14.9142 13.2528 15.25 13.667 15.25C14.0811 15.2498 14.417 14.9141 14.417 14.5V9.5C14.417 9.0859 14.0811 8.75018 13.667 8.75ZM15.667 8.75C15.2529 8.75018 14.917 9.0859 14.917 9.5V14.5C14.917 14.9141 15.2529 15.2498 15.667 15.25H17.8896C18.9175 15.2499 19.751 14.4165 19.751 13.3887V10.6113C19.751 9.5835 18.9175 8.75006 17.8896 8.75H15.667ZM17.8896 10.25C18.089 10.2501 18.251 10.4119 18.251 10.6113V13.3887C18.251 13.5881 18.089 13.7499 17.8896 13.75H16.417V10.25H17.8896Z" fill="#4E5964"/>
</svg>
