<svg width="24" height="24" viewBox="0 0 24 24" fill="none" xmlns="http://www.w3.org/2000/svg">
<path d="M10.885 2.29424C11.5981 1.98261 12.4103 1.98738 13.1194 2.30791L17.969 4.50127C18.8033 4.87892 19.413 5.65655 19.5247 6.59599C19.6222 7.41656 19.7357 8.61854 19.7493 9.8626C19.7626 11.0913 19.6792 12.4284 19.3508 13.4876C18.9367 14.8227 17.9569 16.2747 16.9172 17.5608C15.8636 18.8642 14.6891 20.0705 13.8137 20.9202C12.7716 21.9318 11.127 21.8956 10.1291 20.8411C9.32612 19.9922 8.25975 18.8054 7.27759 17.5218C6.30375 16.249 5.37506 14.8316 4.88891 13.5276C4.50826 12.5064 4.34566 11.2054 4.28345 9.99736C4.2205 8.77482 4.25743 7.5817 4.30395 6.74443C4.3606 5.72615 5.0026 4.86638 5.90649 4.47099L10.885 2.29424ZM11.9993 6.84795C11.5853 6.84821 11.2494 7.18399 11.2493 7.59795V13.7884L10.0676 12.6067C9.77471 12.3142 9.29987 12.3139 9.00708 12.6067C8.7144 12.8995 8.71454 13.3744 9.00708 13.6673L11.0334 15.6937C11.5666 16.2268 12.4309 16.2267 12.9641 15.6937L14.9905 13.6673C15.2834 13.3744 15.2834 12.8996 14.9905 12.6067C14.6976 12.3142 14.2227 12.314 13.9299 12.6067L12.7493 13.7874V7.59795C12.7492 7.18383 12.4134 6.84795 11.9993 6.84795Z" fill="#4E5964"/>
</svg>
