<svg width="24" height="24" viewBox="0 0 24 24" fill="none" xmlns="http://www.w3.org/2000/svg">
<path fill-rule="evenodd" clip-rule="evenodd" d="M19.6601 7.43602C19.6556 7.34629 19.6513 7.26148 19.6474 7.18245L19.6601 7.43602Z" fill="#4E5964"/>
<path d="M12.9541 21.1805C12.3692 21.5512 11.6318 21.551 11.0469 21.1805C10.3247 20.7229 9.0154 19.8373 7.75977 18.6951C6.52077 17.568 5.25036 16.1165 4.71876 14.5144C4.33626 13.3616 4.24915 11.7295 4.25001 10.2976C4.25067 9.20916 4.30361 8.15775 4.33999 7.43538C4.35203 7.19623 4.36226 6.99314 4.36817 6.8367C4.39495 6.13202 4.82451 5.53605 5.42969 5.24197L11.1758 2.45096C11.6965 2.19801 12.3045 2.19796 12.8252 2.45096L18.5713 5.24197C19.1764 5.53613 19.6051 6.13205 19.6318 6.8367C19.6378 6.99329 19.648 7.19669 19.6601 7.43602C19.6965 8.1584 19.7495 9.2093 19.75 10.2976C19.7506 11.7295 19.6637 13.3617 19.2813 14.5144C18.7497 16.1164 17.479 17.567 16.2402 18.6941C14.9848 19.8364 13.6763 20.7227 12.9541 21.1805ZM12 6.73709C11.5858 6.73712 11.25 7.07289 11.25 7.48709V13.6775L10.0683 12.4959C9.77542 12.203 9.30066 12.203 9.00777 12.4959C8.71488 12.7888 8.71488 13.2635 9.00777 13.5564L11.0341 15.5828C11.5673 16.1159 12.4316 16.1159 12.9648 15.5828L14.9912 13.5564C15.2841 13.2635 15.2841 12.7888 14.9912 12.4959C14.6983 12.203 14.2235 12.203 13.9306 12.4959L12.75 13.6765V7.48709C12.75 7.07288 12.4142 6.73709 12 6.73709Z" fill="#4E5964"/>
</svg>
