<svg width="24" height="24" viewBox="0 0 24 24" fill="none" xmlns="http://www.w3.org/2000/svg">
<path fill-rule="evenodd" clip-rule="evenodd" d="M15.25 5.84835C15.25 4.68946 14.3105 3.75 13.1516 3.75H11C9.75736 3.75 8.75 4.75736 8.75 6V8.25H16.5C19.3995 8.25 21.75 10.6005 21.75 13.5V16.5C21.75 19.3995 19.3995 21.75 16.5 21.75H7.5C4.60051 21.75 2.25 19.3995 2.25 16.5V13.5C2.25 10.6843 4.46659 8.38634 7.25 8.25585V6C7.25 3.92893 8.92893 2.25 11 2.25H13.1516C15.139 2.25 16.75 3.86104 16.75 5.84835C16.75 6.26257 16.4142 6.59835 16 6.59835C15.5858 6.59835 15.25 6.26257 15.25 5.84835ZM10.25 14C10.25 13.0335 11.0335 12.25 12 12.25C12.9665 12.25 13.75 13.0335 13.75 14C13.75 14.6981 13.3412 15.3007 12.75 15.5816V17C12.75 17.4142 12.4142 17.75 12 17.75C11.5858 17.75 11.25 17.4142 11.25 17V15.5816C10.6588 15.3007 10.25 14.6981 10.25 14Z" fill="#4E5964"/>
</svg>
