<svg width="24" height="24" viewBox="0 0 24 24" fill="none" xmlns="http://www.w3.org/2000/svg">
<path d="M13.1514 2.25C15.1387 2.25 16.75 3.86132 16.75 5.84863C16.7498 6.26272 16.4141 6.59863 16 6.59863C15.5859 6.59863 15.2502 6.26272 15.25 5.84863C15.25 4.68975 14.3103 3.75 13.1514 3.75H11C9.75736 3.75 8.75 4.75736 8.75 6V8.25H16.5C19.3995 8.25 21.75 10.6005 21.75 13.5V16.5C21.75 19.3995 19.3995 21.75 16.5 21.75H7.5C4.60051 21.75 2.25 19.3995 2.25 16.5V13.5C2.25 10.6843 4.46659 8.38635 7.25 8.25586V6C7.25 3.92893 8.92893 2.25 11 2.25H13.1514ZM12 11.9502C10.9507 11.9502 10.0996 12.8012 10.0996 13.8506C10.0999 14.6333 10.5738 15.3049 11.25 15.5957V18C11.2501 18.4141 11.5859 18.75 12 18.75C12.4141 18.75 12.7499 18.4141 12.75 18V15.5947C13.4257 15.3037 13.8992 14.6329 13.8994 13.8506C13.8994 12.8014 13.0492 11.9504 12 11.9502ZM12 13.4502C12.2207 13.4504 12.3994 13.6298 12.3994 13.8506C12.3991 14.0711 12.2205 14.2498 12 14.25C11.7793 14.25 11.6 14.0712 11.5996 13.8506C11.5996 13.6297 11.7791 13.4502 12 13.4502Z" fill="#4E5964"/>
</svg>
