<svg width="24" height="24" viewBox="0 0 24 24" fill="none" xmlns="http://www.w3.org/2000/svg">
<path fill-rule="evenodd" clip-rule="evenodd" d="M13.1514 3.75C14.3103 3.75 15.25 4.68975 15.25 5.84863C15.2502 6.26272 15.5859 6.59863 16 6.59863C16.4141 6.59863 16.7498 6.26272 16.75 5.84863C16.75 3.86132 15.1387 2.25 13.1514 2.25H11C8.92893 2.25 7.25 3.92893 7.25 6V8.40039C4.39031 9.02922 2.25004 11.5764 2.25 14.625V15C2.25 18.7279 5.27208 21.75 9 21.75H15C18.7279 21.75 21.75 18.7279 21.75 15V14.625C21.75 11.1042 18.8958 8.25 15.375 8.25H8.75V6C8.75 4.75736 9.75736 3.75 11 3.75H13.1514ZM11.25 13.9951V16.4951C11.2502 16.9091 11.5859 17.2451 12 17.2451C12.4141 17.2451 12.7498 16.9091 12.75 16.4951V13.9951C12.75 13.5809 12.4142 13.2451 12 13.2451C11.5858 13.2451 11.25 13.5809 11.25 13.9951Z" fill="#4E5964"/>
</svg>
