<svg width="24" height="24" viewBox="0 0 24 24" fill="none" xmlns="http://www.w3.org/2000/svg">
<path fill-rule="evenodd" clip-rule="evenodd" d="M8.3291 11.25C8.74324 11.2501 9.0791 11.5858 9.0791 12C9.0791 12.1898 9.07655 12.356 9.07227 12.5H13.9893C13.983 12.365 13.9772 12.2004 13.9736 12C13.9736 11.5858 14.3094 11.25 14.7236 11.25H16.7529C18.9895 11.2502 20.8026 13.0632 20.8027 15.2998V17.2266C20.8026 19.4631 18.9895 21.2762 16.7529 21.2764H6.2998C4.06322 21.2763 2.25013 19.4631 2.25 17.2266V15.2998C2.2501 13.0632 4.06321 11.2501 6.2998 11.25H8.3291ZM8.73633 14.8418C8.18421 14.8418 7.73659 15.2897 7.73633 15.8418V16.6836C7.73633 17.2359 8.18404 17.6836 8.73633 17.6836H14.3154C14.8676 17.6835 15.3154 17.2358 15.3154 16.6836V15.8418C15.3152 15.2898 14.8675 14.8419 14.3154 14.8418H8.73633Z" fill="#4E5964"/>
<path fill-rule="evenodd" clip-rule="evenodd" d="M11.5254 2.72363C14.0323 2.72363 16.0652 4.7558 16.0654 7.2627C16.0654 9.76978 14.0325 11.8027 11.5254 11.8027C9.0185 11.8025 6.98633 9.76964 6.98633 7.2627C6.98655 4.75594 9.01863 2.72386 11.5254 2.72363ZM11.7383 5.79102C11.6211 5.6739 11.4306 5.67387 11.3135 5.79102L10.0537 7.05078C9.93657 7.16793 9.93659 7.35843 10.0537 7.47559L11.3135 8.73535C11.4306 8.85251 11.6211 8.85251 11.7383 8.73535L12.998 7.47559C13.1152 7.35843 13.1152 7.16794 12.998 7.05078L11.7383 5.79102Z" fill="#4E5964"/>
<path d="M19.1826 2.72754C19.2359 2.73298 19.2865 2.74765 19.3359 2.76367C19.3544 2.76966 19.3735 2.77379 19.3916 2.78125C19.4111 2.7893 19.4287 2.80094 19.4473 2.81055C19.5144 2.84517 19.5794 2.88709 19.6357 2.94336L21.5303 4.83887C21.8229 5.13178 21.8231 5.6066 21.5303 5.89941C21.2374 6.19198 20.7626 6.19198 20.4697 5.89941L19.8555 5.28516V7.26367C19.8552 7.67766 19.5195 8.01367 19.1055 8.01367C18.6914 8.01367 18.3557 7.67766 18.3555 7.26367V5.28516L17.7412 5.89941C17.4484 6.19191 16.9735 6.19178 16.6807 5.89941C16.3879 5.6066 16.388 5.13178 16.6807 4.83887L18.5703 2.94824C18.575 2.94348 18.5802 2.93921 18.585 2.93457C18.6387 2.88273 18.6995 2.84321 18.7627 2.81055C18.7797 2.80172 18.7957 2.79072 18.8135 2.7832L18.8232 2.7793C18.8397 2.77261 18.8572 2.76914 18.874 2.76367C18.9472 2.73985 19.0244 2.72461 19.1055 2.72461L19.1826 2.72754Z" fill="#4E5964"/>
</svg>
