<svg width="24" height="24" viewBox="0 0 24 24" fill="none" xmlns="http://www.w3.org/2000/svg">
<path fill-rule="evenodd" clip-rule="evenodd" d="M15.0691 8.03049L12.7489 5.71023V9.45029H11.2489V5.7114L8.92978 8.03049C8.63688 8.32338 8.16201 8.32338 7.86912 8.03049C7.57622 7.73759 7.57622 7.26272 7.86912 6.96983L10.8327 4.00622C11.4771 3.36186 12.5218 3.36186 13.1662 4.00622L16.1298 6.96983C16.4227 7.26272 16.4227 7.73759 16.1298 8.03049C15.8369 8.32338 15.362 8.32338 15.0691 8.03049ZM11.2489 9.45029H4.01156C3.57942 9.45029 3.01713 9.61592 2.69512 10.1377C2.09701 11.1069 2.02943 12.607 2.94153 13.539L8.82755 19.5536C10.5196 21.2825 13.5719 21.2825 15.2639 19.5536L20.8698 13.8253C21.8797 12.7926 22.0326 11.3038 21.2646 10.1291C20.937 9.62822 20.3875 9.45029 19.9365 9.45029H12.7489V15.6003C12.7489 16.0145 12.4131 16.3503 11.9989 16.3503C11.5846 16.3503 11.2489 16.0145 11.2489 15.6003L11.2489 9.45029Z" fill="#4E5964"/>
</svg>
