<svg width="24" height="24" viewBox="0 0 24 24" fill="none" xmlns="http://www.w3.org/2000/svg">
<path fill-rule="evenodd" clip-rule="evenodd" d="M11.25 11.2505L11.25 6.80449L9.53139 8.53C9.23909 8.82348 8.76421 8.82443 8.47073 8.53212C8.17725 8.23982 8.1763 7.76495 8.46861 7.47147L11.4566 4.47147C11.6046 4.32285 11.7995 4.24922 11.994 4.25076L12 4.25073C12.2461 4.25073 12.4645 4.36923 12.6012 4.55228L15.5271 7.44333C15.8218 7.73446 15.8246 8.20932 15.5335 8.50397C15.2424 8.79861 14.7675 8.80146 14.4729 8.51033L12.75 6.80801L12.75 11.2505H11.25ZM11.25 11.2505H4.5C3.80964 11.2505 3.25 11.8101 3.25 12.5005V15.5005C3.25 17.8477 5.15279 19.7505 7.5 19.7505H16.5C18.8472 19.7505 20.75 17.8477 20.75 15.5005V12.5005C20.75 11.8101 20.1904 11.2505 19.5 11.2505H12.75V15.0007C12.75 15.4149 12.4142 15.7507 12 15.7507C11.5858 15.7507 11.25 15.4149 11.25 15.0007V11.2505Z" fill="#4E5964"/>
</svg>
