<svg width="24" height="24" viewBox="0 0 24 24" fill="none" xmlns="http://www.w3.org/2000/svg">
<path d="M14.9738 12.4141C15.7138 12.0834 16.5873 12.0604 17.3849 12.3096L19.5929 13C21.1071 13.4734 22.2873 14.9602 21.8009 16.5156L21.3 18.1172C20.9504 19.2337 19.6851 19.5646 18.713 19.2607C18.4065 19.1651 18.1251 19.2409 17.9787 19.3603C17.4268 19.8106 16.526 20.4727 15.4894 20.9453C14.4685 21.4106 13.1948 21.7467 11.965 21.3623L3.71109 18.7812C2.82796 18.5049 2.19068 17.8509 1.99918 17.0742C1.79975 16.2645 2.11574 15.4003 2.96109 14.9326C3.02584 14.8968 3.11101 14.8394 3.2482 14.7471C3.37239 14.6635 3.53113 14.5568 3.69742 14.4619C3.89799 14.3476 4.23858 14.1738 4.63004 14.1514C4.6501 14.1627 4.6711 14.1739 4.69254 14.1836L13.088 17.9531C13.4657 18.1226 13.9095 17.9537 14.0793 17.5762C14.2489 17.1983 14.0802 16.7536 13.7023 16.584L9.29312 14.6045L14.9738 12.4141Z" fill="#4E5964"/>
<path d="M10.8439 4.11035C11.1901 2.99915 12.7001 2.96437 13.1193 4.00586L13.1564 4.11035L13.4865 5.17187H14.5363C15.142 5.17187 15.5544 5.58941 15.6925 6.03223C15.8299 6.47328 15.7303 7.03855 15.2619 7.39355L14.3849 8.05664L14.7238 9.14258C14.8944 9.69037 14.674 10.214 14.2931 10.5029C13.9073 10.7953 13.3228 10.8666 12.8429 10.5029L12.0002 9.86426L11.1574 10.5029C10.6775 10.8666 10.093 10.7953 9.70719 10.5029C9.32638 10.2139 9.10591 9.6903 9.27652 9.14258L9.61441 8.05664L8.73844 7.39355C8.27014 7.03854 8.1704 6.47323 8.30777 6.03223C8.44591 5.58942 8.85838 5.17196 9.46402 5.17187H10.5138L10.8439 4.11035Z" fill="#4E5964"/>
<path d="M6.21402 8.46973C6.50687 8.17688 6.98167 8.17696 7.27457 8.46973C7.56746 8.76262 7.56746 9.23738 7.27457 9.53027L6.5314 10.2744C6.23863 10.5672 5.76378 10.5669 5.47086 10.2744C5.17797 9.98152 5.17797 9.50676 5.47086 9.21387L6.21402 8.46973Z" fill="#4E5964"/>
<path d="M16.4709 8.46973C16.7638 8.17701 17.2386 8.17689 17.5314 8.46973L18.2746 9.21387C18.5673 9.50677 18.5674 9.98156 18.2746 10.2744C17.9817 10.567 17.5068 10.5671 17.214 10.2744L16.4709 9.53027C16.178 9.23738 16.178 8.76262 16.4709 8.46973Z" fill="#4E5964"/>
<path d="M5.47086 4.46973C5.76377 4.17701 6.23857 4.17689 6.5314 4.46973L7.27457 5.21387C7.56735 5.50677 7.56742 5.98156 7.27457 6.27441C6.98169 6.56696 6.50682 6.56709 6.21402 6.27441L5.47086 5.53027C5.17797 5.23738 5.17797 4.76262 5.47086 4.46973Z" fill="#4E5964"/>
<path d="M17.214 4.46973C17.5069 4.17687 17.9817 4.17696 18.2746 4.46973C18.5675 4.76262 18.5675 5.23738 18.2746 5.53027L17.5314 6.27441C17.2386 6.56718 16.7638 6.56694 16.4709 6.27441C16.178 5.98152 16.178 5.50676 16.4709 5.21387L17.214 4.46973Z" fill="#4E5964"/>
</svg>
