<svg width="24" height="24" viewBox="0 0 24 24" fill="none" xmlns="http://www.w3.org/2000/svg">
<path fill-rule="evenodd" clip-rule="evenodd" d="M3.03125 8.00001C3.03125 7.74664 3.05109 7.4979 3.08929 7.25526C3.46141 7.29941 3.75 7.616 3.75 8L3.75 10C3.75 10.4037 3.43098 10.733 3.03126 10.7494L3.03125 8.00001ZM3.03127 13.2506L3.03126 10.7494C3.02089 10.7498 3.01047 10.75 3 10.75C2.58579 10.75 2.25 10.4142 2.25 10V8C2.25 7.58579 2.58579 7.25 3 7.25C3.03022 7.25 3.06001 7.25179 3.08929 7.25526C3.44667 4.98569 5.41127 3.25 7.78125 3.25H16.9996C19.6229 3.25 21.7496 5.37665 21.7496 8V16C21.7496 18.6234 19.6229 20.75 16.9996 20.75H7.78127C5.41129 20.75 3.4467 19.0143 3.08932 16.7447C3.46143 16.7006 3.75 16.384 3.75 16L3.75 14C3.75 13.5963 3.43098 13.267 3.03127 13.2506ZM3.03127 13.2506C3.0209 13.2502 3.01047 13.25 3 13.25C2.58579 13.25 2.25 13.5858 2.25 14V16C2.25 16.4142 2.58579 16.75 3 16.75C3.03022 16.75 3.06003 16.7482 3.08932 16.7447C3.05111 16.5021 3.03127 16.2534 3.03127 16L3.03127 13.2506ZM7 8.25C7.41421 8.25 7.75 8.58579 7.75 9L7.75 15C7.75 15.4142 7.41421 15.75 7 15.75C6.58579 15.75 6.25 15.4142 6.25 15L6.25 9C6.25 8.58579 6.58579 8.25 7 8.25ZM18.5245 9.26136C18.8172 8.96824 18.8168 8.49337 18.5237 8.2007C18.2306 7.90804 17.7557 7.90841 17.463 8.20153L16.6309 9.03496C15.4709 8.2896 13.9763 8.29633 12.8256 9.03736L11.9928 8.20583C11.6997 7.91316 11.2248 7.91353 10.9321 8.20665C10.6395 8.49977 10.6399 8.97465 10.933 9.26731L11.7657 10.0987C11.0197 11.259 11.0264 12.7544 11.768 13.9054L10.9361 14.7386C10.6434 15.0318 10.6438 15.5066 10.9369 15.7993C11.23 16.092 11.7049 16.0916 11.9975 15.7985L12.8296 14.9651C13.9901 15.7109 15.4855 15.7038 16.6364 14.9619L17.4701 15.7943C17.7632 16.087 18.2381 16.0866 18.5307 15.7935C18.8234 15.5003 18.823 15.0255 18.5299 14.7328L17.6958 13.9C18.4409 12.7399 18.4339 11.2452 17.6925 10.0947L18.5245 9.26136ZM13.264 10.6088C14.0324 9.79896 15.3118 9.76541 16.1216 10.5338C16.9314 11.3022 16.965 12.5816 16.1966 13.3914C15.4282 14.2012 14.1488 14.2347 13.339 13.4663C12.5292 12.6979 12.4956 11.4186 13.264 10.6088Z" fill="#4E5964"/>
</svg>
