<svg width="24" height="24" viewBox="0 0 24 24" fill="none" xmlns="http://www.w3.org/2000/svg">
<path d="M15.1216 10.5336C14.3118 9.76516 13.0324 9.79872 12.264 10.6085C11.4956 11.4183 11.5292 12.6977 12.339 13.4661C13.1488 14.2345 14.4282 14.2009 15.1966 13.3911C15.965 12.5813 15.9314 11.302 15.1216 10.5336Z" fill="#4E5964"/>
<path fill-rule="evenodd" clip-rule="evenodd" d="M3.03126 10.7494C3.02089 10.7498 3.01047 10.75 3 10.75C2.58579 10.75 2.25 10.4142 2.25 10V8C2.25 7.58579 2.58579 7.25 3 7.25C3.03022 7.25 3.06001 7.25179 3.08929 7.25526C3.44667 4.98569 5.41127 3.25 7.78125 3.25H16.9996C19.6229 3.25 21.7496 5.37665 21.7496 8V16C21.7496 18.6234 19.6229 20.75 16.9996 20.75H7.78127C5.41129 20.75 3.4467 19.0143 3.08932 16.7447C3.06003 16.7482 3.03022 16.75 3 16.75C2.58579 16.75 2.25 16.4142 2.25 16V14C2.25 13.5858 2.58579 13.25 3 13.25C3.01047 13.25 3.0209 13.2502 3.03127 13.2506L3.03126 10.7494ZM7.75 9C7.75 8.58579 7.41421 8.25 7 8.25C6.58579 8.25 6.25 8.58579 6.25 9L6.25 15C6.25 15.4142 6.58579 15.75 7 15.75C7.41421 15.75 7.75 15.4142 7.75 15L7.75 9ZM13.7234 6.63086C14.1376 6.63018 14.4739 6.96541 14.4746 7.37962L14.4765 8.55798C14.88 8.64505 15.2715 8.80379 15.6309 9.03472L16.463 8.20128C16.7557 7.90816 17.2306 7.90779 17.5237 8.20046C17.8168 8.49313 17.8172 8.968 17.5245 9.26112L16.6925 10.0944C16.9223 10.4511 17.0816 10.8408 17.1697 11.2433L18.3478 11.2414C18.762 11.2407 19.0983 11.5759 19.099 11.9902C19.0997 12.4044 18.7645 12.7407 18.3503 12.7414L17.1727 12.7433C17.0858 13.1475 16.9271 13.5397 16.6958 13.8998L17.5299 14.7326C17.823 15.0252 17.8234 15.5001 17.5307 15.7932C17.2381 16.0863 16.7632 16.0867 16.4701 15.794L15.6364 14.9616C15.2799 15.1915 14.8903 15.3508 14.4879 15.439L14.4898 16.6173C14.4905 17.0315 14.1553 17.3679 13.741 17.3686C13.3268 17.3692 12.9905 17.034 12.9898 16.6198L12.9879 15.4425C12.583 15.3556 12.1902 15.1966 11.8296 14.9649L10.9975 15.7982C10.7049 16.0913 10.23 16.0917 9.93688 15.7991C9.64376 15.5064 9.64339 15.0315 9.93606 14.7384L10.768 13.9051C10.5379 13.548 10.3786 13.1578 10.2905 12.7547L9.11256 12.7566C8.69835 12.7573 8.36201 12.422 8.36133 12.0078C8.36065 11.5936 8.69588 11.2573 9.11009 11.2566L10.2882 11.2547C10.3753 10.8505 10.5343 10.4584 10.7657 10.0985L9.93297 9.26707C9.63985 8.9744 9.63948 8.49953 9.93215 8.20641C10.2248 7.91329 10.6997 7.91292 10.9928 8.20559L11.8256 9.03712C12.1829 8.80705 12.5733 8.64776 12.9765 8.55978L12.9746 7.38209C12.9739 6.96788 13.3092 6.63154 13.7234 6.63086Z" fill="#4E5964"/>
</svg>
