<svg width="24" height="24" viewBox="0 0 24 24" fill="none" xmlns="http://www.w3.org/2000/svg">
<path fill-rule="evenodd" clip-rule="evenodd" d="M13.7197 3.06191C12.8288 1.97936 11.1712 1.97936 10.2803 3.06191L9.20767 4.36534C9.0538 4.55231 8.81696 4.65041 8.57595 4.627L6.89579 4.46383C5.50037 4.32831 4.32831 5.50037 4.46383 6.89579L4.627 8.57595C4.65041 8.81696 4.55231 9.0538 4.36534 9.20767L3.06191 10.2803C1.97936 11.1712 1.97936 12.8288 3.06191 13.7197L4.36534 14.7923C4.55231 14.9462 4.65041 15.183 4.627 15.424L4.46383 17.1042C4.32831 18.4996 5.50037 19.6717 6.89579 19.5362L8.57595 19.373C8.81696 19.3496 9.05381 19.4477 9.20767 19.6347L10.2803 20.9381C11.1712 22.0206 12.8288 22.0206 13.7197 20.9381L14.7923 19.6347C14.9462 19.4477 15.183 19.3496 15.424 19.373L17.1042 19.5362C18.4996 19.6717 19.6717 18.4996 19.5362 17.1042L19.373 15.424C19.3496 15.183 19.4477 14.9462 19.6347 14.7923L20.9381 13.7197C22.0206 12.8288 22.0206 11.1712 20.9381 10.2803L19.6347 9.20767C19.4477 9.05381 19.3496 8.81696 19.373 8.57595L19.5362 6.8958C19.6717 5.50037 18.4996 4.32831 17.1042 4.46383L15.424 4.627C15.183 4.65041 14.9462 4.55231 14.7923 4.36534L13.7197 3.06191ZM15.3758 10.4803C15.6411 10.1622 15.5982 9.68924 15.2801 9.42397C14.962 9.15871 14.489 9.20156 14.2238 9.5197L11.465 12.8283L10.3762 11.5202C10.1113 11.2018 9.63836 11.1586 9.32 11.4236C9.00164 11.6885 8.95837 12.1614 9.22336 12.4798L10.8881 14.4798C11.0305 14.6509 11.2416 14.7499 11.4642 14.75C11.6868 14.7501 11.898 14.6513 12.0405 14.4803L15.3758 10.4803Z" fill="#4E5964"/>
</svg>
