<svg width="24" height="24" viewBox="0 0 24 24" fill="none" xmlns="http://www.w3.org/2000/svg">
<path fill-rule="evenodd" clip-rule="evenodd" d="M11.0243 6.77539C10.971 6.74224 10.909 6.74166 10.8556 6.77301C10.7986 6.80646 10.75 6.87917 10.75 6.97268V10.8606C10.75 10.9541 10.7986 11.0269 10.8556 11.0603C10.909 11.0917 10.971 11.0911 11.0243 11.0579C11.0357 11.0509 11.0472 11.0441 11.0589 11.0377L14.1383 9.34301C14.163 9.32934 14.1743 9.31755 14.181 9.30897C14.1891 9.29869 14.2005 9.28034 14.212 9.24722C14.2383 9.17121 14.25 9.0645 14.25 8.91664C14.25 8.82563 14.2038 8.75383 14.1484 8.71935M14.1484 8.71935L11.0243 6.77539L14.1484 8.71935ZM10.0961 5.47951C10.6308 5.16555 11.2905 5.17439 11.8167 5.50179L14.9409 7.44577C15.4505 7.76289 15.75 8.32434 15.75 8.91664C15.75 9.26072 15.7249 10.1818 14.8617 10.657L11.7971 12.3435C11.2742 12.6591 10.6241 12.6639 10.096 12.3538C9.56492 12.0419 9.25 11.468 9.25 10.8606V6.97268C9.25003 6.36534 9.56496 5.79136 10.0961 5.47951ZM5.25 15C5.25 14.5858 5.58579 14.25 6 14.25H7.5C7.91421 14.25 8.25 14.5858 8.25 15C8.25 15.4142 7.91421 15.75 7.5 15.75H6C5.58579 15.75 5.25 15.4142 5.25 15ZM11.75 15C11.75 14.5858 12.0858 14.25 12.5 14.25H18C18.4142 14.25 18.75 14.5858 18.75 15C18.75 15.4142 18.4142 15.75 18 15.75H12.5C12.0858 15.75 11.75 15.4142 11.75 15ZM7.5 2.25C4.60051 2.25 2.25 4.60051 2.25 7.5V16.5C2.25 16.9308 2.30188 17.3494 2.39972 17.75H21.6003C21.6981 17.3494 21.75 16.9308 21.75 16.5V7.5C21.75 4.60051 19.3995 2.25 16.5 2.25H7.5ZM20.973 19.25H16.75V21.7442C18.5367 21.6604 20.0898 20.6836 20.973 19.25ZM15.25 21.75V19.25H12.75V21.75H15.25ZM11.25 21.75V19.25H8.75V21.75H11.25ZM7.25 21.7442V19.25H3.027C3.91023 20.6836 5.46334 21.6604 7.25 21.7442Z" fill="#4E5964"/>
</svg>
