<svg width="24" height="24" viewBox="0 0 24 24" fill="none" xmlns="http://www.w3.org/2000/svg">
<path fill-rule="evenodd" clip-rule="evenodd" d="M12.5 3.25C14.8246 3.25 16.7948 4.76126 17.4854 6.85449L18.5 5.81738C19.1439 5.15845 20.0198 5.09657 20.7041 5.5127C21.3511 5.9063 21.75 6.66914 21.75 7.53613V16.4639C21.75 17.3309 21.3511 18.0937 20.7041 18.4873C20.0198 18.9034 19.1439 18.8406 18.5 18.1816L17.4854 17.1445C16.7951 19.2382 14.8249 20.75 12.5 20.75H7.5C4.60051 20.75 2.25 18.3995 2.25 15.5V8.5C2.25 5.60051 4.60051 3.25 7.5 3.25H12.5ZM19.7656 6.75098C19.7309 6.75517 19.6624 6.77396 19.5723 6.86621L17.75 8.72949V15.2695L19.5723 17.1328C19.6624 17.2251 19.7309 17.2448 19.7656 17.249C19.8038 17.2536 19.8578 17.2468 19.9248 17.2061C20.0621 17.1225 20.25 16.8845 20.25 16.4639V7.53613C20.25 7.11546 20.0621 6.87752 19.9248 6.79395C19.8578 6.75322 19.8038 6.74638 19.7656 6.75098ZM6 15.25C5.58579 15.25 5.25 15.5858 5.25 16C5.25 16.4142 5.58579 16.75 6 16.75H9C9.41421 16.75 9.75 16.4142 9.75 16C9.75 15.5858 9.41421 15.25 9 15.25H6ZM7.5 8C6.67157 8 6 8.67157 6 9.5C6 10.3284 6.67157 11 7.5 11C8.32843 11 9 10.3284 9 9.5C9 8.67157 8.32843 8 7.5 8Z" fill="#4E5964"/>
</svg>
