<svg width="24" height="24" viewBox="0 0 24 24" fill="none" xmlns="http://www.w3.org/2000/svg">
<path d="M7.5 8.75C7.08579 8.75 6.75 9.08579 6.75 9.5C6.75 9.91421 7.08579 10.25 7.5 10.25C7.91421 10.25 8.25 9.91421 8.25 9.5C8.25 9.08579 7.91421 8.75 7.5 8.75Z" fill="#4E5964"/>
<path fill-rule="evenodd" clip-rule="evenodd" d="M7.5 3.25C4.60051 3.25 2.25 5.60051 2.25 8.5V15.5C2.25 18.3995 4.60051 20.75 7.5 20.75H12.5C14.8244 20.75 16.796 19.2394 17.4867 17.1464L18.4998 18.182C19.1437 18.8409 20.0197 18.9038 20.704 18.4877C21.3512 18.0941 21.75 17.3309 21.75 16.4638V7.5362C21.75 6.66906 21.3512 5.90586 20.704 5.51229C20.0198 5.09624 19.144 5.15909 18.5001 5.81772L17.4867 6.85361C16.796 4.76058 14.8244 3.25 12.5 3.25H7.5ZM17.75 8.72937V15.2706L19.5723 17.1333C19.6625 17.2256 19.731 17.2445 19.7658 17.2487C19.804 17.2533 19.8576 17.2468 19.9246 17.2061C20.0619 17.1226 20.25 16.8847 20.25 16.4638V7.5362C20.25 7.1153 20.0619 6.87739 19.9246 6.79391C19.8576 6.75318 19.804 6.74671 19.7658 6.7513C19.731 6.75548 19.6629 6.77405 19.5726 6.86639L17.75 8.72937ZM6 15.25C5.58579 15.25 5.25 15.5858 5.25 16C5.25 16.4142 5.58579 16.75 6 16.75H9C9.41421 16.75 9.75 16.4142 9.75 16C9.75 15.5858 9.41421 15.25 9 15.25H6ZM5.25 9.5C5.25 8.25736 6.25736 7.25 7.5 7.25C8.74264 7.25 9.75 8.25736 9.75 9.5C9.75 10.7426 8.74264 11.75 7.5 11.75C6.25736 11.75 5.25 10.7426 5.25 9.5Z" fill="#4E5964"/>
</svg>
