<svg width="24" height="24" viewBox="0 0 24 24" fill="none" xmlns="http://www.w3.org/2000/svg">
<path d="M18.4999 5.81869C19.1438 5.15976 20.0198 5.0969 20.704 5.51302C21.351 5.90665 21.7499 6.66952 21.7499 7.53646V16.4642C21.7498 17.3311 21.351 18.0941 20.704 18.4876C20.0198 18.9037 19.1438 18.8407 18.4999 18.182L17.4833 17.1429C16.7936 19.2373 14.8242 20.7502 12.4989 20.7503H7.49894C6.88677 20.7503 6.2972 20.6452 5.74894 20.4515C5.56682 20.3871 5.38891 20.313 5.21672 20.2298C4.84383 20.0496 4.68789 19.6008 4.86808 19.2279C5.04836 18.855 5.49615 18.699 5.86906 18.8792C5.99193 18.9386 6.11914 18.9916 6.24894 19.0374C6.63883 19.1752 7.05947 19.2503 7.49894 19.2503H12.4989C14.5698 19.2502 16.2488 17.5712 16.2489 15.5003V8.50033H16.2577C16.2359 8.28652 16.3019 8.06542 16.4638 7.89974L18.4999 5.81869Z" fill="#4E5964"/>
<path fill-rule="evenodd" clip-rule="evenodd" d="M18.5634 2.4681C18.8573 2.17636 19.3321 2.17825 19.6239 2.47201C19.9156 2.76599 19.914 3.24078 19.62 3.53255L7.81633 15.2503H8.99992C9.41413 15.2503 9.74992 15.5861 9.74992 16.0003C9.74979 16.4144 9.41405 16.7503 8.99992 16.7503H6.30461L2.52824 20.4994C2.23436 20.7908 1.75944 20.789 1.46769 20.4954C1.1759 20.2015 1.17768 19.7257 1.4716 19.4339L2.89445 18.0208C2.48408 17.2723 2.24995 16.413 2.24992 15.5003V8.50033C2.24992 5.60083 4.60043 3.25033 7.49992 3.25033H12.4999C13.9533 3.25034 15.2678 3.84225 16.2177 4.79525L18.5634 2.4681ZM7.49992 8.00033C6.67149 8.00033 5.99992 8.6719 5.99992 9.50033C6.00005 10.3286 6.67157 11.0003 7.49992 11.0003C8.32827 11.0003 8.99979 10.3286 8.99992 9.50033C8.99992 8.6719 8.32835 8.00033 7.49992 8.00033Z" fill="#4E5964"/>
</svg>
