<svg width="24" height="24" viewBox="0 0 24 24" fill="none" xmlns="http://www.w3.org/2000/svg">
<path fill-rule="evenodd" clip-rule="evenodd" d="M15.3292 4.73494C14.3364 3.75741 14.0034 3.99994 12.5 3.99994H7.5C4.46243 3.99994 2 6.46238 2 9.49994V14.4999C2 16.0033 2 16 2.79931 17.2648L15.3292 4.73494ZM4.77951 19.2811C5.58178 19.7386 6.51037 19.9999 7.5 19.9999H12.5C15.5376 19.9999 18 17.5375 18 14.4999V9.49994C18 8.51031 17.7386 7.58173 17.2811 6.77946L8.81066 15.2499H10C10.4142 15.2499 10.75 15.5857 10.75 15.9999C10.75 16.4142 10.4142 16.7499 10 16.7499H7.31066L4.77951 19.2811ZM7.5 8.74994C7.08579 8.74994 6.75 9.08573 6.75 9.49994C6.75 9.91416 7.08579 10.2499 7.5 10.2499C7.91421 10.2499 8.25 9.91416 8.25 9.49994C8.25 9.08573 7.91421 8.74994 7.5 8.74994ZM5.25 9.49994C5.25 8.2573 6.25736 7.24994 7.5 7.24994C8.74264 7.24994 9.75 8.2573 9.75 9.49994C9.75 10.7426 8.74264 11.7499 7.5 11.7499C6.25736 11.7499 5.25 10.7426 5.25 9.49994Z" fill="#4E5964"/>
<path d="M21.7686 16.4638C21.7686 17.7518 20.5946 18.466 19.8048 17.6577L17.8716 15.6868L17.8947 15.5764L17.9689 15.0879L18 13.9999V11.9999V10.4999V9.49994L17.9659 8.88394L17.8935 8.41723L19.2686 6.49996C20.0584 5.6917 21.7686 6.24812 21.7686 7.53615V16.4638Z" fill="#4E5964"/>
<path fill-rule="evenodd" clip-rule="evenodd" d="M16.8062 4.19377C17.0646 4.4522 17.0646 4.87121 16.8062 5.12965L3.1297 18.8061C2.87127 19.0646 2.45226 19.0646 2.19383 18.8061C1.93539 18.5477 1.93539 18.1287 2.19383 17.8702L5.68998 14.3741L9.06423 10.9999L15.8703 4.19377C16.1287 3.93533 16.5477 3.93533 16.8062 4.19377Z" fill="#4E5964"/>
</svg>
