<svg width="24" height="24" viewBox="0 0 24 24" fill="none" xmlns="http://www.w3.org/2000/svg">
<path fill-rule="evenodd" clip-rule="evenodd" d="M21.75 16.4639C21.75 17.3309 21.3511 18.0937 20.7041 18.4873C20.0198 18.9034 19.1439 18.8406 18.5 18.1816L17.4854 17.1445C16.7951 19.2382 14.8249 20.75 12.5 20.75H7.5C4.60051 20.75 2.25 18.3995 2.25 15.5V8.5C2.25 5.60051 4.60051 3.25 7.5 3.25H12.5C14.8246 3.25 16.7948 4.76126 17.4854 6.85449L18.5 5.81738C19.1438 5.15888 20.02 5.09667 20.7041 5.5127C21.3511 5.90629 21.75 6.66915 21.75 7.53613V16.4639ZM19.9248 6.79395C20.0621 6.87751 20.25 7.11547 20.25 7.53613V16.4639C20.25 16.8845 20.0621 17.1225 19.9248 17.2061C19.8578 17.2468 19.8038 17.2536 19.7656 17.249C19.7396 17.2459 19.6945 17.2347 19.6357 17.1904L19.5723 17.1338L17.75 15.2695V8.72949L19.5723 6.86621C19.6624 6.77396 19.7309 6.75517 19.7656 6.75098C19.8038 6.74638 19.8578 6.75322 19.9248 6.79395ZM7.5 11.75C8.74264 11.75 9.75 10.7426 9.75 9.5C9.74999 8.25737 8.74263 7.25 7.5 7.25C6.25737 7.25 5.25001 8.25737 5.25 9.5C5.25 10.7426 6.25736 11.75 7.5 11.75Z" fill="#4E5964"/>
<path fill-rule="evenodd" clip-rule="evenodd" d="M8.25 9.5C8.24999 9.0858 7.9142 8.75 7.5 8.75C7.0858 8.75 6.75001 9.0858 6.75 9.5C6.75 9.91421 7.08579 10.25 7.5 10.25C7.91421 10.25 8.25 9.91421 8.25 9.5Z" fill="#4E5964"/>
</svg>
