<svg width="24" height="24" viewBox="0 0 24 24" fill="none" xmlns="http://www.w3.org/2000/svg">
<path fill-rule="evenodd" clip-rule="evenodd" d="M10.9824 7.79754C10.9276 7.76345 10.8638 7.76285 10.8089 7.7951C10.7503 7.8295 10.7003 7.90429 10.7003 8.00047V11.9995C10.7003 12.0957 10.7503 12.1705 10.8089 12.2049C10.8638 12.2372 10.9276 12.2366 10.9824 12.2025M10.9824 12.2025L14.1958 10.2029C14.2528 10.1674 14.3003 10.0936 14.3003 9.99997C14.3003 9.90634 14.2528 9.83249 14.1958 9.79703L10.9824 7.79754M10.0277 6.46464C10.5777 6.14171 11.2563 6.1508 11.7975 6.48756L15.0109 8.48708C15.5351 8.81326 15.8432 9.39075 15.8432 9.99997C15.8432 10.6092 15.5351 11.1867 15.011 11.5128L11.7976 13.5124C11.2563 13.8492 10.5777 13.8583 10.0277 13.5353C9.48138 13.2146 9.15746 12.6242 9.15746 11.9995V8.00047C9.15749 7.37578 9.48142 6.7854 10.0277 6.46464ZM7.5 2.25C4.60051 2.25 2.25 4.60051 2.25 7.5V16.5C2.25 16.9195 2.29919 17.3274 2.39213 17.7185L21.75 16.2666V7.5C21.75 4.60051 19.3995 2.25 16.5 2.25H7.5ZM21.5922 17.7827L16.75 18.1459V21.7442C19.096 21.6342 21.0393 19.9844 21.5922 17.7827ZM15.25 21.75V18.2584L12.75 18.4459V21.75H15.25ZM11.25 21.75V18.5584L8.75 18.7459V21.75H11.25ZM7.25 21.7442V18.8584L2.98363 19.1783C3.85881 20.6509 5.43373 21.659 7.25 21.7442Z" fill="#4E5964"/>
</svg>
