<svg width="24" height="24" viewBox="0 0 24 24" fill="none" xmlns="http://www.w3.org/2000/svg">
<path fill-rule="evenodd" clip-rule="evenodd" d="M16.3586 5.5807C15.3658 4.60317 14.0034 4 12.5 4H7.5C4.46243 4 2 6.46243 2 9.5V14.5C2 16.0034 2.60317 17.3658 3.5807 18.3586L16.3586 5.5807ZM4.77951 19.2811C5.58178 19.7386 6.51037 20 7.5 20H12.5C15.5376 20 18 17.5376 18 14.5V9.5C18 8.51037 17.7386 7.58178 17.2811 6.77951L8.81066 15.25H10C10.4142 15.25 10.75 15.5858 10.75 16C10.75 16.4142 10.4142 16.75 10 16.75H7.31066L4.77951 19.2811ZM7.5 8.75C7.08579 8.75 6.75 9.08579 6.75 9.5C6.75 9.91421 7.08579 10.25 7.5 10.25C7.91421 10.25 8.25 9.91421 8.25 9.5C8.25 9.08579 7.91421 8.75 7.5 8.75ZM5.25 9.5C5.25 8.25736 6.25736 7.25 7.5 7.25C8.74264 7.25 9.75 8.25736 9.75 9.5C9.75 10.7426 8.74264 11.75 7.5 11.75C6.25736 11.75 5.25 10.7426 5.25 9.5Z" fill="#00A881"/>
<path d="M22 16.4638C22 17.7518 20.826 18.466 20.0362 17.6578L18 15.5765V8.42351L20.0362 6.34222C20.826 5.53396 22 6.24817 22 7.5362V16.4638Z" fill="#00A881"/>
<path fill-rule="evenodd" clip-rule="evenodd" d="M21.0491 6.25238C21.6374 6.63138 22 7.36633 22 8.20137V16.7985C22 17.6336 21.6374 18.3685 21.0491 18.7475C20.427 19.1482 19.6306 19.0876 19.0453 18.4531L17.1945 16.4491C17.0698 16.3142 17 16.1329 17 15.9441V9.05583C17 8.86702 17.0698 8.68572 17.1945 8.55075L19.0453 6.54681C19.6306 5.91256 20.4271 5.85172 21.0491 6.25238ZM20.1961 7.44553C20.1646 7.44955 20.1026 7.46743 20.0206 7.55635L18.3636 9.35037V15.6495L20.0203 17.4432C20.1023 17.5321 20.1646 17.5503 20.1961 17.5544C20.2309 17.5588 20.2797 17.5525 20.3405 17.5133C20.4653 17.4329 20.6364 17.2038 20.6364 16.7985V8.20137C20.6364 7.79605 20.4653 7.56695 20.3405 7.48655C20.2797 7.44734 20.2309 7.4411 20.1961 7.44553Z" fill="#00A881"/>
<path fill-rule="evenodd" clip-rule="evenodd" d="M16.8062 4.19383C17.0646 4.45226 17.0646 4.87127 16.8062 5.1297L3.1297 18.8062C2.87127 19.0646 2.45226 19.0646 2.19383 18.8062C1.93539 18.5477 1.93539 18.1287 2.19383 17.8703L15.8703 4.19383C16.1287 3.93539 16.5477 3.93539 16.8062 4.19383Z" fill="#00A881"/>
</svg>
