<svg width="24" height="24" viewBox="0 0 24 24" fill="none" xmlns="http://www.w3.org/2000/svg">
<path d="M6.75 9.5C6.75 9.08579 7.08579 8.75 7.5 8.75C7.91421 8.75 8.25 9.08579 8.25 9.5C8.25 9.91421 7.91421 10.25 7.5 10.25C7.08579 10.25 6.75 9.91421 6.75 9.5Z" fill="#4E5964"/>
<path fill-rule="evenodd" clip-rule="evenodd" d="M19.6206 3.53229C19.9146 3.24048 19.9163 2.76561 19.6245 2.47163C19.3327 2.17766 18.8578 2.1759 18.5638 2.46771L16.2194 4.79488C15.2694 3.8414 13.9538 3.25 12.5 3.25H7.5C4.60051 3.25 2.25 5.60051 2.25 8.5V15.5C2.25 16.4131 2.48366 17.273 2.89437 18.0218L1.47163 19.434C1.17766 19.7258 1.1759 20.2007 1.46771 20.4947C1.75952 20.7887 2.23439 20.7904 2.52837 20.4986L6.30479 16.75H9C9.41421 16.75 9.75 16.4142 9.75 16C9.75 15.5858 9.41421 15.25 9 15.25H7.81592L19.6206 3.53229ZM7.5 7.25C6.25736 7.25 5.25 8.25736 5.25 9.5C5.25 10.7426 6.25736 11.75 7.5 11.75C8.74264 11.75 9.75 10.7426 9.75 9.5C9.75 8.25736 8.74264 7.25 7.5 7.25Z" fill="#4E5964"/>
<path d="M21.75 7.53623C21.75 6.66909 21.3512 5.90589 20.704 5.51232C20.0198 5.09627 19.1437 5.15944 18.4998 5.81807L16.4639 7.89904C16.3268 8.03919 16.25 8.22747 16.25 8.42354L16.249 15.5C16.249 17.5711 14.5701 19.25 12.499 19.25H7.49903C7.05937 19.25 6.63893 19.1747 6.2489 19.0368C6.119 18.9909 5.99235 18.938 5.86939 18.8785C5.49647 18.6983 5.04801 18.8544 4.86773 19.2274C4.68745 19.6003 4.84362 20.0487 5.21655 20.229C5.38895 20.3124 5.56664 20.3866 5.749 20.451C6.29735 20.6449 6.88673 20.75 7.49903 20.75H12.499C14.8237 20.75 16.7955 19.2391 17.4859 17.1457L18.4998 18.182C19.1437 18.8409 20.0197 18.9039 20.704 18.4877C21.3512 18.0942 21.75 17.331 21.75 16.4638V7.53623Z" fill="#4E5964"/>
</svg>
