<svg width="24" height="24" viewBox="0 0 24 24" fill="none" xmlns="http://www.w3.org/2000/svg">
<path d="M22 16.4638C22 17.7518 20.826 18.466 20.0362 17.6578L18 15.5765V8.42351L20.0362 6.34222C20.826 5.53396 22 6.24817 22 7.5362V16.4638Z" fill="#4E5964" stroke="#4E5964" stroke-width="1.5" stroke-linecap="round" stroke-linejoin="round"/>
<path fill-rule="evenodd" clip-rule="evenodd" d="M2 9.5C2 6.46243 4.46243 4 7.5 4H12.5C15.5376 4 18 6.46243 18 9.5V14.5C18 17.5376 15.5376 20 12.5 20H7.5C4.46243 20 2 17.5376 2 14.5V9.5ZM6.25 16C6.25 15.5858 6.58579 15.25 7 15.25H10C10.4142 15.25 10.75 15.5858 10.75 16C10.75 16.4142 10.4142 16.75 10 16.75H7C6.58579 16.75 6.25 16.4142 6.25 16ZM6.75 9.5C6.75 9.08579 7.08579 8.75 7.5 8.75C7.91421 8.75 8.25 9.08579 8.25 9.5C8.25 9.91421 7.91421 10.25 7.5 10.25C7.08579 10.25 6.75 9.91421 6.75 9.5ZM7.5 7.25C6.25736 7.25 5.25 8.25736 5.25 9.5C5.25 10.7426 6.25736 11.75 7.5 11.75C8.74264 11.75 9.75 10.7426 9.75 9.5C9.75 8.25736 8.74264 7.25 7.5 7.25Z" fill="#4E5964"/>
</svg>
