<svg width="24" height="24" viewBox="0 0 24 24" fill="none" xmlns="http://www.w3.org/2000/svg">
<path fill-rule="evenodd" clip-rule="evenodd" d="M20.2499 7.53646C20.2499 7.1158 20.062 6.87782 19.9248 6.79427C19.8578 6.75355 19.8038 6.74671 19.7656 6.7513C19.7308 6.7555 19.6624 6.77428 19.5722 6.86654L17.749 8.7308V15.2689L19.5722 17.1341L19.6357 17.1908C19.6945 17.2351 19.7395 17.2462 19.7656 17.2494C19.8038 17.2539 19.8578 17.2471 19.9248 17.2064C20.062 17.1228 20.2499 16.8849 20.2499 16.4642V7.53646ZM21.7499 16.4642C21.7499 17.3312 21.351 18.094 20.704 18.4876C20.0198 18.9038 19.1438 18.8409 18.4999 18.182L17.4843 17.1449C16.7941 19.2386 14.8239 20.7503 12.499 20.7503H7.49897C6.88668 20.7503 6.29731 20.6453 5.74897 20.4515C5.35845 20.3135 5.15392 19.885 5.29194 19.4945C5.42998 19.1039 5.85844 18.8994 6.24897 19.0374C6.63895 19.1753 7.05938 19.2503 7.49897 19.2503H12.499C14.57 19.2503 16.249 17.5714 16.249 15.5003V8.50033C16.249 8.4826 16.2497 8.46502 16.2509 8.44759C16.2447 8.25066 16.3152 8.05174 16.4638 7.89974L18.4999 5.81771C19.1438 5.15923 20.02 5.097 20.704 5.51302C21.351 5.90661 21.7499 6.66949 21.7499 7.53646V16.4642Z" fill="#4E5964"/>
<path fill-rule="evenodd" clip-rule="evenodd" d="M19.624 2.47201C19.3321 2.17825 18.8573 2.17636 18.5634 2.4681L16.2177 4.79525C15.2678 3.84223 13.9533 3.25033 12.4999 3.25033H7.49995C4.60045 3.25033 2.24995 5.60083 2.24995 8.50033V15.5003C2.24995 16.4131 2.48408 17.2723 2.89448 18.0208L1.47163 19.4339C1.17765 19.7257 1.17591 20.2015 1.46772 20.4954C1.75947 20.7891 2.23436 20.7909 2.52827 20.4994L19.6201 3.53255C19.914 3.24075 19.9158 2.76598 19.624 2.47201ZM7.49995 11.7503C8.74259 11.7503 9.74995 10.743 9.74995 9.50033C9.7499 8.25772 8.74256 7.25033 7.49995 7.25033C6.25733 7.25033 5.24999 8.25772 5.24995 9.50033C5.24995 10.743 6.25731 11.7503 7.49995 11.7503Z" fill="#4E5964"/>
</svg>
