<svg width="24" height="24" viewBox="0 0 24 24" fill="none" xmlns="http://www.w3.org/2000/svg">
<path fill-rule="evenodd" clip-rule="evenodd" d="M7.5 4C4.46243 4 2 6.46243 2 9.5V14.5C2 17.5376 4.46243 20 7.5 20H12.5C14.9515 20 17.0284 18.3961 17.7386 16.1804L19.5453 17.6578C20.5325 18.466 22 17.7518 22 16.4638V7.5362C22 6.24817 20.5325 5.53396 19.5453 6.34222L17.7386 7.81958C17.0284 5.6039 14.9515 4 12.5 4H7.5ZM7 15.25C6.58579 15.25 6.25 15.5858 6.25 16C6.25 16.4142 6.58579 16.75 7 16.75H10C10.4142 16.75 10.75 16.4142 10.75 16C10.75 15.5858 10.4142 15.25 10 15.25H7ZM7.5 8.75C7.08579 8.75 6.75 9.08579 6.75 9.5C6.75 9.91421 7.08579 10.25 7.5 10.25C7.91421 10.25 8.25 9.91421 8.25 9.5C8.25 9.08579 7.91421 8.75 7.5 8.75ZM5.25 9.5C5.25 8.25736 6.25736 7.25 7.5 7.25C8.74264 7.25 9.75 8.25736 9.75 9.5C9.75 10.7426 8.74264 11.75 7.5 11.75C6.25736 11.75 5.25 10.7426 5.25 9.5Z" fill="#4E5964"/>
</svg>
