<svg width="24" height="24" viewBox="0 0 24 24" fill="none" xmlns="http://www.w3.org/2000/svg">
<path fill-rule="evenodd" clip-rule="evenodd" d="M16.3586 5.5807C15.3658 4.60317 14.0034 4 12.5 4H7.5C4.46243 4 2 6.46243 2 9.5V14.5C2 16.0034 2.60317 17.3658 3.5807 18.3586L16.3586 5.5807ZM4.77951 19.2811C5.58178 19.7386 6.51037 20 7.5 20H12.5C15.5376 20 18 17.5376 18 14.5V9.5C18 8.51037 17.7386 7.58178 17.2811 6.77951L8.81066 15.25H10C10.4142 15.25 10.75 15.5858 10.75 16C10.75 16.4142 10.4142 16.75 10 16.75H7.31066L4.77951 19.2811ZM7.5 8.75C7.08579 8.75 6.75 9.08579 6.75 9.5C6.75 9.91421 7.08579 10.25 7.5 10.25C7.91421 10.25 8.25 9.91421 8.25 9.5C8.25 9.08579 7.91421 8.75 7.5 8.75ZM5.25 9.5C5.25 8.25736 6.25736 7.25 7.5 7.25C8.74264 7.25 9.75 8.25736 9.75 9.5C9.75 10.7426 8.74264 11.75 7.5 11.75C6.25736 11.75 5.25 10.7426 5.25 9.5Z" fill="#4E5964"/>
<path d="M22 16.4638C22 17.7518 20.826 18.466 20.0362 17.6578L18 15.5765V8.42351L20.0362 6.34222C20.826 5.53396 22 6.24817 22 7.5362V16.4638Z" fill="#4E5964" stroke="#4E5964" stroke-width="1.5" stroke-linecap="round" stroke-linejoin="round"/>
<path d="M17.5 3.5L2 19" stroke="#4E5964" stroke-width="1.5" stroke-linecap="round" stroke-linejoin="round"/>
</svg>
