<svg width="24" height="24" viewBox="0 0 24 24" fill="none" xmlns="http://www.w3.org/2000/svg">
<path d="M14.9214 4.10306C14.6424 3.19112 13.9245 2.5507 13.1091 2.33249C12.2767 2.10976 11.3272 2.32891 10.6932 3.13564L9.52539 4.62165C9.22303 5.00639 8.85031 5.1768 8.50869 5.1768H7.5447C4.47421 5.1768 2.25 8.21425 2.25 11.5964V12.2459C2.25 15.6209 4.46956 18.6526 7.53431 18.6526H8.43562C8.8216 18.6526 9.23747 18.8466 9.57004 19.2745L10.7613 20.8072C11.4252 21.6614 12.3932 21.933 13.2724 21.6317C14.1136 21.3434 14.7549 20.5744 14.9667 19.5961C15.0166 19.3654 15.0432 19.1392 15.0641 18.9436L15.0753 18.838C15.0921 18.6786 15.1064 18.5425 15.1283 18.4061C15.9248 13.4508 15.9848 10.3878 15.1405 5.42443C15.1194 5.30077 15.1063 5.18533 15.0909 5.04909C15.0836 4.98504 15.0758 4.91639 15.0664 4.84012C15.0396 4.62253 15.0016 4.3652 14.9214 4.10306Z" fill="#4E5964"/>
<path d="M21.5235 13.5709C21.2272 13.8604 20.7524 13.8549 20.4629 13.5586L19.4705 12.5429L18.4895 13.5014C18.1932 13.7909 17.7184 13.7854 17.4289 13.4891C17.1394 13.1928 17.1449 12.718 17.4412 12.4285L18.4222 11.47L17.4979 10.524C17.2085 10.2277 17.214 9.75284 17.5102 9.46337C17.8065 9.1739 18.2814 9.17941 18.5708 9.47569L19.4952 10.4217L20.4759 9.46355C20.7721 9.17407 21.247 9.17959 21.5365 9.47587C21.8259 9.77214 21.8204 10.247 21.5241 10.5365L20.5434 11.4946L21.5358 12.5103C21.8253 12.8066 21.8197 13.2814 21.5235 13.5709Z" fill="#4E5964"/>
</svg>
