<svg width="24" height="24" viewBox="0 0 24 24" fill="none" xmlns="http://www.w3.org/2000/svg">
<path d="M20.9977 7.92106C20.6833 7.65132 20.2098 7.68748 19.9401 8.00183C19.6704 8.31618 19.7065 8.78967 20.0209 9.05941C20.7374 9.67424 21.25 10.7403 21.25 12.0018C21.25 13.2614 20.7383 14.3268 20.0227 14.9423C19.7087 15.2124 19.673 15.6859 19.9431 16C20.2132 16.314 20.6868 16.3496 21.0008 16.0795C22.082 15.1497 22.75 13.6511 22.75 12.0018C22.75 10.3505 22.0809 8.85058 20.9977 7.92106Z" fill="#4E5964"/>
<path d="M18.6989 9.38861C18.3482 9.16804 17.8852 9.27347 17.6647 9.62407C17.4441 9.97468 17.5495 10.4377 17.9001 10.6583C18.2239 10.8619 18.5249 11.3465 18.5249 12.0026C18.5249 12.6596 18.2234 13.141 17.9037 13.3397C17.5518 13.5583 17.4438 14.0208 17.6624 14.3726C17.8811 14.7244 18.3435 14.8324 18.6953 14.6138C19.5303 14.095 20.0249 13.0837 20.0249 12.0026C20.0249 10.9205 19.5299 9.91139 18.6989 9.38861Z" fill="#4E5964"/>
<path d="M10.3016 5.08499C10.7952 4.54663 11.664 3.59903 11.6641 3.59898C11.6641 3.59899 11.6641 3.59898 11.6641 3.59898C12.6437 2.53046 14.5116 2.98389 15.0365 4.23029C15.2233 4.67389 15.2282 5.1748 15.3211 5.64708C16.2623 10.433 16.197 13.3984 15.3035 18.1956C15.2213 18.6372 15.2102 19.0966 15.0819 19.5271C14.6497 20.9775 12.8402 21.5531 11.7464 20.3469C11.7464 20.3468 10.885 19.397 10.3566 18.8142C9.82813 18.2314 9.10137 17.9025 8.34222 17.9025H7.2907C4.3691 17.9025 2.00067 15.3699 2.00067 12.2459V11.5963C2.00067 8.46507 4.37452 5.92672 7.30282 5.92672C7.30282 5.92672 7.72239 5.92672 8.42747 5.92672C9.13256 5.92672 9.80799 5.62336 10.3016 5.08499Z" fill="#4E5964"/>
</svg>
