<svg width="24" height="24" viewBox="0 0 24 24" fill="none" xmlns="http://www.w3.org/2000/svg">
<path d="M12.6634 3.59899L11.3009 5.08499C10.8073 5.62336 10.1319 5.92672 9.4268 5.92672H8.30215C5.37385 5.92672 3 8.46507 3 11.5963V12.2459C3 15.3699 5.36843 17.9025 8.29003 17.9025H9.34155C10.1007 17.9025 10.8275 18.2314 11.3559 18.8142L12.7457 20.3469C13.8395 21.5531 15.649 20.9775 16.0812 19.5271C16.1611 19.2593 16.1955 18.9803 16.2299 18.7014C16.2508 18.5319 16.2718 18.3625 16.3029 18.1956C17.1964 13.3984 17.2616 10.433 16.3204 5.64709C16.2901 5.49303 16.2692 5.33593 16.2483 5.17877C16.205 4.85412 16.1617 4.5292 16.0358 4.23029C15.5109 2.98389 13.6431 2.53046 12.6634 3.59899Z" fill="#00ABB8"/>
<path d="M20.4365 9.38861C20.0859 9.16805 19.6228 9.27347 19.4023 9.62407C19.1817 9.97468 19.2871 10.4377 19.6377 10.6583C19.9615 10.8619 20.2625 11.3465 20.2625 12.0026C20.2625 12.6596 19.9611 13.141 19.6413 13.3397C19.2895 13.5583 19.1815 14.0208 19.4001 14.3726C19.6187 14.7244 20.0811 14.8324 20.4329 14.6138C21.268 14.095 21.7625 13.0837 21.7625 12.0026C21.7625 10.9205 21.2675 9.91139 20.4365 9.38861Z" fill="#00ABB8"/>
</svg>
