<svg width="24" height="24" viewBox="0 0 24 24" fill="none" xmlns="http://www.w3.org/2000/svg">
<path d="M14.9214 4.10306C14.6424 3.19112 13.9245 2.5507 13.1091 2.33249C12.2767 2.10976 11.3272 2.32891 10.6932 3.13564L9.52539 4.62165C9.22303 5.00639 8.85031 5.1768 8.50869 5.1768H7.5447C4.47421 5.1768 2.25 8.21425 2.25 11.5964V12.2459C2.25 15.6209 4.46956 18.6526 7.53431 18.6526H8.43562C8.8216 18.6526 9.23747 18.8466 9.57004 19.2745L10.7613 20.8072C11.4252 21.6614 12.3932 21.933 13.2724 21.6317C14.1136 21.3434 14.7549 20.5744 14.9667 19.5961C15.0166 19.3654 15.0432 19.1392 15.0641 18.9436L15.0753 18.838C15.0921 18.6786 15.1064 18.5425 15.1283 18.4061C15.9248 13.4508 15.9848 10.3878 15.1405 5.42443C15.1194 5.30077 15.1063 5.18533 15.0909 5.04909C15.0836 4.98504 15.0758 4.91639 15.0664 4.84012C15.0396 4.62253 15.0016 4.3652 14.9214 4.10306Z" fill="#4E5964"/>
<path d="M20.4365 9.38861C20.0859 9.16805 19.6228 9.27347 19.4023 9.62407C19.1817 9.97468 19.2871 10.4377 19.6377 10.6583C19.9615 10.8619 20.2625 11.3465 20.2625 12.0026C20.2625 12.6596 19.9611 13.141 19.6413 13.3397C19.2895 13.5583 19.1815 14.0208 19.4001 14.3726C19.6187 14.7244 20.0811 14.8324 20.4329 14.6138C21.268 14.095 21.7625 13.0837 21.7625 12.0026C21.7625 10.9205 21.2675 9.91139 20.4365 9.38861Z" fill="#4E5964"/>
</svg>
