<svg width="24" height="24" viewBox="0 0 24 24" fill="none" xmlns="http://www.w3.org/2000/svg">
<path d="M11.6634 3.59899L10.3009 5.08499C9.80732 5.62336 9.13189 5.92672 8.4268 5.92672H7.30215C4.37385 5.92672 2 8.46507 2 11.5963V12.2459C2 15.3699 4.36843 17.9025 7.29003 17.9025H8.34155C9.1007 17.9025 9.82746 18.2314 10.3559 18.8142L11.7457 20.3469C12.8395 21.5531 14.649 20.9775 15.0812 19.5271C15.1611 19.2593 15.1955 18.9803 15.2299 18.7014C15.2508 18.5319 15.2718 18.3625 15.3029 18.1956C16.1964 13.3984 16.2616 10.433 15.3204 5.64709C15.2901 5.49303 15.2692 5.33593 15.2483 5.17877C15.205 4.85412 15.1617 4.5292 15.0358 4.23029C14.5109 2.98389 12.6431 2.53046 11.6634 3.59899Z" fill="#4E5964"/>
<path d="M22.2441 12.8652C22.6583 12.8642 22.9933 12.5275 22.9922 12.1133C22.9911 11.6991 22.6545 11.3642 22.2402 11.3652L17.9976 11.3762C17.5834 11.3773 17.2485 11.7139 17.2496 12.1281C17.2506 12.5424 17.5873 12.8773 18.0015 12.8762L22.2441 12.8652Z" fill="#4E5964"/>
</svg>
