<svg width="24" height="24" viewBox="0 0 24 24" fill="none" xmlns="http://www.w3.org/2000/svg">
<path fill-rule="evenodd" clip-rule="evenodd" d="M18.6104 10.6377C18.9484 10.8477 19.2558 11.3411 19.2559 12.0029C19.2559 12.6657 18.9483 13.1564 18.6143 13.3613C18.2612 13.5779 18.1498 14.0395 18.3662 14.3926C18.5827 14.7456 19.0444 14.856 19.3975 14.6397C20.2472 14.1186 20.7559 13.0987 20.7559 12.0029C20.7558 10.9063 20.2471 9.88841 19.4014 9.3633C19.0496 9.14499 18.5877 9.25304 18.3691 9.60451C18.1507 9.95642 18.2584 10.4192 18.6104 10.6377Z" fill="#4E5964"/>
<path d="M12.6484 3.53029C13.6204 2.66319 15.1672 3.1952 15.4004 4.47658C16.3049 9.45154 16.3049 14.5495 15.4004 19.5244C15.1672 20.8058 13.6204 21.3379 12.6484 20.4707L7.80664 16.1504C7.43948 15.8228 6.97493 15.6244 6.48438 15.586L5.79102 15.5313C4.35999 15.4191 3.25592 14.2255 3.25586 12.7901V11.084C3.25586 9.56522 4.48708 8.334 6.00586 8.334H6.40723C6.95969 8.334 7.49303 8.13049 7.90527 7.76272L12.6484 3.53029Z" fill="#4E5964"/>
</svg>
