<svg width="24" height="24" viewBox="0 0 24 24" fill="none" xmlns="http://www.w3.org/2000/svg">
<path d="M14.9214 4.10306C14.6424 3.19112 13.9245 2.5507 13.1091 2.33249C12.2767 2.10976 11.3272 2.32891 10.6932 3.13564L9.52539 4.62165C9.22303 5.00639 8.85031 5.1768 8.50869 5.1768H7.5447C4.47421 5.1768 2.25 8.21425 2.25 11.5964V12.2459C2.25 15.6209 4.46956 18.6526 7.53431 18.6526H8.43562C8.8216 18.6526 9.23747 18.8466 9.57004 19.2745L10.7613 20.8072C11.4252 21.6614 12.3932 21.933 13.2724 21.6317C14.1136 21.3434 14.7549 20.5744 14.9667 19.5961C15.0166 19.3654 15.0432 19.1392 15.0641 18.9436L15.0753 18.838C15.0921 18.6786 15.1064 18.5425 15.1283 18.4061C15.9248 13.4508 15.9848 10.3878 15.1405 5.42443C15.1194 5.30077 15.1063 5.18533 15.0909 5.04909C15.0836 4.98504 15.0758 4.91639 15.0664 4.84012C15.0396 4.62253 15.0016 4.3652 14.9214 4.10306Z" fill="#4E5964"/>
<path d="M21.0001 12.881C21.4118 12.8809 21.7455 12.5431 21.7455 12.1264C21.7454 11.7097 21.4117 11.3719 20.9999 11.372L17.8081 11.372C17.3964 11.372 17.0626 11.7098 17.0627 12.1265C17.0627 12.5432 17.3965 12.881 17.8082 12.881L21.0001 12.881Z" fill="#4E5964"/>
</svg>
