<svg width="24" height="24" viewBox="0 0 24 24" fill="none" xmlns="http://www.w3.org/2000/svg">
<path d="M19.2773 14.2438C19.2783 14.67 19.605 15.0147 20.0068 15.0137C20.4087 15.0128 20.7336 14.6665 20.7326 14.2403L20.7293 12.8904L22.0021 12.8869C22.404 12.8858 22.7288 12.5394 22.7276 12.1132C22.7265 11.687 22.3998 11.3424 21.9979 11.3435L20.7255 11.347L20.7223 9.99764C20.7212 9.57145 20.3946 9.22673 19.9927 9.22771C19.5909 9.22868 19.2659 9.57497 19.267 10.0012L19.2703 11.351L17.9975 11.3545C17.5956 11.3556 17.2708 11.702 17.2719 12.1282C17.2731 12.5544 17.5998 12.899 18.0017 12.8979L19.274 12.8944L19.2773 14.2438Z" fill="#4E5964"/>
<path d="M10.3009 5.08499C10.7945 4.54664 11.6633 3.59905 11.6634 3.59898C11.6634 3.59899 11.6634 3.59898 11.6634 3.59898C12.6431 2.53046 14.5109 2.98389 15.0358 4.23029C15.2226 4.67389 15.2276 5.1748 15.3204 5.64708C16.2616 10.433 16.1964 13.3984 15.3029 18.1956C15.2206 18.6372 15.2095 19.0966 15.0812 19.5271C14.649 20.9775 12.8395 21.5531 11.7457 20.3469C11.7457 20.3469 11.7457 20.3469 11.7457 20.3469C11.7457 20.3468 10.8844 19.397 10.3559 18.8142C9.82746 18.2314 9.1007 17.9025 8.34155 17.9025H7.29003C4.36843 17.9025 2 15.3699 2 12.2459V11.5963C2 8.46507 4.37385 5.92672 7.30215 5.92672C7.30215 5.92672 7.72172 5.92672 8.4268 5.92672C9.13189 5.92672 9.80732 5.62336 10.3009 5.08499Z" fill="#4E5964"/>
</svg>
