<svg width="24" height="24" viewBox="0 0 24 24" fill="none" xmlns="http://www.w3.org/2000/svg">
<path d="M14.9214 4.10282C14.6424 3.19087 13.9245 2.55046 13.1091 2.33225C12.2767 2.10952 11.3272 2.32867 10.6932 3.1354L9.52539 4.62141C9.22303 5.00614 8.85031 5.17656 8.50869 5.17656H7.5447C4.47421 5.17656 2.25 8.214 2.25 11.5961V12.2457C2.25 15.6207 4.46956 18.6523 7.53431 18.6523H8.43562C8.8216 18.6523 9.23747 18.8464 9.57004 19.2743L10.7613 20.807C11.4252 21.6612 12.3932 21.9328 13.2724 21.6315C14.1136 21.3432 14.7549 20.5741 14.9667 19.5958C15.0166 19.3652 15.0432 19.1389 15.0641 18.9434L15.0753 18.8378C15.0921 18.6783 15.1064 18.5422 15.1283 18.4059C15.9248 13.4505 15.9848 10.3875 15.1405 5.42418C15.1194 5.30053 15.1063 5.18508 15.0909 5.04885C15.0836 4.98479 15.0758 4.91614 15.0664 4.83988C15.0396 4.62229 15.0016 4.36496 14.9214 4.10282Z" fill="#4E5964"/>
<path d="M19.9406 8.00159C20.2103 7.68724 20.6838 7.65108 20.9982 7.92081C22.0814 8.85034 22.7505 10.3503 22.7505 12.0016C22.7505 13.6509 22.0825 15.1494 21.0013 16.0793C20.6873 16.3494 20.2137 16.3138 19.9436 15.9997C19.6735 15.6857 19.7092 15.2121 20.0232 14.9421C20.7388 14.3266 21.2505 13.2611 21.2505 12.0016C21.2505 10.7401 20.7379 9.674 20.0214 9.05917C19.707 8.78943 19.6709 8.31593 19.9406 8.00159Z" fill="#4E5964"/>
<path d="M17.665 9.62383C17.8855 9.27322 18.3486 9.1678 18.6992 9.38836C19.5302 9.91115 20.0252 10.9203 20.0252 12.0023C20.0252 13.0834 19.5306 14.0947 18.6956 14.6136C18.3438 14.8322 17.8814 14.7242 17.6628 14.3723C17.4442 14.0205 17.5522 13.5581 17.904 13.3395C18.2238 13.1408 18.5252 12.6594 18.5252 12.0023C18.5252 11.3463 18.2242 10.8617 17.9004 10.658C17.5498 10.4375 17.4444 9.97444 17.665 9.62383Z" fill="#4E5964"/>
</svg>
