<svg width="24" height="24" viewBox="0 0 24 24" fill="none" xmlns="http://www.w3.org/2000/svg">
<path fill-rule="evenodd" clip-rule="evenodd" d="M18.5537 9.47658C18.2642 9.18032 17.7894 9.17442 17.4932 9.46389C17.1969 9.75336 17.192 10.2282 17.4814 10.5244L18.4395 11.5049L17.459 12.4639C17.1627 12.7534 17.1568 13.2282 17.4463 13.5244C17.7357 13.8206 18.2106 13.8264 18.5068 13.5371L19.4873 12.5781L20.4463 13.5596C20.7358 13.8556 21.2107 13.8607 21.5068 13.5713C21.8029 13.2818 21.8079 12.807 21.5186 12.5108L20.5605 11.5293L21.541 10.5713C21.8373 10.2818 21.8432 9.80704 21.5537 9.51076C21.2642 9.21474 20.7894 9.20965 20.4932 9.49904L19.5117 10.4571L18.5537 9.47658Z" fill="#4E5964"/>
<path d="M11.625 3.53029C12.5969 2.66319 14.1437 3.1952 14.377 4.47658C15.2815 9.45154 15.2815 14.5495 14.377 19.5244C14.1438 20.8058 12.5969 21.3379 11.625 20.4707L6.7832 16.1504C6.41604 15.8228 5.9515 15.6244 5.46094 15.586L4.76758 15.5313C3.33656 15.4191 2.23248 14.2255 2.23242 12.7901V11.084C2.23242 9.56522 3.46364 8.334 4.98242 8.334H5.38379C5.93625 8.334 6.46959 8.13049 6.88184 7.76272L11.625 3.53029Z" fill="#4E5964"/>
</svg>
