<svg width="24" height="24" viewBox="0 0 24 24" fill="none" xmlns="http://www.w3.org/2000/svg">
<path d="M18.9654 12.965L22 10" stroke="#00A881" stroke-width="1.5" stroke-miterlimit="10" stroke-linecap="round" stroke-linejoin="round"/>
<path d="M21.9652 12.9998L19.0002 9.96516" stroke="#00A881" stroke-width="1.5" stroke-miterlimit="10" stroke-linecap="round" stroke-linejoin="round"/>
<path d="M10.3009 5.08499C10.7945 4.54663 11.6633 3.59903 11.6634 3.59899C11.6634 3.59898 11.6634 3.59899 11.6634 3.59898C12.6431 2.53046 14.5109 2.98389 15.0358 4.23029C15.2226 4.6739 15.2276 5.1748 15.3204 5.64709C16.2616 10.433 16.1964 13.3984 15.3029 18.1956C15.2206 18.6372 15.2095 19.0966 15.0812 19.5271C14.649 20.9775 12.8395 21.5531 11.7457 20.3469C11.7457 20.3469 11.7457 20.3469 11.7457 20.3469C11.7457 20.3468 10.8844 19.397 10.3559 18.8142C9.82746 18.2314 9.1007 17.9025 8.34155 17.9025H7.29003C4.36843 17.9025 2 15.3699 2 12.2459V11.5963C2 8.46507 4.37385 5.92672 7.30215 5.92672C7.30215 5.92672 7.72172 5.92672 8.4268 5.92672C9.13189 5.92672 9.80732 5.62336 10.3009 5.08499Z" fill="#00A881"/>
</svg>
