<svg width="24" height="24" viewBox="0 0 24 24" fill="none" xmlns="http://www.w3.org/2000/svg">
<path fill-rule="evenodd" clip-rule="evenodd" d="M16.1091 2.33249C16.9245 2.5507 17.6424 3.19112 17.9214 4.10306C18.0016 4.3652 18.0396 4.62253 18.0664 4.84012C18.0758 4.91639 18.0836 4.98504 18.0909 5.04909C18.1063 5.18533 18.1194 5.30077 18.1405 5.42443C18.9848 10.3878 18.9248 13.4508 18.1283 18.4061C18.1064 18.5425 18.0921 18.6786 18.0753 18.838C18.0717 18.8721 18.068 18.9072 18.0641 18.9436C18.0432 19.1392 18.0166 19.3654 17.9667 19.5961C17.7549 20.5744 17.1136 21.3434 16.2724 21.6317C15.3932 21.933 14.4252 21.6614 13.7613 20.8072L12.57 19.2745C12.2375 18.8466 11.8216 18.6526 11.4356 18.6526H10.5343C7.46956 18.6526 5.25 15.6209 5.25 12.2459V11.5964C5.25 8.21425 7.47421 5.1768 10.5447 5.1768H11.5087C11.8503 5.1768 12.223 5.00639 12.5254 4.62165L13.6932 3.13564C14.3272 2.32891 15.2767 2.10976 16.1091 2.33249Z" fill="#4E5964"/>
</svg>
