<svg width="24" height="24" viewBox="0 0 24 24" fill="none" xmlns="http://www.w3.org/2000/svg">
<path d="M18.2995 13.9768C18.8769 13.618 19.2749 12.8717 19.2749 12.0026C19.2749 11.1335 18.8769 10.3867 18.2995 10.0234" stroke="#4E5964" stroke-width="1.5" stroke-linecap="round" stroke-linejoin="round"/>
<path d="M20.5118 15.5109C21.4102 14.7382 22 13.4562 22 12.0018C22 10.5454 21.4092 9.26241 20.5093 8.49023" stroke="#4E5964" stroke-width="1.5" stroke-linecap="round" stroke-linejoin="round"/>
<path d="M10.3016 5.08499C10.7952 4.54663 11.664 3.59903 11.6641 3.59899C11.6641 3.59898 11.6641 3.59899 11.6641 3.59898C12.6437 2.53046 14.5116 2.98389 15.0365 4.23029C15.2233 4.6739 15.2282 5.1748 15.3211 5.64709C16.2623 10.433 16.197 13.3984 15.3035 18.1956C15.2213 18.6372 15.2102 19.0966 15.0819 19.5271C14.6497 20.9775 12.8402 21.5531 11.7464 20.3469C11.7464 20.3469 11.7464 20.3469 11.7464 20.3469C11.7464 20.3468 10.885 19.397 10.3566 18.8142C9.82813 18.2314 9.10137 17.9025 8.34222 17.9025H7.2907C4.3691 17.9025 2.00067 15.3699 2.00067 12.2459V11.5963C2.00067 8.46507 4.37452 5.92672 7.30282 5.92672C7.30282 5.92672 7.72239 5.92672 8.42747 5.92672C9.13256 5.92672 9.80799 5.62336 10.3016 5.08499Z" fill="#4E5964" stroke="#4E5964" stroke-width="1.5"/>
</svg>
