<svg width="24" height="24" viewBox="0 0 24 24" fill="none" xmlns="http://www.w3.org/2000/svg">
<path fill-rule="evenodd" clip-rule="evenodd" d="M20.0479 9.99904C20.047 9.58483 19.7101 9.24921 19.2959 9.25002C18.8819 9.25108 18.547 9.58791 18.5479 10.002L18.5498 11.3731L17.1787 11.376C16.7648 11.3771 16.4301 11.7131 16.4307 12.127C16.4315 12.5412 16.7684 12.8768 17.1826 12.876L18.5527 12.8731L18.5557 14.2442C18.5565 14.6584 18.8934 14.994 19.3076 14.9932C19.7218 14.9924 20.0565 14.6554 20.0557 14.2412L20.0527 12.8701L21.4248 12.8672C21.839 12.8664 22.1736 12.5304 22.1729 12.1162C22.172 11.702 21.8361 11.3664 21.4219 11.3672L20.0498 11.3701L20.0479 9.99904Z" fill="#4E5964"/>
<path d="M11.8223 3.53029C12.7942 2.66319 14.341 3.1952 14.5742 4.47658C15.4788 9.45154 15.4788 14.5495 14.5742 19.5244C14.341 20.8058 12.7942 21.3379 11.8223 20.4707L6.98047 16.1504C6.61331 15.8228 6.14876 15.6244 5.6582 15.586L4.96484 15.5313C3.53382 15.4191 2.42975 14.2255 2.42969 12.7901V11.084C2.42969 9.56522 3.6609 8.334 5.17969 8.334H5.58105C6.13351 8.334 6.66685 8.13049 7.0791 7.76272L11.8223 3.53029Z" fill="#4E5964"/>
</svg>
