<svg width="24" height="24" viewBox="0 0 24 24" fill="none" xmlns="http://www.w3.org/2000/svg">
<path d="M14.9214 4.10306C14.6424 3.19112 13.9245 2.5507 13.1091 2.33249C12.2767 2.10976 11.3272 2.32891 10.6932 3.13564L9.52539 4.62165C9.22303 5.00639 8.85031 5.1768 8.50869 5.1768H7.5447C4.47421 5.1768 2.25 8.21425 2.25 11.5964V12.2459C2.25 15.6209 4.46956 18.6526 7.53431 18.6526H8.43562C8.8216 18.6526 9.23747 18.8466 9.57004 19.2745L10.7613 20.8072C11.4252 21.6614 12.3932 21.933 13.2724 21.6317C14.1136 21.3434 14.7549 20.5744 14.9667 19.5961C15.0166 19.3654 15.0432 19.1392 15.0641 18.9436L15.0753 18.838C15.0921 18.6786 15.1064 18.5425 15.1283 18.4061C15.9248 13.4508 15.9848 10.3878 15.1405 5.42443C15.1194 5.30077 15.1063 5.18533 15.0909 5.04909C15.0836 4.98504 15.0758 4.91639 15.0664 4.84012C15.0396 4.62253 15.0016 4.3652 14.9214 4.10306Z" fill="#4E5964"/>
<path d="M20.2285 9.3598C20.2277 8.94559 19.8912 8.61046 19.477 8.61127C19.0628 8.61208 18.7277 8.94852 18.7285 9.36274L18.7312 10.7341L17.3599 10.7367C16.9456 10.7376 16.6105 11.074 16.6113 11.4882C16.6121 11.9024 16.9486 12.2375 17.3628 12.2367L18.7341 12.2341L18.7368 13.6054C18.7376 14.0196 19.0741 14.3547 19.4883 14.3539C19.9025 14.3531 20.2376 14.0166 20.2368 13.6024L20.2341 12.2311L21.6054 12.2284C22.0196 12.2276 22.3548 11.8912 22.354 11.477C22.3531 11.0627 22.0167 10.7276 21.6025 10.7284L20.2312 10.7311L20.2285 9.3598Z" fill="#4E5964"/>
</svg>
