<svg width="24" height="24" viewBox="0 0 24 24" fill="none" xmlns="http://www.w3.org/2000/svg">
<path fill-rule="evenodd" clip-rule="evenodd" d="M19.0586 8.60622C20.074 9.3463 20.75 10.5842 20.75 12.0017C20.75 13.4172 20.0745 14.6536 19.0605 15.3943C18.7261 15.6387 18.6532 16.1087 18.8975 16.4431C19.1417 16.7773 19.6109 16.8501 19.9453 16.6062C21.342 15.586 22.25 13.9009 22.25 12.0017C22.25 10.1002 21.3406 8.41403 19.9414 7.39431C19.6067 7.15047 19.1375 7.22367 18.8936 7.55837C18.6496 7.89312 18.7239 8.36227 19.0586 8.60622ZM17.1045 10.6375C17.4426 10.8474 17.75 11.3408 17.75 12.0027C17.75 12.6654 17.4424 13.1561 17.1084 13.3611C16.7553 13.5776 16.6439 14.0393 16.8604 14.3924C17.0768 14.7454 17.5385 14.8558 17.8916 14.6394C18.7414 14.1183 19.25 13.0985 19.25 12.0027C19.25 10.906 18.7413 9.88816 17.8955 9.36306C17.5438 9.14475 17.0819 9.25279 16.8633 9.60427C16.6448 9.95617 16.7526 10.419 17.1045 10.6375Z" fill="#4E5964"/>
<path d="M12.1426 3.53005C13.1145 2.66294 14.6613 3.19496 14.8945 4.47634C15.7991 9.45129 15.7991 14.5492 14.8945 19.5242C14.6613 20.8056 13.1145 21.3376 12.1426 20.4705L7.30078 16.1502C6.93362 15.8226 6.46907 15.6242 5.97852 15.5857L5.28516 15.531C3.85413 15.4189 2.75006 14.2252 2.75 12.7898V11.0838C2.75 9.56498 3.98122 8.33376 5.5 8.33376H5.90137C6.45383 8.33376 6.98717 8.13025 7.39941 7.76247L12.1426 3.53005Z" fill="#4E5964"/>
</svg>
