<svg width="24" height="24" viewBox="0 0 24 24" fill="none" xmlns="http://www.w3.org/2000/svg">
<path fill-rule="evenodd" clip-rule="evenodd" d="M21.8691 12.1162C21.8683 11.702 21.5324 11.3674 21.1182 11.3682L16.875 11.376C16.461 11.3771 16.1261 11.7139 16.127 12.1279C16.128 12.542 16.4648 12.8768 16.8789 12.876L21.1211 12.8682C21.5353 12.8674 21.87 12.5304 21.8691 12.1162Z" fill="#4E5964"/>
<path d="M11.5195 3.53029C12.4914 2.66319 14.0383 3.1952 14.2715 4.47658C15.176 9.45154 15.176 14.5495 14.2715 19.5244C14.0383 20.8058 12.4915 21.3379 11.5195 20.4707L6.67773 16.1504C6.31057 15.8228 5.84603 15.6244 5.35547 15.586L4.66211 15.5313C3.23109 15.4191 2.12702 14.2255 2.12695 12.7901V11.084C2.12695 9.56522 3.35817 8.334 4.87695 8.334H5.27832C5.83078 8.334 6.36412 8.13049 6.77637 7.76272L11.5195 3.53029Z" fill="#4E5964"/>
</svg>
