<svg width="24" height="24" viewBox="0 0 24 24" fill="none" xmlns="http://www.w3.org/2000/svg">
<path d="M13.3009 5.08499C13.7945 4.54663 14.6633 3.59903 14.6634 3.59898C14.6634 3.59899 14.6634 3.59898 14.6634 3.59898C15.6431 2.53046 17.5109 2.98389 18.0358 4.23029C18.2226 4.67389 18.2276 5.1748 18.3204 5.64708C19.2616 10.433 19.1964 13.3984 18.3029 18.1956C18.2206 18.6372 18.2095 19.0966 18.0812 19.5271C17.649 20.9775 15.8395 21.5531 14.7457 20.3469C14.7457 20.3469 14.7457 20.3469 14.7457 20.3469C14.7457 20.3468 13.8844 19.397 13.3559 18.8142C12.8275 18.2314 12.1007 17.9025 11.3416 17.9025H10.29C7.36843 17.9025 5 15.3699 5 12.2459V11.5963C5 8.46507 7.37385 5.92672 10.3021 5.92672C10.3021 5.92672 10.7217 5.92672 11.4268 5.92672C12.1319 5.92672 12.8073 5.62336 13.3009 5.08499Z" fill="#00A881"/>
</svg>
