<svg width="24" height="24" viewBox="0 0 24 24" fill="none" xmlns="http://www.w3.org/2000/svg">
<path fill-rule="evenodd" clip-rule="evenodd" d="M11.6634 3.59899L10.3009 5.08499C9.80732 5.62336 9.13189 5.92672 8.4268 5.92672H7.30215C4.37385 5.92672 2 8.46507 2 11.5963V12.2459C2 15.3699 4.36843 17.9025 7.29003 17.9025H8.34155C9.1007 17.9025 9.82746 18.2314 10.3559 18.8142L11.7457 20.3469C12.8395 21.5531 14.649 20.9775 15.0812 19.5271C15.1611 19.2593 15.1955 18.9803 15.2299 18.7014C15.2508 18.5319 15.2718 18.3625 15.3029 18.1956C16.1964 13.3984 16.2616 10.433 15.3204 5.64709C15.2901 5.49303 15.2692 5.33593 15.2483 5.17877C15.205 4.85412 15.1617 4.5292 15.0358 4.23029C14.5109 2.98389 12.6431 2.53046 11.6634 3.59899ZM22.4893 13.5363C22.193 13.8257 21.7182 13.8202 21.4287 13.5239L20.4704 12.5431L19.4895 13.5014C19.1932 13.7909 18.7184 13.7854 18.4289 13.4891C18.1394 13.1928 18.1449 12.718 18.4412 12.4285L19.4221 11.4702L18.4637 10.4893C18.1743 10.193 18.1798 9.71817 18.4761 9.4287C18.7723 9.13923 19.2472 9.14475 19.5367 9.44102L20.495 10.4219L21.4759 9.46355C21.7721 9.17407 22.247 9.17959 22.5365 9.47587C22.8259 9.77214 22.8204 10.247 22.5241 10.5365L21.5433 11.4948L22.5016 12.4757C22.7911 12.7719 22.7856 13.2468 22.4893 13.5363Z" fill="#00A881"/>
</svg>
