<svg width="24" height="24" viewBox="0 0 24 24" fill="none" xmlns="http://www.w3.org/2000/svg">
<path d="M21.273 2.81841C21.3733 2.41656 21.7803 2.17219 22.1821 2.27252C22.584 2.37287 22.8284 2.77984 22.728 3.1817L18.2329 21.1817C18.1514 21.5082 17.8623 21.7408 17.5259 21.7501C17.1896 21.7592 16.888 21.5431 16.7886 21.2217L11.9868 5.6983L7.00049 21.2295C6.89767 21.5496 6.59422 21.7616 6.25831 21.7491C5.92243 21.7366 5.63591 21.5026 5.55713 21.1758L1.271 3.37994C1.17403 2.97728 1.42209 2.5717 1.82471 2.47466C2.22741 2.37768 2.63301 2.62568 2.72999 3.02838L6.38917 18.2247L11.2866 2.97466L11.3325 2.86236C11.4597 2.61346 11.7181 2.45267 12.0044 2.45416C12.3318 2.45591 12.6206 2.66974 12.7173 2.98248L17.4282 18.212L21.273 2.81841Z" fill="#4E5964"/>
</svg>
