<svg width="24" height="24" viewBox="0 0 24 24" fill="none" xmlns="http://www.w3.org/2000/svg">
<path fill-rule="evenodd" clip-rule="evenodd" d="M1.25 11.6446V10.0319C1.25 7.45209 2.83504 5.13739 5.2403 4.20467L11.3673 1.82872C12.5142 1.38395 13.75 2.23017 13.75 3.46034V7.99998H16.5C19.4538 7.99998 21.8637 10.3284 21.9944 13.25H19C17.4812 13.25 16.25 14.4812 16.25 16C16.25 17.5188 17.4812 18.75 19 18.75H21.5202C20.6603 20.6657 18.7359 22 16.5 22H6.5C3.46243 22 1 19.5375 1 16.5V13.25C1 12.69 1.08766 12.1506 1.25 11.6446ZM11.9096 3.22725C12.0735 3.16371 12.25 3.2846 12.25 3.46034V7.99998H6.25C4.93362 7.99998 3.7304 8.48446 2.80891 9.28485C3.07123 7.63477 4.19049 6.2206 5.78263 5.60319L11.9096 3.22725ZM7 11.25C6.58579 11.25 6.25 11.5858 6.25 12C6.25 12.4142 6.58579 12.75 7 12.75H12C12.4142 12.75 12.75 12.4142 12.75 12C12.75 11.5858 12.4142 11.25 12 11.25H7Z" fill="#00ABB8"/>
<path fill-rule="evenodd" clip-rule="evenodd" d="M19 14.75H22V16.5C22 16.7544 21.9827 17.0048 21.9493 17.25H19C18.3096 17.25 17.75 16.6903 17.75 16C17.75 15.3096 18.3096 14.75 19 14.75ZM19 15.25C18.5858 15.25 18.25 15.5858 18.25 16C18.25 16.4142 18.5858 16.75 19 16.75H19.5C19.9142 16.75 20.25 16.4142 20.25 16C20.25 15.5858 19.9142 15.25 19.5 15.25H19Z" fill="#00ABB8"/>
</svg>
