<svg width="24" height="24" viewBox="0 0 24 24" fill="none" xmlns="http://www.w3.org/2000/svg">
<path fill-rule="evenodd" clip-rule="evenodd" d="M2.32441 14.7163C2.32428 14.7109 2.32422 14.7054 2.32422 14.6999V10.0871C2.32422 7.84609 3.6544 5.8189 5.71019 4.92689L11.4723 2.42667C12.5124 1.97538 13.6742 2.73775 13.6742 3.87152V7.72503H16.9494C19.559 7.72503 21.6744 9.84049 21.6744 12.45V13.2499H18.9992C17.4804 13.2499 16.2492 14.4812 16.2492 15.9999C16.2492 17.5187 17.4804 18.7499 18.9992 18.7499H21.3195C20.6117 20.4667 18.9216 21.675 16.9494 21.675H7.04941C4.43987 21.675 2.32441 19.5596 2.32441 16.95V14.7163ZM12.0097 3.66512C12.1582 3.60064 12.3242 3.70956 12.3242 3.87152V7.72503H7.04941C5.79681 7.72503 4.65806 8.21245 3.81246 9.00796C4.13916 7.75564 5.02435 6.69608 6.24756 6.16533L12.0097 3.66512ZM6.99922 11.2499C6.58501 11.2499 6.24922 11.5857 6.24922 11.9999C6.24922 12.4141 6.58501 12.7499 6.99922 12.7499H11.9992C12.4134 12.7499 12.7492 12.4141 12.7492 11.9999C12.7492 11.5857 12.4134 11.2499 11.9992 11.2499H6.99922Z" fill="#4E5964"/>
<path fill-rule="evenodd" clip-rule="evenodd" d="M18.9992 14.7499H21.6744V16.95C21.6744 17.0508 21.6713 17.1508 21.665 17.2499H18.9992C18.3089 17.2499 17.7492 16.6903 17.7492 15.9999C17.7492 15.3096 18.3089 14.7499 18.9992 14.7499Z" fill="#4E5964"/>
</svg>
