<svg width="24" height="24" viewBox="0 0 24 24" fill="none" xmlns="http://www.w3.org/2000/svg">
<path fill-rule="evenodd" clip-rule="evenodd" d="M8.12263 4.1551C8.62405 2.98556 10.2597 3.0713 10.7232 4.19086L12.5358 8.56945L13.7706 6.42867C14.2396 5.43006 15.6861 5.47389 16.119 6.47958L19.6306 14.1958L19.6345 14.205C21.2578 18.0656 17.32 21.7013 13.5106 20.0681C13.273 19.9663 13.0475 19.8475 12.835 19.7138L12.8273 19.709L12.6994 19.6265C11.2384 20.6958 9.23289 21.0663 7.24966 20.216C4.45901 19.0196 3.11882 15.8265 4.30236 13.0659L8.12263 4.1551ZM13.7276 18.649C13.8432 18.7213 13.8725 18.7334 13.9572 18.7683C13.9824 18.7787 14.0124 18.791 14.051 18.8076C16.8203 19.9949 19.469 17.3696 18.3739 14.7454L14.9264 7.1699L13.1974 10.1675L14.4774 13.2594C15.3097 15.2699 14.8683 17.2427 13.7276 18.649ZM8.47651 14.1082C8.50676 13.6951 8.19638 13.3356 7.78327 13.3054C7.37017 13.2752 7.01076 13.5855 6.98052 13.9986C6.91516 14.8915 7.29385 16.8487 9.33495 17.6993C9.7173 17.8586 10.1564 17.6778 10.3157 17.2955C10.4751 16.9131 10.2943 16.474 9.91193 16.3147C8.67519 15.7993 8.43939 14.6153 8.47651 14.1082Z" fill="#4E5964"/>
</svg>
