<svg width="24" height="24" viewBox="0 0 24 24" fill="none" xmlns="http://www.w3.org/2000/svg">
<path d="M8.75 7.30005C8.75 6.88584 8.41421 6.55005 8 6.55005C7.58579 6.55005 7.25 6.88584 7.25 7.30005L7.25 17.7C7.25 18.1143 7.58579 18.45 8 18.45C8.41421 18.45 8.75 18.1143 8.75 17.7L8.75 7.30005Z" fill="#4E5964"/>
<path d="M4 10.0167C4.41421 10.0167 4.75 10.3525 4.75 10.7667L4.75 14.2334C4.75 14.6476 4.41421 14.9834 4 14.9834C3.58579 14.9834 3.25 14.6476 3.25 14.2334V10.7667C3.25 10.3525 3.58579 10.0167 4 10.0167Z" fill="#4E5964"/>
<path d="M16 11.1722C16.4142 11.1722 16.75 11.508 16.75 11.9222V13.0778C16.75 13.492 16.4142 13.8278 16 13.8278C15.5858 13.8278 15.25 13.492 15.25 13.0778V11.9222C15.25 11.508 15.5858 11.1722 16 11.1722Z" fill="#4E5964"/>
<path d="M20 10.0167C20.4142 10.0167 20.75 10.3525 20.75 10.7667V14.2334C20.75 14.6476 20.4142 14.9834 20 14.9834C19.5858 14.9834 19.25 14.6476 19.25 14.2334V10.7667C19.25 10.3525 19.5858 10.0167 20 10.0167Z" fill="#4E5964"/>
<path d="M12.75 9.61121C12.75 9.19699 12.4142 8.86121 12 8.86121C11.5858 8.86121 11.25 9.19699 11.25 9.61121V15.389C11.25 15.8032 11.5858 16.139 12 16.139C12.4142 16.139 12.75 15.8032 12.75 15.389V9.61121Z" fill="#4E5964"/>
</svg>
