<svg width="24" height="24" viewBox="0 0 24 24" fill="none" xmlns="http://www.w3.org/2000/svg">
<path d="M8.55371 17.1464C8.53396 17.1714 8.51587 17.1924 8.49902 17.2089C8.48131 17.1915 8.46218 17.1692 8.44141 17.1425L7.56738 15.789L7.60645 15.8056C8.17625 16.0519 8.82283 16.052 9.39258 15.8056L9.43164 15.788L8.55371 17.1464Z" fill="#4E5964"/>
<path d="M8.49902 11.7519C8.50975 11.7578 8.53507 11.7754 8.56543 11.8154L10.1162 13.8584L8.79688 14.4287C8.60711 14.5107 8.39196 14.5116 8.20215 14.4296L6.88281 13.8593L8.43457 11.8154C8.46419 11.7764 8.48788 11.7582 8.49902 11.7519Z" fill="#4E5964"/>
<path fill-rule="evenodd" clip-rule="evenodd" d="M11.3965 2.3603C12.5793 1.91631 13.75 2.84068 13.75 4.04097V7.24995H16.5C19.3995 7.24995 21.75 9.60046 21.75 12.5V13.25H18C16.4812 13.25 15.25 14.4812 15.25 16C15.25 17.5187 16.4812 18.75 18 18.75H21.2441C20.4015 20.5235 18.5942 21.75 16.5 21.75H7.5C4.60052 21.75 2.25003 19.3994 2.25 16.5V10.33C2.2501 7.62198 3.88322 5.18122 6.36914 4.248L11.3965 2.3603ZM8.5 10.25C7.97511 10.25 7.52955 10.5257 7.23926 10.9082L5.67676 12.9677C5.38968 13.3462 5.25 13.8255 5.25 14.2949C5.25007 14.7457 5.38115 15.2035 5.64551 15.5742L5.64453 15.5751L7.20703 17.9951C7.21729 18.0109 7.22783 18.0269 7.23926 18.0419C7.46636 18.3411 7.89946 18.75 8.5 18.75C9.10076 18.75 9.53297 18.3407 9.75977 18.0419C9.77121 18.0269 9.7827 18.011 9.79297 17.9951L11.3555 15.5742L11.3545 15.5732C11.6189 15.2024 11.7499 14.7446 11.75 14.2939C11.75 13.8242 11.6095 13.3451 11.3223 12.9667L9.75977 10.9082C9.50552 10.5733 9.13303 10.3206 8.69238 10.2626L8.5 10.25ZM11.9238 3.7646L6.89648 5.6523C5.58558 6.14439 4.57066 7.2042 4.07812 8.51948C4.99718 7.72867 6.19244 7.24995 7.5 7.24995H12.25V4.04097C12.25 3.92769 12.1986 3.84414 12.1328 3.79585C12.0683 3.74871 11.9961 3.73747 11.9238 3.7646Z" fill="#4E5964"/>
<path fill-rule="evenodd" clip-rule="evenodd" d="M21.75 16.5C21.75 16.7547 21.7304 17.0049 21.6953 17.25H18C17.3097 17.25 16.75 16.6903 16.75 16C16.75 15.3096 17.3096 14.75 18 14.75H21.75V16.5ZM18 15.25C17.5858 15.25 17.25 15.5857 17.25 16C17.25 16.4141 17.5858 16.75 18 16.75H18.5C18.9142 16.75 19.25 16.4141 19.25 16C19.25 15.5857 18.9142 15.25 18.5 15.25H18Z" fill="#4E5964"/>
</svg>
