<svg width="24" height="24" viewBox="0 0 24 24" fill="none" xmlns="http://www.w3.org/2000/svg">
<path d="M17.376 2.58405C17.6058 2.2394 18.0714 2.14628 18.4161 2.37604C18.7607 2.60581 18.8539 3.07144 18.6241 3.41608L12.9014 12.0001L18.6241 20.5841C18.8539 20.9287 18.7607 21.3943 18.4161 21.6241C18.0714 21.8539 17.6058 21.7607 17.376 21.4161L12.0001 13.3516L6.62409 21.4161C6.39433 21.7607 5.9287 21.8539 5.58405 21.6241C5.2394 21.3943 5.14628 20.9287 5.37604 20.5841L11.0987 12.0001L5.37604 3.41608C5.14628 3.07144 5.23941 2.60581 5.58405 2.37604C5.9287 2.14628 6.39433 2.23941 6.62409 2.58405L12.0001 10.6475L17.376 2.58405Z" fill="#4E5964"/>
</svg>
