<svg width="24" height="24" viewBox="0 0 24 24" fill="none" xmlns="http://www.w3.org/2000/svg">
<path d="M16.5 2.25C16.7679 2.25 17.0154 2.39298 17.1494 2.625C17.2834 2.85705 17.2834 3.14295 17.1494 3.375L7.29883 20.4365H16.5C16.9142 20.4365 17.25 20.7723 17.25 21.1865C17.25 21.6007 16.9142 21.9365 16.5 21.9365H6C5.73207 21.9365 5.48457 21.7936 5.35059 21.5615C5.21661 21.3295 5.21661 21.0436 5.35059 20.8115L15.2012 3.75H6C5.58579 3.75 5.25 3.41421 5.25 3C5.25 2.58579 5.58579 2.25 6 2.25H16.5Z" fill="#4E5964"/>
</svg>
