<svg width="24" height="24" viewBox="0 0 24 24" fill="none" xmlns="http://www.w3.org/2000/svg">
<path d="M15.3213 14.3214V15.25H17.2499V14.3214L15.3213 14.3214Z" fill="#4E5964"/>
<path fill-rule="evenodd" clip-rule="evenodd" d="M7.25 2.25585C4.46659 2.38634 2.25 4.68431 2.25 7.5V16.5C2.25 19.3995 4.60051 21.75 7.5 21.75H16.5C19.3995 21.75 21.75 19.3995 21.75 16.5V8.72019C21.7277 8.72596 21.7084 8.72998 21.6931 8.73289C21.6171 8.74727 21.5489 8.74999 21.5 8.74999L15.3933 8.74999C14.8957 8.74999 14.25 8.38968 14.25 7.67222V2.5C14.25 2.44432 14.2542 2.35337 14.2838 2.25H8.75V5.25H9C9.41421 5.25 9.75 5.58578 9.75 6C9.75 6.41421 9.41421 6.75 9 6.75H8.75V7.25H9C9.41421 7.25 9.75 7.58579 9.75 8C9.75 8.41421 9.41421 8.75 9 8.75H8.75V9C8.75 9.41421 8.41421 9.75 8 9.75C7.58579 9.75 7.25 9.41421 7.25 9V7.75H7C6.58579 7.75 6.25 7.41421 6.25 7C6.25 6.58579 6.58579 6.25 7 6.25H7.25V5.75H7C6.58579 5.75 6.25 5.41421 6.25 5C6.25 4.58579 6.58579 4.25 7 4.25H7.25V2.25585ZM6 12.8214C5.58579 12.8214 5.25 13.1572 5.25 13.5714C5.25 13.9856 5.58579 14.3214 6 14.3214H7.8681L5.63716 17.1101C5.15451 17.7134 5.58405 18.6071 6.35668 18.6071H9.42857C9.84278 18.6071 10.1786 18.2713 10.1786 17.8571C10.1786 17.4429 9.84278 17.1071 9.42857 17.1071H7.56047L9.79141 14.3185C10.2741 13.7151 9.84452 12.8214 9.07189 12.8214H6ZM12 12.8214C12.4142 12.8214 12.75 13.1572 12.75 13.5714V17.8571C12.75 18.2713 12.4142 18.6071 12 18.6071C11.5858 18.6071 11.25 18.2713 11.25 17.8571V13.5714C11.25 13.1572 11.5858 12.8214 12 12.8214ZM15.3213 16.75H17.8284C18.3373 16.75 18.7499 16.3375 18.7499 15.8286V13.7428C18.7499 13.2339 18.3373 12.8214 17.8284 12.8214L14.7427 12.8214C14.2338 12.8214 13.8213 13.2339 13.8213 13.7428V17.8571C13.8213 18.2713 14.1571 18.6071 14.5713 18.6071C14.9855 18.6071 15.3213 18.2713 15.3213 17.8571V16.75ZM12.5301 11.3182C12.2372 11.0253 11.7623 11.0253 11.4694 11.3182L11.4608 11.3268C11.1679 11.6197 11.1679 12.0946 11.4608 12.3875L11.4694 12.396C11.7623 12.6889 12.2372 12.6889 12.5301 12.396L12.5386 12.3875C12.8315 12.0946 12.8315 11.6197 12.5386 11.3268L12.5301 11.3182Z" fill="#4E5964"/>
<path d="M15.75 4.13839L19.4839 7.24999L15.75 7.24999V4.13839Z" fill="#4E5964"/>
</svg>
