<svg width="24" height="24" viewBox="0 0 24 24" fill="none" xmlns="http://www.w3.org/2000/svg">
<path d="M13.4639 2.25C13.7353 2.25 14.0049 2.27119 14.2705 2.3125C14.2647 2.34082 14.2586 2.36778 14.2559 2.39258L14.25 2.5V7.67285L14.2578 7.80273C14.3308 8.43317 14.9272 8.75 15.3936 8.75H21.5C21.5349 8.75 21.5795 8.74736 21.6299 8.74121C21.7074 9.10101 21.75 9.47064 21.75 9.8457V16.5C21.75 19.3995 19.3995 21.75 16.5 21.75H7.5C4.60051 21.75 2.25 19.3995 2.25 16.5V7.5C2.25 4.68431 4.46659 2.38635 7.25 2.25586V4.25H7C6.58579 4.25 6.25 4.58579 6.25 5C6.25 5.41421 6.58579 5.75 7 5.75H7.25V6.25H7C6.58579 6.25 6.25 6.58579 6.25 7C6.25 7.41421 6.58579 7.75 7 7.75H7.25V9C7.25 9.41421 7.58579 9.75 8 9.75C8.41421 9.75 8.75 9.41421 8.75 9V8.75H9C9.41421 8.75 9.75 8.41421 9.75 8C9.75 7.58579 9.41421 7.25 9 7.25H8.75V6.75H9C9.41421 6.75 9.75 6.41421 9.75 6C9.75 5.58579 9.41421 5.25 9 5.25H8.75V2.25H13.4639ZM6.38965 12C6.2499 12.0001 6.1797 12.0701 6.17969 12.21V12.9697C6.17969 13.1096 6.24988 13.1796 6.38965 13.1797H8.78027V13.2197L6.12988 17.1299C6.04322 17.2365 6 17.4001 6 17.6201V18.2197C6 18.3597 6.06999 18.4297 6.20996 18.4297H10.04C10.1733 18.4297 10.2402 18.3534 10.2402 18.2002V17.4404C10.2402 17.3138 10.1733 17.25 10.04 17.25H7.5V17.21L9.99023 13.5898C10.0901 13.4433 10.1396 13.2701 10.1396 13.0703V12.21C10.1396 12.0701 10.0735 12.0001 9.94043 12H6.38965ZM11.6445 12C11.5048 12.0001 11.4346 12.0701 11.4346 12.21V18.2197C11.4346 18.3596 11.5047 18.4296 11.6445 18.4297H12.4951C12.6349 18.4296 12.7051 18.3596 12.7051 18.2197V12.21C12.7051 12.0701 12.6349 12.0001 12.4951 12H11.6445ZM14.2607 12C14.1208 12 14.0508 12.07 14.0508 12.21V18.2197C14.0508 18.3597 14.1208 18.4296 14.2607 18.4297H15.1113C15.251 18.4295 15.3213 18.3596 15.3213 18.2197V16.3301C15.3213 16.2569 15.3607 16.2199 15.4404 16.2197H16.7012C17.221 16.2197 17.6245 16.0797 17.9111 15.7998C18.1976 15.5132 18.3408 15.1097 18.3408 14.5898V13.6299C18.3408 13.1099 18.1978 12.7097 17.9111 12.4297C17.6245 12.1431 17.221 12.0001 16.7012 12H14.2607ZM16.4912 13.0996C16.7043 13.0997 16.8538 13.147 16.9404 13.2402C17.0271 13.3269 17.0713 13.4771 17.0713 13.6904V14.5303C17.0713 14.7368 17.0271 14.8872 16.9404 14.9805C16.8537 15.0668 16.704 15.1103 16.4912 15.1104H15.4307C15.3575 15.1103 15.3213 15.0733 15.3213 15V13.21C15.3213 13.1367 15.3575 13.0997 15.4307 13.0996H16.4912ZM19.4844 7.25H15.75V4.1377L19.4844 7.25Z" fill="#4E5964"/>
</svg>
