<svg width="24" height="24" viewBox="0 0 24 24" fill="none" xmlns="http://www.w3.org/2000/svg">
<path d="M13.4639 2.25C13.7353 2.25 14.0049 2.27119 14.2705 2.3125C14.2647 2.34082 14.2586 2.36778 14.2559 2.39258L14.25 2.5V7.67285L14.2578 7.80273C14.3308 8.43317 14.9272 8.75 15.3936 8.75H21.5C21.5349 8.75 21.5795 8.74736 21.6299 8.74121C21.7074 9.10101 21.75 9.47064 21.75 9.8457V16.5C21.75 19.3995 19.3995 21.75 16.5 21.75H7.5C4.60051 21.75 2.25 19.3995 2.25 16.5V7.5C2.25 4.68431 4.46659 2.38635 7.25 2.25586V4.25H7C6.58579 4.25 6.25 4.58579 6.25 5C6.25 5.41421 6.58579 5.75 7 5.75H7.25V6.25H7C6.58579 6.25 6.25 6.58579 6.25 7C6.25 7.41421 6.58579 7.75 7 7.75H7.25V9C7.25 9.41421 7.58579 9.75 8 9.75C8.41421 9.75 8.75 9.41421 8.75 9V8.75H9C9.41421 8.75 9.75 8.41421 9.75 8C9.75 7.58579 9.41421 7.25 9 7.25H8.75V6.75H9C9.41421 6.75 9.75 6.41421 9.75 6C9.75 5.58579 9.41421 5.25 9 5.25H8.75V2.25H13.4639ZM6.75 11.9951C6.33579 11.9951 6 12.3309 6 12.7451C6.00026 13.1591 6.33595 13.4951 6.75 13.4951H8.80859L6.09473 18.3809C5.96595 18.613 5.96904 18.8962 6.10352 19.125C6.23833 19.3538 6.4844 19.4951 6.75 19.4951H10.083C10.4971 19.4951 10.8327 19.1591 10.833 18.7451C10.833 18.3309 10.4972 17.9951 10.083 17.9951H8.02441L10.7393 13.1094C10.8681 12.8773 10.8639 12.5941 10.7295 12.3652C10.6116 12.1648 10.4086 12.032 10.1816 12.002L10.083 11.9951H6.75ZM12.084 11.9951C11.6698 11.9951 11.334 12.3309 11.334 12.7451V18.7451C11.3342 19.1591 11.6699 19.4951 12.084 19.4951C12.498 19.4951 12.8337 19.1591 12.834 18.7451V12.7451C12.834 12.3309 12.4982 11.9951 12.084 11.9951ZM14.084 11.9951C13.6698 11.9951 13.334 12.3309 13.334 12.7451V18.7451C13.3342 19.1591 13.6699 19.4951 14.084 19.4951C14.498 19.4951 14.8337 19.1591 14.834 18.7451V17.0625H16.751C17.9012 17.0623 18.8336 16.1297 18.834 14.9795V14.0781C18.8338 12.9278 17.9013 11.9953 16.751 11.9951H14.084ZM16.751 13.4951C17.0729 13.4953 17.3338 13.7562 17.334 14.0781V14.9795C17.3336 15.3013 17.0728 15.5623 16.751 15.5625H14.834V13.4951H16.751ZM19.4844 7.25H15.75V4.1377L19.4844 7.25Z" fill="#4E5964"/>
</svg>
