<svg width="24" height="24" viewBox="0 0 24 24" fill="none" xmlns="http://www.w3.org/2000/svg">
<path d="M18.9308 5.64149C17.6561 5.05658 16.2892 4.62565 14.8599 4.37884C14.8339 4.37408 14.8079 4.38598 14.7945 4.40979C14.6187 4.72247 14.4239 5.13039 14.2876 5.45101C12.7503 5.22087 11.221 5.22087 9.71527 5.45101C9.57887 5.12326 9.37707 4.72247 9.20048 4.40979C9.18707 4.38678 9.16107 4.37487 9.13504 4.37884C7.70659 4.62487 6.33963 5.0558 5.06411 5.64149C5.05307 5.64625 5.04361 5.65419 5.03732 5.6645C2.44449 9.53813 1.73421 13.3166 2.08265 17.0481C2.08423 17.0664 2.09447 17.0839 2.10867 17.095C3.81934 18.3512 5.47642 19.1139 7.10273 19.6194C7.12876 19.6274 7.15634 19.6179 7.1729 19.5964C7.55761 19.0711 7.90054 18.5171 8.19456 17.9346C8.21192 17.9005 8.19535 17.86 8.15989 17.8465C7.61594 17.6402 7.098 17.3886 6.59977 17.1029C6.56037 17.0799 6.55721 17.0235 6.59347 16.9965C6.69831 16.918 6.80318 16.8362 6.9033 16.7537C6.92141 16.7386 6.94665 16.7354 6.96794 16.745C10.2411 18.2393 13.7846 18.2393 17.0191 16.745C17.0404 16.7346 17.0657 16.7378 17.0846 16.7529C17.1847 16.8354 17.2895 16.918 17.3952 16.9965C17.4314 17.0235 17.4291 17.0799 17.3897 17.1029C16.8914 17.3941 16.3735 17.6402 15.8288 17.8457C15.7933 17.8592 15.7775 17.9005 15.7949 17.9346C16.0952 18.5163 16.4381 19.0702 16.8157 19.5956C16.8315 19.6179 16.8599 19.6274 16.8859 19.6194C18.5201 19.1139 20.1772 18.3512 21.8879 17.095C21.9028 17.0839 21.9123 17.0672 21.9139 17.0489C22.3309 12.7348 21.2154 8.98737 18.9568 5.66529C18.9513 5.65419 18.9419 5.64625 18.9308 5.64149ZM8.68335 14.776C7.69792 14.776 6.88594 13.8713 6.88594 12.7602C6.88594 11.6491 7.68217 10.7444 8.68335 10.7444C9.69239 10.7444 10.4965 11.6571 10.4807 12.7602C10.4807 13.8713 9.68451 14.776 8.68335 14.776ZM15.329 14.776C14.3435 14.776 13.5316 13.8713 13.5316 12.7602C13.5316 11.6491 14.3278 10.7444 15.329 10.7444C16.338 10.7444 17.1421 11.6571 17.1264 12.7602C17.1264 13.8713 16.338 14.776 15.329 14.776Z" fill="#70808F"/>
</svg>
