<svg width="24" height="24" viewBox="0 0 24 24" fill="none" xmlns="http://www.w3.org/2000/svg">
<path fill-rule="evenodd" clip-rule="evenodd" d="M9.00002 2.44739H11.4478H12H12.0004H12.5527H15.0004C15.9426 2.44739 16.8462 2.82168 17.5125 3.48793C18.1787 4.15418 18.553 5.0578 18.553 6.00002C18.553 6.94224 18.1787 7.84586 17.5125 8.51211C17.3265 8.69809 17.122 8.86133 16.9033 9.00002C17.122 9.13871 17.3265 9.30194 17.5125 9.48793C18.1787 10.1542 18.553 11.0578 18.553 12C18.553 12.9422 18.1787 13.8459 17.5125 14.5121C16.8462 15.1784 15.9426 15.5527 15.0004 15.5527C14.0882 15.5527 13.2121 15.2018 12.5527 14.5749V15V15.5527V18C12.5527 18.9422 12.1784 19.8459 11.5121 20.5121C10.8459 21.1784 9.94224 21.5527 9.00002 21.5527C8.0578 21.5527 7.15418 21.1784 6.48793 20.5121C5.82168 19.8459 5.44739 18.9422 5.44739 18C5.44739 17.0578 5.82168 16.1542 6.48793 15.4879C6.67392 15.3019 6.8784 15.1387 7.09706 15C6.8784 14.8613 6.67392 14.6981 6.48793 14.5121C5.82168 13.8459 5.44739 12.9422 5.44739 12C5.44739 11.0578 5.82168 10.1542 6.48793 9.48793C6.67391 9.30194 6.8784 9.13871 7.09705 9.00002C6.8784 8.86133 6.67391 8.69809 6.48793 8.51211C5.82168 7.84586 5.44739 6.94224 5.44739 6.00002C5.44739 5.0578 5.82168 4.15418 6.48793 3.48793C7.15418 2.82168 8.0578 2.44739 9.00002 2.44739ZM9.00002 8.44739H11.4474V3.55265H9.00002C8.35094 3.55265 7.72844 3.8105 7.26947 4.26947C6.8105 4.72844 6.55265 5.35094 6.55265 6.00002C6.55265 6.6491 6.8105 7.2716 7.26947 7.73057C7.72844 8.18954 8.35094 8.44739 9.00002 8.44739ZM9.00002 9.55265C8.35094 9.55265 7.72844 9.8105 7.26947 10.2695C6.8105 10.7284 6.55265 11.3509 6.55265 12C6.55265 12.6491 6.8105 13.2716 7.26947 13.7306C7.72844 14.1895 8.35094 14.4474 9.00002 14.4474H11.4474V9.55265H9.00002ZM9.00002 15.5527C8.35094 15.5527 7.72844 15.8105 7.26947 16.2695C6.8105 16.7284 6.55265 17.3509 6.55265 18C6.55265 18.6491 6.8105 19.2716 7.26947 19.7306C7.72844 20.1895 8.35094 20.4474 9.00002 20.4474C9.6491 20.4474 10.2716 20.1895 10.7306 19.7306C11.1895 19.2716 11.4474 18.6491 11.4474 18V15.5527H9.00002ZM15.0004 8.44739C15.6495 8.44739 16.272 8.18954 16.7309 7.73057C17.1899 7.2716 17.4478 6.6491 17.4478 6.00002C17.4478 5.35094 17.1899 4.72844 16.7309 4.26947C16.272 3.8105 15.6495 3.55265 15.0004 3.55265H12.553V8.44739H15.0004ZM15.0004 9.55265C14.3513 9.55265 13.7288 9.8105 13.2698 10.2695C12.8109 10.7284 12.553 11.3509 12.553 12C12.553 12.6491 12.8109 13.2716 13.2698 13.7306C13.7288 14.1895 14.3513 14.4474 15.0004 14.4474C15.6495 14.4474 16.272 14.1895 16.7309 13.7306C17.1899 13.2716 17.4478 12.6491 17.4478 12C17.4478 11.3509 17.1899 10.7284 16.7309 10.2695C16.272 9.8105 15.6495 9.55265 15.0004 9.55265Z" fill="#70808F"/>
</svg>
