<svg width="24" height="24" viewBox="0 0 24 24" fill="none" xmlns="http://www.w3.org/2000/svg">
<path d="M12.0004 12C12.0004 11.2044 12.3164 10.4413 12.879 9.87868C13.4417 9.31607 14.2047 9 15.0004 9C15.796 9 16.5591 9.31607 17.1217 9.87868C17.6843 10.4413 18.0004 11.2044 18.0004 12C18.0004 12.7956 17.6843 13.5587 17.1217 14.1213C16.5591 14.6839 15.796 15 15.0004 15C14.2047 15 13.4417 14.6839 12.879 14.1213C12.3164 13.5587 12.0004 12.7956 12.0004 12V12Z" stroke="#70808F" stroke-width="1.10526"/>
<path d="M6 18C6 17.2044 6.31607 16.4413 6.87868 15.8787C7.44129 15.3161 8.20435 15 9 15H12V18C12 18.7956 11.6839 19.5587 11.1213 20.1213C10.5587 20.6839 9.79565 21 9 21C8.20435 21 7.44129 20.6839 6.87868 20.1213C6.31607 19.5587 6 18.7956 6 18Z" stroke="#70808F" stroke-width="1.10526"/>
<path d="M12.0004 3V9H15.0004C15.796 9 16.5591 8.68393 17.1217 8.12132C17.6843 7.55871 18.0004 6.79565 18.0004 6C18.0004 5.20435 17.6843 4.44129 17.1217 3.87868C16.5591 3.31607 15.796 3 15.0004 3H12.0004Z" stroke="#70808F" stroke-width="1.10526"/>
<path d="M6 6C6 6.79565 6.31607 7.55871 6.87868 8.12132C7.44129 8.68393 8.20435 9 9 9H12V3H9C8.20435 3 7.44129 3.31607 6.87868 3.87868C6.31607 4.44129 6 5.20435 6 6Z" stroke="#70808F" stroke-width="1.10526"/>
<path d="M6 12C6 12.7956 6.31607 13.5587 6.87868 14.1213C7.44129 14.6839 8.20435 15 9 15H12V9H9C8.20435 9 7.44129 9.31607 6.87868 9.87868C6.31607 10.4413 6 11.2044 6 12Z" stroke="#70808F" stroke-width="1.10526"/>
</svg>
