<svg width="24" height="24" viewBox="0 0 24 24" fill="none" xmlns="http://www.w3.org/2000/svg">
<path d="M21.6678 9.99424L21.6397 9.92239L18.9175 2.81785C18.8621 2.6786 18.764 2.56048 18.6373 2.48043C18.5106 2.40174 18.3627 2.36384 18.2137 2.37184C18.0647 2.37985 17.9218 2.43338 17.8042 2.52521C17.6879 2.61967 17.6035 2.74767 17.5626 2.89179L15.7245 8.51543H8.28148L6.44339 2.89179C6.40352 2.74688 6.31898 2.61824 6.20178 2.52417C6.08418 2.43234 5.94124 2.37881 5.79225 2.3708C5.64326 2.36279 5.49541 2.40069 5.36864 2.47939C5.24224 2.55976 5.14426 2.67778 5.0885 2.8168L2.36103 9.91822L2.33396 9.99008C1.94208 11.014 1.8937 12.1376 2.19614 13.1914C2.49857 14.2452 3.13541 15.1721 4.01064 15.8324L4.02001 15.8397L4.045 15.8574L8.19192 18.9629L10.2435 20.5157L11.4932 21.4592C11.6394 21.5702 11.8179 21.6303 12.0014 21.6303C12.185 21.6303 12.3635 21.5702 12.5096 21.4592L13.7593 20.5157L15.8109 18.9629L19.9828 15.8387L19.9933 15.8303C20.8665 15.1699 21.5019 14.244 21.8038 13.1916C22.1058 12.1392 22.0581 11.0172 21.6678 9.99424Z" fill="#70808F"/>
</svg>
