<svg width="24" height="24" viewBox="0 0 24 24" fill="none" xmlns="http://www.w3.org/2000/svg">
<path d="M7.6407 6C10.756 6 13.2812 8.54286 13.2812 11.6794C13.2812 14.816 10.7558 17.3586 7.6407 17.3586C4.52561 17.3586 2 14.816 2 11.6794C2 8.54286 4.52542 6 7.6407 6ZM16.6485 6.33268C18.2061 6.33268 19.4688 8.72625 19.4688 11.6794H19.469C19.469 14.6318 18.2063 17.0261 16.6487 17.0261C15.091 17.0261 13.8283 14.6318 13.8283 11.6794C13.8283 8.72702 15.0908 6.33268 16.6485 6.33268ZM21.0081 6.88959C21.5558 6.88959 22 9.03403 22 11.6794C22 14.324 21.556 16.4692 21.0081 16.4692C20.4602 16.4692 20.0163 14.3246 20.0163 11.6794C20.0163 9.03422 20.4604 6.88959 21.0081 6.88959Z" fill="#70808F"/>
</svg>
