<svg width="24" height="24" viewBox="0 0 24 24" fill="none" xmlns="http://www.w3.org/2000/svg">
<path d="M13.7954 10.9228C13.75 10.5819 13.4318 10.3546 13.0682 10.4001C12.7273 10.4455 12.5 10.7864 12.5454 11.1274C12.5909 11.3774 12.6136 11.6274 12.6136 11.9001C12.6136 14.491 10.5227 16.5819 7.93181 16.5819C5.34091 16.5819 3.25 14.491 3.25 11.9001C3.25 9.30917 5.36363 7.21826 7.93181 7.21826C8.65909 7.21826 9.36363 7.37735 10.0227 7.71826C10.3409 7.87735 10.7045 7.74099 10.8636 7.44553C11.0227 7.12735 10.8864 6.76372 10.5909 6.60463C9.77272 6.19553 8.86363 5.99099 7.93181 5.99099C4.68182 5.96826 2 8.62735 2 11.9001C2 15.1728 4.68182 17.8319 7.93181 17.8319C11.1818 17.8319 13.8636 15.1728 13.8636 11.9001C13.8636 11.5819 13.8409 11.241 13.7954 10.9228Z" fill="#70808F"/>
<path d="M16.0683 5.96826C12.7956 5.96826 10.1365 8.62735 10.1365 11.9001C10.1365 12.2183 10.1592 12.5364 10.2047 12.8546C10.2501 13.1955 10.5683 13.4228 10.9319 13.3773C11.2728 13.3319 11.5001 12.991 11.4547 12.6728C11.4092 12.4228 11.3865 12.1728 11.3865 11.9228C11.3865 9.3319 13.4774 7.24099 16.0683 7.24099C18.6592 7.24099 20.7501 9.3319 20.7501 11.9228C20.7501 14.5137 18.6592 16.6046 16.0683 16.6046C15.341 16.6046 14.6365 16.4455 13.9774 16.1046C13.6592 15.9455 13.2956 16.0819 13.1365 16.3773C12.9774 16.6955 13.1137 17.0592 13.4092 17.2183C14.2274 17.6273 15.1365 17.8319 16.0683 17.8319C19.341 17.8319 22.0001 15.1728 22.0001 11.9001C21.9774 8.62735 19.3183 5.96826 16.0683 5.96826Z" fill="#70808F"/>
</svg>
