<svg width="24" height="24" viewBox="0 0 24 24" fill="none" xmlns="http://www.w3.org/2000/svg">
<path fill-rule="evenodd" clip-rule="evenodd" d="M19.792 5.41471C20.6521 5.64577 21.3325 6.32614 21.5635 7.18621C21.9872 8.75232 22 12.0001 22 12.0001C22 12.0001 22 15.2607 21.5764 16.8139C21.3453 17.674 20.665 18.3544 19.8049 18.5854C18.2516 19.0091 12 19.0091 12 19.0091C12 19.0091 5.74839 19.0091 4.19512 18.5854C3.33504 18.3544 2.65469 17.674 2.42362 16.8139C2 15.2478 2 12.0001 2 12.0001C2 12.0001 2 8.75232 2.41078 7.19905C2.64185 6.33897 3.32221 5.65861 4.18229 5.42755C5.73556 5.00392 11.9872 4.99109 11.9872 4.99109C11.9872 4.99109 18.2388 4.99109 19.792 5.41471ZM15.1836 12.0001L9.99743 15.0039V8.99623L15.1836 12.0001Z" fill="#70808F"/>
</svg>
