<svg width="24" height="24" viewBox="0 0 24 24" fill="none" xmlns="http://www.w3.org/2000/svg">
<path d="M18.0439 6.02609L15.0702 3M6.04297 5.92139C6.04297 5.92139 9.0532 4.37462 11.4994 4.42041C13.8029 4.46353 18.0425 6.02621 18.0425 6.02621" stroke="#4E5964" stroke-width="1.5" stroke-linecap="round" stroke-linejoin="round"/>
<path d="M6.06836 18.0001L9.04204 21.0262M18.0692 18.1048C18.0692 18.1048 15.059 19.6516 12.6128 19.6058C10.3093 19.5627 6.0697 18 6.0697 18" stroke="#4E5964" stroke-width="1.5" stroke-linecap="round" stroke-linejoin="round"/>
<g opacity="0.4">
<path d="M8.184 11.228H8.796C9.06 11.228 9.248 11.176 9.36 11.072C9.48 10.96 9.54 10.78 9.54 10.532V9.968C9.54 9.72 9.48 9.544 9.36 9.44C9.248 9.328 9.06 9.272 8.796 9.272H8.22C7.964 9.272 7.784 9.328 7.68 9.44C7.576 9.544 7.524 9.72 7.524 9.968V10.268C7.524 10.436 7.44 10.52 7.272 10.52H6.252C6.084 10.52 6 10.436 6 10.268V9.944C6 9.32 6.172 8.84 6.516 8.504C6.86 8.168 7.348 8 7.98 8H9.048C9.68 8 10.168 8.168 10.512 8.504C10.856 8.84 11.028 9.32 11.028 9.944V10.544C11.028 11.216 10.712 11.652 10.08 11.852C10.712 11.988 11.028 12.424 11.028 13.16V13.772C11.028 14.396 10.856 14.876 10.512 15.212C10.168 15.548 9.68 15.716 9.048 15.716H7.98C7.348 15.716 6.86 15.548 6.516 15.212C6.172 14.876 6 14.396 6 13.772V13.436C6 13.26 6.084 13.172 6.252 13.172H7.272C7.44 13.172 7.524 13.26 7.524 13.436V13.748C7.524 14.004 7.576 14.184 7.68 14.288C7.784 14.392 7.964 14.444 8.22 14.444H8.796C9.06 14.444 9.248 14.392 9.36 14.288C9.48 14.176 9.54 13.996 9.54 13.748V13.16C9.54 12.912 9.48 12.736 9.36 12.632C9.248 12.52 9.06 12.464 8.796 12.464H8.184C8.016 12.464 7.932 12.38 7.932 12.212V11.492C7.932 11.316 8.016 11.228 8.184 11.228Z" fill="#4E5964"/>
<path d="M14.0975 14.396H15.4055C15.6615 14.396 15.8415 14.344 15.9455 14.24C16.0575 14.128 16.1135 13.944 16.1135 13.688V10.028C16.1135 9.772 16.0575 9.592 15.9455 9.488C15.8415 9.376 15.6615 9.32 15.4055 9.32H14.0975C14.0095 9.32 13.9655 9.364 13.9655 9.452V14.264C13.9655 14.352 14.0095 14.396 14.0975 14.396ZM12.4415 15.464V8.252C12.4415 8.084 12.5255 8 12.6935 8H15.6575C16.2815 8 16.7655 8.172 17.1095 8.516C17.4615 8.852 17.6375 9.332 17.6375 9.956V13.76C17.6375 14.384 17.4615 14.868 17.1095 15.212C16.7655 15.548 16.2815 15.716 15.6575 15.716H12.6935C12.5255 15.716 12.4415 15.632 12.4415 15.464Z" fill="#4E5964"/>
</g>
</svg>
