<svg width="24" height="24" viewBox="0 0 24 24" fill="none" xmlns="http://www.w3.org/2000/svg">
<path opacity="0.4" fill-rule="evenodd" clip-rule="evenodd" d="M20.8 9C20.9105 9 21.0003 8.91002 20.9967 8.79962C20.8932 5.64567 18.3543 3.10683 15.2004 3.00328C15.09 2.99966 15 3.08954 15 3.2V8.8C15 8.91046 15.0895 9 15.2 9H20.8Z" stroke="#4E5964" stroke-width="1.5" stroke-linecap="round" stroke-linejoin="round"/>
<path d="M19.4832 17.0001C20.4165 15.6033 20.9392 13.975 20.995 12.3C21.0005 12.1344 20.8657 12 20.7 12H12.3C12.1343 12 12 11.8657 12 11.7L12 3.3C12 3.13431 11.8656 2.99948 11.7 3.005C10.025 3.06084 8.39666 3.58347 6.99987 4.51677C5.51983 5.50571 4.36627 6.91131 3.68508 8.55585C3.0039 10.2004 2.82567 12.01 3.17293 13.7558C3.5202 15.5016 4.37737 17.1053 5.63604 18.364C6.89471 19.6226 8.49836 20.4798 10.2442 20.8271C11.99 21.1743 13.7996 20.9961 15.4442 20.3149C17.0887 19.6337 18.4943 18.4802 19.4832 17.0001Z" stroke="#4E5964" stroke-width="1.5"/>
</svg>
