<svg width="24" height="24" viewBox="0 0 24 24" fill="none" xmlns="http://www.w3.org/2000/svg">
<path d="M20.1035 9.06919C21.9211 12.7391 21.0071 17.1752 17.8869 19.8278" stroke="#4E5964" stroke-width="1.5" stroke-linecap="round" stroke-linejoin="round"/>
<path d="M15.4715 4.7055C14.2991 4.20908 13.034 3.96975 11.7612 4.00363C7.94798 4.11616 4.62026 6.62141 3.45771 10.2549C2.29516 13.8884 3.55058 17.86 6.5903 20.1652" stroke="#4E5964" stroke-width="1.5" stroke-linecap="round" stroke-linejoin="round"/>
<path opacity="0.4" d="M11.9512 11.9248L16.8366 6.43411C17.3033 6.00514 17.8672 5.9577 18.2453 6.25181C18.6234 6.54592 18.7162 7.10412 18.4153 7.66204L14.1908 13.573M14 14C14 15.1046 13.1046 16 12 16C10.8954 16 10 15.1046 10 14C10 12.8954 10.8954 12 12 12C13.1046 12 14 12.8954 14 14Z" stroke="#4E5964" stroke-width="1.5" stroke-linecap="round" stroke-linejoin="round"/>
</svg>
