<svg width="24" height="24" viewBox="0 0 24 24" fill="none" xmlns="http://www.w3.org/2000/svg">
<path opacity="0.4" d="M8 13.5C8 13.5 9.99189 10.732 10.0647 10.6308C10.1376 10.5296 10.2843 10.519 10.3709 10.6087C10.4576 10.6984 13.0607 13.3939 13.0608 13.3939C13.0608 13.3939 13.0608 13.3939 13.0608 13.3939C13.1466 13.4828 13.2916 13.4734 13.3652 13.3743C13.4388 13.2751 15.5 10.5 15.5 10.5" stroke="#4E5964" stroke-width="1.5" stroke-linecap="round"/>
<path d="M14.7778 3H12H7.5C4.46243 3 2 5.46243 2 8.5V15.5C2 18.5376 4.46243 21 7.5 21H16.5C19.5376 21 22 18.5376 22 15.5V12V9.1875" stroke="#4E5964" stroke-width="1.5" stroke-linecap="round"/>
<circle opacity="0.4" cx="19.5" cy="4.5" r="1.5" stroke="#4E5964" stroke-width="1.5"/>
</svg>
