<svg width="24" height="24" viewBox="0 0 24 24" fill="none" xmlns="http://www.w3.org/2000/svg">
<path d="M16.5 6H7.5C5.01472 6 3 8.01472 3 10.5V16.5C3 18.9853 5.01472 21 7.5 21H16.5C18.9853 21 21 18.9853 21 16.5V10.5C21 8.01472 18.9853 6 16.5 6Z" stroke="#4E5964" stroke-width="1.5" stroke-linecap="round"/>
<path opacity="0.4" d="M15 3L12.7071 5.29289C12.3166 5.68342 11.6834 5.68342 11.2929 5.29289L9 3" stroke="#4E5964" stroke-width="1.5" stroke-linecap="round"/>
<path opacity="0.4" d="M6.00011 17.3845V12.7692M10.6155 17.3845V10.269C10.6155 10.1204 10.495 10 10.3464 10H6.00011M6 13.6923L10.6153 13.6923" stroke="#4E5964" stroke-width="1.5" stroke-linecap="round"/>
<path opacity="0.4" d="M13.4823 10H16.3275V10C17.2515 10 18.0005 10.749 18.0005 11.673V15.6552C18.0005 16.6103 17.2262 17.3845 16.2711 17.3845V17.3845H14.2737C13.8367 17.3845 13.4824 17.0303 13.4824 16.5933V12.7692" stroke="#4E5964" stroke-width="1.5" stroke-linecap="round"/>
</svg>
