<svg width="24" height="24" viewBox="0 0 24 24" fill="none" xmlns="http://www.w3.org/2000/svg">
<path d="M16.5 21H7.5C5.01472 21 3 18.9853 3 16.5V13.9286V6.85714V5.8125C3 4.2592 4.2592 3 5.8125 3H7.32296C8.75679 3 9.89276 4.02835 10.6434 5.25C11.0734 5.9498 11.3046 6.42005 12 6.85714C13.0877 7.54086 15.5536 7.68013 17.6297 7.66016C19.4407 7.64274 21 9.06385 21 10.875V12V16.5C21 18.9853 18.9853 21 16.5 21Z" stroke="#4E5964" stroke-width="1.5" stroke-linecap="round"/>
<path opacity="0.4" d="M15 15.4968H17.9937M16.4961 16.9937V14" stroke="#4E5964" stroke-width="1.5" stroke-linecap="round" stroke-linejoin="round"/>
<path opacity="0.4" d="M3 11H21" stroke="#4E5964" stroke-width="1.5" stroke-linecap="round"/>
</svg>
