<svg width="24" height="24" viewBox="0 0 24 24" fill="none" xmlns="http://www.w3.org/2000/svg">
<path opacity="0.4" d="M12.002 12.485L3.77178 7.78911M12.002 12.485V20.7297M12.002 12.485L15.602 10.2M3.77178 7.78911C4.3004 6.8289 5.07978 6.0305 6.04228 5.51183L9.54228 3.62579C11.0907 2.7914 12.9132 2.7914 14.4616 3.62579L15.602 4.35M3.77178 7.78911C3.27705 8.68778 3.00195 9.72818 3.00195 10.8136V13.1864C3.00195 15.4316 4.17897 17.4841 6.04228 18.4882L9.54228 20.3742C11.0907 21.2086 12.9132 21.2086 14.4616 20.3742L17.9616 18.4882C19.8249 17.4841 21.002 15.4316 21.002 13.1864V12.485" stroke="#4E5964" stroke-width="1.5" stroke-linecap="round" stroke-linejoin="round"/>
<path d="M15.602 4.35L14.4616 3.62579C12.9132 2.7914 11.0907 2.7914 9.54228 3.62579L6.04228 5.51183C5.07978 6.0305 4.3004 6.8289 3.77178 7.78911C3.27705 8.68778 3.00195 9.72818 3.00195 10.8136V13.1864C3.00195 15.4316 4.17897 17.4841 6.04228 18.4882L9.54228 20.3742C11.0907 21.2086 12.9132 21.2086 14.4616 20.3742L17.9616 18.4882C19.8249 17.4841 21.002 15.4316 21.002 13.1864V12.485" stroke="#4E5964" stroke-width="1.5" stroke-linecap="round" stroke-linejoin="round"/>
<path opacity="0.4" d="M19.002 5.5V9.5M21.002 7.5H17.002" stroke="#4E5964" stroke-width="1.5" stroke-linecap="round" stroke-linejoin="round"/>
</svg>
