<svg width="24" height="24" viewBox="0 0 24 24" fill="none" xmlns="http://www.w3.org/2000/svg">
<path d="M15.6048 10.6113L18.5334 12.2131C19.1555 12.5532 19.1555 13.4468 18.5334 13.7869L15.6048 15.3887C14.6693 15.9004 13.9004 16.6693 13.3887 17.6048L11.7869 20.5334C11.4468 21.1555 10.5532 21.1555 10.2131 20.5334L8.61135 17.6048C8.09955 16.6693 7.33074 15.9004 6.39524 15.3887L3.46664 13.7869C2.84445 13.4468 2.84445 12.5532 3.46664 12.2131L6.39524 10.6113C7.33074 10.0996 8.09955 9.33074 8.61135 8.39524L10.2131 5.46664C10.5532 4.84445 11.4468 4.84445 11.7869 5.46664L13.3887 8.39524C13.9004 9.33074 14.6693 10.0996 15.6048 10.6113Z" stroke="#4E5964" stroke-width="1.5"/>
<path opacity="0.4" d="M19.7268 5.10425L20.825 5.7049C21.0583 5.83243 21.0583 6.16757 20.825 6.2951L19.7268 6.89575C19.376 7.08767 19.0877 7.37597 18.8957 7.72679L18.2951 8.82501C18.1676 9.05833 17.8324 9.05833 17.7049 8.82501L17.1043 7.72679C16.9123 7.37597 16.624 7.08767 16.2732 6.89575L15.175 6.2951C14.9417 6.16757 14.9417 5.83243 15.175 5.7049L16.2732 5.10425C16.624 4.91233 16.9123 4.62403 17.1043 4.27322L17.7049 3.17499C17.8324 2.94167 18.1676 2.94167 18.2951 3.17499L18.8957 4.27322C19.0877 4.62403 19.376 4.91233 19.7268 5.10425Z" stroke="#4E5964" stroke-width="1.5"/>
</svg>
