<svg width="24" height="24" viewBox="0 0 24 24" fill="none" xmlns="http://www.w3.org/2000/svg">
<rect x="3" y="3" width="18" height="18" rx="4.5" stroke="#4E5964" stroke-width="1.5"/>
<g opacity="0.4">
<path d="M8.314 15.716H7.162C7.018 15.716 6.97 15.632 7.018 15.464L8.914 8.252C8.97 8.084 9.09 8 9.274 8H10.87C11.07 8 11.19 8.084 11.23 8.252L13.126 15.464C13.174 15.632 13.126 15.716 12.982 15.716H11.83C11.742 15.716 11.682 15.7 11.65 15.668C11.618 15.628 11.594 15.56 11.578 15.464L11.242 14.144H8.902L8.566 15.464C8.55 15.56 8.522 15.628 8.482 15.668C8.45 15.7 8.394 15.716 8.314 15.716ZM10.054 9.452L9.19 12.92H10.966L10.102 9.452H10.054Z" fill="#4E5964"/>
<path d="M15.7737 8.252V15.464C15.7737 15.632 15.6897 15.716 15.5217 15.716H14.5017C14.3337 15.716 14.2497 15.632 14.2497 15.464V8.252C14.2497 8.084 14.3337 8 14.5017 8H15.5217C15.6897 8 15.7737 8.084 15.7737 8.252Z" fill="#4E5964"/>
</g>
</svg>
