<svg width="24" height="24" viewBox="0 0 24 24" fill="none" xmlns="http://www.w3.org/2000/svg">
<path d="M16.5 18H17.5C19.433 18 21 16.433 21 14.5V7.5C21 5.01472 18.9853 3 16.5 3H12" stroke="#4E5964" stroke-width="1.6" stroke-linecap="round"/>
<path opacity="0.4" fill-rule="evenodd" clip-rule="evenodd" d="M10.0005 21C9.64003 21 9.30745 20.8182 9.12987 20.5242C8.95228 20.2301 8.95713 19.8693 9.14256 19.5795L11.1421 16.4553C11.3229 16.1728 11.6485 16 12 16C12.3514 16 12.6771 16.1728 12.8579 16.4553L14.8574 19.5795C15.0429 19.8693 15.0477 20.2301 14.8701 20.5242C14.6925 20.8182 14.3599 21 13.9995 21H10.0005Z" stroke="#4E5964" stroke-width="1.5" stroke-linecap="round" stroke-linejoin="round"/>
<path d="M7.5 18H6.5C4.567 18 3 16.433 3 14.5V7.5C3 5.01472 5.01472 3 7.5 3H12" stroke="#4E5964" stroke-width="1.6" stroke-linecap="round"/>
</svg>
