<svg width="24" height="24" viewBox="0 0 24 24" fill="none" xmlns="http://www.w3.org/2000/svg">
<path d="M14.0566 9.93661C14.0566 9.41475 14.4797 8.9917 15.0015 8.9917H16.8858C17.4098 8.9917 17.8338 9.41814 17.8307 9.94217L17.7942 16.1448C17.793 16.3526 17.6241 16.5205 17.4162 16.5205H17.3048H14.8687H14.4346C14.2259 16.5205 14.0566 16.3513 14.0566 16.1425L14.0566 9.93661Z" stroke="#4E5964" stroke-width="1.5"/>
<path d="M6.5 9.93661C6.5 9.41475 6.92305 8.9917 7.44491 8.9917H9.32915C9.85318 8.9917 10.2771 9.41814 10.274 9.94217L10.2375 16.1448C10.2363 16.3526 10.0675 16.5205 9.85959 16.5205H9.74811H7.31202H6.87796C6.66922 16.5205 6.5 16.3513 6.5 16.1425L6.5 9.93661Z" stroke="#4E5964" stroke-width="1.5"/>
<path opacity="0.4" d="M14.0566 18.6938C13.6424 18.6938 13.3066 19.0296 13.3066 19.4438C13.3066 19.858 13.6424 20.1938 14.0566 20.1938V19.4438V18.6938ZM17.8363 20.1938C18.2505 20.1938 18.5863 19.858 18.5863 19.4438C18.5863 19.0296 18.2505 18.6938 17.8363 18.6938V19.4438V20.1938ZM16.98 16.5205H16.23V19.4438H16.98H17.73V16.5205H16.98ZM15.0311 19.4438H15.7811V16.5205H15.0311H14.2811V19.4438H15.0311ZM14.0566 19.4438V20.1938H17.8363V19.4438V18.6938H14.0566V19.4438Z" fill="#4E5964"/>
<path opacity="0.4" d="M6.5 18.6938C6.08579 18.6938 5.75 19.0296 5.75 19.4438C5.75 19.858 6.08579 20.1938 6.5 20.1938V19.4438V18.6938ZM10.2796 20.1938C10.6938 20.1938 11.0296 19.858 11.0296 19.4438C11.0296 19.0296 10.6938 18.6938 10.2796 18.6938V19.4438V20.1938ZM9.42331 16.5205H8.67331V19.4438H9.42331H10.1733V16.5205H9.42331ZM7.47444 19.4438H8.22444V16.5205H7.47444H6.72444V19.4438H7.47444ZM6.5 19.4438V20.1938H10.2796V19.4438V18.6938H6.5V19.4438Z" fill="#4E5964"/>
<path opacity="0.4" d="M17.3207 6.68772L16.5707 6.68772V6.68772H17.3207ZM16.3109 4.15092L16.9406 3.74341V3.74341L16.3109 4.15092ZM15.8852 4.13521L16.4822 4.58917V4.58917L15.8852 4.13521ZM14.6919 6.68772L13.9419 6.68772V6.68772H14.6919ZM13.9419 8.57754V9.32754H15.4419V8.57754H14.6919H13.9419ZM9.76366 6.68772L9.01366 6.68772V6.68772H9.76366ZM8.7539 4.15092L9.38353 3.74341V3.74341L8.7539 4.15092ZM8.32819 4.13521L8.9252 4.58917L8.9252 4.58917L8.32819 4.13521ZM7.13486 6.68772L6.38486 6.68772V6.68772H7.13486ZM6.38486 8.57754V9.32754H7.88486V8.57754H7.13486H6.38486ZM9.65394 6.00004L8.93296 6.20663L9.65394 6.00004ZM17.211 6.00004L16.49 6.20663L17.211 6.00004ZM17.3207 8.91546H18.0707V6.68772H17.3207H16.5707V8.91546H17.3207ZM15.8852 4.13521L15.2882 3.68124C15.0762 3.96001 14.7522 4.41482 14.4778 4.92659C14.2156 5.41565 13.9419 6.05871 13.9419 6.68772L14.6919 6.68772L15.4419 6.68773C15.4419 6.44343 15.5652 6.07291 15.7997 5.63537C16.0222 5.22056 16.2947 4.83576 16.4822 4.58917L15.8852 4.13521ZM14.6919 6.68772H13.9419V8.57754H14.6919H15.4419V6.68772H14.6919ZM16.3109 4.15092L16.9406 3.74341C16.5572 3.15115 15.7126 3.12316 15.2882 3.68125L15.8852 4.13521L16.4822 4.58917C16.2802 4.85492 15.8651 4.84239 15.6813 4.55844L16.3109 4.15092ZM9.76366 8.91546H10.5137V6.68772H9.76366H9.01366V8.91546H9.76366ZM7.13486 6.68772H6.38486V8.57754H7.13486H7.88486V6.68772H7.13486ZM8.7539 4.15092L9.38353 3.74341C9.0002 3.15115 8.15555 3.12316 7.73118 3.68125L8.32819 4.13521L8.9252 4.58917C8.72312 4.85492 8.30805 4.84239 8.12427 4.55844L8.7539 4.15092ZM20.5 8.12504H19.75V12.875H20.5H21.25V8.12504H20.5ZM3.5 12.875H4.25V8.12504H3.5H2.75V12.875H3.5ZM6.6875 15V14.25H5.625V15V15.75H6.6875V15ZM17.3125 6.00004V6.75004H18.375V6.00004V5.25004H17.3125V6.00004ZM3.5 12.875H2.75C2.75 14.4629 4.03718 15.75 5.625 15.75V15V14.25C4.86561 14.25 4.25 13.6344 4.25 12.875H3.5ZM20.5 12.875H19.75C19.75 13.6344 19.1344 14.25 18.375 14.25V15V15.75C19.9628 15.75 21.25 14.4629 21.25 12.875H20.5ZM20.5 8.12504H21.25C21.25 6.53722 19.9628 5.25004 18.375 5.25004V6.00004V6.75004C19.1344 6.75004 19.75 7.36564 19.75 8.12504H20.5ZM3.5 8.12504H4.25C4.25 7.36564 4.86561 6.75004 5.625 6.75004V6.00004V5.25004C4.03718 5.25004 2.75 6.53722 2.75 8.12504H3.5ZM14.125 15V14.25H9.875V15V15.75H14.125V15ZM9.875 6.00004V6.75004H14.8203V6.00004V5.25004H9.875V6.00004ZM5.625 6.00004V6.75004H7.26323V6.00004V5.25004H5.625V6.00004ZM8.32819 4.13521L7.73118 3.68124C7.42389 4.08536 6.83489 4.91821 6.55213 5.76164L7.26323 6.00004L7.97433 6.23844C8.17387 5.64324 8.63169 4.97517 8.9252 4.58917L8.32819 4.13521ZM7.26323 6.00004L6.55213 5.76164C6.45671 6.04626 6.38486 6.36396 6.38486 6.68772L7.13486 6.68772L7.88486 6.68773C7.88486 6.5783 7.91068 6.42829 7.97433 6.23844L7.26323 6.00004ZM9.76366 6.68772L10.5137 6.68772C10.5137 6.37962 10.4551 6.0733 10.3749 5.79344L9.65394 6.00004L8.93296 6.20663C8.98873 6.40125 9.01366 6.56263 9.01366 6.68772L9.76366 6.68772ZM9.65394 6.00004L10.3749 5.79344C10.1395 4.97183 9.64966 4.1546 9.38353 3.74341L8.7539 4.15092L8.12427 4.55844C8.37464 4.94527 8.76156 5.60848 8.93296 6.20663L9.65394 6.00004ZM9.875 6.00004V5.25004H9.65394V6.00004V6.75004H9.875V6.00004ZM17.3207 6.68772L18.0707 6.68772C18.0707 6.37962 18.0122 6.0733 17.932 5.79344L17.211 6.00004L16.49 6.20663C16.5458 6.40125 16.5707 6.56263 16.5707 6.68772L17.3207 6.68772ZM17.211 6.00004L17.932 5.79344C17.6965 4.97183 17.2067 4.1546 16.9406 3.74341L16.3109 4.15092L15.6813 4.55844C15.9317 4.94527 16.3186 5.60848 16.49 6.20663L17.211 6.00004ZM17.3125 6.00004V5.25004H17.211V6.00004V6.75004H17.3125V6.00004Z" fill="#4E5964"/>
</svg>
