<svg width="24" height="24" viewBox="0 0 24 24" fill="none" xmlns="http://www.w3.org/2000/svg">
<path d="M14.0566 9.93661C14.0566 9.41475 14.4797 8.9917 15.0015 8.9917H16.8858C17.4098 8.9917 17.8338 9.41814 17.8307 9.94217L17.7942 16.1448C17.793 16.3526 17.6241 16.5205 17.4162 16.5205H17.3048H14.8687H14.4346C14.2259 16.5205 14.0566 16.3513 14.0566 16.1425L14.0566 9.93661Z" stroke="#4E5964" stroke-width="1.5"/>
<path d="M6.5 9.93661C6.5 9.41475 6.92305 8.9917 7.44491 8.9917H9.32915C9.85318 8.9917 10.2771 9.41814 10.274 9.94217L10.2375 16.1448C10.2363 16.3526 10.0675 16.5205 9.85959 16.5205H9.74811H7.31202H6.87796C6.66922 16.5205 6.5 16.3513 6.5 16.1425L6.5 9.93661Z" stroke="#4E5964" stroke-width="1.5"/>
<path opacity="0.4" d="M16.98 16.5205V19.4438M15.0311 19.4438V16.5205M14.0566 19.4438H17.8363" stroke="#4E5964" stroke-width="1.5" stroke-linecap="round"/>
<path opacity="0.4" d="M9.42331 16.5205V19.4438M7.47444 19.4438V16.5205M6.5 19.4438H10.2796" stroke="#4E5964" stroke-width="1.5" stroke-linecap="round"/>
<path opacity="0.4" d="M17.3207 8.91546V6.68772C17.3207 6.47113 17.279 6.23728 17.211 6.00004M14.6919 8.57754V6.68772C14.6919 5.81442 15.4857 4.66056 15.8852 4.13521C15.9964 3.98904 16.2112 3.99677 16.3109 4.15092C16.5692 4.54993 17.0076 5.29015 17.211 6.00004M9.76366 8.91546V6.68772C9.76366 6.47113 9.72192 6.23728 9.65394 6.00004M7.13486 8.57754V6.68772C7.13486 6.47113 7.18369 6.23728 7.26323 6.00004M10.5 14.9946H14M6.5 14.9946L5.625 15C4.45139 15 3.5 14.0486 3.5 12.875V8.12504C3.5 6.95143 4.45139 6.00004 5.625 6.00004H7.26323M14.8203 6.00004H9.875H9.65394M18.375 15C19.5486 15 20.5 14.0486 20.5 12.875V8.12504C20.5 6.95143 19.5486 6.00004 18.375 6.00004H17.3125H17.211M7.26323 6.00004C7.50438 5.28073 8.02779 4.53027 8.32819 4.13521C8.43934 3.98904 8.65413 3.99677 8.7539 4.15092C9.01215 4.54993 9.45053 5.29015 9.65394 6.00004" stroke="#4E5964" stroke-width="1.5" stroke-linecap="round"/>
</svg>
