<svg width="24" height="24" viewBox="0 0 24 24" fill="none" xmlns="http://www.w3.org/2000/svg">
<path d="M6.24219 10.3755L13.6097 17.7728" stroke="#4E5964" stroke-width="1.50046" stroke-linecap="round"/>
<path d="M8.08398 12.2246L10.3903 9.91828" stroke="#4E5964" stroke-width="1.50046" stroke-linecap="round"/>
<path d="M10.8574 5.7688L18.2158 13.1569" stroke="#4E5964" stroke-width="1.4986" stroke-linecap="round"/>
<path d="M11.7776 6.68586L13.701 4.76241C14.6773 3.78609 16.2586 3.78768 17.2329 4.76596L19.2302 6.77127C20.2045 7.74955 20.2029 9.33406 19.2266 10.3104L17.3032 12.2338" stroke="#4E5964" stroke-width="1.50046" stroke-linecap="round"/>
<path d="M6.70092 11.7609L4.77752 13.6844C3.80121 14.6607 3.79962 16.2452 4.77396 17.2235L6.7712 19.2288C7.74554 20.2071 9.32684 20.2087 10.3031 19.2323L12.2266 17.3089" stroke="#4E5964" stroke-width="1.50046" stroke-linecap="round"/>
<path opacity="0.4" d="M5.77191 18.2266L3.59375 20.4048M4.41022 18.3967L5.56712 19.4402" stroke="#4E5964" stroke-width="1.50046" stroke-linecap="round"/>
<path opacity="0.4" d="M20.4084 3.59082L18.2305 5.76867M18.4133 4.39796L19.5694 5.44087" stroke="#4E5964" stroke-width="1.5" stroke-linecap="round"/>
<path d="M11.7676 15.9233L14.0739 13.617" stroke="#4E5964" stroke-width="1.50046" stroke-linecap="round"/>
<path opacity="0.4" d="M6.2328 4.1618L8.90007 7.20775C8.92329 7.23427 8.93212 7.27046 8.92372 7.30469C8.90689 7.37329 8.82986 7.40757 8.76763 7.37415L6.74367 6.28713C6.42897 6.11811 6.03892 6.28656 5.94619 6.63153C5.84116 7.02228 5.36638 7.17243 5.05577 6.91312L3.66934 5.7557C3.46067 5.58149 3.36943 5.30366 3.43419 5.03966L3.49597 4.78783C3.60253 4.35351 4.14566 4.20655 4.45667 4.52789L4.57702 4.65223C4.85114 4.93545 5.33086 4.78679 5.39679 4.3982C5.46458 3.99866 5.96583 3.85693 6.2328 4.1618Z" fill="#4E5964"/>
<path opacity="0.4" d="M17.0239 19.6911L15.8048 15.8303C15.7942 15.7967 15.8006 15.76 15.8221 15.7321C15.865 15.676 15.9493 15.6755 15.9929 15.7311L17.4098 17.5396C17.6301 17.8208 18.0549 17.8232 18.2784 17.5445C18.5316 17.2289 19.0267 17.2821 19.207 17.6443L20.0117 19.2612C20.1328 19.5045 20.1048 19.7956 19.9394 20.0114L19.7817 20.2172C19.5097 20.5721 18.9532 20.4885 18.7975 20.0693L18.7372 19.9071C18.6 19.5376 18.1009 19.4811 17.8845 19.8105C17.6619 20.1491 17.1459 20.0776 17.0239 19.6911Z" fill="#4E5964"/>
</svg>
