<svg width="24" height="24" viewBox="0 0 24 24" fill="none" xmlns="http://www.w3.org/2000/svg">
<path d="M6.24023 10.3755L13.6077 17.7728" stroke="#4E5964" stroke-width="1.50046" stroke-linecap="round"/>
<path d="M8.08203 12.2246L10.3883 9.91828" stroke="#4E5964" stroke-width="1.50046" stroke-linecap="round"/>
<path d="M10.8555 5.7688L18.2139 13.1569" stroke="#4E5964" stroke-width="1.4986" stroke-linecap="round"/>
<path d="M11.7756 6.68586L13.699 4.76241C14.6753 3.78609 16.2567 3.78768 17.231 4.76596L19.2282 6.77127C20.2026 7.74955 20.201 9.33406 19.2247 10.3104L17.3013 12.2338" stroke="#4E5964" stroke-width="1.50046" stroke-linecap="round"/>
<path d="M6.69897 11.7609L4.77556 13.6844C3.79926 14.6607 3.79767 16.2452 4.77201 17.2235L6.76925 19.2288C7.74359 20.2071 9.32489 20.2087 10.3012 19.2323L12.2246 17.3089" stroke="#4E5964" stroke-width="1.50046" stroke-linecap="round"/>
<path opacity="0.4" d="M5.76995 18.2266L3.5918 20.4048M4.40827 18.3967L5.56516 19.4402" stroke="#4E5964" stroke-width="1.50046" stroke-linecap="round"/>
<path opacity="0.4" d="M20.4065 3.59082L18.2285 5.76867M18.4113 4.39796L19.5675 5.44087" stroke="#4E5964" stroke-width="1.5" stroke-linecap="round"/>
<path d="M11.7656 15.9233L14.0719 13.617" stroke="#4E5964" stroke-width="1.50046" stroke-linecap="round"/>
<path opacity="0.4" d="M6.23085 4.1618L8.89811 7.20775C8.92134 7.23427 8.93017 7.27046 8.92177 7.30469C8.90494 7.37329 8.82791 7.40757 8.76568 7.37415L6.74171 6.28713C6.42702 6.11811 6.03697 6.28656 5.94424 6.63153C5.83921 7.02228 5.36443 7.17243 5.05382 6.91312L3.66739 5.7557C3.45871 5.58149 3.36747 5.30366 3.43224 5.03966L3.49402 4.78783C3.60057 4.35351 4.1437 4.20655 4.45472 4.52789L4.57507 4.65223C4.84919 4.93545 5.3289 4.78679 5.39484 4.3982C5.46263 3.99866 5.96387 3.85693 6.23085 4.1618Z" fill="#4E5964"/>
<path opacity="0.4" d="M17.0219 19.6911L15.8028 15.8303C15.7922 15.7967 15.7987 15.76 15.8201 15.7321C15.8631 15.676 15.9474 15.6755 15.9909 15.7311L17.4078 17.5396C17.6281 17.8208 18.053 17.8232 18.2765 17.5445C18.5296 17.2289 19.0247 17.2821 19.205 17.6443L20.0098 19.2612C20.1309 19.5045 20.1028 19.7956 19.9375 20.0114L19.7797 20.2172C19.5077 20.5721 18.9513 20.4885 18.7955 20.0693L18.7353 19.9071C18.598 19.5376 18.099 19.4811 17.8825 19.8105C17.6599 20.1491 17.144 20.0776 17.0219 19.6911Z" fill="#4E5964"/>
</svg>
