<svg width="24" height="24" viewBox="0 0 24 24" fill="none" xmlns="http://www.w3.org/2000/svg">
<path d="M6.26367 10.7146L13.6312 18.1119" stroke="#4E5964" stroke-width="1.50046" stroke-linecap="round"/>
<path d="M8.10547 12.5637L10.4118 10.2574" stroke="#4E5964" stroke-width="1.50046" stroke-linecap="round"/>
<path d="M10.8789 6.10791L18.2373 13.496" stroke="#4E5964" stroke-width="1.4986" stroke-linecap="round"/>
<path d="M11.7991 7.02497L13.7225 5.10152C14.6988 4.1252 16.2801 4.12679 17.2544 5.10507L19.2517 7.11038C20.226 8.08866 20.2244 9.67317 19.2481 10.6495L17.3247 12.5729" stroke="#4E5964" stroke-width="1.50046" stroke-linecap="round"/>
<path d="M18.2519 6.10785C18.2519 6.10785 19.5628 4.79714 20.4299 3.93" stroke="#4E5964" stroke-width="1.50046" stroke-linecap="round"/>
<path d="M6.72241 12.1L4.799 14.0235C3.8227 14.9998 3.82111 16.5843 4.79545 17.5626L6.79268 19.5679C7.76702 20.5462 9.34833 20.5478 10.3246 19.5714L12.248 17.648" stroke="#4E5964" stroke-width="1.50046" stroke-linecap="round"/>
<path d="M3.61523 20.7441C3.61523 20.7441 4.40962 19.9497 5.79339 18.5659" stroke="#4E5964" stroke-width="1.50046" stroke-linecap="round"/>
<path d="M4.43201 18.7358L5.58891 19.7793" stroke="#4E5964" stroke-width="1.50046" stroke-linecap="round"/>
<path d="M18.4347 4.73696L19.5908 5.77986" stroke="#4E5964" stroke-width="1.5" stroke-linecap="round"/>
<path d="M11.7891 16.2625L14.0953 13.9561" stroke="#4E5964" stroke-width="1.50046" stroke-linecap="round"/>
<path opacity="0.4" d="M17.0234 17.3391L18.0234 20.3391L19.0234 18.3391L20.0234 21.3391" stroke="#4E5964" stroke-linecap="round"/>
<path opacity="0.4" d="M3.02344 4.83911L5.38946 6.93719L5.25549 4.70514L7.62151 6.80321" stroke="#4E5964" stroke-linecap="round"/>
</svg>
