<svg width="24" height="24" viewBox="0 0 24 24" fill="none" xmlns="http://www.w3.org/2000/svg">
<path d="M12 21C16.9706 21 21 16.9706 21 12C21 7.02944 16.9706 3 12 3C7.02944 3 3 7.02944 3 12C3 16.9706 7.02944 21 12 21Z" stroke="#4E5964" stroke-width="1.5" stroke-miterlimit="10" stroke-linecap="round" stroke-linejoin="round"/>
<path opacity="0.4" d="M12 13.417V13.167C12 12.35 12.505 11.907 13.011 11.567C13.505 11.234 14 10.8 14 10C14 8.895 13.105 8 12 8C10.895 8 10 8.895 10 10" stroke="#4E5964" stroke-width="1.5" stroke-linecap="round" stroke-linejoin="round"/>
<path opacity="0.4" d="M11.999 16.167C11.861 16.167 11.749 16.279 11.75 16.417C11.75 16.555 11.862 16.667 12 16.667C12.138 16.667 12.25 16.555 12.25 16.417C12.25 16.279 12.138 16.167 11.999 16.167" stroke="#4E5964" stroke-width="1.5" stroke-linecap="round" stroke-linejoin="round"/>
</svg>
