<svg width="24" height="24" viewBox="0 0 24 24" fill="none" xmlns="http://www.w3.org/2000/svg">
<path d="M12.002 21C16.9725 21 21.002 16.9706 21.002 12C21.002 7.02944 16.9725 3 12.002 3C7.03139 3 3.00195 7.02944 3.00195 12C3.00195 16.9706 7.03139 21 12.002 21Z" stroke="#4E5964" stroke-width="1.5" stroke-miterlimit="10" stroke-linecap="round" stroke-linejoin="round"/>
<path opacity="0.4" d="M12.002 13.417V13.167C12.002 12.35 12.507 11.907 13.013 11.567C13.507 11.234 14.002 10.8 14.002 10C14.002 8.895 13.107 8 12.002 8C10.897 8 10.002 8.895 10.002 10" stroke="#4E5964" stroke-width="1.5" stroke-linecap="round" stroke-linejoin="round"/>
<path opacity="0.4" d="M12.001 16.167C11.863 16.167 11.751 16.279 11.752 16.417C11.752 16.555 11.864 16.667 12.002 16.667C12.14 16.667 12.252 16.555 12.252 16.417C12.252 16.279 12.14 16.167 12.001 16.167" stroke="#4E5964" stroke-width="1.5" stroke-linecap="round" stroke-linejoin="round"/>
</svg>
