<svg width="24" height="24" viewBox="0 0 24 24" fill="none" xmlns="http://www.w3.org/2000/svg">
<path d="M17.4 16.9749C17.4 16.9749 21 17.4539 21 14.2251C21 10.9963 17.625 10.9158 17.625 10.4545C17.625 9.99329 17.1892 5 12 5C6.81077 5 6.375 9.99329 6.375 10.4545C6.375 10.9158 2.99997 10.9963 3 14.2251C3.00003 17.4539 6.6 16.9749 6.6 16.9749" stroke="#4E5964" stroke-width="1.5" stroke-linecap="round" stroke-linejoin="round"/>
<path opacity="0.4" d="M10.5989 12.8912L12.3849 11.2317M10.5977 12.8908L12.2572 14.6768M11 13.1487C11.301 13.0587 11.6332 12.9999 12 12.9999C13.6574 12.9999 15 14.3425 15 15.9999C15 17.6573 13.6574 18.9999 12 18.9999C10.3426 18.9999 9 17.6573 9 15.9999" stroke="#4E5964" stroke-width="1.5" stroke-linecap="round" stroke-linejoin="round"/>
</svg>
