<svg width="24" height="24" viewBox="0 0 24 24" fill="none" xmlns="http://www.w3.org/2000/svg">
<path d="M6.5 7C5.11929 7 4 8.11929 4 9.5V16.5C4 18.9853 6.01472 21 8.5 21H15.5C17.9853 21 20 18.9853 20 16.5V9.36555C20 8.05909 18.9409 7 17.6344 7H17.3172" stroke="#4E5964" stroke-width="1.5"/>
<path d="M6 6C6 5.44772 6.44772 5 7 5H17C17.5523 5 18 5.44772 18 6V9C18 10.1046 17.1046 11 16 11H8C6.89543 11 6 10.1046 6 9V6Z" stroke="#4E5964" stroke-width="1.5"/>
<path d="M9 10V12" stroke="#4E5964" stroke-width="1.5" stroke-linecap="round"/>
<path opacity="0.4" d="M21 16C21 18 21 19 20 19" stroke="#4E5964" stroke-width="1.5" stroke-linecap="round"/>
<path opacity="0.4" d="M3 16C3 18 3 19 4 19" stroke="#4E5964" stroke-width="1.5" stroke-linecap="round"/>
<path d="M15 10V12" stroke="#4E5964" stroke-width="1.5" stroke-linecap="round"/>
<path opacity="0.4" d="M17 21V18C17 17.4477 16.5523 17 16 17H8C7.44772 17 7 17.4477 7 18V21" stroke="#4E5964" stroke-width="1.5"/>
<path opacity="0.4" d="M9 5V3.5C9 2.94772 9.44772 2.5 10 2.5H14C14.5523 2.5 15 2.94772 15 3.5V5" stroke="#4E5964" stroke-width="1.5" stroke-linecap="round"/>
</svg>
