<svg width="24" height="24" viewBox="0 0 24 24" fill="none" xmlns="http://www.w3.org/2000/svg">
<path d="M3.06013 10.8734C2.4352 7.26794 6.99547 5.13172 9.53916 7.78729C10.958 9.26857 13.3675 9.29391 14.7864 7.81263C17.2689 5.22089 21.6332 7.45649 20.9253 10.9573L19.7503 16.7677C19.2527 19.2287 17.0679 21.0001 14.5304 21.0001H9.44098C6.76879 21.0001 4.48532 19.0959 4.03382 16.491L3.06013 10.8734Z" stroke="#4E5964" stroke-width="1.5"/>
<path opacity="0.4" d="M15.6023 7.5V6.6C15.6023 4.61177 13.9906 3 12.0023 3V3C10.0141 3 8.40234 4.61178 8.40234 6.6V6.6" stroke="#4E5964" stroke-width="1.5"/>
<path opacity="0.4" d="M15.6016 12V11.1" stroke="#4E5964" stroke-width="1.5" stroke-linecap="round"/>
<path opacity="0.4" d="M8.40234 12V11.1" stroke="#4E5964" stroke-width="1.5" stroke-linecap="round"/>
</svg>
