<svg width="24" height="24" viewBox="0 0 24 24" fill="none" xmlns="http://www.w3.org/2000/svg">
<path d="M3.05817 10.8734C2.43324 7.26794 6.99352 5.13172 9.53721 7.78729C10.9561 9.26857 13.3655 9.29391 14.7844 7.81263C17.267 5.22089 21.6313 7.45649 20.9233 10.9573L19.7484 16.7677C19.2507 19.2287 17.066 21.0001 14.5285 21.0001H9.43903C6.76683 21.0001 4.48337 19.0959 4.03186 16.491L3.05817 10.8734Z" stroke="#4E5964" stroke-width="1.5"/>
<path opacity="0.4" d="M15.6004 7.5V6.6C15.6004 4.61177 13.9886 3 12.0004 3C10.0122 3 8.40039 4.61178 8.40039 6.6" stroke="#4E5964" stroke-width="1.5"/>
<path opacity="0.4" d="M15.5996 12V11.1" stroke="#4E5964" stroke-width="1.5" stroke-linecap="round"/>
<path opacity="0.4" d="M8.40039 12V11.1" stroke="#4E5964" stroke-width="1.5" stroke-linecap="round"/>
</svg>
