<svg width="24" height="24" viewBox="0 0 24 24" fill="none" xmlns="http://www.w3.org/2000/svg">
<path d="M13.0215 18.6792L18.6783 13.0223" stroke="#4E5964" stroke-width="1.5" stroke-linecap="round"/>
<path d="M15.1427 16.558L17.264 18.6793M16.5569 15.1437L18.6783 17.2651M18.6783 17.2651L17.264 18.6793M18.6783 17.2651C19.2001 16.7432 20.0925 17.1128 20.0925 17.8508V19.0935C20.0925 19.6458 19.6448 20.0935 19.0925 20.0935H17.8498C17.1118 20.0935 16.7422 19.2012 17.264 18.6793" stroke="#4E5964" stroke-width="1.3"/>
<path opacity="0.4" d="M8.22333 11.9365L4.67579 8.86652C4.42411 8.64872 4.26585 8.34245 4.23379 8.01117L3.98079 5.39678C3.90222 4.5849 4.58404 3.90308 5.39592 3.98165L8.0103 4.23465C8.34159 4.26671 8.64786 4.42498 8.86566 4.67666L11.9356 8.22419M14.7893 17.6186L12.1629 15.3458M15.3449 12.1638L17.6177 14.7902M6.30523 14.7888L15.0573 4.67531C15.2751 4.42363 15.5814 4.26536 15.9127 4.2333L18.5271 3.9803C19.3389 3.90173 20.0208 4.58355 19.9422 5.39543L19.6892 8.00982C19.6571 8.34111 19.4989 8.64737 19.2472 8.86517L9.13366 17.6173" stroke="#4E5964" stroke-width="1.5"/>
<path d="M5.24414 13.021L10.901 18.6778" stroke="#4E5964" stroke-width="1.5" stroke-linecap="round"/>
<path d="M7.36539 15.1422L5.24407 17.2636M8.7796 16.5565L6.65828 18.6778M6.65828 18.6778L5.24407 17.2636M6.65828 18.6778C7.18016 19.1997 6.81054 20.092 6.07249 20.092H4.82985C4.27757 20.092 3.82985 19.6443 3.82985 19.092V17.8493C3.82985 17.1113 4.72219 16.7417 5.24407 17.2636" stroke="#4E5964" stroke-width="1.3"/>
</svg>
