<svg width="24" height="24" viewBox="0 0 24 24" fill="none" xmlns="http://www.w3.org/2000/svg">
<path d="M3 12C3 11.4477 3.44772 11 4 11H20C20.5523 11 21 11.4477 21 12V16.5C21 18.9853 18.9853 21 16.5 21H7.5C5.01472 21 3 18.9853 3 16.5V12Z" stroke="#4E5964" stroke-width="1.5"/>
<g opacity="0.4">
<path d="M12 16C12.5523 16 13 15.5523 13 15C13 14.4477 12.5523 14 12 14C11.4477 14 11 14.4477 11 15C11 15.5523 11.4477 16 12 16Z" fill="#4E5964"/>
<path d="M12 16C12.5523 16 13 15.5523 13 15C13 14.4477 12.5523 14 12 14C11.4477 14 11 14.4477 11 15C11 15.5523 11.4477 16 12 16ZM12 16L12 18" stroke="#4E5964" stroke-width="1.5" stroke-miterlimit="10" stroke-linecap="round" stroke-linejoin="round"/>
</g>
<path opacity="0.4" d="M4.49945 11.0002L3.51782 6.41928C3.25102 5.17426 4.20013 4.00022 5.47342 4.00022H18.5255C19.7988 4.00022 20.7479 5.17425 20.4811 6.41928L19.4994 11.0002M9.99945 3.99999L10.7065 3.40087C11.4526 2.76872 12.5463 2.76872 13.2924 3.40087L13.9994 3.99999" stroke="#4E5964" stroke-width="1.5" stroke-linecap="round"/>
<path opacity="0.4" d="M6 10.2354C6 10.2354 6.36666 9.15573 7.09091 8.95586C7.49265 8.84499 7.77765 9.0612 8.18182 8.95586C8.75339 8.80689 8.70115 8.25184 9.27273 8.10286C9.67689 7.99752 9.95947 8.2082 10.3636 8.10286C10.9352 7.95389 10.8638 7.34226 11.4545 7.24987C11.6634 7.2172 12 7.24987 12 7.24987M18 10.2354C18 10.2354 17.6333 9.15931 16.9091 8.9601C16.5074 8.8496 16.2223 9.06509 15.8182 8.9601C15.2466 8.81162 15.2988 8.25842 14.7273 8.10994C14.3231 8.00494 14.0405 8.21493 13.6364 8.10994C13.0648 7.96146 13.1362 7.35185 12.5455 7.25977C12.3366 7.22721 12.2089 7.22721 12 7.25977" stroke="#4E5964" stroke-width="1.51" stroke-linecap="round"/>
<line opacity="0.4" x1="3.75" y1="15.25" x2="6.25" y2="15.25" stroke="#4E5964" stroke-width="1.5" stroke-linecap="round"/>
<line opacity="0.4" x1="17.75" y1="15.25" x2="20.25" y2="15.25" stroke="#4E5964" stroke-width="1.5" stroke-linecap="round"/>
</svg>
