<svg width="24" height="24" viewBox="0 0 24 24" fill="none" xmlns="http://www.w3.org/2000/svg">
<path fill-rule="evenodd" clip-rule="evenodd" d="M2.25 8C2.25 5.37665 4.37665 3.25 7 3.25H15C17.6234 3.25 19.75 5.37665 19.75 8V8.43581L20.1249 8.54417C21.0876 8.82239 21.7502 9.70367 21.7502 10.7057V13.3286C21.7502 14.3611 21.0476 15.2611 20.0459 15.5115L19.75 15.5854V16C19.75 18.6234 17.6234 20.75 15 20.75H7C4.37665 20.75 2.25 18.6234 2.25 16V8ZM19.75 14.0359V9.99851C20.0483 10.1037 20.2502 10.3863 20.2502 10.7057V13.3286C20.2502 13.649 20.0473 13.931 19.75 14.0359ZM7 4.75C5.20507 4.75 3.75 6.20507 3.75 8V16C3.75 17.7949 5.20507 19.25 7 19.25H15C16.7949 19.25 18.25 17.7949 18.25 16V8C18.25 6.20507 16.7949 4.75 15 4.75H7Z" fill="#4E5964"/>
<g opacity="0.4">
<path d="M5.25 8C5.25 7.0335 6.0335 6.25 7 6.25H8.75V17.75H7C6.0335 17.75 5.25 16.9665 5.25 16V8Z" fill="#4E5964"/>
<path d="M9.25 6.25H12.75V17.75H9.25V6.25Z" fill="#4E5964"/>
</g>
</svg>
