<svg width="24" height="24" viewBox="0 0 24 24" fill="none" xmlns="http://www.w3.org/2000/svg">
<path d="M12 7.21561L15.5556 5.06017M12 7.21561L8.34215 5.12859M12 7.21561V10.8799M8.34215 5.12859L8.22222 5.06017M8.34215 5.12859C8.57709 4.70184 8.92348 4.347 9.35126 4.11649L10.9068 3.27826C11.595 2.90743 12.4045 2.90716 13.0927 3.27799L14.6487 4.11649C15.4769 4.56274 16 5.47502 16 6.47287V7.52788C16 8.52572 15.4769 9.4374 14.6487 9.88365L13.0932 10.7219C12.405 11.0927 11.595 11.0927 10.9068 10.7219L9.35126 9.88365C8.52312 9.4374 8 8.52519 8 7.52734V6.47279C8 5.99039 8.12226 5.528 8.34215 5.12859Z" stroke="#4E5964" stroke-width="1.5"/>
<path d="M6 17.2156L9.55556 15.0602M6 17.2156L2.34215 15.1286M6 17.2156V20.8799M2.34215 15.1286L2.22222 15.0602M2.34215 15.1286C2.57709 14.7018 2.92348 14.347 3.35126 14.1165L4.90681 13.2783C5.59499 12.9074 6.40451 12.9072 7.09268 13.278L8.64874 14.1165C9.47688 14.5627 10 15.475 10 16.4729V17.5279C10 18.5257 9.47688 19.4374 8.64875 19.8836L7.09319 20.7219C6.40501 21.0927 5.59499 21.0927 4.90681 20.7219L3.35126 19.8836C2.52312 19.4374 2 18.5252 2 17.5273V16.4728C2 15.9904 2.12226 15.528 2.34215 15.1286Z" stroke="#4E5964" stroke-width="1.5"/>
<path d="M18 17.2156L21.5556 15.0602M18 17.2156L14.3421 15.1286M18 17.2156V20.8799M14.3421 15.1286L14.2222 15.0602M14.3421 15.1286C14.5771 14.7018 14.9235 14.347 15.3513 14.1165L16.9068 13.2783C17.595 12.9074 18.4045 12.9072 19.0927 13.278L20.6487 14.1165C21.4769 14.5627 22 15.475 22 16.4729V17.5279C22 18.5257 21.4769 19.4374 20.6487 19.8836L19.0932 20.7219C18.405 21.0927 17.595 21.0927 16.9068 20.7219L15.3513 19.8836C14.5231 19.4374 14 18.5252 14 17.5273V16.4728C14 15.9904 14.1223 15.528 14.3421 15.1286Z" stroke="#4E5964" stroke-width="1.5"/>
<path opacity="0.4" d="M7.5 13.5L9.5 10" stroke="#4E5964" stroke-width="1.5"/>
<path opacity="0.4" d="M10 17.5H14.5" stroke="#4E5964" stroke-width="1.5"/>
<path opacity="0.4" d="M17 13.5L15 10" stroke="#4E5964" stroke-width="1.5"/>
</svg>
