<svg width="24" height="24" viewBox="0 0 24 24" fill="none" xmlns="http://www.w3.org/2000/svg">
<path d="M3 9C3 6.79086 4.79086 5 7 5H7.2C7.64183 5 8 5.35817 8 5.8C8 6.24183 8.35817 6.6 8.8 6.6H12H15.2C15.6418 6.6 16 6.24183 16 5.8C16 5.35817 16.3582 5 16.8 5H17C19.2091 5 21 6.79086 21 9V11.7692V13V13.6154V13.9231V14.8462V16.5C21 18.9853 18.9853 21 16.5 21H7.5C5.01472 21 3 18.9853 3 16.5V14.8462V14.2308V13.6154V12.0769V11.1538V9Z" stroke="#4E5964" stroke-width="1.5"/>
<path opacity="0.4" d="M15 17C15 17 13.8746 18 12 18C10.1246 18 9 17 9 17" stroke="#4E5964" stroke-width="1.5" stroke-linecap="round"/>
<rect opacity="0.4" x="6" y="10" width="12" height="3" rx="1.5" stroke="#4E5964" stroke-width="1.5" stroke-linecap="round"/>
<path opacity="0.4" d="M2 15C2 14.2019 2 13.7609 2 13" stroke="#4E5964" stroke-width="1.5" stroke-linecap="round"/>
<path opacity="0.4" d="M22 15C22 14.2019 22 13.7609 22 13" stroke="#4E5964" stroke-width="1.5" stroke-linecap="round"/>
<path opacity="0.4" d="M12.75 6.5C12.75 6.91421 12.4142 7.25 12 7.25C11.5858 7.25 11.25 6.91421 11.25 6.5H12H12.75ZM12 5.12849H12.75V6.5H12H11.25V5.12849H12ZM11 4H10.25C10.25 3.03351 11.0335 2.25 12 2.25V3V3.75C11.8619 3.75 11.75 3.86193 11.75 4H11ZM12 3V2.25C12.9665 2.25 13.75 3.03351 13.75 4H13H12.25C12.25 3.86193 12.1381 3.75 12 3.75V3ZM13 4H13.75C13.75 4.9665 12.9665 5.75 12 5.75V5V4.25C12.1381 4.25 12.25 4.13808 12.25 4H13ZM12 5V5.75C11.0335 5.75 10.25 4.9665 10.25 4H11H11.75C11.75 4.13808 11.8619 4.25 12 4.25V5Z" fill="#4E5964"/>
</svg>
