<svg width="24" height="24" viewBox="0 0 24 24" fill="none" xmlns="http://www.w3.org/2000/svg">
<path opacity="0.4" d="M12 12.485L3.76983 7.78911M12 12.485V20.7297M12 12.485L15.6 10.2M3.76983 7.78911C4.29845 6.8289 5.07782 6.0305 6.04032 5.51183L9.54033 3.62579C11.0887 2.7914 12.9113 2.7914 14.4597 3.62579L15.6 4.35M3.76983 7.78911C3.27509 8.68778 3 9.72818 3 10.8136V13.1864C3 15.4316 4.17701 17.4841 6.04033 18.4882L9.54033 20.3742C11.0887 21.2086 12.9113 21.2086 14.4597 20.3742L17.9597 18.4882C19.823 17.4841 21 15.4316 21 13.1864V12.485" stroke="#4E5964" stroke-width="1.5" stroke-linecap="round" stroke-linejoin="round"/>
<path d="M15.6 4.35L14.4597 3.62579C12.9113 2.7914 11.0887 2.7914 9.54033 3.62579L6.04032 5.51183C5.07782 6.0305 4.29845 6.8289 3.76983 7.78911C3.27509 8.68778 3 9.72818 3 10.8136V13.1864C3 15.4316 4.17701 17.4841 6.04032 18.4882L9.54033 20.3742C11.0887 21.2086 12.9113 21.2086 14.4597 20.3742L17.9597 18.4882C19.823 17.4841 21 15.4316 21 13.1864V12.485" stroke="#4E5964" stroke-width="1.5" stroke-linecap="round" stroke-linejoin="round"/>
<path opacity="0.4" d="M19 5.5V9.5M21 7.5H17" stroke="#4E5964" stroke-width="1.5" stroke-linecap="round" stroke-linejoin="round"/>
</svg>
