<svg width="24" height="24" viewBox="0 0 24 24" fill="none" xmlns="http://www.w3.org/2000/svg">
<path opacity="0.4" d="M12.002 12.4851L20.002 7.63538M12.002 12.4851L3.77178 7.78934M12.002 12.4851V20.7297M3.77178 7.78934L3.50195 7.63538M3.77178 7.78934C4.3004 6.82914 5.07978 6.03075 6.04228 5.5121L9.54228 3.62609C11.0907 2.79171 12.9121 2.7911 14.4605 3.62547L17.9616 5.5121C19.8249 6.51616 21.002 8.56879 21.002 10.814V13.1877C21.002 15.4329 19.8249 17.4841 17.9616 18.4882L14.4616 20.3742C12.9132 21.2086 11.0907 21.2086 9.54228 20.3742L6.04228 18.4882C4.17897 17.4841 3.00195 15.4317 3.00195 13.1865V10.8138C3.00195 9.72837 3.27705 8.68799 3.77178 7.78934Z" stroke="#4E5964" stroke-width="1.35"/>
<path d="M3.77178 7.78934L3.50195 7.63538M3.77178 7.78934C4.3004 6.82914 5.07978 6.03075 6.04228 5.5121L9.54228 3.62609C11.0907 2.79171 12.9121 2.7911 14.4605 3.62547L17.9616 5.5121C19.8249 6.51616 21.002 8.56879 21.002 10.814V13.1877C21.002 15.4329 19.8249 17.4841 17.9616 18.4882L14.4616 20.3742C12.9132 21.2086 11.0907 21.2086 9.54228 20.3742L6.04228 18.4882C4.17897 17.4841 3.00195 15.4317 3.00195 13.1865V10.8138C3.00195 9.72837 3.27705 8.68799 3.77178 7.78934Z" stroke="#4E5964" stroke-width="1.35"/>
</svg>
