<svg width="24" height="24" viewBox="0 0 24 24" fill="none" xmlns="http://www.w3.org/2000/svg">
<path opacity="0.4" d="M12 12.539L20.8889 7.15042M12 12.539L2.85537 7.32149M12 12.539V21.6997M2.85537 7.32149L2.55556 7.15042M2.85537 7.32149C3.44272 6.2546 4.30869 5.3675 5.37814 4.79122L9.26703 2.69565C10.9875 1.76857 13.0113 1.76789 14.7317 2.69497L18.6219 4.79122C20.6922 5.90685 22 8.18755 22 10.6822V13.3197C22 15.8143 20.6922 18.0935 18.6219 19.2091L14.733 21.3047C13.0125 22.2318 10.9875 22.2318 9.26703 21.3047L5.37814 19.2091C3.30779 18.0935 2 15.813 2 13.3184V10.682C2 9.47596 2.30566 8.31999 2.85537 7.32149Z" stroke="#4E5964" stroke-width="1.5"/>
<path d="M2.85537 7.32149L2.55556 7.15042M2.85537 7.32149C3.44272 6.2546 4.30869 5.3675 5.37814 4.79122L9.26703 2.69565C10.9875 1.76857 13.0113 1.76789 14.7317 2.69497L18.6219 4.79122C20.6922 5.90685 22 8.18755 22 10.6822V13.3197C22 15.8143 20.6922 18.0935 18.6219 19.2091L14.733 21.3047C13.0125 22.2318 10.9875 22.2318 9.26703 21.3047L5.37814 19.2091C3.30779 18.0935 2 15.813 2 13.3184V10.682C2 9.47596 2.30566 8.31999 2.85537 7.32149Z" stroke="#4E5964" stroke-width="1.5"/>
</svg>
