<svg width="24" height="24" viewBox="0 0 24 24" fill="none" xmlns="http://www.w3.org/2000/svg">
<path d="M21.0043 10.0044L21.0049 7.50443C21.0054 5.01915 18.9911 3.00399 16.5059 3.00344L7.50586 3.00147C5.02058 3.00093 3.00542 5.01521 3.00487 7.50049L3.0029 16.5005C3.00236 18.9858 5.01664 21.0009 7.50192 21.0015L10.0019 21.002" stroke="#4E5964" stroke-width="1.5" stroke-linecap="round"/>
<path opacity="0.4" fill-rule="evenodd" clip-rule="evenodd" d="M6.00609 5.99121L6.01609 6.00122L6.00609 6.01121L5.99609 6.00121L6.00609 5.99121Z" stroke="#4E5964" stroke-width="1.5" stroke-linecap="round" stroke-linejoin="round"/>
<path opacity="0.4" fill-rule="evenodd" clip-rule="evenodd" d="M8.01586 5.99146L8.02586 6.00146L8.01585 6.01146L8.00586 6.00146L8.01586 5.99146Z" stroke="#4E5964" stroke-width="1.5" stroke-linecap="round" stroke-linejoin="round"/>
<path opacity="0.4" d="M11.9189 18.1948C12.5324 17.9798 15.3405 16.8189 15.6674 18.1956C15.9943 19.5723 17.8661 20.5756 18.0024 20.5039M16.6114 11.2859C16.8937 11.8507 17.4142 12.0575 17.2815 12.9732C17.0813 14.3552 18.934 14.7248 19.2123 16.0931C19.3544 16.7922 19.7358 17.4437 20.7069 17.7232M14.0037 11.51C14.1217 12.1455 16.1576 13.7818 15.0442 13.5888C13.5221 13.325 12.9863 15.2051 12.0478 16.4321C11.8579 16.6805 11.6889 17.0195 11.5556 17.4822M16.0028 21.0034C13.2414 21.0028 11.0033 18.7637 11.0039 16.0023C11.0045 13.2409 13.2436 11.0028 16.005 11.0034C18.7664 11.004 21.0045 13.2431 21.0039 16.0045C21.0033 18.7659 18.7642 21.004 16.0028 21.0034Z" stroke="#4E5964" stroke-width="1.5" stroke-linecap="round"/>
<path opacity="0.4" d="M10.0059 6.00195L18.0059 6.0037" stroke="#4E5964" stroke-width="1.5" stroke-linecap="round"/>
</svg>
