<svg width="24" height="25" viewBox="0 0 24 25" fill="none" xmlns="http://www.w3.org/2000/svg">
<path d="M20.002 15.5V10.5515C20.002 8.74228 18.5353 7.27563 16.7261 7.27563V7.27563H7.43052V7.27563C5.53698 7.27563 4.00195 8.81066 4.00195 10.7042V15.5" stroke="#4E5964" stroke-width="1.5"/>
<path opacity="0.4" d="M20.002 18.2756V10.5515C20.002 8.74228 18.5353 7.27563 16.7261 7.27563H7.43052C5.53698 7.27563 4.00195 8.81066 4.00195 10.7042V18.2756M19.502 18.2756C20.3304 18.2756 21.002 18.9472 21.002 19.7756C21.002 20.6041 20.3304 21.2756 19.502 21.2756H4.50195C3.67353 21.2756 3.00195 20.6041 3.00195 19.7756C3.00195 18.9472 3.67353 18.2756 4.50195 18.2756H19.502Z" stroke="#4E5964" stroke-width="1.5"/>
<path opacity="0.4" d="M8.00195 7.27563V4.27563C8.00195 3.72335 7.55424 3.27563 7.00195 3.27563V3.27563C6.44967 3.27563 6.00195 3.72335 6.00195 4.27563V7.27563" stroke="#4E5964" stroke-width="1.5"/>
<path opacity="0.4" d="M13.002 7.27563V4.27563C13.002 3.72335 12.5542 3.27563 12.002 3.27563V3.27563C11.4497 3.27563 11.002 3.72335 11.002 4.27563V7.27563" stroke="#4E5964" stroke-width="1.5"/>
<path opacity="0.4" d="M18.002 7.27563V4.27563C18.002 3.72335 17.5542 3.27563 17.002 3.27563V3.27563C16.4497 3.27563 16.002 3.72335 16.002 4.27563V7.27563" stroke="#4E5964" stroke-width="1.5"/>
<path opacity="0.4" d="M20.002 10V10C19.6955 10 19.4154 10.1731 19.2783 10.4472L19.002 11V11C18.5899 11.824 17.414 11.824 17.002 11V11C16.5899 10.176 15.414 10.176 15.002 11V11C14.5899 11.824 13.414 11.824 13.002 11V11C12.5899 10.176 11.414 10.176 11.002 11V11C10.5899 11.824 9.41398 11.824 9.00195 11V11C8.58993 10.176 7.41398 10.176 7.00195 11V11C6.58993 11.824 5.41398 11.824 5.00195 11V11L4.72556 10.4472C4.58852 10.1731 4.30839 10 4.00195 10V10" stroke="#4E5964" stroke-width="1.5"/>
</svg>
