<svg width="24" height="24" viewBox="0 0 24 24" fill="none" xmlns="http://www.w3.org/2000/svg">
<path d="M21 15.439V8.51247C21 6.15837 19 4.2999 16 4.2999L8 4.25C5 4.2999 3 6.15837 3 8.51247V15.439M21 9.28525V16.7632C21 19.2412 18.9853 21.25 16.5 21.25H7.5C5.01472 21.25 3 19.2412 3 16.7632V12.2764" stroke="#4E5964" stroke-width="1.5" stroke-linecap="round"/>
<path opacity="0.4" d="M9.765 10.4854C9.911 10.6314 9.911 10.8694 9.765 11.0154C9.619 11.1614 9.381 11.1614 9.235 11.0154C9.089 10.8694 9.089 10.6314 9.235 10.4854C9.381 10.3384 9.618 10.3384 9.765 10.4854" stroke="#4E5964" stroke-width="1.5" stroke-linecap="round" stroke-linejoin="round"/>
<path opacity="0.4" d="M14.765 10.4854C14.911 10.6314 14.911 10.8694 14.765 11.0154C14.619 11.1614 14.381 11.1614 14.235 11.0154C14.089 10.8694 14.089 10.6314 14.235 10.4854C14.381 10.3384 14.618 10.3384 14.765 10.4854" stroke="#4E5964" stroke-width="1.5" stroke-linecap="round" stroke-linejoin="round"/>
<path opacity="0.4" d="M14.765 15.4854C14.911 15.6314 14.911 15.8694 14.765 16.0154C14.619 16.1614 14.381 16.1614 14.235 16.0154C14.089 15.8694 14.089 15.6314 14.235 15.4854C14.381 15.3384 14.618 15.3384 14.765 15.4854" stroke="#4E5964" stroke-width="1.5" stroke-linecap="round" stroke-linejoin="round"/>
<path opacity="0.4" d="M9.765 15.4854C9.911 15.6314 9.911 15.8694 9.765 16.0154C9.619 16.1614 9.381 16.1614 9.235 16.0154C9.089 15.8694 9.089 15.6314 9.235 15.4854C9.381 15.3384 9.618 15.3384 9.765 15.4854" stroke="#4E5964" stroke-width="1.5" stroke-linecap="round" stroke-linejoin="round"/>
<path d="M8 5.75V2.75" stroke="#4E5964" stroke-width="1.5" stroke-linecap="round"/>
<path d="M16 5.75V2.75" stroke="#4E5964" stroke-width="1.5" stroke-linecap="round"/>
</svg>
