<svg width="24" height="24" viewBox="0 0 24 24" fill="none" xmlns="http://www.w3.org/2000/svg">
<path d="M21 15.3472V8.01321C21 5.52063 19 3.55284 16 3.55284L8 3.5C5 3.55284 3 5.52063 3 8.01321V15.3472M21 8.83144V16.7493C21 19.373 18.9853 21.5 16.5 21.5H7.5C5.01472 21.5 3 19.373 3 16.7493V11.9985" stroke="#4E5964" stroke-width="1.5" stroke-linecap="round"/>
<path opacity="0.4" d="M8.265 10.7285C8.411 10.8745 8.411 11.1125 8.265 11.2585C8.119 11.4045 7.881 11.4045 7.735 11.2585C7.589 11.1125 7.589 10.8745 7.735 10.7285C7.881 10.5815 8.118 10.5815 8.265 10.7285" stroke="#4E5964" stroke-width="1.5" stroke-linecap="round" stroke-linejoin="round"/>
<path opacity="0.4" d="M12.265 10.7285C12.411 10.8745 12.411 11.1125 12.265 11.2585C12.119 11.4045 11.881 11.4045 11.735 11.2585C11.589 11.1125 11.589 10.8745 11.735 10.7285C11.881 10.5815 12.118 10.5815 12.265 10.7285" stroke="#4E5964" stroke-width="1.5" stroke-linecap="round" stroke-linejoin="round"/>
<path opacity="0.4" d="M8.265 15.7285C8.411 15.8745 8.411 16.1125 8.265 16.2585C8.119 16.4045 7.881 16.4045 7.735 16.2585C7.589 16.1125 7.589 15.8745 7.735 15.7285C7.881 15.5815 8.118 15.5815 8.265 15.7285" stroke="#4E5964" stroke-width="1.5" stroke-linecap="round" stroke-linejoin="round"/>
<path d="M8 5V2" stroke="#4E5964" stroke-width="1.5" stroke-linecap="round"/>
<path d="M16 5V2" stroke="#4E5964" stroke-width="1.5" stroke-linecap="round"/>
</svg>
