<svg width="24" height="24" viewBox="0 0 24 24" fill="none" xmlns="http://www.w3.org/2000/svg">
<g opacity="0.4">
<path d="M12.2541 9H11.643C10.6612 9 9.86523 9.79594 9.86523 10.7778V11.2222C9.86523 12.2041 10.6612 13 11.643 13H12.2541C13.236 13 14.0319 12.2041 14.0319 11.2222V10.7778C14.0319 9.79594 13.236 9 12.2541 9Z" stroke="#4E5964" stroke-width="1.5" stroke-linecap="round" stroke-linejoin="round"/>
<path d="M12.7222 13H11.2778C10.2959 13 9.5 13.7959 9.5 14.7778V15.2222C9.5 16.2041 10.2959 17 11.2778 17H12.7222C13.7041 17 14.5 16.2041 14.5 15.2222V14.7778C14.5 13.7959 13.7041 13 12.7222 13Z" stroke="#4E5964" stroke-width="1.5" stroke-linecap="round" stroke-linejoin="round"/>
</g>
<path d="M21 15.3472V8.01321C21 5.52063 19 3.55284 16 3.55284L8 3.5C5 3.55284 3 5.52063 3 8.01321V15.3472M21 8.83144V16.7493C21 19.373 18.9853 21.5 16.5 21.5H7.5C5.01472 21.5 3 19.373 3 16.7493V11.9985" stroke="#4E5964" stroke-width="1.5" stroke-linecap="round"/>
<path d="M8 5V2" stroke="#4E5964" stroke-width="1.5" stroke-linecap="round"/>
<path d="M16 5V2" stroke="#4E5964" stroke-width="1.5" stroke-linecap="round"/>
</svg>
