<svg width="24" height="24" viewBox="0 0 24 24" fill="none" xmlns="http://www.w3.org/2000/svg">
<path d="M21 15.5972V8.26321C21 5.77063 19 3.80284 16 3.80284L8 3.75C5 3.80284 3 5.77063 3 8.26321V15.5972M21 9.08144V16.9993C21 19.623 18.9853 21.75 16.5 21.75H7.5C5.01472 21.75 3 19.623 3 16.9993V12.2485" stroke="#4E5964" stroke-width="1.5" stroke-linecap="round"/>
<path opacity="0.4" d="M8.265 10.9785C8.411 11.1245 8.411 11.3625 8.265 11.5085C8.119 11.6545 7.881 11.6545 7.735 11.5085C7.589 11.3625 7.589 11.1245 7.735 10.9785C7.881 10.8315 8.118 10.8315 8.265 10.9785" stroke="#4E5964" stroke-width="1.5" stroke-linecap="round" stroke-linejoin="round"/>
<path opacity="0.4" d="M12.265 10.9785C12.411 11.1245 12.411 11.3625 12.265 11.5085C12.119 11.6545 11.881 11.6545 11.735 11.5085C11.589 11.3625 11.589 11.1245 11.735 10.9785C11.881 10.8315 12.118 10.8315 12.265 10.9785" stroke="#4E5964" stroke-width="1.5" stroke-linecap="round" stroke-linejoin="round"/>
<path opacity="0.4" d="M16.265 10.9785C16.411 11.1245 16.411 11.3625 16.265 11.5085C16.119 11.6545 15.881 11.6545 15.735 11.5085C15.589 11.3625 15.589 11.1245 15.735 10.9785C15.881 10.8315 16.118 10.8315 16.265 10.9785" stroke="#4E5964" stroke-width="1.5" stroke-linecap="round" stroke-linejoin="round"/>
<path opacity="0.4" d="M12.265 15.9785C12.411 16.1245 12.411 16.3625 12.265 16.5085C12.119 16.6545 11.881 16.6545 11.735 16.5085C11.589 16.3625 11.589 16.1245 11.735 15.9785C11.881 15.8315 12.118 15.8315 12.265 15.9785" stroke="#4E5964" stroke-width="1.5" stroke-linecap="round" stroke-linejoin="round"/>
<path opacity="0.4" d="M16.265 15.9785C16.411 16.1245 16.411 16.3625 16.265 16.5085C16.119 16.6545 15.881 16.6545 15.735 16.5085C15.589 16.3625 15.589 16.1245 15.735 15.9785C15.881 15.8315 16.118 15.8315 16.265 15.9785" stroke="#4E5964" stroke-width="1.5" stroke-linecap="round" stroke-linejoin="round"/>
<path opacity="0.4" d="M8.265 15.9785C8.411 16.1245 8.411 16.3625 8.265 16.5085C8.119 16.6545 7.881 16.6545 7.735 16.5085C7.589 16.3625 7.589 16.1245 7.735 15.9785C7.881 15.8315 8.118 15.8315 8.265 15.9785" stroke="#4E5964" stroke-width="1.5" stroke-linecap="round" stroke-linejoin="round"/>
<path d="M8 5.25V2.25" stroke="#4E5964" stroke-width="1.5" stroke-linecap="round"/>
<path d="M16 5.25V2.25" stroke="#4E5964" stroke-width="1.5" stroke-linecap="round"/>
</svg>
