<svg width="24" height="24" viewBox="0 0 24 24" fill="none" xmlns="http://www.w3.org/2000/svg">
<path opacity="0.4" d="M9 5V3" stroke="#4E5964" stroke-width="1.5" stroke-linecap="round"/>
<path opacity="0.4" d="M15 5V3" stroke="#4E5964" stroke-width="1.5" stroke-linecap="round"/>
<path opacity="0.4" d="M9.13503 9.34923C9.35165 9.56585 9.35165 9.91897 9.13503 10.1356C8.91841 10.3522 8.56529 10.3522 8.34867 10.1356C8.13205 9.91897 8.13205 9.56585 8.34867 9.34923C8.56529 9.13112 8.91693 9.13112 9.13503 9.34923" stroke="#4E5964" stroke-width="1.4837" stroke-linecap="round" stroke-linejoin="round"/>
<path opacity="0.4" d="M9.13503 15.8658C9.35165 16.0824 9.35165 16.4356 9.13503 16.6522C8.91841 16.8688 8.56529 16.8688 8.34867 16.6522C8.13205 16.4356 8.13205 16.0824 8.34867 15.8658C8.56529 15.6477 8.91693 15.6477 9.13503 15.8658" stroke="#4E5964" stroke-width="1.4837" stroke-linecap="round" stroke-linejoin="round"/>
<path opacity="0.4" d="M15.6507 15.8658C15.8673 16.0824 15.8673 16.4356 15.6507 16.6522C15.434 16.8688 15.0809 16.8688 14.8643 16.6522C14.6477 16.4356 14.6477 16.0824 14.8643 15.8658C15.0809 15.6477 15.4326 15.6477 15.6507 15.8658" stroke="#4E5964" stroke-width="1.4837" stroke-linecap="round" stroke-linejoin="round"/>
<path opacity="0.4" d="M15.6507 9.34923C15.8673 9.56585 15.8673 9.91897 15.6507 10.1356C15.434 10.3522 15.0809 10.3522 14.8643 10.1356C14.6477 9.91897 14.6477 9.56585 14.8643 9.34923C15.0809 9.13112 15.4326 9.13112 15.6507 9.34923" stroke="#4E5964" stroke-width="1.4837" stroke-linecap="round" stroke-linejoin="round"/>
<path d="M21 15.1718V8.22495C21 5.86393 19 4 16 4M14 3.94995H12H10M3 15.1718V8.22495C3 5.86393 5 4 8 3.94995" stroke="#4E5964" stroke-width="1.5"/>
<path d="M21 9V16.4999C21 18.9852 18.9853 20.9999 16.5 20.9999H7.5C5.01472 20.9999 3 18.9852 3 16.4999V11.9999" stroke="#4E5964" stroke-width="1.5" stroke-linecap="round"/>
</svg>
