<svg width="24" height="24" viewBox="0 0 24 24" fill="none" xmlns="http://www.w3.org/2000/svg">
<path d="M15 3H12H9M17 3C19.7614 3 22 5.12665 22 7.75V15.4688C22 19.0759 18.922 22 15.125 22H8.875C5.07804 22 2 19.0759 2 15.4688V7.75C2 5.12665 4.23858 3 7 3" stroke="#4E5964" stroke-width="1.5"/>
<path opacity="0.64" d="M8 4V2" stroke="#4E5964" stroke-width="1.5" stroke-linecap="round"/>
<path opacity="0.64" d="M16 4V2" stroke="#4E5964" stroke-width="1.5" stroke-linecap="round"/>
<path opacity="0.64" d="M10.7141 12.7906L11.3922 12.3904L10.7417 11.9469C10.4285 11.7334 10.23 11.4132 10.23 10.97C10.23 10.4683 10.4237 10.1212 10.7155 9.8884C11.0206 9.64503 11.4696 9.5 12 9.5C12.5303 9.5 12.9761 9.64496 13.2783 9.88747C13.5674 10.1194 13.76 10.4666 13.76 10.97C13.76 11.4137 13.5709 11.7246 13.2463 11.9482L12.5875 12.4021L13.2842 12.7954C13.7539 13.0606 14 13.488 14 13.98C14 14.4587 13.8209 14.8139 13.5143 15.0602C13.1953 15.3165 12.6925 15.49 12 15.49C11.3019 15.49 10.7996 15.3162 10.4825 15.0607C10.1778 14.8152 10 14.4604 10 13.98C10 13.4907 10.2442 13.0679 10.7141 12.7906ZM10.6 11.04C10.6 11.4239 10.7534 11.7639 11.0274 12.0015C11.2946 12.2332 11.6431 12.34 12 12.34C12.3569 12.34 12.7054 12.2332 12.9726 12.0015C13.2466 11.7639 13.4 11.4239 13.4 11.04C13.4 10.6525 13.2473 10.3115 12.9674 10.0754C12.6972 9.84733 12.3488 9.75 12 9.75C11.6512 9.75 11.3028 9.84733 11.0326 10.0754C10.7527 10.3115 10.6 10.6525 10.6 11.04ZM10.36 13.82C10.36 14.2686 10.5468 14.649 10.8755 14.9047C11.1896 15.149 11.5934 15.25 12 15.25C12.4066 15.25 12.8104 15.149 13.1245 14.9047C13.4532 14.649 13.64 14.2686 13.64 13.82C13.64 13.3736 13.4509 12.996 13.1229 12.7429C12.8095 12.501 12.4067 12.4 12 12.4C11.5966 12.4 11.1934 12.497 10.8786 12.738C10.5476 12.9913 10.36 13.3706 10.36 13.82Z" fill="#4E5964" stroke="#4E5964"/>
</svg>
