<svg width="24" height="24" viewBox="0 0 24 24" fill="none" xmlns="http://www.w3.org/2000/svg">
<path opacity="0.4" d="M9 5V3" stroke="#4E5964" stroke-width="1.5" stroke-linecap="round"/>
<path opacity="0.4" d="M15 5V3" stroke="#4E5964" stroke-width="1.5" stroke-linecap="round"/>
<path opacity="0.4" d="M7.82502 8.82438C8.3138 8.3344 9.09136 8.32095 9.60041 8.77164C9.62084 8.78812 9.64099 8.80542 9.65998 8.82438L9.74982 8.92301C10.1651 9.43247 10.1346 10.1857 9.65998 10.6603C9.15365 11.1663 8.33126 11.1665 7.82502 10.6603C7.31872 10.154 7.31877 9.33071 7.82502 8.82438Z" fill="#4E5964"/>
<path opacity="0.4" d="M7.82502 15.341C8.3138 14.851 9.09136 14.8376 9.60041 15.2882C9.62084 15.3047 9.64099 15.322 9.65998 15.341L9.74982 15.4396C10.1651 15.9491 10.1346 16.7023 9.65998 17.1769C9.15365 17.6829 8.33126 17.6831 7.82502 17.1769C7.31872 16.6706 7.31877 15.8473 7.82502 15.341Z" fill="#4E5964"/>
<path opacity="0.4" d="M14.3406 15.341C14.8294 14.851 15.607 14.8376 16.116 15.2882C16.1365 15.3047 16.1566 15.322 16.1756 15.341L16.2654 15.4396C16.6807 15.9491 16.6503 16.7023 16.1756 17.1769C15.6693 17.6829 14.8469 17.6831 14.3406 17.1769C13.8343 16.6706 13.8344 15.8473 14.3406 15.341Z" fill="#4E5964"/>
<path opacity="0.4" d="M14.3406 8.82438C14.8294 8.3344 15.607 8.32095 16.116 8.77164C16.1365 8.78812 16.1566 8.80542 16.1756 8.82438L16.2654 8.92301C16.6807 9.43247 16.6503 10.1857 16.1756 10.6603C15.6693 11.1663 14.8469 11.1665 14.3406 10.6603C13.8343 10.154 13.8344 9.33071 14.3406 8.82438Z" fill="#4E5964"/>
<path d="M21 15.1718V8.22495C21 5.86393 19 4 16 4M14 3.94995H12H10M3 15.1718V8.22495C3 5.86393 5 4 8 3.94995" stroke="#4E5964" stroke-width="1.5"/>
<path d="M21 9V16.4999C21 18.9852 18.9853 20.9999 16.5 20.9999H7.5C5.01472 20.9999 3 18.9852 3 16.4999V11.9999" stroke="#4E5964" stroke-width="1.5" stroke-linecap="round"/>
</svg>
