<svg width="24" height="24" viewBox="0 0 24 24" fill="none" xmlns="http://www.w3.org/2000/svg">
<path d="M21 15.1719V9.00002V16.4999C21 18.9852 18.9853 20.9999 16.5 20.9999H7.5C5.01472 20.9999 3 18.9852 3 16.4999V11.9999M3 8.22498V15.1719" stroke="#4E5964" stroke-width="1.5" stroke-linecap="round"/>
<path d="M21 15.2219V8.275C21 5.91398 19 4.05005 16 4.05005M14 4H12H10M3 15.2219V8.275C3 5.91398 5 4.05005 8 4" stroke="#4E5964" stroke-width="1.5"/>
<path opacity="0.4" d="M9 5V3" stroke="#4E5964" stroke-width="1.5" stroke-linecap="round"/>
<path opacity="0.4" d="M15 5V3" stroke="#4E5964" stroke-width="1.5" stroke-linecap="round"/>
<g opacity="0.4">
<path d="M10.4704 10.935C10.4704 9.984 11.3189 9.58594 11.9781 9.58594C12.6373 9.58594 13.5284 9.93223 13.5284 10.935C13.5284 11.9377 12.6005 12.2094 11.9781 12.2094C11.3557 12.2094 10.4704 11.8859 10.4704 10.935Z" stroke="#4E5964" stroke-width="1.5"/>
<path d="M10.1172 13.9414C10.1172 12.8448 11.1619 12.3857 11.9735 12.3857C12.7851 12.3857 13.8822 12.7851 13.8822 13.9414C13.8822 15.0978 12.7398 15.4111 11.9735 15.4111C11.2071 15.4111 10.1172 15.0381 10.1172 13.9414Z" stroke="#4E5964" stroke-width="1.5"/>
</g>
</svg>
