<svg width="24" height="24" viewBox="0 0 24 24" fill="none" xmlns="http://www.w3.org/2000/svg">
<path d="M19.9423 15.2882C22.4778 16.7471 19.9381 20.7393 17.7275 20.9574C10.6615 21.6546 3.36473 13.6609 3.00256 6.91544C2.88771 4.77641 6.66924 1.41378 8.3918 3.84934C9.30963 5.14707 10.6554 7.08009 9.1875 8.625" stroke="#4E5964" stroke-width="1.5" stroke-linecap="round" stroke-linejoin="round"/>
<path opacity="0.4" d="M15.375 14.8125C12.98 17.3332 6.78337 11.1553 9.1875 8.625C10.6554 7.08009 9.30963 5.14707 8.3918 3.84934C6.66924 1.41378 2.88771 4.77641 3.00256 6.91544C3.36473 13.6609 10.6615 21.6546 17.7275 20.9574C19.9381 20.7393 22.4778 16.7471 19.9423 15.2882C18.6745 14.5587 16.7093 13.4082 15.375 14.8125Z" stroke="#4E5964" stroke-width="1.5" stroke-linecap="round" stroke-linejoin="round"/>
<path opacity="0.4" d="M15 6.5L16.3318 8L19 5" stroke="#4E5964" stroke-width="1.5" stroke-linecap="round" stroke-linejoin="round"/>
</svg>
