<svg width="24" height="24" viewBox="0 0 24 24" fill="none" xmlns="http://www.w3.org/2000/svg">
<path opacity="0.4" d="M9.80292 9.32981C10.644 9.17772 11.2943 8.36162 11.2558 7.50744" stroke="#4E5964" stroke-width="1.5" stroke-linecap="round" stroke-linejoin="round"/>
<path opacity="0.4" d="M8.65963 7.7094C9.10414 7.62902 9.44787 7.19769 9.42752 6.74624" stroke="#4E5964" stroke-width="1.5" stroke-linecap="round" stroke-linejoin="round"/>
<path opacity="0.4" d="M4.59961 9.85876L15.5131 18.6021" stroke="#4E5964" stroke-width="1.5" stroke-linecap="square"/>
<path d="M16.0508 19.3712L20.2337 14.0096C21.4387 12.5049 21.1962 10.3078 19.6921 9.10228L13.0351 3.76665C11.531 2.56115 9.3349 2.80371 8.12993 4.30843L3.76632 9.75751C2.56134 11.2622 2.8038 13.4593 4.30786 14.6648L7.63639 17.3326L9.30066 18.6665L11.2806 20.071C12.8021 21.1503 14.9034 20.842 16.0508 19.3712Z" stroke="#4E5964" stroke-width="1.5"/>
<path d="M5 21H19" stroke="#4E5964" stroke-width="1.5" stroke-linecap="round"/>
</svg>
