<svg width="24" height="24" viewBox="0 0 24 24" fill="none" xmlns="http://www.w3.org/2000/svg">
<path opacity="0.4" d="M16 10L22 10" stroke="#4E5964" stroke-width="1.5" stroke-linecap="round"/>
<path d="M6.34514 10.9091V9L6.44868 7.90318C6.70669 5.16981 9.08631 3.07692 11.9362 3.07692H20.7801C21.4538 3.07692 22 3.60291 22 4.25175V12.0253C22 14.2205 20.1523 16 17.8729 16H9.00888C6.14154 16 3.76847 14.0724 3.41855 11.3315C3.33343 10.6648 3.22155 9.9598 3.0372 9.15132C3.00682 9.01813 2.97964 8.88427 2.95716 8.74964C2.88613 8.32434 2.71469 7.31519 2.56998 6.6014C2.34743 5.50356 2.13833 4.04586 2.00815 3.068C1.93237 2.49874 2.39461 2 2.99053 2" stroke="#4E5964" stroke-width="1.5" stroke-linecap="round"/>
<path opacity="0.4" d="M15 21H11M11 20.5C11 21.3284 10.3284 22 9.5 22C8.67157 22 8 21.3284 8 20.5C8 19.6716 8.67157 19 9.5 19C10.3284 19 11 19.6716 11 20.5ZM18 20.5C18 21.3284 17.3284 22 16.5 22C15.6716 22 15 21.3284 15 20.5C15 19.6716 15.6716 19 16.5 19C17.3284 19 18 19.6716 18 20.5Z" stroke="#4E5964" stroke-width="1.5" stroke-linecap="round"/>
</svg>
