<svg width="24" height="24" viewBox="0 0 24 24" fill="none" xmlns="http://www.w3.org/2000/svg">
<path d="M6.91258 11.0182V9.3L7.00576 8.31286C7.23797 5.85283 9.37963 3.96923 11.9445 3.96923H19.9041C20.5104 3.96923 21.002 4.44262 21.002 5.02657V12.0228C21.002 13.9984 19.339 15.6 17.2876 15.6H9.30995C6.72934 15.6 4.59358 13.8651 4.27865 11.3984C4.20204 10.7983 4.10135 10.1638 3.93543 9.43619C3.90809 9.31632 3.88363 9.19585 3.86339 9.07468C3.79947 8.6919 3.64517 7.78367 3.51494 7.14126C3.31464 6.1532 3.12645 4.84127 3.00929 3.9612C2.94109 3.44886 3.3571 3 3.89343 3" stroke="#4E5964" stroke-width="1.5" stroke-linecap="round"/>
<path opacity="0.4" d="M14.7023 20.1H11.1023M11.1023 19.65C11.1023 20.3956 10.4979 21 9.75234 21C9.00676 21 8.40234 20.3956 8.40234 19.65C8.40234 18.9045 9.00676 18.3 9.75234 18.3C10.4979 18.3 11.1023 18.9045 11.1023 19.65ZM17.4023 19.65C17.4023 20.3956 16.7979 21 16.0523 21C15.3068 21 14.7023 20.3956 14.7023 19.65C14.7023 18.9045 15.3068 18.3 16.0523 18.3C16.7979 18.3 17.4023 18.9045 17.4023 19.65Z" stroke="#4E5964" stroke-width="1.5" stroke-linecap="round"/>
<path opacity="0.4" d="M15.6016 10.2L21.0016 10.2" stroke="#4E5964" stroke-width="1.5" stroke-linecap="round"/>
</svg>
