<svg width="24" height="24" viewBox="0 0 24 24" fill="none" xmlns="http://www.w3.org/2000/svg">
<path d="M3 7.5C3 5.01472 5.01472 3 7.5 3H16.5C18.9853 3 21 5.01472 21 7.5V16.5C21 18.9853 18.9853 21 16.5 21H7.5C5.01472 21 3 18.9853 3 16.5V7.5Z" stroke="#4E5964" stroke-width="1.5" stroke-linecap="round"/>
<path opacity="0.4" d="M12.0004 8.00004C9.79121 8.00004 8.00035 9.7909 8.00035 12C8.00035 14.2092 9.79121 16 12.0004 16C14.2095 16 16.0004 14.2092 16.0004 12C16.0004 9.7909 14.2095 8.00004 12.0004 8.00004ZM12.0004 8.00004H20.5004M9.99816 20.7222L14.4436 15.3168M4.39844 5.71313L4.52456 5.96405L7.48268 11.7335L7.79109 12.3605" stroke="#4E5964" stroke-width="1.5" stroke-linecap="round"/>
</svg>
