<svg width="24" height="24" viewBox="0 0 24 24" fill="none" xmlns="http://www.w3.org/2000/svg">
<path d="M3.00195 7.5C3.00195 5.01472 5.01667 3 7.50195 3H16.502C18.9872 3 21.002 5.01472 21.002 7.5V16.5C21.002 18.9853 18.9872 21 16.502 21H7.50195C5.01667 21 3.00195 18.9853 3.00195 16.5V7.5Z" stroke="#4E5964" stroke-width="1.5"/>
<path opacity="0.4" d="M9.42085 20.2458L8.94446 20.825L10.103 21.7778L10.5794 21.1985L9.42085 20.2458ZM15.0248 15.7932L15.5012 15.2139L14.3426 14.2611L13.8663 14.8404L15.0248 15.7932ZM7.48463 11.7335L8.15773 11.4024L8.15202 11.3913L7.48463 11.7335ZM4.52651 5.96405L3.85638 6.30089L3.85912 6.30623L4.52651 5.96405ZM5.0705 5.37631L4.73367 4.7062L3.39345 5.37985L3.73028 6.04996L5.0705 5.37631ZM7.12004 12.6916L7.45106 13.3646L8.79706 12.7025L8.46604 12.0295L7.12004 12.6916ZM20.5023 8.75004C20.9165 8.75004 21.2523 8.41426 21.2523 8.00004C21.2523 7.58583 20.9165 7.25004 20.5023 7.25004V8.75004ZM15.2523 12C15.2523 13.795 13.7972 15.25 12.0023 15.25V16.75C14.6257 16.75 16.7523 14.6234 16.7523 12H15.2523ZM12.0023 15.25C10.2074 15.25 8.7523 13.795 8.7523 12H7.2523C7.2523 14.6234 9.37895 16.75 12.0023 16.75V15.25ZM8.7523 12C8.7523 10.2051 10.2074 8.75004 12.0023 8.75004V7.25004C9.37895 7.25004 7.2523 9.37669 7.2523 12H8.7523ZM12.0023 8.75004C13.7972 8.75004 15.2523 10.2051 15.2523 12H16.7523C16.7523 9.37669 14.6257 7.25004 12.0023 7.25004V8.75004ZM8.15202 11.3913L5.1939 5.62186L3.85912 6.30623L6.81724 12.0757L8.15202 11.3913ZM20.5023 7.25004H12.0023V8.75004H20.5023V7.25004ZM10.5794 21.1985L15.0248 15.7932L13.8663 14.8404L9.42085 20.2458L10.5794 21.1985ZM5.19662 5.62722L5.0705 5.37631L3.73028 6.04996L3.8564 6.30088L5.19662 5.62722ZM6.81163 12.0645L7.12004 12.6916L8.46604 12.0295L8.15763 11.4025L6.81163 12.0645Z" fill="#4E5964"/>
</svg>
