<svg width="24" height="24" viewBox="0 0 24 24" fill="none" xmlns="http://www.w3.org/2000/svg">
<path d="M3 7.5C3 5.01472 5.01472 3 7.5 3H16.5C18.9853 3 21 5.01472 21 7.5V16.5C21 18.9853 18.9853 21 16.5 21H7.5C5.01472 21 3 18.9853 3 16.5V7.5Z" stroke="#4E5964" stroke-width="1.5"/>
<path opacity="0.4" d="M9.4189 20.2458L8.9425 20.825L10.101 21.7778L10.5774 21.1985L9.99816 20.7222L9.4189 20.2458ZM15.0228 15.7932L15.4992 15.2139L14.3407 14.2611L13.8643 14.8404L14.4436 15.3168L15.0228 15.7932ZM7.48268 11.7335L8.15577 11.4024L8.15007 11.3913L7.48268 11.7335ZM4.52456 5.96405L3.85443 6.30089L3.85717 6.30623L4.52456 5.96405ZM5.06855 5.37631L4.73172 4.7062L3.3915 5.37985L3.72833 6.04996L4.39844 5.71313L5.06855 5.37631ZM7.11809 12.6916L7.4491 13.3646L8.7951 12.7025L8.46409 12.0295L7.79109 12.3605L7.11809 12.6916ZM20.5004 8.75004C20.9146 8.75004 21.2504 8.41426 21.2504 8.00004C21.2504 7.58583 20.9146 7.25004 20.5004 7.25004V8.00004V8.75004ZM16.0004 12H15.2504C15.2504 13.795 13.7953 15.25 12.0004 15.25V16V16.75C14.6237 16.75 16.7504 14.6234 16.7504 12H16.0004ZM12.0004 16V15.25C10.2054 15.25 8.75035 13.795 8.75035 12H8.00035H7.25035C7.25035 14.6234 9.377 16.75 12.0004 16.75V16ZM8.00035 12H8.75035C8.75035 10.2051 10.2054 8.75004 12.0004 8.75004V8.00004V7.25004C9.377 7.25004 7.25035 9.37669 7.25035 12H8.00035ZM12.0004 8.00004V8.75004C13.7953 8.75004 15.2504 10.2051 15.2504 12H16.0004H16.7504C16.7504 9.37669 14.6237 7.25004 12.0004 7.25004V8.00004ZM7.48268 11.7335L8.15007 11.3913L5.19195 5.62186L4.52456 5.96405L3.85717 6.30623L6.81529 12.0757L7.48268 11.7335ZM20.5004 8.00004V7.25004H12.0004V8.00004V8.75004H20.5004V8.00004ZM9.99816 20.7222L10.5774 21.1985L15.0228 15.7932L14.4436 15.3168L13.8643 14.8404L9.4189 20.2458L9.99816 20.7222ZM4.52456 5.96405L5.19467 5.62722L5.06855 5.37631L4.39844 5.71313L3.72833 6.04996L3.85445 6.30088L4.52456 5.96405ZM7.48268 11.7335L6.80968 12.0645L7.11809 12.6916L7.79109 12.3605L8.46409 12.0295L8.15568 11.4025L7.48268 11.7335Z" fill="#4E5964"/>
</svg>
