<svg width="24" height="24" viewBox="0 0 24 24" fill="none" xmlns="http://www.w3.org/2000/svg">
<path d="M17.8125 14.4545C17.8125 13.9933 17.4009 9 12.5 9C7.59906 9 7.1875 13.9933 7.1875 14.4545C7.1875 14.9158 3.99997 14.9963 4 18.2251C4.00003 21.4539 7.4 20.9749 7.4 20.9749H9.66667H12.5H14.8611H17.6C17.6 20.9749 21 21.4539 21 18.2251C21 14.9963 17.8125 14.9158 17.8125 14.4545Z" stroke="#4E5964" stroke-width="1.5" stroke-linecap="round" stroke-linejoin="round"/>
<path opacity="0.4" d="M13.6107 9.00006C13.2933 7.10826 11.648 5.66675 9.66602 5.66675C7.45688 5.66675 5.66602 7.45761 5.66602 9.66675C5.66602 11.2045 6.53375 12.5396 7.80627 13.209" stroke="#4E5964" stroke-width="1.5"/>
<path opacity="0.4" d="M9.66602 3.66675L9.66602 3.00008" stroke="#4E5964" stroke-width="1.5" stroke-linecap="round"/>
<path opacity="0.4" d="M3.66602 9.66675L2.99935 9.66675" stroke="#4E5964" stroke-width="1.5" stroke-linecap="round"/>
<path opacity="0.4" d="M5.54102 5.54175L4.95176 4.95249" stroke="#4E5964" stroke-width="1.5" stroke-linecap="round"/>
</svg>
