<svg width="24" height="24" viewBox="0 0 24 24" fill="none" xmlns="http://www.w3.org/2000/svg">
<path d="M3.00195 8.56505C3.00195 7.70106 3.73116 7 4.62982 7H16.3741C17.2738 7 18.002 7.70106 18.002 8.56505V11.7889C18.002 13.7013 17.2119 15.5353 15.8055 16.8876C14.3991 18.2399 12.4915 18.9997 10.5025 19C9.51749 19 8.54215 18.8135 7.63214 18.4511C6.72214 18.0887 5.89529 17.5575 5.1988 16.8879C4.50232 16.2183 3.94983 15.4234 3.5729 14.5485C3.19596 13.6736 3.00195 12.7359 3.00195 11.7889V8.56505Z" stroke="#4E5964" stroke-width="1.5" stroke-linecap="round" stroke-linejoin="round"/>
<path opacity="0.4" d="M14.3598 4C14.1648 4.11333 14.002 4.66667 14.002 5" stroke="#4E5964" stroke-width="1.5" stroke-linecap="round" stroke-linejoin="round"/>
<path opacity="0.4" d="M7.38761 4C7.38761 4 7.00195 4.33333 7.00195 5" stroke="#4E5964" stroke-width="1.5" stroke-linecap="round" stroke-linejoin="round"/>
<path opacity="0.4" d="M11.0794 3C10.6887 3.226 10.1445 4 10.1445 5" stroke="#4E5964" stroke-width="1.5" stroke-linecap="round" stroke-linejoin="round"/>
<path d="M4.00195 21H17.002" stroke="#4E5964" stroke-width="1.5" stroke-linecap="round"/>
<path opacity="0.4" d="M18.3969 9.00184C18.795 8.98789 19.1919 9.05337 19.5645 9.19447C19.9371 9.33558 20.2778 9.54947 20.5668 9.82368C20.8558 10.0979 21.0873 10.4269 21.2478 10.7915C21.4083 11.1562 21.4945 11.5491 21.5015 11.9474C21.5085 12.3458 21.436 12.7415 21.2884 13.1115C21.1408 13.4816 20.921 13.8185 20.6418 14.1027C20.3625 14.3868 20.0295 14.6125 19.6621 14.7666C19.2947 14.9207 18.9003 15 18.502 15H17.502" stroke="#4E5964" stroke-width="1.5"/>
</svg>
