<svg width="24" height="24" viewBox="0 0 24 24" fill="none" xmlns="http://www.w3.org/2000/svg">
<path opacity="0.4" d="M16.25 4.25537C16.25 4.25537 19.0302 3.73063 20.25 5.25537C21.2258 6.47516 21.25 7.25537 21.25 7.25537M17.25 6.25L15.25 4.25L17.25 2.25" stroke="#4E5964" stroke-width="1.5" stroke-linecap="round" stroke-linejoin="round"/>
<path opacity="0.4" d="M8.25 20.25C8.25 20.25 5.46979 20.7747 4.25 19.25C3.27417 18.0302 3.25 17.25 3.25 17.25M7.25 18.2554L9.25 20.2554L7.25 22.2554" stroke="#4E5964" stroke-width="1.5" stroke-linecap="round" stroke-linejoin="round"/>
<path d="M3 4.25537H4.5M3 11.2554H4.5M6.5 2V3.5M6.5 12V13.5M4.75 4.25V11.25H7.86111C8.72022 11.25 9.41667 10.5536 9.41667 9.69444V9.30556C9.41667 8.44645 8.72022 7.75 7.86111 7.75H4.98333L7.88293 7.70932C8.73345 7.69739 9.41667 7.00452 9.41667 6.15392V5.80556C9.41667 4.94645 8.72022 4.25 7.86111 4.25H4.75Z" stroke="#4E5964" stroke-width="1.5" stroke-linecap="round" stroke-linejoin="round"/>
<path d="M20.75 14.9166V14.4583C20.75 13.4458 19.9292 12.625 18.9167 12.625H17.0833C16.0708 12.625 15.25 13.4458 15.25 14.4583V14.7386C15.25 15.6348 15.8979 16.3996 16.7819 16.547L19.2181 16.953C20.1021 17.1003 20.75 17.8652 20.75 18.7614V19.0416C20.75 20.0542 19.9292 20.875 18.9167 20.875H17.0833C16.0708 20.875 15.25 20.0542 15.25 19.0416V18.5833M18 11.25L18 22.25" stroke="#4E5964" stroke-width="1.5" stroke-linecap="round" stroke-linejoin="round"/>
</svg>
