<svg width="24" height="24" viewBox="0 0 24 24" fill="none" xmlns="http://www.w3.org/2000/svg">
<path d="M18 12V16.5M18 21V16.5M21 14.25C20.778 13.4736 19.9949 12.9 19.063 12.9H18H17C15.8954 12.9 15 13.7059 15 14.7C15 15.6941 15.8954 16.5 17 16.5H18M15 18.75C15.222 19.5264 16.0051 20.1 16.937 20.1H18H19C20.1046 20.1 21 19.2941 21 18.3C21 17.3059 20.1046 16.5 19 16.5L18 16.5" stroke="#4E5964" stroke-width="1.5" stroke-linecap="round" stroke-linejoin="round"/>
<path opacity="0.4" d="M16 4C16 4 18.7802 3.47526 20 5C20.9758 6.21979 21 7 21 7M16 5L15 4L16 3" stroke="#4E5964" stroke-width="1.5" stroke-linecap="round" stroke-linejoin="round"/>
<path opacity="0.4" d="M8.01632 19.9955C8.01632 19.9955 5.23902 20.5337 4.01092 19.0208C3.02843 17.8106 3 17.0332 3 17.0332M8.01079 18.9983L9.01625 19.9898L8.02173 20.9923" stroke="#4E5964" stroke-width="1.5" stroke-linecap="round" stroke-linejoin="round"/>
<path d="M8.62352 8.99986C9.6442 8.66417 10.2651 7.53966 9.54703 6.45016C9.08635 5.75123 8.17744 5.57129 7.34035 5.57129H3M8.62352 8.99986H3.85714M8.62352 8.99986C9.55382 9.46609 10.2672 10.598 9.43673 11.6973C9.00485 12.269 8.24172 12.4284 7.52526 12.4284H4.28571C4.04902 12.4284 3.85714 12.2366 3.85714 11.9999V8.99986M3.85714 8.99986V8.14272" stroke="#4E5964" stroke-width="1.71429" stroke-linecap="round"/>
<path opacity="0.4" d="M7.28488 14.1426L7.28488 13.2854L5.57059 13.2854L5.57059 14.1426L6.42773 14.1426L7.28488 14.1426ZM5.57059 14.9997C5.57059 15.4731 5.95435 15.8569 6.42773 15.8569C6.90112 15.8569 7.28488 15.4731 7.28488 14.9997L6.42773 14.9997L5.57059 14.9997ZM6.42773 14.1426L5.57059 14.1426L5.57059 14.9997L6.42773 14.9997L7.28488 14.9997L7.28488 14.1426L6.42773 14.1426Z" fill="#4E5964"/>
<path opacity="0.4" d="M7.28488 3C7.28488 2.52661 6.90112 2.14286 6.42773 2.14286C5.95435 2.14286 5.57059 2.52661 5.57059 3L6.42773 3L7.28488 3ZM5.57059 3.85714L5.57059 4.71429L7.28488 4.71429L7.28488 3.85714L6.42773 3.85714L5.57059 3.85714ZM6.42773 3L5.57059 3L5.57059 3.85714L6.42773 3.85714L7.28488 3.85714L7.28488 3L6.42773 3Z" fill="#4E5964"/>
</svg>
