<svg width="24" height="24" viewBox="0 0 24 24" fill="none" xmlns="http://www.w3.org/2000/svg">
<path d="M18 12V16.5M18 21V16.5M21 14.25C20.778 13.4736 19.9949 12.9 19.063 12.9H18H17C15.8954 12.9 15 13.7059 15 14.7C15 15.6941 15.8954 16.5 17 16.5H18M15 18.75C15.222 19.5264 16.0051 20.1 16.937 20.1H18H19C20.1046 20.1 21 19.2941 21 18.3C21 17.3059 20.1046 16.5 19 16.5L18 16.5" stroke="#4E5964" stroke-width="1.5" stroke-linecap="round" stroke-linejoin="round"/>
<path opacity="0.4" d="M16 4C16 4 18.7802 3.47526 20 5C20.9758 6.21979 21 7 21 7M16 5L15 4L16 3" stroke="#4E5964" stroke-width="1.5" stroke-linecap="round" stroke-linejoin="round"/>
<path opacity="0.4" d="M8.01632 19.9952C8.01632 19.9952 5.23902 20.5334 4.01092 19.0206C3.02843 17.8104 3 17.033 3 17.033M8.01079 18.9981L9.01625 19.9896L8.02173 20.9921" stroke="#4E5964" stroke-width="1.5" stroke-linecap="round" stroke-linejoin="round"/>
<path d="M8.62352 9.0001C9.6442 8.66441 10.2651 7.53991 9.54703 6.4504C9.08635 5.75147 8.17744 5.57153 7.34035 5.57153H3M8.62352 9.0001H3.85714M8.62352 9.0001C9.55382 9.46634 10.2672 10.5983 9.43673 11.6976C9.00485 12.2692 8.24172 12.4287 7.52526 12.4287H4.28571C4.04902 12.4287 3.85714 12.2368 3.85714 12.0001V9.0001M3.85714 9.0001V8.14296" stroke="#4E5964" stroke-width="1.71429" stroke-linecap="round"/>
<path opacity="0.4" d="M6.42773 12.4946L6.42773 15" stroke="#4E5964" stroke-width="1.71429" stroke-linecap="round"/>
<path opacity="0.4" d="M6.42773 3L6.42773 5.49463" stroke="#4E5964" stroke-width="1.71429" stroke-linecap="round"/>
</svg>
