<svg width="24" height="24" viewBox="0 0 24 24" fill="none" xmlns="http://www.w3.org/2000/svg">
<g clip-path="url(#clip0_13229_160)">
<path opacity="0.4" d="M16.25 5.25537C16.25 5.25537 19.0302 4.73063 20.25 6.25537C21.2258 7.47516 21.25 8.25537 21.25 8.25537M17.25 7.25L15.25 5.25L17.25 3.25" stroke="#4E5964" stroke-width="1.5" stroke-linecap="round" stroke-linejoin="round"/>
<path opacity="0.4" d="M7.78033 18.7197C7.48744 18.4268 7.01256 18.4268 6.71967 18.7197C6.42678 19.0126 6.42678 19.4874 6.71967 19.7803L7.25 19.25L7.78033 18.7197ZM9.25 21.25L9.78033 21.7803C9.92098 21.6397 10 21.4489 10 21.25C10 21.0511 9.92098 20.8603 9.78033 20.7197L9.25 21.25ZM6.71967 22.7197C6.42678 23.0126 6.42678 23.4874 6.71967 23.7803C7.01256 24.0732 7.48744 24.0732 7.78033 23.7803L7.25 23.25L6.71967 22.7197ZM8.409 21.9869C8.81565 21.9081 9.08142 21.5146 9.00262 21.1079C8.92382 20.7013 8.53029 20.4355 8.12364 20.5143L8.26632 21.2506L8.409 21.9869ZM4.26092 20.276L4.8432 19.8033V19.8033L4.26092 20.276ZM3.9995 18.2609C3.98436 17.847 3.63653 17.5237 3.22259 17.5388C2.80865 17.554 2.48536 17.9018 2.5005 18.3157L3.25 18.2883L3.9995 18.2609ZM7.25 19.25L6.71967 19.7803L8.71967 21.7803L9.25 21.25L9.78033 20.7197L7.78033 18.7197L7.25 19.25ZM9.25 21.25L8.71967 20.7197L6.71967 22.7197L7.25 23.25L7.78033 23.7803L9.78033 21.7803L9.25 21.25ZM8.26632 21.2506C8.12364 20.5143 8.12385 20.5143 8.12405 20.5142C8.1241 20.5142 8.12429 20.5142 8.12439 20.5142C8.1246 20.5141 8.12477 20.5141 8.12489 20.5141C8.12515 20.514 8.12524 20.514 8.12516 20.514C8.12502 20.514 8.12424 20.5142 8.12282 20.5144C8.11999 20.515 8.11465 20.5159 8.10693 20.5173C8.09148 20.5199 8.06657 20.5241 8.03323 20.5291C7.96645 20.5391 7.8665 20.5525 7.74156 20.5645C7.48994 20.5886 7.14597 20.6062 6.77232 20.5821C5.98757 20.5316 5.25537 20.311 4.8432 19.8033L4.26092 20.276L3.67863 20.7487C4.49457 21.7538 5.76507 22.0204 6.676 22.079C7.15019 22.1096 7.57729 22.0871 7.88479 22.0576C8.03941 22.0428 8.16604 22.026 8.25593 22.0125C8.30094 22.0057 8.3369 21.9998 8.36273 21.9953C8.37565 21.9931 8.38606 21.9912 8.39381 21.9898C8.39769 21.989 8.4009 21.9884 8.40344 21.988C8.40471 21.9877 8.40581 21.9875 8.40673 21.9873C8.4072 21.9873 8.40762 21.9872 8.408 21.9871C8.40819 21.9871 8.40844 21.987 8.40853 21.987C8.40877 21.9869 8.409 21.9869 8.26632 21.2506ZM4.26092 20.276L4.8432 19.8033C4.40002 19.2574 4.18903 18.8303 4.08907 18.5644C4.03889 18.4309 4.01589 18.3359 4.00575 18.2843C4.00067 18.2583 3.99876 18.2431 3.9983 18.239C3.99807 18.237 3.9982 18.2378 3.99847 18.2414C3.9986 18.2432 3.99878 18.2457 3.99896 18.249C3.99905 18.2506 3.99914 18.2524 3.99923 18.2544C3.99928 18.2554 3.99932 18.2564 3.99937 18.2575C3.99939 18.2581 3.99941 18.2586 3.99943 18.2592C3.99944 18.2595 3.99946 18.2599 3.99947 18.26C3.99948 18.2605 3.9995 18.2609 3.25 18.2883C2.5005 18.3157 2.50052 18.3162 2.50053 18.3166C2.50054 18.3168 2.50056 18.3172 2.50057 18.3175C2.50059 18.3182 2.50062 18.3188 2.50064 18.3194C2.5007 18.3207 2.50075 18.322 2.50082 18.3234C2.50094 18.3261 2.50109 18.3291 2.50127 18.3322C2.50161 18.3385 2.50207 18.3455 2.50265 18.3533C2.50382 18.3689 2.50551 18.3876 2.50798 18.4092C2.51291 18.4524 2.5209 18.5073 2.53384 18.5732C2.55973 18.7051 2.60524 18.8801 2.68498 19.0922C2.84486 19.5175 3.13932 20.0843 3.67863 20.7487L4.26092 20.276Z" fill="#4E5964"/>
<path d="M3 5.25537H4.5M3 12.2554H4.5M6.5 3V4.5M6.5 13V14.5M4.75 5.25V12.25H7.86111C8.72022 12.25 9.41667 11.5536 9.41667 10.6944V10.3056C9.41667 9.44645 8.72022 8.75 7.86111 8.75H4.98333L7.88293 8.70932C8.73345 8.69739 9.41667 8.00452 9.41667 7.15392V6.80556C9.41667 5.94645 8.72022 5.25 7.86111 5.25H4.75Z" stroke="#4E5964" stroke-width="1.5" stroke-linecap="round" stroke-linejoin="round"/>
<path d="M20.75 15.9166V15.4583C20.75 14.4458 19.9292 13.625 18.9167 13.625H17.0833C16.0708 13.625 15.25 14.4458 15.25 15.4583V15.7386C15.25 16.6348 15.8979 17.3996 16.7819 17.547L19.2181 17.953C20.1021 18.1003 20.75 18.8652 20.75 19.7614V20.0416C20.75 21.0542 19.9292 21.875 18.9167 21.875H17.0833C16.0708 21.875 15.25 21.0542 15.25 20.0416V19.5833M18 12.25L18 23.25" stroke="#4E5964" stroke-width="1.5" stroke-linecap="round" stroke-linejoin="round"/>
</g>
<defs>
<clipPath id="clip0_13229_160">
<rect width="24" height="24" fill="white"/>
</clipPath>
</defs>
</svg>
