<svg width="24" height="24" viewBox="0 0 24 24" fill="none" xmlns="http://www.w3.org/2000/svg">
<path d="M19.3565 17.1848C20.1582 16.0473 20.6815 14.7448 20.8933 13.382C20.9981 12.7075 20.3313 12.2229 19.6838 12.4387L18.9389 12.687C18.0737 12.9754 17.3056 12.05 17.7485 11.2527L17.8807 11.0148C18.3056 10.25 17.6128 9.3468 16.764 9.559L15.5094 9.87266C14.6226 10.0943 13.9278 9.10833 14.4348 8.34781L14.9635 7.5547C15.4066 6.89015 14.9302 6 14.1315 6H13.2757C12.9123 6 12.6703 5.62451 12.8204 5.2935L13.2607 4.32243C13.5263 3.7368 13.1763 3.05405 12.5344 3.01587C11.1134 2.93135 9.68614 3.18486 8.37242 3.76345C6.6735 4.5117 5.24752 5.767 4.2899 7.35733C3.33227 8.94767 2.88986 10.7952 3.02327 12.6468C3.15669 14.4984 3.85941 16.2635 5.03515 17.7001C6.21088 19.1367 7.80209 20.1746 9.59074 20.6715C11.3794 21.1685 13.2779 21.1002 15.0262 20.476C16.7745 19.8517 18.2871 18.7022 19.3565 17.1848Z" stroke="#4E5964" stroke-width="1.5"/>
<circle opacity="0.4" cx="20.5644" cy="8.56341" r="0.4" transform="rotate(39.8575 20.5644 8.56341)" stroke="#4E5964" stroke-width="1.5"/>
<circle opacity="0.4" cx="18.1072" cy="3.97297" r="1" transform="rotate(39.8575 18.1072 3.97297)" stroke="#4E5964"/>
<circle opacity="0.4" cx="10.112" cy="9.11278" r="1.5" transform="rotate(39.8575 10.112 9.11278)" stroke="#4E5964" stroke-width="1.5"/>
<circle opacity="0.4" cx="14.408" cy="16.4085" r="1" transform="rotate(39.8575 14.408 16.4085)" stroke="#4E5964" stroke-width="1.5"/>
<circle opacity="0.4" cx="1" cy="1" r="1" transform="matrix(0.76764 0.640881 0.640881 -0.76764 7 15.5356)" stroke="#4E5964" stroke-width="1.5"/>
</svg>
