<svg width="24" height="24" viewBox="0 0 24 24" fill="none" xmlns="http://www.w3.org/2000/svg">
<path d="M19.3585 17.1848C20.1601 16.0473 20.6834 14.7448 20.8952 13.382C21 12.7075 20.3333 12.2229 19.6857 12.4387L18.9408 12.687C18.0756 12.9754 17.3075 12.05 17.7504 11.2527L17.8826 11.0148C18.3075 10.25 17.6147 9.3468 16.7659 9.559L15.5113 9.87266C14.6246 10.0943 13.9297 9.10833 14.4367 8.34781L14.9655 7.5547C15.4085 6.89015 14.9321 6 14.1334 6H13.2777C12.9142 6 12.6722 5.62451 12.8223 5.2935L13.2627 4.32243C13.5283 3.7368 13.1783 3.05405 12.5364 3.01587C11.1153 2.93135 9.68809 3.18486 8.37438 3.76345C6.67546 4.5117 5.24948 5.767 4.29185 7.35733C3.33423 8.94767 2.89181 10.7952 3.02523 12.6468C3.15864 14.4984 3.86137 16.2635 5.0371 17.7001C6.21283 19.1367 7.80405 20.1746 9.59269 20.6715C11.3813 21.1685 13.2799 21.1002 15.0282 20.476C16.7765 19.8517 18.289 18.7022 19.3585 17.1848Z" stroke="#4E5964" stroke-width="1.5"/>
<circle opacity="0.4" cx="20.5663" cy="8.56341" r="0.4" transform="rotate(39.8575 20.5663 8.56341)" stroke="#4E5964" stroke-width="1.5"/>
<circle opacity="0.4" cx="18.1092" cy="3.97273" r="1" transform="rotate(39.8575 18.1092 3.97273)" stroke="#4E5964"/>
<circle opacity="0.4" cx="10.114" cy="9.11278" r="1.5" transform="rotate(39.8575 10.114 9.11278)" stroke="#4E5964" stroke-width="1.5"/>
<circle opacity="0.4" cx="14.41" cy="16.4085" r="1" transform="rotate(39.8575 14.41 16.4085)" stroke="#4E5964" stroke-width="1.5"/>
<circle opacity="0.4" cx="1" cy="1" r="1" transform="matrix(0.76764 0.640881 0.640881 -0.76764 7.00195 15.5352)" stroke="#4E5964" stroke-width="1.5"/>
</svg>
