<svg width="24" height="24" viewBox="0 0 24 24" fill="none" xmlns="http://www.w3.org/2000/svg">
<path d="M10.0859 21.0001H17.0002C19.2094 21.0001 21.0002 19.2092 21.0002 17.0001V13.328L21 9.50012C21 7.53996 19.411 5.95093 17.4508 5.95093H13.4917H10.0859C7.8768 5.95093 6.08594 7.74178 6.08594 9.95092V17.0001C6.08594 19.2092 7.8768 21.0001 10.0859 21.0001Z" stroke="#4E5964" stroke-width="1.5"/>
<path opacity="0.4" d="M6.87771 17.7541C4.73611 17.7541 3 16.018 3 13.8764V7C3 4.79086 4.79086 3 7 3H10.7019H12.4114C13.865 3 15.2043 3.78864 15.9094 5.05986L16.3714 5.89296" stroke="#4E5964" stroke-width="1.5"/>
</svg>
