<svg width="24" height="24" viewBox="0 0 24 24" fill="none" xmlns="http://www.w3.org/2000/svg">
<path opacity="0.64" d="M15.7004 3.78532L15.1473 4.29187L15.1473 4.29187L15.7004 3.78532ZM6.59971 19.75C7.01392 19.75 7.34971 19.4142 7.34971 19C7.34971 18.5858 7.01392 18.25 6.59971 18.25V19.75ZM16.3502 4.49485L15.7971 5.0014L15.7971 5.0014L16.3502 4.49485ZM2.75 13.8077V7.5H1.25V13.8077H2.75ZM7.5 2.75H11.6444V1.25H7.5V2.75ZM11.6444 2.75C12.9765 2.75 14.2475 3.30944 15.1473 4.29187L16.2535 3.27878C15.0696 1.9861 13.3972 1.25 11.6444 1.25V2.75ZM1.25 13.8077C1.25 15.3873 1.72697 16.8655 2.65087 17.9624C3.58523 19.0716 4.94528 19.75 6.59971 19.75V18.25C5.3865 18.25 4.4467 17.766 3.79811 16.996C3.13907 16.2136 2.75 15.0957 2.75 13.8077H1.25ZM2.75 7.5C2.75 4.87665 4.87665 2.75 7.5 2.75V1.25C4.04822 1.25 1.25 4.04822 1.25 7.5H2.75ZM11.5 5.75H16.5V4.25H11.5V5.75ZM21.25 10.5V16.5H22.75V10.5H21.25ZM16.5 21.25H11.5V22.75H16.5V21.25ZM6.75 16.5V10.5H5.25V16.5H6.75ZM11.5 21.25C8.87665 21.25 6.75 19.1234 6.75 16.5H5.25C5.25 19.9518 8.04822 22.75 11.5 22.75V21.25ZM21.25 16.5C21.25 19.1234 19.1234 21.25 16.5 21.25V22.75C19.9518 22.75 22.75 19.9518 22.75 16.5H21.25ZM16.5 5.75C19.1234 5.75 21.25 7.87665 21.25 10.5H22.75C22.75 7.04822 19.9518 4.25 16.5 4.25V5.75ZM11.5 4.25C8.04822 4.25 5.25 7.04822 5.25 10.5H6.75C6.75 7.87665 8.87665 5.75 11.5 5.75V4.25ZM15.1473 4.29187L15.7971 5.0014L16.9033 3.9883L16.2535 3.27878L15.1473 4.29187ZM15.7971 5.0014L16.122 5.35616L17.2282 4.34307L16.9033 3.9883L15.7971 5.0014Z" fill="#4E5964"/>
<path opacity="0.64" d="M16.3502 4.49487L16.6751 4.84964M11.5 22H16.5C19.5376 22 22 19.5376 22 16.5V10.5C22 7.46246 19.5376 5.00002 16.5 5.00002H11.5C8.46243 5.00002 6 7.46246 6 10.5V16.5C6 19.5376 8.46243 22 11.5 22Z" stroke="#4E5964" stroke-width="1.5"/>
</svg>
