<svg width="24" height="24" viewBox="0 0 24 24" fill="none" xmlns="http://www.w3.org/2000/svg">
<path d="M16.9568 9.28678L18.6635 8.38601C19.7203 7.87092 20.8083 9.04019 20.4991 10.3587L18.3039 15.8502C18.1521 16.23 17.7843 16.479 17.3753 16.479L6.67719 16.479C6.26821 16.479 5.90044 16.23 5.74863 15.8502L3.55343 10.3587C3.24426 9.04019 4.33226 7.87092 5.38906 8.38601L7.15225 9.29811C7.64756 9.55433 8.25674 9.35591 8.50614 8.85713L11.1583 3.55279C11.5268 2.81574 12.5786 2.81574 12.9472 3.55279L15.5956 8.84962C15.8464 9.3513 16.4607 9.54859 16.9568 9.28678Z" stroke="#4E5964" stroke-width="1.5" stroke-linecap="round"/>
<path opacity="0.4" d="M9.05273 20.2638L15.0527 20.2639" stroke="#4E5964" stroke-width="1.5" stroke-linecap="round" stroke-linejoin="round"/>
</svg>
