<svg width="24" height="24" viewBox="0 0 24 24" fill="none" xmlns="http://www.w3.org/2000/svg">
<path d="M3.06243 10.3799L5.20728 15.8333C5.40183 16.6014 5.65734 17 6.375 17H18.6953C19.4939 17 19.7636 16.7126 19.875 15.8333C19.9803 15.0019 20.8775 10.7016 20.975 10.2356C20.981 10.2067 20.9856 10.1797 20.9887 10.1503C21.1349 8.75941 19.8371 7.72614 18.6953 8.34438L17.4818 9.00147C16.6945 9.42774 15.7453 9.07234 15.3502 8.20339L14 4C13.3716 2.61766 11.4938 2.55167 11 4L9.16613 8.06505C8.84728 9.00021 7.89878 9.46043 7.06534 9.08437L5.20728 8.24599C3.97246 7.68882 2.70118 8.95362 3.06243 10.3799Z" stroke="#4E5964" stroke-width="1.5" stroke-linecap="round"/>
<path opacity="0.4" d="M9 20L15 20" stroke="#4E5964" stroke-width="1.5" stroke-linecap="round" stroke-linejoin="round"/>
</svg>
