<svg width="24" height="24" viewBox="0 0 24 24" fill="none" xmlns="http://www.w3.org/2000/svg">
<path d="M5.89101 15.6365L6.62121 15.4652C6.61442 15.4363 6.60592 15.4078 6.59575 15.3799L5.89101 15.6365ZM4.05539 10.5949L3.32519 10.7662C3.33198 10.7951 3.34048 10.8236 3.35065 10.8515L4.05539 10.5949ZM5.89101 8.6222L5.56241 9.29638H5.56241L5.89101 8.6222ZM7.48119 9.39726L7.80979 8.72308H7.80979L7.48119 9.39726ZM9.27911 8.45493L8.59792 8.14111L8.57813 8.18407L8.56389 8.22917L9.27911 8.45493ZM11.002 4.71521L11.6831 5.02903C11.6866 5.02146 11.69 5.01383 11.6932 5.00614L11.002 4.71521ZM6.56944 15.965C6.15523 15.965 5.81944 16.3008 5.81944 16.715C5.81944 17.1292 6.15523 17.465 6.56944 17.465V15.965ZM12.502 17.465C12.9162 17.465 13.252 17.1292 13.252 16.715C13.252 16.3008 12.9162 15.965 12.502 15.965V17.465ZM12.3849 4.47932C12.7941 4.54395 13.1781 4.26468 13.2428 3.85554C13.3074 3.4464 13.0281 3.06233 12.619 2.99769L12.3849 4.47932ZM18.6129 15.6362L17.9082 15.3796L17.8929 15.4216L17.8827 15.465L18.6129 15.6362ZM20.4485 10.5947L21.1533 10.8513L21.1685 10.8094L21.1787 10.7659L20.4485 10.5947ZM18.6129 8.62198L18.9415 9.29617L18.6129 8.62198ZM17.0227 9.39704L16.6941 8.72286L16.6941 8.72286L17.0227 9.39704ZM15.2248 8.45471L15.94 8.22896C15.9305 8.19892 15.9192 8.16951 15.906 8.14089L15.2248 8.45471ZM13.502 4.715L12.8107 5.00593L12.8155 5.01745L12.8208 5.02881L13.502 4.715ZM17.9345 17.4648C18.3487 17.4648 18.6845 17.129 18.6845 16.7148C18.6845 16.3006 18.3487 15.9648 17.9345 15.9648V17.4648ZM12.002 15.9648C11.5877 15.9648 11.252 16.3006 11.252 16.7148C11.252 17.129 11.5877 17.4648 12.002 17.4648V15.9648ZM6.59575 15.3799L4.76012 10.3383L3.35065 10.8515L5.18627 15.8931L6.59575 15.3799ZM5.56241 9.29638L7.15259 10.0714L7.80979 8.72308L6.21961 7.94801L5.56241 9.29638ZM7.15259 10.0714C8.38012 10.6697 9.62016 9.86609 9.99433 8.68068L8.56389 8.22917C8.48074 8.49262 8.33005 8.64671 8.19713 8.71638C8.07177 8.78208 7.94181 8.78742 7.80979 8.72308L7.15259 10.0714ZM4.78558 10.4237C4.68706 10.0036 4.81778 9.63846 5.01003 9.43186C5.19178 9.23653 5.3815 9.20821 5.56241 9.29638L6.21961 7.94801C5.34372 7.5211 4.46104 7.81987 3.91189 8.41005C3.37323 8.98894 3.11453 9.86775 3.32519 10.7662L4.78558 10.4237ZM5.16082 15.8077C5.24716 16.1759 5.37418 16.5985 5.64903 16.925C5.97134 17.3079 6.40868 17.465 6.89038 17.465V15.965C6.8109 15.965 6.78461 15.953 6.78712 15.9541C6.79486 15.9573 6.80061 15.9638 6.79659 15.959C6.78763 15.9484 6.762 15.9129 6.72783 15.8271C6.69355 15.741 6.65858 15.6246 6.62121 15.4652L5.16082 15.8077ZM10.3208 4.4014L8.59792 8.14111L9.9603 8.76874L11.6831 5.02903L10.3208 4.4014ZM6.56944 17.465H6.89038V15.965H6.56944V17.465ZM6.89038 17.465H12.502V15.965H6.89038V17.465ZM12.619 2.99769C12.6259 2.99878 12.6407 3.00125 12.6601 3.0057C12.6702 3.008 12.6841 3.01143 12.7007 3.01631C12.7167 3.02098 12.7407 3.02861 12.7692 3.04018C12.7954 3.05083 12.8415 3.07118 12.8941 3.10536C12.9214 3.12305 12.9563 3.14825 12.9935 3.1825C13.0304 3.21651 13.076 3.26537 13.118 3.33144C13.1608 3.39881 13.2012 3.48634 13.2215 3.59239C13.2422 3.70057 13.2384 3.80983 13.213 3.91271C13.1883 4.01293 13.1465 4.09352 13.1056 4.15379C13.0652 4.21326 13.0228 4.25737 12.9889 4.2881C12.9546 4.31914 12.9227 4.34228 12.8977 4.35873C12.8723 4.37542 12.8494 4.38823 12.8311 4.39771C12.7955 4.41615 12.7652 4.42815 12.746 4.43519C12.7084 4.44896 12.6783 4.45644 12.6655 4.45949C12.6501 4.46315 12.6381 4.46545 12.6317 4.46662C12.6248 4.46788 12.6196 4.46871 12.6171 4.46909C12.615 4.46942 12.6087 4.47033 12.6188 4.46889C12.6209 4.46859 12.6298 4.46733 12.6403 4.46558C12.6456 4.46468 12.6558 4.46294 12.6684 4.46036C12.6749 4.45904 12.6841 4.45706 12.6952 4.4544C12.7054 4.45191 12.7225 4.44758 12.7432 4.4411C12.7538 4.43777 12.7679 4.43311 12.7842 4.42695C12.7999 4.42101 12.8226 4.41186 12.8491 4.39891C12.8737 4.38684 12.9147 4.36519 12.9611 4.33143C12.985 4.314 13.0151 4.28993 13.047 4.25831C13.0787 4.22699 13.1177 4.18286 13.1544 4.12456C13.1915 4.0656 13.2291 3.98751 13.2509 3.89136C13.2734 3.79273 13.2764 3.68688 13.2556 3.58073C13.214 3.36903 13.0954 3.23413 13.0208 3.16713C12.9815 3.13185 12.9445 3.10609 12.9154 3.08797C12.8858 3.06963 12.8592 3.05591 12.8378 3.04591C12.7964 3.02648 12.7611 3.01457 12.7387 3.00774C12.7151 3.0005 12.6949 2.99564 12.6805 2.99247C12.6657 2.9892 12.6529 2.98686 12.6431 2.9852C12.6238 2.98198 12.6081 2.98011 12.5981 2.97905C12.5786 2.97696 12.5629 2.97607 12.5554 2.97568C12.5395 2.97487 12.5263 2.97468 12.5205 2.9746C12.5132 2.97451 12.5063 2.9745 12.5006 2.97451L12.5034 4.47451C12.5052 4.47451 12.5045 4.47452 12.5021 4.47449C12.5012 4.47448 12.4917 4.47439 12.4785 4.47371C12.4723 4.47339 12.4577 4.47257 12.4389 4.47057C12.4294 4.46956 12.414 4.46773 12.395 4.46455C12.3853 4.46292 12.3726 4.4606 12.3579 4.45736C12.3436 4.45422 12.3236 4.44938 12.3001 4.44217C12.2778 4.43536 12.2425 4.42348 12.2011 4.40408C12.1799 4.3941 12.1532 4.38039 12.1237 4.36205C12.0946 4.34396 12.0576 4.3182 12.0183 4.28294C11.9438 4.21597 11.8251 4.0811 11.7836 3.86943C11.7628 3.76329 11.7658 3.65746 11.7883 3.55885C11.8101 3.46271 11.8477 3.38463 11.8848 3.32569C11.9215 3.2674 11.9604 3.22329 11.9921 3.19198C12.024 3.16038 12.0541 3.13633 12.078 3.11891C12.1243 3.08519 12.1652 3.06356 12.1898 3.05153C12.2162 3.03861 12.2388 3.0295 12.2545 3.02359C12.2707 3.01747 12.2847 3.01285 12.2952 3.00955C12.3157 3.00314 12.3324 2.99888 12.3424 2.99647C12.3531 2.99388 12.362 2.99199 12.3681 2.99074C12.3799 2.98833 12.3891 2.98675 12.3934 2.98604C12.3982 2.98523 12.402 2.98466 12.4037 2.9844C12.4056 2.98412 12.4068 2.98394 12.407 2.98391C12.411 2.98334 12.3972 2.98527 12.3875 2.98677C12.3813 2.98773 12.3723 2.98918 12.3618 2.9911C12.3518 2.99292 12.3364 2.99592 12.3179 3.00031C12.302 3.0041 12.2692 3.01235 12.2295 3.02692C12.2092 3.03436 12.1779 3.04677 12.1415 3.06564C12.1227 3.07534 12.0995 3.08835 12.0738 3.10526C12.0484 3.12192 12.0162 3.14528 11.9817 3.17655C11.9475 3.20749 11.9049 3.25183 11.8644 3.31152C11.8233 3.37202 11.7815 3.45284 11.7567 3.55329C11.7312 3.65639 11.7275 3.76589 11.7482 3.8743C11.7685 3.98059 11.809 4.06835 11.852 4.13596C11.8941 4.20227 11.9399 4.25138 11.9771 4.28562C12.0145 4.32012 12.0498 4.34556 12.0774 4.3635C12.1308 4.39818 12.1779 4.41903 12.2054 4.4302C12.2352 4.44229 12.2607 4.45044 12.2785 4.45565C12.2969 4.46106 12.313 4.46503 12.3254 4.46788C12.3497 4.47344 12.3706 4.47705 12.3849 4.47932L12.619 2.99769ZM12.5006 2.97451C12.4713 2.97457 12.1245 2.97041 11.979 2.97486L12.0249 4.47416C12.0757 4.47261 12.1724 4.47249 12.2756 4.47302C12.3664 4.47349 12.4712 4.47457 12.5034 4.47451L12.5006 2.97451ZM11.8878 2.98325C11.0419 3.11355 10.5864 3.76917 10.3107 4.42428L11.6932 5.00614C11.7946 4.76523 11.8866 4.62879 11.9592 4.55432C12.0195 4.49245 12.0646 4.47371 12.1161 4.46577L11.8878 2.98325ZM19.3176 15.8928L21.1533 10.8513L19.7438 10.3381L17.9082 15.3796L19.3176 15.8928ZM18.2843 7.9478L16.6941 8.72286L17.3513 10.0712L18.9415 9.29617L18.2843 7.9478ZM16.6941 8.72286C16.5621 8.78721 16.4321 8.78186 16.3068 8.71616C16.1739 8.64649 16.0232 8.4924 15.94 8.22896L14.5096 8.68046C14.8837 9.86587 16.1238 10.6695 17.3513 10.0712L16.6941 8.72286ZM21.1787 10.7659C21.3894 9.86754 21.1307 8.98873 20.592 8.40983C20.0429 7.81965 19.1602 7.52089 18.2843 7.9478L18.9415 9.29617C19.1224 9.20799 19.3121 9.23631 19.4939 9.43164C19.6861 9.63825 19.8168 10.0034 19.7183 10.4235L21.1787 10.7659ZM17.8827 15.465C17.8453 15.6244 17.8104 15.7408 17.7761 15.8269C17.7419 15.9127 17.7163 15.9482 17.7073 15.9588C17.7033 15.9636 17.709 15.9571 17.7168 15.9539C17.7193 15.9528 17.693 15.9648 17.6135 15.9648V17.4648C18.0952 17.4648 18.5326 17.3077 18.8549 16.9248C19.1297 16.5983 19.2567 16.1757 19.3431 15.8075L17.8827 15.465ZM12.8208 5.02881L14.5436 8.76853L15.906 8.14089L14.1831 4.40118L12.8208 5.02881ZM17.9345 15.9648H17.6135V17.4648H17.9345V15.9648ZM17.6135 15.9648H12.002V17.4648H17.6135V15.9648ZM12.1189 4.46533C12.0932 4.4694 12.0749 4.47069 12.0726 4.47086C12.0676 4.47124 12.0658 4.47127 12.0687 4.47115C12.0744 4.47092 12.0862 4.47061 12.1051 4.47041C12.1424 4.47002 12.1914 4.47024 12.2447 4.4708C12.2973 4.47136 12.3503 4.47221 12.3949 4.47296C12.4351 4.47364 12.4779 4.47442 12.4989 4.47451L12.505 2.97452C12.5051 2.97452 12.5045 2.97452 12.503 2.9745C12.5015 2.97449 12.4996 2.97447 12.4972 2.97443C12.4922 2.97437 12.4859 2.97427 12.4781 2.97415C12.4624 2.9739 12.4433 2.97357 12.4202 2.97318C12.3751 2.97242 12.3181 2.97149 12.2606 2.97088C12.2038 2.97028 12.1426 2.96994 12.0896 2.97049C12.0634 2.97076 12.035 2.97129 12.0081 2.97237C11.9919 2.97303 11.9402 2.97498 11.885 2.98369L12.1189 4.46533ZM12.4989 4.47451C12.5316 4.47464 12.5335 4.47969 12.5218 4.47448C12.5104 4.46942 12.514 4.46701 12.5338 4.48828C12.591 4.54973 12.677 4.68823 12.8107 5.00593L14.1932 4.42407C14.0538 4.09288 13.884 3.73712 13.6315 3.46605C13.3391 3.15207 12.9615 2.97636 12.505 2.97452L12.4989 4.47451Z" fill="#4E5964"/>
<path opacity="0.4" d="M9.00195 20.2246H15.002" stroke="#4E5964" stroke-width="1.5" stroke-linecap="round"/>
</svg>
