<svg width="24" height="24" viewBox="0 0 24 24" fill="none" xmlns="http://www.w3.org/2000/svg">
<path d="M3.06243 10.3799L5.20728 15.8333C5.40183 16.6014 5.65734 17 6.375 17H18.6953C19.4939 17 19.7636 16.7127 19.875 15.8333C19.9803 15.0019 20.8775 10.7017 20.975 10.2357C20.981 10.2068 20.9856 10.1797 20.9887 10.1503C21.1349 8.75944 19.8371 7.72618 18.6953 8.34441L17.4818 9.0015C16.6945 9.42778 15.7453 9.07237 15.3502 8.20342L13.4293 3.97798C12.8008 2.59564 10.9948 2.70182 10.501 4.15015L9.16613 8.06509C8.84728 9.00025 7.89878 9.46047 7.06534 9.08441L5.20728 8.24602C3.97246 7.68885 2.70118 8.95365 3.06243 10.3799Z" stroke="#4E5964" stroke-width="1.5" stroke-linecap="round"/>
<path opacity="0.64" d="M9 20L15 20" stroke="#4E5964" stroke-width="1.5" stroke-linecap="round" stroke-linejoin="round"/>
</svg>
