<svg width="24" height="24" viewBox="0 0 24 24" fill="none" xmlns="http://www.w3.org/2000/svg">
<path d="M5.88906 15.6365L6.61925 15.4652C6.61247 15.4363 6.60397 15.4078 6.5938 15.3799L5.88906 15.6365ZM4.05343 10.5949L3.32324 10.7662C3.33002 10.7951 3.33852 10.8236 3.34869 10.8515L4.05343 10.5949ZM5.88906 8.6222L5.56046 9.29638H5.56046L5.88906 8.6222ZM7.47924 9.39726L7.80784 8.72308H7.80784L7.47924 9.39726ZM9.27716 8.45493L8.59597 8.14111L8.57618 8.18407L8.56194 8.22917L9.27716 8.45493ZM11 4.71521L11.6812 5.02903C11.6847 5.02146 11.688 5.01383 11.6913 5.00614L11 4.71521ZM6.56749 15.965C6.15327 15.965 5.81749 16.3008 5.81749 16.715C5.81749 17.1292 6.15327 17.465 6.56749 17.465V16.715V15.965ZM12.5 17.465C12.9142 17.465 13.25 17.1292 13.25 16.715C13.25 16.3008 12.9142 15.965 12.5 15.965V16.715V17.465ZM12.383 4.47932C12.7921 4.54395 13.1762 4.26468 13.2408 3.85554C13.3054 3.4464 13.0262 3.06233 12.617 2.99769L12.5 3.73851L12.383 4.47932ZM18.6109 15.6362L17.9062 15.3796L17.8909 15.4216L17.8807 15.465L18.6109 15.6362ZM20.4466 10.5947L21.1513 10.8513L21.1666 10.8094L21.1768 10.7659L20.4466 10.5947ZM18.6109 8.62198L18.9395 9.29617L18.6109 8.62198ZM17.0208 9.39704L16.6922 8.72286L16.6922 8.72286L17.0208 9.39704ZM15.2228 8.45471L15.9381 8.22896C15.9286 8.19892 15.9172 8.16951 15.904 8.14089L15.2228 8.45471ZM13.5 4.715L12.8087 5.00593L12.8136 5.01745L12.8188 5.02881L13.5 4.715ZM17.9325 17.4648C18.3467 17.4648 18.6825 17.129 18.6825 16.7148C18.6825 16.3006 18.3467 15.9648 17.9325 15.9648V16.7148V17.4648ZM12 15.9648C11.5858 15.9648 11.25 16.3006 11.25 16.7148C11.25 17.129 11.5858 17.4648 12 17.4648V16.7148V15.9648ZM5.88906 15.6365L6.5938 15.3799L4.75817 10.3383L4.05343 10.5949L3.34869 10.8515L5.18432 15.8931L5.88906 15.6365ZM5.88906 8.6222L5.56046 9.29638L7.15064 10.0714L7.47924 9.39726L7.80784 8.72308L6.21766 7.94801L5.88906 8.6222ZM7.47924 9.39726L7.15064 10.0714C8.37817 10.6697 9.61821 9.86609 9.99237 8.68068L9.27716 8.45493L8.56194 8.22917C8.47878 8.49262 8.3281 8.64671 8.19518 8.71638C8.06982 8.78208 7.93986 8.78742 7.80784 8.72308L7.47924 9.39726ZM4.05343 10.5949L4.78363 10.4237C4.68511 10.0036 4.81583 9.63846 5.00807 9.43186C5.18982 9.23653 5.37955 9.20821 5.56046 9.29638L5.88906 8.6222L6.21766 7.94801C5.34176 7.5211 4.45909 7.81987 3.90994 8.41005C3.37128 8.98894 3.11258 9.86775 3.32324 10.7662L4.05343 10.5949ZM5.88906 15.6365L5.15886 15.8077C5.2452 16.1759 5.37223 16.5985 5.64707 16.925C5.96938 17.3079 6.40672 17.465 6.88842 17.465V16.715V15.965C6.80895 15.965 6.78266 15.953 6.78517 15.9541C6.79291 15.9573 6.79865 15.9638 6.79464 15.959C6.78568 15.9484 6.76005 15.9129 6.72588 15.8271C6.6916 15.741 6.65663 15.6246 6.61925 15.4652L5.88906 15.6365ZM11 4.71521L10.3188 4.4014L8.59597 8.14111L9.27716 8.45493L9.95835 8.76874L11.6812 5.02903L11 4.71521ZM6.56749 16.715V17.465H6.88842V16.715V15.965H6.56749V16.715ZM6.88842 16.715V17.465H12.5V16.715V15.965H6.88842V16.715ZM12.5 3.73851L12.617 2.99769C12.6239 2.99878 12.6387 3.00125 12.6582 3.0057C12.6682 3.008 12.6822 3.01143 12.6988 3.01631C12.7147 3.02098 12.7387 3.02861 12.7672 3.04018C12.7935 3.05083 12.8395 3.07118 12.8922 3.10536C12.9195 3.12305 12.9544 3.14825 12.9916 3.1825C13.0285 3.21651 13.074 3.26537 13.116 3.33144C13.1588 3.39881 13.1992 3.48634 13.2195 3.59239C13.2402 3.70057 13.2364 3.80983 13.211 3.91271C13.1863 4.01293 13.1445 4.09352 13.1036 4.15379C13.0633 4.21326 13.0209 4.25737 12.9869 4.2881C12.9527 4.31914 12.9207 4.34228 12.8957 4.35873C12.8703 4.37542 12.8475 4.38823 12.8291 4.39771C12.7935 4.41615 12.7632 4.42815 12.744 4.43519C12.7065 4.44896 12.6764 4.45644 12.6636 4.45949C12.6482 4.46315 12.6361 4.46545 12.6298 4.46662C12.6229 4.46788 12.6177 4.46871 12.6152 4.46909C12.613 4.46942 12.6067 4.47033 12.6168 4.46889C12.6189 4.46859 12.6278 4.46733 12.6383 4.46558C12.6437 4.46468 12.6539 4.46294 12.6665 4.46036C12.673 4.45904 12.6822 4.45706 12.6932 4.4544C12.7035 4.45191 12.7205 4.44758 12.7412 4.4411C12.7519 4.43777 12.7659 4.43311 12.7822 4.42695C12.798 4.42101 12.8206 4.41186 12.8471 4.39891C12.8718 4.38684 12.9128 4.36519 12.9591 4.33143C12.983 4.314 13.0131 4.28993 13.0451 4.25831C13.0767 4.22699 13.1157 4.18286 13.1524 4.12456C13.1895 4.0656 13.2271 3.98751 13.249 3.89136C13.2714 3.79273 13.2744 3.68688 13.2536 3.58073C13.2121 3.36903 13.0934 3.23413 13.0189 3.16713C12.9796 3.13185 12.9426 3.10609 12.9134 3.08797C12.8839 3.06963 12.8572 3.05591 12.8359 3.04591C12.7944 3.02648 12.7591 3.01457 12.7368 3.00774C12.7131 3.0005 12.693 2.99564 12.6786 2.99247C12.6638 2.9892 12.651 2.98686 12.6411 2.9852C12.6219 2.98198 12.6061 2.98011 12.5962 2.97905C12.5766 2.97696 12.561 2.97607 12.5534 2.97568C12.5376 2.97487 12.5243 2.97468 12.5185 2.9746C12.5112 2.97451 12.5043 2.9745 12.4986 2.97451L12.5 3.72451L12.5014 4.47451C12.5033 4.47451 12.5025 4.47452 12.5002 4.47449C12.4993 4.47448 12.4898 4.47439 12.4766 4.47371C12.4703 4.47339 12.4557 4.47257 12.437 4.47057C12.4275 4.46956 12.412 4.46773 12.3931 4.46455C12.3833 4.46292 12.3707 4.4606 12.356 4.45736C12.3417 4.45422 12.3217 4.44938 12.2981 4.44217C12.2759 4.43536 12.2406 4.42348 12.1992 4.40408C12.1779 4.3941 12.1513 4.38039 12.1218 4.36205C12.0926 4.34396 12.0556 4.3182 12.0164 4.28294C11.9418 4.21597 11.8232 4.0811 11.7817 3.86943C11.7608 3.76329 11.7639 3.65746 11.7863 3.55885C11.8082 3.46271 11.8458 3.38463 11.8828 3.32569C11.9195 3.2674 11.9585 3.22329 11.9901 3.19198C12.0221 3.16038 12.0521 3.13633 12.076 3.11891C12.1224 3.08519 12.1633 3.06356 12.1879 3.05153C12.2143 3.03861 12.2369 3.0295 12.2525 3.02359C12.2687 3.01747 12.2827 3.01285 12.2932 3.00955C12.3137 3.00314 12.3305 2.99888 12.3404 2.99647C12.3511 2.99388 12.36 2.99199 12.3661 2.99074C12.3779 2.98833 12.3871 2.98675 12.3914 2.98604C12.3963 2.98523 12.4 2.98466 12.4017 2.9844C12.4036 2.98412 12.4049 2.98394 12.4051 2.98391C12.4091 2.98334 12.3953 2.98527 12.3856 2.98677C12.3793 2.98773 12.3704 2.98918 12.3599 2.9911C12.3499 2.99292 12.3344 2.99592 12.316 3.00031C12.3001 3.0041 12.2673 3.01235 12.2275 3.02692C12.2072 3.03436 12.176 3.04677 12.1395 3.06564C12.1208 3.07534 12.0975 3.08835 12.0718 3.10526C12.0465 3.12192 12.0142 3.14528 11.9797 3.17655C11.9456 3.20749 11.903 3.25183 11.8624 3.31152C11.8214 3.37202 11.7795 3.45284 11.7547 3.55329C11.7293 3.65639 11.7255 3.76589 11.7462 3.8743C11.7666 3.98059 11.8071 4.06835 11.85 4.13596C11.8922 4.20227 11.938 4.25138 11.9751 4.28562C12.0126 4.32012 12.0478 4.34556 12.0754 4.3635C12.1289 4.39818 12.1759 4.41903 12.2035 4.4302C12.2333 4.44229 12.2588 4.45044 12.2765 4.45565C12.295 4.46106 12.311 4.46503 12.3235 4.46788C12.3477 4.47344 12.3686 4.47705 12.383 4.47932L12.5 3.73851ZM12.5 3.72451L12.4986 2.97451C12.4693 2.97457 12.1226 2.97041 11.9771 2.97486L12 3.72451L12.0229 4.47416C12.0737 4.47261 12.1704 4.47249 12.2737 4.47302C12.3644 4.47349 12.4692 4.47457 12.5014 4.47451L12.5 3.72451ZM12 3.72451L11.8858 2.98325C11.0399 3.11355 10.5844 3.76917 10.3087 4.42428L11 4.71521L11.6913 5.00614C11.7927 4.76523 11.8846 4.62879 11.9572 4.55432C12.0176 4.49245 12.0627 4.47371 12.1142 4.46577L12 3.72451ZM18.6109 15.6362L19.3157 15.8928L21.1513 10.8513L20.4466 10.5947L19.7418 10.3381L17.9062 15.3796L18.6109 15.6362ZM18.6109 8.62198L18.2823 7.9478L16.6922 8.72286L17.0208 9.39704L17.3494 10.0712L18.9395 9.29617L18.6109 8.62198ZM17.0208 9.39704L16.6922 8.72286C16.5601 8.78721 16.4302 8.78186 16.3048 8.71616C16.1719 8.64649 16.0212 8.4924 15.9381 8.22896L15.2228 8.45471L14.5076 8.68046C14.8818 9.86587 16.1218 10.6695 17.3494 10.0712L17.0208 9.39704ZM20.4466 10.5947L21.1768 10.7659C21.3874 9.86754 21.1287 8.98873 20.5901 8.40983C20.0409 7.81965 19.1582 7.52089 18.2823 7.9478L18.6109 8.62198L18.9395 9.29617C19.1204 9.20799 19.3102 9.23631 19.4919 9.43164C19.6842 9.63825 19.8149 10.0034 19.7164 10.4235L20.4466 10.5947ZM18.6109 15.6362L17.8807 15.465C17.8434 15.6244 17.8084 15.7408 17.7741 15.8269C17.74 15.9127 17.7143 15.9482 17.7054 15.9588C17.7013 15.9636 17.7071 15.9571 17.7148 15.9539C17.7173 15.9528 17.6911 15.9648 17.6116 15.9648V16.7148V17.4648C18.0933 17.4648 18.5306 17.3077 18.8529 16.9248C19.1278 16.5983 19.2548 16.1757 19.3411 15.8075L18.6109 15.6362ZM13.5 4.715L12.8188 5.02881L14.5417 8.76853L15.2228 8.45471L15.904 8.14089L14.1812 4.40118L13.5 4.715ZM17.9325 16.7148V15.9648H17.6116V16.7148V17.4648H17.9325V16.7148ZM17.6116 16.7148V15.9648H12V16.7148V17.4648H17.6116V16.7148ZM12 3.72451L12.117 4.46533C12.0912 4.4694 12.0729 4.47069 12.0707 4.47086C12.0656 4.47124 12.0639 4.47127 12.0667 4.47115C12.0725 4.47092 12.0842 4.47061 12.1031 4.47041C12.1404 4.47002 12.1894 4.47024 12.2428 4.4708C12.2953 4.47136 12.3483 4.47221 12.393 4.47296C12.4331 4.47364 12.476 4.47442 12.497 4.47451L12.5 3.72451L12.503 2.97452C12.5031 2.97452 12.5025 2.97452 12.501 2.9745C12.4996 2.97449 12.4977 2.97447 12.4952 2.97443C12.4902 2.97437 12.4839 2.97427 12.4762 2.97415C12.4604 2.9739 12.4413 2.97357 12.4183 2.97318C12.3731 2.97242 12.3162 2.97149 12.2586 2.97088C12.2018 2.97028 12.1406 2.96994 12.0876 2.97049C12.0614 2.97076 12.0331 2.97129 12.0062 2.97237C11.99 2.97303 11.9382 2.97498 11.883 2.98369L12 3.72451ZM12.5 3.72451L12.497 4.47451C12.5297 4.47464 12.5316 4.47969 12.5198 4.47448C12.5084 4.46942 12.512 4.46701 12.5318 4.48828C12.5891 4.54973 12.675 4.68823 12.8087 5.00593L13.5 4.715L14.1913 4.42407C14.0519 4.09288 13.882 3.73712 13.6296 3.46605C13.3372 3.15207 12.9595 2.97636 12.503 2.97452L12.5 3.72451Z" fill="#4E5964"/>
<path opacity="0.4" d="M9 20.2246H15" stroke="#4E5964" stroke-width="1.5" stroke-linecap="round"/>
</svg>
