<svg width="24" height="24" viewBox="0 0 24 24" fill="none" xmlns="http://www.w3.org/2000/svg">
<path d="M5.00195 5L6.60039 12.4047C7.03309 14.4092 8.76624 15.8677 10.8152 15.9515L12.002 16L13.1887 15.9515C15.2377 15.8677 16.9708 14.4092 17.4035 12.4047L19.002 5" stroke="#4E5964" stroke-width="1.5"/>
<path opacity="0.4" d="M17.502 13C19.37 13 21.002 11.465 21.002 9.57143V7.85714C21.002 7.38376 20.6234 7 20.1563 7H19.002" stroke="#4E5964" stroke-width="1.5" stroke-linecap="round" stroke-linejoin="round"/>
<path opacity="0.4" d="M6.50195 13C4.63386 13 3.00195 11.465 3.00195 9.57143V7.85714C3.00195 7.38376 3.38055 7 3.84757 7H5.50195" stroke="#4E5964" stroke-width="1.5" stroke-linecap="round" stroke-linejoin="round"/>
<ellipse cx="12.002" cy="5" rx="7" ry="2" stroke="#4E5964" stroke-width="1.5"/>
<path opacity="0.4" d="M10.4021 16H13.6018C13.7667 16 13.9066 16.2157 13.884 16.379C13.8479 16.6397 13.8511 17.0519 14.002 17.6667C14.2748 18.7781 15.2302 20.0601 15.7151 20.6588C15.8238 20.7931 15.7279 21 15.5551 21H8.44882C8.27602 21 8.18007 20.7931 8.28882 20.6588C8.77368 20.0601 9.72915 18.7781 10.002 17.6667C10.1528 17.0519 10.156 16.6397 10.1199 16.379C10.0973 16.2157 10.2373 16 10.4021 16Z" stroke="#4E5964" stroke-width="1.5" stroke-linecap="round"/>
</svg>
