<svg width="24" height="24" viewBox="0 0 24 24" fill="none" xmlns="http://www.w3.org/2000/svg">
<path d="M5 5L6.59844 12.4047C7.03114 14.4092 8.76429 15.8677 10.8132 15.9515L12 16L13.1868 15.9515C15.2357 15.8677 16.9689 14.4092 17.4016 12.4047L19 5" stroke="#4E5964" stroke-width="1.5"/>
<path opacity="0.4" d="M17.5 13C19.3681 13 21 11.465 21 9.57143V7.85714C21 7.38376 20.6214 7 20.1544 7H19" stroke="#4E5964" stroke-width="1.5" stroke-linecap="round" stroke-linejoin="round"/>
<path opacity="0.4" d="M6.5 13C4.63191 13 3 11.465 3 9.57143V7.85714C3 7.38376 3.3786 7 3.84562 7H5.5" stroke="#4E5964" stroke-width="1.5" stroke-linecap="round" stroke-linejoin="round"/>
<ellipse cx="12" cy="5" rx="7" ry="2" stroke="#4E5964" stroke-width="1.5"/>
<path opacity="0.4" d="M10.4001 16H13.5999C13.7647 16 13.9046 16.2157 13.882 16.379C13.8459 16.6397 13.8491 17.0519 14 17.6667C14.2728 18.7781 15.2283 20.0601 15.7131 20.6588C15.8219 20.7931 15.7259 21 15.5531 21H8.44687C8.27406 21 8.17812 20.7931 8.28687 20.6588C8.77172 20.0601 9.72719 18.7781 10 17.6667C10.1509 17.0519 10.1541 16.6397 10.118 16.379C10.0954 16.2157 10.2353 16 10.4001 16Z" stroke="#4E5964" stroke-width="1.5" stroke-linecap="round"/>
</svg>
