<svg width="24" height="24" viewBox="0 0 24 24" fill="none" xmlns="http://www.w3.org/2000/svg">
<path d="M10.2038 3.49893C11.3153 2.83369 12.6847 2.83369 13.7962 3.49893L18.2038 6.1369C19.3153 6.80214 20 8.03155 20 9.36202V14.638C20 15.9685 19.3153 17.1979 18.2038 17.8631L13.7962 20.5011C12.6847 21.1663 11.3153 21.1663 10.2038 20.5011L5.7962 17.8631C4.68471 17.1979 4 15.9685 4 14.638V9.36202C4 8.03155 4.68471 6.80214 5.7962 6.13691L10.2038 3.49893Z" stroke="#4E5964" stroke-width="1.5"/>
<path opacity="0.4" d="M12 3.5L16 9.99988M16 9.99988L19 7.66856M16 9.99988H8M16 9.99988L12 16.9999L8 9.99988M16 9.99988L19 15.9999L12 17.1141M8 9.99988L5 15.9999L12 17.1141M8 9.99988L12 3.99988M8 9.99988L5 7.6M12 17.1141V21.1024" stroke="#4E5964" stroke-width="1.5"/>
</svg>
