<svg width="24" height="24" viewBox="0 0 24 24" fill="none" xmlns="http://www.w3.org/2000/svg">
<path d="M16.7661 4.73466L13.1992 3.43641C12.4247 3.15452 11.5756 3.15451 10.8011 3.43641L7.23424 4.73466C6.45974 5.01655 5.80933 5.56231 5.39723 6.27609L3.49932 9.56337C3.08721 10.2772 2.93978 11.1133 3.0829 11.925L3.74204 15.6631C3.88516 16.4748 4.30968 17.2101 4.94106 17.7399L7.84883 20.1798C8.4802 20.7096 9.27805 21 10.1023 21H12.0002H13.8981C14.7223 21 15.5201 20.7096 16.1515 20.1798L19.0593 17.7399C19.6907 17.2101 20.1152 16.4748 20.2583 15.6631L20.9174 11.925C21.0606 11.1133 20.9132 10.2773 20.5011 9.56351L18.6024 6.27489C18.1903 5.56111 17.5406 5.01655 16.7661 4.73466Z" stroke="#4E5964" stroke-width="1.64975"/>
<path opacity="0.4" d="M12.0006 17.4351L6.8452 14.3418M12.0006 17.4351L17.4595 14.3418M12.0006 17.4351V19.2175V20.1087V20.5542M15.1745 8.15529H8.82675M15.1745 8.15529L16.317 11.2486L17.4595 14.3418M15.1745 8.15529L16.5701 6.66309L17.2678 5.91699L17.6167 5.54395M8.82675 8.15529L6.8452 14.3418M8.82675 8.15529L7.43122 6.66309L6.73345 5.91699L6.38457 5.54395M6.8452 14.3418L5.40464 15.6307L4.68436 16.2751L4.32422 16.5973M17.4595 14.3418L18.7483 15.6307L19.3928 16.2751L19.715 16.5973" stroke="#4E5964" stroke-width="1.64975"/>
</svg>
