<svg width="24" height="24" viewBox="0 0 24 24" fill="none" xmlns="http://www.w3.org/2000/svg">
<path d="M10.2038 3.49893C11.3153 2.83369 12.6847 2.83369 13.7962 3.49893L18.2038 6.1369C19.3153 6.80214 20 8.03155 20 9.36202V14.638C20 15.9685 19.3153 17.1979 18.2038 17.8631L13.7962 20.5011C12.6847 21.1663 11.3153 21.1663 10.2038 20.5011L5.7962 17.8631C4.68471 17.1979 4 15.9685 4 14.638V9.36202C4 8.03155 4.68471 6.80214 5.7962 6.13691L10.2038 3.49893Z" stroke="#4E5964" stroke-width="1.6"/>
<path opacity="0.4" d="M19.3234 16.0002H4.67662C4.59889 16.0002 4.55088 15.9154 4.59087 15.8488L11.9143 3.64292C11.9531 3.57818 12.0469 3.57818 12.0857 3.64292L19.4091 15.8488C19.4491 15.9154 19.4011 16.0002 19.3234 16.0002Z" stroke="#4E5964" stroke-width="1.5"/>
</svg>
