<svg width="24" height="24" viewBox="0 0 24 24" fill="none" xmlns="http://www.w3.org/2000/svg">
<path opacity="0.4" d="M15.002 6.44444C15.002 5.09442 16.0964 4 17.4464 4H18.002C19.6588 4 21.002 5.34315 21.002 7V9.5V12C21.002 13.6569 19.6588 15 18.002 15H17.4464C16.0964 15 15.002 13.9056 15.002 12.5556V12.5556V6.44444V6.44444Z" stroke="#4E5964" stroke-width="1.5"/>
<path d="M3.00195 11.069V7C3.00195 4.79086 4.79281 3 7.00195 3H10.6042C12.0988 3 13.4912 3.75913 14.3008 5.01549C14.7585 5.72573 15.002 6.5528 15.002 7.39776V13.5049C15.002 14.3468 14.7658 15.1718 14.3203 15.8862L13.002 18L11.551 20.1764C11.208 20.6909 10.6305 21 10.0121 21C8.93 21 8.07902 20.0752 8.16889 18.9968L8.37739 16.4948C8.44444 15.6901 7.80942 15 7.00195 15H6.60195C4.61373 15 3.00195 13.3882 3.00195 11.4V11.069Z" stroke="#4E5964" stroke-width="1.5"/>
</svg>
