<svg width="24" height="24" viewBox="0 0 24 24" fill="none" xmlns="http://www.w3.org/2000/svg">
<path d="M2 10.9655V6.66667C2 4.08934 4.08934 2 6.66667 2H11.0274C12.6779 2 14.2208 2.81891 15.1458 4.18584C15.7025 5.00857 16 5.97919 16 6.97257V13.4629C16 14.5333 15.6876 15.5804 15.1012 16.4759L13.6667 18.6667L11.9816 21.0739C11.5753 21.6543 10.9114 22 10.2029 22C8.92902 22 7.92884 20.9085 8.03988 19.6395L8.26412 17.0767C8.34613 16.1395 7.60745 15.3333 6.66667 15.3333H6C3.79086 15.3333 2 13.5425 2 11.3333V10.9655Z" stroke="#4E5964" stroke-width="1.5"/>
<path opacity="0.4" d="M16 4.88889C16 3.2934 17.2934 2 18.8889 2H19C20.6569 2 22 3.34315 22 5V8.5V12C22 13.6569 20.6569 15 19 15H18.8889C17.2934 15 16 13.7066 16 12.1111V12.1111V4.88889V4.88889Z" stroke="#4E5964" stroke-width="1.5"/>
</svg>
