<svg width="24" height="24" viewBox="0 0 24 24" fill="none" xmlns="http://www.w3.org/2000/svg">
<path opacity="0.4" d="M15 6.44444C15 5.09442 16.0944 4 17.4444 4H18C19.6569 4 21 5.34315 21 7V9.5V12C21 13.6569 19.6569 15 18 15H17.4444C16.0944 15 15 13.9056 15 12.5556V6.44444Z" stroke="#4E5964" stroke-width="1.5"/>
<path d="M3 11.069V7C3 4.79086 4.79086 3 7 3H10.6022C12.0969 3 13.4892 3.75913 14.2989 5.01549C14.7566 5.72573 15 6.5528 15 7.39776V13.5049C15 14.3468 14.7638 15.1718 14.3183 15.8862L13 18L11.5491 20.1764C11.206 20.6909 10.6285 21 10.0101 21C8.92805 21 8.07707 20.0752 8.16693 18.9968L8.37543 16.4948C8.44249 15.6901 7.80747 15 7 15H6.6C4.61177 15 3 13.3882 3 11.4V11.069Z" stroke="#4E5964" stroke-width="1.5"/>
</svg>
