<svg width="24" height="24" viewBox="0 0 24 24" fill="none" xmlns="http://www.w3.org/2000/svg">
<path opacity="0.64" d="M15.0386 5.23393C15.3077 5.54879 15.7812 5.58586 16.096 5.31672C16.4109 5.04758 16.4479 4.57415 16.1788 4.25929L15.0386 5.23393ZM6.59971 19.75C7.01392 19.75 7.34971 19.4142 7.34971 19C7.34971 18.5858 7.01392 18.25 6.59971 18.25V19.75ZM11.5 5L11.5 4.25H11.5V5ZM18.2622 5.75001C18.6764 5.75001 19.0122 5.41422 19.0122 5.00001C19.0122 4.58579 18.6764 4.25001 18.2622 4.25001L18.2622 5.75001ZM21.9227 8.55236L21.3923 9.08269L21.3923 9.08269L21.9227 8.55236ZM18.4476 5.07733L18.978 4.547L18.978 4.547L18.4476 5.07733ZM13.5603 2.35024L14.1304 1.86292L13.5603 2.35024ZM2.75 14.1538V7.5H1.25V14.1538H2.75ZM7.5 2.75H12.8002V1.25H7.5V2.75ZM1.25 14.1538C1.25 17.1921 3.45852 19.75 6.59971 19.75V18.25C4.38798 18.25 2.75 16.4685 2.75 14.1538H1.25ZM2.75 7.5C2.75 4.87665 4.87665 2.75 7.5 2.75V1.25C4.04822 1.25 1.25 4.04822 1.25 7.5H2.75ZM21.25 8.77614V16.5H22.75V8.77614H21.25ZM16.5 21.25H11.5V22.75H16.5V21.25ZM6.75 16.5V10.5H5.25V16.5H6.75ZM11.5 21.25C8.87665 21.25 6.75 19.1234 6.75 16.5H5.25C5.25 19.9518 8.04822 22.75 11.5 22.75V21.25ZM21.25 16.5C21.25 19.1233 19.1234 21.25 16.5 21.25V22.75C19.9518 22.75 22.75 19.9518 22.75 16.5H21.25ZM6.75 10.5C6.75 7.87665 8.87665 5.75 11.5 5.75V4.25C8.04822 4.25 5.25 7.04822 5.25 10.5H6.75ZM22.453 8.02203L18.978 4.547L17.9173 5.60766L21.3923 9.08269L22.453 8.02203ZM17.25 5.26274V8.73778H18.75V5.26274H17.25ZM18.2622 9.75H21.7373V8.25H18.2622V9.75ZM17.25 8.73778C17.25 9.29681 17.7032 9.75 18.2622 9.75V8.25C18.5316 8.25 18.75 8.46839 18.75 8.73778H17.25ZM18.978 4.547C18.3403 3.90933 17.25 4.36096 17.25 5.26274H18.75C18.75 5.69731 18.2246 5.91494 17.9173 5.60766L18.978 4.547ZM21.3923 9.08269C21.0851 8.77541 21.3027 8.25 21.7373 8.25V9.75C22.639 9.75 23.0907 8.6597 22.453 8.02203L21.3923 9.08269ZM11.5 5.75L18.2622 5.75001L18.2622 4.25001L11.5 4.25L11.5 5.75ZM12.9902 2.83756L15.0386 5.23393L16.1788 4.25929L14.1304 1.86292L12.9902 2.83756ZM12.8002 2.75C12.8733 2.75 12.9427 2.78199 12.9902 2.83756L14.1304 1.86292C13.7979 1.47396 13.3119 1.25 12.8002 1.25V2.75Z" fill="#4E5964"/>
<path opacity="0.64" d="M15.0386 5.23393C15.3077 5.54879 15.7812 5.58586 16.096 5.31672C16.4109 5.04758 16.4479 4.57415 16.1788 4.25929L15.0386 5.23393ZM6.59971 19.75C7.01392 19.75 7.34971 19.4142 7.34971 19C7.34971 18.5858 7.01392 18.25 6.59971 18.25V19.75ZM13.5603 2.35024L14.1304 1.86292L13.5603 2.35024ZM2.75 14.1538V7.5H1.25V14.1538H2.75ZM7.5 2.75H12.8002V1.25H7.5V2.75ZM1.25 14.1538C1.25 17.1921 3.45852 19.75 6.59971 19.75V18.25C4.38798 18.25 2.75 16.4685 2.75 14.1538H1.25ZM2.75 7.5C2.75 4.87665 4.87665 2.75 7.5 2.75V1.25C4.04822 1.25 1.25 4.04822 1.25 7.5H2.75ZM21.25 10V16.5H22.75V10H21.25ZM16.5 21.25H11.5V22.75H16.5V21.25ZM6.75 16.5V10.5H5.25V16.5H6.75ZM11.5 21.25C8.87665 21.25 6.75 19.1234 6.75 16.5H5.25C5.25 19.9518 8.04822 22.75 11.5 22.75V21.25ZM21.25 16.5C21.25 19.1233 19.1234 21.25 16.5 21.25V22.75C19.9518 22.75 22.75 19.9518 22.75 16.5H21.25ZM6.75 10.5C6.75 7.87665 8.87665 5.75 11.5 5.75V4.25C8.04822 4.25 5.25 7.04822 5.25 10.5H6.75ZM12.9902 2.83756L15.0386 5.23393L16.1788 4.25929L14.1304 1.86292L12.9902 2.83756ZM11.5 5.75H17V4.25H11.5V5.75ZM12.8002 2.75C12.8733 2.75 12.9427 2.78199 12.9902 2.83756L14.1304 1.86292C13.7979 1.47396 13.3119 1.25 12.8002 1.25V2.75Z" fill="#4E5964"/>
<line opacity="0.64" x1="12.75" y1="17.25" x2="16.25" y2="17.25" stroke="#4E5964" stroke-width="1.5" stroke-linecap="round"/>
<line opacity="0.64" x1="11.75" y1="14.25" x2="17.25" y2="14.25" stroke="#4E5964" stroke-width="1.5" stroke-linecap="round"/>
</svg>
