<svg width="24" height="24" viewBox="0 0 24 24" fill="none" xmlns="http://www.w3.org/2000/svg">
<path d="M18 16.5C18 14.6435 17.3679 12.863 16.2426 11.5502C15.8686 11.1139 15.4503 10.7411 15 10.4378M6 16.5C6 14.6435 6.63214 12.863 7.75736 11.5502C8.06583 11.1903 8.40443 10.8737 8.76624 10.6036M8.76624 10.6036C8.93336 10.4789 9.10543 10.3641 9.28177 10.2595L8.76624 10.6036Z" stroke="#4E5964" stroke-width="1.5" stroke-linecap="round"/>
<rect x="9" y="4.5" width="6" height="8" rx="1.93742" stroke="#4E5964" stroke-width="1.5"/>
<path d="M6.5 7.01026C7.87512 7.01026 7.62488 7.01025 9 7.01025" stroke="#4E5964" stroke-width="1.5" stroke-linecap="round"/>
<path d="M15.5 7.01025C16.8668 7.01025 16.1332 7 17.5 7" stroke="#4E5964" stroke-width="1.5" stroke-linecap="round"/>
<path d="M11 7.5H13" stroke="#4E5964" stroke-width="1.5" stroke-linecap="round"/>
<path opacity="0.4" d="M20 6V3M4 6V3M22 3.88086H18M6 3.88086H2M20 9.35848C19.4477 9.35848 19 8.91077 19 8.35848V6.24255C19 6.2348 19.0063 6.22852 19.014 6.22852H20.986C20.9937 6.22852 21 6.2348 21 6.24255V8.35848C21 8.91077 20.5523 9.35848 20 9.35848ZM4 9.35848C3.44772 9.35848 3 8.91077 3 8.35848V6.24255C3 6.2348 3.00628 6.22852 3.01404 6.22852H4.98596C4.99372 6.22852 5 6.2348 5 6.24255V8.35848C5 8.91077 4.55228 9.35848 4 9.35848ZM12.5761 20.4012L14.8403 16.8567C15.0981 16.4531 15.0372 15.8645 14.7057 15.5552L14.0356 14.9301C13.9083 14.8113 13.7534 14.7471 13.5942 14.7471H10.4058C10.2466 14.7471 10.0917 14.8113 9.96438 14.9301L9.29434 15.5552C8.96282 15.8645 8.90195 16.4532 9.15975 16.8567L11.4239 20.4012C11.7185 20.8624 12.2815 20.8624 12.5761 20.4012Z" stroke="#4E5964" stroke-width="1.3" stroke-linecap="round"/>
</svg>
