<svg width="24" height="24" viewBox="0 0 24 24" fill="none" xmlns="http://www.w3.org/2000/svg">
<rect x="3" y="3" width="18" height="18" rx="9" stroke="#4E5964" stroke-width="1.5"/>
<path opacity="0.4" d="M4 15.9999C5.17391 15.5939 9.87391 13.9016 10.5 16.4999C11.1261 19.0983 14.7391 20.6352 15 20.4999" stroke="#4E5964" stroke-width="1.5" stroke-linecap="round"/>
<path opacity="0.4" d="M13 3.5C13.5 4.5 14.4217 4.86606 14.1872 6.48751C14.1483 6.75647 14.178 6.98146 14.2599 7.16879C15.0829 9.05082 17.3151 9.28001 17.5074 11.3251C17.6465 12.8038 18.2192 14.3117 20.2544 14.897" stroke="#4E5964" stroke-width="1.5" stroke-linecap="round"/>
<path opacity="0.4" d="M8.38118 3.89757C8.45532 4.90621 11.3624 7.19991 9.65011 7.08239C9.29349 7.05791 9.01779 7.14098 8.8074 7.29865C7.1637 8.5305 6.81878 10.2829 5.16929 11.507C4.57024 11.9516 3.9868 12.7019 3.5 14" stroke="#4E5964" stroke-width="1.5" stroke-linecap="round"/>
</svg>
