<svg width="24" height="24" viewBox="0 0 24 24" fill="none" xmlns="http://www.w3.org/2000/svg">
<path opacity="0.4" d="M21 18V18.5C21 19.8807 19.8807 21 18.5 21H5.5C4.11929 21 3 19.8807 3 18.5V18" stroke="#4E5964" stroke-width="1.5" stroke-linecap="round"/>
<path fill-rule="evenodd" clip-rule="evenodd" d="M7.4048 12.1062L13.0741 3.99909C13.4236 3.49921 13.9636 3.15449 14.5753 3.04075C15.1869 2.92701 15.82 3.05359 16.3355 3.39262L18.9697 5.12543C20.0429 5.83143 20.3229 7.24759 19.595 8.28853L13.9257 16.3956C13.5761 16.8955 13.0361 17.2402 12.4245 17.354L9.06104 17.9794C8.42423 18.0978 7.809 17.6931 7.6869 17.0755L7.04201 13.8134C6.92475 13.2202 7.05525 12.6061 7.4048 12.1062Z" stroke="#4E5964" stroke-width="1.5" stroke-linecap="round" stroke-linejoin="round"/>
<line opacity="0.4" x1="10.85" y1="13.5496" x2="11.15" y2="13.1496" stroke="#4E5964" stroke-width="1.5" stroke-linecap="round"/>
<line opacity="0.4" x1="11.1092" y1="7.63042" x2="16.6813" y2="11.0967" stroke="#4E5964" stroke-width="1.5" stroke-linecap="round"/>
</svg>
