<svg width="24" height="24" viewBox="0 0 24 24" fill="none" xmlns="http://www.w3.org/2000/svg">
<circle opacity="0.4" cx="11.5" cy="5.5" r="3" stroke="#4E5964" stroke-width="1.5"/>
<path opacity="0.4" fill-rule="evenodd" clip-rule="evenodd" d="M16.6953 12.7229L18.7229 10.6953C18.848 10.5702 19.0175 10.5 19.1943 10.5C19.3712 10.5 19.5407 10.5702 19.6657 10.6953L20.3047 11.3343C20.5651 11.5946 20.5651 12.0167 20.3047 12.2771L18.2771 14.3047C18.152 14.4298 17.9825 14.5 17.8056 14.5H16.8333C16.6492 14.5 16.5 14.3508 16.5 14.1667V13.1943C16.5 13.0175 16.5702 12.848 16.6953 12.7229Z" stroke="#4E5964" stroke-width="1.5" stroke-linecap="round" stroke-linejoin="round"/>
<path d="M14 11.5H7.5C5.29086 11.5 3.5 13.1281 3.5 15.1364V16.5C3.5 19.2614 5.96243 21.5 9 21.5H14.7799C17.3867 21.5 19.5 19.5789 19.5 17.209V17" stroke="#4E5964" stroke-width="1.5" stroke-linecap="round"/>
</svg>
