<svg width="24" height="24" viewBox="0 0 24 24" fill="none" xmlns="http://www.w3.org/2000/svg">
<circle opacity="0.4" cx="11.002" cy="5" r="3" stroke="#4E5964" stroke-width="1.5"/>
<path d="M14.4305 11H7.00195C4.79281 11 3.00195 12.7909 3.00195 15V16.5C3.00195 19.5376 5.46439 22 8.50195 22H14.2819C16.8887 22 19.002 19.8867 19.002 17.2799V17.05" stroke="#4E5964" stroke-width="1.5" stroke-linecap="round"/>
<path opacity="0.4" fill-rule="evenodd" clip-rule="evenodd" d="M17.1972 12.2229L19.2249 10.1953C19.3499 10.0702 19.5195 10 19.6963 10C19.8731 10 20.0427 10.0702 20.1677 10.1953L20.8067 10.8343C21.067 11.0946 21.067 11.5167 20.8067 11.7771L18.779 13.8047C18.654 13.9298 18.4844 14 18.3076 14H17.3353C17.1512 14 17.002 13.8508 17.002 13.6667V12.6943C17.002 12.5175 17.0722 12.348 17.1972 12.2229Z" stroke="#4E5964" stroke-width="1.5" stroke-linecap="round" stroke-linejoin="round"/>
</svg>
