<svg width="24" height="24" viewBox="0 0 24 24" fill="none" xmlns="http://www.w3.org/2000/svg">
<rect x="2" y="4" width="20" height="16" rx="5.5" stroke="#4E5964" stroke-width="1.5"/>
<path opacity="0.64" d="M10.8789 12.7387L11.4394 12.2405L11.4394 12.2405L10.8789 12.7387ZM13.1211 12.7387L13.6817 13.237L13.6817 13.237L13.1211 12.7387ZM9.54862 11.9036C9.79497 11.5706 9.72474 11.101 9.39175 10.8546C9.05876 10.6083 8.58911 10.6785 8.34276 11.0115L9.54862 11.9036ZM4.95214 15.5945C4.70579 15.9275 4.77602 16.3971 5.10901 16.6435C5.442 16.8898 5.91165 16.8196 6.15801 16.4866L4.95214 15.5945ZM17.7314 16.4866C17.9778 16.8196 18.4474 16.8898 18.7804 16.6434C19.1134 16.3971 19.1836 15.9274 18.9373 15.5944L17.7314 16.4866ZM15.5467 11.0114C15.3003 10.6785 14.8307 10.6082 14.4977 10.8546C14.1647 11.1009 14.0945 11.5706 14.3408 11.9036L15.5467 11.0114ZM3.43944 5.49827L10.3183 13.237L11.4394 12.2405L4.56056 4.50173L3.43944 5.49827ZM13.6817 13.237L20.5606 5.49827L19.4394 4.50173L12.5606 12.2405L13.6817 13.237ZM10.3183 13.237C11.2134 14.2439 12.7866 14.2439 13.6817 13.237L12.5606 12.2405C12.2622 12.5761 11.7378 12.5761 11.4394 12.2405L10.3183 13.237ZM8.34276 11.0115L4.95214 15.5945L6.15801 16.4866L9.54862 11.9036L8.34276 11.0115ZM18.9373 15.5944L15.5467 11.0114L14.3408 11.9036L17.7314 16.4866L18.9373 15.5944Z" fill="#4E5964"/>
</svg>
