<svg width="24" height="24" viewBox="0 0 24 24" fill="none" xmlns="http://www.w3.org/2000/svg">
<path d="M20.4723 8.96338C21.2245 11.0618 21.1711 13.3647 20.3226 15.426C19.474 17.4873 17.8907 19.1604 15.8793 20.1212C13.8678 21.082 11.5714 21.2621 9.43472 20.6267M20.9448 12.996C20.6982 15.2115 19.6381 17.2565 17.9699 18.7352C16.3018 20.2138 14.1443 21.0207 11.9152 20.9997C9.68619 20.9787 7.54426 20.1312 5.9043 18.6213" stroke="#4E5964" stroke-width="1.5" stroke-linecap="round"/>
<path opacity="0.4" d="M20.8447 13.6652C21.1388 12.1034 21.0159 10.4799 20.4723 8.96331C20.9387 10.2644 21.0953 11.644 20.9448 12.9959M20.8447 13.6652C20.7828 13.9942 20.7024 14.3205 20.6035 14.6425M20.8447 13.6652C20.8864 13.4442 20.9198 13.2209 20.9448 12.9959M20.6035 14.6425C20.5223 14.9068 20.4286 15.1683 20.3226 15.4259M20.6035 14.6425C20.1213 16.2124 19.215 17.6315 17.9699 18.7351M20.3226 15.4259C19.7436 16.8323 18.8227 18.058 17.657 19M20.3226 15.4259C20.645 14.6427 20.8526 13.8245 20.9448 12.9959M20.3226 15.4259C20.2695 15.5548 20.2135 15.6822 20.1548 15.8079C19.986 16.1693 19.7942 16.5176 19.581 16.8508C19.4976 16.9812 19.4109 17.1092 19.321 17.2349C18.9752 17.7186 18.5825 18.1664 18.1491 18.5719M17.657 19C17.1142 19.4387 16.5183 19.8158 15.8793 20.1211M17.657 19C17.7631 18.9143 17.8675 18.8259 17.9699 18.7351M17.657 19C17.8263 18.8632 17.9904 18.7204 18.1491 18.5719M15.8793 20.1211C14.6321 20.7168 13.2754 21.0124 11.9152 20.9996M15.8793 20.1211C14.6518 20.7074 13.2972 21.0127 11.9152 20.9996M11.9152 20.9996C11.0816 20.9918 10.2466 20.8681 9.43472 20.6267C8.13087 20.2389 6.9211 19.5574 5.9043 18.6213M11.9152 20.9996C11.9152 20.9996 11.9152 20.9996 11.9152 20.9996ZM12.7745 3.0334C12.9636 3.04973 13.1516 3.07199 13.3383 3.10005M13.3383 3.10005C15.344 3.40157 17.1954 4.37324 18.5855 5.86542M13.3383 3.10005C11.3326 2.79842 9.27736 3.18269 7.50997 4.20011C7.34169 4.29698 7.17695 4.39909 7.01616 4.50601M13.3383 3.10005C13.525 3.12813 13.7113 3.16215 13.8968 3.20215M17.9699 18.7351C18.0305 18.6814 18.0902 18.6271 18.1491 18.5719M3.15791 10.3216C3.19291 10.1372 3.23356 9.95454 3.27972 9.7737M3.27972 9.7737C3.40009 9.30217 3.55796 8.84337 3.75083 8.4013M3.27972 9.7737C2.77849 11.7367 2.95314 13.8178 3.78544 15.6772M3.27972 9.7737C3.32696 9.58869 3.38021 9.40474 3.43947 9.22211C3.53021 8.94249 3.63421 8.66862 3.75083 8.4013M3.75083 8.4013C4.25022 7.25664 4.98431 6.22419 5.90993 5.37355M5.90993 5.37355C6.11837 5.18199 6.33652 4.99965 6.5639 4.82733C6.71171 4.7153 6.86255 4.60817 7.01616 4.50601M5.90993 5.37355C6.25399 5.05733 6.62364 4.76704 7.01616 4.50601M3.00004 19.9764L20.8417 4.92061" stroke="#4E5964" stroke-width="1.5" stroke-linecap="round"/>
<path d="M20.4722 8.96338C20.9385 10.2644 21.0952 11.6441 20.9447 12.996C20.8525 13.8246 20.6448 14.6427 20.3224 15.426C20.2694 15.5548 20.2135 15.6821 20.1548 15.8079C19.986 16.1693 19.7941 16.5176 19.5809 16.8508C19.4975 16.9812 19.4108 17.1092 19.321 17.2348C18.9751 17.7185 18.5825 18.1664 18.1491 18.5719M18.1491 18.5719C17.9904 18.7204 17.8262 18.8632 17.6569 19.0001M18.1491 18.5719C18.0901 18.6271 18.0304 18.6815 17.9698 18.7352C17.8673 18.826 17.763 18.9143 17.6569 19.0001M17.6569 19.0001C17.1141 19.4388 16.5182 19.8159 15.8791 20.1212M15.8791 20.1212C14.632 20.7169 13.2753 21.0125 11.9151 20.9997M15.8791 20.1212C14.6517 20.7075 13.2971 21.0127 11.9151 20.9997M11.9151 20.9997C11.0814 20.9919 10.2465 20.8682 9.43457 20.6267C8.13072 20.239 6.92095 19.5575 5.90415 18.6213M3 19.9763L11.9208 12.4485" stroke="#4E5964" stroke-width="1.5" stroke-linecap="round"/>
</svg>
