<svg width="24" height="24" viewBox="0 0 24 24" fill="none" xmlns="http://www.w3.org/2000/svg">
<path d="M8.98258 6.44941C9.33846 6.06772 9.93638 6.04679 10.3181 6.40267L11.6962 7.68761C12.0795 8.04496 12.0988 8.64597 11.7392 9.02714L7.48267 13.5389C7.34002 13.6901 7.10204 13.6977 6.95 13.556L6.86847 13.48L5.08669 11.8187L4.76921 11.5227C4.61654 11.3803 4.60817 11.1412 4.75052 10.9885L8.98258 6.44941Z" stroke="#4E5964" stroke-width="1.5"/>
<path d="M14.6838 11.7658C15.0396 11.3841 15.6375 11.3632 16.0192 11.7191L17.3974 13.004C17.7807 13.3614 17.7999 13.9624 17.4403 14.3436L13.1838 18.8553C13.0412 19.0065 12.8032 19.0141 12.6512 18.8724L12.5696 18.7964L10.7879 17.1351L10.4704 16.8391C10.3177 16.6967 10.3093 16.4576 10.4517 16.3049L14.6838 11.7658Z" stroke="#4E5964" stroke-width="1.5"/>
<path opacity="0.4" d="M12.2966 7.68136C12.2966 7.68136 12.941 6.99024 13.5853 6.29913C14.175 5.66668 14.4657 4.37943 14.5767 3.7551C14.6089 3.57431 14.457 3.42218 14.2761 3.45329C13.6256 3.56512 12.2581 3.86771 11.6626 4.50645C11.0182 5.19756 10.3739 5.88868 10.3739 5.88868" stroke="#4E5964" stroke-width="1.5" stroke-linecap="square"/>
<path opacity="0.4" d="M17.9978 12.9973C17.9978 12.9973 18.6421 12.3062 19.2865 11.615C19.8762 10.9826 20.1669 9.69535 20.2779 9.07102C20.31 8.89022 20.1582 8.7381 19.9772 8.76921C19.3268 8.88104 17.9593 9.18362 17.3638 9.82237C16.7194 10.5135 16.075 11.2046 16.075 11.2046" stroke="#4E5964" stroke-width="1.5" stroke-linecap="square"/>
<path opacity="0.4" d="M3.01145 12.8547C2.70849 12.5722 2.23391 12.5888 1.95144 12.8918C1.66897 13.1948 1.68559 13.6693 1.98855 13.9518L2.5 13.4032L3.01145 12.8547ZM4.753 16.5293C5.05596 16.8118 5.53054 16.7951 5.81301 16.4922C6.09548 16.1892 6.07887 15.7146 5.77591 15.4322L5.26446 15.9807L4.753 16.5293ZM6.63163 13.2587L6.08307 12.7472L4.08955 14.8854L4.63811 15.3968L5.18667 15.9083L7.18019 13.7702L6.63163 13.2587ZM3.21269 14.0678L3.76125 14.5793L5.75476 12.4411L5.20621 11.9297L4.65765 11.4182L2.66413 13.5564L3.21269 14.0678ZM2.5 13.4032L1.98855 13.9518L4.753 16.5293L5.26446 15.9807L5.77591 15.4322L3.01145 12.8547L2.5 13.4032Z" fill="#4E5964"/>
<path opacity="0.4" d="M8.71263 18.1707C8.40967 17.8882 7.93508 17.9048 7.65262 18.2078C7.37015 18.5107 7.38676 18.9853 7.68972 19.2678L8.20117 18.7192L8.71263 18.1707ZM10.4542 21.8453C10.7571 22.1277 11.2317 22.1111 11.5142 21.8082C11.7967 21.5052 11.78 21.0306 11.4771 20.7482L10.9656 21.2967L10.4542 21.8453ZM12.3328 18.5746L11.7843 18.0632L9.79077 20.2013L10.3393 20.7128L10.8879 21.2242L12.8814 19.0861L12.3328 18.5746ZM8.9139 19.3837L9.46246 19.8952L11.456 17.7571L10.9074 17.2456L10.3589 16.7342L8.36534 18.8723L8.9139 19.3837ZM8.20117 18.7192L7.68972 19.2678L10.4542 21.8453L10.9656 21.2967L11.4771 20.7482L8.71263 18.1707L8.20117 18.7192Z" fill="#4E5964"/>
</svg>
