<svg width="24" height="24" viewBox="0 0 24 24" fill="none" xmlns="http://www.w3.org/2000/svg">
<path d="M18.6953 7.61377C19.4352 8.31958 20.0667 9.15149 20.5544 10.0884C21.1491 11.2935 21.1491 12.7066 20.5544 13.9116C18.899 17.0922 15.586 19.0624 12.0004 18.9985C10.6129 19.0232 9.26626 18.7434 8.04066 18.2067M8.04066 18.2067C7.99438 18.1864 7.94827 18.1658 7.90234 18.1448L8.04066 18.2067Z" stroke="#4E5964" stroke-width="1.5" stroke-linecap="round" stroke-linejoin="round"/>
<path d="M14.9187 11.301C14.9722 11.5253 15.0006 11.7594 15.0006 12.0001C15.0006 13.6569 13.6574 15.0001 12.0006 15.0001C11.6874 15.0001 11.3854 14.9521 11.1016 14.8631" stroke="#4E5964" stroke-width="1.5" stroke-linecap="round"/>
<path opacity="0.4" d="M3 12L2.25 11.999L2.25 12.001L3 12ZM3.446 10.0884L2.78071 9.74215C2.77808 9.74721 2.77551 9.75229 2.77299 9.7574L3.446 10.0884ZM12 5.00151L11.9866 5.75139C11.9955 5.75155 12.0044 5.75155 12.0133 5.75139L12 5.00151ZM3.446 13.9116L2.77299 14.2426C2.77551 14.2477 2.77808 14.2528 2.78071 14.2578L3.446 13.9116ZM16.3168 6.80211C16.6809 6.99955 17.1362 6.86441 17.3336 6.50027C17.5311 6.13614 17.3959 5.6809 17.0318 5.48347L16.3168 6.80211ZM5.38136 17.453C5.70237 17.7148 6.17481 17.6668 6.43659 17.3458C6.69837 17.0248 6.65036 16.5523 6.32936 16.2906L5.38136 17.453ZM11.5847 9.02889L11.4808 8.28611L11.5847 9.02889ZM9.96401 9.79666L10.473 10.3475L9.96401 9.79666ZM9.07088 11.3517L8.3386 11.1897L9.07088 11.3517ZM20.5014 3.53229C20.7954 3.24048 20.7972 2.76561 20.5054 2.47163C20.2136 2.17766 19.7387 2.1759 19.4447 2.46771L20.5014 3.53229ZM2.35249 19.434C2.05852 19.7258 2.05676 20.2007 2.34857 20.4947C2.64038 20.7887 3.11525 20.7904 3.40923 20.4986L2.35249 19.434ZM3.75 12.001C3.75072 11.4526 3.87694 10.9116 4.119 10.4194L2.77299 9.7574C2.42993 10.4549 2.25103 11.2217 2.25 11.999L3.75 12.001ZM4.11129 10.4347C5.63529 7.50651 8.68541 5.6926 11.9866 5.75139L12.0133 4.25163C8.14333 4.18271 4.56747 6.30915 2.78071 9.74215L4.11129 10.4347ZM4.119 13.5806C3.87694 13.0884 3.75072 12.5474 3.75 11.999L2.25 12.001C2.25103 12.7783 2.42993 13.5451 2.77299 14.2426L4.119 13.5806ZM12.0133 5.75139C13.5443 5.72412 15.021 6.09951 16.3168 6.80211L17.0318 5.48347C15.5128 4.6599 13.7812 4.21967 11.9866 4.25163L12.0133 5.75139ZM6.32936 16.2906C5.42791 15.5554 4.66793 14.6348 4.11129 13.5653L2.78071 14.2578C3.43314 15.5114 4.32437 16.591 5.38136 17.453L6.32936 16.2906ZM13.6922 8.6535C13.0098 8.30844 12.2382 8.18025 11.4808 8.28611L11.6885 9.77167C12.1429 9.70815 12.6059 9.78506 13.0153 9.9921L13.6922 8.6535ZM11.4808 8.28611C10.7235 8.39198 10.0166 8.72685 9.45501 9.24582L10.473 10.3475C10.81 10.0361 11.2341 9.83519 11.6885 9.77167L11.4808 8.28611ZM9.45501 9.24582C8.89338 9.76479 8.50384 10.4431 8.3386 11.1897L9.80316 11.5138C9.9023 11.0658 10.136 10.6589 10.473 10.3475L9.45501 9.24582ZM8.3386 11.1897C8.17336 11.9363 8.24033 12.7156 8.53052 13.4231L9.91831 12.8539C9.7442 12.4294 9.70402 11.9618 9.80316 11.5138L8.3386 11.1897ZM19.4447 2.46771L2.35249 19.434L3.40923 20.4986L20.5014 3.53229L19.4447 2.46771Z" fill="#4E5964"/>
</svg>
