<svg width="24" height="24" viewBox="0 0 24 24" fill="none" xmlns="http://www.w3.org/2000/svg">
<path d="M18.6953 7.61377C19.4352 8.31958 20.0667 9.15149 20.5544 10.0884C21.1491 11.2935 21.1491 12.7066 20.5544 13.9116C18.899 17.0922 15.586 19.0624 12.0004 18.9985C10.6129 19.0232 9.26626 18.7434 8.04066 18.2067M8.04066 18.2067C7.99438 18.1864 7.94827 18.1658 7.90234 18.1448L8.04066 18.2067Z" stroke="#4E5964" stroke-width="1.5" stroke-linecap="round" stroke-linejoin="round"/>
<path opacity="0.5" d="M14.9187 11.301C14.9722 11.5253 15.0006 11.7594 15.0006 12.0001C15.0006 13.6569 13.6574 15.0001 12.0006 15.0001C11.6874 15.0001 11.3854 14.9521 11.1016 14.8631" stroke="#4E5964" stroke-width="1.5" stroke-linecap="round"/>
<path opacity="0.4" d="M16.6743 6.14279C15.2669 5.3797 13.6628 4.9719 12 5.00151C8.41437 4.93765 5.10138 6.90783 3.446 10.0884C3.15344 10.6833 3.00088 11.3371 3 12C3.00088 12.6629 3.15344 13.3167 3.446 13.9116C4.05053 15.0731 4.87614 16.0732 5.85536 16.8718M13.3537 9.3228C12.8078 9.04675 12.1905 8.9442 11.5847 9.02889C10.9788 9.11359 10.4133 9.38148 9.96401 9.79666C9.51471 10.2118 9.20307 10.7544 9.07088 11.3517C8.93869 11.9491 8.99226 12.5725 9.22442 13.1385M19.9731 3L2.88086 19.9663" stroke="#4E5964" stroke-width="1.5" stroke-linecap="round"/>
</svg>
