<svg width="24" height="24" viewBox="0 0 24 24" fill="none" xmlns="http://www.w3.org/2000/svg">
<path d="M12 19.9982C15.984 20.0712 19.6651 17.8196 21.5044 14.1846C22.1652 12.8074 22.1652 11.1925 21.5044 9.81527C21.3626 9.53513 21.21 9.26321 21.047 8.99994M12 19.9982C11.7868 20.0021 11.5745 19.9994 11.3633 19.9901M12 19.9982L11.3633 19.9901M21.047 8.99994C20.8312 8.65109 20.5973 8.31742 20.3471 7.99994M21.047 8.99994L20.3471 7.99994M20.3471 7.99994C20.166 7.77011 19.9763 7.54876 19.7787 7.33627M19.7787 7.33627C19.5312 7.0701 19.2712 6.81783 19 6.58022M19.7787 7.33627L19 6.58022M19 6.58022L18.7953 6.40979M11.3633 19.9901C11.0733 19.9774 10.7853 19.9524 10.5 19.9155M10.5 19.9155C10.2157 19.8787 9.93414 19.8301 9.65583 19.7701M10.5 19.9155L9.65583 19.7701M9.65583 19.7701C9.31641 19.6968 8.98187 19.6066 8.6533 19.4999M8.6533 19.4999C8.50791 19.4528 8.36368 19.4024 8.22071 19.3488M8.6533 19.4999L8.22071 19.3488M8.22071 19.3488C8.01891 19.2733 7.81962 19.1914 7.62312 19.1035M7.62312 19.1035C7.43634 19.0199 7.25208 18.9308 7.07056 18.8363M7.62312 19.1035L7.07056 18.8363M7.07056 18.8363C6.87716 18.7357 6.68689 18.6289 6.5 18.5162" stroke="#4E5964" stroke-width="1.5" stroke-linecap="round" stroke-linejoin="round"/>
<path d="M11.739 14.2781C13.0625 14.4052 14.2335 13.4395 14.3606 12.116C14.3936 11.7725 14.3519 11.4393 14.2498 11.1322M11.739 14.2781C11.678 14.2722 11.6178 14.2641 11.5584 14.2539M11.739 14.2781L11.5584 14.2539M11.5584 14.2539C11.4442 14.2341 11.333 14.2064 11.2255 14.1714M11.2255 14.1714C11.1509 14.1471 11.078 14.1193 11.007 14.0882M11.2255 14.1714L11.007 14.0882M11.007 14.0882C10.9097 14.0455 10.816 13.9967 10.7263 13.9423M10.7263 13.9423C10.6169 13.8759 10.5134 13.8011 10.4168 13.7191L10.7263 13.9423ZM14.0338 10.6602C13.9706 10.5541 13.8995 10.4532 13.8213 10.3584L14.0338 10.6602ZM14.0338 10.6602C14.0819 10.7412 14.1255 10.8251 14.1642 10.9117M14.1642 10.9117C14.1962 10.9835 14.2248 11.057 14.2498 11.1322M14.1642 10.9117L14.2498 11.1322" stroke="#4E5964" stroke-width="1.5" stroke-linecap="square" stroke-linejoin="round"/>
<path opacity="0.64" d="M9.05282 11.4366C9.27909 10.2458 10.2093 9.30422 11.3941 9.06122M19 2L2 19M15.3444 4.49926C14.2798 4.15405 13.1525 3.98061 12 4.00172C8.01597 3.92875 4.33486 6.18038 2.49555 9.81533C2.17048 10.4951 2.00097 11.2424 2 12C2.00097 12.7576 2.17048 13.5049 2.49555 14.1847C2.82167 14.8292 3.20568 15.4302 3.63902 15.9824" stroke="#4E5964" stroke-width="1.5" stroke-linecap="round" stroke-linejoin="round"/>
</svg>
