<svg width="24" height="24" viewBox="0 0 24 24" fill="none" xmlns="http://www.w3.org/2000/svg">
<path d="M12 20.9982C15.984 21.0712 19.6651 18.8196 21.5044 15.1846C22.1652 13.8074 22.1652 12.1925 21.5044 10.8153C21.3626 10.5351 21.21 10.2632 21.047 9.99994M12 20.9982C11.7868 21.0021 11.5745 20.9994 11.3633 20.9901M12 20.9982L11.3633 20.9901M21.047 9.99994C20.8312 9.65109 20.5973 9.31742 20.3471 8.99994M21.047 9.99994L20.3471 8.99994M20.3471 8.99994C20.166 8.77011 19.9763 8.54876 19.7787 8.33627M19.7787 8.33627C19.5312 8.0701 19.2712 7.81783 19 7.58022M19.7787 8.33627L19 7.58022M19 7.58022L18.7953 7.40979M11.3633 20.9901C11.0733 20.9774 10.7853 20.9524 10.5 20.9155M10.5 20.9155C10.2157 20.8787 9.93414 20.8301 9.65583 20.7701M10.5 20.9155L9.65583 20.7701M9.65583 20.7701C9.31641 20.6968 8.98187 20.6066 8.6533 20.4999M8.6533 20.4999C8.50791 20.4528 8.36368 20.4024 8.22071 20.3488M8.6533 20.4999L8.22071 20.3488M8.22071 20.3488C8.01891 20.2733 7.81962 20.1914 7.62312 20.1035M7.62312 20.1035C7.43634 20.0199 7.25208 19.9308 7.07056 19.8363M7.62312 20.1035L7.07056 19.8363M7.07056 19.8363C6.87716 19.7357 6.68689 19.6289 6.5 19.5162" stroke="#4E5964" stroke-width="1.5" stroke-linecap="round" stroke-linejoin="round"/>
<path d="M11.739 15.2781C13.0625 15.4052 14.2335 14.4395 14.3606 13.116C14.3936 12.7725 14.3519 12.4393 14.2498 12.1322M11.739 15.2781C11.678 15.2722 11.6178 15.2641 11.5584 15.2539M11.739 15.2781L11.5584 15.2539M11.5584 15.2539C11.4442 15.2341 11.333 15.2064 11.2255 15.1714M11.2255 15.1714C11.1509 15.1471 11.078 15.1193 11.007 15.0882M11.2255 15.1714L11.007 15.0882M11.007 15.0882C10.9097 15.0455 10.816 14.9967 10.7263 14.9423M10.7263 14.9423C10.6169 14.8759 10.5134 14.8011 10.4168 14.7191L10.7263 14.9423ZM14.0338 11.6602C13.9706 11.5541 13.8995 11.4532 13.8213 11.3584L14.0338 11.6602ZM14.0338 11.6602C14.0819 11.7412 14.1255 11.8251 14.1642 11.9117M14.1642 11.9117C14.1962 11.9835 14.2248 12.057 14.2498 12.1322M14.1642 11.9117L14.2498 12.1322" stroke="#4E5964" stroke-width="1.5" stroke-linecap="square" stroke-linejoin="round"/>
<path opacity="0.4" d="M9.05282 12.4366C9.27909 11.2458 10.2093 10.3042 11.3941 10.0612M19 3L2 20M15.3444 5.49926C14.2798 5.15405 13.1525 4.98061 12 5.00172C8.01597 4.92875 4.33486 7.18038 2.49555 10.8153C2.17048 11.4951 2.00097 12.2424 2 13C2.00097 13.7576 2.17048 14.5049 2.49555 15.1847C2.82167 15.8292 3.20568 16.4302 3.63902 16.9824" stroke="#4E5964" stroke-width="1.5" stroke-linecap="round" stroke-linejoin="round"/>
</svg>
