<svg width="24" height="24" viewBox="0 0 24 24" fill="none" xmlns="http://www.w3.org/2000/svg">
<path d="M12 19.9982C15.984 20.0712 19.6651 17.8196 21.5044 14.1846C22.1652 12.8074 22.1652 11.1925 21.5044 9.81527C21.3626 9.53513 21.21 9.26321 21.047 8.99994M12 19.9982C11.7868 20.0021 11.5745 19.9994 11.3633 19.9901M12 19.9982L11.3633 19.9901M21.047 8.99994C20.8312 8.65109 20.5973 8.31742 20.3471 7.99994M21.047 8.99994L20.3471 7.99994M20.3471 7.99994C20.166 7.77011 19.9763 7.54876 19.7787 7.33628M19.7787 7.33628C19.5312 7.0701 19.2712 6.81783 19 6.58022M19.7787 7.33628L19 6.58022M19 6.58022L18.7953 6.40979M11.3633 19.9901C11.0733 19.9774 10.7853 19.9524 10.5 19.9155M10.5 19.9155C10.2157 19.8787 9.93414 19.8301 9.65583 19.7701M10.5 19.9155L9.65583 19.7701M9.65583 19.7701C9.31641 19.6968 8.98187 19.6066 8.6533 19.4999M8.6533 19.4999C8.50791 19.4528 8.36368 19.4024 8.22071 19.3488M8.6533 19.4999L8.22071 19.3488M8.22071 19.3488C8.01891 19.2733 7.81962 19.1914 7.62312 19.1035M7.62312 19.1035C7.43634 19.0199 7.25208 18.9308 7.07056 18.8363M7.62312 19.1035L7.07056 18.8363M7.07056 18.8363C6.87716 18.7357 6.68688 18.6289 6.5 18.5162" stroke="#4E5964" stroke-width="1.5" stroke-linecap="round" stroke-linejoin="round"/>
<path opacity="0.64" d="M2 12L1.25 11.999L1.25 12.001L2 12ZM2.49555 9.81533L1.82635 9.47671C1.82382 9.4817 1.82135 9.48673 1.81893 9.49178L2.49555 9.81533ZM12 4.00172L11.9862 4.7516C11.9954 4.75176 12.0046 4.75176 12.0137 4.7516L12 4.00172ZM21.5044 9.81533L22.1806 9.49088C22.1783 9.48613 22.176 9.48141 22.1736 9.47671L21.5044 9.81533ZM21.5044 14.1847L22.1736 14.5233C22.176 14.5186 22.1783 14.5139 22.1806 14.5091L21.5044 14.1847ZM12 19.9983L12.0137 19.2484L12.0095 19.2483L12 19.9983ZM2.49555 14.1847L1.81893 14.5082C1.82135 14.5133 1.82382 14.5183 1.82635 14.5233L2.49555 14.1847ZM21.047 9L21.6848 8.60533L21.6848 8.60533L21.047 9ZM20.3471 8L20.9362 7.53579L20.3471 8ZM19 6.58028L19.4942 6.01616C19.4895 6.01201 19.4847 6.00792 19.4799 6.00389L19 6.58028ZM15.721 5.43283C16.1054 5.58694 16.542 5.40019 16.6962 5.01572C16.8503 4.63124 16.6635 4.19463 16.279 4.04051L15.721 5.43283ZM11.3633 19.9902L11.3305 20.7395H11.3305L11.3633 19.9902ZM8.6533 19.5L8.4218 20.2134H8.4218L8.6533 19.5ZM8.22071 19.3489L7.95771 20.0513H7.95771L8.22071 19.3489ZM6.8873 17.874C6.53259 17.6601 6.07164 17.7743 5.85774 18.129C5.64384 18.4837 5.75799 18.9446 6.1127 19.1585L6.8873 17.874ZM3.57678 17.0707C3.8551 17.3775 4.32941 17.4006 4.63619 17.1223C4.94296 16.844 4.96604 16.3696 4.68772 16.0629L3.57678 17.0707ZM19.2752 5.83346C18.9568 5.56843 18.4839 5.61165 18.2189 5.92998C17.9539 6.24832 17.9971 6.72122 18.3154 6.98624L19.2752 5.83346ZM19.5303 2.53033C19.8232 2.23744 19.8232 1.76256 19.5303 1.46967C19.2374 1.17678 18.7626 1.17678 18.4697 1.46967L19.5303 2.53033ZM1.46967 18.4697C1.17678 18.7626 1.17678 19.2374 1.46967 19.5303C1.76256 19.8232 2.23744 19.8232 2.53033 19.5303L1.46967 18.4697ZM9.75 12C9.75 10.7574 10.7574 9.75 12 9.75V8.25C9.92893 8.25 8.25 9.92893 8.25 12H9.75ZM2.75 12.001C2.75083 11.3544 2.89554 10.7174 3.17218 10.1389L1.81893 9.49178C1.44543 10.2729 1.25112 11.1304 1.25 11.999L2.75 12.001ZM3.16476 10.1539C4.87788 6.76839 8.29806 4.68404 11.9862 4.7516L12.0137 3.25185C7.73387 3.17345 3.79185 5.59237 1.82635 9.47671L3.16476 10.1539ZM20.8282 10.1398C21.3906 11.3119 21.3906 12.6881 20.8282 13.8602L22.1806 14.5091C22.9398 12.9268 22.9398 11.0732 22.1806 9.49088L20.8282 10.1398ZM20.8352 13.8461C19.1221 17.2316 15.7019 19.316 12.0137 19.2484L11.9862 20.7482C16.2661 20.8265 20.2081 18.4076 22.1736 14.5233L20.8352 13.8461ZM3.17218 13.8611C2.89554 13.2826 2.75083 12.6456 2.75 11.999L1.25 12.001C1.25112 12.8696 1.44543 13.7271 1.81893 14.5082L3.17218 13.8611ZM20.4093 9.39467C20.5609 9.63974 20.7031 9.89296 20.8352 10.1539L22.1736 9.47671C22.0222 9.17742 21.859 8.8868 21.6848 8.60533L20.4093 9.39467ZM19.758 8.46421C19.9907 8.75949 20.2083 9.06995 20.4093 9.39467L21.6848 8.60533C21.454 8.23236 21.2039 7.87548 20.9362 7.53579L19.758 8.46421ZM21.6615 8.56994L20.9616 7.56994L19.7327 8.43006L20.4326 9.43006L21.6615 8.56994ZM19.2295 7.84708C19.4132 8.04462 19.5896 8.25044 19.758 8.46421L20.9362 7.53579C20.7424 7.2899 20.5395 7.05302 20.3279 6.82559L19.2295 7.84708ZM18.5058 7.1444C18.7578 7.36518 18.9994 7.59964 19.2295 7.84708L20.3279 6.82559C20.063 6.54069 19.7847 6.27061 19.4942 6.01616L18.5058 7.1444ZM20.3012 6.79823L19.5224 6.04217L18.4776 7.11839L19.2563 7.87444L20.3012 6.79823ZM12.0137 4.7516C13.3038 4.72797 14.5596 4.96729 15.721 5.43283L16.279 4.04051C14.9353 3.50189 13.4806 3.22447 11.9862 3.25185L12.0137 4.7516ZM11.9862 19.2484C11.7886 19.252 11.5919 19.2495 11.3962 19.2409L11.3305 20.7395C11.5571 20.7494 11.785 20.7523 12.0137 20.7482L11.9862 19.2484ZM12.0095 19.2483L11.3729 19.2402L11.3538 20.7401L11.9904 20.7482L12.0095 19.2483ZM11.3962 19.2409C11.1274 19.2291 10.8605 19.2059 10.5962 19.1717L10.4038 20.6593C10.71 20.699 11.0191 20.7258 11.3305 20.7395L11.3962 19.2409ZM10.5962 19.1717C10.3328 19.1377 10.0719 19.0926 9.81401 19.037L9.49765 20.5033C9.79637 20.5677 10.0986 20.6199 10.4038 20.6593L10.5962 19.1717ZM10.6273 19.1764L9.78315 19.031L9.5285 20.5092L10.3727 20.6547L10.6273 19.1764ZM9.81401 19.037C9.49948 18.9691 9.18941 18.8855 8.88481 18.7866L8.4218 20.2134C8.77434 20.3278 9.13335 20.4247 9.49765 20.5033L9.81401 19.037ZM8.88481 18.7866C8.75001 18.7429 8.61628 18.6962 8.48372 18.6465L7.95771 20.0513C8.11107 20.1087 8.2658 20.1628 8.4218 20.2134L8.88481 18.7866ZM8.90062 18.792L8.46803 18.6408L7.97339 20.0569L8.40598 20.208L8.90062 18.792ZM8.48372 18.6465C8.29659 18.5765 8.11176 18.5006 7.92948 18.419L7.31675 19.7881C7.52748 19.8824 7.74123 19.9702 7.95771 20.0513L8.48372 18.6465ZM7.92948 18.419C7.75622 18.3414 7.58527 18.2588 7.41683 18.1711L6.72428 19.5017C6.91889 19.603 7.11646 19.6985 7.31675 19.7881L7.92948 18.419ZM7.94959 18.4283L7.39703 18.1612L6.74408 19.5116L7.29664 19.7788L7.94959 18.4283ZM7.41683 18.1711C7.23738 18.0777 7.06078 17.9786 6.8873 17.874L6.1127 19.1585C6.31299 19.2793 6.51695 19.3937 6.72428 19.5017L7.41683 18.1711ZM4.68772 16.0629C4.09383 15.4082 3.57931 14.6653 3.16476 13.8461L1.82635 14.5233C2.30183 15.463 2.89297 16.317 3.57678 17.0707L4.68772 16.0629ZM19.4799 6.00389L19.2752 5.83346L18.3154 6.98624L18.5201 7.15667L19.4799 6.00389ZM18.4697 1.46967L1.46967 18.4697L2.53033 19.5303L19.5303 2.53033L18.4697 1.46967Z" fill="#4E5964"/>
<path d="M11.7385 14.2785C13.062 14.4056 14.233 13.4398 14.3601 12.1163C14.3931 11.7729 14.3514 11.4396 14.2493 11.1325M11.7385 14.2785C11.6776 14.2726 11.6173 14.2645 11.5579 14.2542M11.7385 14.2785L11.5579 14.2542M11.5579 14.2542C11.4437 14.2345 11.3325 14.2068 11.225 14.1717M11.225 14.1717C11.1504 14.1475 11.0775 14.1196 11.0065 14.0885M11.225 14.1717L11.0065 14.0885M11.0065 14.0885C10.9092 14.0459 10.8155 13.9971 10.7258 13.9427M10.7258 13.9427C10.6164 13.8763 10.5129 13.8015 10.4163 13.7194L10.7258 13.9427ZM14.0333 10.6606C13.9701 10.5544 13.899 10.4535 13.8208 10.3587L14.0333 10.6606ZM14.0333 10.6606C14.0815 10.7415 14.1251 10.8255 14.1637 10.9121M14.1637 10.9121C14.1957 10.9839 14.2243 11.0574 14.2493 11.1325M14.1637 10.9121L14.2493 11.1325" stroke="#4E5964" stroke-width="1.5" stroke-linecap="square" stroke-linejoin="round"/>
<path d="M11.7385 14.2785C13.062 14.4056 14.233 13.4398 14.3601 12.1163C14.3931 11.7729 14.3514 11.4396 14.2493 11.1325M11.7385 14.2785C11.6776 14.2726 11.6173 14.2645 11.5579 14.2542M11.7385 14.2785L11.5579 14.2542M11.5579 14.2542C11.4437 14.2345 11.3325 14.2068 11.225 14.1717M11.225 14.1717C11.1504 14.1475 11.0775 14.1196 11.0065 14.0885M11.225 14.1717L11.0065 14.0885M11.0065 14.0885C10.9092 14.0459 10.8155 13.9971 10.7258 13.9427M10.7258 13.9427C10.6164 13.8763 10.5129 13.8015 10.4163 13.7194L10.7258 13.9427ZM14.0333 10.6606C13.9701 10.5544 13.899 10.4535 13.8208 10.3587L14.0333 10.6606ZM14.0333 10.6606C14.0815 10.7415 14.1251 10.8255 14.1637 10.9121M14.1637 10.9121C14.1957 10.9839 14.2243 11.0574 14.2493 11.1325M14.1637 10.9121L14.2493 11.1325" stroke="#4E5964" stroke-width="1.5" stroke-linecap="square" stroke-linejoin="round"/>
</svg>
