<svg width="24" height="24" viewBox="0 0 24 24" fill="none" xmlns="http://www.w3.org/2000/svg">
<path d="M10 5L21 5" stroke="#4E5964" stroke-width="1.5" stroke-linecap="round"/>
<path d="M17 12L21 12" stroke="#4E5964" stroke-width="1.5" stroke-linecap="round"/>
<path d="M10 19L21 19" stroke="#4E5964" stroke-width="1.5" stroke-linecap="round"/>
<path d="M3 12L10 12" stroke="#4E5964" stroke-width="1.5" stroke-linecap="round"/>
<path opacity="0.4" d="M3 4.25C2.58579 4.25 2.25 4.58579 2.25 5C2.25 5.41421 2.58579 5.75 3 5.75L3 5L3 4.25ZM3 5L3 5.75L5 5.75V5L5 4.25L3 4.25L3 5ZM6 3V3.75H7V3V2.25H6V3ZM8 4H7.25V6H8H8.75V4H8ZM7 7V6.25H6V7V7.75H7V7ZM5 6H5.75V4H5H4.25V6H5ZM6 7V6.25C5.86193 6.25 5.75 6.13807 5.75 6H5H4.25C4.25 6.9665 5.0335 7.75 6 7.75V7ZM8 6H7.25C7.25 6.13807 7.13807 6.25 7 6.25V7V7.75C7.9665 7.75 8.75 6.9665 8.75 6H8ZM7 3V3.75C7.13807 3.75 7.25 3.86193 7.25 4H8H8.75C8.75 3.0335 7.9665 2.25 7 2.25V3ZM6 3V2.25C5.0335 2.25 4.25 3.0335 4.25 4H5H5.75C5.75 3.86193 5.86193 3.75 6 3.75V3Z" fill="#4E5964"/>
<rect opacity="0.4" x="12" y="10" width="3" height="4" rx="1" stroke="#4E5964" stroke-width="1.5"/>
<path opacity="0.4" d="M3 18.25C2.58579 18.25 2.25 18.5858 2.25 19C2.25 19.4142 2.58579 19.75 3 19.75L3 19L3 18.25ZM3 19L3 19.75L5 19.75V19L5 18.25L3 18.25L3 19ZM6 17V17.75H7V17V16.25H6V17ZM8 18H7.25V20H8H8.75V18H8ZM7 21V20.25H6V21V21.75H7V21ZM5 20H5.75V18H5H4.25V20H5ZM6 21V20.25C5.86193 20.25 5.75 20.1381 5.75 20H5H4.25C4.25 20.9665 5.0335 21.75 6 21.75V21ZM8 20H7.25C7.25 20.1381 7.13807 20.25 7 20.25V21V21.75C7.9665 21.75 8.75 20.9665 8.75 20H8ZM7 17V17.75C7.13807 17.75 7.25 17.8619 7.25 18H8H8.75C8.75 17.0335 7.9665 16.25 7 16.25V17ZM6 17V16.25C5.0335 16.25 4.25 17.0335 4.25 18H5H5.75C5.75 17.8619 5.86193 17.75 6 17.75V17Z" fill="#4E5964"/>
</svg>
