<svg width="24" height="24" viewBox="0 0 24 24" fill="none" xmlns="http://www.w3.org/2000/svg">
<path d="M7.54124 19.6C6.54943 18.5072 6 17.0842 6 15.6085V10C6 6.68629 8.68629 4 12 4C15.3137 4 18 6.68629 18 10V10.1214" stroke="#4E5964" stroke-width="1.5" stroke-linecap="round"/>
<path opacity="0.4" d="M9.33398 16.2428V10.3395C9.33398 8.86676 10.5279 7.67285 12.0007 7.67285C13.4734 7.67285 14.6673 8.86676 14.6673 10.3395V14.5762C14.6673 15.4967 15.4135 16.2428 16.334 16.2428C17.2545 16.2428 18.0007 15.4967 18.0007 14.5762V10.1214" stroke="#4E5964" stroke-width="1.5" stroke-linecap="round"/>
<path opacity="0.4" d="M5.01748 21.4305C3.86114 20.8878 2.52282 19.1926 2.85209 16.6804" stroke="#4E5964" stroke-width="1.5" stroke-linecap="round"/>
<path opacity="0.4" d="M19.0427 2.9999C20.12 3.47814 21.3876 5.01616 21.1326 7.34031" stroke="#4E5964" stroke-width="1.5" stroke-linecap="round"/>
<path opacity="0.4" d="M12 15.8V10.8" stroke="#4E5964" stroke-width="1.5" stroke-linecap="round"/>
</svg>
