<svg width="24" height="24" viewBox="0 0 24 24" fill="none" xmlns="http://www.w3.org/2000/svg">
<path d="M17.5 5.5H17.625H17.75H17.875H18H18.5" stroke="#4E5964" stroke-width="1.5" stroke-linecap="round"/>
<path d="M18 6V7.75V9.5V11.25V13V20" stroke="#4E5964" stroke-width="1.5" stroke-linecap="round"/>
<path d="M6 6V7.75V9.5V11.25V13V20" stroke="#4E5964" stroke-width="1.5" stroke-linecap="round"/>
<path d="M5.5 5.5H5.625H5.75H5.875H6H6.5" stroke="#4E5964" stroke-width="1.5" stroke-linecap="round"/>
<path opacity="0.4" d="M9 5.5V4C9 3.44772 9.44772 3 10 3H14C14.5523 3 15 3.44772 15 4V5.5" stroke="#4E5964" stroke-width="1.5" stroke-linecap="round"/>
<path opacity="0.4" d="M9 13.5032H15M11.998 16.5029V10.5029" stroke="#4E5964" stroke-width="1.5" stroke-linecap="round" stroke-linejoin="round"/>
<path opacity="0.4" d="M7 21H17C19.2091 21 21 19.2091 21 17V13.5V9C21 7.34315 19.6569 6 18 6H12H6C4.34315 6 3 7.34315 3 9V17C3 19.2091 4.79086 21 7 21Z" stroke="#4E5964" stroke-width="1.5" stroke-linecap="round"/>
</svg>
