<svg width="24" height="24" viewBox="0 0 24 24" fill="none" xmlns="http://www.w3.org/2000/svg">
<path d="M10.5 21H7.5C5.01472 21 3 18.9853 3 16.5V13.9286V6.85714V5.8125C3 4.2592 4.2592 3 5.8125 3V3H7.32296C8.75679 3 9.89276 4.02835 10.6434 5.25V5.25C11.0734 5.9498 11.3046 6.42005 12 6.85714C13.0877 7.54086 15.5536 7.68013 17.6297 7.66016C19.4407 7.64274 21 9.06385 21 10.875V10.875V12V14.25" stroke="#4E5964" stroke-width="1.5" stroke-linecap="round"/>
<path opacity="0.4" d="M3 11H21" stroke="#4E5964" stroke-width="1.5" stroke-linecap="round"/>
<path opacity="0.4" d="M19.5 17.7273C19.5 17.4966 19.3063 15 17 15C14.6937 15 14.5 17.4966 14.5 17.7273C14.5 17.9579 13 17.9982 13 19.6126C13 20.6939 13.7178 20.9435 14.1919 20.9904C14.4631 21.0173 14.7368 20.9875 15.0094 20.9875H15.4H18.9906C19.2632 20.9875 19.5369 21.0173 19.8081 20.9904C20.2822 20.9435 21 20.6939 21 19.6126C21 17.9982 19.5 17.9579 19.5 17.7273Z" stroke="#4E5964" stroke-width="1.5" stroke-linecap="round" stroke-linejoin="round"/>
</svg>
