<svg width="24" height="24" viewBox="0 0 24 24" fill="none" xmlns="http://www.w3.org/2000/svg">
<line opacity="0.4" x1="9.75" y1="7.25" x2="16.25" y2="7.25" stroke="#4E5964" stroke-width="1.5" stroke-linecap="round"/>
<line opacity="0.4" x1="9.75" y1="10.25" x2="14.25" y2="10.25" stroke="#4E5964" stroke-width="1.5" stroke-linecap="round"/>
<line opacity="0.4" x1="9.75" y1="13.25" x2="11.25" y2="13.25" stroke="#4E5964" stroke-width="1.5" stroke-linecap="round"/>
<path d="M5 18V7.5C5 5.01472 6.89621 3 9.23529 3H16.7647C19.1038 3 21 5.01472 21 7.5V17.0615C21 17.9477 20.7228 18.8087 20.212 19.5092L20.1397 19.6085C19.7229 20.18 19.1536 20.6045 18.506 20.8265C18.1707 20.9415 17.8206 21 17.4683 21H13M3 19.5C3 20.3284 3.67157 21 4.5 21H15.5C16.3284 21 17 20.3284 17 19.5C17 18.6716 16.3284 18 15.5 18H4.5C3.67157 18 3 18.6716 3 19.5Z" stroke="#4E5964" stroke-width="1.5"/>
</svg>
