<svg width="24" height="24" viewBox="0 0 24 24" fill="none" xmlns="http://www.w3.org/2000/svg">
<path d="M5 17.4V16.8857V7C5 4.79086 6.79086 3 9 3H17C19.2091 3 21 4.79086 21 7V17.8348C21 18.2272 20.927 18.6162 20.7848 18.982V18.982C20.3116 20.1986 19.1402 21 17.8348 21H15.5" stroke="#4E5964" stroke-width="1.5"/>
<path opacity="0.4" d="M11 7.07156L15.0461 7.00014C15.526 6.99167 15.9217 7.38173 15.93 7.87137L16 12M10 13.2522L15.2512 7.49835" stroke="#4E5964" stroke-width="1.5" stroke-linecap="round" stroke-linejoin="round"/>
<path opacity="0.4" d="M3 19.5C3 18.6716 3.67157 18 4.5 18H15.5C16.3284 18 17 18.6716 17 19.5V19.5C17 20.3284 16.3284 21 15.5 21H4.5C3.67157 21 3 20.3284 3 19.5V19.5Z" stroke="#4E5964" stroke-width="1.5"/>
</svg>
