<svg width="24" height="24" viewBox="0 0 24 24" fill="none" xmlns="http://www.w3.org/2000/svg">
<path d="M21 16.1259V7.5C21 5.01472 18.9853 3 16.5 3H8.5C6.01472 3 4 5.01472 4 7.5V9.94286" stroke="#4E5964" stroke-width="1.5"/>
<line opacity="0.4" x1="8.75" y1="7.25" x2="15.25" y2="7.25" stroke="#4E5964" stroke-width="1.5" stroke-linecap="round"/>
<line opacity="0.4" x1="8.75" y1="10.25" x2="13.25" y2="10.25" stroke="#4E5964" stroke-width="1.5" stroke-linecap="round"/>
<line opacity="0.4" x1="8.75" y1="13.25" x2="10.25" y2="13.25" stroke="#4E5964" stroke-width="1.5" stroke-linecap="round"/>
<path opacity="0.4" d="M12.5 21H17.2475C17.6219 21 17.9939 20.9415 18.3502 20.8265C19.0382 20.6045 19.6431 20.18 20.0859 19.6085L20.1628 19.5093C20.7055 18.8087 21 17.9477 21 17.0615V16M4 9.94287V16.8857M3 19C3 20.1046 3.89543 21 5 21H15C16.1046 21 17 20.1046 17 19C17 17.8954 16.1046 17 15 17H5C3.89543 17 3 17.8954 3 19Z" stroke="#4E5964" stroke-width="1.5"/>
</svg>
