<svg width="24" height="24" viewBox="0 0 24 24" fill="none" xmlns="http://www.w3.org/2000/svg">
<path opacity="0.4" d="M6 11H10M8 13V9" stroke="#4E5964" stroke-width="1.5" stroke-linecap="round" stroke-linejoin="round"/>
<path opacity="0.4" d="M17.765 11.2354C17.911 11.3814 17.911 11.6194 17.765 11.7654C17.619 11.9114 17.381 11.9114 17.235 11.7654C17.089 11.6194 17.089 11.3814 17.235 11.2354C17.381 11.0884 17.618 11.0884 17.765 11.2354" stroke="#4E5964" stroke-width="1.4837" stroke-linecap="round" stroke-linejoin="round"/>
<path opacity="0.4" d="M13.765 11.2354C13.911 11.3814 13.911 11.6194 13.765 11.7654C13.619 11.9114 13.381 11.9114 13.235 11.7654C13.089 11.6194 13.089 11.3814 13.235 11.2354C13.381 11.0884 13.618 11.0884 13.765 11.2354" stroke="#4E5964" stroke-width="1.4837" stroke-linecap="round" stroke-linejoin="round"/>
<path opacity="0.4" d="M15.765 9.23538C15.911 9.38137 15.911 9.61938 15.765 9.76538C15.619 9.91138 15.381 9.91138 15.235 9.76538C15.089 9.61938 15.089 9.38137 15.235 9.23538C15.381 9.08838 15.618 9.08838 15.765 9.23538" stroke="#4E5964" stroke-width="1.4837" stroke-linecap="round" stroke-linejoin="round"/>
<path opacity="0.4" d="M15.765 13.2354C15.911 13.3814 15.911 13.6194 15.765 13.7654C15.619 13.9114 15.381 13.9114 15.235 13.7654C15.089 13.6194 15.089 13.3814 15.235 13.2354C15.381 13.0884 15.618 13.0884 15.765 13.2354" stroke="#4E5964" stroke-width="1.4837" stroke-linecap="round" stroke-linejoin="round"/>
<path d="M12.6175 6.00765C12.758 3.96688 12.7538 4.02519 11.3277 3.25719" stroke="#4E5964" stroke-width="1.5" stroke-linecap="round"/>
<path d="M21 11.5V18.4869C21 19.4243 20.3908 20.2529 19.4961 20.5325C18.6051 20.8109 17.6364 20.4806 17.1011 19.7159L15.0972 16.8531C14.7229 16.3184 14.1113 16 13.4587 16H10.5413C9.88868 16 9.2771 16.3184 8.90285 16.8531L6.75664 19.9191C6.30604 20.5628 5.49062 20.8408 4.74064 20.6065C3.70509 20.2828 3 19.3238 3 18.2388V11.5C3 8.46243 5.46243 6 8.5 6H15.5C18.5376 6 21 8.46243 21 11.5Z" stroke="#4E5964" stroke-width="1.5"/>
</svg>
