<svg width="24" height="24" viewBox="0 0 24 24" fill="none" xmlns="http://www.w3.org/2000/svg">
<path opacity="0.4" d="M10.0299 4.05932C10.122 3.65548 9.86932 3.25343 9.46548 3.16132C9.06163 3.06921 8.65959 3.32192 8.56748 3.72576L9.2987 3.89254L10.0299 4.05932ZM8.5711 20.2809C8.66339 20.6847 9.06555 20.9373 9.46935 20.845C9.87315 20.7527 10.1257 20.3506 10.0334 19.9468L9.30225 20.1138L8.5711 20.2809ZM15.437 3.72426C15.3447 3.32046 14.9425 3.06792 14.5387 3.16021C14.1349 3.25249 13.8824 3.65465 13.9747 4.05845L14.7058 3.89136L15.437 3.72426ZM13.9781 19.9459C13.886 20.3497 14.1387 20.7518 14.5426 20.8439C14.9464 20.936 15.3485 20.6833 15.4406 20.2794L14.7094 20.1127L13.9781 19.9459ZM9.2987 3.89254L8.56748 3.72576C7.34199 9.09882 7.34326 14.9084 8.5711 20.2809L9.30225 20.1138L10.0334 19.9468C8.85578 14.794 8.85456 9.21261 10.0299 4.05932L9.2987 3.89254ZM14.7058 3.89136L13.9747 4.05845C15.1523 9.21123 15.1535 14.7926 13.9781 19.9459L14.7094 20.1127L15.4406 20.2794C16.6661 14.9064 16.6648 9.09678 15.437 3.72426L14.7058 3.89136ZM2.99219 12.0046L2.99235 12.7546L21.016 12.7506L21.0159 12.0006L21.0157 11.2506L2.99202 11.2546L2.99219 12.0046ZM3.89238 7.49846L3.89255 8.24846L20.1139 8.24491L20.1137 7.49491L20.1135 6.74491L3.89222 6.74846L3.89238 7.49846ZM3.89436 16.5103L3.89452 17.2603L20.1158 17.2567L20.1157 16.5067L20.1155 15.7567L3.89419 15.7603L3.89436 16.5103Z" fill="#4E5964"/>
<rect x="2.99023" y="2.99268" width="18.0237" height="18.0237" rx="9.01184" stroke="#4E5964" stroke-width="1.5"/>
</svg>
