<svg width="25" height="24" viewBox="0 0 25 24" fill="none" xmlns="http://www.w3.org/2000/svg">
<path opacity="0.4" d="M10.0416 4.05932C10.1337 3.65548 9.88104 3.25343 9.47719 3.16132C9.07335 3.06921 8.6713 3.32192 8.5792 3.72576L10.0416 4.05932ZM8.58282 20.2809C8.67511 20.6847 9.07726 20.9373 9.48107 20.845C9.88487 20.7527 10.1374 20.3506 10.0451 19.9468L8.58282 20.2809ZM15.4487 3.72426C15.3564 3.32046 14.9542 3.06792 14.5504 3.16021C14.1466 3.25249 13.8941 3.65465 13.9864 4.05845L15.4487 3.72426ZM13.9899 19.9459C13.8977 20.3497 14.1505 20.7518 14.5543 20.8439C14.9581 20.936 15.3602 20.6833 15.4523 20.2794L13.9899 19.9459ZM8.5792 3.72576C7.35371 9.09882 7.35498 14.9084 8.58282 20.2809L10.0451 19.9468C8.8675 14.794 8.86628 9.21261 10.0416 4.05932L8.5792 3.72576ZM13.9864 4.05845C15.164 9.21123 15.1652 14.7926 13.9899 19.9459L15.4523 20.2794C16.6778 14.9064 16.6765 9.09678 15.4487 3.72426L13.9864 4.05845ZM3.00407 12.7546L21.0277 12.7506L21.0274 11.2506L3.00374 11.2546L3.00407 12.7546ZM3.90427 8.24846L20.1256 8.24491L20.1252 6.74491L3.90394 6.74846L3.90427 8.24846ZM3.90624 17.2603L20.1276 17.2567L20.1272 15.7567L3.90591 15.7603L3.90624 17.2603Z" fill="#4E5964"/>
<rect x="3.00195" y="2.99268" width="18.0237" height="18.0237" rx="9.01184" stroke="#4E5964" stroke-width="1.5"/>
</svg>
