<svg width="24" height="24" viewBox="0 0 24 24" fill="none" xmlns="http://www.w3.org/2000/svg">
<path d="M6 9.5V6.5C6 6.02656 5.296 5.61183 4.99298 5.32232C4.18008 4.54567 3 5.26029 3 6.53034V14.4305C3 16.2881 5.03812 17.8701 6.0773 18.556C6.4334 18.791 6.6715 19.2426 6.6715 19.7416C6.6715 20.4366 7.12724 21 7.68943 21H9.22222C10.2041 21 11 20.016 11 18.8023V16.6884C11 16.0636 10.7849 15.4683 10.4085 15.0514L6 9.5ZM6 9.5V13.5" stroke="#4E5964" stroke-width="1.5" stroke-linecap="round"/>
<path d="M18 9.5V6.5C18 6.02656 18.704 5.61183 19.007 5.32232C19.8199 4.54567 21 5.26029 21 6.53034V14.4305C21 16.2881 18.9619 17.8701 17.9227 18.556C17.5666 18.791 17.3285 19.2426 17.3285 19.7416C17.3285 20.4366 16.8728 21 16.3106 21H14.7778C13.7959 21 13 20.016 13 18.8023V16.6884C13 16.0636 13.2151 15.4683 13.5915 15.0514L18 9.5ZM18 9.5V13.5" stroke="#4E5964" stroke-width="1.5" stroke-linecap="round"/>
<path opacity="0.4" fill-rule="evenodd" clip-rule="evenodd" d="M15.3505 3.70844C15.7664 4.16202 16 4.77719 16 5.41864C16 6.06009 15.7664 6.67526 15.3505 7.12883L13.2256 9.44629C12.9006 9.80082 12.4597 10 12 10C11.5403 10 11.0994 9.80082 10.7743 9.44629L8.6495 7.12879C8.23363 6.67522 8 6.06004 8 5.4186C8 4.77715 8.23363 4.16197 8.6495 3.7084C9.51549 2.76393 10.9195 2.76393 11.7855 3.7084L11.9999 3.94228L12.2144 3.7084C12.6302 3.25481 13.1943 2.99999 13.7824 3C14.3706 3.00001 14.9346 3.25484 15.3505 3.70844Z" stroke="#4E5964" stroke-width="1.5" stroke-linecap="round" stroke-linejoin="round"/>
</svg>
