<svg width="24" height="24" viewBox="0 0 24 24" fill="none" xmlns="http://www.w3.org/2000/svg">
<circle opacity="0.4" cx="12.0027" cy="6.5999" r="2.7" stroke="#4E5964" stroke-width="1.5"/>
<circle opacity="0.4" cx="5.70234" cy="7.49995" r="1.8" stroke="#4E5964" stroke-width="1.5"/>
<circle opacity="0.4" cx="1.8" cy="1.8" r="1.8" transform="matrix(-1 0 0 1 20.1016 5.69995)" stroke="#4E5964" stroke-width="1.5"/>
<path d="M6.93945 14.5312C6.93945 13.1333 8.07273 12 9.4707 12V12H14.5332V12C15.9312 12 17.0645 13.1333 17.0645 14.5312V16.05C17.0645 18.2868 15.2512 20.1 13.0145 20.1H10.9895C8.7527 20.1 6.93945 18.2868 6.93945 16.05V14.5312Z" stroke="#4E5964" stroke-width="1.5"/>
<path opacity="0.4" d="M5.5332 12V12C4.13523 12 3.00195 13.1333 3.00195 14.5312V17.4C3.00195 18.8912 4.21078 20.1 5.70195 20.1V20.1H6.15195" stroke="#4E5964" stroke-width="1.5" stroke-linecap="round"/>
<path opacity="0.4" d="M18.4707 12V12C19.8687 12 21.002 13.1333 21.002 14.5312V17.4C21.002 18.8912 19.7931 20.1 18.302 20.1V20.1H17.852" stroke="#4E5964" stroke-width="1.5" stroke-linecap="round"/>
</svg>
