<svg width="24" height="24" viewBox="0 0 24 24" fill="none" xmlns="http://www.w3.org/2000/svg">
<circle opacity="0.4" cx="12.0008" cy="6.5999" r="2.7" stroke="#4E5964" stroke-width="1.5"/>
<circle opacity="0.4" cx="5.70039" cy="7.49995" r="1.8" stroke="#4E5964" stroke-width="1.5"/>
<circle opacity="0.4" cx="1.8" cy="1.8" r="1.8" transform="matrix(-1 0 0 1 20.0996 5.69995)" stroke="#4E5964" stroke-width="1.5"/>
<path d="M6.9375 14.5312C6.9375 13.1333 8.07078 12 9.46875 12H14.5312C15.9292 12 17.0625 13.1333 17.0625 14.5312V16.05C17.0625 18.2868 15.2493 20.1 13.0125 20.1H10.9875C8.75075 20.1 6.9375 18.2868 6.9375 16.05V14.5312Z" stroke="#4E5964" stroke-width="1.5"/>
<path opacity="0.4" d="M5.53125 12C4.13328 12 3 13.1333 3 14.5312V17.4C3 18.8912 4.20883 20.1 5.7 20.1H6.15" stroke="#4E5964" stroke-width="1.5" stroke-linecap="round"/>
<path opacity="0.4" d="M18.4687 12C19.8667 12 21 13.1333 21 14.5312V17.4C21 18.8912 19.7912 20.1 18.3 20.1H17.85" stroke="#4E5964" stroke-width="1.5" stroke-linecap="round"/>
</svg>
