<svg width="24" height="24" viewBox="0 0 24 24" fill="none" xmlns="http://www.w3.org/2000/svg">
<rect x="3" y="3" width="18" height="18" rx="4.5" stroke="#4E5964" stroke-width="1.5"/>
<path opacity="0.4" d="M14.7799 10.2688C14.9369 10.4258 14.9369 10.6818 14.7799 10.8389C14.6228 10.9959 14.3668 10.9959 14.2098 10.8389C14.0528 10.6818 14.0528 10.4258 14.2098 10.2688C14.3668 10.1107 14.6218 10.1107 14.7799 10.2688" stroke="#4E5964" stroke-width="1.5" stroke-linecap="round" stroke-linejoin="round"/>
<path opacity="0.4" d="M9.77989 10.2688C9.93693 10.4258 9.93693 10.6818 9.77989 10.8389C9.62285 10.9959 9.36685 10.9959 9.2098 10.8389C9.05276 10.6818 9.05276 10.4258 9.2098 10.2688C9.36685 10.1107 9.62177 10.1107 9.77989 10.2688" stroke="#4E5964" stroke-width="1.5" stroke-linecap="round" stroke-linejoin="round"/>
<path opacity="0.4" d="M8.45703 17.0166C8.45703 17.0166 9.77003 15.7046 11.957 15.7046C14.145 15.7046 15.457 17.0166 15.457 17.0166" stroke="#4E5964" stroke-width="1.5" stroke-linecap="round" stroke-linejoin="round"/>
<path opacity="0.4" d="M8 7.30762C8 7.30762 8.17943 7.25295 8.47829 7.16189C8.77729 7.07079 9.91317 6.7247 9.91317 6.7247" stroke="#4E5964" stroke-width="1.5" stroke-linecap="round" stroke-linejoin="round"/>
<path opacity="0.4" d="M14 6.72461C14 6.72461 14.1794 6.77929 14.4783 6.87038C14.7773 6.9615 15.9131 7.30768 15.9131 7.30768" stroke="#4E5964" stroke-width="1.5" stroke-linecap="round" stroke-linejoin="round"/>
</svg>
