<svg width="24" height="24" viewBox="0 0 24 24" fill="none" xmlns="http://www.w3.org/2000/svg">
<path d="M20.3137 6.73145C20.3387 6.7788 20.3632 6.82654 20.3869 6.87465C20.7852 7.68114 20.9994 8.59254 20.9994 9.52841C20.9994 10.9946 20.4737 12.4007 19.538 13.4374L14.7571 18.7345C14.0257 19.5448 13.0337 20.0001 11.9994 20.0001C10.965 20.0001 9.97304 19.5448 9.24165 18.7345L8.91025 18.3673L8.74455 18.1837L8.70312 18.1378" stroke="#4E5964" stroke-width="1.5" stroke-linecap="round" stroke-linejoin="round"/>
<path opacity="0.4" d="M7.03518 16.289L4.46138 13.4372C3.52567 12.4005 3 10.9944 3 9.52822C3 8.06205 3.52567 6.65594 4.46138 5.6192C6.40986 3.46042 9.56889 3.46042 11.5174 5.6192L11.9998 6.15379L12.4823 5.6192C13.418 4.58243 14.6872 3.99998 16.0105 4C16.8919 4.00001 17.7492 4.25841 18.5 4.73733M20.5473 3L3.45508 19.9663" stroke="#4E5964" stroke-width="1.5" stroke-linecap="round" stroke-linejoin="round"/>
</svg>
