<svg width="24" height="24" viewBox="0 0 24 24" fill="none" xmlns="http://www.w3.org/2000/svg">
<path d="M20.3156 6.73145C20.3407 6.7788 20.3651 6.82654 20.3889 6.87465C20.7872 7.68114 21.0013 8.59254 21.0013 9.52841C21.0013 10.9946 20.4757 12.4007 19.54 13.4374L14.759 18.7345C14.0277 19.5448 13.0357 20.0001 12.0013 20.0001C10.967 20.0001 9.975 19.5448 9.24361 18.7345L8.9122 18.3673L8.7465 18.1837L8.70508 18.1378" stroke="#4E5964" stroke-width="1.5" stroke-linecap="round" stroke-linejoin="round"/>
<path opacity="0.4" d="M7.03713 16.289L4.46333 13.4372C3.52763 12.4005 3.00195 10.9944 3.00195 9.52822C3.00195 8.06205 3.52763 6.65594 4.46333 5.6192C6.41181 3.46042 9.57084 3.46042 11.5193 5.6192L12.0018 6.15379L12.4843 5.6192C13.42 4.58243 14.6891 3.99998 16.0124 4C16.8938 4.00001 17.7512 4.25841 18.502 4.73733M20.5492 3L3.45703 19.9663" stroke="#4E5964" stroke-width="1.5" stroke-linecap="round" stroke-linejoin="round"/>
</svg>
