<svg width="24" height="24" viewBox="0 0 24 24" fill="none" xmlns="http://www.w3.org/2000/svg">
<path opacity="0.4" fill-rule="evenodd" clip-rule="evenodd" d="M19.5406 5.6193C20.4763 6.65604 21.002 8.06215 21.002 9.52832C21.002 10.9945 20.4763 12.4006 19.5406 13.4373L14.7597 18.7344C14.0283 19.5447 13.0363 20 12.0019 20C10.9676 20 9.97561 19.5447 9.24422 18.7344L4.46333 13.4372C3.52763 12.4005 3.00195 10.9944 3.00195 9.52822C3.00195 8.06205 3.52763 6.65594 4.46333 5.6192C6.41181 3.46042 9.57084 3.46042 11.5193 5.6192L12.0018 6.15379L12.4843 5.6192C13.42 4.58243 14.6891 3.99998 16.0124 4C17.3358 4.00002 18.6049 4.5825 19.5406 5.6193Z" stroke="#4E5964" stroke-width="1.5" stroke-linecap="round" stroke-linejoin="round"/>
<path d="M19.5406 5.6193C18.6049 4.5825 17.3358 4.00002 16.0124 4C14.6891 3.99998 13.42 4.58243 12.4843 5.6192L12.0018 6.15379L11.5193 5.6192C9.57084 3.46042 6.41181 3.46042 4.46333 5.6192C3.52763 6.65594 3.00195 8.06205 3.00195 9.52822C3.00195 10.9944 3.52763 12.4005 4.46333 13.4372L9.24422 18.7344C9.97561 19.5447 10.9676 20 12.0019 20" stroke="#4E5964" stroke-width="1.5" stroke-linecap="round" stroke-linejoin="round"/>
</svg>
