<svg width="24" height="24" viewBox="0 0 24 24" fill="none" xmlns="http://www.w3.org/2000/svg">
<path opacity="0.4" d="M19.0758 3.73818C18.9932 3.68855 18.9096 3.64129 18.8251 3.59644C18.0913 3.20738 17.2832 3.00001 16.4561 3C14.9857 2.99998 13.5756 3.65523 12.5359 4.8216L11.9998 5.42301L11.4638 4.8216C9.29877 2.39297 5.78873 2.39297 3.62375 4.8216C2.58408 5.98793 2 7.56981 2 9.21925C2 10.8687 2.58408 12.4506 3.62375 13.6169L6.2798 16.5965M21.0245 5.70161L21.1247 5.86529C21.6918 6.85875 22 8.02123 22 9.21936C22 10.8688 21.4159 12.4507 20.3762 13.617L15.0641 19.5762C14.2515 20.4878 13.1493 21 12 21C10.8507 21 9.74851 20.4878 8.93585 19.5762L8.10583 18.645M21 2L4 19" stroke="#4E5964" stroke-width="1.5" stroke-linecap="round" stroke-linejoin="round"/>
<path d="M21.0247 5.70166L21.1248 5.86535C21.6919 6.85881 22.0001 8.02129 22.0001 9.21941C22.0001 10.8689 21.416 12.4507 20.3764 13.6171L15.0642 19.5762C14.2516 20.4879 13.1494 21.0001 12.0001 21.0001C10.8508 21.0001 9.74863 20.4879 8.93597 19.5762L8.10596 18.6451" stroke="#4E5964" stroke-width="1.5" stroke-linecap="round" stroke-linejoin="round"/>
</svg>
