<svg width="24" height="24" viewBox="0 0 24 24" fill="none" xmlns="http://www.w3.org/2000/svg">
<path opacity="0.4" fill-rule="evenodd" clip-rule="evenodd" d="M19.5386 5.6193C20.4743 6.65604 21 8.06215 21 9.52832C21 10.9945 20.4743 12.4006 19.5386 13.4373L14.7577 18.7344C14.0263 19.5447 13.0343 20 12 20C10.9656 20 9.97366 19.5447 9.24227 18.7344L4.46138 13.4372C3.52567 12.4005 3 10.9944 3 9.52822C3 8.06205 3.52567 6.65594 4.46138 5.6192C6.40986 3.46042 9.56889 3.46042 11.5174 5.6192L11.9998 6.15379L12.4823 5.6192C13.418 4.58243 14.6872 3.99998 16.0105 4C17.3338 4.00002 18.6029 4.5825 19.5386 5.6193Z" stroke="#4E5964" stroke-width="1.5" stroke-linecap="round" stroke-linejoin="round"/>
<path d="M19.5386 5.6193C18.6029 4.5825 17.3338 4.00002 16.0105 4C14.6872 3.99998 13.418 4.58243 12.4823 5.6192L11.9998 6.15379L11.5174 5.6192C9.56889 3.46042 6.40986 3.46042 4.46138 5.6192C3.52567 6.65594 3 8.06205 3 9.52822C3 10.9944 3.52567 12.4005 4.46138 13.4372L9.24227 18.7344C9.97366 19.5447 10.9656 20 12 20" stroke="#4E5964" stroke-width="1.5" stroke-linecap="round" stroke-linejoin="round"/>
</svg>
