<svg width="24" height="24" viewBox="0 0 24 24" fill="none" xmlns="http://www.w3.org/2000/svg">
<path d="M3 11.9961C3 10.2515 3.72503 8.59694 4.97899 7.48003L8.47898 4.36255C10.5186 2.54582 13.4814 2.54581 15.521 4.36255L19.021 7.48002C20.275 8.59693 21 10.2515 21 11.9961V15.1213C21 18.368 18.5376 21 15.5 21H8.5C5.46244 21 3 18.368 3 15.1213V11.9961Z" stroke="#4E5964" stroke-width="1.5"/>
<path opacity="0.4" d="M11.9425 15.2594C11.6944 15.2594 11.4942 15.4613 11.4959 15.7076C11.4942 15.9557 11.6961 16.1576 11.9425 16.1576C12.1889 16.1576 12.3908 15.9557 12.3908 15.7093C12.3908 15.463 12.1906 15.2594 11.9425 15.2594" stroke="#4E5964" stroke-width="1.5" stroke-linecap="round" stroke-linejoin="round"/>
<path opacity="0.4" d="M14.5903 13.3235C13.04 11.7547 10.901 11.6949 9.26562 13.1748" stroke="#4E5964" stroke-width="1.5" stroke-linecap="round" stroke-linejoin="round"/>
<path opacity="0.4" d="M17.0005 11.3224C14.0475 8.33364 9.97293 8.21957 6.85742 11.0384" stroke="#4E5964" stroke-width="1.5" stroke-linecap="round" stroke-linejoin="round"/>
</svg>
