<svg width="24" height="24" viewBox="0 0 24 24" fill="none" xmlns="http://www.w3.org/2000/svg">
<path opacity="0.4" d="M9 21V17C9 15.3431 10.3431 14 12 14C13.6569 14 15 15.3431 15 17V21" stroke="#4E5964" stroke-width="1.5"/>
<path d="M3 11.8238V17.0002C3 19.2093 4.79086 21.0002 7 21.0002H17C19.2091 21.0002 21 19.2093 21 17.0002V11.8238C21 10.6654 20.4978 9.5639 19.6233 8.80418L14.6233 4.46047C13.1187 3.15333 10.8813 3.15333 9.3767 4.46047L4.3767 8.80418C3.5022 9.5639 3 10.6654 3 11.8238Z" stroke="#4E5964" stroke-width="1.5"/>
<path opacity="0.4" d="M16 6V4C16 3.44772 16.4477 3 17 3H18C18.5523 3 19 3.44772 19 4V8" stroke="#4E5964" stroke-width="1.42499"/>
</svg>
