<svg width="24" height="24" viewBox="0 0 24 24" fill="none" xmlns="http://www.w3.org/2000/svg">
<rect x="2" y="3" width="20" height="18" rx="5.5" stroke="#4E5964" stroke-width="1.5"/>
<line opacity="0.64" x1="0.75" y1="-0.75" x2="3.25" y2="-0.75" transform="matrix(-1 0 0 1 9 9)" stroke="#4E5964" stroke-width="1.5" stroke-linecap="round"/>
<line opacity="0.64" x1="0.75" y1="-0.75" x2="3.25" y2="-0.75" transform="matrix(-1 0 0 1 9 17)" stroke="#4E5964" stroke-width="1.5" stroke-linecap="round"/>
<line opacity="0.64" x1="0.75" y1="-0.75" x2="2.25" y2="-0.75" transform="matrix(-1 0 0 1 8 13)" stroke="#4E5964" stroke-width="1.5" stroke-linecap="round"/>
<path opacity="0.64" d="M16.5485 7.43873C17.1505 8.04517 17.1505 8.99815 16.5485 9.56127C15.9465 10.1244 15.0004 10.1677 14.4414 9.56127C13.8824 8.95483 13.8394 8.04517 14.3984 7.43873C14.9574 6.8323 15.9465 6.87561 16.5485 7.43873" stroke="#4E5964" stroke-width="1.5" stroke-linecap="round" stroke-linejoin="round"/>
<path opacity="0.64" d="M12 13.75C12 12.7835 12.7835 12 13.75 12V12H17.25V12C18.2165 12 19 12.7835 19 13.75V14.5C19 15.8807 17.8807 17 16.5 17H14.5C13.1193 17 12 15.8807 12 14.5V13.75Z" stroke="#4E5964" stroke-width="1.5"/>
</svg>
