<svg width="24" height="24" viewBox="0 0 24 24" fill="none" xmlns="http://www.w3.org/2000/svg">
<path opacity="0.4" d="M5.96094 17.7098V17.2163" stroke="#4E5964" stroke-width="1.48052" stroke-linecap="round"/>
<path opacity="0.4" d="M8.92188 17.7098V17.2163" stroke="#4E5964" stroke-width="1.48052" stroke-linecap="round"/>
<path opacity="0.4" d="M11.8828 17.7098V17.2163" stroke="#4E5964" stroke-width="1.48052" stroke-linecap="round"/>
<path d="M3 13.1039V19.026C3 20.1162 3.8838 21 4.97403 21H6.45455C6.7271 21 6.94805 20.7791 6.94805 20.5065C6.94805 20.2339 7.169 20.013 7.44156 20.013H10.4026C10.6752 20.013 10.8961 20.2339 10.8961 20.5065C10.8961 20.7791 11.1171 21 11.3896 21H13.1991H14.3506H14.9264C15.2951 21 15.6486 20.8536 15.9093 20.5929L15.9957 20.5065L16.4892 20.013L17.4762 19.026L18.4866 18.0156C19.1036 17.3986 19.4502 16.5618 19.4502 15.6892V10.4719L15.5022 13.1039M3 13.1039H5.63203C6.08629 13.1039 6.45455 13.4722 6.45455 13.9264C6.45455 14.3807 6.8228 14.7489 7.27706 14.7489H11.3896C11.8439 14.7489 12.2121 14.3807 12.2121 13.9264C12.2121 13.4722 12.5804 13.1039 13.0346 13.1039H15.5022M3 13.1039L7.78992 10.5493C7.85566 10.5142 7.93507 10.5619 7.93507 10.6364V14.0909M15.5022 13.1039V17.052V19.026V20.013V20.5065M6.94805 2.74023L12.8701 2.74027L15.8312 2.74023H17.3117H18.2987C18.607 2.74023 18.8949 2.89433 19.0659 3.15087L19.1212 3.23378M4.64502 7.01733L4.15152 6.44157L3.90476 6.15369C3.8078 6.04057 3.88818 5.86581 4.03717 5.86581H4.31602M4.23377 5.86581H4.31602M4.31602 5.86581H4.80952H5.96104H7.44156M20.2727 5.53681L19.697 4.38529L19.4091 3.80953L19.2652 3.52165L19.1932 3.37772" stroke="#4E5964" stroke-width="1.48052" stroke-linecap="round"/>
<path d="M18.2969 2C18.8526 2 19.3714 2.2779 19.6797 2.74023L19.7354 2.82324C19.7668 2.87048 19.7902 2.92078 19.8096 2.97168C19.8253 2.99565 19.8404 3.02062 19.8535 3.04688L19.9258 3.19043L20.0693 3.47852L20.3574 4.05469L20.9326 5.20605L21.6895 6.71875C22.0628 7.46554 21.9473 8.36385 21.3975 8.99219L20.9473 9.50684C20.182 10.3814 19.0762 10.8828 17.9141 10.8828H9.16992C8.11325 10.8828 7.09841 10.4681 6.34473 9.72754L4.12402 7.54492L4.10156 7.52344L4.08105 7.49902L3.58789 6.92285L3.34082 6.63574C3.05384 6.30091 3.06261 5.86278 3.26562 5.54492C3.29209 5.42216 3.34722 5.30384 3.4375 5.2041C3.7897 4.81505 4.54599 4.05893 5.19727 3.41602C5.52645 3.09105 5.83483 2.78969 6.06055 2.56934C6.17336 2.45921 6.2659 2.36907 6.33008 2.30664C6.36213 2.27547 6.38724 2.25094 6.4043 2.23438C6.41269 2.22622 6.41942 2.2201 6.42383 2.21582C6.42587 2.21384 6.42759 2.21203 6.42871 2.21094L6.42969 2.20898H6.43066C6.45903 2.18147 6.48919 2.15684 6.52051 2.13477C6.52678 2.13035 6.53265 2.12532 6.53906 2.12109C6.56076 2.10679 6.58467 2.09674 6.60742 2.08496C6.62615 2.07526 6.64444 2.06475 6.66406 2.05664C6.68956 2.04612 6.7159 2.0388 6.74219 2.03125C6.76574 2.02448 6.78902 2.01615 6.81348 2.01172C6.81542 2.01137 6.81739 2.01108 6.81934 2.01074C6.86058 2.00361 6.90301 2 6.94629 2H18.2969ZM9.64941 5.4541C9.5686 6.10338 9.01586 6.60635 8.34473 6.60645H5.28125L7.38184 8.6709C7.85867 9.13954 8.50135 9.40233 9.16992 9.40234H17.9141C17.9768 9.40234 18.0394 9.39618 18.1016 9.3916L16.4014 6.60645H14.4316C13.7604 6.60642 13.2068 6.10344 13.126 5.4541H9.64941ZM17.7041 5.89941L19.501 8.84375C19.6191 8.74963 19.732 8.64762 19.833 8.53223L20.2832 8.01758C20.4371 7.84168 20.4697 7.58994 20.3652 7.38086L19.6084 5.86816L19.0332 4.7168L18.8369 4.3252L17.7041 5.89941ZM7.09473 3.62891C6.87033 3.84797 6.56393 4.14729 6.2373 4.46973C6.01869 4.68554 5.79444 4.91046 5.5791 5.12598H8.19141C8.27222 4.47667 8.8249 3.97366 9.49609 3.97363H13.2793C13.9505 3.97363 14.5042 4.47661 14.585 5.12598H16.4375L17.6221 3.48047H7.24707C7.20205 3.52432 7.15086 3.5741 7.09473 3.62891Z" fill="#A7ACB0"/>
</svg>
