<svg width="24" height="24" viewBox="0 0 24 24" fill="none" xmlns="http://www.w3.org/2000/svg">
<path d="M3 12.1213C3 11.7235 3.15804 11.342 3.43934 11.0607L6 8.5H12H18L20.5607 11.0607C20.842 11.342 21 11.7235 21 12.1213V18.5C21 20.1569 19.6569 21.5 18 21.5H6C4.34315 21.5 3 20.1569 3 18.5V12.1213Z" stroke="#4E5964" stroke-width="1.5" stroke-linecap="round"/>
<path d="M21 4.30538C21 4.52826 20.9255 4.74475 20.7884 4.92047L18.3003 8.10977C18.1108 8.35266 17.8199 8.49466 17.5118 8.49466H6.48816C6.18009 8.49466 5.88921 8.35266 5.69972 8.10977L3.21156 4.92049C3.07446 4.74475 3 4.52825 3 4.30536C3.00001 3.58147 3.58684 2.99465 4.31073 2.99465L19.6893 2.99465C20.4132 2.99465 21 3.58149 21 4.30538Z" stroke="#4E5964" stroke-width="1.5"/>
<path d="M8.92135 3.75475L7.99999 2.99463H16L15.0786 3.75475C14.8944 3.90675 14.6215 3.99463 14.3337 3.99463H9.6663C9.37851 3.99463 9.10559 3.90675 8.92135 3.75475Z" stroke="#4E5964" stroke-width="1.5"/>
<path opacity="0.4" d="M21 12.5H17.4366C17.2398 12.5 17.0473 12.5581 16.8833 12.667L15.1362 13.8276C14.9722 13.9365 14.7798 13.9946 14.5829 13.9946H12.5H9.68664C9.48978 13.9946 9.29729 13.9365 9.13332 13.8276L7.38563 12.6666C7.22201 12.558 7.03002 12.4999 6.8336 12.4996L3 12.4946" stroke="#4E5964" stroke-width="1.5" stroke-linecap="round"/>
<path opacity="0.4" d="M12 17.5V17.4946" stroke="#4E5964" stroke-width="1.5" stroke-linecap="round"/>
<path opacity="0.4" d="M15 17.5V17.4946" stroke="#4E5964" stroke-width="1.5" stroke-linecap="round"/>
<path opacity="0.4" d="M9 17.5001V17.4946" stroke="#4E5964" stroke-width="1.5" stroke-linecap="round"/>
</svg>
