<svg width="24" height="24" viewBox="0 0 24 24" fill="none" xmlns="http://www.w3.org/2000/svg">
<path opacity="0.4" d="M11.9531 3.84155L11.9531 2.99995" stroke="#4E5964" stroke-width="1.5" stroke-linecap="round"/>
<path opacity="0.4" d="M17.959 5.10425L17.2151 5.84812" stroke="#4E5964" stroke-width="1.5" stroke-linecap="round"/>
<path opacity="0.4" d="M6.74609 6.20874L6.00222 5.46487" stroke="#4E5964" stroke-width="1.5" stroke-linecap="round"/>
<path opacity="0.4" d="M10.002 21C10.002 21 11.4762 21 12.4262 21C13.3762 21 14.002 21 14.002 21" stroke="#4E5964" stroke-width="1.5" stroke-linecap="round"/>
<path d="M14.2567 6.4403C12.902 5.81938 11.344 5.81938 9.9893 6.4403C9.9846 6.44246 9.9799 6.44462 9.97521 6.44678L9.89945 6.48151C8.13394 7.29071 7.00201 9.0547 7.00201 10.9968C7.00201 11.0138 7.0021 11.0307 7.00227 11.0476C7.00206 11.0667 7.00195 11.0857 7.00195 11.1047C7.00195 11.9477 7.20928 12.7819 7.60649 13.5269L8.84723 15.8538C9.07063 16.2728 9.18749 16.7403 9.18749 17.2152V17.9652H10.6875V17.2152C10.6875 16.4942 10.51 15.7843 10.1708 15.1481L8.93009 12.8211C8.89042 12.7467 8.85341 12.671 8.8191 12.5942L8.63464 11.9466C8.55177 11.6557 8.50692 11.3538 8.50239 11.0482C8.52395 9.65713 9.34075 8.39315 10.6025 7.80934L10.6143 7.8039C11.0236 7.61631 11.4591 7.50887 11.8984 7.48158C11.9732 7.47693 12.0482 7.47461 12.1231 7.47461C12.6379 7.47462 13.1528 7.58438 13.6317 7.8039L13.6436 7.80933C14.9053 8.39314 15.7221 9.65712 15.7437 11.0482C15.7413 11.2114 15.7274 11.3736 15.7023 11.5336L15.6236 12.0357C15.552 12.3079 15.4489 12.5718 15.316 12.8211L14.0753 15.1481C13.736 15.7843 13.5586 16.4942 13.5586 17.2152V17.9652H15.0586V17.2152C15.0586 16.7403 15.1755 16.2728 15.3989 15.8538L16.6396 13.5269C16.8135 13.2008 16.951 12.8576 17.0506 12.5041L17.0681 12.5068L17.0947 12.337C17.1936 11.9348 17.2441 11.5208 17.2441 11.1047C17.2441 11.0857 17.244 11.0667 17.2438 11.0476C17.244 11.0307 17.2441 11.0138 17.2441 10.9968C17.2441 9.0547 16.1122 7.29071 14.3466 6.48151L14.2567 6.4403Z" fill="#4E5964"/>
<path d="M7.75195 17.9746C7.75195 17.9746 10.7347 17.9746 12.9979 17.9746C15.2612 17.9746 16.752 17.9746 16.752 17.9746" stroke="#4E5964" stroke-width="1.5" stroke-linecap="round"/>
</svg>
