<svg width="24" height="24" viewBox="0 0 24 24" fill="none" xmlns="http://www.w3.org/2000/svg">
<path opacity="0.4" d="M8.46053 8.32728L8.2619 7.22671C8.10699 6.36845 7.02733 6.09034 6.49855 6.77248C6.4113 6.88504 6.34888 7.01539 6.31545 7.15483L5.38168 11.0501M19.6873 17.654L11.1029 16.4307C10.7907 16.3862 10.4733 16.4597 10.2113 16.637L4.33598 20.6141C3.93267 20.8871 3.38744 20.6253 3.34141 20.1365L3.0058 16.5728C2.96131 16.1004 3.17535 15.6411 3.56388 15.3753L15.4846 7.21889C15.7392 7.04466 15.9235 6.78366 16.0039 6.48345L16.5303 4.51667C16.6834 3.94501 17.2654 3.6071 17.8304 3.76192C18.1093 3.83834 18.3452 4.02663 18.4837 4.28322L20.0998 7.27905C20.4013 7.83788 20.2574 8.53547 19.7601 8.9256L16.0564 11.8315C15.2501 12.4641 15.4617 13.7498 16.427 14.0839L20.2208 15.397C21.1815 15.7295 21.278 17.0658 20.3753 17.5361C20.1635 17.6464 19.9232 17.6876 19.6873 17.654Z" stroke="#4E5964" stroke-width="1.5" stroke-linecap="round"/>
<path d="M20.0999 7.27905C20.4014 7.83788 20.2574 8.53547 19.7602 8.92561L16.0565 11.8315C15.2502 12.4641 15.4618 13.7498 16.4271 14.0839L20.2209 15.397C21.1816 15.7295 21.2781 17.0658 20.3753 17.5361C20.1636 17.6464 19.9232 17.6876 19.6874 17.654L11.103 16.4307C10.7908 16.3862 10.4734 16.4597 10.2113 16.637L4.33604 20.6141C3.93274 20.8871 3.3875 20.6253 3.34147 20.1365L3.00586 16.5728" stroke="#4E5964" stroke-width="1.5" stroke-linecap="round"/>
</svg>
