<svg width="24" height="25" viewBox="0 0 24 25" fill="none" xmlns="http://www.w3.org/2000/svg">
<path opacity="0.4" d="M8.46248 8.60291L8.26385 7.50235C8.10894 6.64409 7.02928 6.36597 6.50051 7.04811C6.41325 7.16067 6.35083 7.29103 6.3174 7.43047L5.38363 11.3257M19.6892 17.9296L11.1049 16.7063C10.7927 16.6618 10.4752 16.7353 10.2132 16.9127L4.33793 20.8897C3.93463 21.1627 3.38939 20.9009 3.34336 20.4122L3.00775 16.8485C2.96326 16.376 3.1773 15.9167 3.56584 15.6509L15.4866 7.49452C15.7412 7.32029 15.9255 7.05929 16.0058 6.75909L16.5323 4.7923C16.6853 4.22065 17.2674 3.88273 17.8324 4.03756C18.1112 4.11398 18.3472 4.30227 18.4856 4.55886L20.1018 7.55469C20.4032 8.11351 20.2593 8.81111 19.7621 9.20124L16.0583 12.1071C15.2521 12.7397 15.4637 14.0254 16.429 14.3595L20.2228 15.6727C21.1835 16.0052 21.28 17.3414 20.3772 17.8117C20.1655 17.922 19.9251 17.9632 19.6892 17.9296Z" stroke="#4E5964" stroke-width="1.5" stroke-linecap="round"/>
<path d="M20.1018 7.55469C20.4033 8.11352 20.2594 8.81111 19.7621 9.20124L16.0584 12.1071C15.2522 12.7397 15.4637 14.0254 16.4291 14.3595L20.2228 15.6727C21.1835 16.0052 21.28 17.3414 20.3773 17.8117C20.1655 17.922 19.9252 17.9632 19.6893 17.9296L11.1049 16.7063C10.7928 16.6618 10.4753 16.7353 10.2133 16.9127L4.33799 20.8897C3.93469 21.1627 3.38945 20.9009 3.34343 20.4122L3.00781 16.8485" stroke="#4E5964" stroke-width="1.5" stroke-linecap="round"/>
</svg>
