<svg width="24" height="24" viewBox="0 0 24 24" fill="none" xmlns="http://www.w3.org/2000/svg">
<path d="M10.6079 7.58021L13.5608 4.68544C13.7279 4.51945 13.9154 4.33448 14.1091 4.14416C15.0917 3.17862 16.5731 2.81777 18.1604 3.1494L19.4173 3.41203C20.0179 3.53752 20.5472 4.07601 20.6617 4.67802L20.9014 5.93797C21.204 7.529 20.8024 8.98825 19.8029 9.93648C19.6127 10.117 19.4284 10.2929 19.2633 10.4526L16.3255 13.397M10.6079 7.58021L4.80587 6.66567C4.23646 6.57699 3.69551 6.73732 3.32612 7.10424C2.86223 7.56502 2.88909 8.25465 3.43329 8.79296L6.33271 11.7713L10.6079 7.58021ZM16.3255 13.397L17.1336 19.2072C17.2118 19.7774 17.0413 20.3146 16.6671 20.6766C16.1972 21.1313 15.438 21.0498 14.9091 20.4965L12.0503 17.5881L16.3255 13.397Z" stroke="#4E5964" stroke-width="1.58595"/>
<path opacity="0.4" d="M8 19.6832L8.73015 18.9999" stroke="#4E5964" stroke-width="1.5" stroke-linecap="round"/>
<path opacity="0.4" d="M4 15.6832L4.73015 14.9999" stroke="#4E5964" stroke-width="1.5" stroke-linecap="round"/>
<path opacity="0.4" d="M4.73242 18.9703L6.19273 17.6038" stroke="#4E5964" stroke-width="1.5" stroke-linecap="round"/>
<ellipse opacity="0.4" cx="9.51316" cy="14.498" rx="3.55048" ry="1.28715" transform="rotate(48.3478 9.51316 14.498)" stroke="#4E5964" stroke-width="1.58595"/>
<path opacity="0.4" d="M14 5L15.25 6.25L16.5 7.5" stroke="#4E5964" stroke-width="1.5" stroke-linecap="round"/>
</svg>
