<svg width="24" height="24" viewBox="0 0 24 24" fill="none" xmlns="http://www.w3.org/2000/svg">
<path d="M6.11797 8.60509C4.22123 12.2095 6.99056 16.7728 8.05275 18.3035C8.27731 18.6272 8.72231 18.74 9.14463 18.5824C11.0503 17.8714 16.2485 15.652 17.6845 12.1415C18.8318 9.33696 17.6156 5.59928 16.7941 3.63053C16.459 2.82746 15.4968 2.47959 14.5588 2.82266C12.13 3.71097 7.65506 5.68415 6.11797 8.60509Z" stroke="#4E5964" stroke-width="1.5"/>
<path opacity="0.4" d="M9.89771 14.2152C11.1076 14.5098 12.1966 14.3065 13.3354 13.7075M12.5378 10.0929C13.7014 10.12 14.6585 9.71934 15.585 8.94972M9.23827 13.8044C8.46743 12.8664 8.22241 11.833 8.33639 10.5962M11.8544 9.85134C10.9685 9.15339 10.5453 8.26449 10.4114 7.11972M8.08789 21.7454C8.29881 15.6536 10.1826 10.6589 16.3478 3.68579" stroke="#4E5964" stroke-width="1.5" stroke-linecap="round"/>
</svg>
