<svg width="24" height="24" viewBox="0 0 24 24" fill="none" xmlns="http://www.w3.org/2000/svg">
<path opacity="0.4" d="M16.6179 9.51499L9.58272 18.8898C9.53064 18.9592 9.44895 19 9.36219 19C9.18002 19 9.04793 18.8265 9.09642 18.6509L10.9001 12.1202C10.9508 11.9368 10.8152 11.7548 10.625 11.7509L7.47112 11.6861C7.25452 11.6817 7.1182 11.451 7.21879 11.2591L10.4181 5.15625C10.4684 5.06018 10.568 5 10.6764 5H14.3779C14.6114 5 14.7503 5.26085 14.6198 5.45458L12.3328 8.85061C12.1973 9.05185 12.3524 9.32094 12.5945 9.30453L16.3649 9.04892C16.6139 9.03204 16.7677 9.31537 16.6179 9.51499Z" stroke="#4E5964" stroke-width="1.3125" stroke-linecap="round"/>
<path d="M9.5 19H9.38314C9.19044 19 9.0507 18.8164 9.102 18.6307L10.9001 12.1202C10.9508 11.9368 10.8152 11.7548 10.625 11.7509L7.47112 11.6861C7.25452 11.6817 7.1182 11.451 7.21879 11.2591L10.4181 5.15625C10.4684 5.06018 10.568 5 10.6764 5H14.3779C14.6114 5 14.7503 5.26085 14.6198 5.45458L12 9.34483" stroke="#4E5964" stroke-width="1.3125" stroke-linecap="round"/>
</svg>
