<svg width="24" height="24" viewBox="0 0 24 24" fill="none" xmlns="http://www.w3.org/2000/svg">
<g opacity="0.64">
<path d="M22 17.3333C22 19.9107 19.9107 22 17.3333 22H12.9726C11.3221 22 9.7792 21.1811 8.85425 19.8142C8.29753 18.9914 8 18.0208 8 17.0274V10.5371C8 9.46671 8.31235 8.41956 8.89876 7.52406L10.3333 5.33333L12.0184 2.92612C12.4247 2.34569 13.0886 2 13.7971 2C15.071 2 16.0712 3.09152 15.9601 4.36051L15.7359 6.92333C15.6539 7.86053 16.3925 8.66667 17.3333 8.66667H18C20.2091 8.66667 22 10.4575 22 12.6667V17.3333Z" stroke="#4E5964" stroke-width="1.5"/>
<path d="M2 11.8889C2 10.2934 3.2934 9 4.88889 9H5C6.65685 9 8 10.3431 8 12V19C8 20.6569 6.65685 22 5 22H4.88889C3.2934 22 2 20.7066 2 19.1111V11.8889Z" stroke="#4E5964" stroke-width="1.5"/>
</g>
<path d="M22 17.3333C22 19.9107 19.9107 22 17.3333 22H12.9726C11.3221 22 9.7792 21.1811 8.85425 19.8142C8.29753 18.9914 8 18.0208 8 17.0274V10.5371C8 9.46671 8.31235 8.41956 8.89876 7.52406L10.3333 5.33333L12.0184 2.92612C12.4247 2.34569 13.0886 2 13.7971 2C15.071 2 16.0712 3.09152 15.9601 4.36051L15.7359 6.92333C15.6539 7.86053 16.3925 8.66667 17.3333 8.66667H18C20.2091 8.66667 22 10.4575 22 12.6667V17.3333Z" stroke="#4E5964" stroke-width="1.5"/>
</svg>
