<svg width="24" height="24" viewBox="0 0 24 24" fill="none" xmlns="http://www.w3.org/2000/svg">
<path fill-rule="evenodd" clip-rule="evenodd" d="M17.0277 8.11327C17.6515 8.82603 18.002 9.79273 18.002 10.8007C18.002 11.8087 17.6515 12.7754 17.0277 13.4882L13.8404 17.1299C13.3528 17.687 12.6915 18 12.0019 18C11.3124 18 10.6511 17.687 10.1635 17.1299L6.9762 13.4881C6.3524 12.7753 6.00195 11.8086 6.00195 10.8007C6.00195 9.79266 6.3524 8.82596 6.9762 8.1132C8.27519 6.62904 10.3812 6.62904 11.6802 8.1132L12.0018 8.48073L12.3235 8.1132C12.9473 7.40042 13.7934 6.99999 14.6756 7C15.5578 7.00001 16.4039 7.40047 17.0277 8.11327Z" stroke="#4E5964" stroke-width="1.5" stroke-linecap="round" stroke-linejoin="round"/>
<path opacity="0.4" d="M12.002 3.8999L12.002 2.9999" stroke="#4E5964" stroke-width="1.5" stroke-linecap="round"/>
<path opacity="0.4" d="M12.002 21L12.002 20.1" stroke="#4E5964" stroke-width="1.5" stroke-linecap="round"/>
<path opacity="0.4" d="M3.90234 12L3.00234 12" stroke="#4E5964" stroke-width="1.5" stroke-linecap="round"/>
<path opacity="0.4" d="M21.002 12L20.102 12" stroke="#4E5964" stroke-width="1.5" stroke-linecap="round"/>
<path opacity="0.4" d="M6.49805 17.3999L5.70255 18.1954" stroke="#4E5964" stroke-width="1.5" stroke-linecap="round"/>
<path opacity="0.4" d="M18.1973 4.80005L17.4018 5.59554" stroke="#4E5964" stroke-width="1.5" stroke-linecap="round"/>
<path opacity="0.4" d="M6.49805 5.59546L5.70255 4.79996" stroke="#4E5964" stroke-width="1.5" stroke-linecap="round"/>
<path opacity="0.4" d="M18.1973 18.1956L17.4018 17.4001" stroke="#4E5964" stroke-width="1.5" stroke-linecap="round"/>
</svg>
