<svg width="24" height="24" viewBox="0 0 24 24" fill="none" xmlns="http://www.w3.org/2000/svg">
<path opacity="0.4" d="M3.00195 11.4444C3.00195 10.0944 4.09637 9 5.4464 9H6.00195C7.65881 9 9.00195 10.3431 9.00195 12V14.5V17C9.00195 18.6569 7.65881 20 6.00195 20H5.4464C4.09637 20 3.00195 18.9056 3.00195 17.5556V17.5556V11.4444V11.4444Z" stroke="#4E5964" stroke-width="1.5"/>
<path d="M21.002 12.931V17C21.002 19.2091 19.2111 21 17.002 21H13.3997C11.9051 21 10.5127 20.2409 9.70308 18.9845C9.24537 18.2743 9.00195 17.4472 9.00195 16.6022V10.4951C9.00195 9.65322 9.23814 8.82819 9.68366 8.11382L11.002 6L12.4529 3.82362C12.7959 3.30907 13.3734 3 13.9918 3C15.0739 3 15.9249 3.92484 15.835 5.00319L15.6265 7.50518C15.5595 8.30987 16.1945 9 17.002 9H17.402C19.3902 9 21.002 10.6118 21.002 12.6V12.931Z" stroke="#4E5964" stroke-width="1.5"/>
</svg>
