<svg width="24" height="24" viewBox="0 0 24 24" fill="none" xmlns="http://www.w3.org/2000/svg">
<path opacity="0.4" d="M3 11.4444C3 10.0944 4.09441 9 5.44444 9H6C7.65685 9 9 10.3431 9 12V14.5V17C9 18.6569 7.65685 20 6 20H5.44444C4.09441 20 3 18.9056 3 17.5556V11.4444Z" stroke="#4E5964" stroke-width="1.5"/>
<path d="M21 12.931V17C21 19.2091 19.2091 21 17 21H13.3978C11.9031 21 10.5108 20.2409 9.70113 18.9845C9.24342 18.2743 9 17.4472 9 16.6022V10.4951C9 9.65322 9.23618 8.82819 9.6817 8.11382L11 6L12.4509 3.82362C12.794 3.30907 13.3715 3 13.9899 3C15.072 3 15.9229 3.92484 15.8331 5.00319L15.6246 7.50518C15.5575 8.30987 16.1925 9 17 9H17.4C19.3882 9 21 10.6118 21 12.6V12.931Z" stroke="#4E5964" stroke-width="1.5"/>
</svg>
