<svg width="24" height="24" viewBox="0 0 24 24" fill="none" xmlns="http://www.w3.org/2000/svg">
<path d="M18.485 7.66479C18.513 7.73812 18.5399 7.81202 18.5658 7.88649C18.6354 8.08709 18.6972 8.29174 18.7509 8.50003C18.9149 9.13675 19.0025 9.80743 19.0025 10.5C19.0025 15.6422 13.4025 21 12.0025 21C11.3411 21 9.74216 19.8041 8.23924 18C8.21285 17.9684 8.18648 17.9365 8.16016 17.9044" stroke="#4E5964" stroke-width="1.5" stroke-linecap="round"/>
<path opacity="0.4" d="M16.4485 5.75726C16.7281 6.06291 17.2025 6.08408 17.5081 5.80453C17.8138 5.52498 17.8349 5.05057 17.5554 4.74492L16.4485 5.75726ZM6.05894 16.2301C6.27214 16.5852 6.73287 16.7003 7.088 16.4871C7.44313 16.2739 7.55819 15.8132 7.34499 15.458L6.05894 16.2301ZM20.6225 3.53229C20.9165 3.24048 20.9183 2.76561 20.6265 2.47163C20.3346 2.17766 19.8598 2.1759 19.5658 2.46771L20.6225 3.53229ZM2.47359 19.434C2.17961 19.7258 2.17786 20.2007 2.46967 20.4947C2.76148 20.7887 3.23635 20.7904 3.53032 20.4986L2.47359 19.434ZM13.807 7.60382L13.3558 8.20286L13.807 7.60382ZM12.4185 7.02906L12.3144 7.77179L12.4185 7.02906ZM9.70249 8.07323L9.12762 7.59153H9.12762L9.70249 8.07323ZM5.75195 10.5C5.75195 6.7225 8.59807 3.75 12.002 3.75V2.25C7.67385 2.25 4.25195 5.99323 4.25195 10.5H5.75195ZM12.002 3.75C13.733 3.75 15.3081 4.51034 16.4485 5.75726L17.5554 4.74492C16.1548 3.21351 14.1883 2.25 12.002 2.25V3.75ZM7.34499 15.458C6.40001 13.8839 5.75195 12.153 5.75195 10.5H4.25195C4.25195 12.5244 5.03595 14.5261 6.05894 16.2301L7.34499 15.458ZM14.2583 7.00477C13.7501 6.62191 13.1528 6.37467 12.5226 6.28632L12.3144 7.77179C12.6924 7.8248 13.0508 7.97315 13.3558 8.20286L14.2583 7.00477ZM12.5226 6.28632C11.8925 6.19797 11.2502 6.27143 10.6563 6.49976L11.1946 7.89986C11.5509 7.76286 11.9363 7.71878 12.3144 7.77179L12.5226 6.28632ZM10.6563 6.49976C10.0624 6.7281 9.53629 7.10381 9.12762 7.59153L10.2774 8.55492C10.5226 8.26229 10.8382 8.03686 11.1946 7.89986L10.6563 6.49976ZM9.12762 7.59153C8.71895 8.07926 8.4411 8.66295 8.32023 9.28767L9.79292 9.5726C9.86544 9.19777 10.0321 8.84755 10.2774 8.55492L9.12762 7.59153ZM8.32023 9.28767C8.19936 9.9124 8.23945 10.5576 8.43671 11.1626L9.86281 10.6975C9.74445 10.3346 9.7204 9.94744 9.79292 9.5726L8.32023 9.28767ZM8.43671 11.1626C8.63398 11.7675 8.98194 12.3123 9.44783 12.7457L10.4695 11.6474C10.1899 11.3874 9.98117 11.0605 9.86281 10.6975L8.43671 11.1626ZM15.2281 8.08836C14.9794 7.66855 14.6503 7.30007 14.2583 7.00477L13.3558 8.20286C13.591 8.38004 13.7884 8.60112 13.9377 8.85302L15.2281 8.08836ZM19.5658 2.46771L14.0545 7.9384L15.1113 9.00298L20.6225 3.53229L19.5658 2.46771ZM14.0545 7.9384L2.47359 19.434L3.53032 20.4986L15.1113 9.00298L14.0545 7.9384Z" fill="#4E5964"/>
</svg>
