<svg width="24" height="24" viewBox="0 0 24 24" fill="none" xmlns="http://www.w3.org/2000/svg">
<path d="M18.4831 7.66479C18.5111 7.73812 18.538 7.81202 18.5638 7.88649C18.6334 8.08709 18.6952 8.29174 18.7489 8.50003C18.9129 9.13675 19.0005 9.80743 19.0005 10.5C19.0005 15.6422 13.4005 21 12.0005 21C11.3391 21 9.74021 19.8041 8.23729 18C8.21089 17.9684 8.18453 17.9365 8.1582 17.9044" stroke="#4E5964" stroke-width="1.5" stroke-linecap="round"/>
<path opacity="0.4" d="M16.4466 5.75726C16.7261 6.06291 17.2005 6.08408 17.5062 5.80453C17.8118 5.52498 17.833 5.05057 17.5534 4.74492L17 5.25109L16.4466 5.75726ZM6.05699 16.2301C6.27019 16.5852 6.73092 16.7003 7.08605 16.4871C7.44118 16.2739 7.55624 15.8132 7.34304 15.458L6.70001 15.8441L6.05699 16.2301ZM20.6206 3.53229C20.9146 3.24048 20.9163 2.76561 20.6245 2.47163C20.3327 2.17766 19.8578 2.1759 19.5638 2.46771L20.0922 3L20.6206 3.53229ZM2.47163 19.434C2.17766 19.7258 2.1759 20.2007 2.46771 20.4947C2.75952 20.7887 3.23439 20.7904 3.52837 20.4986L3 19.9663L2.47163 19.434ZM13.8051 7.60382L13.3538 8.20286L13.8051 7.60382ZM12.4165 7.02906L12.3124 7.77179L12.4165 7.02906ZM9.70053 8.07323L9.12567 7.59153H9.12567L9.70053 8.07323ZM5 10.5H5.75C5.75 6.7225 8.59612 3.75 12 3.75V3V2.25C7.6719 2.25 4.25 5.99323 4.25 10.5H5ZM12 3V3.75C13.731 3.75 15.3061 4.51034 16.4466 5.75726L17 5.25109L17.5534 4.74492C16.1528 3.21351 14.1863 2.25 12 2.25V3ZM6.70001 15.8441L7.34304 15.458C6.39805 13.8839 5.75 12.153 5.75 10.5H5H4.25C4.25 12.5244 5.03399 14.5261 6.05699 16.2301L6.70001 15.8441ZM13.8051 7.60382L14.2563 7.00477C13.7481 6.62191 13.1508 6.37467 12.5207 6.28632L12.4165 7.02906L12.3124 7.77179C12.6905 7.8248 13.0489 7.97315 13.3538 8.20286L13.8051 7.60382ZM12.4165 7.02906L12.5207 6.28632C11.8905 6.19797 11.2483 6.27143 10.6543 6.49976L10.9235 7.19981L11.1926 7.89986C11.549 7.76286 11.9343 7.71878 12.3124 7.77179L12.4165 7.02906ZM10.9235 7.19981L10.6543 6.49976C10.0604 6.7281 9.53434 7.10381 9.12567 7.59153L9.70053 8.07323L10.2754 8.55492C10.5206 8.26229 10.8362 8.03686 11.1926 7.89986L10.9235 7.19981ZM9.70053 8.07323L9.12567 7.59153C8.71699 8.07926 8.43915 8.66295 8.31828 9.28767L9.05462 9.43014L9.79097 9.5726C9.86349 9.19777 10.0302 8.84755 10.2754 8.55492L9.70053 8.07323ZM9.05462 9.43014L8.31828 9.28767C8.19741 9.9124 8.23749 10.5576 8.43476 11.1626L9.14781 10.93L9.86086 10.6975C9.7425 10.3346 9.71844 9.94744 9.79097 9.5726L9.05462 9.43014ZM9.14781 10.93L8.43476 11.1626C8.63202 11.7675 8.97998 12.3123 9.44588 12.7457L9.95671 12.1966L10.4675 11.6474C10.188 11.3874 9.97921 11.0605 9.86086 10.6975L9.14781 10.93ZM14.5809 8.47069L15.2262 8.08836C14.9774 7.66855 14.6483 7.30007 14.2563 7.00477L13.8051 7.60382L13.3538 8.20286C13.589 8.38004 13.7864 8.60112 13.9357 8.85302L14.5809 8.47069ZM20.0922 3L19.5638 2.46771L14.0526 7.9384L14.5809 8.47069L15.1093 9.00298L20.6206 3.53229L20.0922 3ZM14.5809 8.47069L14.0526 7.9384L2.47163 19.434L3 19.9663L3.52837 20.4986L15.1093 9.00298L14.5809 8.47069Z" fill="#4E5964"/>
</svg>
