<svg width="24" height="24" viewBox="0 0 24 24" fill="none" xmlns="http://www.w3.org/2000/svg">
<path d="M20 10.3333C20 16.0468 13.6 22 12 22M20 10.3333C20 10.0784 19.989 9.82615 19.9675 9.57706M20 10.3333L19.9675 9.57706M12 22C11.9581 22 11.9129 21.9959 11.8647 21.9879M12 22L11.8647 21.9879M19.9675 9.57706C19.9339 9.18792 19.8746 8.80649 19.7914 8.43463M19.7914 8.43463C19.7447 8.22595 19.6905 8.02029 19.6291 7.81796M19.7914 8.43463L19.6291 7.81796M19.6291 7.81796L19.5 7.5M11.8647 21.9879C11.8 21.9771 11.7299 21.9592 11.6546 21.9344M11.6546 21.9344C11.5373 21.8958 11.4076 21.8406 11.2675 21.7696M11.6546 21.9344L11.2675 21.7696M11.2675 21.7696C11.1569 21.7137 11.0399 21.648 10.9172 21.573M10.9172 21.573C10.8133 21.5096 10.7055 21.4395 10.5941 21.3631M10.9172 21.573L10.5941 21.3631M10.5941 21.3631C10.4294 21.2501 10.257 21.1232 10.0788 20.9835M10.0788 20.9835C9.93431 20.8702 9.78599 20.7485 9.63476 20.6188M10.0788 20.9835L9.63476 20.6188M9.63476 20.6188C9.3972 20.4151 9.15249 20.1919 8.90425 19.951M8.90425 19.951C8.78885 19.8391 8.67268 19.7233 8.55613 19.604M8.90425 19.951L8.55613 19.604M8.55613 19.604C8.35017 19.3931 8.14298 19.171 7.93658 18.9388M17.4643 4.24676C16.0343 2.85315 14.1128 2 12 2C7.58172 2 4 5.73096 4 10.3333C4 12.0203 4.55794 13.7282 5.38553 15.2975L5.53915 15.5981L5.61596 15.7484M17.4643 4.24676C17.4899 4.27174 17.5154 4.29689 17.5407 4.32221L17.4643 4.24676Z" stroke="#4E5964" stroke-width="1.5" stroke-linecap="round"/>
<path opacity="0.64" d="M10.0312 13C9.39844 12.3672 9 11.4883 9 10.5156C9 8.57031 10.5703 7 12.5156 7C13.4883 7 14.3672 7.39844 15 8.03125M21 2L3 20" stroke="#4E5964" stroke-width="1.5" stroke-linecap="round" stroke-linejoin="round"/>
</svg>
