<svg width="24" height="24" viewBox="0 0 24 24" fill="none" xmlns="http://www.w3.org/2000/svg">
<path d="M18.4831 7.66479C18.5111 7.73812 18.538 7.81202 18.5638 7.88649C18.6334 8.08709 18.6952 8.29174 18.7489 8.50003C18.9129 9.13675 19.0005 9.80743 19.0005 10.5C19.0005 15.6422 13.4005 21 12.0005 21C11.3391 21 9.74021 19.8041 8.23729 18C8.21089 17.9684 8.18453 17.9365 8.1582 17.9044" stroke="#4E5964" stroke-width="1.5" stroke-linecap="round"/>
<path opacity="0.4" d="M17 5.25109C15.7295 3.86193 13.9587 3 12 3C8.13401 3 5 6.35786 5 10.5C5 12.3387 5.71602 14.205 6.70001 15.8441M20.0922 3L14.5809 8.47069M3 19.9663L14.5809 8.47069M9.95671 12.1966C9.58399 11.8499 9.30562 11.414 9.14781 10.93C8.98999 10.4461 8.95793 9.92992 9.05462 9.43014C9.15132 8.93036 9.3736 8.46341 9.70053 8.07323C10.0275 7.68305 10.4483 7.38248 10.9235 7.19981C11.3986 7.01714 11.9124 6.95838 12.4165 7.02906C12.9206 7.09973 13.3985 7.29753 13.8051 7.60382C14.1187 7.84005 14.3819 8.13483 14.5809 8.47069" stroke="#4E5964" stroke-width="1.5" stroke-linecap="round"/>
</svg>
