<svg width="24" height="24" viewBox="0 0 24 24" fill="none" xmlns="http://www.w3.org/2000/svg">
<path d="M4.5 19.4076C4.65677 19.5609 4.82378 19.7052 5 19.8395C5.95094 20.5645 7.17037 21 8.5 21H15.5C18.5376 21 21 18.727 21 15.9231V14.0769C21 11.273 18.5376 9 15.5 9H15" stroke="#4E5964" stroke-width="1.5" stroke-linecap="round"/>
<path d="M16.5 9V8" stroke="#4E5964" stroke-width="1.5" stroke-linecap="round"/>
<path opacity="0.4" fill-rule="evenodd" clip-rule="evenodd" d="M12 12.25C12.9665 12.25 13.75 13.0335 13.75 14C13.75 14.6977 13.3407 15.298 12.75 15.5791V17C12.75 17.4142 12.4142 17.75 12 17.75C11.5858 17.75 11.25 17.4142 11.25 17V15.5791C10.6593 15.298 10.25 14.6977 10.25 14C10.25 13.0335 11.0335 12.25 12 12.25ZM12 13.5C11.7239 13.5 11.5 13.7239 11.5 14C11.5 14.2761 11.7239 14.5 12 14.5C12.2761 14.5 12.5 14.2761 12.5 14C12.5 13.7239 12.2761 13.5 12 13.5Z" fill="#4E5964"/>
<path opacity="0.4" d="M3 17.3077V14.0769C3 11.273 5.46243 9 8.5 9H12M19 2L2 19M7.5 9V5.375C7.5 3.51104 9.01104 2 10.875 2H13.1769C14.7281 2 16.0311 3.06283 16.3973 4.5" stroke="#4E5964" stroke-width="1.5" stroke-linecap="round"/>
</svg>
