<svg width="24" height="24" viewBox="0 0 24 24" fill="none" xmlns="http://www.w3.org/2000/svg">
<path d="M4.5 19.4076C4.65677 19.5609 4.82378 19.7052 5 19.8395C5.95094 20.5645 7.17037 21 8.5 21H15.5C18.5376 21 21 18.727 21 15.9231V14.0769C21 11.273 18.5376 9 15.5 9H15" stroke="#4E5964" stroke-width="1.5" stroke-linecap="round"/>
<path d="M16.5 9V8" stroke="#4E5964" stroke-width="1.5" stroke-linecap="round"/>
<path opacity="0.4" d="M12 18V15.5M13.1496 13.8502C13.1496 14.4853 12.6347 15.0002 11.9996 15.0002C11.3645 15.0002 10.8496 14.4853 10.8496 13.8502C10.8496 13.2151 11.3645 12.7002 11.9996 12.7002C12.6347 12.7002 13.1496 13.2151 13.1496 13.8502Z" stroke="#4E5964" stroke-width="1.5" stroke-linecap="round"/>
<path opacity="0.4" d="M3 17.3077V14.0769C3 11.273 5.46243 9 8.5 9H12M19 2L2 19M7.5 9V5.375C7.5 3.51104 9.01104 2 10.875 2H13.1769C14.7281 2 16.0311 3.06283 16.3973 4.5" stroke="#4E5964" stroke-width="1.5" stroke-linecap="round"/>
</svg>
