<svg width="24" height="24" viewBox="0 0 24 24" fill="none" xmlns="http://www.w3.org/2000/svg">
<path d="M5.75195 20.0529C6.68493 20.6507 7.7943 20.9973 8.98462 20.9973H14.9846C18.2983 20.9973 20.9846 18.311 20.9846 14.9973V14.6223C20.9846 11.9099 19.0647 9.64584 16.5098 9.11499" stroke="#4E5964" stroke-width="1.5" stroke-linecap="round"/>
<path opacity="0.5" d="M19.0156 2.00269L2.01562 19.0027M8.01562 9.00258V5.89543C8.01562 4.29775 9.37428 3.00258 11.0503 3.00258H13.12C14.3844 3.00258 15.4653 3.75118 15.9017 4.80878M15.9017 4.80878C15.9467 4.91787 15.9848 5.03025 16.0156 5.14543L15.9017 4.80878ZM12.0092 9.00246H8.64001C5.53341 9.00246 3.01501 11.5209 3.01501 14.6275V15.0025C3.01501 15.8512 3.19126 16.6589 3.50916 17.3907" stroke="#4E5964" stroke-width="1.5" stroke-linecap="round"/>
<path d="M12.166 16.4973V13.9973" stroke="#4E5964" stroke-width="1.5" stroke-linecap="round"/>
</svg>
