<svg width="24" height="24" viewBox="0 0 24 24" fill="none" xmlns="http://www.w3.org/2000/svg">
<path opacity="0.4" d="M18.2921 4.61189C17.5927 4.21345 16.8115 4.00001 16.0105 4C14.6872 3.99998 13.418 4.58243 12.4823 5.6192L11.9998 6.15379L11.5174 5.6192C9.56889 3.46042 6.40986 3.46042 4.46138 5.6192C3.52567 6.65594 3 8.06205 3 9.52822C3 10.9944 3.52567 12.4005 4.46138 13.4372L8 17.358" stroke="#4E5964" stroke-width="1.5" stroke-linecap="round" stroke-linejoin="round"/>
<path d="M18.2921 4.61182C18.7481 4.8716 19.1693 5.21003 19.5386 5.61923C20.4743 6.65596 21 8.06208 21 9.52824C21 10.9944 20.4743 12.4005 19.5386 13.4373L14.7577 18.7343C14.0263 19.5447 13.0343 19.9999 12 19.9999C10.9656 19.9999 9.97366 19.5447 9.24227 18.7343L8 17.3579" stroke="#4E5964" stroke-width="1.5" stroke-linecap="round" stroke-linejoin="round"/>
</svg>
