<svg width="24" height="24" viewBox="0 0 24 24" fill="none" xmlns="http://www.w3.org/2000/svg">
<rect x="2.33594" y="18.104" width="16.9753" height="4.23802" rx="2.11901" transform="rotate(-45.4829 2.33594 18.104)" stroke="#4E5964" stroke-width="1.5"/>
<path opacity="0.4" d="M8.70663 3.22233C8.79897 2.92589 9.20103 2.92589 9.29337 3.22233L9.55404 4.05917C9.59533 4.19174 9.71377 4.2815 9.8474 4.2815H10.6909C10.9898 4.2815 11.114 4.68036 10.8723 4.86357L10.1898 5.38077C10.0817 5.4627 10.0365 5.60794 10.0778 5.74051L10.3384 6.57735C10.4308 6.87379 10.1055 7.1203 9.86375 6.93709L9.18131 6.41989C9.0732 6.33796 8.9268 6.33796 8.81869 6.41989L8.13625 6.93709C7.8945 7.1203 7.56923 6.87379 7.66157 6.57735L7.92224 5.74051C7.96354 5.60794 7.9183 5.4627 7.81018 5.38077L7.12774 4.86357C6.886 4.68036 7.01024 4.2815 7.30906 4.2815H8.1526C8.28623 4.2815 8.40467 4.19174 8.44596 4.05917L8.70663 3.22233Z" stroke="#4E5964"/>
<path opacity="0.4" d="M18.7066 11.2223C18.799 10.9259 19.201 10.9259 19.2934 11.2223L19.554 12.0592C19.5953 12.1917 19.7138 12.2815 19.8474 12.2815H20.6909C20.9898 12.2815 21.114 12.6804 20.8723 12.8636L20.1898 13.3808C20.0817 13.4627 20.0365 13.6079 20.0778 13.7405L20.3384 14.5774C20.4308 14.8738 20.1055 15.1203 19.8638 14.9371L19.1813 14.4199C19.0732 14.338 18.9268 14.338 18.8187 14.4199L18.1362 14.9371C17.8945 15.1203 17.5692 14.8738 17.6616 14.5774L17.9222 13.7405C17.9635 13.6079 17.9183 13.4627 17.8102 13.3808L17.1277 12.8636C16.886 12.6804 17.0102 12.2815 17.3091 12.2815H18.1526C18.2862 12.2815 18.4047 12.1917 18.446 12.0592L18.7066 11.2223Z" stroke="#4E5964"/>
</svg>
