<svg width="24" height="24" viewBox="0 0 24 24" fill="none" xmlns="http://www.w3.org/2000/svg">
<rect x="2.33789" y="18.104" width="16.9753" height="4.23802" rx="2.11901" transform="rotate(-45.4829 2.33789 18.104)" stroke="#4E5964" stroke-width="1.5"/>
<path opacity="0.4" d="M8.70859 3.22233C8.80093 2.92589 9.20298 2.92589 9.29532 3.22233L9.55599 4.05917C9.59728 4.19174 9.71572 4.2815 9.84936 4.2815H10.6929C10.9917 4.2815 11.116 4.68036 10.8742 4.86357L10.1918 5.38077C10.0837 5.4627 10.0384 5.60794 10.0797 5.74051L10.3404 6.57735C10.4327 6.87379 10.1075 7.1203 9.8657 6.93709L9.18326 6.41989C9.07515 6.33796 8.92876 6.33796 8.82064 6.41989L8.1382 6.93709C7.89645 7.1203 7.57119 6.87379 7.66352 6.57735L7.92419 5.74051C7.96549 5.60794 7.92025 5.4627 7.81214 5.38077L7.1297 4.86357C6.88795 4.68036 7.01219 4.2815 7.31101 4.2815H8.15455C8.28819 4.2815 8.40662 4.19174 8.44792 4.05917L8.70859 3.22233Z" stroke="#4E5964"/>
<path opacity="0.4" d="M18.7086 11.2223C18.8009 10.9259 19.203 10.9259 19.2953 11.2223L19.556 12.0592C19.5973 12.1917 19.7157 12.2815 19.8494 12.2815H20.6929C20.9917 12.2815 21.116 12.6804 20.8742 12.8636L20.1918 13.3808C20.0837 13.4627 20.0384 13.6079 20.0797 13.7405L20.3404 14.5774C20.4327 14.8738 20.1075 15.1203 19.8657 14.9371L19.1833 14.4199C19.0752 14.338 18.9288 14.338 18.8206 14.4199L18.1382 14.9371C17.8965 15.1203 17.5712 14.8738 17.6635 14.5774L17.9242 13.7405C17.9655 13.6079 17.9203 13.4627 17.8121 13.3808L17.1297 12.8636C16.888 12.6804 17.0122 12.2815 17.311 12.2815H18.1546C18.2882 12.2815 18.4066 12.1917 18.4479 12.0592L18.7086 11.2223Z" stroke="#4E5964"/>
</svg>
