<svg width="24" height="24" viewBox="0 0 24 24" fill="none" xmlns="http://www.w3.org/2000/svg">
<path d="M2 9.5C2 6.46243 4.46243 4 7.5 4H16.5C19.5376 4 22 6.46243 22 9.5V14.5C22 17.5376 19.5376 20 16.5 20H3C2.44772 20 2 19.5523 2 19V9.5Z" stroke="#4E5964" stroke-width="1.5"/>
<path d="M7 10.6096C7 9.72386 7.67456 9 8.5 9C9.32544 9 10 9.72386 10 10.6096C10 12.4 7.63017 12.5905 7.1065 14.2953C7 14.6476 7.27514 15 7.6213 15H10" stroke="#8C99A6" stroke-width="1.5" stroke-linecap="round" stroke-linejoin="round"/>
<path d="M16.1075 15V9.55511C16.1075 9.30718 15.9494 9.0878 15.717 9.02105C15.4846 8.9543 15.2336 9.04966 15.1034 9.25944C14.4341 10.3656 13.7089 11.6243 13.0767 12.7305C12.9744 12.9117 12.9744 13.1501 13.0767 13.3312C13.179 13.5124 13.3742 13.6268 13.588 13.6268H17" stroke="#8C99A6" stroke-width="1.5" stroke-linecap="round" stroke-linejoin="round"/>
</svg>
