<svg width="24" height="24" viewBox="0 0 24 24" fill="none" xmlns="http://www.w3.org/2000/svg">
<path d="M3 8.5C3 6.01472 5.01472 4 7.5 4H16.5C18.9853 4 21 6.01472 21 8.5V15.5C21 17.9853 18.9853 20 16.5 20H4C3.44772 20 3 19.5523 3 19V8.5Z" stroke="#4E5964" stroke-width="1.5"/>
<g opacity="0.4">
<path d="M6.04605 15.464V14.324C6.04605 13.868 6.24205 13.48 6.63405 13.16L8.84205 11.288C9.20205 10.992 9.38205 10.672 9.38205 10.328V9.968C9.38205 9.72 9.32205 9.544 9.20205 9.44C9.09005 9.328 8.90205 9.272 8.63805 9.272H8.21805C7.96205 9.272 7.78205 9.328 7.67805 9.44C7.57405 9.544 7.52205 9.72 7.52205 9.968V10.352C7.52205 10.528 7.43805 10.616 7.27005 10.616H6.25005C6.08205 10.616 5.99805 10.528 5.99805 10.352V9.944C5.99805 9.32 6.17005 8.84 6.51405 8.504C6.85805 8.168 7.34605 8 7.97805 8H8.89005C9.52205 8 10.01 8.168 10.354 8.504C10.698 8.84 10.87 9.32 10.87 9.944V10.424C10.87 11.048 10.63 11.564 10.15 11.972L7.89405 13.892C7.79805 13.98 7.75005 14.076 7.75005 14.18V14.372H10.618C10.786 14.372 10.87 14.456 10.87 14.624V15.464C10.87 15.632 10.786 15.716 10.618 15.716H6.29805C6.13005 15.716 6.04605 15.632 6.04605 15.464Z" fill="#4E5964"/>
<path d="M15.216 12.992V9.284L13.272 12.992H15.216ZM16.404 15.716H15.468C15.3 15.716 15.216 15.632 15.216 15.464V14.312H12.24C12.104 14.312 11.996 14.272 11.916 14.192C11.836 14.112 11.796 14.004 11.796 13.868V13.4C11.796 13.16 11.836 12.964 11.916 12.812L14.304 8.372C14.384 8.228 14.456 8.132 14.52 8.084C14.592 8.028 14.696 8 14.832 8H16.188C16.324 8 16.432 8.04 16.512 8.12C16.6 8.2 16.644 8.308 16.644 8.444V12.992H17.508C17.668 12.992 17.748 13.072 17.748 13.232V14.036C17.748 14.22 17.668 14.312 17.508 14.312H16.644V15.464C16.644 15.56 16.624 15.628 16.584 15.668C16.552 15.7 16.492 15.716 16.404 15.716Z" fill="#4E5964"/>
</g>
</svg>
