<svg width="24" height="24" viewBox="0 0 24 24" fill="none" xmlns="http://www.w3.org/2000/svg">
<path d="M3 8.5C3 6.01472 5.01472 4 7.5 4H16.5C18.9853 4 21 6.01472 21 8.5V15.5C21 17.9853 18.9853 20 16.5 20H4C3.44772 20 3 19.5523 3 19V8.5Z" stroke="#4E5964" stroke-width="1.5"/>
<path opacity="0.4" d="M6.5957 10.5263V10.0556C6.5957 9.19645 7.29215 8.5 8.15126 8.5H8.92904C9.78814 8.5 10.4846 9.19645 10.4846 10.0556V10.5423C10.4846 11.1018 10.1841 11.6182 9.69774 11.8946L7.38256 13.2106C6.89616 13.4871 6.5957 14.0035 6.5957 14.563V15.5H10.4846" stroke="#4E5964" stroke-width="1.5" stroke-linecap="round" stroke-linejoin="round"/>
<path opacity="0.4" d="M17.151 14.0641H12.4844L15.9412 8.5V15.5" stroke="#4E5964" stroke-width="1.5" stroke-linecap="round" stroke-linejoin="round"/>
</svg>
