<svg width="24" height="24" viewBox="0 0 24 24" fill="none" xmlns="http://www.w3.org/2000/svg">
<path d="M2 9.5C2 6.46243 4.46243 4 7.5 4H16.5C19.5376 4 22 6.46243 22 9.5V14.5C22 17.5376 19.5376 20 16.5 20H3C2.44772 20 2 19.5523 2 19V9.5Z" stroke="#4E5964" stroke-width="1.5"/>
<path opacity="0.64" d="M12.1219 12.4763C12.1219 11.5 12.3758 11.4254 12.8256 11.0517L13.4823 10.506C14.3516 9.78376 14.0878 8.53671 12.978 8.12175C12.7633 8.04145 12.5314 8 12.2971 8H12.1945C10.9825 8 10 8.84186 10 9.88034" stroke="#4E5964" stroke-width="1.5" stroke-linecap="round"/>
<path opacity="0.64" d="M11 15C11 14.4477 11.4477 14 12 14C12.5523 14 13 14.4477 13 15C13 15.5523 12.5523 16 12 16C11.4477 16 11 15.5523 11 15Z" stroke="#4E5964"/>
</svg>
