<svg width="24" height="24" viewBox="0 0 24 24" fill="none" xmlns="http://www.w3.org/2000/svg">
<path d="M12 21L12 18" stroke="#4E5964" stroke-width="1.5" stroke-linecap="round"/>
<path d="M8.40039 21H15.6004" stroke="#4E5964" stroke-width="1.5" stroke-linecap="round"/>
<path d="M19 11V11.0813C19 14.9024 15.9024 18 12.0813 18H11.8692C10.4687 18 9.16619 17.5809 8.08008 16.8613" stroke="#4E5964" stroke-width="1.5" stroke-linecap="round"/>
<path d="M9.86719 14.9637C10.5018 15.3059 11.228 15.5 11.9995 15.5C14.4847 15.5 16.4995 13.4853 16.4995 11V8.5V8.375" stroke="#4E5964" stroke-width="1.5" stroke-linecap="round"/>
<path opacity="0.4" d="M5 11V11.0813C5 12.7069 5.56061 14.2015 6.49904 15.3824M8 8H10M16 5.5C15 3.5 13.5602 3 12 3C9.51472 3 7.5 5.01472 7.5 7.5V11C7.5 11.9866 7.81751 12.8991 8.35593 13.6408M20.0922 2L3 18.9663" stroke="#4E5964" stroke-width="1.5" stroke-linecap="round" stroke-linejoin="round"/>
</svg>
