<svg width="24" height="24" viewBox="0 0 24 24" fill="none" xmlns="http://www.w3.org/2000/svg">
<path d="M12 21L12 18" stroke="#4E5964" stroke-width="1.5" stroke-linecap="round"/>
<path d="M8.40039 21H15.6004" stroke="#4E5964" stroke-width="1.5" stroke-linecap="round"/>
<path d="M19 11V11.0813C19 14.9024 15.9024 18 12.0813 18H11.8692C10.2096 18 8.68737 17.4114 7.5 16.4316" stroke="#4E5964" stroke-width="1.5" stroke-linecap="round"/>
<path d="M16.4999 7.5V11C16.4999 13.4853 14.4852 15.5 11.9999 15.5C10.9555 15.5 9.9941 15.1442 9.23047 14.5471" stroke="#4E5964" stroke-width="1.5" stroke-linecap="round"/>
<path opacity="0.64" d="M8 8H10M18.5 2.5L4 16.5M5 11.0813V11.1307C5 11.5996 5.04697 12.0575 5.13647 12.5M7.5 12.6891V7.5C7.5 5.01472 9.51472 3 12 3C13.3327 3 14.5302 3.57938 15.3542 4.5" stroke="#4E5964" stroke-width="1.5" stroke-linecap="round"/>
</svg>
