<svg width="24" height="24" viewBox="0 0 24 24" fill="none" xmlns="http://www.w3.org/2000/svg">
<path d="M12 21L12 18" stroke="#4E5964" stroke-width="1.5" stroke-linecap="round"/>
<path d="M5 11.0813V11.1308C5 14.9245 8.07545 18 11.8692 18H12.0813C15.9024 18 19 14.9024 19 11.0813V11" stroke="#4E5964" stroke-width="1.5" stroke-linecap="round"/>
<path d="M8.40039 21H15.6004" stroke="#4E5964" stroke-width="1.5" stroke-linecap="round"/>
<path opacity="0.4" d="M8 5.99984H11.5M8 8.99984H11.5M8 11.9998H11.5M12 2.99976C14.4853 2.99976 16.5 5.01447 16.5 7.49976V10.9998C16.5 13.485 14.4853 15.4998 12 15.4998C9.51472 15.4998 7.5 13.485 7.5 10.9998V7.49976C7.5 5.01447 9.51472 2.99976 12 2.99976Z" stroke="#4E5964" stroke-width="1.5" stroke-linecap="round"/>
</svg>
