<svg width="24" height="24" viewBox="0 0 24 24" fill="none" xmlns="http://www.w3.org/2000/svg">
<path d="M12 21L12 18" stroke="#4E5964" stroke-width="1.5" stroke-linecap="round"/>
<path d="M5 11.0813V11.1308V11.1308C5 14.9245 8.07545 18 11.8692 18H12.0813C15.9024 18 19 14.9024 19 11.0813V11.0813V11" stroke="#4E5964" stroke-width="1.5" stroke-linecap="round"/>
<path d="M8.40039 21H15.6004" stroke="#4E5964" stroke-width="1.5" stroke-linecap="round"/>
<path opacity="0.64" d="M15 6H16M8 8H10M12 3C14.4853 3 16.5 5.01472 16.5 7.5V11.5C16.5 13.9853 14.4853 16 12 16C9.51472 16 7.5 13.9853 7.5 11.5V7.5C7.5 5.01472 9.51472 3 12 3Z" stroke="#4E5964" stroke-width="1.5" stroke-linecap="round"/>
</svg>
