<svg width="24" height="24" viewBox="0 0 24 24" fill="none" xmlns="http://www.w3.org/2000/svg">
<path d="M12 21L12 18.0811" stroke="#4E5964" stroke-width="1.5" stroke-linecap="round"/>
<path d="M8.40039 21H15.6004" stroke="#4E5964" stroke-width="1.5" stroke-linecap="round"/>
<path d="M19 11.2703V11.3494C19 15.0672 15.9024 18.0811 12.0813 18.0811H11.8692C10.2096 18.0811 8.68737 17.5084 7.5 16.5551" stroke="#4E5964" stroke-width="1.5" stroke-linecap="round"/>
<path d="M16.4999 7.86487V11.2703C16.4999 13.6884 14.4852 15.6487 11.9999 15.6487C10.9555 15.6487 9.9941 15.3024 9.23047 14.7215" stroke="#4E5964" stroke-width="1.5" stroke-linecap="round"/>
<path opacity="0.4" d="M8 8.35135H10M18.5 3L4 16.6216M5 11.3494V11.3975C5 11.8537 5.04697 12.2992 5.13647 12.7297M7.5 12.9137V7.86486C7.5 5.44675 9.51472 3.48649 12 3.48649C13.3327 3.48649 14.5302 4.0502 15.3542 4.94595" stroke="#4E5964" stroke-width="1.5" stroke-linecap="round"/>
</svg>
