<svg width="24" height="24" viewBox="0 0 24 24" fill="none" xmlns="http://www.w3.org/2000/svg">
<path d="M7.5 7.5C7.5 5.01472 9.51472 3 12 3C14.4853 3 16.5 5.01472 16.5 7.5V11C16.5 13.4853 14.4853 15.5 12 15.5C9.51472 15.5 7.5 13.4853 7.5 11V7.5Z" stroke="#4E5964" stroke-width="1.5"/>
<path opacity="0.4" d="M12 21V18M5 11.0813V11.1308C5 14.9245 8.07545 18 11.8692 18H12.0813C15.9024 18 19 14.9024 19 11.0813V11M8.40039 21H15.6004" stroke="#4E5964" stroke-width="1.5" stroke-linecap="round"/>
<path opacity="0.4" d="M15 6L16 6" stroke="#4E5964" stroke-width="1.5" stroke-linecap="round"/>
<path opacity="0.4" d="M8 8H10" stroke="#4E5964" stroke-width="1.5" stroke-linecap="round"/>
</svg>
