<svg width="24" height="24" viewBox="0 0 24 24" fill="none" xmlns="http://www.w3.org/2000/svg">
<path d="M12 21L12 18" stroke="#4E5964" stroke-width="1.5" stroke-linecap="round"/>
<path d="M8.40039 21H15.6004" stroke="#4E5964" stroke-width="1.5" stroke-linecap="round"/>
<path d="M19 11V11.0813C19 14.9024 15.9024 18 12.0813 18H11.8692C10.4687 18 9.16619 17.5809 8.08008 16.8613" stroke="#4E5964" stroke-width="1.5" stroke-linecap="round"/>
<path d="M9.86719 14.9637C10.5018 15.3059 11.228 15.5 11.9995 15.5C14.4847 15.5 16.4995 13.4853 16.4995 11V8.375" stroke="#4E5964" stroke-width="1.5" stroke-linecap="round"/>
<path opacity="0.4" d="M20.0922 2L3 18.9663M16 5.49951C15 3.49951 13.5602 2.99951 12 2.99951C9.51472 2.99951 7.5 5.01423 7.5 7.49951V11.5853C7.5 12.3321 7.74465 13.0536 8.18955 13.6428M8 5.99976H11.5M8 8.99976H11.5M5 10.9946V11.0441C5 11.5129 5.03534 11.9133 5.13647 12.4133C5.23761 12.9133 5.71717 13.9657 6.41618 15.0457" stroke="#4E5964" stroke-width="1.5" stroke-linecap="round"/>
</svg>
