<svg width="24" height="24" viewBox="0 0 24 24" fill="none" xmlns="http://www.w3.org/2000/svg">
<path d="M19.9443 15.2882C22.4798 16.7471 19.94 20.7393 17.7295 20.9574C10.6635 21.6546 3.36668 13.6609 3.00451 6.91544C2.88967 4.77641 6.67119 1.41378 8.39376 3.84934C9.31159 5.14707 10.6573 7.08009 9.18945 8.625" stroke="#4E5964" stroke-width="1.5" stroke-linecap="round" stroke-linejoin="round"/>
<path opacity="0.4" d="M15.377 14.8125C12.982 17.3332 6.78532 11.1553 9.18945 8.625C10.6573 7.08009 9.31159 5.14707 8.39376 3.84934C6.67119 1.41378 2.88967 4.77641 3.00451 6.91544C3.36668 13.6609 10.6635 21.6546 17.7295 20.9574C19.94 20.7393 22.4798 16.7471 19.9443 15.2882C18.6764 14.5587 16.7112 13.4082 15.377 14.8125Z" stroke="#4E5964" stroke-width="1.5" stroke-linecap="round" stroke-linejoin="round"/>
<path opacity="0.4" d="M15.002 7.49609L17.9956 7.49609" stroke="#4E5964" stroke-width="1.5" stroke-linecap="round" stroke-linejoin="round"/>
</svg>
