<svg width="24" height="24" viewBox="0 0 24 24" fill="none" xmlns="http://www.w3.org/2000/svg">
<path d="M5.34541 13.0441C3.99506 11.9513 3.78627 9.97076 4.87906 8.62041L7.2647 5.67253C8.35749 4.32218 10.338 4.11339 11.6884 5.20619L18.5552 10.7633C19.9056 11.8561 20.1144 13.8367 19.0216 15.187L16.6359 18.1349C15.5432 19.4852 13.5626 19.694 12.2123 18.6012L5.34541 13.0441Z" stroke="#4E5964" stroke-width="1.5"/>
<path opacity="0.4" d="M7.34375 10.248L9.69288 7.34527" stroke="#4E5964" stroke-width="1.5" stroke-linecap="round"/>
<path opacity="0.4" d="M20.1545 5.56747L20.3804 8.9604C20.3804 8.9604 18.3233 6.12495 16.9188 4.89327C15.4273 3.58532 13 2.61719 13 2.61719" stroke="#4E5964" stroke-width="1.5" stroke-linecap="round" stroke-linejoin="round"/>
<path opacity="0.4" d="M3.62837 15.0002L3.91383 18.4731M11.2786 21.3858C11.2786 21.3858 8.51185 20.1584 6.95759 18.8381C5.53053 17.6258 3.62695 15 3.62695 15" stroke="#4E5964" stroke-width="1.5" stroke-linecap="round" stroke-linejoin="round"/>
<path opacity="0.4" d="M16.5016 14.5C16.5016 15.1628 15.9643 15.7 15.3016 15.7C14.6388 15.7 14.1016 15.1628 14.1016 14.5C14.1016 13.8373 14.6388 13.3 15.3016 13.3C15.9643 13.3 16.5016 13.8373 16.5016 14.5Z" stroke="#4E5964" stroke-width="1.5"/>
</svg>
