<svg width="24" height="24" viewBox="0 0 24 24" fill="none" xmlns="http://www.w3.org/2000/svg">
<path d="M5 7C5 4.79086 6.79086 3 9 3H15C17.2091 3 19 4.79086 19 7V17C19 19.2091 17.2091 21 15 21H9C6.79086 21 5 19.2091 5 17V7Z" stroke="#4E5964" stroke-width="1.5"/>
<path opacity="0.4" d="M9 3L9.99049 4.54076C10.1745 4.82698 10.4914 5 10.8317 5H13.1683C13.5086 5 13.8255 4.82698 14.0095 4.54076L15 3" stroke="#4E5964" stroke-width="1.5"/>
<path opacity="0.4" d="M13.4 17.2C13.4 17.8627 12.8627 18.4 12.2 18.4C11.5373 18.4 11 17.8627 11 17.2C11 16.5373 11.5373 16 12.2 16C12.8627 16 13.4 16.5373 13.4 17.2Z" stroke="#4E5964" stroke-width="1.5"/>
</svg>
