<svg width="24" height="24" viewBox="0 0 24 24" fill="none" xmlns="http://www.w3.org/2000/svg">
<path fill-rule="evenodd" clip-rule="evenodd" d="M11.5357 12.4659C9.16762 10.0344 9.04466 5.91618 10.5357 2.86708C10.6289 2.6451 10.5864 2.38927 10.4263 2.20943C10.2662 2.02958 10.0171 1.95771 9.78578 2.02468C8.00485 2.48374 6.37926 3.41115 5.07775 4.71062C1.04945 8.63515 0.96441 15.0821 4.88778 19.1115C8.9167 23.0354 15.3634 22.9509 19.2881 18.9228C20.5882 17.6221 21.5161 15.9967 21.9752 14.2158C22.0425 13.9842 21.9705 13.7345 21.7902 13.5743C21.61 13.4141 21.3536 13.3719 21.1315 13.4659C18.0839 14.9563 13.9663 14.8326 11.5357 12.4659Z" stroke="#4E5964" stroke-width="1.5" stroke-linecap="round" stroke-linejoin="round"/>
</svg>
