<svg width="25" height="25" viewBox="0 0 25 25" fill="none" xmlns="http://www.w3.org/2000/svg">
<path opacity="0.4" d="M9.07865 16.744C8.1558 16.2728 7.37969 15.5513 6.83645 14.6596C6.29321 13.7679 6.00409 12.7409 6.00117 11.6925C5.99825 10.6441 6.28165 9.61532 6.81991 8.72037C7.35818 7.82543 8.13025 7.0993 9.05047 6.62257C9.97068 6.14584 11.003 5.93715 12.033 6.01966C13.0629 6.10218 14.0501 6.47266 14.8851 7.09001C15.72 7.70736 16.3701 8.54742 16.763 9.51697" stroke="#4E5964" stroke-width="1.5" stroke-linecap="round" stroke-dasharray="5 20"/>
<path d="M17.5357 17.6989L17.1374 18.0804C16.8075 18.3963 16.2839 18.3849 15.9679 18.055L14.568 16.5931C14.207 16.2161 13.5914 16.2636 13.2925 16.6915L13.2669 16.7282C12.8661 17.3021 11.9781 17.1497 11.7916 16.4751L10.4995 11.8026C10.324 11.1677 10.9248 10.5924 11.5515 10.7953L16.1636 12.2886C16.8295 12.5042 16.9433 13.3979 16.3526 13.7735L16.3148 13.7975C15.8744 14.0775 15.8002 14.6905 16.1612 15.0675L17.5611 16.5294C17.877 16.8594 17.8657 17.383 17.5357 17.6989Z" stroke="#4E5964" stroke-width="1.5"/>
<rect x="3.02344" y="3.27612" width="18" height="18" rx="4.5" stroke="#4E5964" stroke-width="1.5"/>
</svg>
