<svg width="24" height="24" viewBox="0 0 24 24" fill="none" xmlns="http://www.w3.org/2000/svg">
<path opacity="0.4" d="M9.06108 16.4684C8.13823 15.9972 7.36211 15.2757 6.81887 14.384C6.27563 13.4923 5.98651 12.4652 5.98359 11.4168C5.98067 10.3684 6.26407 9.33968 6.80233 8.44474C7.3406 7.54979 8.11268 6.82367 9.03289 6.34693C9.9531 5.8702 10.9855 5.66151 12.0154 5.74403C13.0453 5.82654 14.0325 6.19703 14.8675 6.81438C15.7024 7.43173 16.3525 8.27179 16.7455 9.24134" stroke="#4E5964" stroke-width="1.5" stroke-linecap="round" stroke-dasharray="5 20"/>
<path d="M17.5182 17.4233L17.1198 17.8047C16.7899 18.1207 16.2663 18.1093 15.9504 17.7794L14.5505 16.3175C14.1895 15.9405 13.5738 15.988 13.275 16.4159L13.2493 16.4526C12.8485 17.0264 11.9606 16.8741 11.774 16.1994L10.4819 11.527C10.3064 10.8921 10.9073 10.3167 11.5339 10.5196L16.146 12.0129C16.8119 12.2285 16.9257 13.1223 16.335 13.4978L16.2972 13.5218C15.8568 13.8019 15.7826 14.4149 16.1436 14.7919L17.5435 16.2538C17.8595 16.5837 17.8481 17.1073 17.5182 17.4233Z" stroke="#4E5964" stroke-width="1.5"/>
<rect x="3.00586" y="3.00049" width="18" height="18" rx="4.5" stroke="#4E5964" stroke-width="1.5"/>
</svg>
