<svg width="25" height="24" viewBox="0 0 25 24" fill="none" xmlns="http://www.w3.org/2000/svg">
<path d="M7.56008 18.8277C6.19895 18.1396 5.05231 17.0823 4.24742 15.773C3.44253 14.4638 3.01086 12.9538 3.00032 11.4107C2.98978 9.86764 3.40078 8.35175 4.18771 7.0313C4.97464 5.71085 6.10673 4.63749 7.45833 3.93032C8.80992 3.22315 10.3282 2.90984 11.8446 3.02516C13.361 3.14047 14.8163 3.67991 16.0489 4.5836C17.2815 5.48729 18.2433 6.71989 18.8275 8.14461" stroke="#4E5964" stroke-width="1.82622" stroke-linecap="round"/>
<path opacity="0.4" d="M19.9468 19.8122L19.3604 20.3737C18.8748 20.8387 18.1041 20.822 17.6391 20.3364L15.5786 18.1846C15.0473 17.6297 14.1411 17.6996 13.7012 18.3295L13.6635 18.3835C13.0736 19.2281 11.7666 19.0039 11.492 18.0109L9.59022 11.1336C9.33181 10.1991 10.2162 9.35219 11.1386 9.65085L17.9271 11.8488C18.9072 12.1662 19.0747 13.4816 18.2053 14.0344L18.1497 14.0698C17.5014 14.482 17.3922 15.3842 17.9236 15.9391L19.9841 18.0909C20.4491 18.5765 20.4324 19.3472 19.9468 19.8122Z" stroke="#4E5964" stroke-width="1.82622"/>
</svg>
