<svg width="24" height="24" viewBox="0 0 24 24" fill="none" xmlns="http://www.w3.org/2000/svg">
<path d="M7.53664 18.8277C6.17551 18.1396 5.02887 17.0823 4.22398 15.773C3.41909 14.4638 2.98742 12.9538 2.97688 11.4107C2.96635 9.86764 3.37735 8.35175 4.16428 7.0313C4.95121 5.71085 6.08329 4.63749 7.43489 3.93032C8.78649 3.22315 10.3047 2.90984 11.8212 3.02516C13.3376 3.14047 14.7929 3.67991 16.0255 4.5836C17.2581 5.48729 18.2199 6.71989 18.8041 8.14461" stroke="#4E5964" stroke-width="1.82622" stroke-linecap="round"/>
<path opacity="0.4" d="M19.9233 19.8122L19.337 20.3737C18.8514 20.8387 18.0807 20.822 17.6157 20.3364L15.5552 18.1846C15.0238 17.6297 14.1177 17.6996 13.6778 18.3295L13.6401 18.3835C13.0501 19.2281 11.7431 19.0039 11.4686 18.0109L9.56679 11.1336C9.30837 10.1991 10.1928 9.35219 11.1152 9.65085L17.9037 11.8488C18.8838 12.1662 19.0512 13.4816 18.1818 14.0344L18.1262 14.0698C17.4779 14.482 17.3688 15.3842 17.9001 15.9391L19.9606 18.0909C20.4257 18.5765 20.409 19.3472 19.9233 19.8122Z" stroke="#4E5964" stroke-width="1.82622"/>
</svg>
