<svg width="24" height="24" viewBox="0 0 24 24" fill="none" xmlns="http://www.w3.org/2000/svg">
<g clip-path="url(#clip0_11504_3555)">
<path d="M17.5182 17.4233L17.1198 17.8047C16.7899 18.1207 16.2663 18.1093 15.9504 17.7794L14.5505 16.3175C14.1895 15.9405 13.5738 15.988 13.275 16.4159L13.2493 16.4526C12.8485 17.0264 11.9606 16.8741 11.774 16.1994L10.4819 11.527C10.3064 10.8921 10.9073 10.3167 11.5339 10.5196L16.146 12.0129C16.8119 12.2285 16.9257 13.1223 16.335 13.4978L16.2972 13.5218C15.8568 13.8019 15.7826 14.4149 16.1436 14.7919L17.5435 16.2538C17.8595 16.5837 17.8481 17.1073 17.5182 17.4233Z" stroke="#4E5964" stroke-width="1.5" stroke-linecap="round"/>
<rect x="3.00586" y="3.00049" width="18" height="18" rx="4.5" stroke="#4E5964" stroke-width="1.5" stroke-linecap="round"/>
<g opacity="0.4" filter="url(#filter0_d_11504_3555)">
<path d="M16.6397 8.95341C16.6824 9.0399 16.723 9.12744 16.7613 9.21596M14.6098 6.67356C14.789 6.7896 14.9616 6.91553 15.1268 7.05077M11.6909 5.75366C11.9042 5.76133 12.117 5.78087 12.3282 5.8122M8.72455 6.45556C8.91184 6.3531 9.10469 6.26114 9.30221 6.18012M6.51496 8.6073C6.62236 8.42279 6.73996 8.24441 6.86719 8.07298M5.73922 11.736C5.73046 11.5226 5.73358 11.309 5.74858 11.0961M6.75495 14.7703C6.63352 14.5947 6.52198 14.4125 6.42082 14.2245M8.94436 16.6585C8.85235 16.6132 8.76157 16.5655 8.67211 16.5153" stroke="#4E5964" stroke-width="1.5" stroke-linecap="round"/>
</g>
</g>
<defs>
<filter id="filter0_d_11504_3555" x="0.984375" y="5.00366" width="20.5273" height="20.405" filterUnits="userSpaceOnUse" color-interpolation-filters="sRGB">
<feFlood flood-opacity="0" result="BackgroundImageFix"/>
<feColorMatrix in="SourceAlpha" type="matrix" values="0 0 0 0 0 0 0 0 0 0 0 0 0 0 0 0 0 0 127 0" result="hardAlpha"/>
<feOffset dy="4"/>
<feGaussianBlur stdDeviation="2"/>
<feComposite in2="hardAlpha" operator="out"/>
<feColorMatrix type="matrix" values="0 0 0 0 0 0 0 0 0 0 0 0 0 0 0 0 0 0 0.25 0"/>
<feBlend mode="normal" in2="BackgroundImageFix" result="effect1_dropShadow_11504_3555"/>
<feBlend mode="normal" in="SourceGraphic" in2="effect1_dropShadow_11504_3555" result="shape"/>
</filter>
<clipPath id="clip0_11504_3555">
<rect width="24" height="24" fill="white" transform="translate(0.00585938)"/>
</clipPath>
</defs>
</svg>
