<svg width="24" height="24" viewBox="0 0 24 24" fill="none" xmlns="http://www.w3.org/2000/svg">
<path opacity="0.4" d="M18.9102 13.7268C19.4745 13.368 19.8635 12.6217 19.8635 11.7526C19.8635 10.8835 19.4745 10.1367 18.9102 9.77344" stroke="#4E5964" stroke-width="1.5" stroke-linecap="round" stroke-linejoin="round"/>
<path opacity="0.4" d="M20.5454 15.2609C21.4234 14.4882 21.9999 13.2062 21.9999 11.7518C21.9999 10.2954 21.4225 9.01241 20.543 8.24023" stroke="#4E5964" stroke-width="1.5" stroke-linecap="round" stroke-linejoin="round"/>
<path d="M8.10547 17.9024H8.46241H9.17628C9.91824 17.9024 10.6285 18.2313 11.145 18.8141C11.6615 19.3969 12.5034 20.3468 12.5034 20.3468C13.5758 21.5569 15.3522 20.9738 15.7674 19.5131C15.8875 19.0905 15.8983 18.6433 15.9771 18.2111C16.5703 14.9563 16.7916 12.5452 16.5866 9.83987L16.5654 9.62988" stroke="#4E5964" stroke-width="1.5" stroke-linecap="round"/>
<path opacity="0.4" d="M12.4231 3.59899L11.8645 3.09847L11.8645 3.09847L12.4231 3.59899ZM11.0915 5.08499L11.65 5.58551V5.58551L11.0915 5.08499ZM3.00868 12.8605L2.26231 12.9342L3.00868 12.8605ZM3.07938 13.3633L2.34165 13.4984H2.34165L3.07938 13.3633ZM3.34499 14.3417L2.64041 14.5987H2.64042L3.34499 14.3417ZM3.63167 15L2.96366 15.341L2.96367 15.341L3.63167 15ZM3.95587 15.5562L3.33013 15.9697H3.33013L3.95587 15.5562ZM4.6772 16.4378L4.14903 16.9702L4.20944 17.0302L4.28174 17.075L4.6772 16.4378ZM15.8221 4.57458L16.5621 4.4527L16.5604 4.44234L16.5584 4.43204L15.8221 4.57458ZM15.4258 6.78367C15.4931 7.19237 15.879 7.46913 16.2877 7.40182C16.6964 7.3345 16.9732 6.94861 16.9059 6.5399L16.1658 6.66179L15.4258 6.78367ZM5.26669 17.6862C5.61864 17.9046 6.08101 17.7964 6.29942 17.4444C6.51783 17.0925 6.40957 16.6301 6.05761 16.4117L5.66215 17.049L5.26669 17.6862ZM20.6225 3.53229C20.9165 3.24048 20.9183 2.76561 20.6265 2.47163C20.3346 2.17766 19.8598 2.1759 19.5658 2.46771L20.0942 3L20.6225 3.53229ZM2.47359 19.434C2.17961 19.7258 2.17786 20.2007 2.46967 20.4947C2.76148 20.7887 3.23635 20.7904 3.53032 20.4986L3.00195 19.9663L2.47359 19.434ZM12.4231 3.59899L11.8645 3.09847L10.5329 4.58448L11.0915 5.08499L11.65 5.58551L12.9816 4.0995L12.4231 3.59899ZM9.2598 5.92672V5.17672H8.16061V5.92672V6.67672H9.2598V5.92672ZM2.97852 11.5963H2.22852V12.2459H2.97852H3.72852V11.5963H2.97852ZM8.16061 5.92672V5.17672C4.82236 5.17672 2.22852 8.11575 2.22852 11.5963H2.97852H3.72852C3.72852 8.8144 5.77487 6.67672 8.16061 6.67672V5.92672ZM11.0915 5.08499L10.5329 4.58448C10.1849 4.9729 9.72417 5.17672 9.2598 5.17672V5.92672V6.67672C10.1737 6.67672 11.0332 6.27383 11.65 5.58551L11.0915 5.08499ZM2.97852 12.2459H2.22852C2.22852 12.4782 2.23996 12.7078 2.26231 12.9342L3.00868 12.8605L3.75505 12.7868C3.73753 12.6094 3.72852 12.4289 3.72852 12.2459H2.97852ZM2.97852 12.2459L2.22942 12.2826L2.25958 12.8972L3.00868 12.8605L3.75778 12.8237L3.72761 12.2091L2.97852 12.2459ZM3.00868 12.8605L2.26231 12.9342C2.28113 13.1248 2.30769 13.313 2.34165 13.4984L3.07938 13.3633L3.81711 13.2282C3.79059 13.0834 3.7698 12.9361 3.75505 12.7868L3.00868 12.8605ZM3.07938 13.3633L2.34165 13.4984C2.37177 13.6629 2.40772 13.8252 2.44926 13.985L3.17513 13.7963L3.90101 13.6076C3.86867 13.4832 3.84063 13.3566 3.81711 13.2282L3.07938 13.3633ZM3.07938 13.3633L2.34708 13.5253L2.44283 13.9582L3.17513 13.7963L3.90744 13.6343L3.81169 13.2014L3.07938 13.3633ZM3.17513 13.7963L2.44926 13.985C2.50358 14.194 2.56747 14.3987 2.64041 14.5987L3.34499 14.3417L4.04958 14.0846C3.99299 13.9295 3.94332 13.7704 3.90101 13.6076L3.17513 13.7963ZM3.34499 14.3417L2.64042 14.5987C2.73371 14.8544 2.84182 15.1023 2.96366 15.341L3.63167 15L4.29967 14.659C4.20564 14.4748 4.12195 14.283 4.04957 14.0846L3.34499 14.3417ZM3.34499 14.3417L2.65736 14.6411L2.94403 15.2994L3.63167 15L4.3193 14.7006L4.03263 14.0422L3.34499 14.3417ZM3.63167 15L2.96367 15.341C3.07466 15.5584 3.19709 15.7683 3.33013 15.9697L3.95587 15.5562L4.58162 15.1428C4.47955 14.9883 4.38533 14.8268 4.29967 14.659L3.63167 15ZM3.95587 15.5562L3.33013 15.9697C3.44524 16.1439 3.56832 16.3117 3.69886 16.4726L4.28122 16L4.86358 15.5274C4.76407 15.4048 4.66992 15.2764 4.58162 15.1428L3.95587 15.5562ZM3.95587 15.5562L3.35101 15.9997L3.67636 16.4434L4.28122 16L4.88608 15.5566L4.56073 15.1128L3.95587 15.5562ZM4.28122 16L3.69886 16.4726C3.84034 16.6469 3.99062 16.8131 4.14903 16.9702L4.6772 16.4378L5.20537 15.9053C5.08558 15.7864 4.97144 15.6603 4.86358 15.5274L4.28122 16ZM4.28122 16L3.72502 16.5031L4.12099 16.9409L4.6772 16.4378L5.2334 15.9346L4.83742 15.4969L4.28122 16ZM15.8221 4.57458L16.5584 4.43204C16.3504 3.35764 15.5165 2.63492 14.6164 2.36931C13.7121 2.10244 12.6148 2.2612 11.8645 3.09847L12.4231 3.59899L12.9816 4.09951C13.2725 3.7749 13.7296 3.67154 14.1919 3.80797C14.6584 3.94566 15.0034 4.29166 15.0857 4.71711L15.8221 4.57458ZM15.8221 4.57458L15.082 4.69646L15.4258 6.78367L16.1658 6.66179L16.9059 6.5399L16.5621 4.4527L15.8221 4.57458ZM4.6772 16.4378L4.28174 17.075L5.26669 17.6862L5.66215 17.049L6.05761 16.4117L5.07266 15.8005L4.6772 16.4378ZM20.0942 3L19.5658 2.46771L2.47359 19.434L3.00195 19.9663L3.53032 20.4986L20.6225 3.53229L20.0942 3Z" fill="#4E5964"/>
</svg>
