<svg width="24" height="24" viewBox="0 0 24 24" fill="none" xmlns="http://www.w3.org/2000/svg">
<path d="M16.3078 11.5C16.3398 14.1397 16.1187 16.7818 15.6445 19.3896C15.5163 20.0949 14.6652 20.3876 14.1303 19.9103L10.9883 17.107" stroke="#4E5964" stroke-width="1.5" stroke-linecap="round"/>
<path opacity="0.4" d="M8.82443 15.2497C8.43099 15.0157 7.98691 14.8736 7.5255 14.8374L6.83202 14.7831C5.79125 14.7015 4.98828 13.8332 4.98828 12.7892V11.0831C4.98828 9.97854 5.88371 9.08311 6.98828 9.08311H7.38995C8.12661 9.08311 8.83752 8.81207 9.3872 8.32163L14.1305 4.08959C14.6654 3.61231 15.5165 3.90499 15.6447 4.61033C15.8685 5.84109 16.0359 7.07947 16.147 8.32163M19.9883 4.99976L5.48828 18.4998" stroke="#4E5964" stroke-width="1.5" stroke-linecap="round" stroke-linejoin="round"/>
</svg>
