<svg width="24" height="24" viewBox="0 0 24 24" fill="none" xmlns="http://www.w3.org/2000/svg">
<path d="M18.9092 13.7268C19.4735 13.368 19.8625 12.6217 19.8625 11.7526C19.8625 10.8835 19.4735 10.1367 18.9092 9.77344" stroke="#4E5964" stroke-width="1.5" stroke-linecap="round" stroke-linejoin="round"/>
<path d="M20.5454 15.2609C21.4234 14.4882 21.9999 13.2062 21.9999 11.7518C21.9999 10.2954 21.4225 9.01241 20.543 8.24023" stroke="#4E5964" stroke-width="1.5" stroke-linecap="round" stroke-linejoin="round"/>
<path opacity="0.4" d="M18.6151 2L2 19M2.97736 12.2459V11.5963C2.97736 8.46507 5.29746 5.92672 8.15945 5.92672H9.25864C9.94776 5.92672 10.6079 5.62336 11.0903 5.08499L12.4219 3.59899C13.4631 2.43712 15.5306 3.07472 15.8209 4.57458M2.97736 12.2459C2.97736 12.4535 2.98759 12.6586 3.00752 12.8605M2.97736 12.2459L3.00752 12.8605M8.1476 17.9025H9.17532C9.91728 17.9025 10.6276 18.2314 11.1441 18.8142L12.5024 20.3469C13.5714 21.5531 15.3399 20.9775 15.7624 19.5271C15.8878 19.0966 15.8985 18.6378 15.9789 18.1961C16.6934 14.2715 16.8661 11.5729 16.4016 8.10058M8.1476 17.9025C7.97839 17.9025 7.81108 17.8936 7.64604 17.8762M8.1476 17.9025L7.64604 17.8762M3.00752 12.8605C3.02431 13.0305 3.04798 13.1982 3.07822 13.3633M3.07822 13.3633C3.10504 13.5098 3.13703 13.6542 3.17398 13.7963M3.07822 13.3633L3.17398 13.7963M3.17398 13.7963C3.22229 13.9822 3.27907 14.1641 3.34384 14.3417M3.34384 14.3417C3.42667 14.5687 3.52257 14.7885 3.63051 15M3.34384 14.3417L3.63051 15M3.63051 15C3.72884 15.1926 3.83716 15.3783 3.95471 15.5562M3.95471 15.5562C4.05642 15.7102 4.16504 15.8583 4.28006 16M3.95471 15.5562L4.28006 16M4.28006 16C4.40473 16.1536 4.53694 16.2998 4.67604 16.4378L4.28006 16ZM7.64604 17.8762C7.49604 17.8604 7.34791 17.8376 7.20193 17.8081M7.64604 17.8762L7.20193 17.8081M7.20193 17.8081C7.01279 17.7698 6.82726 17.7203 6.64595 17.6602" stroke="#4E5964" stroke-width="1.5" stroke-linecap="round"/>
<path d="M8.14765 17.9025H9.17537C9.91733 17.9025 10.6276 18.2314 11.1441 18.8142L12.5024 20.3469C13.5714 21.5531 15.34 20.9775 15.7624 19.5271C15.8878 19.0966 15.8985 18.6378 15.9789 18.1961C16.6934 14.2715 16.8661 11.5729 16.4017 8.10059M8.14765 17.9025C7.97844 17.9025 7.81113 17.8936 7.64609 17.8762M8.14765 17.9025L7.64609 17.8762M7.64609 17.8762C7.49609 17.8604 7.34796 17.8376 7.20198 17.8081M7.64609 17.8762L7.20198 17.8081M7.20198 17.8081C7.01284 17.7698 6.82731 17.7203 6.646 17.6602" stroke="#4E5964" stroke-width="1.5" stroke-linecap="round"/>
</svg>
