<svg width="24" height="24" viewBox="0 0 24 24" fill="none" xmlns="http://www.w3.org/2000/svg">
<path d="M16.5 6H7.5C5.01472 6 3 8.01472 3 10.5V16.5C3 18.9853 5.01472 21 7.5 21H16.5C18.9853 21 21 18.9853 21 16.5V10.5C21 8.01472 18.9853 6 16.5 6Z" stroke="#4E5964" stroke-width="1.5" stroke-linecap="round"/>
<path opacity="0.4" d="M15 3L13.4142 4.58579C12.6332 5.36684 11.3668 5.36683 10.5858 4.58579L9 3" stroke="#4E5964" stroke-width="1.5" stroke-linecap="round"/>
<g opacity="0.4">
<path d="M6.814 17.216H5.662C5.518 17.216 5.47 17.132 5.518 16.964L7.414 9.752C7.47 9.584 7.59 9.5 7.774 9.5H9.37C9.57 9.5 9.69 9.584 9.73 9.752L11.626 16.964C11.674 17.132 11.626 17.216 11.482 17.216H10.33C10.242 17.216 10.182 17.2 10.15 17.168C10.118 17.128 10.094 17.06 10.078 16.964L9.742 15.644H7.402L7.066 16.964C7.05 17.06 7.022 17.128 6.982 17.168C6.95 17.2 6.894 17.216 6.814 17.216ZM8.554 10.952L7.69 14.42H9.466L8.602 10.952H8.554Z" fill="#4E5964"/>
<path d="M14.3457 15.896H15.6537C15.9097 15.896 16.0897 15.844 16.1937 15.74C16.3057 15.628 16.3617 15.444 16.3617 15.188V11.528C16.3617 11.272 16.3057 11.092 16.1937 10.988C16.0897 10.876 15.9097 10.82 15.6537 10.82H14.3457C14.2577 10.82 14.2137 10.864 14.2137 10.952V15.764C14.2137 15.852 14.2577 15.896 14.3457 15.896ZM12.6897 16.964V9.752C12.6897 9.584 12.7737 9.5 12.9417 9.5H15.9057C16.5297 9.5 17.0137 9.672 17.3577 10.016C17.7097 10.352 17.8857 10.832 17.8857 11.456V15.26C17.8857 15.884 17.7097 16.368 17.3577 16.712C17.0137 17.048 16.5297 17.216 15.9057 17.216H12.9417C12.7737 17.216 12.6897 17.132 12.6897 16.964Z" fill="#4E5964"/>
</g>
</svg>
