<svg width="24" height="24" viewBox="0 0 24 24" fill="none" xmlns="http://www.w3.org/2000/svg">
<path opacity="0.4" d="M12 12.4851L20 7.63538M12 12.4851L3.76983 7.78934M12 12.4851V20.7297M3.76983 7.78934L3.5 7.63538M3.76983 7.78934C4.29845 6.82914 5.07782 6.03075 6.04032 5.5121L9.54033 3.62609C11.0887 2.79171 12.9101 2.7911 14.4585 3.62547L17.9597 5.5121C19.823 6.51616 21 8.56879 21 10.814V13.1877C21 15.4329 19.823 17.4841 17.9597 18.4882L14.4597 20.3742C12.9113 21.2086 11.0887 21.2086 9.54033 20.3742L6.04033 18.4882C4.17701 17.4841 3 15.4317 3 13.1865V10.8138C3 9.72837 3.27509 8.68799 3.76983 7.78934Z" stroke="#4E5964" stroke-width="1.35"/>
<path d="M3.76983 7.78934L3.5 7.63538M3.76983 7.78934C4.29845 6.82914 5.07782 6.03075 6.04032 5.5121L9.54033 3.62609C11.0887 2.79171 12.9101 2.7911 14.4585 3.62547L17.9597 5.5121C19.823 6.51616 21 8.56879 21 10.814V13.1877C21 15.4329 19.823 17.4841 17.9597 18.4882L14.4597 20.3742C12.9113 21.2086 11.0887 21.2086 9.54033 20.3742L6.04032 18.4882C4.17701 17.4841 3 15.4317 3 13.1865V10.8138C3 9.72837 3.27509 8.68799 3.76983 7.78934Z" stroke="#4E5964" stroke-width="1.35"/>
<path opacity="0.4" d="M11 7H13" stroke="#4E5964" stroke-width="1.5" stroke-linecap="round"/>
</svg>
