<svg width="24" height="24" viewBox="0 0 24 24" fill="none" xmlns="http://www.w3.org/2000/svg">
<path opacity="0.4" d="M14 20C14 20 13.6667 21 12 21C10.3333 21 10 20 10 20" stroke="#4E5964" stroke-width="1.5" stroke-linecap="round" stroke-linejoin="round"/>
<path d="M18.4309 9.23313V9.27303V12.3548C18.4309 12.7587 18.6662 13.1265 19.0378 13.3085L19.6845 13.6214C20.4919 14.0129 21.0024 14.8133 21.0024 15.6884C21.0024 16.965 19.9352 17.9998 18.6187 17.9998H12.0024H8.69422H7.86719M18.4309 9.23313C18.4309 9.08693 18.4257 8.94191 18.4155 8.79822M18.4309 9.23313L18.4155 8.79822M18.4155 8.79822C18.4044 8.64207 18.3874 8.4875 18.3646 8.33472M18.3646 8.33472C18.345 8.20305 18.3212 8.07272 18.2932 7.94385L18.3646 8.33472Z" stroke="#4E5964" stroke-width="1.5" stroke-linecap="round" stroke-linejoin="round"/>
<path opacity="0.4" d="M20.0933 3L3.00106 19.9663M3.71378 17.3362C3.27439 16.917 3.00195 16.3337 3.00195 15.6887C3.00195 14.8135 3.51238 14.0131 4.31981 13.6204L4.96652 13.3075C5.3381 13.1267 5.57338 12.759 5.57338 12.3551V9.23338C5.57338 5.79131 8.4521 3 12.002 3C13.8185 3 15.3327 3.32499 16.502 4.5L17.002 5M5.57143 9.23338C5.57143 9.08718 5.57662 8.94215 5.58684 8.79846M5.57143 9.23338L5.58684 8.79846M5.57143 9.23338V12.3551C5.57143 12.759 5.33614 13.1267 4.96457 13.3088L4.31786 13.6217C3.51043 14.0131 3 14.8135 3 15.6887C3 16.7738 3.771 17.6841 4.81082 17.9328M5.58684 8.79846C5.59794 8.64231 5.61498 8.48774 5.63773 8.33496M5.63773 8.33496C5.65734 8.2033 5.6812 8.07296 5.70916 7.94409L5.63773 8.33496Z" stroke="#4E5964" stroke-width="1.5" stroke-linecap="round" stroke-linejoin="round"/>
<path opacity="0.4" d="M20.3783 5.58175C20.3783 5.58175 21.5606 5.83423 21.7602 7.67598C21.9599 9.51773 20.8574 10.002 20.8574 10.002" stroke="#4E5964" stroke-width="1.5" stroke-linecap="round" stroke-linejoin="round"/>
<path opacity="0.4" d="M3.3503 5.49345C3.3503 5.49345 2.18594 5.81464 2.10183 7.6647C2.01772 9.51476 3.14844 9.93359 3.14844 9.93359" stroke="#4E5964" stroke-width="1.5" stroke-linecap="round" stroke-linejoin="round"/>
</svg>
