<svg width="24" height="24" viewBox="0 0 24 24" fill="none" xmlns="http://www.w3.org/2000/svg">
<path opacity="0.4" d="M14 21C14 21 13.6667 22 12 22C10.3333 22 10 21 10 21" stroke="#4E5964" stroke-width="1.5" stroke-linecap="round" stroke-linejoin="round"/>
<path opacity="0.4" d="M20.3783 4.58175C20.3783 4.58175 21.5606 4.83423 21.7602 6.67598C21.9599 8.51773 20.8574 9.00195 20.8574 9.00195" stroke="#4E5964" stroke-width="1.5" stroke-linecap="round" stroke-linejoin="round"/>
<path opacity="0.4" d="M3.3503 4.49345C3.3503 4.49345 2.18594 4.81464 2.10183 6.6647C2.01772 8.51476 3.14844 8.93359 3.14844 8.93359" stroke="#4E5964" stroke-width="1.5" stroke-linecap="round" stroke-linejoin="round"/>
<path opacity="0.4" d="M18.4287 8.64894C18.4287 8.49299 18.4235 8.33829 18.4132 8.18503M18.4287 8.64894L18.4132 8.18503M18.4287 8.64894V11.9787C18.4287 12.4096 18.6639 12.8019 19.0355 12.996L19.6822 13.3298C20.4897 13.7473 21.0001 14.6011 21.0001 15.5346C21.0001 16.8963 19.9329 18 18.6164 18H6.62435M18.4132 8.18503C18.4021 8.01847 18.3851 7.85359 18.3623 7.69063M18.3623 7.69063C18.3427 7.55018 18.3189 7.41116 18.2909 7.2737M18.3623 7.69063L18.2909 7.2737M18.2909 7.2737C18.2638 7.14042 18.2328 7.0086 18.1981 6.87839L18.1338 6.66547M16.6266 4.03298C15.4574 2.77964 13.8166 2 12.0001 2C8.45023 2 5.57151 4.97739 5.57151 8.64894V11.9787C5.57151 12.4096 5.33623 12.8019 4.96465 12.9947L4.31794 13.3285C3.51051 13.7473 3.00008 14.6011 3.00008 15.5346C3.00008 16.2226 3.27252 16.8448 3.71191 17.292M19.001 2L2.00098 19" stroke="#4E5964" stroke-width="1.5" stroke-linecap="round" stroke-linejoin="round"/>
<path d="M18.4288 8.64894C18.4288 8.49299 18.4236 8.33829 18.4134 8.18503M18.4288 8.64894L18.4134 8.18503M18.4288 8.64894V11.9787C18.4288 12.4096 18.6641 12.8019 19.0357 12.996L19.6824 13.3298C20.4898 13.7473 21.0002 14.6011 21.0002 15.5346C21.0002 16.8963 19.9331 18 18.6165 18H6.62451M18.4134 8.18503C18.4023 8.01847 18.3853 7.85359 18.3625 7.69063M18.3625 7.69063C18.3429 7.55018 18.319 7.41116 18.2911 7.2737M18.3625 7.69063L18.2911 7.2737M18.2911 7.2737C18.264 7.14042 18.233 7.0086 18.1983 6.87839L18.134 6.66547" stroke="#4E5964" stroke-width="1.5" stroke-linecap="round" stroke-linejoin="round"/>
</svg>
