<svg width="24" height="24" viewBox="0 0 24 24" fill="none" xmlns="http://www.w3.org/2000/svg">
<path d="M1.99805 21.001L21.9996 21.001" stroke="#4E5964" stroke-width="1.50012" stroke-linecap="round"/>
<path d="M21.0012 21.0012L18.4029 8.00987C18.1692 6.84122 17.1431 6 15.9513 6H11.0712C9.86986 6 8.83834 6.85442 8.6147 8.03476L7.57907 13.5006L6 21.0012" stroke="#4E5964" stroke-width="1.50012"/>
<path d="M3 21.0009L4.39434 11.287C4.50035 10.5484 5.13308 10 5.87924 10H6.75029C7.25496 10 7.71013 10.3034 7.90423 10.7693L8.00039 11.0001" stroke="#4E5964" stroke-width="1.50012"/>
<path opacity="0.4" d="M14 3V4.00008M11 3.5V4M17 3.5V4M15.5353 14.06H16.4049C16.5856 14.0612 16.7561 14.144 16.8689 14.2852C16.9817 14.4264 17.0248 14.6109 16.9861 14.7874C16.827 15.5465 16.4241 16.2327 15.8387 16.7414C15.704 16.8521 15.5272 16.8975 15.3558 16.8653C15.1845 16.833 15.0362 16.7266 14.9508 16.5745L14.5126 15.8155M12.4874 15.8155L12.0492 16.5745C11.9638 16.7266 11.8155 16.833 11.6442 16.8653C11.4728 16.8975 11.296 16.8521 11.1613 16.7414C10.5759 16.2327 10.173 15.5465 10.0139 14.7874C9.97521 14.6109 10.0183 14.4264 10.1311 14.2852C10.2439 14.144 10.4144 14.0612 10.5951 14.06H11.4647M12.4843 12.2653L12.0456 11.5054C11.9567 11.3559 11.9384 11.1746 11.9958 11.0104C12.0531 10.8461 12.1802 10.7156 12.3429 10.6538C13.0914 10.3953 13.9051 10.3953 14.6537 10.6538C14.8164 10.7156 14.9435 10.8461 15.0008 11.0104C15.0582 11.1746 15.0399 11.3559 14.951 11.5054L14.5122 12.2654M15.0007 14.0412C15.0007 14.8697 14.3291 15.5412 13.5007 15.5412C12.6723 15.5412 12.0007 14.8697 12.0007 14.0412C12.0007 13.2128 12.6723 12.5412 13.5007 12.5412C14.3291 12.5412 15.0007 13.2128 15.0007 14.0412Z" stroke="#4E5964" stroke-width="1.5" stroke-linecap="round" stroke-linejoin="round"/>
</svg>
