<svg width="24" height="24" viewBox="0 0 24 24" fill="none" xmlns="http://www.w3.org/2000/svg">
<path d="M15.6225 4.04246C17.5176 4.86213 19.0675 6.29942 20.011 8.11209C20.9545 9.92476 21.2338 12.002 20.802 13.9936C20.3701 15.9853 19.2535 17.7696 17.6403 19.0458C16.027 20.322 14.0158 21.0121 11.9456 20.9998C9.87546 20.9875 7.87289 20.2736 6.27543 18.9783C4.67798 17.6829 3.58333 15.8855 3.17597 13.8889C2.76861 11.8922 3.07346 9.81851 4.03913 8.01718C5.00479 6.21586 6.57224 4.79709 8.47729 4" stroke="#4E5964" stroke-width="1.42105" stroke-linecap="round"/>
<path opacity="0.4" d="M12 6.5V3" stroke="#4E5964" stroke-width="1.5" stroke-linecap="round"/>
<g opacity="0.4">
<path d="M7.35 15.33H8.06C8.27333 15.33 8.42333 15.2867 8.51 15.2C8.60333 15.1067 8.65 14.9533 8.65 14.74V11.69C8.65 11.4767 8.60333 11.3267 8.51 11.24C8.42333 11.1467 8.27333 11.1 8.06 11.1H7.35C7.13667 11.1 6.98667 11.1467 6.9 11.24C6.81333 11.3267 6.77 11.4767 6.77 11.69V14.74C6.77 14.9533 6.81333 15.1067 6.9 15.2C6.98667 15.2867 7.13667 15.33 7.35 15.33ZM8.27 16.43H7.15C6.62333 16.43 6.21667 16.29 5.93 16.01C5.64333 15.73 5.5 15.3267 5.5 14.8V11.63C5.5 11.1033 5.64333 10.7 5.93 10.42C6.21667 10.14 6.62333 10 7.15 10H8.27C8.79667 10 9.20333 10.14 9.49 10.42C9.77667 10.7 9.92 11.1033 9.92 11.63V14.8C9.92 15.3267 9.77667 15.73 9.49 16.01C9.20333 16.29 8.79667 16.43 8.27 16.43Z" fill="#4E5964"/>
<path d="M12.1776 16.43H11.3276C11.1876 16.43 11.1176 16.36 11.1176 16.22V10.21C11.1176 10.07 11.1876 10 11.3276 10H14.5176C14.6509 10 14.7176 10.07 14.7176 10.21V10.89C14.7176 11.03 14.6509 11.1 14.5176 11.1H12.5076C12.4276 11.1 12.3876 11.1367 12.3876 11.21V12.76C12.3876 12.84 12.4276 12.88 12.5076 12.88H14.2176C14.3576 12.88 14.4276 12.95 14.4276 13.09V13.76C14.4276 13.9067 14.3576 13.98 14.2176 13.98H12.5076C12.4276 13.98 12.3876 14.0167 12.3876 14.09V16.22C12.3876 16.36 12.3176 16.43 12.1776 16.43Z" fill="#4E5964"/>
<path d="M16.6795 16.43H15.8295C15.6895 16.43 15.6195 16.36 15.6195 16.22V10.21C15.6195 10.07 15.6895 10 15.8295 10H19.0195C19.1529 10 19.2195 10.07 19.2195 10.21V10.89C19.2195 11.03 19.1529 11.1 19.0195 11.1H17.0095C16.9295 11.1 16.8895 11.1367 16.8895 11.21V12.76C16.8895 12.84 16.9295 12.88 17.0095 12.88H18.7195C18.8595 12.88 18.9295 12.95 18.9295 13.09V13.76C18.9295 13.9067 18.8595 13.98 18.7195 13.98H17.0095C16.9295 13.98 16.8895 14.0167 16.8895 14.09V16.22C16.8895 16.36 16.8195 16.43 16.6795 16.43Z" fill="#4E5964"/>
</g>
</svg>
