<svg width="24" height="24" viewBox="0 0 24 24" fill="none" xmlns="http://www.w3.org/2000/svg">
<path opacity="0.4" d="M9.82183 10H8.71072C8.09707 10 7.59961 10.4975 7.59961 11.1111V13.8889C7.59961 14.5025 8.09707 15 8.71072 15H9.82183C10.4355 15 10.9329 14.5025 10.9329 13.8889V11.1111C10.9329 10.4975 10.4355 10 9.82183 10Z" stroke="#4E5964" stroke-width="1.5" stroke-linecap="round" stroke-linejoin="round"/>
<path opacity="0.4" d="M12.9336 15V10L16.2669 15V10" stroke="#4E5964" stroke-width="1.5" stroke-linecap="round" stroke-linejoin="round"/>
<path d="M15.6225 4.04246C17.5176 4.86213 19.0675 6.29942 20.011 8.11209C20.9545 9.92476 21.2338 12.002 20.802 13.9936C20.3701 15.9853 19.2535 17.7696 17.6403 19.0458C16.027 20.322 14.0158 21.0121 11.9456 20.9998C9.87546 20.9875 7.87289 20.2736 6.27543 18.9783C4.67798 17.6829 3.58333 15.8855 3.17597 13.8889C2.76861 11.8922 3.07346 9.81851 4.03913 8.01718C5.00479 6.21586 6.57224 4.79709 8.47728 4" stroke="#4E5964" stroke-width="1.42105" stroke-linecap="round"/>
<path opacity="0.4" d="M12 6.5V3" stroke="#4E5964" stroke-width="1.5" stroke-linecap="round"/>
</svg>
