<svg width="24" height="24" viewBox="0 0 24 24" fill="none" xmlns="http://www.w3.org/2000/svg">
<circle opacity="0.4" cx="8.85195" cy="11.85" r="1.85" stroke="#4E5964" stroke-width="1.5"/>
<path d="M15.6245 4.04246C17.5196 4.86213 19.0695 6.29942 20.013 8.11209C20.9564 9.92476 21.2358 12.002 20.8039 13.9936C20.3721 15.9853 19.2555 17.7696 17.6422 19.0458C16.029 20.322 14.0178 21.0121 11.9476 20.9998C9.87741 20.9875 7.87484 20.2736 6.27739 18.9783C4.67993 17.6829 3.58528 15.8855 3.17792 13.8889C2.77056 11.8922 3.07541 9.81851 4.04108 8.01718C5.00675 6.21586 6.5742 4.79709 8.47924 4" stroke="#4E5964" stroke-width="1.42105" stroke-linecap="round"/>
<path opacity="0.4" d="M13.002 14.5V10.3367C13.002 10.0606 13.3502 9.93926 13.5217 10.1556L16.6698 14.1263C16.7859 14.2569 17.002 14.1748 17.002 14V10" stroke="#4E5964" stroke-width="1.5" stroke-linecap="round"/>
<path opacity="0.4" d="M12.002 6.5V3" stroke="#4E5964" stroke-width="1.5" stroke-linecap="round"/>
</svg>
