<svg width="24" height="24" viewBox="0 0 24 24" fill="none" xmlns="http://www.w3.org/2000/svg">
<path d="M15.6225 4.04246C17.5176 4.86213 19.0675 6.29942 20.011 8.11209C20.9545 9.92476 21.2338 12.002 20.802 13.9936C20.3701 15.9853 19.2535 17.7696 17.6403 19.0458C16.027 20.322 14.0158 21.0121 11.9456 20.9998C9.87546 20.9875 7.87289 20.2736 6.27543 18.9783C4.67798 17.6829 3.58333 15.8855 3.17597 13.8889C2.76861 11.8922 3.07346 9.81851 4.03913 8.01718C5.00479 6.21586 6.57224 4.79709 8.47729 4" stroke="#4E5964" stroke-width="1.42105" stroke-linecap="round"/>
<path opacity="0.4" d="M12 6.5V3" stroke="#4E5964" stroke-width="1.5" stroke-linecap="round"/>
<g opacity="0.4">
<path d="M8.85 15.33H9.56C9.77333 15.33 9.92333 15.2867 10.01 15.2C10.1033 15.1067 10.15 14.9533 10.15 14.74V11.69C10.15 11.4767 10.1033 11.3267 10.01 11.24C9.92333 11.1467 9.77333 11.1 9.56 11.1H8.85C8.63667 11.1 8.48667 11.1467 8.4 11.24C8.31333 11.3267 8.27 11.4767 8.27 11.69V14.74C8.27 14.9533 8.31333 15.1067 8.4 15.2C8.48667 15.2867 8.63667 15.33 8.85 15.33ZM9.77 16.43H8.65C8.12333 16.43 7.71667 16.29 7.43 16.01C7.14333 15.73 7 15.3267 7 14.8V11.63C7 11.1033 7.14333 10.7 7.43 10.42C7.71667 10.14 8.12333 10 8.65 10H9.77C10.2967 10 10.7033 10.14 10.99 10.42C11.2767 10.7 11.42 11.1033 11.42 11.63V14.8C11.42 15.3267 11.2767 15.73 10.99 16.01C10.7033 16.29 10.2967 16.43 9.77 16.43Z" fill="#4E5964"/>
<path d="M13.6576 16.43H12.8276C12.6876 16.43 12.6176 16.36 12.6176 16.22V10.21C12.6176 10.07 12.6876 10 12.8276 10H13.5776C13.7176 10 13.8109 10.0467 13.8576 10.14L15.8776 13.93H15.9176V10.21C15.9176 10.07 15.9876 10 16.1276 10H16.9576C17.0976 10 17.1676 10.07 17.1676 10.21V16.22C17.1676 16.36 17.0976 16.43 16.9576 16.43H16.2276C16.0809 16.43 15.9742 16.3633 15.9076 16.23L13.9076 12.51H13.8676V16.22C13.8676 16.36 13.7976 16.43 13.6576 16.43Z" fill="#4E5964"/>
</g>
</svg>
