<svg width="24" height="24" viewBox="0 0 24 24" fill="none" xmlns="http://www.w3.org/2000/svg">
<path opacity="0.4" d="M20 11.5V10.2414C20 8.94493 18.8766 7.92817 17.5808 7.97033C15.5033 8.03793 12.6649 7.95741 11.5 7.12774C10.8433 6.65998 10.6248 6.15674 10.2188 5.40785C9.50343 4.08869 8.31881 3 6.8182 3H5.65625C4.18924 3 3 4.18924 3 5.65625V7.12774V14.6953V17" stroke="#4E5964" stroke-width="1.5" stroke-linecap="round"/>
<path opacity="0.4" d="M15 16L16 16" stroke="#4E5964" stroke-width="1.5" stroke-linecap="round"/>
<path d="M5.15705 12.7291L3.39963 16.0625C2.22841 18.2839 3.77194 21 6.20558 21H16.037C17.2053 21 18.2807 20.3373 18.843 19.2709L20.6004 15.9375C21.7716 13.7161 20.2281 11 17.7944 11H7.96299C6.79475 11 5.71928 11.6627 5.15705 12.7291Z" stroke="#4E5964" stroke-width="1.5"/>
</svg>
