<svg width="24" height="24" viewBox="0 0 24 24" fill="none" xmlns="http://www.w3.org/2000/svg">
<path opacity="0.64" d="M21 11.3793V10.2759V10.2759C21 8.79536 19.7143 7.63538 18.2346 7.68238C15.9185 7.75595 12.7904 7.65725 11.5 6.71742C10.766 6.18284 10.5219 5.6077 10.068 4.75183V4.75183C9.26742 3.24211 7.91898 2 6.21013 2H4.96875V2C3.32915 2 2 3.32915 2 4.96875V6.71742V15.366V18" stroke="#4E5964" stroke-width="1.5" stroke-linecap="round"/>
<path opacity="0.64" d="M15 16L17 16" stroke="#4E5964" stroke-width="1.5" stroke-linecap="round"/>
<path d="M4.39672 12.9021L2.44403 16.5687C1.14268 19.0123 2.85771 22 5.56175 22H16.4856C17.7836 22 18.9786 21.271 19.6033 20.0979L21.556 16.4313C22.8573 13.9877 21.1423 11 18.4383 11H7.51444C6.21639 11 5.02142 11.729 4.39672 12.9021Z" stroke="#4E5964" stroke-width="1.5"/>
</svg>
