<svg width="24" height="24" viewBox="0 0 24 24" fill="none" xmlns="http://www.w3.org/2000/svg">
<path d="M4 14.4639H19.4998" stroke="#4E5964" stroke-width="1.5" stroke-linecap="round"/>
<path opacity="0.4" d="M4 5.05225H12" stroke="#4E5964" stroke-width="1.5" stroke-linecap="round"/>
<path opacity="0.4" d="M4 9.75806H12" stroke="#4E5964" stroke-width="1.5" stroke-linecap="round"/>
<path d="M4 19.1697H19.4998" stroke="#4E5964" stroke-width="1.5" stroke-linecap="round"/>
<path opacity="0.4" d="M16.272 11.716H15.252C15.084 11.716 15 11.632 15 11.464V4.252C15 4.084 15.084 4 15.252 4H18.18C18.804 4 19.288 4.172 19.632 4.516C19.976 4.852 20.148 5.332 20.148 5.956V7.108C20.148 7.732 19.976 8.216 19.632 8.56C19.288 8.896 18.804 9.064 18.18 9.064H16.668C16.572 9.064 16.524 9.108 16.524 9.196V11.464C16.524 11.632 16.44 11.716 16.272 11.716ZM16.656 7.732H17.928C18.184 7.732 18.364 7.68 18.468 7.576C18.572 7.464 18.624 7.284 18.624 7.036V6.028C18.624 5.772 18.572 5.592 18.468 5.488C18.364 5.376 18.184 5.32 17.928 5.32H16.656C16.568 5.32 16.524 5.364 16.524 5.452V7.6C16.524 7.688 16.568 7.732 16.656 7.732Z" fill="#4E5964"/>
</svg>
