<svg width="24" height="24" viewBox="0 0 24 24" fill="none" xmlns="http://www.w3.org/2000/svg">
<path opacity="0.4" d="M9.19922 12L11.1969 14.5L15.1992 9.5" stroke="#4E5964" stroke-width="1.5" stroke-linecap="round" stroke-linejoin="round"/>
<path d="M19.5687 14.1892C20.3599 11.9681 19.8693 8.1926 19.6131 6.6293C19.5371 6.1652 19.311 5.73671 18.9524 5.43243C16.7675 3.57853 14.8954 3.0051 12.03 3C9.15002 2.99487 7.32998 3.64976 5.06803 5.43243C4.68326 5.73567 4.43634 6.17558 4.35656 6.65894C4.10016 8.21242 3.63974 11.8618 4.49131 14.1892C5.19468 16.1116 5.83204 17.2008 7.31832 18.5676C8.85458 19.9803 9.9728 21 12.03 21C14.0872 21 15.2054 19.9803 16.7417 18.5676C18.228 17.2008 18.8816 16.1179 19.5687 14.1892Z" stroke="#4E5964" stroke-width="1.5"/>
</svg>
