<svg width="24" height="24" viewBox="0 0 24 24" fill="none" xmlns="http://www.w3.org/2000/svg">
<path d="M16 8.5V6C16 4.34315 14.6569 3 13 3H5.70833V3C4.21256 3 3 4.21256 3 5.70833V18C3 19.6569 4.34315 21 6 21H13.2917H13.5C14.8807 21 16 19.8807 16 18.5V18.5" stroke="#4E5964" stroke-width="1.5"/>
<path opacity="0.4" d="M6 15.0195L6 15" stroke="#4E5964" stroke-width="2" stroke-linecap="round" stroke-linejoin="round"/>
<path opacity="0.4" d="M9 15.0195L9 15" stroke="#4E5964" stroke-width="2" stroke-linecap="round" stroke-linejoin="round"/>
<path opacity="0.4" d="M6 18.0195L6 18" stroke="#4E5964" stroke-width="2" stroke-linecap="round" stroke-linejoin="round"/>
<path opacity="0.4" d="M9 18.0195L9 18" stroke="#4E5964" stroke-width="2" stroke-linecap="round" stroke-linejoin="round"/>
<path opacity="0.4" d="M12.5 12H6.5C5.67157 12 5 11.3284 5 10.5V8.5C5 7.67157 5.67157 7 6.5 7H13C13.5523 7 14 7.44772 14 8V8" stroke="#4E5964" stroke-width="1.5"/>
<path opacity="0.4" d="M17.8574 19L17.8574 8.5" stroke="#4E5964" stroke-width="1.5" stroke-linecap="round"/>
<path opacity="0.4" d="M18 4C19.1046 4 20 4.89543 20 6" stroke="#4E5964" stroke-width="1.5" stroke-linecap="round" stroke-linejoin="round"/>
<path opacity="0.4" d="M18 2C20.2091 2 22 3.79086 22 6" stroke="#4E5964" stroke-width="1.5" stroke-linecap="round" stroke-linejoin="round"/>
<path d="M12 10C12 8.89543 12.8954 8 14 8H19C20.1046 8 21 8.89543 21 10V17C21 18.1046 20.1046 19 19 19H14C12.8954 19 12 18.1046 12 17V10Z" stroke="#4E5964" stroke-width="1.5"/>
<path opacity="0.4" d="M10 5H9" stroke="#4E5964" stroke-width="1.5" stroke-linecap="round"/>
</svg>
