<svg width="24" height="24" viewBox="0 0 24 24" fill="none" xmlns="http://www.w3.org/2000/svg">
<path opacity="0.4" d="M14.002 20C14.002 20 13.6686 21 12.002 21C10.3353 21 10.002 20 10.002 20" stroke="#4E5964" stroke-width="1.5" stroke-linecap="round" stroke-linejoin="round"/>
<path fill-rule="evenodd" clip-rule="evenodd" d="M17.7143 8.85505V8.81782V8.81782C17.7143 5.60522 15.1554 3 12 3V3C8.84457 3 6.28571 5.60522 6.28571 8.81782V8.81782V8.85505V11.7314C6.28571 12.1084 6.07657 12.4516 5.74629 12.6203L5.17143 12.9124C4.45371 13.2789 4 14.0259 4 14.8428V14.8428C4 16.0342 4.94857 17 6.11886 17H17.8811C19.0514 17 20 16.0342 20 14.8428V14.8428C20 14.0259 19.5463 13.2789 18.8286 12.9136L18.2537 12.6215C17.9234 12.4516 17.7143 12.1084 17.7143 11.7314V8.85505Z" stroke="#4E5964" stroke-width="1.5" stroke-linecap="round" stroke-linejoin="round"/>
<path opacity="0.4" d="M19.5414 5.12344C19.5414 5.12344 20.6055 5.35068 20.7852 7.00828C20.9649 8.66588 19.9727 9.10168 19.9727 9.10168" stroke="#4E5964" stroke-width="1.5" stroke-linecap="round" stroke-linejoin="round"/>
<path opacity="0.4" d="M4.21489 5.04397C4.21489 5.04397 3.16694 5.33305 3.09124 6.99813C3.01554 8.66321 4.0332 9.04016 4.0332 9.04016" stroke="#4E5964" stroke-width="1.5" stroke-linecap="round" stroke-linejoin="round"/>
<path opacity="0.4" d="M14.002 8.66665V8.33331C14.002 7.59693 13.405 6.99998 12.6686 6.99998H11.3353C10.5989 6.99998 10.002 7.59693 10.002 8.33331V8.53714C10.002 9.18893 10.4732 9.74518 11.1161 9.85234L12.8878 10.1476C13.5307 10.2548 14.002 10.811 14.002 11.4628V11.6666C14.002 12.403 13.405 13 12.6686 13H11.3353C10.5989 13 10.002 12.403 10.002 11.6666V11.3333M12.002 6L12.002 14" stroke="#4E5964" stroke-width="1.5" stroke-linecap="round" stroke-linejoin="round"/>
</svg>
