<svg width="24" height="24" viewBox="0 0 24 24" fill="none" xmlns="http://www.w3.org/2000/svg">
<path opacity="0.4" d="M14 20C14 20 13.6667 21 12 21C10.3333 21 10 20 10 20" stroke="#4E5964" stroke-width="1.5" stroke-linecap="round" stroke-linejoin="round"/>
<path fill-rule="evenodd" clip-rule="evenodd" d="M17.7143 8.85505V8.81782V8.81782C17.7143 5.60522 15.1554 3 12 3V3C8.84457 3 6.28571 5.60522 6.28571 8.81782V8.81782V8.85505V11.7314C6.28571 12.1084 6.07657 12.4516 5.74629 12.6203L5.17143 12.9124C4.45371 13.2789 4 14.0259 4 14.8428V14.8428C4 16.0342 4.94857 17 6.11886 17H17.8811C19.0514 17 20 16.0342 20 14.8428V14.8428C20 14.0259 19.5463 13.2789 18.8286 12.9136L18.2537 12.6215C17.9234 12.4516 17.7143 12.1084 17.7143 11.7314V8.85505Z" stroke="#4E5964" stroke-width="1.5" stroke-linecap="round" stroke-linejoin="round"/>
<path opacity="0.4" d="M19.5395 5.12344C19.5395 5.12344 20.6036 5.35068 20.7832 7.00828C20.9629 8.66588 19.9707 9.10168 19.9707 9.10168" stroke="#4E5964" stroke-width="1.5" stroke-linecap="round" stroke-linejoin="round"/>
<path opacity="0.4" d="M4.21489 5.04397C4.21489 5.04397 3.16694 5.33305 3.09124 6.99813C3.01554 8.66321 4.0332 9.04016 4.0332 9.04016" stroke="#4E5964" stroke-width="1.5" stroke-linecap="round" stroke-linejoin="round"/>
<path opacity="0.4" d="M12 7V13.6667M14 8.66667C13.852 8.09159 13.33 7.66667 12.7087 7.66667H12H11.3333C10.597 7.66667 10 8.26362 10 9C10 9.73638 10.597 10.3333 11.3333 10.3333H12L12.6667 10.3333C13.403 10.3333 14 10.9303 14 11.6667C14 12.403 13.403 13 12.6667 13H12H11.2913C10.67 13 10.148 12.5751 10 12" stroke="#4E5964" stroke-width="1.5" stroke-linecap="round" stroke-linejoin="round"/>
</svg>
