<svg width="25" height="24" viewBox="0 0 25 24" fill="none" xmlns="http://www.w3.org/2000/svg">
<path d="M3.0332 11.0007C5.55904 11.0013 18.51 11.0041 21.0327 11.0047" stroke="#4E5964" stroke-width="1.5" stroke-linecap="round"/>
<path opacity="0.4" d="M18.8854 17.0216C19.0794 16.288 18.6419 15.536 17.9082 15.342" stroke="#4E5964" stroke-width="1.5" stroke-linecap="round"/>
<path opacity="0.4" d="M10.0321 15.0024L14.032 15.0032M21.031 16.7547C21.0306 18.8257 19.3513 20.5043 17.2803 20.5038C15.2093 20.5034 13.5308 18.8241 13.5312 16.7531C13.5317 14.6821 15.211 13.0036 17.282 13.004C19.353 13.0045 21.0315 14.6837 21.031 16.7547ZM10.531 16.7524C10.5306 18.8234 8.85133 20.5019 6.78032 20.5015C4.70931 20.501 3.0308 18.8218 3.03125 16.7508C3.0317 14.6798 4.71095 13.0013 6.78196 13.0017C8.85297 13.0022 10.5315 14.6814 10.531 16.7524Z" stroke="#4E5964" stroke-width="1.5"/>
<path d="M19.0315 11.0043L18.2771 5.45346C18.0138 3.51585 16.3501 2.44141 14.9516 3.30586L13.0592 4.47565C12.4117 4.87596 11.6539 4.87579 11.0065 4.47521L9.11465 3.30458C7.71659 2.43952 6.05237 3.51323 5.78821 5.45072L5.03145 11.0012" stroke="#4E5964" stroke-width="1.5"/>
</svg>
