<svg width="24" height="24" viewBox="0 0 24 24" fill="none" xmlns="http://www.w3.org/2000/svg">
<path d="M3.00391 11.0007C5.52974 11.0013 18.4807 11.0041 21.0034 11.0047" stroke="#4E5964" stroke-width="1.5" stroke-linecap="round"/>
<path opacity="0.4" d="M18.8562 17.0216C19.0501 16.288 18.6126 15.536 17.8789 15.342" stroke="#4E5964" stroke-width="1.5" stroke-linecap="round"/>
<path opacity="0.4" d="M10.0028 15.0024L14.0027 15.0032M21.0017 16.7547C21.0013 18.8257 19.322 20.5043 17.251 20.5038C15.18 20.5034 13.5015 18.8241 13.502 16.7531C13.5024 14.6821 15.1817 13.0036 17.2527 13.004C19.3237 13.0045 21.0022 14.6837 21.0017 16.7547ZM10.5017 16.7524C10.5013 18.8234 8.82203 20.5019 6.75102 20.5015C4.68001 20.501 3.0015 18.8218 3.00195 16.7508C3.00241 14.6798 4.68166 13.0013 6.75266 13.0017C8.82367 13.0022 10.5022 14.6814 10.5017 16.7524Z" stroke="#4E5964" stroke-width="1.5"/>
<path d="M19.0022 11.0043L18.2478 5.45346C17.9845 3.51585 16.3208 2.44141 14.9223 3.30586L13.0299 4.47565C12.3824 4.87596 11.6246 4.87579 10.9772 4.47521L9.08536 3.30458C7.6873 2.43952 6.02307 3.51323 5.75891 5.45072L5.00215 11.0012" stroke="#4E5964" stroke-width="1.5"/>
</svg>
