<svg width="24" height="24" viewBox="0 0 24 24" fill="none" xmlns="http://www.w3.org/2000/svg">
<path opacity="0.4" d="M18.502 18C18.502 16.067 17.4349 15 15.502 15H8.50195C6.56896 15 5.50195 16.567 5.50195 18.5" stroke="#4E5964" stroke-width="1.5"/>
<circle opacity="0.4" cx="12.002" cy="10" r="3" stroke="#4E5964" stroke-width="1.5"/>
<path opacity="0.4" d="M15.002 4.49683H17.9956M16.498 5.99368V3" stroke="#4E5964" stroke-width="1.5" stroke-linecap="round" stroke-linejoin="round"/>
<path d="M19.2801 6.70578C20.4979 8.37992 21.1013 10.4227 20.9886 12.4899C20.8759 14.557 20.054 16.5221 18.6615 18.054C17.2689 19.5858 15.3908 20.5908 13.3438 20.8994C11.2967 21.2081 9.20577 20.8015 7.42346 19.7484C5.64114 18.6952 4.2764 17.0598 3.55923 15.1178C2.84207 13.1757 2.81635 11.0458 3.48639 9.08706C4.15644 7.12827 5.48129 5.46037 7.23765 4.36446C8.99401 3.26856 11.0745 2.81166 13.1284 3.07077" stroke="#4E5964" stroke-width="1.5" stroke-linecap="round"/>
</svg>
