<svg width="24" height="24" viewBox="0 0 24 24" fill="none" xmlns="http://www.w3.org/2000/svg">
<circle opacity="0.4" cx="7" cy="7" r="1.5" stroke="#4E5964" stroke-width="1.5"/>
<path d="M6.16437 2.66793C6.36553 1.77736 7.63447 1.77736 7.83564 2.66793L7.90668 2.98244C8.03706 3.55963 8.69941 3.83398 9.19973 3.51804L9.47235 3.34588C10.2443 2.8584 11.1416 3.75567 10.6541 4.52765L10.482 4.80028C10.166 5.3006 10.4404 5.96295 11.0176 6.09332L11.3321 6.16437C12.2226 6.36553 12.2226 7.63447 11.3321 7.83564L11.0176 7.90668C10.4404 8.03706 10.166 8.69941 10.482 9.19973L10.6541 9.47235C11.1416 10.2443 10.2443 11.1416 9.47235 10.6541L9.19973 10.482C8.6994 10.166 8.03706 10.4404 7.90668 11.0176L7.83564 11.3321C7.63447 12.2226 6.36553 12.2226 6.16437 11.3321L6.09332 11.0176C5.96295 10.4404 5.3006 10.166 4.80028 10.482L4.52765 10.6541C3.75567 11.1416 2.8584 10.2443 3.34588 9.47235L3.51804 9.19973C3.83398 8.6994 3.55962 8.03706 2.98244 7.90668L2.66793 7.83564C1.77736 7.63447 1.77736 6.36553 2.66793 6.16437L2.98244 6.09332C3.55963 5.96295 3.83398 5.3006 3.51804 4.80028L3.34588 4.52765C2.8584 3.75567 3.75567 2.8584 4.52765 3.34588L4.80028 3.51804C5.3006 3.83398 5.96295 3.55962 6.09332 2.98244L6.16437 2.66793Z" stroke="#4E5964" stroke-width="1.5"/>
<circle opacity="0.4" cx="16" cy="16" r="2" stroke="#4E5964" stroke-width="1.5"/>
<path d="M14.9972 10.8015C15.2386 9.73283 16.7614 9.73283 17.0028 10.8015L17.088 11.1789C17.2445 11.8716 18.0393 12.2008 18.6397 11.8216L18.9668 11.6151C19.8932 11.0301 20.9699 12.1068 20.3849 13.0332L20.1784 13.3603C19.7992 13.9607 20.1285 14.7555 20.8211 14.912L21.1985 14.9972C22.2672 15.2386 22.2672 16.7614 21.1985 17.0028L20.8211 17.088C20.1284 17.2445 19.7992 18.0393 20.1784 18.6397L20.3849 18.9668C20.9699 19.8932 19.8932 20.9699 18.9668 20.3849L18.6397 20.1784C18.0393 19.7992 17.2445 20.1285 17.088 20.8211L17.0028 21.1985C16.7614 22.2672 15.2386 22.2672 14.9972 21.1985L14.912 20.8211C14.7555 20.1284 13.9607 19.7992 13.3603 20.1784L13.0332 20.3849C12.1068 20.9699 11.0301 19.8932 11.6151 18.9668L11.8216 18.6397C12.2008 18.0393 11.8715 17.2445 11.1789 17.088L10.8015 17.0028C9.73283 16.7614 9.73283 15.2386 10.8015 14.9972L11.1789 14.912C11.8716 14.7555 12.2008 13.9607 11.8216 13.3603L11.6151 13.0332C11.0301 12.1068 12.1068 11.0301 13.0332 11.6151L13.3603 11.8216C13.9607 12.2008 14.7555 11.8715 14.912 11.1789L14.9972 10.8015Z" stroke="#4E5964" stroke-width="1.5"/>
</svg>
