<svg width="24" height="24" viewBox="0 0 24 24" fill="none" xmlns="http://www.w3.org/2000/svg">
<path d="M3.00195 3L21.002 3" stroke="#4E5964" stroke-width="1.5" stroke-linecap="round"/>
<path opacity="0.4" d="M11.5619 6.3335C11.7004 5.88883 12.3035 5.88883 12.442 6.3335L12.833 7.58876C12.8949 7.78762 13.0726 7.92226 13.2731 7.92226H14.5384C14.9866 7.92226 15.173 8.52055 14.8103 8.79536L13.7867 9.57116C13.6245 9.69406 13.5566 9.91191 13.6186 10.1108L14.0096 11.366C14.1481 11.8107 13.6602 12.1805 13.2976 11.9056L12.2739 11.1298C12.1117 11.0069 11.8922 11.0069 11.73 11.1298L10.7063 11.9056C10.3437 12.1805 9.8558 11.8107 9.99431 11.366L10.3853 10.1108C10.4473 9.91191 10.3794 9.69406 10.2172 9.57116L9.19357 8.79536C8.83095 8.52055 9.01731 7.92226 9.46554 7.92226H10.7308C10.9313 7.92226 11.109 7.78762 11.1709 7.58876L11.5619 6.3335Z" stroke="#4E5964" stroke-width="1.5"/>
<path opacity="0.4" d="M9.00195 15H5.00195" stroke="#4E5964" stroke-width="1.5" stroke-linecap="round"/>
<path opacity="0.4" d="M19.002 15H15.002" stroke="#4E5964" stroke-width="1.5" stroke-linecap="round"/>
<path d="M4.00195 3V14.9328C4.00195 16.8233 5.18356 18.5122 6.95952 19.1602L10.4595 20.4372C11.4557 20.8007 12.5482 20.8007 13.5444 20.4372L17.0444 19.1602C18.8203 18.5122 20.002 16.8233 20.002 14.9328V3" stroke="#4E5964" stroke-width="1.5" stroke-linecap="round"/>
</svg>
