<svg width="24" height="24" viewBox="0 0 24 24" fill="none" xmlns="http://www.w3.org/2000/svg">
<path d="M9 6C11.2105 6 12.4737 6 15 6" stroke="#4E5964" stroke-width="1.5" stroke-linecap="round"/>
<path opacity="0.4" d="M9 6C11.2105 6 12.4737 6 15 6" stroke="#4E5964" stroke-width="1.5" stroke-linecap="round"/>
<path opacity="0.4" d="M11.5599 11.3335C11.6985 10.8888 12.3015 10.8888 12.4401 11.3335L12.8311 12.5888C12.893 12.7876 13.0707 12.9223 13.2711 12.9223H14.5364C14.9846 12.9223 15.171 13.5205 14.8084 13.7954L13.7847 14.5712C13.6226 14.6941 13.5547 14.9119 13.6166 15.1108L14.0076 16.366C14.1462 16.8107 13.6582 17.1805 13.2956 16.9056L12.272 16.1298C12.1098 16.0069 11.8902 16.0069 11.728 16.1298L10.7044 16.9056C10.3418 17.1805 9.85385 16.8107 9.99236 16.366L10.3834 15.1108C10.4453 14.9119 10.3774 14.6941 10.2153 14.5712L9.19162 13.7954C8.829 13.5205 9.01536 12.9223 9.46358 12.9223H10.7289C10.9293 12.9223 11.107 12.7876 11.1689 12.5888L11.5599 11.3335Z" stroke="#4E5964" stroke-width="1.5"/>
<path fill-rule="evenodd" clip-rule="evenodd" d="M3.00795 17.6166C2.79685 11.9964 6.81743 7.24939 12 7C17.1826 7.24939 21.2031 11.9964 20.9921 17.6166C20.9919 20.1294 19.1132 20.9997 16.7958 20.9999C14.4783 21.0001 13.9067 20.9999 12 20.9999C10.0933 20.9999 9.52171 21.0001 7.20424 20.9999C4.88676 20.9997 3.00812 20.1294 3.00795 17.6166Z" stroke="#4E5964" stroke-width="1.5" stroke-linecap="round" stroke-linejoin="round"/>
<path opacity="0.4" fill-rule="evenodd" clip-rule="evenodd" d="M10.6667 3H13.3333C13.7015 3 14 3.44772 14 4C14 4.79565 13.7893 5.55871 13.4142 6.12132C13.0391 6.68393 12.5304 7 12 7C10.8954 7 10 5.65685 10 4C10 3.44772 10.2985 3 10.6667 3Z" stroke="#4E5964" stroke-width="1.5" stroke-linecap="round" stroke-linejoin="round"/>
</svg>
