<svg width="24" height="25" viewBox="0 0 24 25" fill="none" xmlns="http://www.w3.org/2000/svg">
<path d="M3.00195 7.27564V17.2756C3.00195 19.4848 4.79281 21.2756 7.00195 21.2756H12.002C13.1065 21.2756 14.002 20.3802 14.002 19.2756V18.2756C14.002 17.7234 14.4497 17.2756 15.002 17.2756C15.5542 17.2756 16.002 17.7234 16.002 18.2756V19.2756C16.002 20.3802 16.8974 21.2756 18.002 21.2756H18.502C19.8827 21.2756 21.002 20.1563 21.002 18.7756V12.2756V5.77563C21.002 4.39492 19.8827 3.27563 18.502 3.27563H18.002C16.8974 3.27563 16.002 4.17107 16.002 5.27563V6.27563C16.002 6.82792 15.5542 7.27563 15.002 7.27563C14.4497 7.27563 14.002 6.82792 14.002 6.27563V5.27563C14.002 4.17107 13.1065 3.27563 12.002 3.27563H7.00195C4.79281 3.27563 3.00195 5.0665 3.00195 7.27564Z" stroke="#4E5964" stroke-width="1.5" stroke-linecap="round"/>
<path opacity="0.4" d="M15.002 11.2756L15.002 9.27563" stroke="#4E5964" stroke-width="1.5" stroke-linecap="round"/>
<path opacity="0.4" d="M15.002 15.2756L15.002 13.2756" stroke="#4E5964" stroke-width="1.5" stroke-linecap="round"/>
<line opacity="0.4" x1="6.75195" y1="10.5256" x2="11.252" y2="10.5256" stroke="#4E5964" stroke-width="1.5" stroke-linecap="round"/>
<line opacity="0.4" x1="6.75195" y1="13.5256" x2="8.25195" y2="13.5256" stroke="#4E5964" stroke-width="1.5" stroke-linecap="round"/>
</svg>
