<svg width="24" height="24" viewBox="0 0 24 24" fill="none" xmlns="http://www.w3.org/2000/svg">
<path opacity="0.4" d="M11.5619 6.3335C11.7004 5.88883 12.3035 5.88883 12.442 6.3335L12.833 7.58876C12.8949 7.78762 13.0726 7.92226 13.2731 7.92226H14.5384C14.9866 7.92226 15.173 8.52055 14.8103 8.79536L13.7867 9.57116C13.6245 9.69406 13.5566 9.91191 13.6186 10.1108L14.0096 11.366C14.1481 11.8107 13.6602 12.1805 13.2976 11.9056L12.2739 11.1298C12.1117 11.0069 11.8922 11.0069 11.73 11.1298L10.7063 11.9056C10.3437 12.1805 9.8558 11.8107 9.99431 11.366L10.3853 10.1108C10.4473 9.91191 10.3794 9.69406 10.2172 9.57116L9.19357 8.79536C8.83095 8.52055 9.01731 7.92226 9.46554 7.92226H10.7308C10.9313 7.92226 11.109 7.78762 11.1709 7.58876L11.5619 6.3335Z" stroke="#4E5964" stroke-width="1.5"/>
<path opacity="0.4" d="M20.002 15L4.00195 15" stroke="#4E5964" stroke-width="1.5" stroke-linecap="square"/>
<path d="M4.00195 18.8691V7.5C4.00195 5.01472 6.01667 3 8.50195 3H15.502C17.9872 3 20.002 5.01472 20.002 7.5V18.8691C20.002 20.5682 18.0389 21.5816 16.5734 20.6391L15.0877 19.5643C13.2591 18.2413 10.7448 18.2413 8.91624 19.5643L7.43052 20.6391C5.96499 21.5816 4.00195 20.5682 4.00195 18.8691Z" stroke="#4E5964" stroke-width="1.5" stroke-linecap="round"/>
</svg>
