<svg width="24" height="24" viewBox="0 0 24 24" fill="none" xmlns="http://www.w3.org/2000/svg">
<path opacity="0.4" d="M5.96094 17.7098V17.2163" stroke="#4E5964" stroke-width="1.48052" stroke-linecap="round"/>
<path opacity="0.4" d="M8.92188 17.7098V17.2163" stroke="#4E5964" stroke-width="1.48052" stroke-linecap="round"/>
<path opacity="0.4" d="M11.8828 17.7098V17.2163" stroke="#4E5964" stroke-width="1.48052" stroke-linecap="round"/>
<path d="M3 13.1039V19.026C3 20.1162 3.8838 21 4.97403 21H6.45455C6.7271 21 6.94805 20.7791 6.94805 20.5065C6.94805 20.2339 7.169 20.013 7.44156 20.013H10.4026C10.6752 20.013 10.8961 20.2339 10.8961 20.5065C10.8961 20.7791 11.1171 21 11.3896 21H13.1991H14.3506H14.9264C15.2951 21 15.6486 20.8536 15.9093 20.5929L15.9957 20.5065L16.4892 20.013L17.4762 19.026L18.4866 18.0156C19.1036 17.3986 19.4502 16.5618 19.4502 15.6892V10.4719L15.5022 13.1039M3 13.1039H5.63203C6.08629 13.1039 6.45455 13.4722 6.45455 13.9264C6.45455 14.3807 6.8228 14.7489 7.27706 14.7489H11.3896C11.8439 14.7489 12.2121 14.3807 12.2121 13.9264C12.2121 13.4722 12.5804 13.1039 13.0346 13.1039H15.5022M3 13.1039L7.78992 10.5493C7.85566 10.5142 7.93507 10.5619 7.93507 10.6364V14.0909M15.5022 13.1039V17.052V19.026V20.013V20.5065M6.94805 2.74023L12.8701 2.74027L15.8312 2.74023H17.3117H18.2987C18.607 2.74023 18.8949 2.89433 19.0659 3.15087L19.1212 3.23378M4.64502 7.01733L4.15152 6.44157L3.90476 6.15369C3.8078 6.04057 3.88818 5.86581 4.03717 5.86581H4.31602M4.23377 5.86581H4.31602M4.31602 5.86581H4.80952H5.96104H7.44156M20.2727 5.53681L19.697 4.38529L19.4091 3.80953L19.2652 3.52165L19.1932 3.37772" stroke="#4E5964" stroke-width="1.48052" stroke-linecap="round"/>
<path d="M18.2979 2C18.8534 2.00015 19.3724 2.278 19.6807 2.74023L19.7363 2.82324C19.7677 2.87043 19.7912 2.92085 19.8105 2.97168C19.8262 2.9956 19.8414 3.02068 19.8545 3.04688L19.9268 3.19043L20.0703 3.47852L20.3584 4.05469L20.9336 5.20605L21.6904 6.71875C22.0636 7.46541 21.948 8.36391 21.3984 8.99219L20.9482 9.50684C20.183 10.3813 19.077 10.8827 17.915 10.8828H9.1709C8.11431 10.8828 7.09938 10.468 6.3457 9.72754L4.125 7.54492L4.10254 7.52344L4.08203 7.49902L3.58887 6.92285L3.3418 6.63574C3.05527 6.30147 3.0636 5.86461 3.26562 5.54688C3.29189 5.42339 3.3477 5.30438 3.43848 5.2041C3.79077 4.81498 4.54709 4.05881 5.19824 3.41602C5.52736 3.09112 5.83585 2.78964 6.06152 2.56934C6.17425 2.45929 6.26692 2.36902 6.33105 2.30664C6.36301 2.27555 6.38826 2.2509 6.40527 2.23438C6.41358 2.22631 6.42044 2.22006 6.4248 2.21582C6.42676 2.21391 6.42861 2.21199 6.42969 2.21094L6.43066 2.20898H6.43164C6.46004 2.18146 6.49013 2.15684 6.52148 2.13477C6.52776 2.13035 6.53362 2.12532 6.54004 2.12109C6.55805 2.10924 6.57793 2.10094 6.59668 2.09082C6.61945 2.07852 6.64189 2.06557 6.66602 2.05566C6.68989 2.04588 6.71469 2.03941 6.73926 2.03223C6.76406 2.02497 6.78865 2.01638 6.81445 2.01172C6.81609 2.01142 6.8177 2.01103 6.81934 2.01074C6.86074 2.00356 6.9038 2 6.94727 2H18.2979ZM9.65039 5.4541C9.5696 6.10324 9.01664 6.60613 8.3457 6.60645H5.28223L7.38281 8.6709C7.85963 9.13941 8.50241 9.40234 9.1709 9.40234H17.915C17.9777 9.40231 18.0405 9.39617 18.1025 9.3916L16.4023 6.60645H14.4326C13.7614 6.60645 13.2078 6.10343 13.127 5.4541H9.65039ZM17.7051 5.89941L19.502 8.84375C19.62 8.74968 19.733 8.64754 19.834 8.53223L20.2842 8.01758C20.4379 7.84174 20.4705 7.58982 20.3662 7.38086L19.6094 5.86816L19.0342 4.7168L18.8379 4.3252L17.7051 5.89941ZM7.0957 3.62891C6.87135 3.84792 6.56484 4.14737 6.23828 4.46973C6.01974 4.68547 5.79535 4.91053 5.58008 5.12598H8.19238C8.27323 4.47667 8.82587 3.97363 9.49707 3.97363H13.2803C13.9513 3.97385 14.5052 4.47675 14.5859 5.12598H16.4385L17.623 3.48047H7.24805C7.20303 3.52432 7.15186 3.57409 7.0957 3.62891Z" fill="#A7ACB0"/>
</svg>
