<svg width="24" height="24" viewBox="0 0 24 24" fill="none" xmlns="http://www.w3.org/2000/svg">
<rect x="3.00195" y="3" width="18" height="18" rx="4.5" stroke="#4E5964" stroke-width="1.5"/>
<path opacity="0.4" d="M14.7818 10.269C14.9389 10.4261 14.9389 10.6821 14.7818 10.8391C14.6248 10.9962 14.3688 10.9962 14.2118 10.8391C14.0547 10.6821 14.0547 10.4261 14.2118 10.269C14.3688 10.1109 14.6237 10.1109 14.7818 10.269" stroke="#4E5964" stroke-width="1.5" stroke-linecap="round" stroke-linejoin="round"/>
<path opacity="0.4" d="M9.78184 10.269C9.93888 10.4261 9.93888 10.6821 9.78184 10.8391C9.6248 10.9962 9.3688 10.9962 9.21176 10.8391C9.05472 10.6821 9.05472 10.4261 9.21176 10.269C9.3688 10.1109 9.62372 10.1109 9.78184 10.269" stroke="#4E5964" stroke-width="1.5" stroke-linecap="round" stroke-linejoin="round"/>
<path opacity="0.4" d="M15.459 15.7044C15.459 15.7044 14.146 17.0164 11.959 17.0164C9.77098 17.0164 8.45898 15.7044 8.45898 15.7044" stroke="#4E5964" stroke-width="1.5" stroke-linecap="round" stroke-linejoin="round"/>
<path opacity="0.4" d="M8.00195 7.30737C8.00195 7.30737 8.18138 7.2527 8.48024 7.16164C8.77925 7.07054 9.91512 6.72446 9.91512 6.72446" stroke="#4E5964" stroke-width="1.5" stroke-linecap="round" stroke-linejoin="round"/>
<path opacity="0.4" d="M14.002 6.72437C14.002 6.72437 14.1814 6.77905 14.4802 6.87013C14.7792 6.96126 15.9151 7.30744 15.9151 7.30744" stroke="#4E5964" stroke-width="1.5" stroke-linecap="round" stroke-linejoin="round"/>
</svg>
