<svg width="24" height="24" viewBox="0 0 24 24" fill="none" xmlns="http://www.w3.org/2000/svg">
<path d="M3 11.9961C3 10.2515 3.72503 8.59694 4.97899 7.48003L8.47898 4.36255C10.5186 2.54582 13.4814 2.54581 15.521 4.36255L19.021 7.48002C20.275 8.59693 21 10.2515 21 11.9961V15.1213C21 18.368 18.5376 21 15.5 21H8.5C5.46244 21 3 18.368 3 15.1213V11.9961Z" stroke="#4E5964" stroke-width="1.5"/>
<path opacity="0.4" d="M10 10.9445V9.5C10 8.67157 10.6716 8 11.5 8H12.5C13.3284 8 14 8.67157 14 9.5V10.9445M13.5 10.9445H10.5C9.11929 10.9445 8 12.0637 8 13.4445V14.4445C8 15.8252 9.11929 16.9445 10.5 16.9445H13.5C14.8807 16.9445 16 15.8252 16 14.4445V13.4445C16 12.0637 14.8807 10.9445 13.5 10.9445Z" stroke="#4E5964" stroke-width="1.5" stroke-linecap="round"/>
<path opacity="0.4" d="M12.7496 14.4446V13.6946L11.2496 13.6946L11.2496 14.4446H12.7496ZM11.2496 14.9446C11.2496 15.3588 11.5854 15.6946 11.9996 15.6946C12.4138 15.6946 12.7496 15.3588 12.7496 14.9446H11.2496ZM11.6496 13.3446C11.6496 13.1513 11.8063 12.9946 11.9996 12.9946V14.4946C12.6347 14.4946 13.1496 13.9797 13.1496 13.3446H11.6496ZM11.9996 12.9946C12.1929 12.9946 12.3496 13.1513 12.3496 13.3446H10.8496C10.8496 13.9797 11.3645 14.4946 11.9996 14.4946V12.9946ZM12.3496 13.3446C12.3496 13.5379 12.1929 13.6946 11.9996 13.6946V12.1946C11.3645 12.1946 10.8496 12.7094 10.8496 13.3446H12.3496ZM11.9996 13.6946C11.8063 13.6946 11.6496 13.5379 11.6496 13.3446H13.1496C13.1496 12.7094 12.6347 12.1946 11.9996 12.1946V13.6946ZM11.2496 14.4446L11.2496 14.9446H12.7496V14.4446H11.2496Z" fill="#4E5964"/>
</svg>
