<svg width="24" height="24" viewBox="0 0 24 24" fill="none" xmlns="http://www.w3.org/2000/svg">
<path d="M12 11.8065L7.404 15.0187C6.52415 15.6337 6 16.6395 6 17.7129C6 19.5283 7.47167 21 9.28706 21H14.7129C16.5283 21 18 19.5283 18 17.7129C18 16.6395 17.4759 15.6337 16.596 15.0187L12 11.8065ZM12 11.8065L7.49788 8.95027C6.56514 8.35853 6 7.33072 6 6.22611C6 4.44438 7.44438 3 9.22611 3H14.7739C16.5556 3 18 4.44438 18 6.22612C18 7.33072 17.4349 8.35853 16.5021 8.95027L12 11.8065Z" stroke="#4E5964" stroke-width="1.5"/>
<path opacity="0.4" d="M8.66452 17.629C8.66595 17.626 8.66763 17.6232 8.66955 17.6205L8.863 17.3521C10.4063 15.211 13.5937 15.211 15.137 17.3521L15.2872 17.5605C15.3179 17.6031 15.3448 17.6483 15.3677 17.6955C15.6601 18.2987 15.2207 19 14.5504 19H9.52359C8.81905 19 8.35723 18.263 8.66452 17.629Z" fill="#4E5964" stroke="#4E5964" stroke-width="1.5"/>
<path opacity="0.4" d="M12 8L12 9" stroke="#4E5964" stroke-width="1.5" stroke-linecap="round"/>
</svg>
