<svg width="24" height="24" viewBox="0 0 24 24" fill="none" xmlns="http://www.w3.org/2000/svg">
<path d="M12 11.8065L7.28139 15.1044C6.47838 15.6657 6 16.5836 6 17.5633V18C6 19.6569 7.34315 21 9 21H15C16.6569 21 18 19.6569 18 18V17.5633C18 16.5836 17.5216 15.6657 16.7186 15.1044L12 11.8065ZM12 11.8065L7.3929 8.88367C6.52553 8.3334 6 7.37763 6 6.35044V6C6 4.34315 7.34315 3 9 3H15C16.6569 3 18 4.34315 18 6V6.35044C18 7.37763 17.4745 8.3334 16.6071 8.88367L12 11.8065Z" stroke="#4E5964" stroke-width="1.5"/>
<path opacity="0.4" d="M10.7734 16.7979C11.5069 16.2739 12.4931 16.2739 13.2266 16.7979L14.5596 17.75H9.44141L10.7734 16.7979Z" stroke="#4E5964" stroke-width="1.5"/>
<path opacity="0.4" d="M12 7L12 8" stroke="#4E5964" stroke-width="1.5" stroke-linecap="round"/>
</svg>
