<svg width="24" height="24" viewBox="0 0 24 24" fill="none" xmlns="http://www.w3.org/2000/svg">
<path d="M4.53516 20.6129C5.03644 21.069 5.79819 21.164 6.40232 20.6698L9.8205 17.8735C11.1134 16.8159 12.8912 16.8159 14.1841 17.8735L17.6023 20.6698C18.5912 21.4787 20.0023 20.7091 20.0023 19.3609V8.99896C20.0023 7.98771 19.7729 7.0349 19.3678 6.19907C19.3455 6.1531 19.3227 6.10749 19.2994 6.06224C19.2886 6.04142 19.2778 6.02067 19.2668 6" stroke="#4E5964" stroke-width="1.5" stroke-linecap="round"/>
<path opacity="0.4" d="M4.00195 18V8.99901C4.00195 5.68585 6.46439 3 9.50195 3H14.502C15.7352 3 16.8736 3.44269 17.7909 4.19033M19.0942 3L2.50195 19.5" stroke="#4E5964" stroke-width="1.5" stroke-linecap="round" stroke-linejoin="round"/>
</svg>
