<svg width="24" height="24" viewBox="0 0 24 24" fill="none" xmlns="http://www.w3.org/2000/svg">
<path opacity="0.4" d="M21 8.66557V20.1788C21 21.6768 19.4125 22.5319 18.3 21.6331L14.4545 18.5262C13 17.351 11 17.351 9.54545 18.5262L5.7 21.6331C4.81926 22.3447 3.64074 21.957 3.188 21.0212M21 8.66557C21 8.51068 20.9951 8.35702 20.9854 8.20477M21 8.66557L20.9854 8.20477M20.9854 8.20477C20.9747 8.03528 20.9581 7.86753 20.9358 7.70176M20.9358 7.70176C20.9267 7.63417 20.9167 7.56691 20.9057 7.5M20.9358 7.70176L20.9057 7.5M20.9057 7.5C20.874 7.30623 20.8345 7.11535 20.7876 6.92775M20.7876 6.92775C20.7515 6.78316 20.7109 6.64052 20.6661 6.5M20.7876 6.92775L20.6661 6.5M20.6661 6.5C20.616 6.34268 20.5605 6.18802 20.5 6.03627M20.5 6.03627C20.4381 5.88119 20.371 5.72916 20.2988 5.58042M20.5 6.03627L20.2988 5.58042M20.2988 5.58042C20.2186 5.4154 20.1323 5.25444 20.04 5.09791M20.04 5.09791C19.9477 4.94129 19.8495 4.78911 19.7458 4.64172M20.04 5.09791L19.7458 4.64172M19.7458 4.64172C19.6336 4.48235 19.8706 4.73692 19.7458 4.58921M17.8589 2.86253C18.0455 2.97644 18.226 3.10049 18.3999 3.23398L17.8589 2.86253ZM17.8589 2.86253C17.7416 2.79091 17.6219 2.7233 17.5 2.65988C16.6872 2.23702 15.7756 2 14.8125 2H9.1875C5.77024 2 3 4.98428 3 8.66557V18.0201M19 2L2 19" stroke="#4E5964" stroke-width="1.5" stroke-linecap="round"/>
<path d="M21 8.66547V20.1787C21 21.6767 19.4125 22.5318 18.3 21.633L14.4545 18.5261C13 17.3509 11 17.3509 9.54545 18.5261L5.69999 21.633C4.81925 22.3446 3.64074 21.9569 3.18799 21.0211M21 8.66547C21 8.51058 20.9951 8.35692 20.9854 8.20467M21 8.66547L20.9854 8.20467M20.9854 8.20467C20.9747 8.03518 20.9581 7.86743 20.9358 7.70166M20.9358 7.70166C20.9267 7.63407 20.9167 7.56681 20.9057 7.4999M20.9358 7.70166L20.9057 7.4999M20.9057 7.4999C20.874 7.30613 20.8345 7.11525 20.7876 6.92765M20.7876 6.92765C20.7515 6.78306 20.7109 6.64042 20.6661 6.4999M20.7876 6.92765L20.6661 6.4999M20.6661 6.4999C20.616 6.34258 20.5605 6.18792 20.5 6.03617M20.5 6.03617C20.4381 5.88109 20.371 5.72906 20.2988 5.58032M20.5 6.03617L20.2988 5.58032M20.2988 5.58032C20.2186 5.4153 20.1323 5.25434 20.04 5.09781M20.04 5.09781C19.9477 4.94119 19.8495 4.78901 19.7458 4.64162M20.04 5.09781L19.7458 4.64162M19.7458 4.64162C19.6336 4.48225 19.8705 4.73682 19.7458 4.58911" stroke="#4E5964" stroke-width="1.5" stroke-linecap="round"/>
</svg>
