<svg width="24" height="24" viewBox="0 0 24 24" fill="none" xmlns="http://www.w3.org/2000/svg">
<path d="M4.5332 20.6129C5.03449 21.069 5.79624 21.164 6.40037 20.6698L9.81855 17.8735C11.1115 16.8159 12.8893 16.8159 14.1822 17.8735L17.6004 20.6698C18.5892 21.4787 20.0004 20.7091 20.0004 19.3609V8.99896C20.0004 7.98771 19.771 7.0349 19.3658 6.19907C19.3436 6.1531 19.3207 6.10749 19.2974 6.06224C19.2867 6.04142 19.2758 6.02067 19.2649 6" stroke="#4E5964" stroke-width="1.5" stroke-linecap="round"/>
<path opacity="0.4" d="M4 18V8.99901C4 5.68585 6.46243 3 9.5 3H14.5C15.7332 3 16.8716 3.44269 17.7889 4.19033M19.0922 3L2.5 19.5" stroke="#4E5964" stroke-width="1.5" stroke-linecap="round" stroke-linejoin="round"/>
</svg>
