<svg width="24" height="24" viewBox="0 0 24 24" fill="none" xmlns="http://www.w3.org/2000/svg">
<path d="M21.0008 9.3V7.2C21.0008 4.8804 19.1204 3 16.8008 3H16.2008H13.8008" stroke="#4E5964" stroke-width="1.5" stroke-linecap="round"/>
<path d="M21.0008 13.8V16.8194C21.0008 19.1283 19.129 21 16.8201 21H13.8008" stroke="#4E5964" stroke-width="1.5" stroke-linecap="round"/>
<path d="M3.00078 9.3V7.2C3.00078 4.8804 4.88119 3 7.20078 3H9.30078" stroke="#4E5964" stroke-width="1.5" stroke-linecap="round"/>
<path d="M2.99922 13.8V16.8194C2.99922 19.1283 4.87096 21 7.17986 21H7.79922H10.1992" stroke="#4E5964" stroke-width="1.5" stroke-linecap="round"/>
<path opacity="0.4" d="M17.7878 6.14625L17.7877 8.75813M17.7878 6.14625L15.0947 6.14624M17.7878 6.14625L14.6992 9.29997" stroke="#4E5964" stroke-width="1.5" stroke-linecap="round" stroke-linejoin="round"/>
<path opacity="0.4" d="M6.10547 6.14625L6.10553 8.75813M6.10547 6.14625L8.79854 6.14624M6.10547 6.14625L9.29973 9.34066" stroke="#4E5964" stroke-width="1.5" stroke-linecap="round" stroke-linejoin="round"/>
<path opacity="0.4" d="M17.7887 17.7678L17.7886 15.1559M17.7887 17.7678L15.0956 17.7678M17.7887 17.7678L14.6992 14.7" stroke="#4E5964" stroke-width="1.5" stroke-linecap="round" stroke-linejoin="round"/>
<path opacity="0.4" d="M6.10553 15.156L6.10547 17.7679L8.79854 17.7679" stroke="#4E5964" stroke-width="1.5" stroke-linecap="round" stroke-linejoin="round"/>
</svg>
