<svg width="24" height="24" viewBox="0 0 24 24" fill="none" xmlns="http://www.w3.org/2000/svg">
<path d="M20.2618 16H6.12146C4.39752 16 3 17.1193 3 18.5C3 19.8807 4.39752 21 6.12146 21H9.65654H13.1916H20.2618C21.0133 21 21.2827 20.2048 20.6343 19.9005C19.2982 19.2735 19.2982 17.7265 20.6343 17.0995C21.2827 16.7952 21.0133 16 20.2618 16Z" stroke="#4E5964" stroke-width="1.5" stroke-linecap="round"/>
<path d="M21 16.5V6.57955C21 4.60262 19.3974 3 17.4205 3H6.57954C4.60262 3 3 4.60262 3 6.57955V18" stroke="#4E5964" stroke-width="1.5" stroke-linecap="round"/>
<path opacity="0.4" d="M12 6V13M10 8H14" stroke="#4E5964" stroke-width="1.5" stroke-linecap="round"/>
</svg>
