<svg width="24" height="24" viewBox="0 0 24 24" fill="none" xmlns="http://www.w3.org/2000/svg">
<path d="M20.5148 14.4324C21.4041 11.9669 20.854 7.77744 20.5656 6.03746C20.4796 5.51857 20.2245 5.04054 19.8214 4.7027C17.3635 2.64281 15.2573 2.00567 12.0338 2C8.79377 1.9943 6.74623 2.72195 4.20153 4.7027C3.76898 5.03939 3.49043 5.53046 3.40019 6.07113C3.11156 7.8004 2.59575 11.8492 3.55273 14.4324C4.34402 16.5684 5.06105 17.7787 6.73312 19.2973C8.4614 20.867 9.7194 22 12.0338 22C14.3481 22 15.6061 20.867 17.3344 19.2973C19.0065 17.7787 19.7419 16.5754 20.5148 14.4324Z" stroke="#4E5964" stroke-width="1.5"/>
<path opacity="0.64" d="M12 12C12.5523 12 13 11.5523 13 11C13 10.4477 12.5523 10 12 10C11.4477 10 11 10.4477 11 11C11 11.5523 11.4477 12 12 12ZM12 12L12 15" stroke="#4E5964" stroke-width="1.5" stroke-miterlimit="10" stroke-linecap="round" stroke-linejoin="round"/>
</svg>
