<svg width="24" height="24" viewBox="0 0 24 24" fill="none" xmlns="http://www.w3.org/2000/svg">
<circle opacity="0.4" cx="12.002" cy="12" r="4" stroke="#4E5964" stroke-width="1.5"/>
<path d="M10.4978 4.20228C10.8599 2.59924 13.144 2.59924 13.5061 4.20228L13.634 4.7684C13.8687 5.80733 15.0609 6.30116 15.9615 5.73247L16.4522 5.42259C17.8417 4.54511 19.4568 6.16021 18.5794 7.54977L18.2695 8.0405C17.7008 8.94107 18.1946 10.1333 19.2336 10.368L19.7997 10.4959C21.4027 10.858 21.4027 13.142 19.7997 13.5041L19.2336 13.632C18.1946 13.8667 17.7008 15.0589 18.2695 15.9595L18.5794 16.4502C19.4568 17.8398 17.8417 19.4549 16.4522 18.5774L15.9615 18.2675C15.0609 17.6988 13.8687 18.1927 13.634 19.2316L13.5061 19.7977C13.144 21.4008 10.8599 21.4008 10.4978 19.7977L10.3699 19.2316C10.1353 18.1927 8.94303 17.6988 8.04245 18.2675L7.55172 18.5774C6.16216 19.4549 4.54707 17.8398 5.42454 16.4502L5.73442 15.9595C6.30312 15.0589 5.80928 13.8667 4.77035 13.632L4.20423 13.5041C2.60119 13.142 2.6012 10.858 4.20423 10.4959L4.77035 10.368C5.80928 10.1333 6.30312 8.94107 5.73442 8.0405L5.42454 7.54977C4.54707 6.1602 6.16216 4.54512 7.55172 5.42259L8.04245 5.73247C8.94303 6.30116 10.1353 5.80732 10.3699 4.76839L10.4978 4.20228Z" stroke="#4E5964" stroke-width="1.5"/>
</svg>
