<svg width="24" height="24" viewBox="0 0 24 24" fill="none" xmlns="http://www.w3.org/2000/svg">
<path d="M3 5H4.5Z" fill="#4E5964"/>
<path d="M3 4.25C2.58579 4.25 2.25 4.58579 2.25 5C2.25 5.41421 2.58579 5.75 3 5.75V4.25ZM4.5 5.75H5.25V4.25H4.5V5.75ZM3 5.75H4.5V4.25H3V5.75Z" fill="#4E5964"/>
<path d="M3 12H10.5Z" fill="#4E5964"/>
<path d="M3 11.25C2.58579 11.25 2.25 11.5858 2.25 12C2.25 12.4142 2.58579 12.75 3 12.75V11.25ZM10.5 12.75H11.25V11.25H10.5V12.75ZM3 12.75H10.5V11.25H3V12.75Z" fill="#4E5964"/>
<path d="M3 19H4.5Z" fill="#4E5964"/>
<path d="M3 18.25C2.58579 18.25 2.25 18.5858 2.25 19C2.25 19.4142 2.58579 19.75 3 19.75V18.25ZM4.5 19.75H5.25V18.25H4.5V19.75ZM3 19.75H4.5V18.25H3V19.75Z" fill="#4E5964"/>
<path opacity="0.64" d="M21 5.75C21.4142 5.75 21.75 5.41421 21.75 5C21.75 4.58579 21.4142 4.25 21 4.25V5.75ZM16 11.25H15.25V12.75H16V11.25ZM21 12.75C21.4142 12.75 21.75 12.4142 21.75 12C21.75 11.5858 21.4142 11.25 21 11.25V12.75ZM21 19.75C21.4142 19.75 21.75 19.4142 21.75 19C21.75 18.5858 21.4142 18.25 21 18.25V19.75ZM21 4.25H9.5V5.75H21V4.25ZM16 12.75H21V11.25H16V12.75ZM21 18.25H9.5V19.75H21V18.25ZM6.9 17.75H8.1V16.25H6.9V17.75ZM8.25 17.9V20.1H9.75V17.9H8.25ZM8.1 20.25H6.9V21.75H8.1V20.25ZM6.75 20.1V17.9H5.25V20.1H6.75ZM6.9 20.25C6.81716 20.25 6.75 20.1828 6.75 20.1H5.25C5.25 21.0113 5.98873 21.75 6.9 21.75V20.25ZM8.25 20.1C8.25 20.1828 8.18284 20.25 8.1 20.25V21.75C9.01127 21.75 9.75 21.0113 9.75 20.1H8.25ZM8.1 17.75C8.18284 17.75 8.25 17.8172 8.25 17.9H9.75C9.75 16.9887 9.01127 16.25 8.1 16.25V17.75ZM6.9 16.25C5.98873 16.25 5.25 16.9887 5.25 17.9H6.75C6.75 17.8172 6.81716 17.75 6.9 17.75V16.25ZM12.9 10.75H14.1V9.25H12.9V10.75ZM14.25 10.9V13.1H15.75V10.9H14.25ZM14.1 13.25H12.9V14.75H14.1V13.25ZM12.75 13.1V10.9H11.25V13.1H12.75ZM12.9 13.25C12.8172 13.25 12.75 13.1828 12.75 13.1H11.25C11.25 14.0113 11.9887 14.75 12.9 14.75V13.25ZM14.25 13.1C14.25 13.1828 14.1828 13.25 14.1 13.25V14.75C15.0113 14.75 15.75 14.0113 15.75 13.1H14.25ZM14.1 10.75C14.1828 10.75 14.25 10.8172 14.25 10.9H15.75C15.75 9.98873 15.0113 9.25 14.1 9.25V10.75ZM12.9 9.25C11.9887 9.25 11.25 9.98873 11.25 10.9H12.75C12.75 10.8172 12.8172 10.75 12.9 10.75V9.25ZM6.9 3.75H8.1V2.25H6.9V3.75ZM8.25 3.9V6.1H9.75V3.9H8.25ZM8.1 6.25H6.9V7.75H8.1V6.25ZM6.75 6.1V3.9H5.25V6.1H6.75ZM6.9 6.25C6.81716 6.25 6.75 6.18284 6.75 6.1H5.25C5.25 7.01127 5.98873 7.75 6.9 7.75V6.25ZM8.25 6.1C8.25 6.18284 8.18284 6.25 8.1 6.25V7.75C9.01127 7.75 9.75 7.01127 9.75 6.1H8.25ZM8.1 3.75C8.18284 3.75 8.25 3.81716 8.25 3.9H9.75C9.75 2.98873 9.01127 2.25 8.1 2.25V3.75ZM6.9 2.25C5.98873 2.25 5.25 2.98873 5.25 3.9H6.75C6.75 3.81716 6.81716 3.75 6.9 3.75V2.25Z" fill="#4E5964"/>
</svg>
