<svg width="24" height="24" viewBox="0 0 24 24" fill="none" xmlns="http://www.w3.org/2000/svg">
<path d="M10.002 5L21.002 5" stroke="#4E5964" stroke-width="1.5" stroke-linecap="round"/>
<path d="M17.002 12L21.002 12" stroke="#4E5964" stroke-width="1.5" stroke-linecap="round"/>
<path d="M10.002 19L21.002 19" stroke="#4E5964" stroke-width="1.5" stroke-linecap="round"/>
<path d="M3.00195 12L10.002 12" stroke="#4E5964" stroke-width="1.5" stroke-linecap="round"/>
<path opacity="0.4" d="M3.00195 4.25C2.58774 4.25 2.25195 4.58579 2.25195 5C2.25195 5.41421 2.58774 5.75 3.00195 5.75L3.00195 4.25ZM3.00195 5.75L5.00195 5.75L5.00195 4.25L3.00195 4.25L3.00195 5.75ZM6.00195 3.75H7.00195V2.25H6.00195V3.75ZM7.25195 4V6H8.75195V4H7.25195ZM7.00195 6.25H6.00195V7.75H7.00195V6.25ZM5.75195 6V4H4.25195V6H5.75195ZM6.00195 6.25C5.86388 6.25 5.75195 6.13807 5.75195 6H4.25195C4.25195 6.9665 5.03545 7.75 6.00195 7.75V6.25ZM7.25195 6C7.25195 6.13807 7.14002 6.25 7.00195 6.25V7.75C7.96845 7.75 8.75195 6.9665 8.75195 6H7.25195ZM7.00195 3.75C7.14002 3.75 7.25195 3.86193 7.25195 4H8.75195C8.75195 3.0335 7.96845 2.25 7.00195 2.25V3.75ZM6.00195 2.25C5.03545 2.25 4.25195 3.0335 4.25195 4H5.75195C5.75195 3.86193 5.86388 3.75 6.00195 3.75V2.25Z" fill="#4E5964"/>
<rect opacity="0.4" x="12.002" y="10" width="3" height="4" rx="1" stroke="#4E5964" stroke-width="1.5"/>
<path opacity="0.4" d="M3.00195 18.25C2.58774 18.25 2.25195 18.5858 2.25195 19C2.25195 19.4142 2.58774 19.75 3.00195 19.75L3.00195 18.25ZM3.00195 19.75L5.00195 19.75L5.00195 18.25L3.00195 18.25L3.00195 19.75ZM6.00195 17.75H7.00195V16.25H6.00195V17.75ZM7.25195 18V20H8.75195V18H7.25195ZM7.00195 20.25H6.00195V21.75H7.00195V20.25ZM5.75195 20V18H4.25195V20H5.75195ZM6.00195 20.25C5.86388 20.25 5.75195 20.1381 5.75195 20H4.25195C4.25195 20.9665 5.03545 21.75 6.00195 21.75V20.25ZM7.25195 20C7.25195 20.1381 7.14002 20.25 7.00195 20.25V21.75C7.96845 21.75 8.75195 20.9665 8.75195 20H7.25195ZM7.00195 17.75C7.14002 17.75 7.25195 17.8619 7.25195 18H8.75195C8.75195 17.0335 7.96845 16.25 7.00195 16.25V17.75ZM6.00195 16.25C5.03545 16.25 4.25195 17.0335 4.25195 18H5.75195C5.75195 17.8619 5.86388 17.75 6.00195 17.75V16.25Z" fill="#4E5964"/>
</svg>
