<svg width="24" height="24" viewBox="0 0 24 24" fill="none" xmlns="http://www.w3.org/2000/svg">
<circle opacity="0.4" cx="12" cy="12" r="4" stroke="#4E5964" stroke-width="1.5"/>
<path d="M10.3287 3.33586C10.7311 1.55471 13.2689 1.55471 13.6713 3.33586L13.8134 3.96488C14.0741 5.11925 15.3988 5.66796 16.3995 5.03608L16.9447 4.69176C18.4887 3.71679 20.2832 5.51134 19.3082 7.0553L18.9639 7.60055C18.332 8.60119 18.8808 9.92589 20.0351 10.1866L20.6641 10.3287C22.4453 10.7311 22.4453 13.2689 20.6641 13.6713L20.0351 13.8134C18.8808 14.0741 18.332 15.3988 18.9639 16.3995L19.3082 16.9447C20.2832 18.4887 18.4887 20.2832 16.9447 19.3082L16.3995 18.9639C15.3988 18.332 14.0741 18.8808 13.8134 20.0351L13.6713 20.6641C13.2689 22.4453 10.7311 22.4453 10.3287 20.6641L10.1866 20.0351C9.92589 18.8808 8.60119 18.332 7.60055 18.9639L7.0553 19.3082C5.51134 20.2832 3.71679 18.4887 4.69177 16.9447L5.03608 16.3995C5.66796 15.3988 5.11925 14.0741 3.96488 13.8134L3.33586 13.6713C1.55471 13.2689 1.55471 10.7311 3.33586 10.3287L3.96488 10.1866C5.11925 9.92589 5.66796 8.60119 5.03608 7.60055L4.69176 7.0553C3.71679 5.51134 5.51134 3.71679 7.0553 4.69177L7.60055 5.03608C8.60119 5.66796 9.92589 5.11925 10.1866 3.96488L10.3287 3.33586Z" stroke="#4E5964" stroke-width="1.5"/>
</svg>
