<svg width="24" height="24" viewBox="0 0 24 24" fill="none" xmlns="http://www.w3.org/2000/svg">
<path d="M19.6242 6.69995C19.8831 8.30367 20.3479 12.0009 19.5683 14.1892C18.8813 16.1179 18.2276 17.2009 16.7413 18.5676C15.2051 19.9803 14.0869 21 12.0296 21C10.0966 21 8.99259 20.0997 7.5918 18.8189" stroke="#4E5964" stroke-width="1.5" stroke-linecap="round"/>
<path opacity="0.4" d="M12.0304 3.00005C9.15039 2.99492 7.33035 3.64981 5.0684 5.43248C4.68363 5.73572 4.43671 6.17562 4.35693 6.65898C4.10053 8.21247 3.64012 11.8618 4.49169 14.1892C4.86222 15.2019 5.21444 15.9834 5.6821 16.6961M12.0304 3.00005C12.5752 3.00102 13.0842 3.02254 13.5662 3.0695M12.0304 3.00005L13.5662 3.0695M13.5662 3.0695C14.1114 3.12263 14.6222 3.20831 15.1115 3.33364M15.1115 3.33364C15.3906 3.40513 15.6627 3.48952 15.9303 3.58812M15.1115 3.33364L15.9303 3.58812M15.9303 3.58812C16.131 3.66212 16.3293 3.74413 16.5259 3.83469M16.5259 3.83469C16.5425 3.84232 16.563 3.85156 16.5869 3.8622M16.5259 3.83469L16.5869 3.8622M16.5869 3.8622C16.8986 4.001 17.7868 4.3774 18.0004 4.50002L16.5869 3.8622ZM20.5473 2.51685L3.45508 19.4832" stroke="#4E5964" stroke-width="1.5" stroke-linecap="round" stroke-linejoin="round"/>
</svg>
