<svg width="24" height="24" viewBox="0 0 24 24" fill="none" xmlns="http://www.w3.org/2000/svg">
<path opacity="0.4" d="M20.4222 5.39213C20.4222 5.39213 21.6581 11.358 20.5148 14.4997C19.7419 16.6236 19.0065 17.8162 17.3344 19.3214C15.6061 20.8771 14.3481 22.0001 12.0338 22.0001C9.7194 22.0001 8.4614 20.8771 6.73312 19.3214M12.0338 2.17769C8.79377 2.17204 6.74623 2.89323 4.20153 4.85639C3.76898 5.19009 3.49043 5.67679 3.40019 6.21266C3.11156 7.92658 2.59575 11.9394 3.55273 14.4997C3.96958 15.615 4.36583 16.4756 4.89195 17.2604M12.0338 2.17769C12.6467 2.17876 13.2193 2.20246 13.7615 2.25418M12.0338 2.17769L13.7615 2.25418M13.7615 2.25418C14.3749 2.31268 14.9495 2.40704 15.5 2.54506M15.5 2.54506C15.814 2.62378 16.1201 2.71672 16.4211 2.8253M15.5 2.54506L16.4211 2.8253M16.4211 2.8253C16.647 2.90679 16.87 2.9971 17.0912 3.09684M17.0912 3.09684C17.3529 3.21482 17.6122 3.34599 17.8709 3.49137L17.0912 3.09684ZM19.816 2L3.18266 19.2048" stroke="#4E5964" stroke-width="1.5" stroke-linecap="round" stroke-linejoin="round"/>
<path d="M20.422 5.39209C20.422 5.39209 21.6579 11.3579 20.5146 14.4997C19.7416 16.6236 19.0063 17.8162 17.3342 19.3213C15.6059 20.8771 14.3479 22 12.0336 22C9.71919 22 8.4612 20.8771 6.73291 19.3213" stroke="#4E5964" stroke-width="1.5" stroke-linecap="round" stroke-linejoin="round"/>
</svg>
