<svg width="24" height="24" viewBox="0 0 24 24" fill="none" xmlns="http://www.w3.org/2000/svg">
<path opacity="0.4" d="M20.4222 5.24332C20.4222 5.24332 21.6581 11.2626 20.5148 14.4325C19.7419 16.5755 19.0065 17.7787 17.3344 19.2974C15.6061 20.867 14.3481 22.0001 12.0338 22.0001C9.7194 22.0001 8.4614 20.867 6.73312 19.2974M12.0338 2.00009C8.79377 1.99439 6.74623 2.72204 4.20153 4.70278C3.76898 5.03948 3.49043 5.53054 3.40019 6.0712C3.11156 7.80048 2.59575 11.8493 3.55273 14.4325C3.96958 15.5577 4.36583 16.4261 4.89195 17.2179M12.0338 2.00009C12.6467 2.00116 13.2193 2.02507 13.7615 2.07726M12.0338 2.00009L13.7615 2.07726M13.7615 2.07726C14.3749 2.13628 14.9495 2.23149 15.5 2.37074M15.5 2.37074C15.814 2.45017 16.1201 2.54394 16.4211 2.6535M15.5 2.37074L16.4211 2.6535M16.4211 2.6535C16.647 2.73572 16.87 2.82684 17.0912 2.92747M17.0912 2.92747C17.3529 3.0465 17.6122 3.17885 17.8709 3.32554L17.0912 2.92747ZM19.816 1.8208L3.18266 19.1797" stroke="#4E5964" stroke-width="1.5" stroke-linecap="round" stroke-linejoin="round"/>
<path d="M20.422 5.24329C20.422 5.24329 21.6579 11.2626 20.5146 14.4325C19.7416 16.5754 19.0063 17.7787 17.3342 19.2973C15.6059 20.867 14.3479 22 12.0336 22C9.71919 22 8.4612 20.867 6.73291 19.2973" stroke="#4E5964" stroke-width="1.5" stroke-linecap="round" stroke-linejoin="round"/>
</svg>
