<svg width="24" height="24" viewBox="0 0 24 24" fill="none" xmlns="http://www.w3.org/2000/svg">
<path d="M2.99997 9.70391L3.00015 16.5009C3.00022 18.9858 5.01432 21.0003 7.49917 21.0008L16.4994 21.0028C18.985 21.0033 21.0003 18.9885 21.0003 16.5028L21.0005 9.70365" stroke="#4E5964" stroke-width="1.5" stroke-linecap="round"/>
<path opacity="0.4" d="M10 19V15C10 14.4477 10.4477 14 11 14H13C13.5523 14 14 14.4477 14 15V19" stroke="#4E5964" stroke-width="1.5" stroke-linecap="round"/>
<path d="M12 7.62063C12.0996 8.95283 13.1266 9.96972 14.351 9.99778C14.4984 10.0012 14.6464 10.0011 14.7937 9.99759C16.0174 9.96845 17.0436 8.95193 17.1432 7.62063V7.67212C17.2636 9.06782 18.4088 10.1012 19.7141 9.99208C20.484 10.0227 21.213 9.62066 21.6367 8.93179C22.0604 8.24291 22.1174 7.36718 21.787 6.62207L20.8811 4.71358C20.3844 3.66702 19.3294 3 18.1709 3H12H5.82906C4.67058 3 3.61563 3.66702 3.11887 4.71358L2.21298 6.62207C1.88265 7.367 1.93953 8.2425 2.36301 8.93131C2.7865 9.62011 3.51514 10.0223 4.2849 9.99208C5.5906 10.1013 6.73636 9.06814 6.85777 7.67212V7.62063C6.95742 8.95242 7.98435 9.96919 9.20858 9.99762C9.35506 10.001 9.50219 10.001 9.64868 9.99762C10.873 9.96919 11.9003 8.95242 12 7.62063ZM12 7.62063V7.5" stroke="#B8BDC1" stroke-width="1.5" stroke-linecap="round" stroke-linejoin="round"/>
</svg>
