<svg width="24" height="24" viewBox="0 0 24 24" fill="none" xmlns="http://www.w3.org/2000/svg">
<path opacity="0.4" d="M7 20.9998C9.76103 19.6667 14.2383 19.6667 17 20.9998" stroke="#4E5964" stroke-width="1.5" stroke-linecap="round" stroke-linejoin="round"/>
<path d="M21 10V13C21 15.2091 19.2091 17 17 17H7C4.79086 17 3 15.2091 3 13V7C3 4.79086 4.79086 3 7 3H12H14.5" stroke="#4E5964" stroke-width="1.5" stroke-linecap="round"/>
<path opacity="0.4" d="M17 7.27271L14.4511 12.3695C14.3774 12.5169 14.167 12.5169 14.0933 12.3695L11.6002 7.38326C11.5663 7.31551 11.4971 7.27271 11.4213 7.27271H8.81641M8.81641 12.7273V7.27271M8.81641 7.27271H7" stroke="#4E5964" stroke-width="1.5" stroke-linecap="round"/>
<path opacity="0.4" d="M18.168 3.99292C19.2687 4.08443 20.0869 5.05097 19.9954 6.15174" stroke="#4E5964" stroke-width="1.5" stroke-linecap="round" stroke-linejoin="round"/>
<path opacity="0.4" d="M18.332 2C20.5336 2.18303 22.1699 4.11611 21.9869 6.31765" stroke="#4E5964" stroke-width="1.5" stroke-linecap="round" stroke-linejoin="round"/>
</svg>
