<svg width="24" height="24" viewBox="0 0 24 24" fill="none" xmlns="http://www.w3.org/2000/svg">
<path opacity="0.4" d="M7 20.9998C9.76103 19.6667 14.2383 19.6667 17 20.9998" stroke="#4E5964" stroke-width="1.5" stroke-linecap="round" stroke-linejoin="round"/>
<path d="M17 3H7C4.79086 3 3 4.79086 3 7V13C3 15.2091 4.79086 17 7 17H17C19.2091 17 21 15.2091 21 13V7C21 4.79086 19.2091 3 17 3Z" stroke="#4E5964" stroke-width="1.5" stroke-linecap="round"/>
<g opacity="0.4">
<path d="M9.524 14.216H8.516C8.34 14.216 8.252 14.132 8.252 13.964V7.952C8.252 7.864 8.208 7.82 8.12 7.82H6.752C6.584 7.82 6.5 7.736 6.5 7.568V6.752C6.5 6.584 6.584 6.5 6.752 6.5H11.288C11.456 6.5 11.54 6.584 11.54 6.752V7.568C11.54 7.736 11.456 7.82 11.288 7.82H9.92C9.824 7.82 9.776 7.864 9.776 7.952V13.964C9.776 14.132 9.692 14.216 9.524 14.216Z" fill="#4E5964"/>
<path d="M15.6003 14.216H14.0283C13.8603 14.216 13.7603 14.132 13.7283 13.964L11.8683 6.776C11.8123 6.592 11.8923 6.5 12.1083 6.5H13.2363C13.3963 6.5 13.4923 6.584 13.5243 6.752L14.7843 12.656H14.8323L16.0923 6.752C16.1243 6.584 16.2203 6.5 16.3803 6.5H17.5083C17.7083 6.5 17.7883 6.592 17.7483 6.776L15.8883 13.964C15.8483 14.132 15.7523 14.216 15.6003 14.216Z" fill="#4E5964"/>
</g>
</svg>
