<svg width="24" height="24" viewBox="0 0 24 24" fill="none" xmlns="http://www.w3.org/2000/svg">
<path opacity="0.4" d="M7 20.9998C9.76103 19.6667 14.2383 19.6667 17 20.9998" stroke="#4E5964" stroke-width="1.5" stroke-linecap="round" stroke-linejoin="round"/>
<path d="M21 10V13C21 15.2091 19.2091 17 17 17H7C4.79086 17 3 15.2091 3 13V7C3 4.79086 4.79086 3 7 3H12H14.5" stroke="#4E5964" stroke-width="1.5" stroke-linecap="round"/>
<path opacity="0.4" d="M18.168 3.99292C19.2687 4.08443 20.0869 5.05097 19.9954 6.15174" stroke="#4E5964" stroke-width="1.5" stroke-linecap="round" stroke-linejoin="round"/>
<path opacity="0.4" d="M18.332 2C20.5336 2.18303 22.1699 4.11611 21.9869 6.31765" stroke="#4E5964" stroke-width="1.5" stroke-linecap="round" stroke-linejoin="round"/>
<g opacity="0.4">
<path d="M9.024 14.216H8.016C7.84 14.216 7.752 14.132 7.752 13.964V7.952C7.752 7.864 7.708 7.82 7.62 7.82H6.252C6.084 7.82 6 7.736 6 7.568V6.752C6 6.584 6.084 6.5 6.252 6.5H10.788C10.956 6.5 11.04 6.584 11.04 6.752V7.568C11.04 7.736 10.956 7.82 10.788 7.82H9.42C9.324 7.82 9.276 7.864 9.276 7.952V13.964C9.276 14.132 9.192 14.216 9.024 14.216Z" fill="#4E5964"/>
<path d="M15.1003 14.216H13.5283C13.3603 14.216 13.2603 14.132 13.2283 13.964L11.3683 6.776C11.3123 6.592 11.3923 6.5 11.6083 6.5H12.7363C12.8963 6.5 12.9923 6.584 13.0243 6.752L14.2843 12.656H14.3323L15.5923 6.752C15.6243 6.584 15.7203 6.5 15.8803 6.5H17.0083C17.2083 6.5 17.2883 6.592 17.2483 6.776L15.3883 13.964C15.3483 14.132 15.2523 14.216 15.1003 14.216Z" fill="#4E5964"/>
</g>
</svg>
