<svg width="24" height="24" viewBox="0 0 24 24" fill="none" xmlns="http://www.w3.org/2000/svg">
<path opacity="0.4" d="M7 20.9998C9.76103 19.6667 14.2383 19.6667 17 20.9998" stroke="#4E5964" stroke-width="1.5" stroke-linecap="round" stroke-linejoin="round"/>
<path d="M17 3H7C4.79086 3 3 4.79086 3 7V13C3 15.2091 4.79086 17 7 17H17C19.2091 17 21 15.2091 21 13V7C21 4.79086 19.2091 3 17 3Z" stroke="#4E5964" stroke-width="1.5" stroke-linecap="round"/>
<path opacity="0.4" d="M17 7.27271L14.4511 12.3695C14.3774 12.5169 14.167 12.5169 14.0933 12.3695L11.6002 7.38326C11.5663 7.31551 11.4971 7.27271 11.4213 7.27271H8.81641M8.81641 12.7273V7.27271M8.81641 7.27271H7" stroke="#4E5964" stroke-width="1.5" stroke-linecap="round"/>
</svg>
