<svg width="24" height="24" viewBox="0 0 24 24" fill="none" xmlns="http://www.w3.org/2000/svg">
<path d="M3 15.4946H8M16 15.4946H21" stroke="#4E5964" stroke-width="1.5" stroke-linecap="round"/>
<path opacity="0.4" d="M12 15.5L12 8.8396" stroke="#4E5964" stroke-width="1.5" stroke-linecap="round"/>
<path d="M11.9834 2.76172C13.5085 2.75257 14.7498 3.98667 14.75 5.51172V12.7539C14.7501 12.9029 14.8053 13.0923 14.9414 13.3701C15.0082 13.5065 15.0827 13.6413 15.168 13.7988C15.2493 13.9491 15.341 14.1197 15.4199 14.2949C15.7656 15.0629 15.8426 15.9251 15.6387 16.7422C15.4347 17.5594 14.961 18.2843 14.2949 18.7998C13.6289 19.3152 12.8089 19.5914 11.9668 19.584C11.1246 19.5765 10.3092 19.286 9.65234 18.7588C8.99557 18.2316 8.53515 17.4984 8.3457 16.6777C8.15628 15.8571 8.24918 14.9961 8.6084 14.2344C8.68523 14.0715 8.77357 13.9111 8.85156 13.7705C8.93355 13.6227 9.00556 13.4943 9.06934 13.3662C9.20061 13.1025 9.25 12.929 9.25 12.8018V5.51172C9.25022 3.99959 10.4713 2.77085 11.9834 2.76172Z" stroke="#4E5964" stroke-width="1.5" stroke-linecap="round"/>
<path opacity="0.4" d="M19.5 4.33423L17.5 4.33423M19.5 8.33423H17.5M19.5 12.3342H17.5" stroke="#4E5964" stroke-width="1.5" stroke-linecap="round"/>
<path opacity="0.4" d="M21 19.5014C20.5234 20.2162 19.9149 20.5304 19.0752 20.4953C18.2978 20.4627 18.1085 19.4766 17.3308 19.5014C16.5939 19.5248 16.4407 20.4229 15.7068 20.4953C14.8281 20.5818 14.5673 19.4557 13.6857 19.5014C12.7714 19.4971 12.6006 20.5304 11.7609 20.4953C10.9835 20.4627 10.7942 19.4766 10.0165 19.5014C9.27966 19.5248 9.12638 20.4229 8.39248 20.4953C7.51379 20.5818 7.22894 19.4557 6.34737 19.5014C5.5497 19.5427 5.34145 20.4841 4.54286 20.4953C3.74426 20.5064 3 19.5 3 19.5" stroke="#4E5964" stroke-width="1.5" stroke-linecap="round"/>
</svg>
