<svg width="24" height="24" viewBox="0 0 24 24" fill="none" xmlns="http://www.w3.org/2000/svg">
<rect x="3" y="3" width="18" height="18" rx="4.5" stroke="#4E5964" stroke-width="1.5"/>
<g opacity="0.4">
<path d="M8.92 12.992V9.284L6.976 12.992H8.92ZM10.108 15.716H9.172C9.004 15.716 8.92 15.632 8.92 15.464V14.312H5.944C5.808 14.312 5.7 14.272 5.62 14.192C5.54 14.112 5.5 14.004 5.5 13.868V13.4C5.5 13.16 5.54 12.964 5.62 12.812L8.008 8.372C8.088 8.228 8.16 8.132 8.224 8.084C8.296 8.028 8.4 8 8.536 8H9.892C10.028 8 10.136 8.04 10.216 8.12C10.304 8.2 10.348 8.308 10.348 8.444V12.992H11.212C11.372 12.992 11.452 13.072 11.452 13.232V14.036C11.452 14.22 11.372 14.312 11.212 14.312H10.348V15.464C10.348 15.56 10.328 15.628 10.288 15.668C10.256 15.7 10.196 15.716 10.108 15.716Z" fill="#4E5964"/>
<path d="M13.6482 15.716H12.6282C12.4602 15.716 12.3762 15.632 12.3762 15.464V8.252C12.3762 8.084 12.4602 8 12.6282 8H13.6482C13.8162 8 13.9002 8.084 13.9002 8.252V11.672H13.9242C13.9882 11.48 14.1122 11.232 14.2962 10.928L16.1202 8.252C16.2242 8.084 16.3802 8 16.5882 8H17.7642C17.8522 8 17.9042 8.028 17.9202 8.084C17.9442 8.132 17.9242 8.196 17.8602 8.276L15.5802 11.432L18.1242 15.416C18.1802 15.512 18.1882 15.588 18.1482 15.644C18.1162 15.692 18.0442 15.716 17.9322 15.716H17.0562C16.7762 15.716 16.5882 15.632 16.4922 15.464L14.6562 12.524L13.9002 13.412V15.464C13.9002 15.632 13.8162 15.716 13.6482 15.716Z" fill="#4E5964"/>
</g>
</svg>
