<svg width="24" height="24" viewBox="0 0 24 24" fill="none" xmlns="http://www.w3.org/2000/svg">
<path d="M8.32895 12H7.26316H6.3C4.47746 12 3 13.4775 3 15.3V17.2263C3 19.0489 4.47746 20.5263 6.3 20.5263H16.7526C18.5752 20.5263 20.0526 19.0489 20.0526 17.2263V15.3C20.0526 13.4775 18.5752 12 16.7526 12H15.7895H14.7237" stroke="#4E5964" stroke-width="1.5" stroke-linecap="round"/>
<rect opacity="0.4" x="7.73633" y="14.8423" width="7.57895" height="2.84211" rx="1" stroke="#4E5964" stroke-width="1.5"/>
<circle opacity="0.4" cx="11.5258" cy="7.26311" r="3.78947" stroke="#4E5964" stroke-width="1.5"/>
<path opacity="0.4" d="M11.3139 5.79099C11.431 5.67383 11.621 5.67383 11.7381 5.79099L12.9981 7.05094C13.1152 7.16809 13.1152 7.35804 12.9981 7.4752L11.7381 8.73515C11.621 8.8523 11.431 8.8523 11.3139 8.73515L10.0539 7.4752C9.93677 7.35804 9.93677 7.16809 10.0539 7.05094L11.3139 5.79099Z" stroke="#4E5964" stroke-width="1.5"/>
<path opacity="0.4" d="M17.2109 5.36845L19.1057 7.26318M19.1057 7.26318L21.0004 5.36845M19.1057 7.26318L19.1057 3.47371" stroke="#4E5964" stroke-width="1.5" stroke-linecap="round" stroke-linejoin="round"/>
</svg>
