<svg width="24" height="24" viewBox="0 0 24 24" fill="none" xmlns="http://www.w3.org/2000/svg">
<path opacity="0.64" d="M21.3613 11.3179L21.8143 11.9156L21.3613 11.3179ZM17.9491 13.9039L17.4961 13.3061L17.9491 13.9039ZM17.3888 15.7025L18.1049 15.4795V15.4795L17.3888 15.7025ZM18.6921 19.8868L17.9761 20.1098L18.6921 19.8868ZM16.3188 21.6855L16.7718 21.0877L16.3188 21.6855ZM12.9066 19.0995L13.3596 18.5017H13.3596L12.9066 19.0995ZM11.0934 19.0995L10.6404 18.5017H10.6404L11.0934 19.0995ZM7.68125 21.6855L8.13425 22.2832L7.68125 21.6855ZM6.05092 13.9039L5.59792 14.5016L5.59792 14.5016L6.05092 13.9039ZM2.63872 11.3179L3.09173 10.7201H3.09173L2.63872 11.3179ZM9.22982 7.29586L8.51376 7.07281V7.07281L9.22982 7.29586ZM10.5332 3.11166L9.8171 2.88861L9.8171 2.88861L10.5332 3.11166ZM5.30786 19.8868L6.02392 20.1098L5.30786 19.8868ZM13.4668 3.11166L14.1829 2.88861V2.88861L13.4668 3.11166ZM15.7882 8.33802L15.9621 7.60845L15.5614 9.05289L15.7882 8.33802ZM6.47793 14.397L7.13323 14.0322L7.13323 14.0322L6.47793 14.397ZM19.5303 2.53033C19.8232 2.23744 19.8232 1.76256 19.5303 1.46967C19.2374 1.17678 18.7626 1.17678 18.4697 1.46967L19.5303 2.53033ZM1.46967 18.4697C1.17678 18.7626 1.17678 19.2374 1.46967 19.5303C1.76256 19.8232 2.23744 19.8232 2.53033 19.5303L1.46967 18.4697ZM16.237 9.15752H20.4547V7.65752H16.237V9.15752ZM20.9083 10.7201L17.4961 13.3061L18.4021 14.5016L21.8143 11.9156L20.9083 10.7201ZM16.6727 15.9256L17.9761 20.1098L19.4082 19.6637L18.1049 15.4795L16.6727 15.9256ZM16.7718 21.0877L13.3596 18.5017L12.4536 19.6972L15.8658 22.2832L16.7718 21.0877ZM10.6404 18.5017L7.22824 21.0877L8.13425 22.2832L11.5464 19.6972L10.6404 18.5017ZM6.50393 13.3061L3.09173 10.7201L2.18572 11.9156L5.59792 14.5016L6.50393 13.3061ZM3.54528 9.15752H7.76299V7.65752H3.54528V9.15752ZM9.94589 7.51891L11.2492 3.33471L9.8171 2.88861L8.51376 7.07281L9.94589 7.51891ZM7.76299 9.15752C8.77679 9.15752 9.64703 8.47834 9.94589 7.51891L8.51376 7.07281C8.39966 7.43911 8.08553 7.65752 7.76299 7.65752V9.15752ZM3.09173 10.7201C2.77447 10.4797 2.68363 10.0982 2.79451 9.74222C2.90477 9.38825 3.18009 9.15752 3.54528 9.15752V7.65752C2.41638 7.65752 1.63406 8.42393 1.36238 9.29613C1.09131 10.1663 1.29424 11.24 2.18572 11.9156L3.09173 10.7201ZM7.22824 21.0877C6.92247 21.3195 6.58523 21.2879 6.32114 21.0877C6.05238 20.884 5.89452 20.5252 6.02392 20.1098L4.59179 19.6637C4.2595 20.7305 4.68397 21.7291 5.41514 22.2832C6.15098 22.8409 7.23129 22.9675 8.13425 22.2832L7.22824 21.0877ZM13.3596 18.5017C12.5511 17.889 11.4489 17.889 10.6404 18.5017L11.5464 19.6972C11.8191 19.4906 12.1809 19.4906 12.4536 19.6972L13.3596 18.5017ZM17.9761 20.1098C18.1055 20.5252 17.9476 20.884 17.6789 21.0877C17.4148 21.2879 17.0775 21.3195 16.7718 21.0877L15.8658 22.2832C16.7687 22.9675 17.849 22.8409 18.5849 22.2832C19.316 21.7291 19.7405 20.7305 19.4082 19.6637L17.9761 20.1098ZM17.4961 13.3061C16.6957 13.9127 16.3753 14.9707 16.6727 15.9256L18.1049 15.4795C17.9894 15.1087 18.1213 14.7144 18.4021 14.5016L17.4961 13.3061ZM20.4547 9.15752C20.8199 9.15752 21.0952 9.38825 21.2055 9.74222C21.3164 10.0982 21.2255 10.4797 20.9083 10.7201L21.8143 11.9156C22.7058 11.24 22.9087 10.1663 22.6376 9.29612C22.3659 8.42393 21.5836 7.65752 20.4547 7.65752V9.15752ZM14.1829 2.88861C13.5023 0.703795 10.4977 0.703799 9.8171 2.88861L11.2492 3.33471C11.4921 2.5551 12.5079 2.5551 12.7508 3.33471L14.1829 2.88861ZM15.8802 9.12886C15.9971 9.14777 16.1163 9.15752 16.237 9.15752V7.65752C16.1971 7.65752 16.158 7.6543 16.1198 7.64812L15.8802 9.12886ZM16.297 7.65992L16.06 7.64089L15.94 9.13608L16.177 9.15511L16.297 7.65992ZM15.5614 9.05289C15.6649 9.08575 15.7714 9.11126 15.8802 9.12886L16.1198 7.64812C16.0843 7.64236 16.0493 7.634 16.0151 7.62315L15.5614 9.05289ZM16.1739 7.65892L15.9621 7.60845L15.6143 9.06758L15.8261 9.11806L16.1739 7.65892ZM7.32727 14.4852C7.27843 14.3284 7.21355 14.1765 7.13323 14.0322L5.82264 14.7618C5.85228 14.8151 5.87664 14.8719 5.89514 14.9313L7.32727 14.4852ZM7.13323 14.0322C6.97896 13.7551 6.76746 13.5058 6.50392 13.3061L5.59792 14.5016C5.68982 14.5712 5.7658 14.6597 5.82264 14.7618L7.13323 14.0322ZM6.02392 20.1098L6.34976 19.0638L4.91763 18.6177L4.59179 19.6637L6.02392 20.1098ZM18.4697 1.46967L1.46967 18.4697L2.53033 19.5303L19.5303 2.53033L18.4697 1.46967ZM12.7508 3.33471L13.7283 6.47286L15.1604 6.02676L14.1829 2.88861L12.7508 3.33471Z" fill="#4E5964"/>
<path opacity="0.64" d="M21.3613 11.318L21.8143 11.9157V11.9157L21.3613 11.318ZM17.9491 13.904L17.4961 13.3062L17.9491 13.904ZM17.3888 15.7027L18.1049 15.4796V15.4796L17.3888 15.7027ZM18.6922 19.8869L17.9761 20.1099L18.6922 19.8869ZM16.3188 21.6856L16.7718 21.0878L16.3188 21.6856ZM12.9066 19.0996L13.3596 18.5019L12.9066 19.0996ZM11.0935 19.0996L10.6405 18.5019L10.6405 18.5019L11.0935 19.0996ZM7.68127 21.6856L7.22827 21.0878L7.68127 21.6856ZM5.30788 19.8869L6.02395 20.1099L5.30788 19.8869ZM15.7882 8.33813L15.9621 7.60857L15.5614 9.053L15.7882 8.33813ZM16.237 9.15763H20.4547V7.65763H16.237V9.15763ZM20.9083 10.7203L17.4961 13.3062L18.4021 14.5017L21.8143 11.9157L20.9083 10.7203ZM16.6728 15.9257L17.9761 20.1099L19.4082 19.6638L18.1049 15.4796L16.6728 15.9257ZM16.7718 21.0878L13.3596 18.5019L12.4536 19.6973L15.8658 22.2833L16.7718 21.0878ZM10.6405 18.5019L7.22827 21.0878L8.13427 22.2833L11.5465 19.6973L10.6405 18.5019ZM7.22827 21.0878C6.92249 21.3196 6.58526 21.288 6.32116 21.0878C6.0524 20.8841 5.89455 20.5253 6.02395 20.1099L4.59182 19.6638C4.25952 20.7306 4.68399 21.7292 5.41516 22.2833C6.151 22.841 7.23131 22.9676 8.13427 22.2833L7.22827 21.0878ZM13.3596 18.5019C12.5511 17.8892 11.4489 17.8892 10.6405 18.5019L11.5465 19.6973C11.8192 19.4907 12.1809 19.4907 12.4536 19.6973L13.3596 18.5019ZM17.9761 20.1099C18.1055 20.5253 17.9476 20.8841 17.6789 21.0878C17.4148 21.288 17.0776 21.3196 16.7718 21.0878L15.8658 22.2833C16.7687 22.9676 17.849 22.841 18.5849 22.2833C19.3161 21.7292 19.7405 20.7306 19.4082 19.6638L17.9761 20.1099ZM17.4961 13.3062C16.6958 13.9128 16.3753 14.9708 16.6728 15.9257L18.1049 15.4796C17.9894 15.1088 18.1213 14.7145 18.4021 14.5017L17.4961 13.3062ZM20.4547 9.15763C20.8199 9.15763 21.0953 9.38837 21.2055 9.74234C21.3164 10.0983 21.2255 10.4798 20.9083 10.7203L21.8143 11.9157C22.7058 11.2401 22.9087 10.1665 22.6376 9.29624C22.366 8.42405 21.5836 7.65763 20.4547 7.65763V9.15763ZM15.8802 9.12897C15.9971 9.14789 16.1163 9.15763 16.237 9.15763V7.65763C16.1972 7.65763 16.158 7.65442 16.1198 7.64824L15.8802 9.12897ZM16.2971 7.66004L16.06 7.64101L15.94 9.1362L16.177 9.15523L16.2971 7.66004ZM15.5614 9.053C15.665 9.08587 15.7715 9.11138 15.8802 9.12897L16.1198 7.64824C16.0843 7.64248 16.0493 7.63412 16.0151 7.62327L15.5614 9.053ZM16.1739 7.65904L15.9621 7.60857L15.6144 9.0677L15.8262 9.11817L16.1739 7.65904ZM6.02395 20.1099L6.34978 19.0639L4.91765 18.6178L4.59182 19.6638L6.02395 20.1099Z" fill="#4E5964"/>
</svg>
