<svg width="24" height="24" viewBox="0 0 24 24" fill="none" xmlns="http://www.w3.org/2000/svg">
<path d="M6.0332 20.1569C6.37603 20.9117 7.33964 21.3032 8.1132 20.717L11.1842 18.3896C11.6707 18.0209 12.3295 18.0209 12.816 18.3896L15.887 20.717C16.9748 21.5414 18.4385 20.4321 18.023 19.0982L16.85 15.3324C16.6642 14.7358 16.8677 14.0823 17.3543 13.7135L20.4252 11.3862C21.5131 10.5617 20.954 8.76685 19.6093 8.76685H17.7114H17.4741H17.4148" stroke="#4E5964" stroke-width="1.5" stroke-linecap="round"/>
<path opacity="0.4" d="M14.4932 7.76627L13.3201 4.00049C12.9046 2.6665 11.0954 2.6665 10.6798 4.00049L9.50684 7.76627C9.32101 8.36285 8.78804 8.76676 8.18669 8.76676H4.39075C3.04607 8.76676 2.48699 10.5616 3.57485 11.3861L6.64583 13.7135C7.13234 14.0822 7.33591 14.7357 7.15008 15.3323L7.00346 15.803M19.9731 3L2.88086 19.9663" stroke="#4E5964" stroke-width="1.5" stroke-linecap="round" stroke-linejoin="round"/>
</svg>
