<svg width="24" height="24" viewBox="0 0 24 24" fill="none" xmlns="http://www.w3.org/2000/svg">
<path opacity="0.4" d="M10.5332 3.11166C10.9949 1.62945 13.0051 1.62945 13.4668 3.11166L14.7702 7.29586C14.9767 7.95872 15.5688 8.40752 16.237 8.40752H20.4547C21.9488 8.40752 22.57 10.4018 21.3613 11.3179L17.9491 13.9039C17.4085 14.3135 17.1823 15.0397 17.3888 15.7025L18.6921 19.8868C19.1538 21.369 17.5275 22.6015 16.3188 21.6855L12.9066 19.0995C12.366 18.6898 11.634 18.6898 11.0934 19.0995L7.68125 21.6855C6.47251 22.6015 4.84616 21.369 5.30786 19.8868L6.6112 15.7025C6.81768 15.0397 6.59149 14.3135 6.05092 13.9039L2.63872 11.3179C1.42999 10.4018 2.05119 8.40752 3.54528 8.40752H7.76299C8.43116 8.40752 9.02334 7.95872 9.22982 7.29586L10.5332 3.11166Z" stroke="#4E5964" stroke-width="1.5"/>
<path d="M12.9066 19.0995C12.366 18.6898 11.634 18.6898 11.0934 19.0995L7.68125 21.6855C6.47251 22.6015 4.84616 21.369 5.30786 19.8868L6.6112 15.7025C6.81768 15.0397 6.59149 14.3135 6.05092 13.9039L2.63872 11.3179C1.42999 10.4018 2.05119 8.40752 3.54528 8.40752H7.76299C8.43116 8.40752 9.02334 7.95872 9.22982 7.29586L10.5332 3.11166C10.9949 1.62945 13.0051 1.62945 13.4668 3.11166" stroke="#4E5964" stroke-width="1.5"/>
</svg>
