<svg width="24" height="24" viewBox="0 0 24 24" fill="none" xmlns="http://www.w3.org/2000/svg">
<path opacity="0.4" d="M10.6818 4.00049C11.0973 2.6665 12.9066 2.6665 13.3221 4.00049L14.4951 7.76627C14.6809 8.36285 15.2139 8.76676 15.8153 8.76676H19.6112C20.9559 8.76676 21.515 10.5616 20.4271 11.3861L17.3561 13.7135C16.8696 14.0822 16.666 14.7357 16.8519 15.3323L18.0249 19.0981C18.4404 20.4321 16.9767 21.5414 15.8888 20.7169L12.8178 18.3895C12.3313 18.0208 11.6726 18.0208 11.1861 18.3895L8.11507 20.7169C7.02721 21.5414 5.5635 20.4321 5.97903 19.0981L7.15204 15.3323C7.33787 14.7357 7.13429 14.0822 6.64778 13.7135L3.5768 11.3861C2.48894 10.5616 3.04803 8.76676 4.3927 8.76676H8.18864C8.79 8.76676 9.32296 8.36285 9.50879 7.76627L10.6818 4.00049Z" stroke="#4E5964" stroke-width="1.5"/>
<path d="M18.0249 19.0981C18.4404 20.4321 16.9767 21.5414 15.8888 20.7169L12.8179 18.3895C12.3313 18.0208 11.6726 18.0208 11.1861 18.3895L8.11507 20.7169C7.02721 21.5414 5.5635 20.4321 5.97903 19.0981L7.15204 15.3323C7.33787 14.7357 7.13429 14.0822 6.64778 13.7135L3.5768 11.3861C2.48894 10.5616 3.04803 8.76676 4.3927 8.76676H8.18864C8.79 8.76676 9.32296 8.36285 9.50879 7.76627L10.6818 4.00049C11.0973 2.6665 12.9066 2.6665 13.3221 4.00049L14.4951 7.76627C14.6809 8.36285 15.2139 8.76676 15.8153 8.76676H19.6112" stroke="#4E5964" stroke-width="1.5"/>
</svg>
