<svg width="24" height="24" viewBox="0 0 24 24" fill="none" xmlns="http://www.w3.org/2000/svg">
<path d="M6.03516 20.1569C6.37798 20.9117 7.34159 21.3032 8.11516 20.717L11.1861 18.3896C11.6726 18.0209 12.3314 18.0209 12.8179 18.3896L15.8889 20.717C16.9768 21.5414 18.4405 20.4321 18.025 19.0982L16.852 15.3324C16.6661 14.7358 16.8697 14.0823 17.3562 13.7135L20.4272 11.3862C21.515 10.5617 20.956 8.76685 19.6113 8.76685H17.7133H17.4761H17.4168" stroke="#4E5964" stroke-width="1.5" stroke-linecap="round"/>
<path opacity="0.4" d="M14.4951 7.76627L13.3221 4.00049C12.9066 2.6665 11.0973 2.6665 10.6818 4.00049L9.50879 7.76627C9.32296 8.36285 8.79 8.76676 8.18864 8.76676H4.3927C3.04803 8.76676 2.48894 10.5616 3.5768 11.3861L6.64778 13.7135C7.13429 14.0822 7.33787 14.7357 7.15204 15.3323L7.00541 15.803M19.975 3L2.88281 19.9663" stroke="#4E5964" stroke-width="1.5" stroke-linecap="round" stroke-linejoin="round"/>
</svg>
