<svg width="24" height="24" viewBox="0 0 24 24" fill="none" xmlns="http://www.w3.org/2000/svg">
<path opacity="0.4" d="M14.4932 7.76627L13.3201 4.00049C12.9046 2.6665 11.0954 2.6665 10.6798 4.00049L9.50684 7.76627C9.32101 8.36285 8.78804 8.76676 8.18669 8.76676H4.39075C3.04607 8.76676 2.48699 10.5616 3.57485 11.3861L6.64583 13.7135C7.13234 14.0822 7.33591 14.7357 7.15008 15.3323L5.97707 19.0981" stroke="#4E5964" stroke-width="1.5" stroke-linecap="round"/>
<path d="M14.4927 7.76636C14.6785 8.36294 15.2115 8.76685 15.8128 8.76685H19.6088C20.9535 8.76685 21.5125 10.5617 20.4247 11.3862L17.3537 13.7136C16.8672 14.0823 16.6636 14.7358 16.8494 15.3324L18.0225 19.0982C18.438 20.4322 16.9743 21.5414 15.8864 20.717L12.8154 18.3896C12.3289 18.0209 11.6701 18.0209 11.1836 18.3896L8.11265 20.717C7.02479 21.5414 5.56108 20.4322 5.9766 19.0982" stroke="#4E5964" stroke-width="1.5" stroke-linecap="round"/>
</svg>
