<svg width="24" height="24" viewBox="0 0 24 24" fill="none" xmlns="http://www.w3.org/2000/svg">
<path opacity="0.4" d="M10.6798 4.00049C11.0954 2.6665 12.9046 2.6665 13.3201 4.00049L14.4932 7.76627C14.679 8.36285 15.212 8.76676 15.8133 8.76676H19.6092C20.9539 8.76676 21.513 10.5616 20.4252 11.3861L17.3542 13.7135C16.8677 14.0822 16.6641 14.7357 16.8499 15.3323L18.0229 19.0981C18.4385 20.4321 16.9747 21.5414 15.8869 20.7169L12.8159 18.3895C12.3294 18.0208 11.6706 18.0208 11.1841 18.3895L8.11312 20.7169C7.02526 21.5414 5.56155 20.4321 5.97707 19.0981L7.15008 15.3323C7.33591 14.7357 7.13234 14.0822 6.64583 13.7135L3.57485 11.3861C2.48699 10.5616 3.04607 8.76676 4.39075 8.76676H8.18669C8.78804 8.76676 9.32101 8.36285 9.50684 7.76627L10.6798 4.00049Z" stroke="#4E5964" stroke-width="1.5"/>
<path d="M18.0229 19.0981C18.4385 20.4321 16.9747 21.5414 15.8869 20.7169L12.8159 18.3895C12.3294 18.0208 11.6706 18.0208 11.1841 18.3895L8.11312 20.7169C7.02526 21.5414 5.56155 20.4321 5.97707 19.0981L7.15008 15.3323C7.33591 14.7357 7.13234 14.0822 6.64583 13.7135L3.57485 11.3861C2.48699 10.5616 3.04607 8.76676 4.39075 8.76676H8.18669C8.78804 8.76676 9.32101 8.36285 9.50684 7.76627L10.6798 4.00049C11.0954 2.6665 12.9046 2.6665 13.3201 4.00049L14.4932 7.76627C14.679 8.36285 15.212 8.76676 15.8133 8.76676H19.6092" stroke="#4E5964" stroke-width="1.5"/>
</svg>
