<svg width="24" height="24" viewBox="0 0 24 24" fill="none" xmlns="http://www.w3.org/2000/svg">
<path opacity="0.64" d="M19 2L2 19M14.2798 5.72142L13.4668 3.11166C13.0051 1.62945 10.9949 1.62945 10.5332 3.11166L9.22982 7.29586C9.02334 7.95872 8.43116 8.40752 7.76299 8.40752H3.54528C2.05119 8.40752 1.42999 10.4018 2.63872 11.3179C3.68834 12.1133 5.06014 13.2575 6 14" stroke="#4E5964" stroke-width="1.5" stroke-linecap="round" stroke-linejoin="round"/>
<path d="M16.237 8.40747H20.4547C21.9488 8.40747 22.57 10.4018 21.3613 11.3178L17.9491 13.9038C17.4085 14.3135 17.1823 15.0396 17.3888 15.7025L18.6922 19.8867C19.1539 21.3689 17.5275 22.6015 16.3188 21.6854L12.9066 19.0994C12.366 18.6898 11.634 18.6898 11.0935 19.0994L7.68127 21.6854C6.47253 22.6015 4.84618 21.3689 5.30788 19.8867L5.75363 18.5938" stroke="#4E5964" stroke-width="1.5" stroke-linecap="round"/>
</svg>
