<svg width="24" height="24" viewBox="0 0 24 24" fill="none" xmlns="http://www.w3.org/2000/svg">
<path d="M21 7.63559V16.5C21 18.9853 18.9853 21 16.5 21H7.5C5.01472 21 3 18.9853 3 16.5V7.5C3 5.01472 5.01472 3 7.5 3H9H12H13.5H15" stroke="#4E5964" stroke-width="1.5" stroke-linecap="round"/>
<line opacity="0.4" x1="6.75" y1="9.25" x2="8.25" y2="9.25" stroke="#4E5964" stroke-width="1.5" stroke-linecap="round"/>
<line opacity="0.4" x1="6.75" y1="6.25" x2="11.25" y2="6.25" stroke="#4E5964" stroke-width="1.5" stroke-linecap="round"/>
<path opacity="0.4" d="M15.6715 3.09666L20.884 7.44046C21.1318 7.64694 20.9563 8 20.6059 8H15.3933C15.1761 8 15 7.85325 15 7.67223V3.32843C15 3.03642 15.4237 2.89017 15.6715 3.09666Z" stroke="#4E5964" stroke-width="1.5"/>
<path opacity="0.4" d="M10.0912 13.8781C9.78094 13.5147 9.36619 13.2558 8.90345 13.1367C8.44072 13.0175 7.95251 13.0439 7.5053 13.2122C7.0581 13.3805 6.67366 13.6826 6.40433 14.0773C6.135 14.472 5.99389 14.9401 6.0002 15.4179C6.00652 15.8957 6.15996 16.3599 6.43963 16.7473C6.7193 17.1348 7.1116 17.4266 7.56309 17.583C8.01458 17.7395 8.50333 17.7529 8.96275 17.6216C9.42217 17.4902 9.82993 17.2204 10.1305 16.849" stroke="#4E5964" stroke-width="1.5" stroke-linecap="round"/>
<path opacity="0.4" d="M17.0912 13.8149C16.7809 13.4515 16.3662 13.1926 15.9035 13.0734C15.4407 12.9543 14.9525 12.9806 14.5053 13.149C14.0581 13.3173 13.6737 13.6194 13.4043 14.014C13.135 14.4087 12.9939 14.8769 13.0002 15.3546C13.0065 15.8324 13.16 16.2967 13.4396 16.6841C13.7193 17.0715 14.1116 17.3633 14.5631 17.5198C15.0146 17.6762 15.5033 17.6897 15.9627 17.5583C16.4222 17.427 16.8299 17.1572 17.1305 16.7858" stroke="#4E5964" stroke-width="1.5" stroke-linecap="round"/>
</svg>
