<svg width="24" height="24" viewBox="0 0 24 24" fill="none" xmlns="http://www.w3.org/2000/svg">
<rect x="3" y="3" width="18" height="18" rx="4.5" stroke="#4E5964" stroke-width="1.5"/>
<path opacity="0.4" d="M10.4108 10.7628C10.0763 10.371 9.62915 10.0919 9.13027 9.96343C8.63139 9.83497 8.10503 9.8634 7.6229 10.0449C7.14076 10.2263 6.72628 10.552 6.43592 10.9775C6.14555 11.4031 5.99341 11.9078 6.00022 12.4229C6.00703 12.938 6.17246 13.4385 6.47397 13.8562C6.77549 14.2739 7.19843 14.5885 7.6852 14.7571C8.17196 14.9258 8.69888 14.9403 9.19419 14.7987C9.6895 14.6571 10.1291 14.3662 10.4532 13.9658" stroke="#4E5964" stroke-width="1.61718" stroke-linecap="round"/>
<path opacity="0.4" d="M17.9577 10.6944C17.6232 10.3027 17.176 10.0235 16.6771 9.89507C16.1783 9.76661 15.6519 9.79504 15.1698 9.97651C14.6876 10.158 14.2732 10.4837 13.9828 10.9092C13.6924 11.3347 13.5403 11.8394 13.5471 12.3545C13.5539 12.8696 13.7193 13.3701 14.0208 13.7878C14.3224 14.2055 14.7453 14.5201 15.2321 14.6888C15.7188 14.8574 16.2458 14.8719 16.7411 14.7303C17.2364 14.5887 17.676 14.2979 18 13.8974" stroke="#4E5964" stroke-width="1.61718" stroke-linecap="round"/>
</svg>
