<svg width="24" height="24" viewBox="0 0 24 24" fill="none" xmlns="http://www.w3.org/2000/svg">
<path d="M12 21C16.9706 21 21 16.9706 21 12C21 7.02944 16.9706 3 12 3C7.02944 3 3 7.02944 3 12C3 16.9706 7.02944 21 12 21Z" stroke="#4E5964" stroke-width="1.5" stroke-miterlimit="10" stroke-linecap="round" stroke-linejoin="round"/>
<path opacity="0.4" d="M10.8659 10.8333V10.0556C10.8659 9.19645 10.1694 8.5 9.31033 8.5H7.75477C6.89566 8.5 6.19922 9.19645 6.19922 10.0556V13.9444C6.19922 14.8036 6.89566 15.5 7.75477 15.5H9.31033C10.1694 15.5 10.8659 14.8036 10.8659 13.9444V13.75" stroke="#4E5964" stroke-width="1.5" stroke-linecap="round" stroke-linejoin="round"/>
<path opacity="0.4" d="M17.5339 10.8333V10.0556C17.5339 9.19645 16.8374 8.5 15.9783 8.5H14.4227C13.5636 8.5 12.8672 9.19645 12.8672 10.0556V13.9444C12.8672 14.8036 13.5636 15.5 14.4227 15.5H15.9783C16.8374 15.5 17.5339 14.8036 17.5339 13.9444V13.75" stroke="#4E5964" stroke-width="1.5" stroke-linecap="round" stroke-linejoin="round"/>
</svg>
