<svg width="24" height="24" viewBox="0 0 24 24" fill="none" xmlns="http://www.w3.org/2000/svg">
<path opacity="0.4" d="M5.76998 5.43956C6.94133 4.27003 8.40437 3.43537 10.0072 3.02221C10.2153 2.96194 10.4396 3.02662 10.5837 3.18848C10.7278 3.35035 10.7661 3.58059 10.6821 3.78037C9.34019 6.52456 9.45086 10.2309 11.5821 12.4193C13.7697 14.5493 17.4755 14.6606 20.2184 13.3193C20.4183 13.2347 20.649 13.2727 20.8112 13.4169C20.9734 13.5611 21.0382 13.7858 20.9776 13.9942C20.5645 15.597 19.7294 17.0599 18.5593 18.2305" stroke="#4E5964" stroke-width="1.5" stroke-linecap="round" stroke-linejoin="round"/>
<path d="M5.76998 5.43945C2.14451 8.97153 2.06797 14.7737 5.599 18.4002C9.22503 21.9317 15.027 21.8557 18.5593 18.2304C19.7294 17.0598 20.5645 15.5969 20.9776 13.9941C21.0382 13.7857 20.9734 13.561 20.8112 13.4168C20.649 13.2726 20.4183 13.2346 20.2184 13.3192" stroke="#4E5964" stroke-width="1.5" stroke-linecap="round" stroke-linejoin="round"/>
</svg>
