<svg width="24" height="24" viewBox="0 0 24 24" fill="none" xmlns="http://www.w3.org/2000/svg">
<path d="M4 7.5C4 5.01472 6.01472 3 8.5 3H15.5C17.9853 3 20 5.01472 20 7.5V16.5C20 18.9853 17.9853 21 15.5 21H8.5C6.01472 21 4 18.9853 4 16.5V7.5Z" stroke="#4E5964" stroke-width="1.5"/>
<path opacity="0.4" d="M13.2992 17.2C13.2992 17.918 12.7172 18.5 11.9992 18.5C11.2812 18.5 10.6992 17.918 10.6992 17.2C10.6992 16.482 11.2812 15.9 11.9992 15.9C12.7172 15.9 13.2992 16.482 13.2992 17.2Z" stroke="#4E5964" stroke-width="1.5"/>
<path opacity="0.4" d="M10 6L14 6" stroke="#4E5964" stroke-width="1.5" stroke-linecap="round"/>
</svg>
