<svg width="24" height="24" viewBox="0 0 24 24" fill="none" xmlns="http://www.w3.org/2000/svg">
<path d="M4 7C4 4.79086 5.79086 3 8 3H16C18.2091 3 20 4.79086 20 7V17C20 19.2091 18.2091 21 16 21H8C5.79086 21 4 19.2091 4 17V7Z" stroke="#4E5964" stroke-width="1.5"/>
<path opacity="0.4" d="M13.4 17.9C13.4 18.5627 12.8627 19.1 12.2 19.1C11.5373 19.1 11 18.5627 11 17.9C11 17.2372 11.5373 16.7 12.2 16.7C12.8627 16.7 13.4 17.2372 13.4 17.9Z" stroke="#4E5964" stroke-width="1.5"/>
<path d="M4 15L20 15" stroke="#4E5964" stroke-width="1.5" stroke-linecap="round"/>
<path opacity="0.4" d="M11 6L13 6" stroke="#4E5964" stroke-width="1.5" stroke-linecap="round"/>
</svg>
