<svg width="24" height="24" viewBox="0 0 24 24" fill="none" xmlns="http://www.w3.org/2000/svg">
<path opacity="0.4" d="M8.35375 7.46126L7.28387 7.16464C6.44954 6.93332 6.26996 5.82974 6.99058 5.36223C7.10949 5.28509 7.24379 5.23434 7.38451 5.21338L11.3155 4.62776M16.5788 19.5106L16.1272 10.8242C16.1108 10.5083 16.2113 10.1976 16.4097 9.95164L20.8573 4.43586C21.1626 4.05723 20.952 3.4891 20.4732 3.39952L16.9817 2.74636C16.5188 2.65977 16.0462 2.83268 15.7492 3.19719L6.63918 14.3807C6.44458 14.6196 6.17045 14.7805 5.86675 14.834L3.87707 15.1846C3.29876 15.2865 2.91356 15.838 3.0167 16.4163C3.06762 16.7018 3.23285 16.9543 3.47416 17.1155L6.29162 18.9975C6.81718 19.3486 7.51911 19.267 7.94843 18.805L11.1462 15.3634C11.8423 14.6142 13.094 14.9403 13.3389 15.9346L14.3018 19.8424C14.5456 20.832 15.8573 21.0476 16.4016 20.1875C16.5293 19.9857 16.5912 19.7493 16.5788 19.5106Z" stroke="#4E5964" stroke-width="1.5" stroke-linecap="round"/>
<path d="M20.8573 4.43586C21.1626 4.05723 20.952 3.4891 20.4732 3.39952L16.9817 2.74636C16.5188 2.65977 16.0462 2.83268 15.7492 3.19719L6.63918 14.3807C6.44458 14.6196 6.17045 14.7805 5.86675 14.834L3.87707 15.1846C3.29876 15.2865 2.91356 15.838 3.0167 16.4163C3.06762 16.7018 3.23285 16.9543 3.47416 17.1155L6.29162 18.9975C6.81718 19.3486 7.51911 19.267 7.94843 18.805L11.1462 15.3634C11.8423 14.6142 13.0939 14.9403 13.3389 15.9346L14.3018 19.8424" stroke="#4E5964" stroke-width="1.5" stroke-linecap="round"/>
</svg>
