<svg width="24" height="24" viewBox="0 0 24 24" fill="none" xmlns="http://www.w3.org/2000/svg">
<path d="M12.4696 8.29056C11.3651 7.97957 10.1875 8.05467 9.13151 8.50343C8.07548 8.95219 7.20412 9.74777 6.6614 10.7587C6.11868 11.7697 5.93706 12.9356 6.14655 14.0637C6.35604 15.1918 6.94411 16.2148 7.8136 16.9635C8.68309 17.7122 9.78198 18.1419 10.9287 18.1816C12.0755 18.2214 13.2014 17.8687 14.1207 17.1819C15.0399 16.4952 15.6973 15.5154 15.9843 14.4044C16.2269 13.4657 16.1927 12.4807 15.8918 11.5668" stroke="#4E5964" stroke-width="1.41283" stroke-linecap="round"/>
<g opacity="0.4">
<path d="M12.0148 12.6798C12.271 13.1827 12.0709 13.798 11.568 14.0542C11.0651 14.3104 10.4497 14.1103 10.1936 13.6074C9.93741 13.1045 10.1374 12.4891 10.6404 12.233C11.1433 11.9768 11.7587 12.1768 12.0148 12.6798Z" fill="#4E5964"/>
<path d="M17.6849 6.05452L20.558 5.94399C20.7257 5.93754 20.8175 6.13707 20.7035 6.26021L17.892 9.29669C17.8435 9.34905 17.7696 9.36952 17.7011 9.34958L15.8333 8.80579C15.8053 8.79765 15.7796 8.78312 15.7582 8.76336L15.1302 8.18386C15.1086 8.16395 15.092 8.13928 15.0816 8.11181L14.3961 6.29158C14.3709 6.22481 14.3857 6.14956 14.4341 6.0972L17.2457 3.06072C17.3597 2.93757 17.5657 3.01376 17.5721 3.18146L17.6826 6.05462L14.3229 9.68273L12.8031 11.3242L12.0432 12.1449M12.0148 12.6798C12.271 13.1827 12.0709 13.798 11.568 14.0542C11.0651 14.3104 10.4497 14.1103 10.1936 13.6074C9.93741 13.1045 10.1374 12.4891 10.6404 12.233C11.1433 11.9768 11.7587 12.1768 12.0148 12.6798Z" stroke="#4E5964" stroke-width="1.41283" stroke-linecap="round"/>
</g>
<path d="M12.1834 5.35919C10.5262 5.12934 8.83901 5.4344 7.36727 6.22995C5.89554 7.0255 4.71614 8.27002 4.00075 9.78233C3.28535 11.2947 3.07131 12.9958 3.38979 14.6382C3.70826 16.2806 4.54262 17.7785 5.77142 18.9138C7.00021 20.0492 8.55929 20.7627 10.2217 20.9505C11.8841 21.1383 13.5631 20.7906 15.0142 19.9581C16.4653 19.1255 17.6128 17.8515 18.2897 16.3216C18.9666 14.7916 19.1375 13.0856 18.7775 11.4518" stroke="#4E5964" stroke-width="1.41283" stroke-linecap="round"/>
</svg>
