<svg width="24" height="24" viewBox="0 0 24 24" fill="none" xmlns="http://www.w3.org/2000/svg">
<path opacity="0.4" d="M6.91992 20.7544L10.8241 12.6409M16.1907 20.7546L10.8225 12.7797" stroke="#4E5964" stroke-width="1.5" stroke-linecap="round" stroke-linejoin="round"/>
<path opacity="0.4" d="M5.0865 12.1712C4.60583 12.3806 4.41772 12.4626 4.11098 12.5962C3.84375 12.7127 3.72491 13.0222 3.84574 13.2874L3.87889 13.3602C3.99972 13.6254 4.3143 13.7461 4.58152 13.6297L5.55723 13.2046" stroke="#4E5964" stroke-width="1.5"/>
<path d="M9.86924 9.04426L5.41147 11.1971C4.80318 11.4909 4.54381 12.2094 4.82403 12.8245C5.10534 13.4421 5.82924 13.7335 6.46045 13.4833L11.0608 11.66" stroke="#4E5964" stroke-width="1.5"/>
<path d="M15.4356 3.98398L10.8643 7.12169C10.0762 7.66265 9.79391 8.68428 10.1914 9.55687L10.8873 11.0844C11.2848 11.957 12.2502 12.435 13.1885 12.2237L18.6311 10.9986C19.8603 10.7219 20.5176 9.40465 19.9969 8.26154L18.4298 4.82147C17.909 3.67836 16.4681 3.27532 15.4356 3.98398Z" stroke="#4E5964" stroke-width="1.5"/>
</svg>
