<svg width="24" height="24" viewBox="0 0 24 24" fill="none" xmlns="http://www.w3.org/2000/svg">
<path d="M11.9834 3.25635C13.5085 3.2472 14.7498 4.4813 14.75 6.00635V13.2485C14.7501 13.3976 14.8053 13.587 14.9414 13.8647C15.0082 14.0012 15.0827 14.1359 15.168 14.2935C15.2493 14.4438 15.341 14.6143 15.4199 14.7896C15.7656 15.5575 15.8426 16.4197 15.6387 17.2368C15.4347 18.054 14.961 18.7789 14.2949 19.2944C13.6289 19.8098 12.8089 20.0861 11.9668 20.0786C11.1246 20.0712 10.3092 19.7806 9.65234 19.2534C8.99557 18.7262 8.53515 17.993 8.3457 17.1724C8.15628 16.3517 8.24918 15.4908 8.6084 14.729C8.68523 14.5661 8.77357 14.4057 8.85156 14.2651C8.93355 14.1173 9.00556 13.989 9.06934 13.8608C9.20061 13.5971 9.25 13.4236 9.25 13.2964V6.00635C9.25022 4.49422 10.4713 3.26547 11.9834 3.25635Z" stroke="#4E5964" stroke-width="1.5" stroke-linecap="round"/>
<path opacity="0.4" d="M19.5 4.82886L17.5 4.82886M19.5 8.82886H17.5M19.5 12.8289H17.5" stroke="#4E5964" stroke-width="1.5" stroke-linecap="round"/>
<path opacity="0.4" d="M12 15.9946L12 9.33423" stroke="#4E5964" stroke-width="1.5" stroke-linecap="round"/>
</svg>
