<svg width="24" height="24" viewBox="0 0 24 24" fill="none" xmlns="http://www.w3.org/2000/svg">
<path d="M3 7V17C3 19.2091 4.79086 21 7 21H12C13.1046 21 14 20.1046 14 19V18C14 17.4477 14.4477 17 15 17C15.5523 17 16 17.4477 16 18V19C16 20.1046 16.8954 21 18 21H18.5C19.8807 21 21 19.8807 21 18.5V12V5.5C21 4.11929 19.8807 3 18.5 3H18C16.8954 3 16 3.89543 16 5V6C16 6.55228 15.5523 7 15 7C14.4477 7 14 6.55228 14 6V5C14 3.89543 13.1046 3 12 3H7C4.79086 3 3 4.79086 3 7Z" stroke="#4E5964" stroke-width="1.5" stroke-linecap="round"/>
<path opacity="0.4" d="M15 11L15 9" stroke="#4E5964" stroke-width="1.5" stroke-linecap="round"/>
<path opacity="0.4" d="M15 15L15 13" stroke="#4E5964" stroke-width="1.5" stroke-linecap="round"/>
<line opacity="0.4" x1="6.75" y1="10.25" x2="11.25" y2="10.25" stroke="#4E5964" stroke-width="1.5" stroke-linecap="round"/>
<line opacity="0.4" x1="6.75" y1="13.25" x2="8.25" y2="13.25" stroke="#4E5964" stroke-width="1.5" stroke-linecap="round"/>
</svg>
