<svg width="24" height="24" viewBox="0 0 24 24" fill="none" xmlns="http://www.w3.org/2000/svg">
<path d="M3 9.19444C3 6.32563 5.46243 4 8.5 4H15.5C18.5376 4 21 6.32563 21 9.19444V15.8056C21 18.6744 18.5376 21 15.5 21H8.5C5.46243 21 3 18.6744 3 15.8056V9.19444Z" stroke="#4E5964" stroke-width="1.5"/>
<path opacity="0.4" fill-rule="evenodd" clip-rule="evenodd" d="M12.8672 9.1875C12.8672 8.77329 12.5314 8.4375 12.1172 8.4375C11.703 8.4375 11.3672 8.77329 11.3672 9.1875V13.2796C11.1418 13.4811 11 13.774 11 14.1C11 14.7075 11.4925 15.2 12.1 15.2C12.7075 15.2 13.2 14.7075 13.2 14.1C13.2 13.7909 13.0725 13.5115 12.8672 13.3117V9.1875Z" fill="#4E5964"/>
<path opacity="0.4" d="M2.26207 4.37582L4.97413 1.99996" stroke="#4E5964" stroke-width="1.5" stroke-linecap="round"/>
</svg>
