<svg width="24" height="24" viewBox="0 0 24 24" fill="none" xmlns="http://www.w3.org/2000/svg">
<path d="M3 9.19444C3 6.32563 5.46243 4 8.5 4H15.5C18.5376 4 21 6.32563 21 9.19444V15.8056C21 18.6744 18.5376 21 15.5 21H8.5C5.46243 21 3 18.6744 3 15.8056V9.19444Z" stroke="#4E5964" stroke-width="1.5"/>
<path opacity="0.4" d="M12 8.25C12.4142 8.25 12.75 8.58579 12.75 9V12.4512C13.1982 12.7106 13.5 13.1949 13.5 13.75C13.5 14.5784 12.8284 15.25 12 15.25C11.1716 15.25 10.5 14.5784 10.5 13.75C10.5 13.1949 10.8018 12.7106 11.25 12.4512V9C11.25 8.58579 11.5858 8.25 12 8.25Z" fill="#4E5964"/>
<path opacity="0.4" d="M2.26207 4.37582L4.97413 1.99996" stroke="#4E5964" stroke-width="1.5" stroke-linecap="round"/>
</svg>
