<svg width="24" height="24" viewBox="0 0 24 24" fill="none" xmlns="http://www.w3.org/2000/svg">
<rect x="3" y="3" width="18" height="18" rx="4.5" stroke="#4E5964" stroke-width="1.5"/>
<path opacity="0.4" d="M10.772 15.716H9.752C9.584 15.716 9.5 15.632 9.5 15.464V8.252C9.5 8.084 9.584 8 9.752 8H12.608C13.232 8 13.72 8.172 14.072 8.516C14.424 8.86 14.6 9.344 14.6 9.968V10.904C14.6 11.808 14.244 12.408 13.532 12.704V12.752L14.816 15.428C14.888 15.62 14.82 15.716 14.612 15.716H13.64C13.496 15.716 13.392 15.7 13.328 15.668C13.264 15.636 13.212 15.568 13.172 15.464L11.972 12.872H11.168C11.072 12.872 11.024 12.916 11.024 13.004V15.464C11.024 15.632 10.94 15.716 10.772 15.716ZM11.156 11.648H12.332C12.588 11.648 12.776 11.596 12.896 11.492C13.016 11.38 13.076 11.204 13.076 10.964V10.028C13.076 9.78 13.016 9.6 12.896 9.488C12.776 9.376 12.588 9.32 12.332 9.32H11.156C11.068 9.32 11.024 9.364 11.024 9.452V11.516C11.024 11.604 11.068 11.648 11.156 11.648Z" fill="#4E5964"/>
</svg>
