<svg width="24" height="24" viewBox="0 0 24 24" fill="none" xmlns="http://www.w3.org/2000/svg">
<path d="M15.5716 3.73915C13.6997 2.92982 11.6084 2.78025 9.64034 3.31495C7.67229 3.84965 5.94418 5.03691 4.73914 6.68222C3.53411 8.32753 2.92361 10.3333 3.00765 12.371C3.09169 14.4087 3.8653 16.3574 5.20173 17.8979C6.53817 19.4384 8.35818 20.4793 10.3636 20.8501C12.369 21.2209 14.4409 20.8996 16.2398 19.9389C18.0387 18.9781 19.458 17.4349 20.2652 15.562C21.0723 13.6891 21.2194 11.5977 20.6824 9.63024" stroke="#4E5964" stroke-width="1.5" stroke-linecap="round"/>
<path opacity="0.4" d="M19 3V5.33013L21.5 6" stroke="#4E5964" stroke-width="1.5" stroke-linecap="round" stroke-linejoin="round"/>
<path opacity="0.4" d="M15 9.99997V9.49997C15 8.3954 14.1046 7.49997 13 7.49997H11C9.89543 7.49997 9 8.3954 9 9.49997V9.80572C9 10.7834 9.70683 11.6178 10.6712 11.7785L13.3288 12.2214C14.2932 12.3822 15 13.2165 15 14.1942V14.5C15 15.6045 14.1046 16.5 13 16.5H11C9.89543 16.5 9 15.6045 9 14.5V14M12 6L12 18" stroke="#4E5964" stroke-width="1.5" stroke-linecap="round" stroke-linejoin="round"/>
</svg>
