<svg width="24" height="24" viewBox="0 0 24 24" fill="none" xmlns="http://www.w3.org/2000/svg">
<path d="M20.261 15.5716C21.0703 13.6997 21.2199 11.6084 20.6852 9.64034C20.1505 7.67229 18.9632 5.94418 17.3179 4.73915C15.6726 3.53411 13.6668 2.92361 11.6291 3.00765C9.59146 3.09169 7.64274 3.8653 6.10226 5.20174C4.56177 6.53817 3.52085 8.35818 3.15003 10.3636C2.77922 12.369 3.1005 14.4409 4.06124 16.2398C5.02198 18.0387 6.56521 19.458 8.43809 20.2652C10.311 21.0723 12.4025 21.2194 14.3699 20.6824" stroke="#4E5964" stroke-width="1.5" stroke-linecap="round"/>
<path opacity="0.4" d="M12 7V17M15 9.5C14.778 8.63739 13.9949 8 13.063 8H12H11C9.89543 8 9 8.89543 9 10C9 11.1046 9.89543 12 11 12H12L13 12C14.1046 12 15 12.8954 15 14C15 15.1046 14.1046 16 13 16H12H10.937C10.0051 16 9.22202 15.3626 9 14.5" stroke="#4E5964" stroke-width="1.5" stroke-linecap="round" stroke-linejoin="round"/>
<path opacity="0.4" d="M17 16V19.0769L20 20" stroke="#4E5964" stroke-width="1.5" stroke-linecap="round" stroke-linejoin="round"/>
</svg>
