<svg width="24" height="24" viewBox="0 0 24 24" fill="none" xmlns="http://www.w3.org/2000/svg">
<path d="M20.261 15.5716C21.0703 13.6997 21.2199 11.6084 20.6852 9.64034C20.1505 7.67229 18.9632 5.94418 17.3179 4.73915C15.6726 3.53411 13.6668 2.92361 11.6291 3.00765C9.59146 3.09169 7.64274 3.8653 6.10226 5.20174C4.56177 6.53817 3.52085 8.35818 3.15003 10.3636C2.77922 12.369 3.1005 14.4409 4.06124 16.2398C5.02198 18.0387 6.56521 19.458 8.43809 20.2652C10.311 21.0723 12.4025 21.2194 14.3699 20.6824" stroke="#4E5964" stroke-width="1.5" stroke-linecap="round"/>
<path opacity="0.4" d="M17 16V19.0769L20 20" stroke="#4E5964" stroke-width="1.5" stroke-linecap="round" stroke-linejoin="round"/>
<path opacity="0.4" d="M15 9.99997V9.49997C15 8.3954 14.1046 7.49997 13 7.49997H11C9.89543 7.49997 9 8.3954 9 9.49997V9.80572C9 10.7834 9.70683 11.6178 10.6712 11.7785L13.3288 12.2214C14.2932 12.3822 15 13.2165 15 14.1942V14.5C15 15.6045 14.1046 16.5 13 16.5H11C9.89543 16.5 9 15.6045 9 14.5V14M12 6L12 18" stroke="#4E5964" stroke-width="1.5" stroke-linecap="round" stroke-linejoin="round"/>
</svg>
