<svg width="24" height="24" viewBox="0 0 24 24" fill="none" xmlns="http://www.w3.org/2000/svg">
<path d="M21.002 17V11.9677L19.002 8.45508L13.002 8.45508V12.9713L3.00195 12.9712V16" stroke="#4E5964" stroke-width="1.5" stroke-linecap="square" stroke-linejoin="round"/>
<path opacity="0.4" d="M11.002 5.94604H5.00195" stroke="#4E5964" stroke-width="1.5" stroke-linecap="round"/>
<path opacity="0.4" d="M15.0026 8.20073V5C15.0026 3.89543 14.1072 3 13.0026 3H6.99414" stroke="#4E5964" stroke-width="1.5" stroke-linecap="round"/>
<path d="M20.502 12.9712H13.002" stroke="#4E5964" stroke-width="1.5" stroke-linecap="round"/>
<path opacity="0.4" d="M6.00195 8.95679H3.00195" stroke="#4E5964" stroke-width="1.5" stroke-linecap="round"/>
<path opacity="0.4" d="M21.002 11.9677H21.752C21.752 11.8375 21.7181 11.7096 21.6537 11.5966L21.002 11.9677ZM19.002 8.45508L19.6537 8.08398C19.5203 7.84974 19.2715 7.70508 19.002 7.70508V8.45508ZM13.002 8.45508L13.002 7.70508C12.803 7.70508 12.6123 7.7841 12.4716 7.92475C12.331 8.0654 12.252 8.25617 12.252 8.45508H13.002ZM13.002 12.9713L13.002 13.7213C13.2009 13.7213 13.3916 13.6422 13.5323 13.5016C13.6729 13.3609 13.752 13.1702 13.752 12.9713H13.002ZM3.00195 12.9712L3.00195 12.2212C2.80304 12.2212 2.61228 12.3003 2.47162 12.4409C2.33097 12.5816 2.25195 12.7723 2.25195 12.9712H3.00195ZM5.50195 19.7428C5.91617 19.7428 6.25195 19.407 6.25195 18.9928C6.25195 18.5786 5.91617 18.2428 5.50195 18.2428L5.50195 19.7428ZM20.002 18.2428C19.5877 18.2428 19.252 18.5786 19.252 18.9928C19.252 19.407 19.5877 19.7428 20.002 19.7428V18.2428ZM18.4161 17.5739L17.8845 18.103L17.8848 18.1033L18.4161 17.5739ZM18.8497 19.761L18.1564 19.4749L18.8497 19.761ZM15.1542 19.761L15.8475 19.4749L15.1542 19.761ZM15.5879 17.5739L16.1191 18.1033L16.1194 18.103L15.5879 17.5739ZM9.41605 17.5739L8.88449 18.103L8.88483 18.1033L9.41605 17.5739ZM9.84968 19.761L9.15641 19.4749L9.84968 19.761ZM6.15423 19.761L6.8475 19.4749L6.15423 19.761ZM6.58785 17.5739L7.11908 18.1033L7.11941 18.103L6.58785 17.5739ZM10.002 19.7428H15.002V18.2428H10.002V19.7428ZM21.6537 11.5966L19.6537 8.08398L18.3502 8.82618L20.3502 12.3388L21.6537 11.5966ZM19.002 7.70508L13.002 7.70508L13.002 9.20508L19.002 9.20508L19.002 7.70508ZM20.252 11.9677V17.9928H21.752V11.9677H20.252ZM12.252 8.45508V12.9713H13.752V8.45508H12.252ZM13.002 12.2213L3.00195 12.2212L3.00195 13.7212L13.002 13.7213L13.002 12.2213ZM2.25195 12.9712V16.4928H3.75195V12.9712H2.25195ZM2.25195 16.4928C2.25195 18.2877 3.70703 19.7428 5.50195 19.7428L5.50195 18.2428C4.53546 18.2428 3.75195 17.4593 3.75195 16.4928H2.25195ZM20.252 17.9928C20.252 18.1309 20.14 18.2428 20.002 18.2428V19.7428C20.9685 19.7428 21.752 18.9593 21.752 17.9928H20.252ZM17.8848 18.1033C18.2429 18.4626 18.3507 19.0041 18.1564 19.4749L19.5429 20.0472C19.9677 19.018 19.7332 17.8331 18.9473 17.0445L17.8848 18.1033ZM18.1564 19.4749C17.9623 19.9453 17.506 20.25 17.002 20.25V21.75C18.1158 21.75 19.118 21.0768 19.5429 20.0472L18.1564 19.4749ZM17.002 20.25C16.4979 20.25 16.0416 19.9453 15.8475 19.4749L14.461 20.0472C14.8859 21.0768 15.8881 21.75 17.002 21.75V20.25ZM15.8475 19.4749C15.6532 19.0041 15.761 18.4626 16.1191 18.1033L15.0566 17.0445C14.2707 17.8331 14.0362 19.018 14.461 20.0472L15.8475 19.4749ZM16.1194 18.103C16.3538 17.8675 16.6714 17.7356 17.002 17.7356V16.2356C16.2716 16.2356 15.5717 16.527 15.0563 17.0448L16.1194 18.103ZM17.002 17.7356C17.3325 17.7356 17.6501 17.8675 17.8845 18.103L18.9476 17.0448C18.4322 16.527 17.7323 16.2356 17.002 16.2356V17.7356ZM8.88483 18.1033C9.24293 18.4626 9.35071 19.0041 9.15641 19.4749L10.5429 20.0472C10.9677 19.018 10.7332 17.8331 9.94728 17.0445L8.88483 18.1033ZM9.15641 19.4749C8.96227 19.9453 8.50599 20.25 8.00195 20.25V21.75C9.11576 21.75 10.118 21.0768 10.5429 20.0472L9.15641 19.4749ZM8.00195 20.25C7.49792 20.25 7.04163 19.9453 6.8475 19.4749L5.46096 20.0472C5.88591 21.0768 6.88815 21.75 8.00195 21.75V20.25ZM6.8475 19.4749C6.6532 19.0041 6.76097 18.4626 7.11908 18.1033L6.05663 17.0445C5.27069 17.8331 5.03618 19.018 5.46096 20.0472L6.8475 19.4749ZM7.11941 18.103C7.35383 17.8675 7.67138 17.7356 8.00195 17.7356V16.2356C7.27156 16.2356 6.57166 16.527 6.05629 17.0448L7.11941 18.103ZM8.00195 17.7356C8.33253 17.7356 8.65007 17.8675 8.88449 18.103L9.94761 17.0448C9.43225 16.527 8.73235 16.2356 8.00195 16.2356V17.7356Z" fill="#4E5964"/>
</svg>
