<svg width="24" height="24" viewBox="0 0 24 24" fill="none" xmlns="http://www.w3.org/2000/svg">
<path opacity="0.64" d="M7 2.25C6.58579 2.25 6.25 2.58579 6.25 3C6.25 3.41421 6.58579 3.75 7 3.75V2.25ZM15.75 8.5V5H14.25V8.5H15.75ZM13 2.25H7V3.75H13V2.25ZM15.75 5C15.75 3.48122 14.5188 2.25 13 2.25V3.75C13.6904 3.75 14.25 4.30964 14.25 5H15.75Z" fill="#4E5964"/>
<path opacity="0.64" d="M11 6H5" stroke="#4E5964" stroke-width="1.5" stroke-linecap="round"/>
<path opacity="0.64" d="M6 9H3" stroke="#4E5964" stroke-width="1.5" stroke-linecap="round"/>
<path opacity="0.64" d="M21 12H21.75C21.75 11.8695 21.7159 11.7412 21.6512 11.6279L21 12ZM19 8.50001L19.6512 8.1279C19.5177 7.89422 19.2691 7.75001 19 7.75001V8.50001ZM13 8.5L13 7.75C12.8011 7.75 12.6103 7.82902 12.4697 7.96967C12.329 8.11032 12.25 8.30109 12.25 8.5H13ZM20 19V19.75V19ZM19 18.25C18.5858 18.25 18.25 18.5858 18.25 19C18.25 19.4142 18.5858 19.75 19 19.75V18.25ZM21 18H20.25H21ZM13 13L13 13.75H13L13 13ZM3 13L3 12.25C2.80109 12.25 2.61032 12.329 2.46967 12.4697C2.32902 12.6103 2.25 12.8011 2.25 13H3ZM3 16H2.25H3ZM6 19.75C6.41421 19.75 6.75 19.4142 6.75 19C6.75 18.5858 6.41422 18.25 6 18.25L6 19.75ZM15 19.75H15.75V18.25H15V19.75ZM20.5 13.75C20.9142 13.75 21.25 13.4142 21.25 13C21.25 12.5858 20.9142 12.25 20.5 12.25V13.75ZM18.4141 17.5862L17.8835 18.1162L17.8838 18.1165L18.4141 17.5862ZM18.8477 19.7655L18.1548 19.4785L18.8477 19.7655ZM15.1523 19.7655L15.8452 19.4785L15.1523 19.7655ZM15.5859 17.5862L16.1162 18.1165L16.1165 18.1162L15.5859 17.5862ZM9.4141 17.5862L8.88349 18.1162L8.88382 18.1165L9.4141 17.5862ZM9.84772 19.7655L9.15482 19.4785L9.84772 19.7655ZM6.15228 19.7655L6.84518 19.4785L6.15228 19.7655ZM6.5859 17.5862L7.11618 18.1165L7.11651 18.1162L6.5859 17.5862ZM21.6512 11.6279L19.6512 8.1279L18.3488 8.87211L20.3488 12.3721L21.6512 11.6279ZM19 7.75001L13 7.75L13 9.25L19 9.25001L19 7.75001ZM20 18.25H19V19.75H20V18.25ZM20.25 12V18H21.75V12H20.25ZM12.25 8.5V13H13.75V8.5H12.25ZM13 12.25L3 12.25L3 13.75L13 13.75L13 12.25ZM2.25 13L2.25 16H3.75L3.75 13H2.25ZM2.25 16C2.25 18.0711 3.92893 19.75 6 19.75L6 18.25C4.75736 18.25 3.75 17.2426 3.75 16H2.25ZM20 19.75C20.9665 19.75 21.75 18.9665 21.75 18H20.25C20.25 18.1381 20.1381 18.25 20 18.25V19.75ZM10 19.75H15V18.25H10V19.75ZM20.5 12.25L13 12.25L13 13.75L20.5 13.75V12.25ZM17.8838 18.1165C18.2413 18.474 18.3483 19.0115 18.1548 19.4785L19.5406 20.0525C19.9663 19.0249 19.7309 17.8422 18.9444 17.0558L17.8838 18.1165ZM18.1548 19.4785C17.9614 19.9455 17.5056 20.25 17 20.25V21.75C18.1122 21.75 19.115 21.0801 19.5406 20.0525L18.1548 19.4785ZM17 20.25C16.4944 20.25 16.0386 19.9455 15.8452 19.4785L14.4594 20.0525C14.885 21.0801 15.8878 21.75 17 21.75V20.25ZM15.8452 19.4785C15.6517 19.0115 15.7587 18.474 16.1162 18.1165L15.0556 17.0558C14.2691 17.8422 14.0337 19.0249 14.4594 20.0525L15.8452 19.4785ZM16.1165 18.1162C16.3507 17.8818 16.6686 17.75 17 17.75V16.25C16.2705 16.25 15.5709 16.54 15.0553 17.0561L16.1165 18.1162ZM17 17.75C17.3314 17.75 17.6493 17.8818 17.8835 18.1162L18.9447 17.0561C18.4291 16.54 17.7295 16.25 17 16.25V17.75ZM8.88382 18.1165C9.24131 18.474 9.34825 19.0115 9.15482 19.4785L10.5406 20.0525C10.9663 19.0249 10.7309 17.8422 9.94438 17.0558L8.88382 18.1165ZM9.15482 19.4785C8.96138 19.9455 8.50561 20.25 8 20.25V21.75C9.11223 21.75 10.115 21.0801 10.5406 20.0525L9.15482 19.4785ZM8 20.25C7.49439 20.25 7.03862 19.9455 6.84518 19.4785L5.45937 20.0525C5.88501 21.0801 6.88777 21.75 8 21.75V20.25ZM6.84518 19.4785C6.65175 19.0115 6.75869 18.474 7.11618 18.1165L6.05562 17.0558C5.26907 17.8422 5.03372 19.0249 5.45937 20.0525L6.84518 19.4785ZM7.11651 18.1162C7.35072 17.8818 7.66855 17.75 8 17.75V16.25C7.27048 16.25 6.57086 16.54 6.05529 17.0561L7.11651 18.1162ZM8 17.75C8.33145 17.75 8.64928 17.8818 8.88349 18.1162L9.94471 17.0561C9.42914 16.54 8.72952 16.25 8 16.25V17.75Z" fill="#4E5964"/>
<path opacity="0.64" d="M20 19C20.5523 19 21 18.5523 21 18V12L19 8.50001L13 8.5V13M13 13L3 13L3 16C3 17.6569 4.34314 19 6 19M13 13L20.5 13" stroke="#4E5964" stroke-width="1.5" stroke-linecap="round" stroke-linejoin="round"/>
</svg>
