<svg width="24" height="24" viewBox="0 0 24 24" fill="none" xmlns="http://www.w3.org/2000/svg">
<path d="M21 17V11.9677L19 8.45508L13 8.45508V12.9713L3 12.9712V16" stroke="#4E5964" stroke-width="1.5" stroke-linecap="square" stroke-linejoin="round"/>
<path opacity="0.4" d="M11 5.94604H5" stroke="#4E5964" stroke-width="1.5" stroke-linecap="round"/>
<path opacity="0.4" d="M15.0007 8.20073V5C15.0007 3.89543 14.1052 3 13.0007 3H6.99219" stroke="#4E5964" stroke-width="1.5" stroke-linecap="round"/>
<path d="M20.5 12.9712H13" stroke="#4E5964" stroke-width="1.5" stroke-linecap="round"/>
<path opacity="0.4" d="M6 8.95679H3" stroke="#4E5964" stroke-width="1.5" stroke-linecap="round"/>
<path opacity="0.4" d="M21 11.9677H21.75C21.75 11.8375 21.7161 11.7096 21.6518 11.5966L21 11.9677ZM19 8.45508L19.6518 8.08398C19.5184 7.84974 19.2696 7.70508 19 7.70508V8.45508ZM13 8.45508L13 7.70508C12.8011 7.70508 12.6103 7.7841 12.4697 7.92475C12.329 8.0654 12.25 8.25617 12.25 8.45508H13ZM13 12.9713L13 13.7213C13.1989 13.7213 13.3897 13.6422 13.5303 13.5016C13.671 13.3609 13.75 13.1702 13.75 12.9713H13ZM3 12.9712L3 12.2212C2.80109 12.2212 2.61032 12.3003 2.46967 12.4409C2.32902 12.5816 2.25 12.7723 2.25 12.9712H3ZM5.5 19.7428C5.91421 19.7428 6.25 19.407 6.25 18.9928C6.25 18.5786 5.91421 18.2428 5.5 18.2428L5.5 18.9928L5.5 19.7428ZM20 18.2428C19.5858 18.2428 19.25 18.5786 19.25 18.9928C19.25 19.407 19.5858 19.7428 20 19.7428V18.9928V18.2428ZM18.4141 17.5739L17.8825 18.103L17.8829 18.1033L18.4141 17.5739ZM18.8477 19.761L18.1545 19.4749L18.8477 19.761ZM15.1523 19.761L15.8455 19.4749L15.1523 19.761ZM15.5859 17.5739L16.1171 18.1033L16.1175 18.103L15.5859 17.5739ZM9.4141 17.5739L8.88254 18.103L8.88287 18.1033L9.4141 17.5739ZM9.84772 19.761L9.15445 19.4749L9.84772 19.761ZM6.15228 19.761L6.84555 19.4749L6.15228 19.761ZM6.5859 17.5739L7.11713 18.1033L7.11746 18.103L6.5859 17.5739ZM10 18.9928V19.7428H15V18.9928V18.2428H10V18.9928ZM21 11.9677L21.6518 11.5966L19.6518 8.08398L19 8.45508L18.3482 8.82618L20.3482 12.3388L21 11.9677ZM19 8.45508V7.70508L13 7.70508L13 8.45508L13 9.20508L19 9.20508L19 8.45508ZM21 11.9677H20.25V17.9928H21H21.75V11.9677H21ZM13 8.45508H12.25V12.9713H13H13.75V8.45508H13ZM13 12.9713L13 12.2213L3 12.2212L3 12.9712L3 13.7212L13 13.7213L13 12.9713ZM3 12.9712H2.25V16.4928H3H3.75V12.9712H3ZM3 16.4928H2.25C2.25 18.2877 3.70508 19.7428 5.5 19.7428L5.5 18.9928L5.5 18.2428C4.5335 18.2428 3.75 17.4593 3.75 16.4928H3ZM21 17.9928H20.25C20.25 18.1309 20.1381 18.2428 20 18.2428V18.9928V19.7428C20.9665 19.7428 21.75 18.9593 21.75 17.9928H21ZM18.4141 17.5739L17.8829 18.1033C18.241 18.4626 18.3488 19.0041 18.1545 19.4749L18.8477 19.761L19.541 20.0472C19.9658 19.018 19.7313 17.8331 18.9453 17.0445L18.4141 17.5739ZM18.8477 19.761L18.1545 19.4749C17.9603 19.9453 17.504 20.25 17 20.25V21V21.75C18.1138 21.75 19.116 21.0768 19.541 20.0472L18.8477 19.761ZM17 21V20.25C16.496 20.25 16.0397 19.9453 15.8455 19.4749L15.1523 19.761L14.459 20.0472C14.884 21.0768 15.8862 21.75 17 21.75V21ZM15.1523 19.761L15.8455 19.4749C15.6512 19.0041 15.759 18.4626 16.1171 18.1033L15.5859 17.5739L15.0547 17.0445C14.2687 17.8331 14.0342 19.018 14.459 20.0472L15.1523 19.761ZM15.5859 17.5739L16.1175 18.103C16.3519 17.8675 16.6694 17.7356 17 17.7356V16.9856V16.2356C16.2696 16.2356 15.5697 16.527 15.0543 17.0448L15.5859 17.5739ZM17 16.9856V17.7356C17.3306 17.7356 17.6481 17.8675 17.8825 18.103L18.4141 17.5739L18.9457 17.0448C18.4303 16.527 17.7304 16.2356 17 16.2356V16.9856ZM9.4141 17.5739L8.88287 18.1033C9.24098 18.4626 9.34876 19.0041 9.15445 19.4749L9.84772 19.761L10.541 20.0472C10.9658 19.018 10.7313 17.8331 9.94533 17.0445L9.4141 17.5739ZM9.84772 19.761L9.15445 19.4749C8.96032 19.9453 8.50403 20.25 8 20.25V21V21.75C9.11381 21.75 10.116 21.0768 10.541 20.0472L9.84772 19.761ZM8 21V20.25C7.49597 20.25 7.03968 19.9453 6.84555 19.4749L6.15228 19.761L5.45901 20.0472C5.88395 21.0768 6.88619 21.75 8 21.75V21ZM6.15228 19.761L6.84555 19.4749C6.65124 19.0041 6.75902 18.4626 7.11713 18.1033L6.5859 17.5739L6.05467 17.0445C5.26874 17.8331 5.03423 19.018 5.45901 20.0472L6.15228 19.761ZM6.5859 17.5739L7.11746 18.103C7.35188 17.8675 7.66942 17.7356 8 17.7356V16.9856V16.2356C7.26961 16.2356 6.5697 16.527 6.05434 17.0448L6.5859 17.5739ZM8 16.9856V17.7356C8.33058 17.7356 8.64812 17.8675 8.88254 18.103L9.4141 17.5739L9.94566 17.0448C9.4303 16.527 8.73039 16.2356 8 16.2356V16.9856Z" fill="#4E5964"/>
</svg>
