<svg width="24" height="24" viewBox="0 0 24 24" fill="none" xmlns="http://www.w3.org/2000/svg">
<path d="M21 17V11.9677L19 8.45508L13 8.45508V12.9713L3 12.9712V16" stroke="#4E5964" stroke-width="1.5" stroke-linecap="round" stroke-linejoin="round"/>
<path opacity="0.4" d="M11 5.94604H5" stroke="#4E5964" stroke-width="1.5" stroke-linecap="round"/>
<path opacity="0.4" d="M15.0007 8.20073V5C15.0007 3.89543 14.1052 3 13.0007 3H6.99219" stroke="#4E5964" stroke-width="1.5" stroke-linecap="round"/>
<path d="M20.5 12.9712H13" stroke="#4E5964" stroke-width="1.5" stroke-linecap="round"/>
<path opacity="0.4" d="M6 8.95679H3" stroke="#4E5964" stroke-width="1.5" stroke-linecap="round"/>
<path opacity="0.4" d="M10 18.9928H15M5.5 18.9928C4.11929 18.9928 3 17.8735 3 16.4928V12.9712L13 12.9713V8.45508L19 8.45508L21 11.9677V17.9928C21 18.5451 20.5523 18.9928 20 18.9928M18.4141 17.5739C18.9861 18.1478 19.1573 19.0111 18.8477 19.761C18.5382 20.511 17.8089 21 17 21C16.1911 21 15.4618 20.511 15.1523 19.761C14.8427 19.0111 15.0139 18.1478 15.5859 17.5739C15.9608 17.1973 16.4695 16.9856 17 16.9856C17.5305 16.9856 18.0392 17.1973 18.4141 17.5739ZM9.4141 17.5739C9.98612 18.1478 10.1573 19.0111 9.84772 19.761C9.53818 20.511 8.80892 21 8 21C7.19108 21 6.46182 20.511 6.15228 19.761C5.84273 19.0111 6.01388 18.1478 6.5859 17.5739C6.96079 17.1973 7.46952 16.9856 8 16.9856C8.53048 16.9856 9.03921 17.1973 9.4141 17.5739Z" stroke="#4E5964" stroke-width="1.5" stroke-linecap="round" stroke-linejoin="round"/>
</svg>
