<svg width="24" height="24" viewBox="0 0 24 24" fill="none" xmlns="http://www.w3.org/2000/svg">
<path d="M16.5 6H7.5C5.01472 6 3 8.01472 3 10.5V16.5C3 18.9853 5.01472 21 7.5 21H16.5C18.9853 21 21 18.9853 21 16.5V10.5C21 8.01472 18.9853 6 16.5 6Z" stroke="#4E5964" stroke-width="1.5" stroke-linecap="round"/>
<path opacity="0.4" d="M15 3L13.4142 4.58579C12.6332 5.36684 11.3668 5.36683 10.5858 4.58579L9 3" stroke="#4E5964" stroke-width="1.5" stroke-linecap="round"/>
<g opacity="0.4">
<path d="M6 17L8.33333 10L10.6667 17" stroke="#4E5964" stroke-width="1.5" stroke-linecap="round" stroke-linejoin="round"/>
<path d="M6.77539 15.0554H9.8865" stroke="#4E5964" stroke-width="1.5" stroke-linecap="round" stroke-linejoin="round"/>
</g>
<path opacity="0.4" d="M12.666 17V10H15.7771C16.6362 10 17.3327 10.6964 17.3327 11.5556V15.4444C17.3327 16.3036 16.6362 17 15.7771 17H12.666Z" stroke="#4E5964" stroke-width="1.5" stroke-linecap="round" stroke-linejoin="round"/>
</svg>
