<svg width="24" height="24" viewBox="0 0 24 24" fill="none" xmlns="http://www.w3.org/2000/svg">
<rect x="3" y="3" width="18" height="18" rx="4.5" stroke="#4E5964" stroke-width="1.5"/>
<g opacity="0.4">
<path d="M6.04 15.43H5.21C5.07 15.43 5 15.36 5 15.22V9.21C5 9.07 5.07 9 5.21 9H5.96C6.1 9 6.19333 9.04667 6.24 9.14L8.26 12.93H8.3V9.21C8.3 9.07 8.37 9 8.51 9H9.34C9.48 9 9.55 9.07 9.55 9.21V15.22C9.55 15.36 9.48 15.43 9.34 15.43H8.61C8.46333 15.43 8.35667 15.3633 8.29 15.23L6.29 11.51H6.25V15.22C6.25 15.36 6.18 15.43 6.04 15.43Z" fill="#4E5964"/>
<path d="M11.9096 15.43H11.0596C10.9196 15.43 10.8496 15.36 10.8496 15.22V9.21C10.8496 9.07 10.9196 9 11.0596 9H14.2496C14.3829 9 14.4496 9.07 14.4496 9.21V9.89C14.4496 10.03 14.3829 10.1 14.2496 10.1H12.2396C12.1596 10.1 12.1196 10.1367 12.1196 10.21V11.76C12.1196 11.84 12.1596 11.88 12.2396 11.88H13.9496C14.0896 11.88 14.1596 11.95 14.1596 12.09V12.76C14.1596 12.9067 14.0896 12.98 13.9496 12.98H12.2396C12.1596 12.98 12.1196 13.0167 12.1196 13.09V15.22C12.1196 15.36 12.0496 15.43 11.9096 15.43Z" fill="#4E5964"/>
<path d="M17.3416 15.43H16.5016C16.3549 15.43 16.2816 15.36 16.2816 15.22V10.21C16.2816 10.1367 16.2449 10.1 16.1716 10.1H15.0316C14.8916 10.1 14.8216 10.03 14.8216 9.89V9.21C14.8216 9.07 14.8916 9 15.0316 9H18.8116C18.9516 9 19.0216 9.07 19.0216 9.21V9.89C19.0216 10.03 18.9516 10.1 18.8116 10.1H17.6716C17.5916 10.1 17.5516 10.1367 17.5516 10.21V15.22C17.5516 15.36 17.4816 15.43 17.3416 15.43Z" fill="#4E5964"/>
</g>
</svg>
