<svg width="24" height="24" viewBox="0 0 24 24" fill="none" xmlns="http://www.w3.org/2000/svg">
<path opacity="0.4" d="M9.53711 13.2676L11.5634 15.2939C11.8037 15.5342 12.1934 15.5342 12.4337 15.2939L14.46 13.2676M11.9991 7.72852L11.9991 15.1129" stroke="#4E5964" stroke-width="1.5" stroke-linecap="round" stroke-linejoin="round"/>
<path d="M18.5693 14.5194C17.63 17.3504 13.9583 19.8971 12.5522 20.7882C12.2124 21.0036 11.788 21.0037 11.4481 20.7883C10.0418 19.8972 6.36948 17.3506 5.43019 14.5196C4.74912 12.4668 5.06813 8.42911 5.11811 7.10686C5.1335 6.69971 5.38177 6.3408 5.75742 6.15826L11.5031 3.36653C11.8169 3.21403 12.1834 3.21403 12.4973 3.36651L18.2431 6.15805C18.6187 6.34059 18.867 6.6995 18.8824 7.10665C18.9324 8.4289 19.2504 12.4666 18.5693 14.5194Z" stroke="#4E5964" stroke-width="1.5" stroke-linecap="round"/>
</svg>
