<svg width="24" height="24" viewBox="0 0 24 24" fill="none" xmlns="http://www.w3.org/2000/svg">
<path d="M3 13.5C3 11.0147 5.01472 9 7.5 9H8.625H15.375H16.5C18.9853 9 21 11.0147 21 13.5V16.5C21 18.9853 18.9853 21 16.5 21H7.5C5.01472 21 3 18.9853 3 16.5V13.5Z" stroke="#4E5964" stroke-width="1.5"/>
<path opacity="0.4" d="M8 9V6C8 4.34315 9.34315 3 11 3H13.1516C14.7247 3 16 4.27525 16 5.84835" stroke="#4E5964" stroke-width="1.5" stroke-linecap="round"/>
<path opacity="0.4" fill-rule="evenodd" clip-rule="evenodd" d="M12 12.25C12.9665 12.25 13.75 13.0335 13.75 14C13.75 14.6977 13.3407 15.298 12.75 15.5791V17C12.75 17.4142 12.4142 17.75 12 17.75C11.5858 17.75 11.25 17.4142 11.25 17V15.5791C10.6593 15.298 10.25 14.6977 10.25 14C10.25 13.0335 11.0335 12.25 12 12.25ZM12 13.5C11.7239 13.5 11.5 13.7239 11.5 14C11.5 14.2761 11.7239 14.5 12 14.5C12.2761 14.5 12.5 14.2761 12.5 14C12.5 13.7239 12.2761 13.5 12 13.5Z" fill="#4E5964"/>
</svg>
