<svg width="24" height="24" viewBox="0 0 24 24" fill="none" xmlns="http://www.w3.org/2000/svg">
<path d="M8.32895 12H7.26316H6.3C4.47746 12 3 13.4775 3 15.3V17.2263C3 19.0489 4.47746 20.5263 6.3 20.5263H16.7526C18.5752 20.5263 20.0526 19.0489 20.0526 17.2263V15.3C20.0526 13.4775 18.5752 12 16.7526 12H15.7895H14.7237" stroke="#4E5964" stroke-width="1.5" stroke-linecap="round"/>
<rect opacity="0.4" x="7.73633" y="14.8423" width="7.57895" height="2.84211" rx="1" stroke="#4E5964" stroke-width="1.5"/>
<circle opacity="0.4" cx="11.5258" cy="7.26311" r="3.78947" stroke="#4E5964" stroke-width="1.5"/>
<path opacity="0.4" d="M11.3139 5.79123C11.431 5.67408 11.621 5.67408 11.7381 5.79123L12.9981 7.05118C13.1152 7.16834 13.1152 7.35829 12.9981 7.47544L11.7381 8.73539C11.621 8.85255 11.431 8.85255 11.3139 8.73539L10.0539 7.47544C9.93677 7.35829 9.93677 7.16834 10.0539 7.05118L11.3139 5.79123Z" stroke="#4E5964" stroke-width="1.5"/>
<path opacity="0.4" d="M17.2109 5.36837L19.1057 3.47363M19.1057 3.47363L21.0004 5.36837M19.1057 3.47363L19.1057 7.26311" stroke="#4E5964" stroke-width="1.5" stroke-linecap="round" stroke-linejoin="round"/>
</svg>
