<svg width="24" height="24" viewBox="0 0 24 24" fill="none" xmlns="http://www.w3.org/2000/svg">
<g clip-path="url(#clip0_13827_294)">
<path d="M8.01738 15.9013L4.88308 14.9213C4.38845 14.7667 3.72519 15.3667 3.32373 15.5887C2.24678 16.1843 2.6079 17.6507 3.93481 18.0655L12.1886 20.6462C14.1294 21.253 16.448 19.6404 17.504 18.7787C17.8659 18.4835 18.4154 18.3822 18.9368 18.5452C19.6629 18.7723 20.4004 18.4802 20.584 17.8928L21.0847 16.2914C21.4055 15.2656 20.6375 14.1126 19.3694 13.7161L17.1608 13.0256C16.5081 12.8215 15.8159 12.8518 15.2574 13.1089L8.01738 15.9013ZM8.01738 15.9013L12.1964 17.2079" stroke="#4E5964" stroke-width="1.5" stroke-linecap="round"/>
<path opacity="0.4" d="M11.5599 4.3335C11.6985 3.88883 12.3015 3.88883 12.4401 4.3335L12.8311 5.58876C12.893 5.78762 13.0707 5.92226 13.2711 5.92226H14.5364C14.9846 5.92226 15.171 6.52055 14.8084 6.79536L13.7847 7.57116C13.6226 7.69406 13.5547 7.91191 13.6166 8.11077L14.0076 9.36603C14.1462 9.81069 13.6582 10.1805 13.2956 9.90564L12.272 9.12984C12.1098 9.00694 11.8902 9.00694 11.728 9.12984L10.7044 9.90564C10.3418 10.1805 9.85385 9.81069 9.99236 9.36603L10.3834 8.11077C10.4453 7.91191 10.3774 7.69406 10.2153 7.57116L9.19162 6.79536C8.829 6.52055 9.01536 5.92226 9.46358 5.92226H10.7289C10.9293 5.92226 11.107 5.78762 11.1689 5.58876L11.5599 4.3335Z" stroke="#4E5964" stroke-width="1.5"/>
<path opacity="0.4" d="M17.7441 5L17.0003 5.74387" stroke="#4E5964" stroke-width="1.5" stroke-linecap="round"/>
<path opacity="0.4" d="M17.7441 9.74365L17.0003 8.99978" stroke="#4E5964" stroke-width="1.5" stroke-linecap="round"/>
<path opacity="0.4" d="M6.74414 5.74365L6.00027 4.99978" stroke="#4E5964" stroke-width="1.5" stroke-linecap="round"/>
<path opacity="0.4" d="M6.74414 9L6.00027 9.74387" stroke="#4E5964" stroke-width="1.5" stroke-linecap="round"/>
</g>
<defs>
<clipPath id="clip0_13827_294">
<rect width="24" height="24" fill="white"/>
</clipPath>
</defs>
</svg>
