<svg width="24" height="24" viewBox="0 0 24 24" fill="none" xmlns="http://www.w3.org/2000/svg">
<path d="M3.78126 8.00001C3.78126 5.79087 5.57212 4 7.78126 4H16.9996C19.2087 4 20.9996 5.79086 20.9996 8V16C20.9996 18.2091 19.2087 20 16.9996 20H7.78129C5.57215 20 3.78129 18.2091 3.78129 16L3.78126 8.00001Z" stroke="#4E5964" stroke-width="1.5"/>
<path opacity="0.4" d="M7 9L7 12L7 15" stroke="#4E5964" stroke-width="1.5" stroke-miterlimit="10" stroke-linecap="round" stroke-linejoin="round"/>
<path d="M3 14L3 16" stroke="#4E5964" stroke-width="1.5" stroke-miterlimit="10" stroke-linecap="round" stroke-linejoin="round"/>
<path d="M3 8L3 10" stroke="#4E5964" stroke-width="1.5" stroke-miterlimit="10" stroke-linecap="round" stroke-linejoin="round"/>
<path opacity="0.4" d="M10.4629 8.73657L11.6886 9.96038M17 15.2635L15.7743 14.0397M16.9938 8.73145L15.77 9.95715M10.4668 15.2686L11.6906 14.0428M13.7246 7.3811L13.7275 9.11317M13.7398 16.6188L13.737 14.8867M18.349 11.9916L16.617 11.9945M9.11133 12.0068L10.8434 12.004M15.7406 13.9076C14.6871 15.0179 12.933 15.0639 11.8227 14.0104C10.7125 12.9569 10.6665 11.2028 11.72 10.0925C12.7735 8.98225 14.5276 8.93624 15.6378 9.98975C16.7481 11.0433 16.7941 12.7974 15.7406 13.9076Z" stroke="#4E5964" stroke-width="1.5" stroke-linecap="round"/>
</svg>
