<svg width="24" height="24" viewBox="0 0 24 24" fill="none" xmlns="http://www.w3.org/2000/svg">
<path opacity="0.4" d="M9.80078 12L11.4655 14L14.8008 10" stroke="#4E5964" stroke-width="1.5" stroke-linecap="round" stroke-linejoin="round"/>
<path d="M10.8595 3.53849C11.4503 2.8205 12.5497 2.8205 13.1405 3.53849L14.2132 4.84192C14.5258 5.22174 15.0069 5.42104 15.4965 5.37349L17.1767 5.21032C18.1022 5.12044 18.8796 5.89779 18.7897 6.8233L18.6265 8.50345C18.579 8.99306 18.7783 9.4742 19.1581 9.78678L20.4615 10.8595C21.1795 11.4503 21.1795 12.5497 20.4615 13.1405L19.1581 14.2132C18.7783 14.5258 18.579 15.0069 18.6265 15.4965L18.7897 17.1767C18.8796 18.1022 18.1022 18.8796 17.1767 18.7897L15.4965 18.6265C15.0069 18.579 14.5258 18.7783 14.2132 19.1581L13.1405 20.4615C12.5497 21.1795 11.4503 21.1795 10.8595 20.4615L9.78678 19.1581C9.4742 18.7783 8.99306 18.579 8.50345 18.6265L6.8233 18.7897C5.89779 18.8796 5.12044 18.1022 5.21032 17.1767L5.37349 15.4965C5.42104 15.0069 5.22174 14.5258 4.84192 14.2132L3.53849 13.1405C2.8205 12.5497 2.8205 11.4503 3.53849 10.8595L4.84192 9.78678C5.22174 9.4742 5.42104 8.99306 5.37349 8.50345L5.21032 6.8233C5.12044 5.89779 5.89779 5.12044 6.8233 5.21032L8.50345 5.37349C8.99306 5.42104 9.4742 5.22174 9.78678 4.84192L10.8595 3.53849Z" stroke="#4E5964" stroke-width="1.5"/>
</svg>
