<svg width="24" height="24" viewBox="0 0 24 24" fill="none" xmlns="http://www.w3.org/2000/svg">
<path d="M3 7.5C3 5.01472 5.01472 3 7.5 3H16.5C18.9853 3 21 5.01472 21 7.5V16.5C21 18.9853 18.9853 21 16.5 21H7.5C5.01472 21 3 18.9853 3 16.5V7.5Z" stroke="#4E5964" stroke-width="1.5"/>
<path opacity="0.4" fill-rule="evenodd" clip-rule="evenodd" d="M10 6.97268C10 6.62225 10.1818 6.29891 10.4758 6.12626C10.7699 5.9536 11.1307 5.95832 11.4205 6.1386L14.5447 8.08256C14.8272 8.25836 15 8.57497 15 8.91664C15 9.2583 14.8272 9.57492 14.5447 9.75072L11.4205 11.6947C11.1307 11.875 10.7699 11.8797 10.4758 11.7071C10.1818 11.5344 10 11.211 10 10.8606V6.97268Z" stroke="#4E5964" stroke-width="1.5" stroke-linecap="round" stroke-linejoin="round"/>
<path opacity="0.4" d="M18 15L15 15H13.5H12.5" stroke="#4E5964" stroke-width="1.5" stroke-linecap="round"/>
<path opacity="0.4" d="M4 18.5H20.5M12 20.5V19M8 20.7244V19.2243M16 20.6156V19.2244" stroke="#4E5964" stroke-width="1.5"/>
</svg>
