<svg width="24" height="24" viewBox="0 0 24 24" fill="none" xmlns="http://www.w3.org/2000/svg">
<path d="M3 7.5C3 5.01472 5.01472 3 7.5 3H16.5C18.9853 3 21 5.01472 21 7.5V16.5C21 18.9853 18.9853 21 16.5 21H7.5C5.01472 21 3 18.9853 3 16.5V7.5Z" stroke="#4E5964" stroke-width="1.5"/>
<path opacity="0.4" fill-rule="evenodd" clip-rule="evenodd" d="M9.92773 8.00047C9.92775 7.64003 10.1147 7.30745 10.4172 7.12987C10.7196 6.95228 11.0908 6.95713 11.3888 7.14256L14.6022 9.14206C14.8928 9.32288 15.0706 9.64855 15.0706 9.99997C15.0706 10.3514 14.8928 10.6771 14.6022 10.8579L11.3888 12.8574C11.0908 13.0429 10.7196 13.0477 10.4171 12.8701C10.1147 12.6925 9.92773 12.3599 9.92773 11.9995V8.00047Z" stroke="#4E5964" stroke-width="1.54286" stroke-linecap="round" stroke-linejoin="round"/>
<path opacity="0.4" d="M11.25 20.5V21.25H12.75V20.5H11.25ZM12.75 19V18.25H11.25V19H12.75ZM7.25 20.7244V21.4744H8.75V20.7244H7.25ZM8.75 19.2243V18.4743H7.25V19.2243H8.75ZM15.25 20.6156V21.3656H16.75V20.6156H15.25ZM16.75 17.9318V17.1818H15.25V17.9318H16.75ZM3.06228 19.2474L21.0623 17.7474L20.9377 16.2526L2.93772 17.7526L3.06228 19.2474ZM12.75 20.5V19H11.25V20.5H12.75ZM8.75 20.7244V19.2243H7.25V20.7244H8.75ZM16.75 20.6156V17.9318H15.25V20.6156H16.75Z" fill="#4E5964"/>
</svg>
