<svg width="24" height="24" viewBox="0 0 24 24" fill="none" xmlns="http://www.w3.org/2000/svg">
<path d="M17 8.42351L19.0362 6.34222C19.826 5.53396 21 6.24817 21 7.5362V16.4638C21 17.7518 19.826 18.466 19.0362 17.6578L17 15.5765" stroke="#4E5964" stroke-width="1.5" stroke-linecap="round" stroke-linejoin="round"/>
<circle opacity="0.4" cx="7.5" cy="9.5" r="1.5" stroke="#4E5964" stroke-width="1.5"/>
<path d="M5.99895 19.7439L5.749 20.451L5.99895 19.7439ZM5.86939 18.8785C5.49647 18.6983 5.04801 18.8544 4.86773 19.2274C4.68745 19.6003 4.84362 20.0487 5.21655 20.229L5.86939 18.8785ZM16.249 8.5V15.5H17.749V8.5H16.249ZM12.499 19.25H7.49903V20.75H12.499V19.25ZM16.249 15.5C16.249 17.5711 14.5701 19.25 12.499 19.25V20.75C15.3985 20.75 17.749 18.3995 17.749 15.5H16.249ZM7.49903 19.25C7.05937 19.25 6.63893 19.1747 6.2489 19.0368L5.749 20.451C6.29735 20.6449 6.88673 20.75 7.49903 20.75V19.25ZM6.2489 19.0368C6.119 18.9909 5.99235 18.938 5.86939 18.8785L5.21655 20.229C5.38895 20.3124 5.56664 20.3866 5.749 20.451L6.2489 19.0368Z" fill="#4E5964"/>
<path opacity="0.4" d="M9 16H6M19.0922 3L16.1722 5.89847M16.1722 5.89847C15.3569 4.74965 14.016 4 12.5 4H7.5C5.01472 4 3 6.01472 3 8.5V15.5C3 16.4823 3.31475 17.3911 3.84889 18.131M16.1722 5.89847L3.84889 18.131M3.84889 18.131L2 19.9663" stroke="#4E5964" stroke-width="1.5" stroke-linecap="round" stroke-linejoin="round"/>
</svg>
