<svg width="24" height="24" viewBox="0 0 24 24" fill="none" xmlns="http://www.w3.org/2000/svg">
<path d="M18.0181 8.60934L20.0451 6.56145C20.8314 5.76617 22.0001 6.46892 22.0001 7.73627V16.5206C22.0001 17.788 20.8314 18.4907 20.0451 17.6954L18.0181 15.6475" stroke="#4E5964" stroke-width="1.5" stroke-linecap="round" stroke-linejoin="round"/>
<path d="M10.0538 16.0642L8.56055 16.0642" stroke="#4E5964" stroke-width="1.5" stroke-linecap="round" stroke-linejoin="round"/>
<path d="M5.27783 19.5073C5.97388 19.8241 6.74867 20.0007 7.5652 20.0007H12.5427C15.5666 20.0007 18.018 17.5778 18.018 14.589V9.66926C18.018 8.77746 17.7997 7.93604 17.4132 7.19434" stroke="#4E5964" stroke-width="1.5" stroke-linecap="round"/>
<path opacity="0.4" d="M17.2586 4L2 19.4191M15.2461 4.96216C14.4485 4.51368 13.5258 4.25752 12.5426 4.25752H7.56507C4.54116 4.25752 2.0898 6.68044 2.0898 9.66925V14.589C2.0898 15.6446 2.3956 16.6297 2.92442 17.4623M9.05833 9.66854C9.05833 10.4837 8.38977 11.1445 7.56507 11.1445C6.74037 11.1445 6.07181 10.4837 6.07181 9.66854C6.07181 8.8534 6.74037 8.19261 7.56507 8.19261C8.38977 8.19261 9.05833 8.8534 9.05833 9.66854Z" stroke="#4E5964" stroke-width="1.5" stroke-linecap="round"/>
</svg>
