<svg width="24" height="24" viewBox="0 0 24 24" fill="none" xmlns="http://www.w3.org/2000/svg">
<path d="M18 8.42351L20.0362 6.34222C20.826 5.53396 22 6.24817 22 7.5362V16.4638C22 17.7518 20.826 18.466 20.0362 17.6578L18 15.5765" stroke="#4E5964" stroke-width="1.5" stroke-linecap="round" stroke-linejoin="round"/>
<path d="M10 16L8.5 16" stroke="#4E5964" stroke-width="1.5" stroke-linecap="round" stroke-linejoin="round"/>
<path d="M5.20215 19.4993C5.90134 19.8212 6.67963 20.0008 7.49985 20.0008H12.4998C15.5374 20.0008 17.9998 17.5383 17.9998 14.5008V9.50077C17.9998 8.59442 17.7806 7.73928 17.3923 6.98547" stroke="#4E5964" stroke-width="1.5" stroke-linecap="round"/>
<path opacity="0.4" d="M17.2372 3.73901L1.90967 19.4096M15.2156 4.71687C14.4144 4.26107 13.4875 4.00074 12.4999 4.00074H7.49987C4.46231 4.00074 1.99987 6.46317 1.99987 9.50074V14.5007C1.99987 15.5736 2.30706 16.5747 2.83827 17.4209M8.99987 9.50001C8.99987 10.3284 8.3283 11 7.49987 11C6.67145 11 5.99987 10.3284 5.99987 9.50001C5.99987 8.67158 6.67145 8.00001 7.49987 8.00001C8.3283 8.00001 8.99987 8.67158 8.99987 9.50001Z" stroke="#4E5964" stroke-width="1.5" stroke-linecap="round"/>
</svg>
