<svg width="24" height="24" viewBox="0 0 24 24" fill="none" xmlns="http://www.w3.org/2000/svg">
<path opacity="0.4" d="M20.0371 13.9768C20.6145 13.618 21.0125 12.8717 21.0125 12.0026C21.0125 11.1335 20.6145 10.3867 20.0371 10.0234" stroke="#4E5964" stroke-width="1.5" stroke-linecap="round" stroke-linejoin="round"/>
<path d="M11.3009 5.08499C11.7945 4.54663 12.6633 3.59903 12.6634 3.59899C12.6634 3.59898 12.6634 3.59899 12.6634 3.59898C13.6431 2.53046 15.5109 2.98389 16.0358 4.23029C16.2226 4.6739 16.2276 5.1748 16.3204 5.64709C17.2616 10.433 17.1964 13.3984 16.3029 18.1956C16.2206 18.6372 16.2095 19.0966 16.0812 19.5271C15.649 20.9775 13.8395 21.5531 12.7457 20.3469C12.7457 20.3469 12.7457 20.3469 12.7457 20.3469C12.7457 20.3468 11.8844 19.397 11.3559 18.8142C10.8275 18.2314 10.1007 17.9025 9.34155 17.9025H8.29003C5.36843 17.9025 3 15.3699 3 12.2459V11.5963C3 8.46507 5.37385 5.92672 8.30215 5.92672C8.30215 5.92672 8.30215 5.92672 8.30215 5.92672C8.30215 5.92672 8.72172 5.92672 9.4268 5.92672C10.1319 5.92672 10.8073 5.62336 11.3009 5.08499Z" stroke="#4E5964" stroke-width="1.5"/>
</svg>
