<svg width="24" height="24" viewBox="0 0 24 24" fill="none" xmlns="http://www.w3.org/2000/svg">
<path d="M2.87891 11.0833C2.87891 9.97877 3.77434 9.08334 4.87891 9.08334L5.28057 9.08334C6.01724 9.08334 6.72815 8.81229 7.27783 8.32186L12.0211 4.08981C12.556 3.61253 13.4071 3.90522 13.5354 4.61056C14.4238 9.4968 14.4238 14.5032 13.5354 19.3894C13.4071 20.0948 12.556 20.3875 12.0211 19.9102L7.17899 15.59C6.68944 15.1532 6.0702 14.8889 5.41612 14.8376L4.72265 14.7833C3.68187 14.7017 2.87891 13.8334 2.87891 12.7894L2.87891 11.0833Z" stroke="#4E5964" stroke-width="1.5" stroke-linecap="round"/>
<path opacity="0.4" d="M16.8789 12.1255L21.1215 12.1172" stroke="#4E5964" stroke-width="1.5" stroke-miterlimit="10" stroke-linecap="round" stroke-linejoin="round"/>
</svg>
