<svg width="24" height="24" viewBox="0 0 24 24" fill="none" xmlns="http://www.w3.org/2000/svg">
<path d="M2.98242 11.0833C2.98242 9.97877 3.87785 9.08334 4.98242 9.08334L5.38409 9.08334C6.12075 9.08334 6.83166 8.81229 7.38134 8.32186L12.1246 4.08981C12.6595 3.61253 13.5106 3.90522 13.6389 4.61056C14.5273 9.4968 14.5273 14.5032 13.6389 19.3894C13.5106 20.0948 12.6595 20.3875 12.1246 19.9102L7.28251 15.59C6.79296 15.1532 6.17371 14.8889 5.51964 14.8376L4.82616 14.7833C3.78539 14.7017 2.98242 13.8334 2.98242 12.7894L2.98242 11.0833Z" stroke="#4E5964" stroke-width="1.5" stroke-linecap="round"/>
<path opacity="0.4" d="M17.9824 12.9998L21.0171 10.0348M20.9822 13.0346L18.0173 10" stroke="#4E5964" stroke-width="1.5" stroke-miterlimit="10" stroke-linecap="round" stroke-linejoin="round"/>
</svg>
