<svg width="24" height="24" viewBox="0 0 24 24" fill="none" xmlns="http://www.w3.org/2000/svg">
<path d="M3.17969 11.0833C3.17969 9.97877 4.07512 9.08334 5.17969 9.08334L5.58135 9.08334C6.31802 9.08334 7.02893 8.81229 7.57861 8.32186L12.3219 4.08981C12.8568 3.61253 13.7079 3.90522 13.8362 4.61056C14.7246 9.4968 14.7246 14.5032 13.8362 19.3894C13.7079 20.0948 12.8568 20.3875 12.3219 19.9102L7.47977 15.59C6.99022 15.1532 6.37098 14.8889 5.7169 14.8376L5.02343 14.7833C3.98265 14.7017 3.17969 13.8334 3.17969 12.7894L3.17969 11.0833Z" stroke="#4E5964" stroke-width="1.5" stroke-linecap="round"/>
<path opacity="0.4" d="M17.1816 12.1255L19.303 12.1213M19.303 12.1213L21.4243 12.1172M19.303 12.1213L19.3071 14.2426M19.303 12.1213L19.2988 10" stroke="#4E5964" stroke-width="1.5" stroke-miterlimit="10" stroke-linecap="round" stroke-linejoin="round"/>
</svg>
