<svg width="24" height="24" viewBox="0 0 24 24" fill="none" xmlns="http://www.w3.org/2000/svg">
<path opacity="0.4" d="M17.5 14C18.092 13.637 18.5 12.8819 18.5 12.0025C18.5 11.1232 18.092 10.3675 17.5 10" stroke="#4E5964" stroke-width="1.5" stroke-linecap="round" stroke-linejoin="round"/>
<path opacity="0.4" d="M19.5033 16C20.7087 15.1195 21.5 13.6587 21.5 12.0014C21.5 10.3419 20.7073 8.87989 19.5 8" stroke="#4E5964" stroke-width="1.5" stroke-linecap="round" stroke-linejoin="round"/>
<path d="M3.5 11.0833C3.5 9.97877 4.39543 9.08334 5.5 9.08334L5.90166 9.08334C6.63833 9.08334 7.34924 8.8123 7.89892 8.32186L12.6422 4.08982C13.1771 3.61253 14.0282 3.90522 14.1565 4.61056C15.0449 9.4968 15.0449 14.5032 14.1565 19.3894C14.0282 20.0948 13.1771 20.3875 12.6422 19.9102L7.80008 15.59C7.31053 15.1532 6.69129 14.8889 6.03722 14.8376L5.34374 14.7833C4.30296 14.7017 3.5 13.8334 3.5 12.7894L3.5 11.0833Z" stroke="#4E5964" stroke-width="1.5" stroke-linecap="round"/>
</svg>
