<svg width="24" height="24" viewBox="0 0 24 24" fill="none" xmlns="http://www.w3.org/2000/svg">
<path opacity="0.4" d="M20.0254 13.9768C20.6028 13.618 21.0008 12.8717 21.0008 12.0026C21.0008 11.1335 20.6028 10.3867 20.0254 10.0234" stroke="#4E5964" stroke-width="1.5" stroke-linecap="round" stroke-linejoin="round"/>
<path d="M11.2952 5.08499C11.7884 4.54663 12.6566 3.59903 12.6567 3.59899C12.6567 3.59898 12.6567 3.59899 12.6567 3.59898C13.6358 2.53033 15.5027 2.984 16.0269 4.23072C16.2134 4.67412 16.2183 5.17465 16.3111 5.64662C17.2517 10.433 17.1865 13.3984 16.2935 18.196C16.2114 18.6374 16.2003 19.0964 16.0723 19.5267C15.6405 20.9774 13.8321 21.5532 12.7389 20.3469C12.7389 20.3469 12.7389 20.3469 12.7389 20.3469C12.7389 20.3468 11.8782 19.397 11.3501 18.8142C10.822 18.2314 10.0958 17.9025 9.33714 17.9025H8.28635C5.36678 17.9025 3 15.3699 3 12.2459V11.5963C3 8.46507 5.3722 5.92672 8.29846 5.92672C8.29846 5.92672 8.29846 5.92672 8.29846 5.92672C8.29846 5.92672 8.71774 5.92672 9.42234 5.92672C10.1269 5.92672 10.8019 5.62336 11.2952 5.08499Z" stroke="#4E5964" stroke-width="1.5"/>
</svg>
