<svg width="24" height="24" viewBox="0 0 24 24" fill="none" xmlns="http://www.w3.org/2000/svg">
<path opacity="0.64" d="M18.2993 13.9768C18.8767 13.618 19.2747 12.8717 19.2747 12.0026C19.2747 11.1335 18.8767 10.3867 18.2993 10.0234" stroke="#4E5964" stroke-width="1.5" stroke-linecap="round" stroke-linejoin="round"/>
<path opacity="0.64" d="M20.5118 15.5109C21.4102 14.7382 22 13.4562 22 12.0018C22 10.5454 21.4092 9.26241 20.5093 8.49023" stroke="#4E5964" stroke-width="1.5" stroke-linecap="round" stroke-linejoin="round"/>
<path d="M10.3014 5.08499C10.795 4.54663 11.6638 3.59903 11.6639 3.59899C11.6639 3.59898 11.6639 3.59899 11.6639 3.59898C12.6436 2.53046 14.5114 2.98389 15.0363 4.23029C15.2231 4.6739 15.2281 5.1748 15.3209 5.64709C16.2621 10.433 16.1969 13.3984 15.3033 18.1956C15.2211 18.6372 15.21 19.0966 15.0817 19.5271C14.6495 20.9775 12.84 21.5531 11.7462 20.3469C11.7462 20.3469 11.7462 20.3469 11.7462 20.3469C11.7462 20.3468 10.8849 19.397 10.3564 18.8142C9.82794 18.2314 9.10119 17.9025 8.34204 17.9025H7.29052C4.36891 17.9025 2.00049 15.3699 2.00049 12.2459V11.5963C2.00049 8.46507 4.37434 5.92672 7.30264 5.92672C7.30264 5.92672 7.30264 5.92672 7.30264 5.92672C7.30264 5.92672 7.72221 5.92672 8.42729 5.92672C9.13238 5.92672 9.80781 5.62336 10.3014 5.08499Z" stroke="#4E5964" stroke-width="1.5"/>
</svg>
