<svg width="24" height="24" viewBox="0 0 24 24" fill="none" xmlns="http://www.w3.org/2000/svg">
<path opacity="0.4" d="M19.0059 14C19.5978 13.637 20.0059 12.8819 20.0059 12.0025C20.0059 11.1232 19.5978 10.3675 19.0059 10" stroke="#4E5964" stroke-width="1.5" stroke-linecap="round" stroke-linejoin="round"/>
<path d="M4.00586 11.0833C4.00586 9.97877 4.90129 9.08334 6.00586 9.08334L6.40752 9.08334C7.14419 9.08334 7.8551 8.81229 8.40478 8.32186L13.148 4.08981C13.683 3.61253 14.5341 3.90522 14.6623 4.61056C15.5507 9.4968 15.5507 14.5032 14.6623 19.3894C14.5341 20.0948 13.683 20.3875 13.148 19.9102L8.30594 15.59C7.81639 15.1532 7.19715 14.8889 6.54307 14.8376L5.8496 14.7833C4.80882 14.7017 4.00586 13.8334 4.00586 12.7894L4.00586 11.0833Z" stroke="#4E5964" stroke-width="1.5" stroke-linecap="round"/>
</svg>
