<svg width="24" height="24" viewBox="0 0 24 24" fill="none" xmlns="http://www.w3.org/2000/svg">
<path opacity="0.4" d="M22 14H19C17.8954 14 17 14.8954 17 16V16C17 17.1046 17.8954 18 19 18H19.1429H21.5" stroke="#4E5964" stroke-width="1.5"/>
<path opacity="0.4" d="M2 15V10.0319C2 7.76167 3.39484 5.72473 5.51147 4.90393L11.6384 2.52799C12.2938 2.27383 13 2.75739 13 3.46034V7.41667" stroke="#4E5964" stroke-width="1.5" stroke-linecap="round" stroke-linejoin="round"/>
<path d="M2 13.25C2 10.3505 4.35051 8 7.25 8H15.8889H16.5C19.5376 8 22 10.4624 22 13.5V16.5C22 19.5376 19.5376 22 16.5 22H7.5C4.46243 22 2 19.5376 2 16.5V13.25V13.25Z" stroke="#4E5964" stroke-width="1.5"/>
<path opacity="0.4" d="M19 16H19.5" stroke="#4E5964" stroke-width="1.5" stroke-miterlimit="10" stroke-linecap="round" stroke-linejoin="round"/>
<path opacity="0.4" d="M7 12H12" stroke="#4E5964" stroke-width="1.5" stroke-linecap="round"/>
</svg>
