<svg width="24" height="24" viewBox="0 0 24 24" fill="none" xmlns="http://www.w3.org/2000/svg">
<path d="M21 7.63559V16.5C21 18.9853 18.9853 21 16.5 21H7.5C5.01472 21 3 18.9853 3 16.5V7.5C3 5.01472 5.01472 3 7.5 3H15" stroke="#4E5964" stroke-width="1.5" stroke-linecap="round"/>
<path opacity="0.4" d="M15.6715 3.09666L20.884 7.44046C21.1318 7.64694 20.9563 8 20.6059 8H15.3933C15.1761 8 15 7.85325 15 7.67223V3.32843C15 3.03642 15.4237 2.89017 15.6715 3.09666Z" stroke="#4E5964" stroke-width="1.5"/>
<path opacity="0.4" d="M9.42857 17.857H6.35668C6.21293 17.857 6.13302 17.6907 6.22282 17.5785L9.20576 13.8498C9.29555 13.7376 9.21564 13.5713 9.07189 13.5713H6" stroke="#4E5964" stroke-width="1.5" stroke-linecap="round"/>
<path opacity="0.4" d="M12 17.857V13.5713" stroke="#4E5964" stroke-width="1.5" stroke-linecap="round"/>
<path opacity="0.4" d="M8 9L8 3M8 5H7M9 6H8M8 7H7M9 8H8" stroke="#4E5964" stroke-width="1.5" stroke-linecap="round"/>
<path opacity="0.4" d="M14.5703 17.857V13.7427C14.5703 13.648 14.6471 13.5713 14.7417 13.5713H17.8275C17.9221 13.5713 17.9989 13.648 17.9989 13.7427V15.8284C17.9989 15.9231 17.9221 15.9999 17.8275 15.9999H14.999" stroke="#4E5964" stroke-width="1.5" stroke-linecap="round"/>
<path opacity="0.4" d="M11.9997 11.8486L12.0083 11.8571L11.9997 11.8657L11.9911 11.8571L11.9997 11.8486" stroke="#4E5964" stroke-width="1.5" stroke-linecap="round" stroke-linejoin="round"/>
</svg>
