<svg width="24" height="24" viewBox="0 0 24 24" fill="none" xmlns="http://www.w3.org/2000/svg">
<path d="M18.0439 6.02609L15.0702 3M6.04297 5.92139C6.04297 5.92139 9.0532 4.37462 11.4994 4.42041C13.8029 4.46353 18.0425 6.02621 18.0425 6.02621" stroke="#4E5964" stroke-width="1.5" stroke-linecap="round" stroke-linejoin="round"/>
<path d="M6.06836 18.0001L9.04204 21.0262M18.0692 18.1048C18.0692 18.1048 15.059 19.6516 12.6128 19.6058C10.3093 19.5627 6.0697 18 6.0697 18" stroke="#4E5964" stroke-width="1.5" stroke-linecap="round" stroke-linejoin="round"/>
<path d="M7 10.25V10.0556C7 9.19645 7.69645 8.5 8.55556 8.5H9.33333C10.1924 8.5 10.8889 9.19645 10.8889 10.0556V10.25C10.8889 11.1091 10.1924 11.8056 9.33333 11.8056H8.55556L9.73594 12.1218C10.416 12.3041 10.8889 12.9203 10.8889 13.6244V13.9444C10.8889 14.8036 10.1924 15.5 9.33333 15.5H8.55556C7.69645 15.5 7 14.8036 7 13.9444V13.5556" stroke="#4E5964" stroke-width="1.5" stroke-linecap="round" stroke-linejoin="round"/>
<path d="M12.8906 15.5V8.5H16.0017C16.8608 8.5 17.5573 9.19645 17.5573 10.0556V13.9444C17.5573 14.8036 16.8608 15.5 16.0017 15.5H12.8906Z" stroke="#4E5964" stroke-width="1.5" stroke-linecap="round" stroke-linejoin="round"/>
</svg>
