<svg width="24" height="24" viewBox="0 0 24 24" fill="none" xmlns="http://www.w3.org/2000/svg">
<path d="M13 3H11C8.79086 3 7 4.79086 7 7V8C7 10.2091 8.79086 12 11 12H13C15.2091 12 17 10.2091 17 8V7C17 4.79086 15.2091 3 13 3Z" stroke="#4E5964" stroke-width="1.5" stroke-linecap="round" stroke-linejoin="round"/>
<path d="M14 12H10C7.79086 12 6 13.7909 6 16V17C6 19.2091 7.79086 21 10 21H14C16.2091 21 18 19.2091 18 17V16C18 13.7909 16.2091 12 14 12Z" stroke="#4E5964" stroke-width="1.5" stroke-linecap="round" stroke-linejoin="round"/>
</svg>
