<svg width="24" height="24" viewBox="0 0 24 24" fill="none" xmlns="http://www.w3.org/2000/svg">
<path fill-rule="evenodd" clip-rule="evenodd" d="M20.8 9C20.9105 9 21.0003 8.91002 20.9967 8.79962C20.8932 5.64567 18.3543 3.10683 15.2004 3.00328C15.09 2.99966 15 3.08954 15 3.2V8.8C15 8.91046 15.0895 9 15.2 9H20.8Z" stroke="#4E5964" stroke-width="1.5" stroke-linecap="round" stroke-linejoin="round"/>
<path d="M19.4832 17.0001C20.4165 15.6033 20.9392 13.975 20.995 12.3C21.0005 12.1344 20.8657 12 20.7 12H14.8407C14.675 12 14.5425 12.1348 14.523 12.2993C14.476 12.6958 14.3359 13.0772 14.1125 13.4115C13.8333 13.8294 13.4365 14.155 12.9723 14.3473C12.508 14.5396 11.9972 14.5899 11.5043 14.4919C11.0115 14.3939 10.5588 14.1519 10.2034 13.7966C9.84812 13.4412 9.60614 12.9885 9.50811 12.4957C9.41008 12.0028 9.46039 11.492 9.65269 11.0277C9.84499 10.5635 10.1706 10.1667 10.5885 9.88748C10.9228 9.66407 11.3042 9.52402 11.7007 9.47698C11.8652 9.45746 12 9.32498 12 9.15929L12 3.3C12 3.13431 11.8656 2.99948 11.7 3.005C10.025 3.06084 8.39666 3.58347 6.99987 4.51677C5.51983 5.50571 4.36627 6.91131 3.68508 8.55585C3.0039 10.2004 2.82567 12.01 3.17293 13.7558C3.5202 15.5016 4.37737 17.1053 5.63604 18.364C6.89471 19.6226 8.49836 20.4798 10.2442 20.8271C11.99 21.1743 13.7996 20.9961 15.4442 20.3149C17.0887 19.6337 18.4943 18.4802 19.4832 17.0001Z" stroke="#4E5964" stroke-width="1.5"/>
</svg>
