<svg width="24" height="24" viewBox="0 0 24 24" fill="none" xmlns="http://www.w3.org/2000/svg">
<path d="M8.40039 13.3501C8.40039 13.3501 10.1931 10.8589 10.2587 10.7678C10.3242 10.6767 10.4563 10.6672 10.5342 10.7479C10.6122 10.8286 12.9551 13.2546 12.9551 13.2546C13.0323 13.3346 13.1628 13.3262 13.2291 13.2369C13.2953 13.1477 15.1504 10.6501 15.1504 10.6501" stroke="#4E5964" stroke-width="1.5" stroke-linecap="round"/>
<path d="M14.5 3H12H7.5C5.01472 3 3 5.01472 3 7.5V16.5C3 18.9853 5.01472 21 7.5 21H16.5C18.9853 21 21 18.9853 21 16.5V12V9.1875" stroke="#4E5964" stroke-width="1.5" stroke-linecap="round"/>
<circle cx="18.7504" cy="5.2499" r="1.35" stroke="#4E5964" stroke-width="1.5"/>
</svg>
