<svg width="25" height="24" viewBox="0 0 25 24" fill="none" xmlns="http://www.w3.org/2000/svg">
<path d="M16.5117 3.00344L7.51172 3.00147C5.02644 3.00093 3.01128 5.01521 3.01073 7.50049L3.00876 16.5005C3.00822 18.9858 5.0225 21.0009 7.50778 21.0015L16.5078 21.0034C18.9931 21.004 21.0082 18.9897 21.0088 16.5044L21.0107 7.50443C21.0113 5.01915 18.997 3.00399 16.5117 3.00344Z" stroke="#4E5964" stroke-width="1.5" stroke-linecap="round"/>
<path fill-rule="evenodd" clip-rule="evenodd" d="M6.01195 5.99121L6.02195 6.00122L6.01195 6.01121L6.00195 6.00121L6.01195 5.99121Z" stroke="#4E5964" stroke-width="1.5" stroke-linecap="round" stroke-linejoin="round"/>
<path fill-rule="evenodd" clip-rule="evenodd" d="M8.02172 5.99146L8.03172 6.00146L8.02171 6.01146L8.01172 6.00146L8.02172 5.99146Z" stroke="#4E5964" stroke-width="1.5" stroke-linecap="round" stroke-linejoin="round"/>
<path d="M10.0117 6.00195L18.0117 6.0037" stroke="#4E5964" stroke-width="1.5" stroke-linecap="round"/>
<path d="M8.55425 16.0744L8.55511 12.1501C8.55512 12.0682 8.48872 12.0018 8.40678 12.0017L7.28245 12.0015L6.00977 12.0012" stroke="#4E5964" stroke-width="1.4" stroke-linecap="round"/>
<path d="M15.4639 13.8942L15.4644 12.1517C15.4644 12.0698 15.5308 12.0034 15.6127 12.0034L16.7371 12.0036L18.0098 12.0039" stroke="#4E5964" stroke-width="1.4" stroke-linecap="round"/>
<path d="M6.00921 16.0739L6.00977 13.5286" stroke="#4E5964" stroke-width="1.4" stroke-linecap="round"/>
<path d="M6.00932 14.0375L8.55469 14.0381" stroke="#4E5964" stroke-width="1.4" stroke-linecap="round"/>
<path d="M15.5098 14.0032L17.8614 14.0037C17.9433 14.0037 18.0097 14.0701 18.0097 14.1521L18.0094 15.7037C18.0094 15.8694 17.875 16.0037 17.7093 16.0037L15.5093 16.0032" stroke="#4E5964" stroke-width="1.4" stroke-linecap="round"/>
<path d="M10.7363 12.0022L12.3054 12.0025V12.0025C12.815 12.0027 13.228 12.4158 13.2279 12.9254L13.2274 15.1216C13.2273 15.6483 12.8002 16.0752 12.2734 16.0751V16.0751L11.1718 16.0749C10.9308 16.0748 10.7355 15.8794 10.7355 15.6384L10.736 13.5294" stroke="#4E5964" stroke-width="1.4" stroke-linecap="round"/>
</svg>
