<svg width="24" height="24" viewBox="0 0 24 24" fill="none" xmlns="http://www.w3.org/2000/svg">
<path d="M12 12.5389L2.85537 7.32124M12 12.5389V21.6997M12 12.5389L16 10M2.85537 7.32124C3.44272 6.25434 4.30869 5.36722 5.37814 4.79093L9.26703 2.69532C10.9875 1.76823 13.0125 1.76823 14.733 2.69532L16 3.5M2.85537 7.32124C2.30566 8.31976 2 9.47575 2 10.6818V13.3182C2 15.8129 3.30779 18.0934 5.37814 19.2091L9.26703 21.3047C10.9875 22.2318 13.0125 22.2318 14.733 21.3047L18.6219 19.2091C20.6922 18.0934 22 15.8129 22 13.3182V12.5389" stroke="#4E5964" stroke-width="1.5" stroke-linecap="round" stroke-linejoin="round"/>
<path d="M20 4V10" stroke="#4E5964" stroke-width="1.5" stroke-linecap="round" stroke-linejoin="round"/>
<path d="M23 7H17" stroke="#4E5964" stroke-width="1.5" stroke-linecap="round" stroke-linejoin="round"/>
</svg>
