<svg width="24" height="24" viewBox="0 0 24 24" fill="none" xmlns="http://www.w3.org/2000/svg">
<path d="M12.002 12.4901L3.77178 7.79424M12.002 12.4901V20.7348M12.002 12.4901L15.602 10.2051M3.77178 7.79424C4.3004 6.83403 5.07978 6.03562 6.04228 5.51696L9.54228 3.63092C11.0907 2.79653 12.9132 2.79653 14.4616 3.63092L15.602 4.35513M3.77178 7.79424C3.27705 8.69291 3.00195 9.7333 3.00195 10.8187V13.1915C3.00195 15.4367 4.17897 17.4892 6.04228 18.4933L9.54228 20.3793C11.0907 21.2137 12.9132 21.2137 14.4616 20.3793L17.9616 18.4933C19.8249 17.4892 21.002 15.4367 21.002 13.1915V12.4901" stroke="#4E5964" stroke-width="1.5" stroke-linecap="round" stroke-linejoin="round"/>
<path d="M19.002 5.50513V9.50513M21.002 7.50513H17.002" stroke="#4E5964" stroke-width="1.5" stroke-linecap="round" stroke-linejoin="round"/>
</svg>
