<svg width="24" height="24" viewBox="0 0 24 24" fill="none" xmlns="http://www.w3.org/2000/svg">
<path d="M14.0566 9.93661C14.0566 9.41475 14.4797 8.9917 15.0015 8.9917H16.8858C17.4098 8.9917 17.8338 9.41814 17.8307 9.94217L17.7942 16.1448C17.793 16.3526 17.6241 16.5205 17.4162 16.5205H17.3048H14.8687H14.4346C14.2259 16.5205 14.0566 16.3513 14.0566 16.1425L14.0566 9.93661Z" stroke="#4E5964" stroke-width="1.5"/>
<path d="M6.5 9.93661C6.5 9.41475 6.92305 8.9917 7.44491 8.9917H9.32915C9.85318 8.9917 10.2771 9.41814 10.274 9.94217L10.2375 16.1448C10.2363 16.3526 10.0675 16.5205 9.85959 16.5205H9.74811H7.31202H6.87796C6.66922 16.5205 6.5 16.3513 6.5 16.1425L6.5 9.93661Z" stroke="#4E5964" stroke-width="1.5"/>
<path d="M14.0566 19.4438H17.8363" stroke="#4E5964" stroke-width="1.5" stroke-linecap="round"/>
<path d="M6.5 19.4438H10.2796" stroke="#4E5964" stroke-width="1.5" stroke-linecap="round"/>
<path d="M17.3202 8.57757C17.3202 8.57757 17.3202 7.63266 17.3202 6.68775C17.3202 5.82305 16.655 4.68331 16.3104 4.15095C16.2107 3.9968 15.9959 3.98907 15.8847 4.13524C15.4853 4.66059 14.6914 5.81444 14.6914 6.68775C14.6914 7.63266 14.6914 8.57757 14.6914 8.57757" stroke="#4E5964" stroke-width="1.5" stroke-linecap="square"/>
<path d="M9.76357 8.57757C9.76357 8.57757 9.76356 7.63266 9.76357 6.68775C9.76357 5.82305 9.09836 4.68331 8.75381 4.15095C8.65403 3.9968 8.43924 3.98907 8.3281 4.13524C7.92862 4.66059 7.13477 5.81444 7.13477 6.68775C7.13476 7.63266 7.13477 8.57757 7.13477 8.57757" stroke="#4E5964" stroke-width="1.5" stroke-linecap="square"/>
<path d="M15.0312 16.5205V19.4438M16.9801 16.5205V19.4438" stroke="#4E5964" stroke-width="1.5"/>
<path d="M7.47461 16.5205L7.47461 19.4438M9.42348 16.5205V19.4438" stroke="#4E5964" stroke-width="1.5"/>
<path d="M9.875 15H12H14.125M6.6875 15H5.625C4.45139 15 3.5 14.0486 3.5 12.875V8.125C3.5 6.95139 4.45139 6 5.625 6H7.75M18.375 15C19.5486 15 20.5 14.0486 20.5 12.875V8.125C20.5 6.95139 19.5486 6 18.375 6H17.3125M9.875 6H12H14.125H15.1875" stroke="#4E5964" stroke-width="1.5"/>
</svg>
