<svg width="24" height="24" viewBox="0 0 24 24" fill="none" xmlns="http://www.w3.org/2000/svg">
<path d="M8.98454 6.44941C9.34041 6.06772 9.93833 6.04679 10.32 6.40267L11.6982 7.68761C12.0815 8.04496 12.1007 8.64597 11.7411 9.02714L7.48463 13.5389C7.34198 13.6901 7.104 13.6977 6.95195 13.556L6.87042 13.48L5.08864 11.8187L4.77117 11.5227C4.61849 11.3803 4.61012 11.1412 4.75247 10.9885L8.98454 6.44941Z" stroke="#4E5964" stroke-width="1.5"/>
<path d="M14.6857 11.7653C15.0416 11.3836 15.6395 11.3627 16.0212 11.7186L17.3993 13.0035C17.7826 13.3609 17.8019 13.9619 17.4423 14.3431L13.1858 18.8548C13.0431 19.006 12.8052 19.0136 12.6531 18.8719L12.5716 18.7959L10.7898 17.1346L10.4723 16.8386C10.3197 16.6962 10.3113 16.4571 10.4536 16.3044L14.6857 11.7653Z" stroke="#4E5964" stroke-width="1.5"/>
<path d="M2.5 13.4028L5.26446 15.9803" stroke="#4E5964" stroke-width="1.5" stroke-linecap="round"/>
<path d="M8.20312 18.7192L10.9676 21.2967" stroke="#4E5964" stroke-width="1.5" stroke-linecap="round"/>
<path d="M12.2985 7.68087C12.2985 7.68087 12.9429 6.98975 13.5873 6.29864C14.1769 5.66619 14.4676 4.37894 14.5787 3.75461C14.6108 3.57382 14.459 3.42169 14.278 3.4528C13.6276 3.56463 12.2601 3.86722 11.6645 4.50596C11.0202 5.19707 10.3758 5.88819 10.3758 5.88819" stroke="#4E5964" stroke-width="1.5" stroke-linecap="square"/>
<path d="M17.9997 12.9968C17.9997 12.9968 18.6441 12.3057 19.2884 11.6146C19.8781 10.9821 20.1688 9.69486 20.2798 9.07053C20.312 8.88974 20.1602 8.73761 19.9792 8.76872C19.3288 8.88055 17.9613 9.18314 17.3657 9.82188C16.7213 10.513 16.077 11.2041 16.077 11.2041" stroke="#4E5964" stroke-width="1.5" stroke-linecap="square"/>
<path d="M5.20703 11.9297L3.21351 14.0678M6.63245 13.2587L4.63894 15.3968" stroke="#4E5964" stroke-width="1.5"/>
<path d="M10.9082 17.2456L8.91469 19.3837M12.3336 18.5746L10.3401 20.7128" stroke="#4E5964" stroke-width="1.5"/>
</svg>
