<svg width="24" height="24" viewBox="0 0 24 24" fill="none" xmlns="http://www.w3.org/2000/svg">
<path d="M6.24023 10.3755L13.6077 17.7728" stroke="#4E5964" stroke-width="1.50046" stroke-linecap="round"/>
<path d="M8.08203 12.2246L10.3883 9.91828" stroke="#4E5964" stroke-width="1.50046" stroke-linecap="round"/>
<path d="M10.8555 5.7688L18.2139 13.1569" stroke="#4E5964" stroke-width="1.4986" stroke-linecap="round"/>
<path d="M11.7756 6.68586L13.699 4.76241C14.6753 3.78609 16.2567 3.78768 17.231 4.76596L19.2282 6.77127C20.2026 7.74955 20.201 9.33406 19.2247 10.3104L17.3013 12.2338" stroke="#4E5964" stroke-width="1.50046" stroke-linecap="round"/>
<path d="M18.2285 5.76874C18.2285 5.76874 19.5393 4.45803 20.4064 3.59089" stroke="#4E5964" stroke-width="1.50046" stroke-linecap="round"/>
<path d="M6.69897 11.7609L4.77556 13.6844C3.79926 14.6607 3.79767 16.2452 4.77201 17.2235L6.76925 19.2288C7.74359 20.2071 9.32489 20.2087 10.3012 19.2323L12.2246 17.3089" stroke="#4E5964" stroke-width="1.50046" stroke-linecap="round"/>
<path d="M3.5918 20.405C3.5918 20.405 4.38618 19.6106 5.76995 18.2268" stroke="#4E5964" stroke-width="1.50046" stroke-linecap="round"/>
<path d="M4.40857 18.3967L5.56547 19.4402" stroke="#4E5964" stroke-width="1.50046" stroke-linecap="round"/>
<path d="M18.4112 4.39785L19.5674 5.44075" stroke="#4E5964" stroke-width="1.5" stroke-linecap="round"/>
<path d="M11.7656 15.9233L14.0719 13.617" stroke="#4E5964" stroke-width="1.50046" stroke-linecap="round"/>
<path d="M17 17L18 20L19 18L20 21" stroke="#4E5964" stroke-width="1.5" stroke-linecap="round"/>
<path d="M3 4.5L5.36603 6.59808L5.23205 4.36603L7.59808 6.4641" stroke="#4E5964" stroke-width="1.5" stroke-linecap="round"/>
</svg>
