<svg width="24" height="24" viewBox="0 0 24 24" fill="none" xmlns="http://www.w3.org/2000/svg">
<path d="M9.44141 4.27789L11.3216 3.23352C11.8814 2.92216 12.5625 2.92216 13.1222 3.23352L15.0015 4.27789M12.2188 3.43873V6.04501" stroke="#4E5964" stroke-width="1.56377" stroke-linecap="round" stroke-linejoin="round"/>
<path d="M15.0015 19.7223L13.1212 20.7667C12.5615 21.0781 11.8804 21.0781 11.3207 20.7667L9.44141 19.7223M12.2188 17.5127V20.119" stroke="#4E5964" stroke-width="1.56377" stroke-linecap="round" stroke-linejoin="round"/>
<path d="M20.3246 13.3062L20.3279 15.457C20.3293 16.0974 19.9995 16.6934 19.456 17.0323L17.6322 18.1708M19.712 16.1439L17.4316 14.8819" stroke="#4E5964" stroke-width="1.56377" stroke-linecap="round" stroke-linejoin="round"/>
<path d="M4.11655 10.6918L4.11329 8.54103C4.1119 7.90054 4.44172 7.30462 4.98518 6.96568L6.80898 5.82715M7.39528 9.32895L5.11496 8.06687" stroke="#4E5964" stroke-width="1.56377" stroke-linecap="round" stroke-linejoin="round"/>
<path d="M6.97477 18.3108L5.12141 17.2195C4.56928 16.8948 4.22401 16.3077 4.20868 15.6674L4.15625 13.5181M4.84271 16.3407L7.08931 15.0196" stroke="#4E5964" stroke-width="1.56377" stroke-linecap="round" stroke-linejoin="round"/>
<path d="M17.4659 5.68848L19.3193 6.77981C19.8714 7.10444 20.2166 7.69155 20.232 8.33185L20.2844 10.4812M16.9707 9.20555L19.2173 7.88437" stroke="#4E5964" stroke-width="1.56377" stroke-linecap="round" stroke-linejoin="round"/>
</svg>
