<svg width="24" height="24" viewBox="0 0 24 24" fill="none" xmlns="http://www.w3.org/2000/svg">
<path d="M3.06013 10.8785C2.4352 7.27306 6.99547 5.13685 9.53916 7.79242C10.958 9.2737 13.3675 9.29904 14.7864 7.81775C17.2689 5.22601 21.6332 7.46161 20.9253 10.9624L19.7503 16.7728C19.2527 19.2338 17.0679 21.0052 14.5304 21.0052H9.44098C6.76879 21.0052 4.48532 19.101 4.03382 16.4961L3.06013 10.8785Z" stroke="#4E5964" stroke-width="1.5"/>
<path d="M15.6023 7.50513V6.60513C15.6023 4.6169 13.9906 3.00513 12.0023 3.00513V3.00513C10.0141 3.00513 8.40234 4.6169 8.40234 6.60513V6.60513" stroke="#4E5964" stroke-width="1.5"/>
<path d="M15.6016 12.0051V11.1051" stroke="#4E5964" stroke-width="1.5" stroke-linecap="round"/>
<path d="M8.40234 12.0051V11.1051" stroke="#4E5964" stroke-width="1.5" stroke-linecap="round"/>
</svg>
