<svg width="24" height="24" viewBox="0 0 24 24" fill="none" xmlns="http://www.w3.org/2000/svg">
<path d="M21.0014 9.30475L21.0018 7.20475L21.0019 7.00475C21.0023 4.79561 19.2119 3.00436 17.0027 3.00387L16.2027 3.0037L13.8027 3.00317" stroke="#4E5964" stroke-width="1.5" stroke-linecap="round"/>
<path d="M21.0008 13.8048L21.0001 16.8242C20.9996 19.1331 19.1275 21.0044 16.8186 21.0039L13.7992 21.0032" stroke="#4E5964" stroke-width="1.5" stroke-linecap="round"/>
<path d="M3.00135 9.30082L3.00181 7.20082L3.00186 7.00082C3.00234 4.79168 4.7936 3.00121 7.00274 3.00169L7.20273 3.00174L9.30273 3.0022" stroke="#4E5964" stroke-width="1.5" stroke-linecap="round"/>
<path d="M3.0008 13.8009L3.00013 16.8202L3.00009 17.0009C2.99961 19.21 4.79008 21.0013 6.99922 21.0017L7.79922 21.0019L10.1992 21.0024" stroke="#4E5964" stroke-width="1.5" stroke-linecap="round"/>
<path d="M5.99805 7.00024L5.99805 17.0002" stroke="#4E5964"/>
<path d="M7 7.00049L7 17.0005" stroke="#4E5964"/>
<path d="M14 7L14 17" stroke="#4E5964"/>
<path d="M10.002 7.00024L10.002 17.0002" stroke="#4E5964"/>
<path d="M11 7.00024L11 17.0002" stroke="#4E5964"/>
<path d="M18 7.00024L18 17.0002" stroke="#4E5964"/>
<path d="M17 7.00024L17 17.0002" stroke="#4E5964"/>
</svg>
