<svg width="24" height="24" viewBox="0 0 24 24" fill="none" xmlns="http://www.w3.org/2000/svg">
<path fill-rule="evenodd" clip-rule="evenodd" d="M2 7.75C2 5.12665 4.12665 3 6.75 3H14.75C17.3734 3 19.5 5.12665 19.5 7.75V8.18581L19.8749 8.29417C20.8376 8.57239 21.5002 9.45367 21.5002 10.4557V13.0786C21.5002 14.1111 20.7976 15.0111 19.7959 15.2615L19.5 15.3354V15.75C19.5 18.3734 17.3734 20.5 14.75 20.5H6.75C4.12665 20.5 2 18.3734 2 15.75V7.75ZM19.5 13.7859V9.74851C19.7983 9.85371 20.0002 10.1363 20.0002 10.4557V13.0786C20.0002 13.399 19.7973 13.681 19.5 13.7859ZM6.75 4.5C4.95507 4.5 3.5 5.95507 3.5 7.75V15.75C3.5 17.5449 4.95507 19 6.75 19H14.75C16.5449 19 18 17.5449 18 15.75V7.75C18 5.95507 16.5449 4.5 14.75 4.5H6.75Z" fill="#4E5964"/>
</svg>
