<svg width="24" height="24" viewBox="0 0 24 24" fill="none" xmlns="http://www.w3.org/2000/svg">
<path d="M14.7885 17.6184L12.1621 15.3456M17.6169 14.79L15.3441 12.1636M8.22252 11.9363L6.90932 10.7999L4.67498 8.86634C4.4233 8.64854 4.26504 8.34228 4.23298 8.01099L3.97997 5.39661C3.9014 4.58473 4.58323 3.9029 5.3951 3.98147L8.00949 4.23448C8.34078 4.26654 8.64704 4.4248 8.86484 4.67648L10.7984 6.91082L11.9348 8.22402" stroke="#4E5964" stroke-width="1.5"/>
<path d="M13.0215 18.6792L18.6783 13.0223" stroke="#4E5964" stroke-width="1.5" stroke-linecap="round"/>
<path d="M15.1427 16.558L17.264 18.6793M16.5569 15.1437L18.6783 17.2651M18.6783 17.2651L17.264 18.6793M18.6783 17.2651C19.2001 16.7432 20.0925 17.1128 20.0925 17.8508V19.0935C20.0925 19.6458 19.6448 20.0935 19.0925 20.0935H17.8498C17.1118 20.0935 16.7422 19.2012 17.264 18.6793" stroke="#4E5964" stroke-width="1.3"/>
<path d="M6.30539 14.789L15.0575 4.67547C15.2753 4.42379 15.5815 4.26553 15.9128 4.23347L18.5272 3.98046C19.3391 3.90189 20.0209 4.58371 19.9424 5.39559L19.6894 8.00998C19.6573 8.34127 19.499 8.64753 19.2473 8.86533L9.13382 17.6174" stroke="#4E5964" stroke-width="1.5"/>
<path d="M5.24414 13.021L10.901 18.6778" stroke="#4E5964" stroke-width="1.5" stroke-linecap="round"/>
<path d="M7.36539 15.1422L5.24407 17.2636M8.7796 16.5565L6.65828 18.6778M6.65828 18.6778L5.24407 17.2636M6.65828 18.6778C7.18016 19.1997 6.81054 20.092 6.07249 20.092H4.82985C4.27757 20.092 3.82985 19.6443 3.82985 19.092V17.8493C3.82985 17.1113 4.72219 16.7417 5.24407 17.2636" stroke="#4E5964" stroke-width="1.3"/>
</svg>
