<svg width="24" height="24" viewBox="0 0 24 24" fill="none" xmlns="http://www.w3.org/2000/svg">
<path d="M13.8895 3.99463C15.1241 4.67972 15.9597 5.99659 15.9597 7.50863C15.9597 9.72661 14.1617 11.5246 11.9437 11.5246C9.72576 11.5246 7.92773 9.72661 7.92773 7.50863C7.92773 5.99659 8.76335 4.67972 9.99798 3.99463" stroke="#4E5964" stroke-width="1.506" stroke-linecap="round"/>
<path d="M3.46409 15.7986C3.07551 14.4411 3.41581 12.9191 4.48498 11.8499C6.05332 10.2816 8.59612 10.2816 10.1645 11.8499C11.7328 13.4182 11.7328 15.961 10.1645 17.5294C9.09529 18.5986 7.57325 18.9389 6.2158 18.5503" stroke="#4E5964" stroke-width="1.506" stroke-linecap="round"/>
<path d="M17.7844 18.5506C16.427 18.9391 14.9049 18.5988 13.8357 17.5297C12.2674 15.9613 12.2674 13.4185 13.8357 11.8502C15.4041 10.2818 17.9469 10.2818 19.5152 11.8502C20.5844 12.9194 20.9247 14.4414 20.5361 15.7988" stroke="#4E5964" stroke-width="1.506" stroke-linecap="round"/>
<circle cx="12" cy="11.9946" r="4.25" stroke="#4E5964" stroke-width="1.5"/>
</svg>
