<svg width="24" height="24" viewBox="0 0 24 24" fill="none" xmlns="http://www.w3.org/2000/svg">
<path d="M3 9C3 6.79086 4.79086 5 7 5H7.2C7.64183 5 8 5.35817 8 5.8C8 6.24183 8.35817 6.6 8.8 6.6H12H15.2C15.6418 6.6 16 6.24183 16 5.8C16 5.35817 16.3582 5 16.8 5H17C19.2091 5 21 6.79086 21 9V11.7692V13V13.6154V13.9231V14.8462V16.5C21 18.9853 18.9853 21 16.5 21H7.5C5.01472 21 3 18.9853 3 16.5V14.8462V14.2308V13.6154V12.0769V11.1538V9Z" stroke="#4E5964" stroke-width="1.5" stroke-linecap="round"/>
<rect x="6" y="11" width="12" height="6" rx="2" stroke="#4E5964" stroke-width="1.5" stroke-linecap="round"/>
<path d="M9 13.5V14.5" stroke="#4E5964" stroke-width="1.5" stroke-linecap="round"/>
<path d="M15 13.5V14.5" stroke="#4E5964" stroke-width="1.5" stroke-linecap="round"/>
<path d="M2 15C2 14.2019 2 13.7609 2 13" stroke="#4E5964" stroke-width="1.5" stroke-linecap="round"/>
<path d="M22 15C22 14.2019 22 13.7609 22 13" stroke="#4E5964" stroke-width="1.5" stroke-linecap="round"/>
<path d="M12 5.12849V6.5M11 4C11 3.44772 11.4477 3 12 3C12.5523 3 13 3.44772 13 4C13 4.55229 12.5523 5 12 5C11.4477 5 11 4.55229 11 4Z" stroke="#4E5964" stroke-width="1.5" stroke-linecap="round"/>
</svg>
