<svg width="24" height="24" viewBox="0 0 24 24" fill="none" xmlns="http://www.w3.org/2000/svg">
<path d="M12.002 12.4903L20.002 7.64051M12.002 12.4903L3.77178 7.79446M12.002 12.4903V20.7348M3.77178 7.79446L3.50195 7.64051M3.77178 7.79446C4.3004 6.83427 5.07978 6.03588 6.04228 5.51722L9.54228 3.63121C11.0907 2.79684 12.9121 2.79623 14.4605 3.6306L17.9616 5.51722C19.8249 6.52129 21.002 8.57392 21.002 10.8191V13.1928C21.002 15.438 19.8249 17.4893 17.9616 18.4933L14.4616 20.3793C12.9132 21.2137 11.0907 21.2137 9.54228 20.3793L6.04228 18.4933C4.17897 17.4893 3.00195 15.4368 3.00195 13.1916V10.8189C3.00195 9.73349 3.27705 8.69312 3.77178 7.79446Z" stroke="#4E5964" stroke-width="1.35"/>
</svg>
