<svg width="24" height="24" viewBox="0 0 24 24" fill="none" xmlns="http://www.w3.org/2000/svg">
<path d="M21.0043 10.0044L21.0049 7.50443C21.0054 5.01915 18.9911 3.00399 16.5059 3.00344L7.50586 3.00147C5.02058 3.00093 3.00542 5.01521 3.00487 7.50049L3.0029 16.5005C3.00236 18.9858 5.01664 21.0009 7.50192 21.0015L10.0019 21.002" stroke="#4E5964" stroke-width="1.5" stroke-linecap="round"/>
<path fill-rule="evenodd" clip-rule="evenodd" d="M6.00609 5.99121L6.01609 6.00122L6.00609 6.01121L5.99609 6.00121L6.00609 5.99121Z" stroke="#4E5964" stroke-width="1.5" stroke-linecap="round" stroke-linejoin="round"/>
<path fill-rule="evenodd" clip-rule="evenodd" d="M8.01586 5.99146L8.02586 6.00146L8.01585 6.01146L8.00586 6.00146L8.01586 5.99146Z" stroke="#4E5964" stroke-width="1.5" stroke-linecap="round" stroke-linejoin="round"/>
<rect x="11.0039" y="11.0022" width="10" height="10" rx="5" stroke="#4E5964" stroke-width="1.5"/>
<path d="M11.9198 18.1948C12.5333 17.9798 15.3414 16.8189 15.6683 18.1956C15.9951 19.5723 17.8669 20.5756 18.0033 20.5039" stroke="#4E5964" stroke-width="1.5" stroke-linecap="round"/>
<path d="M16.6113 11.2859C16.8936 11.8507 17.4141 12.0575 17.2814 12.9732C17.0812 14.3552 18.9339 14.7248 19.2121 16.0931C19.3543 16.7922 19.7357 17.4436 20.7068 17.7232" stroke="#4E5964" stroke-width="1.5" stroke-linecap="round"/>
<path d="M14.0026 11.5102C14.1206 12.1456 16.1565 13.7819 15.0431 13.589C13.5211 13.3251 12.9852 15.2052 12.0467 16.4322C11.8568 16.6806 11.6878 17.0196 11.5545 17.4823" stroke="#4E5964" stroke-width="1.5" stroke-linecap="round"/>
<path d="M10.0059 6.00195L18.0059 6.0037" stroke="#4E5964" stroke-width="1.5" stroke-linecap="round"/>
</svg>
