<svg width="24" height="24" viewBox="0 0 24 24" fill="none" xmlns="http://www.w3.org/2000/svg">
<path d="M16.5059 3.00344L7.50586 3.00147C5.02058 3.00093 3.00542 5.01521 3.00487 7.50049L3.0029 16.5005C3.00236 18.9858 5.01664 21.0009 7.50192 21.0015L16.5019 21.0034C18.9872 21.004 21.0024 18.9897 21.0029 16.5044L21.0049 7.50443C21.0054 5.01915 18.9911 3.00399 16.5059 3.00344Z" stroke="#4E5964" stroke-width="1.5" stroke-linecap="round"/>
<path fill-rule="evenodd" clip-rule="evenodd" d="M6.00609 5.99121L6.01609 6.00122L6.00609 6.01121L5.99609 6.00121L6.00609 5.99121Z" stroke="#4E5964" stroke-width="1.5" stroke-linecap="round" stroke-linejoin="round"/>
<path fill-rule="evenodd" clip-rule="evenodd" d="M8.01586 5.99146L8.02586 6.00146L8.01585 6.01146L8.00586 6.00146L8.01586 5.99146Z" stroke="#4E5964" stroke-width="1.5" stroke-linecap="round" stroke-linejoin="round"/>
<path d="M10.0059 6.00195L18.0059 6.0037" stroke="#4E5964" stroke-width="1.5" stroke-linecap="round"/>
<path d="M5.095 16.43L4.135 16.43C4.015 16.43 3.975 16.36 4.015 16.22L5.595 10.21C5.64167 10.07 5.74167 10 5.895 10L7.225 10C7.39167 10 7.49167 10.07 7.525 10.21L9.105 16.22C9.145 16.36 9.105 16.43 8.985 16.43L8.025 16.43C7.95167 16.43 7.90167 16.4167 7.875 16.39C7.84833 16.3567 7.82833 16.3 7.815 16.22L7.535 15.12L5.585 15.12L5.305 16.22C5.29167 16.3 5.26833 16.3567 5.235 16.39C5.20833 16.4167 5.16167 16.43 5.095 16.43ZM6.545 11.21L5.825 14.1L7.305 14.1L6.585 11.21L6.545 11.21Z" fill="#4E5964"/>
<path d="M11.3714 15.33L12.4614 15.33C12.6747 15.33 12.8247 15.2867 12.9114 15.2C13.0047 15.1067 13.0514 14.9533 13.0514 14.74L13.0514 11.69C13.0514 11.4767 13.0047 11.3267 12.9114 11.24C12.8247 11.1467 12.6747 11.1 12.4614 11.1L11.3714 11.1C11.2981 11.1 11.2614 11.1367 11.2614 11.21L11.2614 15.22C11.2614 15.2933 11.2981 15.33 11.3714 15.33ZM9.99141 16.22L9.99141 10.21C9.99141 10.07 10.0614 10 10.2014 10L12.6714 10C13.1914 10 13.5947 10.1433 13.8814 10.43C14.1747 10.71 14.3214 11.11 14.3214 11.63L14.3214 14.8C14.3214 15.32 14.1747 15.7233 13.8814 16.01C13.5947 16.29 13.1914 16.43 12.6714 16.43L10.2014 16.43C10.0614 16.43 9.99141 16.36 9.99141 16.22Z" fill="#4E5964"/>
<path d="M15.3588 14.79L15.3588 14.59C15.3588 14.45 15.4288 14.38 15.5688 14.38L16.4187 14.38C16.5588 14.38 16.6287 14.45 16.6287 14.59L16.6287 14.67C16.6287 14.9233 16.6788 15.0967 16.7788 15.19C16.8788 15.2833 17.0621 15.33 17.3287 15.33L17.7987 15.33C18.0588 15.33 18.2388 15.28 18.3387 15.18C18.4454 15.08 18.4987 14.8933 18.4987 14.62L18.4987 14.5C18.4987 14.3067 18.4187 14.16 18.2587 14.06C18.1054 13.9533 17.9121 13.89 17.6788 13.87C17.4454 13.85 17.1921 13.8133 16.9187 13.76C16.6521 13.7 16.4021 13.6267 16.1687 13.54C15.9354 13.4467 15.7387 13.27 15.5787 13.01C15.4254 12.7433 15.3488 12.4033 15.3488 11.99L15.3488 11.64C15.3488 11.12 15.4954 10.7167 15.7887 10.43C16.0821 10.1433 16.4887 10 17.0087 10L18.0087 10C18.5354 10 18.9454 10.1433 19.2388 10.43C19.5321 10.7167 19.6788 11.12 19.6788 11.64L19.6788 11.83C19.6788 11.97 19.6088 12.04 19.4687 12.04L18.6188 12.04C18.4788 12.04 18.4087 11.97 18.4087 11.83L18.4087 11.77C18.4087 11.51 18.3587 11.3333 18.2587 11.24C18.1587 11.1467 17.9754 11.1 17.7087 11.1L17.3188 11.1C17.0454 11.1 16.8588 11.1533 16.7587 11.26C16.6654 11.36 16.6188 11.56 16.6188 11.86L16.6188 12.05C16.6188 12.3633 16.8921 12.5433 17.4388 12.59C18.0054 12.6367 18.5087 12.75 18.9488 12.93C19.1821 13.03 19.3754 13.21 19.5288 13.47C19.6888 13.7233 19.7688 14.05 19.7688 14.45L19.7688 14.79C19.7688 15.31 19.6221 15.7133 19.3287 16C19.0354 16.2867 18.6288 16.43 18.1088 16.43L17.0188 16.43C16.4988 16.43 16.0921 16.2867 15.7987 16C15.5054 15.7133 15.3588 15.31 15.3588 14.79Z" fill="#4E5964"/>
</svg>
