<svg width="24" height="24" viewBox="0 0 24 24" fill="none" xmlns="http://www.w3.org/2000/svg">
<path d="M16.5059 3.00344L7.50586 3.00147C5.02058 3.00093 3.00542 5.01521 3.00487 7.50049L3.0029 16.5005C3.00236 18.9858 5.01664 21.0009 7.50192 21.0015L16.5019 21.0034C18.9872 21.004 21.0024 18.9897 21.0029 16.5044L21.0049 7.50443C21.0054 5.01915 18.9911 3.00399 16.5059 3.00344Z" stroke="#4E5964" stroke-width="1.5" stroke-linecap="round"/>
<path fill-rule="evenodd" clip-rule="evenodd" d="M6.00609 5.99121L6.01609 6.00122L6.00609 6.01121L5.99609 6.00121L6.00609 5.99121Z" stroke="#4E5964" stroke-width="1.5" stroke-linecap="round" stroke-linejoin="round"/>
<path fill-rule="evenodd" clip-rule="evenodd" d="M8.01586 5.99146L8.02586 6.00146L8.01585 6.01146L8.00586 6.00146L8.01586 5.99146Z" stroke="#4E5964" stroke-width="1.5" stroke-linecap="round" stroke-linejoin="round"/>
<path d="M10.0059 6.00195L18.0059 6.0037" stroke="#4E5964" stroke-width="1.5" stroke-linecap="round"/>
<path d="M4.99609 16L6.66276 11L8.32943 16" stroke="#4E5964" stroke-width="1.5" stroke-linecap="round" stroke-linejoin="round"/>
<path d="M5.55273 14.6111L7.77496 14.6111" stroke="#4E5964" stroke-width="1.5" stroke-linecap="round" stroke-linejoin="round"/>
<path d="M10.1289 16L10.1289 11L12.3511 11C12.9648 11 13.4622 11.4975 13.4622 12.1111L13.4622 14.8889C13.4622 15.5025 12.9648 16 12.3511 16L10.1289 16Z" stroke="#4E5964" stroke-width="1.5" stroke-linecap="round" stroke-linejoin="round"/>
<path d="M18.597 12.1111C18.597 11.4975 18.0995 11 17.4859 11L16.3748 11C15.7611 11 15.2637 11.4975 15.2637 12.1111L15.2637 12.351C15.2637 12.8626 15.613 13.308 16.1097 13.43L17.7609 13.8356C18.2518 13.9562 18.597 14.3964 18.597 14.9019C18.597 15.5084 18.1054 16 17.4989 16L16.3748 16C15.7611 16 15.2637 15.5025 15.2637 14.8889L15.2637 14.6111" stroke="#4E5964" stroke-width="1.5" stroke-linecap="round" stroke-linejoin="round"/>
</svg>
