<svg width="24" height="24" viewBox="0 0 24 24" fill="none" xmlns="http://www.w3.org/2000/svg">
<circle cx="11" cy="13" r="8" stroke="#4E5964" stroke-width="1.5"/>
<path d="M18.681 15C19.4672 14.305 20.0858 13.4402 20.4861 12.4689C20.9812 11.2678 21.1223 9.95286 20.8932 8.67589C20.664 7.39892 20.074 6.212 19.1911 5.25214C18.3083 4.29228 17.1686 3.59863 15.9038 3.25126C14.6389 2.90388 13.3003 2.91695 12.0427 3.28895C10.8818 3.63231 9.83353 4.26854 9 5.13266" stroke="#4E5964" stroke-width="1.5" stroke-linecap="round"/>
<path d="M14 12.7642C14 12.3897 13.8814 12.0307 13.6704 11.766L11.7951 9.41337C11.5841 9.14864 11.298 9 10.9996 9C10.7012 9 10.4151 9.14885 10.2041 9.41366L8.32941 11.7669C8.11845 12.0317 8 12.3908 8 12.7652M14 12.7642C14 13.1386 13.8816 13.4977 13.6706 13.7625L11.7951 16.5294C11.5842 16.7942 11.2984 17 11 17C10.7016 17 10.4151 16.7941 10.2041 16.5294L8.32963 13.7635C8.11861 13.4987 8 13.1397 8 12.7652M14 12.7642L12.0013 13.9206C11.3819 14.2791 10.6181 14.2792 9.99852 13.9209L8 12.7652" stroke="#4E5964" stroke-width="1.5" stroke-linecap="round" stroke-linejoin="round"/>
</svg>
