<svg width="24" height="24" viewBox="0 0 24 24" fill="none" xmlns="http://www.w3.org/2000/svg">
<path d="M20 18V10.2758C20 8.46664 18.5334 7 16.7242 7V7H7.42857V7C5.53502 7 4 8.53502 4 10.4286V18" stroke="#4E5964" stroke-width="1.5"/>
<path d="M19.5 18H18.75H5.25H4.5C3.67157 18 3 18.6716 3 19.5C3 20.3284 3.67157 21 4.5 21H19.5C20.3284 21 21 20.3284 21 19.5C21 18.6716 20.3284 18 19.5 18Z" stroke="#4E5964" stroke-width="1.5"/>
<path d="M8 7V4C8 3.44772 7.55228 3 7 3V3C6.44772 3 6 3.44772 6 4V7" stroke="#4E5964" stroke-width="1.5"/>
<path d="M13 7V4C13 3.44772 12.5523 3 12 3V3C11.4477 3 11 3.44772 11 4V7" stroke="#4E5964" stroke-width="1.5"/>
<path d="M18 7V4C18 3.44772 17.5523 3 17 3V3C16.4477 3 16 3.44772 16 4V7" stroke="#4E5964" stroke-width="1.5"/>
<path d="M20 9.72437V9.72437C19.6936 9.72437 19.4134 9.8975 19.2764 10.1716L19 10.7244V10.7244C18.588 11.5484 17.412 11.5484 17 10.7244V10.7244C16.588 9.90032 15.412 9.90032 15 10.7244V10.7244C14.588 11.5484 13.412 11.5484 13 10.7244V10.7244C12.588 9.90032 11.412 9.90032 11 10.7244V10.7244C10.588 11.5484 9.41202 11.5484 9 10.7244V10.7244C8.58798 9.90032 7.41202 9.90032 7 10.7244V10.7244C6.58798 11.5484 5.41202 11.5484 5 10.7244V10.7244L4.72361 10.1716C4.58657 9.8975 4.30643 9.72437 4 9.72437V9.72437" stroke="#4E5964" stroke-width="1.5"/>
</svg>
