<svg width="24" height="24" viewBox="0 0 24 24" fill="none" xmlns="http://www.w3.org/2000/svg">
<path d="M16.5 6H7.5C6.67157 6 6 6.6717 6 7.50013V8.49987C6 9.3283 6.67157 10 7.5 10H16.5C17.3284 10 18 9.32843 18 8.5V7.5C18 6.67157 17.3284 6 16.5 6Z" stroke="#4E5964" stroke-width="1.5"/>
<rect x="3" y="3" width="18" height="18" rx="4.5" stroke="#4E5964" stroke-width="1.5"/>
<path d="M6.765 13.2354C6.911 13.3814 6.911 13.6194 6.765 13.7654C6.619 13.9114 6.381 13.9114 6.235 13.7654C6.089 13.6194 6.089 13.3814 6.235 13.2354C6.381 13.0884 6.618 13.0884 6.765 13.2354" stroke="#4E5964" stroke-width="1.4837" stroke-linecap="round" stroke-linejoin="round"/>
<path d="M6.765 17.2354C6.911 17.3814 6.911 17.6194 6.765 17.7654C6.619 17.9114 6.381 17.9114 6.235 17.7654C6.089 17.6194 6.089 17.3814 6.235 17.2354C6.381 17.0884 6.618 17.0884 6.765 17.2354" stroke="#4E5964" stroke-width="1.4837" stroke-linecap="round" stroke-linejoin="round"/>
<path d="M10.765 13.2354C10.911 13.3814 10.911 13.6194 10.765 13.7654C10.619 13.9114 10.381 13.9114 10.235 13.7654C10.089 13.6194 10.089 13.3814 10.235 13.2354C10.381 13.0884 10.618 13.0884 10.765 13.2354" stroke="#4E5964" stroke-width="1.4837" stroke-linecap="round" stroke-linejoin="round"/>
<path d="M10.765 17.2354C10.911 17.3814 10.911 17.6194 10.765 17.7654C10.619 17.9114 10.381 17.9114 10.235 17.7654C10.089 17.6194 10.089 17.3814 10.235 17.2354C10.381 17.0884 10.618 17.0884 10.765 17.2354" stroke="#4E5964" stroke-width="1.4837" stroke-linecap="round" stroke-linejoin="round"/>
<path d="M15 18H17" stroke="#4E5964" stroke-width="1.5" stroke-linecap="round"/>
<path d="M15 14H17" stroke="#4E5964" stroke-width="1.5" stroke-linecap="round"/>
<path d="M16 15V13" stroke="#4E5964" stroke-width="1.5" stroke-linecap="round"/>
</svg>
