<svg width="24" height="24" viewBox="0 0 24 24" fill="none" xmlns="http://www.w3.org/2000/svg">
<path d="M9 5V3" stroke="#4E5964" stroke-width="1.5" stroke-linecap="round"/>
<path d="M15 5V3" stroke="#4E5964" stroke-width="1.5" stroke-linecap="round"/>
<path d="M7.82501 8.8245C8.3138 8.33453 9.09135 8.32107 9.6004 8.77176C9.62076 8.78819 9.64105 8.8056 9.65997 8.8245L9.74982 8.92313C10.1649 9.43258 10.1346 10.1858 9.65997 10.6604C9.15371 11.1664 8.33126 11.1664 7.82501 10.6604C7.31871 10.1541 7.31878 9.33084 7.82501 8.8245Z" fill="#4E5964"/>
<path d="M7.82501 15.3411C8.3138 14.8511 9.09135 14.8377 9.6004 15.2884C9.62076 15.3048 9.64105 15.3222 9.65997 15.3411L9.74982 15.4397C10.1649 15.9492 10.1346 16.7024 9.65997 17.177C9.15371 17.683 8.33126 17.683 7.82501 17.177C7.31871 16.6707 7.31878 15.8474 7.82501 15.3411Z" fill="#4E5964"/>
<path d="M14.3406 15.3411C14.8294 14.8511 15.607 14.8377 16.116 15.2884C16.1364 15.3048 16.1567 15.3222 16.1756 15.3411L16.2654 15.4397C16.6805 15.9492 16.6502 16.7024 16.1756 17.177C15.6693 17.683 14.8469 17.683 14.3406 17.177C13.8343 16.6707 13.8344 15.8474 14.3406 15.3411Z" fill="#4E5964"/>
<path d="M14.3406 8.8245C14.8294 8.33453 15.607 8.32107 16.116 8.77176C16.1364 8.78819 16.1567 8.8056 16.1756 8.8245L16.2654 8.92313C16.6805 9.43258 16.6502 10.1858 16.1756 10.6604C15.6693 11.1664 14.8469 11.1664 14.3406 10.6604C13.8343 10.1541 13.8344 9.33084 14.3406 8.8245Z" fill="#4E5964"/>
<path d="M21 15.1718V8.22495C21 5.86393 19 4 16 4M14 3.94995H12H10M3 15.1718V8.22495C3 5.86393 5 4 8 3.94995" stroke="#4E5964" stroke-width="1.5"/>
<path d="M21 9V16.4999C21 18.9852 18.9853 20.9999 16.5 20.9999H7.5C5.01472 20.9999 3 18.9852 3 16.4999V11.9999" stroke="#4E5964" stroke-width="1.5" stroke-linecap="round"/>
</svg>
