<svg width="24" height="24" viewBox="0 0 24 24" fill="none" xmlns="http://www.w3.org/2000/svg">
<path d="M15 3H12H9M17 3C19.7614 3 22 5.12665 22 7.75V15.4688C22 19.0759 18.922 22 15.125 22H8.875C5.07804 22 2 19.0759 2 15.4688V7.75C2 5.12665 4.23858 3 7 3" stroke="#4E5964" stroke-width="1.5"/>
<path d="M8 4V2" stroke="#4E5964" stroke-width="1.5" stroke-linecap="round"/>
<path d="M16 4V2" stroke="#4E5964" stroke-width="1.5" stroke-linecap="round"/>
<mask id="path-4-inside-1_6132_1310" fill="white">
<path d="M12 9C10.77 9 9.73 9.67 9.73 10.97C9.73 11.59 10.02 12.06 10.46 12.36C9.85 12.72 9.5 13.3 9.5 13.98C9.5 15.22 10.45 15.99 12 15.99C13.54 15.99 14.5 15.22 14.5 13.98C14.5 13.3 14.15 12.71 13.53 12.36C13.98 12.05 14.26 11.59 14.26 10.97C14.26 9.67 13.23 9 12 9ZM12 11.84C11.48 11.84 11.1 11.53 11.1 11.04C11.1 10.54 11.48 10.25 12 10.25C12.52 10.25 12.9 10.54 12.9 11.04C12.9 11.53 12.52 11.84 12 11.84ZM12 14.75C11.34 14.75 10.86 14.42 10.86 13.82C10.86 13.22 11.34 12.9 12 12.9C12.66 12.9 13.14 13.23 13.14 13.82C13.14 14.42 12.66 14.75 12 14.75Z"/>
</mask>
<path d="M10.46 12.36L11.2224 13.6518L13.2566 12.4513L11.305 11.1207L10.46 12.36ZM13.53 12.36L12.679 11.1247L10.7025 12.4863L12.7926 13.6662L13.53 12.36ZM12 7.5C11.1311 7.5 10.2081 7.7349 9.46844 8.32482C8.68893 8.94654 8.23 9.87507 8.23 10.97H11.23C11.23 10.8489 11.2532 10.7857 11.2665 10.7575C11.2799 10.7295 11.3 10.7013 11.3391 10.6702C11.4269 10.6001 11.6389 10.5 12 10.5V7.5ZM8.23 10.97C8.23 12.1204 8.79442 13.0399 9.61499 13.5993L11.305 11.1207C11.2608 11.0905 11.2481 11.0691 11.2452 11.0638C11.2431 11.0599 11.2401 11.0536 11.2372 11.042C11.2343 11.0302 11.23 11.0073 11.23 10.97H8.23ZM9.69762 11.0682C8.66728 11.6763 8 12.7279 8 13.98H11C11 13.8721 11.0327 13.7637 11.2224 13.6518L9.69762 11.0682ZM8 13.98C8 15.0187 8.41649 15.9644 9.22758 16.618C10.0012 17.2413 10.9944 17.49 12 17.49V14.49C11.4556 14.49 11.1988 14.3537 11.1099 14.282C11.0689 14.249 11.049 14.2199 11.0357 14.191C11.0215 14.1602 11 14.0962 11 13.98H8ZM12 17.49C13.0026 17.49 13.994 17.2404 14.767 16.6193C15.5772 15.9684 16 15.0238 16 13.98H13C13 14.0939 12.9787 14.1568 12.9646 14.1874C12.9511 14.2164 12.9305 14.2465 12.888 14.2807C12.796 14.3546 12.5374 14.49 12 14.49V17.49ZM16 13.98C16 12.736 15.3383 11.6583 14.2674 11.0538L12.7926 13.6662C12.9617 13.7617 13 13.864 13 13.98H16ZM14.381 13.5953C15.2072 13.0261 15.76 12.1189 15.76 10.97H12.76C12.76 11.0114 12.7554 11.0356 12.7527 11.0465C12.7501 11.057 12.7479 11.0612 12.7472 11.0625C12.7464 11.064 12.7434 11.0692 12.7348 11.0785C12.7258 11.0882 12.7086 11.1043 12.679 11.1247L14.381 13.5953ZM15.76 10.97C15.76 9.8803 15.3078 8.95166 14.53 8.32759C13.7917 7.73512 12.8692 7.5 12 7.5V10.5C12.3608 10.5 12.5683 10.5999 12.6525 10.6674C12.6899 10.6974 12.7096 10.7248 12.723 10.7533C12.7366 10.7821 12.76 10.8467 12.76 10.97H15.76ZM12 10.34C12.0308 10.34 12.1762 10.3504 12.3377 10.4905C12.5198 10.6484 12.6 10.8683 12.6 11.04H9.6C9.6 11.7017 9.87022 12.3216 10.3723 12.757C10.8538 13.1746 11.4492 13.34 12 13.34V10.34ZM12.6 11.04C12.6 11.1075 12.5865 11.2073 12.536 11.3197C12.4851 11.4332 12.4095 11.5304 12.3223 11.6039C12.1516 11.748 12.0065 11.75 12 11.75V8.75C11.4735 8.75 10.8784 8.89699 10.3877 9.31106C9.868 9.74955 9.6 10.3775 9.6 11.04H12.6ZM12 11.75C11.9935 11.75 11.8484 11.748 11.6777 11.6039C11.5905 11.5304 11.5149 11.4332 11.464 11.3197C11.4135 11.2073 11.4 11.1075 11.4 11.04H14.4C14.4 10.3775 14.132 9.74955 13.6123 9.31106C13.1216 8.89699 12.5265 8.75 12 8.75V11.75ZM11.4 11.04C11.4 10.8683 11.4802 10.6484 11.6623 10.4905C11.8238 10.3504 11.9692 10.34 12 10.34V13.34C12.5508 13.34 13.1462 13.1746 13.6277 12.757C14.1298 12.3216 14.4 11.7017 14.4 11.04H11.4ZM12 13.25C11.8999 13.25 11.9711 13.2231 12.1034 13.326C12.1749 13.3816 12.247 13.4638 12.2978 13.5697C12.3483 13.675 12.36 13.7664 12.36 13.82H9.36C9.36 14.5658 9.68042 15.242 10.2616 15.694C10.7989 16.1119 11.4401 16.25 12 16.25V13.25ZM12.36 13.82C12.36 13.8736 12.3482 13.9675 12.2957 14.0762C12.2428 14.1856 12.1678 14.2698 12.0942 14.3261C11.9597 14.4291 11.8902 14.4 12 14.4V11.4C11.4498 11.4 10.8103 11.5309 10.2708 11.9439C9.6829 12.3939 9.36 13.0717 9.36 13.82H12.36ZM12 14.4C12.0999 14.4 12.0316 14.4269 11.9012 14.3263C11.8305 14.2718 11.7575 14.19 11.7054 14.0826C11.6533 13.9753 11.64 13.8798 11.64 13.82H14.64C14.64 13.0707 14.3128 12.3979 13.7338 11.9512C13.1984 11.5381 12.5601 11.4 12 11.4V14.4ZM11.64 13.82C11.64 13.7664 11.6517 13.675 11.7022 13.5697C11.753 13.4638 11.8251 13.3816 11.8966 13.326C12.0289 13.2231 12.1001 13.25 12 13.25V16.25C12.5599 16.25 13.2011 16.1119 13.7384 15.694C14.3196 15.242 14.64 14.5658 14.64 13.82H11.64Z" fill="#4E5964" mask="url(#path-4-inside-1_6132_1310)"/>
</svg>
