<svg width="24" height="24" viewBox="0 0 24 24" fill="none" xmlns="http://www.w3.org/2000/svg">
<path d="M15 3H12H9M17 3C19.7614 3 22 5.12665 22 7.75V15.4688C22 19.0759 18.922 22 15.125 22H8.875C5.07804 22 2 19.0759 2 15.4688V7.75C2 5.12665 4.23858 3 7 3" stroke="#4E5964" stroke-width="1.5"/>
<path d="M8 4V2" stroke="#4E5964" stroke-width="1.5" stroke-linecap="round"/>
<path d="M16 4V2" stroke="#4E5964" stroke-width="1.5" stroke-linecap="round"/>
<path d="M12 9C10.77 9 9.73 9.67 9.73 10.97C9.73 11.59 10.02 12.06 10.46 12.36C9.85 12.72 9.5 13.3 9.5 13.98C9.5 15.22 10.45 15.99 12 15.99C13.54 15.99 14.5 15.22 14.5 13.98C14.5 13.3 14.15 12.71 13.53 12.36C13.98 12.05 14.26 11.59 14.26 10.97C14.26 9.67 13.23 9 12 9ZM12 11.84C11.48 11.84 11.1 11.53 11.1 11.04C11.1 10.54 11.48 10.25 12 10.25C12.52 10.25 12.9 10.54 12.9 11.04C12.9 11.53 12.52 11.84 12 11.84ZM12 14.75C11.34 14.75 10.86 14.42 10.86 13.82C10.86 13.22 11.34 12.9 12 12.9C12.66 12.9 13.14 13.23 13.14 13.82C13.14 14.42 12.66 14.75 12 14.75Z" fill="#4E5964"/>
</svg>
