<svg width="24" height="24" viewBox="0 0 24 24" fill="none" xmlns="http://www.w3.org/2000/svg">
<path d="M12.2541 9H11.643C10.6612 9 9.86523 9.79594 9.86523 10.7778V11.2222C9.86523 12.2041 10.6612 13 11.643 13H12.2541C13.236 13 14.0319 12.2041 14.0319 11.2222V10.7778C14.0319 9.79594 13.236 9 12.2541 9Z" stroke="#4E5964" stroke-width="1.5" stroke-linecap="round" stroke-linejoin="round"/>
<path d="M12.7222 13H11.2778C10.2959 13 9.5 13.7959 9.5 14.7778V15.2222C9.5 16.2041 10.2959 17 11.2778 17H12.7222C13.7041 17 14.5 16.2041 14.5 15.2222V14.7778C14.5 13.7959 13.7041 13 12.7222 13Z" stroke="#4E5964" stroke-width="1.5" stroke-linecap="round" stroke-linejoin="round"/>
<path d="M21 15.189V8.26247C21 5.90837 19 4.0499 16 4.0499L8 4C5 4.0499 3 5.90837 3 8.26247V15.189M21 9.03525V16.5132C21 18.9912 18.9853 21 16.5 21H7.5C5.01472 21 3 18.9912 3 16.5132V12.0264" stroke="#4E5964" stroke-width="1.5" stroke-linecap="round"/>
<path d="M8 5.5V2.5" stroke="#4E5964" stroke-width="1.5" stroke-linecap="round"/>
<path d="M16 5.5V2.5" stroke="#4E5964" stroke-width="1.5" stroke-linecap="round"/>
</svg>
