<svg width="24" height="24" viewBox="0 0 24 24" fill="none" xmlns="http://www.w3.org/2000/svg">
<path d="M21 15.189V8.26247C21 5.90837 19 4.0499 16 4.0499L8 4C5 4.0499 3 5.90837 3 8.26247V15.189M21 9.03525V16.5132C21 18.9912 18.9853 21 16.5 21H7.5C5.01472 21 3 18.9912 3 16.5132V12.0264" stroke="#4E5964" stroke-width="1.5" stroke-linecap="round"/>
<path d="M9.765 10.2354C9.911 10.3814 9.911 10.6194 9.765 10.7654C9.619 10.9114 9.381 10.9114 9.235 10.7654C9.089 10.6194 9.089 10.3814 9.235 10.2354C9.381 10.0884 9.618 10.0884 9.765 10.2354" stroke="#4E5964" stroke-width="1.5" stroke-linecap="round" stroke-linejoin="round"/>
<path d="M14.765 10.2354C14.911 10.3814 14.911 10.6194 14.765 10.7654C14.619 10.9114 14.381 10.9114 14.235 10.7654C14.089 10.6194 14.089 10.3814 14.235 10.2354C14.381 10.0884 14.618 10.0884 14.765 10.2354" stroke="#4E5964" stroke-width="1.5" stroke-linecap="round" stroke-linejoin="round"/>
<path d="M14.765 15.2354C14.911 15.3814 14.911 15.6194 14.765 15.7654C14.619 15.9114 14.381 15.9114 14.235 15.7654C14.089 15.6194 14.089 15.3814 14.235 15.2354C14.381 15.0884 14.618 15.0884 14.765 15.2354" stroke="#4E5964" stroke-width="1.5" stroke-linecap="round" stroke-linejoin="round"/>
<path d="M9.765 15.2354C9.911 15.3814 9.911 15.6194 9.765 15.7654C9.619 15.9114 9.381 15.9114 9.235 15.7654C9.089 15.6194 9.089 15.3814 9.235 15.2354C9.381 15.0884 9.618 15.0884 9.765 15.2354" stroke="#4E5964" stroke-width="1.5" stroke-linecap="round" stroke-linejoin="round"/>
<path d="M8 5.5V2.5" stroke="#4E5964" stroke-width="1.5" stroke-linecap="round"/>
<path d="M16 5.5V2.5" stroke="#4E5964" stroke-width="1.5" stroke-linecap="round"/>
</svg>
