<svg width="24" height="24" viewBox="0 0 24 24" fill="none" xmlns="http://www.w3.org/2000/svg">
<path d="M21 15.1389V8.21243C21 5.85833 19 3.99985 16 3.99985L8 3.94995C5 3.99985 3 5.85833 3 8.21243V15.1389M21 8.9852V16.4631C21 18.9411 18.9853 20.95 16.5 20.95H7.5C5.01472 20.95 3 18.9411 3 16.4631V11.9763" stroke="#4E5964" stroke-width="1.5" stroke-linecap="round"/>
<path d="M9 5V3" stroke="#4E5964" stroke-width="1.5" stroke-linecap="round"/>
<path d="M15 5V3" stroke="#4E5964" stroke-width="1.5" stroke-linecap="round"/>
<path d="M11.708 14.908H12.524C12.78 14.908 12.96 14.856 13.064 14.752C13.168 14.648 13.22 14.472 13.22 14.224V13.672C13.22 13.416 13.168 13.228 13.064 13.108C12.96 12.988 12.78 12.928 12.524 12.928H11.708C11.452 12.928 11.272 12.988 11.168 13.108C11.064 13.228 11.012 13.416 11.012 13.672V14.224C11.012 14.472 11.064 14.648 11.168 14.752C11.272 14.856 11.452 14.908 11.708 14.908ZM11.708 11.74H12.524C12.78 11.74 12.96 11.68 13.064 11.56C13.168 11.44 13.22 11.252 13.22 10.996V10.492C13.22 10.244 13.168 10.068 13.064 9.964C12.96 9.86 12.78 9.808 12.524 9.808H11.708C11.452 9.808 11.272 9.86 11.168 9.964C11.064 10.068 11.012 10.244 11.012 10.492V10.996C11.012 11.252 11.064 11.44 11.168 11.56C11.272 11.68 11.452 11.74 11.708 11.74ZM12.752 16.216H11.48C10.84 16.216 10.348 16.06 10.004 15.748C9.668 15.428 9.5 14.96 9.5 14.344V13.792C9.5 13.056 9.764 12.572 10.292 12.34C9.764 12.124 9.5 11.636 9.5 10.876V10.36C9.5 9.744 9.668 9.28 10.004 8.968C10.348 8.656 10.84 8.5 11.48 8.5H12.752C13.384 8.5 13.868 8.656 14.204 8.968C14.548 9.28 14.72 9.744 14.72 10.36V10.876C14.72 11.252 14.648 11.572 14.504 11.836C14.36 12.1 14.172 12.268 13.94 12.34C14.46 12.548 14.72 13.036 14.72 13.804V14.344C14.72 14.96 14.548 15.428 14.204 15.748C13.868 16.06 13.384 16.216 12.752 16.216Z" fill="#4E5964"/>
</svg>
