<svg width="24" height="24" viewBox="0 0 24 24" fill="none" xmlns="http://www.w3.org/2000/svg">
<path d="M3 7.97917C3 7.43839 3.43839 7 3.97917 7H5.11294C5.65372 7 6.09211 7.43839 6.09211 7.97917V10.0208C6.09211 10.5616 5.65372 11 5.11294 11H3.97917C3.43839 11 3 10.5616 3 10.0208V7.97917Z" stroke="#4E5964" stroke-width="1.46875"/>
<path d="M4.47266 7V3" stroke="#4E5964" stroke-width="1.46875" stroke-linecap="round"/>
<path d="M4.54688 11.5V15.5" stroke="#4E5964" stroke-width="1.46875" stroke-linecap="round"/>
<path d="M11.6016 9.87496V7" stroke="#4E5964" stroke-width="1.46875" stroke-linecap="round"/>
<path d="M10.0918 11.3434C10.0918 10.8026 10.5302 10.3643 11.071 10.3643H12.2047C12.7455 10.3643 13.1839 10.8026 13.1839 11.3434V16.7288C13.1839 17.2696 12.7455 17.708 12.2047 17.708H11.071C10.5302 17.708 10.0918 17.2696 10.0918 16.7288V11.3434Z" stroke="#4E5964" stroke-width="1.46875"/>
<path d="M11.6387 20.9998V17.708" stroke="#4E5964" stroke-width="1.46875" stroke-linecap="round"/>
<path d="M18.6953 6.9375V3" stroke="#4E5964" stroke-width="1.46875" stroke-linecap="round"/>
<path d="M17.1836 7.91667C17.1836 7.37589 17.622 6.9375 18.1628 6.9375H19.2965C19.8373 6.9375 20.2757 7.37589 20.2757 7.91667V13.5208C20.2757 14.0616 19.8373 14.5 19.2965 14.5H18.1628C17.622 14.5 17.1836 14.0616 17.1836 13.5208V7.91667Z" stroke="#4E5964" stroke-width="1.46875"/>
<path d="M18.7305 17.9999V15.2603" stroke="#4E5964" stroke-width="1.46875" stroke-linecap="round"/>
</svg>
