<svg width="24" height="24" viewBox="0 0 24 24" fill="none" xmlns="http://www.w3.org/2000/svg">
<circle cx="9.75234" cy="19.6552" r="1.35" stroke="#4E5964" stroke-width="1.5"/>
<circle cx="16.0512" cy="19.6552" r="1.35" stroke="#4E5964" stroke-width="1.5"/>
<path d="M6.91258 11.0233V9.30513L7.00576 8.31799C7.23797 5.85795 9.37963 3.97436 11.9445 3.97436H19.9041C20.5104 3.97436 21.002 4.44775 21.002 5.0317V12.0279C21.002 14.0035 19.339 15.6051 17.2876 15.6051H9.30995C6.72934 15.6051 4.59358 13.8703 4.27865 11.4035C4.20204 10.8034 4.10135 10.1689 3.93543 9.44132C3.90809 9.32145 3.88363 9.20097 3.86339 9.0798C3.79947 8.69703 3.64517 7.7888 3.51494 7.14639C3.31464 6.15833 3.12645 4.8464 3.00929 3.96633C2.94109 3.45399 3.3571 3.00513 3.89343 3.00513" stroke="#4E5964" stroke-width="1.5" stroke-linecap="round"/>
<path d="M11.1012 20.1052H14.7012" stroke="#4E5964" stroke-width="1.5" stroke-linecap="round"/>
<path d="M15.6016 10.2051L21.0016 10.2051" stroke="#4E5964" stroke-width="1.5" stroke-linecap="round"/>
</svg>
