<svg width="24" height="24" viewBox="0 0 24 24" fill="none" xmlns="http://www.w3.org/2000/svg">
<circle cx="9.75039" cy="19.65" r="1.35" stroke="#4E5964" stroke-width="1.5"/>
<circle cx="16.0492" cy="19.65" r="1.35" stroke="#4E5964" stroke-width="1.5"/>
<path d="M6.91063 11.0182V9.3L7.00381 8.31286C7.23602 5.85283 9.37768 3.96923 11.9425 3.96923H19.9021C20.5085 3.96923 21 4.44262 21 5.02657V12.0228C21 13.9984 19.337 15.6 17.2856 15.6H9.30799C6.72739 15.6 4.59162 13.8651 4.2767 11.3984C4.20009 10.7983 4.0994 10.1638 3.93348 9.43619C3.90614 9.31632 3.88168 9.19585 3.86144 9.07468C3.79752 8.6919 3.64322 7.78367 3.51299 7.14126C3.31269 6.1532 3.1245 4.84127 3.00734 3.9612C2.93913 3.44886 3.35515 3 3.89148 3" stroke="#4E5964" stroke-width="1.5" stroke-linecap="round"/>
<path d="M11.0992 20.1001H14.6992" stroke="#4E5964" stroke-width="1.5" stroke-linecap="round"/>
<path d="M15.5996 10.2L20.9996 10.2" stroke="#4E5964" stroke-width="1.5" stroke-linecap="round"/>
</svg>
