<svg width="24" height="24" viewBox="0 0 24 24" fill="none" xmlns="http://www.w3.org/2000/svg">
<path d="M7.5 21H16.5C18.9853 21 21 18.9853 21 16.5V12V7.5C21 5.01472 18.9853 3 16.5 3H12H7.5C5.01472 3 3 5.01472 3 7.5V16.5C3 18.9853 5.01472 21 7.5 21Z" stroke="#4E5964" stroke-width="1.5" stroke-linecap="round"/>
<path d="M13.6667 12.5556H15.5C16.3284 12.5556 17 13.2271 17 14.0556V15.5C17 16.3284 16.3284 17 15.5 17H15.3333H13.6667M13.6667 12.5556V8.5C13.6667 7.67157 12.9951 7 12.1667 7H11.8333C11.0049 7 10.3333 7.67157 10.3333 8.5V10M13.6667 12.5556V17M10.3333 10H8.5C7.67157 10 7 10.6716 7 11.5V16.4444C7 16.7513 7.24873 17 7.55556 17H10.3333M10.3333 10V17M13.6667 17H10.3333" stroke="#4E5964" stroke-width="1.5"/>
</svg>
