<svg width="24" height="24" viewBox="0 0 24 24" fill="none" xmlns="http://www.w3.org/2000/svg">
<path d="M17.4 15.9749C17.4 15.9749 21 16.4539 21 13.2251C21 9.99633 17.625 9.9158 17.625 9.45455C17.625 8.99329 17.1892 4 12 4C6.81077 4 6.375 8.99329 6.375 9.45455C6.375 9.9158 2.99997 9.99633 3 13.2251C3.00003 16.4539 6.6 15.9749 6.6 15.9749" stroke="#4E5964" stroke-width="1.5" stroke-linecap="round" stroke-linejoin="round"/>
<path d="M10.5724 19.6823C10.6818 19.8081 10.8166 19.9011 10.9649 19.953C11.1133 20.0048 11.2705 20.014 11.4227 19.9796C11.5749 19.9451 11.7172 19.8683 11.8372 19.7557C11.9571 19.6432 12.0509 19.4985 12.1101 19.3346C12.1694 19.1706 12.1924 18.9924 12.1769 18.8159C12.1615 18.6393 12.1081 18.4699 12.0217 18.3226C11.9352 18.1753 11.8182 18.0548 11.6812 17.9716C11.5441 17.8885 11.3913 17.8454 11.2362 17.8462H9M12.992 13.3931C13.1289 13.2369 13.2974 13.1216 13.4825 13.0576C13.6676 12.9936 13.8637 12.9827 14.0533 13.026C14.243 13.0693 14.4204 13.1653 14.5698 13.3057C14.7193 13.446 14.8362 13.6263 14.9103 13.8307C14.9844 14.035 15.0132 14.2571 14.9944 14.4772C14.9756 14.6974 14.9096 14.9088 14.8023 15.0929C14.6951 15.2769 14.5498 15.4279 14.3794 15.5325C14.2089 15.637 14.0186 15.6919 13.8252 15.6923H9" stroke="#4E5964" stroke-width="1.5" stroke-linecap="round" stroke-linejoin="round"/>
</svg>
