<svg width="24" height="24" viewBox="0 0 24 24" fill="none" xmlns="http://www.w3.org/2000/svg">
<path d="M17.8125 14.4545C17.8125 13.9933 17.4009 9 12.5 9C7.59906 9 7.1875 13.9933 7.1875 14.4545C7.1875 14.9158 3.99997 14.9963 4 18.2251C4.00003 21.4539 7.4 20.9749 7.4 20.9749H9.66667H12.5H14.8611H17.6C17.6 20.9749 21 21.4539 21 18.2251C21 14.9963 17.8125 14.9158 17.8125 14.4545Z" stroke="#4E5964" stroke-width="1.5" stroke-linecap="round" stroke-linejoin="round"/>
<path d="M13.6107 8.99982C13.2933 7.10802 11.648 5.6665 9.66602 5.6665C7.45688 5.6665 5.66602 7.45736 5.66602 9.6665C5.66602 11.2043 6.53375 12.5393 7.80627 13.2088" stroke="#4E5964" stroke-width="1.5"/>
<path d="M9.66797 3.6665L9.66797 2.99984" stroke="#4E5964" stroke-width="1.5" stroke-linecap="round"/>
<path d="M3.66797 9.6665L3.0013 9.6665" stroke="#4E5964" stroke-width="1.5" stroke-linecap="round"/>
<path d="M5.54297 5.5415L4.95371 4.95225" stroke="#4E5964" stroke-width="1.5" stroke-linecap="round"/>
</svg>
