<svg width="24" height="24" viewBox="0 0 24 24" fill="none" xmlns="http://www.w3.org/2000/svg">
<path d="M3 8.56505C3 7.70106 3.7292 7 4.62787 7H16.3721C17.2718 7 18 7.70106 18 8.56505V11.7889C18 13.7013 17.2099 15.5353 15.8035 16.8876C14.3971 18.2399 12.4896 18.9997 10.5005 19C9.51553 19 8.5402 18.8135 7.63019 18.4511C6.72019 18.0887 5.89334 17.5575 5.19685 16.8879C4.50036 16.2183 3.94788 15.4234 3.57094 14.5485C3.19401 13.6736 3 12.7359 3 11.7889V8.56505Z" stroke="#4E5964" stroke-width="1.5" stroke-linecap="round" stroke-linejoin="round"/>
<path d="M14.3578 4C14.1628 4.11333 14 4.66667 14 5" stroke="#4E5964" stroke-width="1.5" stroke-linecap="round" stroke-linejoin="round"/>
<path d="M7.38566 4C7.38566 4 7 4.33333 7 5" stroke="#4E5964" stroke-width="1.5" stroke-linecap="round" stroke-linejoin="round"/>
<path d="M11.0774 3C10.6868 3.226 10.1426 4 10.1426 5" stroke="#4E5964" stroke-width="1.5" stroke-linecap="round" stroke-linejoin="round"/>
<path d="M4 21H17" stroke="#4E5964" stroke-width="1.5" stroke-linecap="round"/>
<path d="M18.3949 9.00184C18.7931 8.98789 19.19 9.05337 19.5626 9.19447C19.9351 9.33558 20.2758 9.54947 20.5649 9.82368C20.8539 10.0979 21.0854 10.4269 21.2458 10.7915C21.4063 11.1562 21.4926 11.5491 21.4995 11.9474C21.5065 12.3458 21.4341 12.7415 21.2865 13.1115C21.1389 13.4816 20.919 13.8185 20.6398 14.1027C20.3606 14.3868 20.0276 14.6125 19.6602 14.7666C19.2928 14.9207 18.8984 15 18.5 15H17.5" stroke="#4E5964" stroke-width="1.5"/>
</svg>
