<svg width="24" height="24" viewBox="0 0 24 24" fill="none" xmlns="http://www.w3.org/2000/svg">
<path d="M16 4C16 4 18.7802 3.47526 20 5C20.9758 6.21979 21 7 21 7M17 5.99463L15 3.99463L17 1.99463" stroke="#4E5964" stroke-width="1.5" stroke-linecap="round" stroke-linejoin="round"/>
<path d="M7.53033 17.4643C7.23744 17.1714 6.76256 17.1714 6.46967 17.4643C6.17678 17.7572 6.17678 18.2321 6.46967 18.525L7 17.9946L7.53033 17.4643ZM9 19.9946L9.53033 20.525C9.67098 20.3843 9.75 20.1935 9.75 19.9946C9.75 19.7957 9.67098 19.605 9.53033 19.4643L9 19.9946ZM6.46967 21.4643C6.17678 21.7572 6.17678 22.2321 6.46967 22.525C6.76256 22.8179 7.23744 22.8179 7.53033 22.525L7 21.9946L6.46967 21.4643ZM8.159 20.7315C8.56565 20.6527 8.83142 20.2592 8.75262 19.8526C8.67382 19.4459 8.28029 19.1801 7.87364 19.2589L8.01632 19.9952L8.159 20.7315ZM4.01092 19.0206L4.5932 18.5479V18.5479L4.01092 19.0206ZM3.7495 17.0055C3.73436 16.5916 3.38653 16.2683 2.97259 16.2835C2.55865 16.2986 2.23536 16.6464 2.2505 17.0604L3 17.033L3.7495 17.0055ZM7 17.9946L6.46967 18.525L8.46967 20.525L9 19.9946L9.53033 19.4643L7.53033 17.4643L7 17.9946ZM9 19.9946L8.46967 19.4643L6.46967 21.4643L7 21.9946L7.53033 22.525L9.53033 20.525L9 19.9946ZM8.01632 19.9952C7.87364 19.2589 7.87385 19.2589 7.87405 19.2588C7.8741 19.2588 7.87429 19.2588 7.87439 19.2588C7.8746 19.2587 7.87477 19.2587 7.87489 19.2587C7.87515 19.2586 7.87524 19.2586 7.87516 19.2586C7.87502 19.2587 7.87424 19.2588 7.87282 19.2591C7.86999 19.2596 7.86465 19.2606 7.85693 19.2619C7.84148 19.2646 7.81657 19.2687 7.78323 19.2737C7.71645 19.2837 7.6165 19.2971 7.49156 19.3091C7.23994 19.3332 6.89597 19.3508 6.52232 19.3268C5.73757 19.2763 5.00537 19.0556 4.5932 18.5479L4.01092 19.0206L3.42863 19.4933C4.24457 20.4984 5.51507 20.7651 6.426 20.8237C6.90019 20.8542 7.32729 20.8318 7.63479 20.8023C7.78941 20.7874 7.91604 20.7706 8.00593 20.7571C8.05094 20.7503 8.0869 20.7444 8.11273 20.7399C8.12565 20.7377 8.13606 20.7358 8.14381 20.7344C8.14769 20.7337 8.1509 20.7331 8.15344 20.7326C8.15471 20.7324 8.15581 20.7321 8.15673 20.732C8.1572 20.7319 8.15762 20.7318 8.158 20.7317C8.15819 20.7317 8.15844 20.7316 8.15853 20.7316C8.15877 20.7316 8.159 20.7315 8.01632 19.9952ZM4.01092 19.0206L4.5932 18.5479C4.15002 18.002 3.93903 17.575 3.83907 17.309C3.78889 17.1756 3.76589 17.0805 3.75575 17.0289C3.75067 17.003 3.74876 16.9877 3.7483 16.9837C3.74807 16.9816 3.7482 16.9824 3.74847 16.986C3.7486 16.9878 3.74878 16.9904 3.74896 16.9936C3.74905 16.9952 3.74914 16.9971 3.74923 16.999C3.74928 17 3.74932 17.0011 3.74937 17.0022C3.74939 17.0027 3.74941 17.0033 3.74943 17.0038C3.74944 17.0041 3.74946 17.0045 3.74947 17.0047C3.74948 17.0051 3.7495 17.0055 3 17.033C2.2505 17.0604 2.25052 17.0608 2.25053 17.0613C2.25054 17.0614 2.25056 17.0619 2.25057 17.0622C2.25059 17.0628 2.25062 17.0634 2.25064 17.064C2.2507 17.0653 2.25075 17.0666 2.25082 17.068C2.25094 17.0708 2.25109 17.0737 2.25127 17.0768C2.25161 17.0831 2.25207 17.0901 2.25265 17.0979C2.25382 17.1135 2.25551 17.1322 2.25798 17.1538C2.26291 17.197 2.2709 17.2519 2.28384 17.3178C2.30973 17.4497 2.35524 17.6247 2.43498 17.8368C2.59486 18.2622 2.88932 18.829 3.42863 19.4933L4.01092 19.0206Z" fill="#4E5964"/>
<path d="M2.75 4H4.25M2.75 11H4.25M6.25 1.74463V3.24463M6.25 11.7446V13.2446M4.5 3.99463V10.9946H7.61111C8.47022 10.9946 9.16667 10.2982 9.16667 9.43907V9.05018C9.16667 8.19107 8.47022 7.49463 7.61111 7.49463H4.73333L7.63293 7.45395C8.48345 7.44202 9.16667 6.74915 9.16667 5.89855V5.55019C9.16667 4.69108 8.47022 3.99463 7.61111 3.99463H4.5Z" stroke="#4E5964" stroke-width="1.5" stroke-linecap="round" stroke-linejoin="round"/>
<path d="M20.5 14.6613V14.2029C20.5 13.1904 19.6792 12.3696 18.6667 12.3696H16.8333C15.8208 12.3696 15 13.1904 15 14.2029V14.4832C15 15.3794 15.6479 16.1443 16.5319 16.2916L18.9681 16.6976C19.8521 16.8449 20.5 17.6098 20.5 18.506V18.7863C20.5 19.7988 19.6792 20.6196 18.6667 20.6196H16.8333C15.8208 20.6196 15 19.7988 15 18.7863V18.3279M17.75 10.9946L17.75 21.9946" stroke="#4E5964" stroke-width="1.5" stroke-linecap="round" stroke-linejoin="round"/>
</svg>
