<svg width="24" height="24" viewBox="0 0 24 24" fill="none" xmlns="http://www.w3.org/2000/svg">
<path d="M18 12V21M21 14.25C20.778 13.4736 19.9949 12.9 19.063 12.9H18H17C15.8954 12.9 15 13.7059 15 14.7C15 15.6941 15.8954 16.5 17 16.5H18L19 16.5C20.1046 16.5 21 17.3059 21 18.3C21 19.2941 20.1046 20.1 19 20.1H18H16.937C16.0051 20.1 15.222 19.5264 15 18.75" stroke="#4E5964" stroke-width="1.5" stroke-linecap="round" stroke-linejoin="round"/>
<path d="M16 4C16 4 18.7802 3.47526 20 5C20.9758 6.21979 21 7 21 7" stroke="#4E5964" stroke-width="1.5" stroke-linecap="round"/>
<path d="M16 5L15 4L16 3" stroke="#4E5964" stroke-width="1.5" stroke-linecap="round" stroke-linejoin="round"/>
<path d="M8.01632 19.9952C8.01632 19.9952 5.23902 20.5334 4.01092 19.0206C3.02843 17.8104 3 17.033 3 17.033" stroke="#4E5964" stroke-width="1.5" stroke-linecap="round"/>
<path d="M8.01055 18.998L9.016 19.9895L8.02148 20.9919" stroke="#4E5964" stroke-width="1.5" stroke-linecap="round" stroke-linejoin="round"/>
<path d="M8.62352 9.0001C9.6442 8.66441 10.2651 7.53991 9.54703 6.4504C9.08635 5.75147 8.17744 5.57153 7.34035 5.57153H3M8.62352 9.0001H3.85714M8.62352 9.0001C9.55382 9.46634 10.2672 10.5983 9.43673 11.6976C9.00485 12.2692 8.24172 12.4287 7.52526 12.4287H4.28571C4.04902 12.4287 3.85714 12.2368 3.85714 12.0001V9.0001M3.85714 9.0001V8.14296" stroke="#4E5964" stroke-width="1.71429" stroke-linecap="round"/>
<path d="M7.28488 14.1428L7.28488 13.2857L5.57059 13.2857L5.57059 14.1428L6.42773 14.1428L7.28488 14.1428ZM5.57059 15C5.57059 15.4734 5.95435 15.8571 6.42773 15.8571C6.90112 15.8571 7.28488 15.4734 7.28488 15L6.42773 15L5.57059 15ZM6.42773 14.1428L5.57059 14.1428L5.57059 15L6.42773 15L7.28488 15L7.28488 14.1428L6.42773 14.1428Z" fill="#4E5964"/>
<path d="M7.28488 3C7.28488 2.52661 6.90112 2.14286 6.42773 2.14286C5.95435 2.14286 5.57059 2.52661 5.57059 3L6.42773 3L7.28488 3ZM5.57059 3.85714L5.57059 4.71429L7.28488 4.71429L7.28488 3.85714L6.42773 3.85714L5.57059 3.85714ZM6.42773 3L5.57059 3L5.57059 3.85714L6.42773 3.85714L7.28488 3.85714L7.28488 3L6.42773 3Z" fill="#4E5964"/>
</svg>
