<svg width="24" height="24" viewBox="0 0 24 24" fill="none" xmlns="http://www.w3.org/2000/svg">
<path d="M17.5 6.00004L20.845 9.09988C21.015 9.26507 21.0854 10.0001 20.845 10.0001H17.2698C17.1208 10.0001 17 9.88265 17 9.73784V6.2628C17 6.02919 17.33 5.83485 17.5 6.00004Z" stroke="#4E5964" stroke-width="1.5"/>
<path d="M17.4002 6.70093C17.8144 6.70093 18.1502 6.36514 18.1502 5.95093C18.1502 5.53671 17.8144 5.20093 17.4002 5.20093V5.95093V6.70093ZM21.0002 13.328H21.7502V13.3279L21.0002 13.328ZM17.0002 21.0001V20.2501H10.0859V21.0001V21.7501H17.0002V21.0001ZM6.08594 17.0001H6.83594V9.95092H6.08594H5.33594V17.0001H6.08594ZM10.0859 5.95093V6.70093H13.4917V5.95093V5.20093H10.0859V5.95093ZM13.4917 5.95093V6.70093H17.4002V5.95093V5.20093H13.4917V5.95093ZM21.0002 13.328H20.2502V17.0001H21.0002H21.7502V13.328H21.0002ZM21 9.50012L20.25 9.50017L20.2502 13.328L21.0002 13.328L21.7502 13.3279L21.75 9.50008L21 9.50012ZM10.0859 21.0001V20.2501C8.29101 20.2501 6.83594 18.795 6.83594 17.0001H6.08594H5.33594C5.33594 19.6235 7.46259 21.7501 10.0859 21.7501V21.0001ZM17.0002 21.0001V21.7501C19.6236 21.7501 21.7502 19.6235 21.7502 17.0001H21.0002H20.2502C20.2502 18.795 18.7951 20.2501 17.0002 20.2501V21.0001ZM6.08594 9.95092H6.83594C6.83594 8.156 8.29101 6.70093 10.0859 6.70093V5.95093V5.20093C7.46259 5.20093 5.33594 7.32757 5.33594 9.95092H6.08594Z" fill="#4E5964"/>
<line x1="11.75" y1="17.25" x2="15.25" y2="17.25" stroke="#4E5964" stroke-width="1.5" stroke-linecap="round"/>
<line x1="10.75" y1="14.25" x2="16.25" y2="14.25" stroke="#4E5964" stroke-width="1.5" stroke-linecap="round"/>
<path d="M6.87771 17.7541C4.73611 17.7541 3 16.018 3 13.8764V7C3 4.79086 4.79086 3 7 3H10.7019H12.4114C13.865 3 15.2043 3.78864 15.9094 5.05986L16.3714 5.89296" stroke="#4E5964" stroke-width="1.5"/>
</svg>
