<svg width="24" height="24" viewBox="0 0 24 24" fill="none" xmlns="http://www.w3.org/2000/svg">
<path d="M9 20L15 20.0001M20.4464 10.5948C20.7555 9.27626 19.6675 8.10698 18.6107 8.62207L16.904 9.52285C16.408 9.78466 15.7937 9.58736 15.5428 9.08569L12.8944 3.78885C12.5259 3.05181 11.4741 3.05181 11.1056 3.78885L8.4534 9.09319C8.20401 9.59198 7.59482 9.7904 7.09951 9.53418L5.33632 8.62207C4.27952 8.10698 3.19152 9.27626 3.5007 10.5948L5.6959 16.0863C5.84771 16.4661 6.21547 16.7151 6.62446 16.7151L17.3226 16.7151C17.7316 16.7151 18.0993 16.4661 18.2511 16.0863L20.4464 10.5948Z" stroke="#4E5964" stroke-width="1.5" stroke-linecap="round"/>
</svg>
