<svg width="24" height="24" viewBox="0 0 24 24" fill="none" xmlns="http://www.w3.org/2000/svg">
<path d="M3.06243 10.442L5.20728 15.8954C5.40183 16.6635 5.65734 17.0621 6.375 17.0621H18.6953C19.4939 17.0621 19.7636 16.7747 19.875 15.8954C19.9803 15.064 20.8775 10.7637 20.975 10.2977C20.981 10.2688 20.9856 10.2418 20.9887 10.2124C21.1349 8.82151 19.8371 7.78824 18.6953 8.40648L17.4818 9.06357C16.6945 9.48984 15.7453 9.13444 15.3502 8.26549L14 4.0621C13.3716 2.67976 11.4938 2.61288 11 4.06121L9.16613 8.12715C8.84728 9.06232 7.89878 9.52253 7.06534 9.14647L5.20728 8.30809C3.97246 7.75092 2.70118 9.01572 3.06243 10.442Z" stroke="#4E5964" stroke-width="1.5" stroke-linecap="round"/>
<path d="M9 20.0625L15 20.0625" stroke="#4E5964" stroke-width="1.5" stroke-linecap="round" stroke-linejoin="round"/>
</svg>
