<svg width="24" height="24" viewBox="0 0 24 24" fill="none" xmlns="http://www.w3.org/2000/svg">
<path d="M5.88906 15.6364L6.61925 15.4652C6.61247 15.4363 6.60397 15.4078 6.5938 15.3798L5.88906 15.6364ZM4.05343 10.5949L3.32324 10.7661C3.33002 10.7951 3.33852 10.8236 3.34869 10.8515L4.05343 10.5949ZM5.88906 8.62217L5.56046 9.29635H5.56046L5.88906 8.62217ZM7.47924 9.39723L7.80784 8.72305H7.80784L7.47924 9.39723ZM9.27716 8.4549L8.59597 8.14108L8.57618 8.18404L8.56194 8.22915L9.27716 8.4549ZM11 4.71519L11.6812 5.029C11.6847 5.02143 11.688 5.0138 11.6913 5.00612L11 4.71519ZM6.56749 15.965C6.15327 15.965 5.81749 16.3008 5.81749 16.715C5.81749 17.1292 6.15327 17.465 6.56749 17.465V16.715V15.965ZM12.5 17.465C12.9142 17.465 13.25 17.1292 13.25 16.715C13.25 16.3008 12.9142 15.965 12.5 15.965V16.715V17.465ZM12.383 4.47929C12.7921 4.54393 13.1762 4.26465 13.2408 3.85551C13.3054 3.44637 13.0262 3.0623 12.617 2.99767L12.5 3.73848L12.383 4.47929ZM18.6109 15.6362L17.9062 15.3796L17.8909 15.4216L17.8807 15.465L18.6109 15.6362ZM20.4466 10.5947L21.1513 10.8513L21.1666 10.8094L21.1768 10.7659L20.4466 10.5947ZM18.6109 8.62196L18.9395 9.29614L18.6109 8.62196ZM17.0208 9.39702L16.6922 8.72284L16.6922 8.72284L17.0208 9.39702ZM15.2228 8.45469L15.9381 8.22893C15.9286 8.19889 15.9172 8.16948 15.904 8.14087L15.2228 8.45469ZM13.5 4.71497L12.8087 5.0059L12.8136 5.01743L12.8188 5.02879L13.5 4.71497ZM17.9325 17.4648C18.3467 17.4648 18.6825 17.129 18.6825 16.7148C18.6825 16.3006 18.3467 15.9648 17.9325 15.9648V16.7148V17.4648ZM12 15.9648C11.5858 15.9648 11.25 16.3006 11.25 16.7148C11.25 17.129 11.5858 17.4648 12 17.4648V16.7148V15.9648ZM9 19.3025C8.58579 19.3025 8.25 19.6383 8.25 20.0525C8.25 20.4667 8.58579 20.8025 9 20.8025V20.0525V19.3025ZM15 20.8025C15.4142 20.8025 15.75 20.4667 15.75 20.0525C15.75 19.6383 15.4142 19.3025 15 19.3025V20.0525V20.8025ZM5.88906 15.6364L6.5938 15.3798L4.75817 10.3383L4.05343 10.5949L3.34869 10.8515L5.18432 15.893L5.88906 15.6364ZM5.88906 8.62217L5.56046 9.29635L7.15064 10.0714L7.47924 9.39723L7.80784 8.72305L6.21766 7.94799L5.88906 8.62217ZM7.47924 9.39723L7.15064 10.0714C8.37817 10.6697 9.61821 9.86606 9.99237 8.68065L9.27716 8.4549L8.56194 8.22915C8.47878 8.49259 8.3281 8.64668 8.19518 8.71635C8.06982 8.78205 7.93986 8.7874 7.80784 8.72305L7.47924 9.39723ZM4.05343 10.5949L4.78363 10.4237C4.68511 10.0035 4.81583 9.63844 5.00807 9.43183C5.18982 9.2365 5.37955 9.20818 5.56046 9.29635L5.88906 8.62217L6.21766 7.94799C5.34176 7.52107 4.45909 7.81984 3.90994 8.41002C3.37128 8.98891 3.11258 9.86773 3.32324 10.7661L4.05343 10.5949ZM5.88906 15.6364L5.15886 15.8076C5.2452 16.1759 5.37223 16.5985 5.64707 16.925C5.96938 17.3079 6.40672 17.465 6.88842 17.465V16.715V15.965C6.80895 15.965 6.78266 15.953 6.78517 15.9541C6.79291 15.9573 6.79865 15.9638 6.79464 15.959C6.78568 15.9484 6.76005 15.9129 6.72588 15.8271C6.6916 15.741 6.65663 15.6246 6.61925 15.4652L5.88906 15.6364ZM11 4.71519L10.3188 4.40137L8.59597 8.14108L9.27716 8.4549L9.95835 8.76872L11.6812 5.029L11 4.71519ZM6.56749 16.715V17.465H6.88842V16.715V15.965H6.56749V16.715ZM6.88842 16.715V17.465H12.5V16.715V15.965H6.88842V16.715ZM12.5 3.73848L12.617 2.99767C12.6239 2.99876 12.6387 3.00123 12.6582 3.00568C12.6682 3.00797 12.6822 3.01141 12.6988 3.01628C12.7147 3.02095 12.7387 3.02858 12.7672 3.04015C12.7935 3.05081 12.8395 3.07115 12.8922 3.10533C12.9195 3.12303 12.9544 3.14822 12.9916 3.18248C13.0285 3.21648 13.074 3.26535 13.116 3.33141C13.1588 3.39878 13.1992 3.48631 13.2195 3.59237C13.2402 3.70054 13.2364 3.80981 13.211 3.91268C13.1863 4.0129 13.1445 4.09349 13.1036 4.15376C13.0633 4.21324 13.0209 4.25735 12.9869 4.28807C12.9527 4.31912 12.9207 4.34226 12.8957 4.35871C12.8703 4.3754 12.8475 4.3882 12.8291 4.39768C12.7935 4.41613 12.7632 4.42813 12.744 4.43517C12.7065 4.44893 12.6764 4.45641 12.6636 4.45946C12.6482 4.46312 12.6361 4.46543 12.6298 4.46659C12.6229 4.46786 12.6177 4.46868 12.6152 4.46906C12.613 4.4694 12.6067 4.47031 12.6168 4.46887C12.6189 4.46857 12.6278 4.46731 12.6383 4.46555C12.6437 4.46466 12.6539 4.46291 12.6665 4.46034C12.673 4.45901 12.6822 4.45704 12.6932 4.45437C12.7035 4.45189 12.7205 4.44755 12.7412 4.44107C12.7519 4.43774 12.7659 4.43308 12.7822 4.42693C12.798 4.42098 12.8206 4.41184 12.8471 4.39889C12.8718 4.38682 12.9128 4.36516 12.9591 4.3314C12.983 4.31397 13.0131 4.28991 13.0451 4.25829C13.0767 4.22697 13.1157 4.18284 13.1524 4.12453C13.1895 4.06558 13.2271 3.98749 13.249 3.89133C13.2714 3.7927 13.2744 3.68686 13.2536 3.5807C13.2121 3.369 13.0934 3.2341 13.0189 3.16711C12.9796 3.13183 12.9426 3.10606 12.9134 3.08795C12.8839 3.0696 12.8572 3.05588 12.8359 3.04588C12.7944 3.02646 12.7591 3.01455 12.7368 3.00771C12.7131 3.00048 12.693 2.99561 12.6786 2.99244C12.6638 2.98918 12.651 2.98683 12.6411 2.98518C12.6219 2.98195 12.6061 2.98008 12.5962 2.97902C12.5766 2.97694 12.561 2.97604 12.5534 2.97565C12.5376 2.97484 12.5243 2.97465 12.5185 2.97458C12.5112 2.97449 12.5043 2.97448 12.4986 2.97449L12.5 3.72449L12.5014 4.47449C12.5033 4.47448 12.5025 4.47449 12.5002 4.47447C12.4993 4.47446 12.4898 4.47436 12.4766 4.47368C12.4703 4.47336 12.4557 4.47255 12.437 4.47055C12.4275 4.46953 12.412 4.4677 12.3931 4.46453C12.3833 4.4629 12.3707 4.46058 12.356 4.45734C12.3417 4.45419 12.3217 4.44935 12.2981 4.44215C12.2759 4.43534 12.2406 4.42345 12.1992 4.40405C12.1779 4.39407 12.1513 4.38036 12.1218 4.36203C12.0926 4.34393 12.0556 4.31818 12.0164 4.28291C11.9418 4.21594 11.8232 4.08107 11.7817 3.86941C11.7608 3.76326 11.7639 3.65743 11.7863 3.55882C11.8082 3.46268 11.8458 3.38461 11.8828 3.32567C11.9195 3.26738 11.9585 3.22326 11.9901 3.19196C12.0221 3.16035 12.0521 3.1363 12.076 3.11889C12.1224 3.08516 12.1633 3.06354 12.1879 3.0515C12.2143 3.03859 12.2369 3.02947 12.2525 3.02357C12.2687 3.01744 12.2827 3.01282 12.2932 3.00953C12.3137 3.00312 12.3305 2.99885 12.3404 2.99645C12.3511 2.99386 12.36 2.99196 12.3661 2.99072C12.3779 2.9883 12.3871 2.98673 12.3914 2.98601C12.3963 2.9852 12.4 2.98464 12.4017 2.98438C12.4036 2.98409 12.4049 2.98391 12.4051 2.98389C12.4091 2.98331 12.3953 2.98524 12.3856 2.98674C12.3793 2.98771 12.3704 2.98915 12.3599 2.99107C12.3499 2.9929 12.3344 2.99589 12.316 3.00029C12.3001 3.00407 12.2673 3.01232 12.2275 3.02689C12.2072 3.03434 12.176 3.04675 12.1395 3.06562C12.1208 3.07531 12.0975 3.08833 12.0718 3.10523C12.0465 3.1219 12.0142 3.14526 11.9797 3.17652C11.9456 3.20747 11.903 3.2518 11.8624 3.3115C11.8214 3.37199 11.7795 3.45281 11.7547 3.55326C11.7293 3.65636 11.7255 3.76586 11.7462 3.87427C11.7666 3.98056 11.8071 4.06833 11.85 4.13594C11.8922 4.20224 11.938 4.25135 11.9751 4.2856C12.0126 4.3201 12.0478 4.34553 12.0754 4.36348C12.1289 4.39816 12.1759 4.41901 12.2035 4.43017C12.2333 4.44226 12.2588 4.45042 12.2765 4.45562C12.295 4.46103 12.311 4.46501 12.3235 4.46785C12.3477 4.47341 12.3686 4.47702 12.383 4.47929L12.5 3.73848ZM12.5 3.72449L12.4986 2.97449C12.4693 2.97454 12.1226 2.97038 11.9771 2.97484L12 3.72449L12.0229 4.47414C12.0737 4.47258 12.1704 4.47246 12.2737 4.47299C12.3644 4.47346 12.4692 4.47455 12.5014 4.47449L12.5 3.72449ZM12 3.72449L11.8858 2.98323C11.0399 3.11352 10.5844 3.76915 10.3087 4.42426L11 4.71519L11.6913 5.00612C11.7927 4.76521 11.8846 4.62876 11.9572 4.5543C12.0176 4.49243 12.0627 4.47368 12.1142 4.46575L12 3.72449ZM18.6109 15.6362L19.3157 15.8928L21.1513 10.8513L20.4466 10.5947L19.7418 10.3381L17.9062 15.3796L18.6109 15.6362ZM18.6109 8.62196L18.2823 7.94777L16.6922 8.72284L17.0208 9.39702L17.3494 10.0712L18.9395 9.29614L18.6109 8.62196ZM17.0208 9.39702L16.6922 8.72284C16.5601 8.78718 16.4302 8.78184 16.3048 8.71614C16.1719 8.64647 16.0212 8.49237 15.9381 8.22893L15.2228 8.45469L14.5076 8.68044C14.8818 9.86584 16.1218 10.6695 17.3494 10.0712L17.0208 9.39702ZM20.4466 10.5947L21.1768 10.7659C21.3874 9.86751 21.1287 8.9887 20.5901 8.40981C20.0409 7.81963 19.1582 7.52086 18.2823 7.94777L18.6109 8.62196L18.9395 9.29614C19.1204 9.20797 19.3102 9.23629 19.4919 9.43161C19.6842 9.63822 19.8149 10.0033 19.7164 10.4235L20.4466 10.5947ZM18.6109 15.6362L17.8807 15.465C17.8434 15.6244 17.8084 15.7408 17.7741 15.8269C17.74 15.9127 17.7143 15.9482 17.7054 15.9588C17.7013 15.9636 17.7071 15.9571 17.7148 15.9539C17.7173 15.9528 17.6911 15.9648 17.6116 15.9648V16.7148V17.4648C18.0933 17.4648 18.5306 17.3077 18.8529 16.9248C19.1278 16.5982 19.2548 16.1757 19.3411 15.8074L18.6109 15.6362ZM13.5 4.71497L12.8188 5.02879L14.5417 8.7685L15.2228 8.45469L15.904 8.14087L14.1812 4.40116L13.5 4.71497ZM17.9325 16.7148V15.9648H17.6116V16.7148V17.4648H17.9325V16.7148ZM17.6116 16.7148V15.9648H12V16.7148V17.4648H17.6116V16.7148ZM12 3.72449L12.117 4.46531C12.0912 4.46937 12.0729 4.47067 12.0707 4.47084C12.0656 4.47121 12.0639 4.47124 12.0667 4.47112C12.0725 4.47089 12.0842 4.47058 12.1031 4.47038C12.1404 4.47 12.1894 4.47021 12.2428 4.47077C12.2953 4.47133 12.3483 4.47218 12.393 4.47294C12.4331 4.47361 12.476 4.4744 12.497 4.47448L12.5 3.72449L12.503 2.97449C12.5031 2.97449 12.5025 2.97449 12.501 2.97448C12.4996 2.97446 12.4977 2.97444 12.4952 2.97441C12.4902 2.97434 12.4839 2.97425 12.4762 2.97412C12.4604 2.97387 12.4413 2.97354 12.4183 2.97315C12.3731 2.97239 12.3162 2.97147 12.2586 2.97086C12.2018 2.97026 12.1406 2.96992 12.0876 2.97046C12.0614 2.97074 12.0331 2.97126 12.0062 2.97235C11.99 2.973 11.9382 2.97495 11.883 2.98367L12 3.72449ZM12.5 3.72449L12.497 4.47448C12.5297 4.47461 12.5316 4.47967 12.5198 4.47446C12.5084 4.46939 12.512 4.46698 12.5318 4.48826C12.5891 4.54971 12.675 4.68821 12.8087 5.0059L13.5 4.71497L14.1913 4.42404C14.0519 4.09286 13.882 3.7371 13.6296 3.46602C13.3372 3.15204 12.9595 2.97633 12.503 2.97449L12.5 3.72449ZM9 20.0525V20.8025H15V20.0525V19.3025H9V20.0525Z" fill="#4E5964"/>
</svg>
