<svg width="24" height="24" viewBox="0 0 24 24" fill="none" xmlns="http://www.w3.org/2000/svg">
<path d="M9.60772 3.88047C10.9339 2.70655 12.915 2.7065 14.2413 3.88037L19.7331 8.7412C20.447 9.37312 20.878 10.2699 20.9282 11.2278L20.9951 12.5048C21.0525 13.6018 20.605 14.6641 19.7827 15.3824L14.3425 20.1348C13.022 21.2884 11.0641 21.2884 9.74357 20.1348L4.2173 15.3071C3.44435 14.6318 3.00007 13.6502 3.00004 12.6175L3 11.3419C2.99997 10.3172 3.43733 9.3424 4.19993 8.66736L9.60772 3.88047Z" stroke="#4E5964" stroke-width="1.5"/>
<path d="M12 21V18M12 18L6.7891 16.2202M12 18L17.7143 16M20 15L18.8571 15.5L17.7143 16M4 15L6.7891 16.2202M6.7891 16.2202L11.9125 3.71361C11.9457 3.6326 12.0596 3.63032 12.096 3.70995L17.7143 16" stroke="#4E5964" stroke-width="1.5"/>
</svg>
