<svg width="24" height="24" viewBox="0 0 24 24" fill="none" xmlns="http://www.w3.org/2000/svg">
<path d="M12.0002 17.4353L6.84472 14.342M12.0002 17.4353L17.459 14.342M12.0002 17.4353V19.2176V20.1088V20.5544M15.1741 8.15546H8.82628M15.1741 8.15546L16.3165 11.2487L17.459 14.342M15.1741 8.15546L16.5696 6.66326L17.2674 5.91716L17.6162 5.54411M8.82628 8.15546L6.84472 14.342M8.82628 8.15546L7.43075 6.66326L6.73298 5.91716L6.3841 5.54411M6.84472 14.342L5.40417 15.6309L4.68389 16.2753L4.32375 16.5975M17.459 14.342L18.7479 15.6309L19.3923 16.2753L19.7145 16.5975M12.0002 21H13.8981C14.7223 21 15.5201 20.7096 16.1515 20.1798L19.0593 17.7399C19.6906 17.2101 20.1152 16.4748 20.2583 15.6631L20.9174 11.925C21.0606 11.1133 20.9132 10.2773 20.5011 9.56351C19.8353 8.41028 19.107 7.14888 18.6024 6.27489C18.1903 5.56111 17.5406 5.01655 16.7661 4.73466L13.1992 3.43641C12.4247 3.15452 11.5756 3.15451 10.8011 3.43641L7.23424 4.73466C6.45974 5.01655 5.80933 5.56231 5.39723 6.27609L3.49932 9.56337C3.08721 10.2772 2.93978 11.1133 3.0829 11.925L3.74204 15.6631C3.88516 16.4748 4.30968 17.2101 4.94106 17.7399L7.84883 20.1798C8.4802 20.7096 9.27805 21 10.1023 21H12.0002Z" stroke="#4E5964" stroke-width="1.64975"/>
</svg>
