<svg width="24" height="24" viewBox="0 0 24 24" fill="none" xmlns="http://www.w3.org/2000/svg">
<path d="M21 10V5.69231C21 4.20508 16.9706 3 12 3C7.02943 3 3 4.20508 3 5.69231V14.3077" stroke="#4E5964" stroke-width="1.5" stroke-linecap="round" stroke-linejoin="round"/>
<path d="M21 18V6M3 13.8261V18" stroke="#4E5964" stroke-width="1.5" stroke-linecap="round" stroke-linejoin="round"/>
<path d="M21 6C21 7.6572 16.9706 9 12 9C7.02943 9 3 7.6572 3 6" stroke="#4E5964" stroke-width="1.5" stroke-linecap="round" stroke-linejoin="round"/>
<path d="M21 14C21 15.6572 16.9706 17 12 17C7.02943 17 3 15.6572 3 14" stroke="#4E5964" stroke-width="1.5" stroke-linecap="round" stroke-linejoin="round"/>
<path d="M21 10C21 11.6572 16.9706 13 12 13C7.02943 13 3 11.6572 3 10" stroke="#4E5964" stroke-width="1.5" stroke-linecap="round" stroke-linejoin="round"/>
<path d="M21 18C21 19.6572 16.9706 21 12 21C7.02943 21 3 19.6572 3 18" stroke="#4E5964" stroke-width="1.5" stroke-linecap="round" stroke-linejoin="round"/>
<path d="M17.5775 10.2631L17.1017 10.4167" stroke="#4E5964" stroke-width="1.5" stroke-linecap="round" stroke-linejoin="round"/>
<path d="M17.5521 14.2377L17.0763 14.3913" stroke="#4E5964" stroke-width="1.5" stroke-linecap="round" stroke-linejoin="round"/>
<path d="M17.5521 18.2379L17.0763 18.3915" stroke="#4E5964" stroke-width="1.5" stroke-linecap="round" stroke-linejoin="round"/>
</svg>
