<svg width="24" height="24" viewBox="0 0 24 24" fill="none" xmlns="http://www.w3.org/2000/svg">
<path d="M15.002 6.44957C15.002 5.09954 16.0964 4.00513 17.4464 4.00513H18.002C19.6588 4.00513 21.002 5.34827 21.002 7.00513V9.50513V12.0051C21.002 13.662 19.6588 15.0051 18.002 15.0051H17.4464C16.0964 15.0051 15.002 13.9107 15.002 12.5607V12.5607V6.44957V6.44957Z" stroke="#4E5964" stroke-width="1.5"/>
<path d="M3.00195 11.0741V7.00513C3.00195 4.79599 4.79281 3.00513 7.00195 3.00513H10.6042C12.0988 3.00513 13.4912 3.76426 14.3008 5.02061C14.7585 5.73086 15.002 6.55793 15.002 7.40289V13.51C15.002 14.3519 14.7658 15.1769 14.3203 15.8913L13.002 18.0051L11.551 20.1815C11.208 20.6961 10.6305 21.0051 10.0121 21.0051C8.93 21.0051 8.07902 20.0803 8.16889 19.0019L8.37739 16.4999C8.44444 15.6953 7.80942 15.0051 7.00195 15.0051H6.60195C4.61373 15.0051 3.00195 13.3934 3.00195 11.4051V11.0741Z" stroke="#4E5964" stroke-width="1.5"/>
</svg>
