<svg width="24" height="24" viewBox="0 0 24 24" fill="none" xmlns="http://www.w3.org/2000/svg">
<path d="M22 8.77614V16.5C22 19.5376 19.5376 22 16.5 22H11.5C8.46243 22 6 19.5376 6 16.5V10.5C6 7.46243 8.46243 5 11.5 5H18" stroke="#4E5964" stroke-width="1.5" stroke-linecap="round"/>
<path d="M18.4476 5.07733L21.9227 8.55236C22.0879 8.71755 21.9709 9 21.7373 9H18.2622C18.1174 9 18 8.8826 18 8.73778V5.26274C18 5.02913 18.2824 4.91214 18.4476 5.07733Z" stroke="#4E5964" stroke-width="1.5"/>
<line x1="12.75" y1="17.25" x2="16.25" y2="17.25" stroke="#4E5964" stroke-width="1.5" stroke-linecap="round"/>
<line x1="11.75" y1="14.25" x2="17.25" y2="14.25" stroke="#4E5964" stroke-width="1.5" stroke-linecap="round"/>
<path d="M6.84615 19V19C4.1697 19 2 16.8303 2 14.1538V7.5C2 4.46243 4.46243 2 7.5 2H13.2609L14.8261 3.83107L15.6087 4.74661" stroke="#4E5964" stroke-width="1.5" stroke-linecap="round"/>
</svg>
