<svg width="24" height="24" viewBox="0 0 24 24" fill="none" xmlns="http://www.w3.org/2000/svg">
<path d="M12 7V17M15 9.5C14.778 8.63739 13.9949 8 13.063 8H12H11C9.89543 8 9 8.89543 9 10C9 11.1046 9.89543 12 11 12H12L13 12C14.1046 12 15 12.8954 15 14C15 15.1046 14.1046 16 13 16H12H10.937C10.0051 16 9.22202 15.3626 9 14.5" stroke="#4E5964" stroke-width="1.5" stroke-linecap="round" stroke-linejoin="round"/>
<path d="M18 4L20 6L22 4" stroke="#4E5964" stroke-width="1.5" stroke-linecap="round" stroke-linejoin="round"/>
<path d="M20 2V6" stroke="#4E5964" stroke-width="1.5" stroke-linecap="round" stroke-linejoin="round"/>
<path d="M21.4562 8.7473C22.1906 10.8824 22.1809 13.2033 21.4285 15.3322C20.6761 17.4611 19.2254 19.2727 17.3125 20.4722C15.3995 21.6717 13.1369 22.1885 10.8929 21.9385C8.64881 21.6885 6.55541 20.6865 4.95333 19.0954C3.35124 17.5043 2.33478 15.4179 2.06934 13.1756C1.8039 10.9333 2.30512 8.66721 3.49142 6.74603C4.67773 4.82486 6.4793 3.36171 8.60295 2.59468C10.7266 1.82765 13.0473 1.8019 15.1875 2.5216" stroke="#4E5964" stroke-width="1.5" stroke-linecap="round"/>
</svg>
