<svg width="24" height="24" viewBox="0 0 24 24" fill="none" xmlns="http://www.w3.org/2000/svg">
<path d="M17 5L19 3L21 5" stroke="#4E5964" stroke-width="1.5" stroke-linecap="round" stroke-linejoin="round"/>
<path d="M19 7V3" stroke="#4E5964" stroke-width="1.5" stroke-linecap="round" stroke-linejoin="round"/>
<path d="M20.5106 9.07257C21.1716 10.9942 21.1628 13.083 20.4856 14.999C19.8085 16.915 18.5029 18.5454 16.7812 19.625C15.0595 20.7045 13.0232 21.1697 11.0036 20.9447C8.98393 20.7197 7.09987 19.8178 5.658 18.3858C4.21612 16.9539 3.3013 15.0761 3.06241 13.058C2.82351 11.04 3.27461 9.00049 4.34228 7.27143C5.40996 5.54238 7.03137 4.22554 8.94265 3.53521C10.8539 2.84489 12.9426 2.82171 14.8687 3.46944" stroke="#4E5964" stroke-width="1.35" stroke-linecap="round"/>
<path d="M15 9.99997V9.49997C15 8.3954 14.1046 7.49997 13 7.49997H11C9.89543 7.49997 9 8.3954 9 9.49997V9.80572C9 10.7834 9.70683 11.6178 10.6712 11.7785L13.3288 12.2214C14.2932 12.3822 15 13.2165 15 14.1942V14.5C15 15.6045 14.1046 16.5 13 16.5H11C9.89543 16.5 9 15.6045 9 14.5V14M12 6L12 18" stroke="#4E5964" stroke-width="1.5" stroke-linecap="round" stroke-linejoin="round"/>
</svg>
