<svg width="24" height="24" viewBox="0 0 24 24" fill="none" xmlns="http://www.w3.org/2000/svg">
<path d="M8.75 3.87639C10.7611 2.71528 13.2389 2.71528 15.25 3.87639L17.4103 5.12361C19.4214 6.28473 20.6603 8.43055 20.6603 10.7528V13.2472C20.6603 15.5694 19.4214 17.7153 17.4103 18.8764L15.25 20.1236C13.2389 21.2847 10.7611 21.2847 8.75 20.1236L6.58975 18.8764C4.57864 17.7153 3.33975 15.5694 3.33975 13.2472V10.7528C3.33975 8.43055 4.57864 6.28472 6.58975 5.12361L8.75 3.87639Z" stroke="#4E5964" stroke-width="1.5"/>
<path d="M12 7V17M15 9.5C14.778 8.63739 13.9949 8 13.063 8H12H11C9.89543 8 9 8.89543 9 10C9 11.1046 9.89543 12 11 12H12L13 12C14.1046 12 15 12.8954 15 14C15 15.1046 14.1046 16 13 16H12H10.937C10.0051 16 9.22202 15.3626 9 14.5" stroke="#4E5964" stroke-width="1.5" stroke-linecap="round" stroke-linejoin="round"/>
</svg>
