<svg width="24" height="24" viewBox="0 0 24 24" fill="none" xmlns="http://www.w3.org/2000/svg">
<path d="M12 7V17M15 9.5C14.778 8.63739 13.9949 8 13.063 8H12H11C9.89543 8 9 8.89543 9 10C9 11.1046 9.89543 12 11 12H12L13 12C14.1046 12 15 12.8954 15 14C15 15.1046 14.1046 16 13 16H12H10.937C10.0051 16 9.22202 15.3626 9 14.5" stroke="#4E5964" stroke-width="1.5" stroke-linecap="round" stroke-linejoin="round"/>
<path d="M17 5L19 3L21 5" stroke="#4E5964" stroke-width="1.5" stroke-linecap="round" stroke-linejoin="round"/>
<path d="M19 7V3" stroke="#4E5964" stroke-width="1.5" stroke-linecap="round" stroke-linejoin="round"/>
<path d="M20.5106 9.07257C21.1716 10.9942 21.1628 13.083 20.4856 14.999C19.8085 16.915 18.5029 18.5454 16.7812 19.625C15.0595 20.7045 13.0232 21.1697 11.0036 20.9447C8.98393 20.7197 7.09987 19.8178 5.658 18.3858C4.21612 16.9539 3.3013 15.0761 3.06241 13.058C2.82351 11.04 3.27461 9.00049 4.34228 7.27143C5.40996 5.54238 7.03137 4.22554 8.94265 3.53521C10.8539 2.84489 12.9426 2.82171 14.8687 3.46944" stroke="#4E5964" stroke-width="1.35" stroke-linecap="round"/>
</svg>
