<svg width="24" height="24" viewBox="0 0 24 24" fill="none" xmlns="http://www.w3.org/2000/svg">
<path d="M12 21C16.9706 21 21 16.9706 21 12C21 7.02944 16.9706 3 12 3C7.02944 3 3 7.02944 3 12C3 16.9706 7.02944 21 12 21Z" stroke="#4E5964" stroke-width="1.35" stroke-miterlimit="10" stroke-linecap="round" stroke-linejoin="round"/>
<path d="M15 9.99997V9.49997C15 8.3954 14.1046 7.49997 13 7.49997H11C9.89543 7.49997 9 8.3954 9 9.49997V9.80572C9 10.7834 9.70683 11.6178 10.6712 11.7785L13.3288 12.2214C14.2932 12.3822 15 13.2165 15 14.1942V14.5C15 15.6045 14.1046 16.5 13 16.5H11C9.89543 16.5 9 15.6045 9 14.5V14M12 6L12 18" stroke="#4E5964" stroke-width="1.5" stroke-linecap="round" stroke-linejoin="round"/>
</svg>
