<svg width="24" height="24" viewBox="0 0 24 24" fill="none" xmlns="http://www.w3.org/2000/svg">
<path d="M12 7V17M15 9.5C14.778 8.63739 13.9949 8 13.063 8H12H11C9.89543 8 9 8.89543 9 10C9 11.1046 9.89543 12 11 12H12L13 12C14.1046 12 15 12.8954 15 14C15 15.1046 14.1046 16 13 16H12H10.937C10.0051 16 9.22202 15.3626 9 14.5" stroke="#4E5964" stroke-width="1.5" stroke-linecap="round" stroke-linejoin="round"/>
<path d="M17 5L19 3L21 5" stroke="#4E5964" stroke-width="1.5" stroke-linecap="round" stroke-linejoin="round"/>
<path d="M19 7V3" stroke="#4E5964" stroke-width="1.5" stroke-linecap="round" stroke-linejoin="round"/>
<path fill-rule="evenodd" clip-rule="evenodd" d="M14.2226 4.15119C12.8393 3.35149 11.1377 3.33696 9.74098 4.11292L6.70755 5.79816C4.88213 6.81228 3.75 8.73635 3.75 10.8246V13.1753C3.75 15.2635 4.88213 17.1876 6.70755 18.2017L9.20755 19.5906C10.9442 20.5554 13.0558 20.5554 14.7924 19.5906L17.2924 18.2017C19.1179 17.1876 20.25 15.2635 20.25 13.1753V11.9999V9.50189C20.25 9.08768 20.5858 8.75189 21 8.75189C21.4142 8.75189 21.75 9.08768 21.75 9.50189V11.9999V13.1753C21.75 15.8083 20.3225 18.2343 18.0209 19.513L15.5209 20.9018C13.3312 22.1183 10.6688 22.1183 8.47909 20.9018L5.97909 19.513C3.67747 18.2343 2.25 15.8083 2.25 13.1753V10.8246C2.25 8.1916 3.67747 5.7656 5.97909 4.48692L9.01252 2.80168C10.8703 1.7696 13.1335 1.78893 14.9734 2.85259C15.3319 3.05991 15.4546 3.51867 15.2473 3.87727C15.04 4.23587 14.5812 4.35851 14.2226 4.15119Z" fill="#4E5964"/>
</svg>
