<svg width="24" height="24" viewBox="0 0 24 24" fill="none" xmlns="http://www.w3.org/2000/svg">
<rect x="9" y="4.5" width="6" height="8" rx="1.93742" stroke="#4E5964" stroke-width="1.5"/>
<path d="M5.34961 7.01025C6.72473 7.01025 7.62488 7.01026 9 7.01026" stroke="#4E5964" stroke-width="1.5" stroke-linecap="round"/>
<path d="M15.5 7.01025L19 7.01025" stroke="#4E5964" stroke-width="1.5" stroke-linecap="round"/>
<path d="M19 6.24255C19 6.2348 19.0063 6.22852 19.014 6.22852H20.986C20.9937 6.22852 21 6.2348 21 6.24255V8.35848C21 8.91077 20.5523 9.35848 20 9.35848C19.4477 9.35848 19 8.91077 19 8.35848V6.24255Z" stroke="#4E5964" stroke-width="1.5"/>
<path d="M3 6.24255C3 6.2348 3.00628 6.22852 3.01404 6.22852H4.98596C4.99372 6.22852 5 6.2348 5 6.24255V8.35848C5 8.91077 4.55228 9.35848 4 9.35848C3.44772 9.35848 3 8.91077 3 8.35848V6.24255Z" stroke="#4E5964" stroke-width="1.5"/>
<path d="M20 6V3" stroke="#4E5964" stroke-width="1.5" stroke-linecap="round"/>
<path d="M4 6V3" stroke="#4E5964" stroke-width="1.5" stroke-linecap="round"/>
<path d="M22 3.88086L18 3.88086" stroke="#4E5964" stroke-width="1.5" stroke-linecap="round"/>
<path d="M6 3.88086L2 3.88086" stroke="#4E5964" stroke-width="1.5" stroke-linecap="round"/>
<path d="M11 7.5H13" stroke="#4E5964" stroke-width="1.5" stroke-linecap="round"/>
<path d="M14.8403 16.8567L12.5761 20.4012C12.2815 20.8624 11.7185 20.8624 11.4239 20.4012L9.15975 16.8567C8.90195 16.4531 8.96282 15.8645 9.29434 15.5552L9.96438 14.9301C10.0917 14.8113 10.2466 14.7471 10.4058 14.7471H13.5942C13.7534 14.7471 13.9083 14.8113 14.0356 14.9301L14.7057 15.5552C15.0372 15.8645 15.0981 16.4531 14.8403 16.8567Z" stroke="#4E5964" stroke-width="1.3"/>
<path d="M18 16.5002C18 14.6437 17.3679 12.8632 16.2426 11.5505C15.8686 11.1141 15.4503 10.7413 15 10.438M6 16.5002C6 14.6437 6.63214 12.8632 7.75736 11.5505C8.06583 11.1906 8.40443 10.8739 8.76624 10.6039M8.76624 10.6039C8.93336 10.4791 9.10543 10.3643 9.28177 10.2598L8.76624 10.6039Z" stroke="#4E5964" stroke-width="1.5" stroke-linecap="round"/>
</svg>
