<svg width="24" height="24" viewBox="0 0 24 24" fill="none" xmlns="http://www.w3.org/2000/svg">
<circle cx="12" cy="5" r="3" stroke="#4E5964" stroke-width="1.5"/>
<path fill-rule="evenodd" clip-rule="evenodd" d="M17.1953 12.2229L19.2229 10.1953C19.348 10.0702 19.5175 10 19.6943 10C19.8712 10 20.0407 10.0702 20.1657 10.1953L20.8047 10.8343C21.0651 11.0946 21.0651 11.5167 20.8047 11.7771L18.7771 13.8047C18.652 13.9298 18.4825 14 18.3056 14H17.3333C17.1492 14 17 13.8508 17 13.6667V12.6943C17 12.5175 17.0702 12.348 17.1953 12.2229Z" stroke="#4E5964" stroke-width="1.5" stroke-linecap="round" stroke-linejoin="round"/>
<path d="M14.5 11H8C5.79086 11 4 12.6281 4 14.6364V16C4 18.7614 6.46243 21 9.5 21H15.2799C17.8867 21 20 19.0789 20 16.709V16.5" stroke="#4E5964" stroke-width="1.5" stroke-linecap="round"/>
</svg>
