<svg width="24" height="24" viewBox="0 0 24 24" fill="none" xmlns="http://www.w3.org/2000/svg">
<path d="M22 8.5V12V15.5C22 17.9853 19.9853 20 17.5 20H6.5C4.01472 20 2 17.9853 2 15.5V8.5C2 6.01472 4.01472 4 6.5 4H12H15.5" stroke="#4E5964" stroke-width="1.5" stroke-linecap="round"/>
<path d="M17.4202 7.902L16.5603 8.86934L13.1209 12.7387C12.5242 13.41 11.4753 13.41 10.8786 12.7387L7.4392 8.86934L5.71948 6.93466L4.85962 5.96731L4.42969 5.48364" stroke="#4E5964" stroke-width="1.5" stroke-linecap="round"/>
<path d="M8.94569 11.4575L5.55507 16.0405" stroke="#4E5964" stroke-width="1.5" stroke-linecap="round"/>
<path d="M20 3L19 3" stroke="#4E5964" stroke-width="1.5" stroke-linecap="round"/>
<path d="M22 5L19 5" stroke="#4E5964" stroke-width="1.5" stroke-linecap="round"/>
<path d="M18.3344 16.0405L14.9437 11.4575" stroke="#4E5964" stroke-width="1.5" stroke-linecap="round"/>
</svg>
