<svg width="24" height="24" viewBox="0 0 24 24" fill="none" xmlns="http://www.w3.org/2000/svg">
<path d="M22 9.71429V12V14.5C22 17.5376 19.5376 20 16.5 20H7.5C4.46243 20 2 17.5376 2 14.5V9.5C2 6.46243 4.46243 4 7.5 4H12.8333H15.3333" stroke="#4E5964" stroke-width="1.5" stroke-linecap="round"/>
<path d="M16.381 9.69231L15.8522 9.16041L16.381 9.69231ZM17.5288 9.60882C17.8225 9.3168 17.8239 8.84193 17.5319 8.54817C17.2399 8.25441 16.765 8.253 16.4712 8.54502L17.5288 9.60882ZM13.6339 13.4807L16.9097 10.2242L15.8522 9.16041L12.5764 12.4168L13.6339 13.4807ZM7.18553 10.2242L10.4614 13.4807L11.5189 12.4168L8.24304 9.16041L7.18553 10.2242ZM5.01886 8.07036L7.18553 10.2242L8.24304 9.16041L6.07637 7.00656L5.01886 8.07036ZM3.47125 6.5319L5.01886 8.07036L6.07637 7.00656L4.52875 5.4681L3.47125 6.5319ZM16.9097 10.2242L17.5288 9.60882L16.4712 8.54502L15.8522 9.16041L16.9097 10.2242ZM12.5764 12.4168C12.2838 12.7076 11.8114 12.7076 11.5189 12.4168L10.4614 13.4807C11.3389 14.353 12.7563 14.353 13.6339 13.4807L12.5764 12.4168Z" fill="#4E5964"/>
<path d="M20 4L19 4" stroke="#4E5964" stroke-width="1.5" stroke-linecap="round"/>
<path d="M22 6L19 6" stroke="#4E5964" stroke-width="1.5" stroke-linecap="round"/>
<path d="M8.94569 11.4575L5.55507 16.0405" stroke="#4E5964" stroke-width="1.5" stroke-linecap="round"/>
<path d="M18.5484 15.5964C18.7947 15.9294 18.7244 16.399 18.3914 16.6453C18.0584 16.8917 17.5888 16.8214 17.3424 16.4884L18.5484 15.5964ZM17.3424 16.4884L13.9522 11.9051L15.1581 11.0131L18.5484 15.5964L17.3424 16.4884Z" fill="#4E5964"/>
</svg>
