<svg width="24" height="24" viewBox="0 0 24 24" fill="none" xmlns="http://www.w3.org/2000/svg">
<rect x="3.00195" y="2.72437" width="18" height="18" rx="9" stroke="#4E5964" stroke-width="1.5"/>
<path d="M15.4127 9.80103C15.5697 9.95807 15.5697 10.2141 15.4127 10.3711C15.2557 10.5282 14.9997 10.5282 14.8426 10.3711C14.6856 10.2141 14.6856 9.95807 14.8426 9.80103C14.9997 9.64291 15.2546 9.64291 15.4127 9.80103" stroke="#4E5964" stroke-width="1.5" stroke-linecap="round" stroke-linejoin="round"/>
<path d="M8.82481 9.80103C8.98185 9.95807 8.98185 10.2141 8.82481 10.3711C8.66777 10.5282 8.41177 10.5282 8.25473 10.3711C8.09768 10.2141 8.09768 9.95807 8.25473 9.80103C8.41177 9.64291 8.66669 9.64291 8.82481 9.80103" stroke="#4E5964" stroke-width="1.5" stroke-linecap="round" stroke-linejoin="round"/>
<path fill-rule="evenodd" clip-rule="evenodd" d="M8.31836 14.291C8.31836 14.291 9.70056 16.7244 12.0028 16.7244C14.3061 16.7244 15.6873 14.291 15.6873 14.291" stroke="#4E5964" stroke-width="1.5" stroke-linecap="round" stroke-linejoin="round"/>
<path d="M14.5898 6.72437C14.5898 6.72437 14.7664 6.72437 15.0604 6.72437C15.3546 6.72437 16.0016 6.72437 16.0016 6.72437" stroke="#4E5964" stroke-width="1.41176" stroke-linecap="round" stroke-linejoin="round"/>
<path d="M8.00195 6.72437C8.00195 6.72437 8.17849 6.72437 8.47254 6.72437C8.76673 6.72437 9.41372 6.72437 9.41372 6.72437" stroke="#4E5964" stroke-width="1.41176" stroke-linecap="round" stroke-linejoin="round"/>
</svg>
