<svg width="24" height="24" viewBox="0 0 24 24" fill="none" xmlns="http://www.w3.org/2000/svg">
<path d="M20.4722 8.96331C21.2244 11.0617 21.171 13.3646 20.3225 15.4259C19.4739 17.4872 17.8906 19.1603 15.8792 20.1211C13.8677 21.0819 11.5713 21.2621 9.43461 20.6267M3.15791 10.3215C3.57365 8.13148 4.78733 6.17366 6.5639 4.82724C8.34047 3.48082 10.5535 2.8416 12.7744 3.0334C14.9952 3.22519 17.0659 4.23435 18.5853 5.86542M3.78544 15.6771C2.87469 13.6425 2.75141 11.3423 3.43947 9.22203C4.12753 7.10174 5.57796 5.31223 7.50986 4.20011C9.44176 3.08798 11.7176 2.73237 13.8967 3.20215M20.9447 12.9959C20.6981 15.2114 19.638 17.2565 17.9698 18.7351C16.3017 20.2137 14.1442 21.0206 11.9151 20.9996C9.68608 20.9786 7.54415 20.1311 5.90419 18.6213" stroke="#4E5964" stroke-width="1.5" stroke-linecap="round"/>
<path d="M3.00059 19.9763L20.8422 4.92052" stroke="#4E5964" stroke-width="1.5" stroke-linecap="round"/>
</svg>
