<svg width="24" height="24" viewBox="0 0 24 24" fill="none" xmlns="http://www.w3.org/2000/svg">
<path d="M18.6347 13.2656C17.8947 15.6516 15.0189 18.7041 13.2907 20.3815C12.5485 21.1019 11.385 21.0768 10.6742 20.3254C9.08795 18.6485 6.48442 15.662 5.59114 13.2656C4.9112 11.4415 4.96114 8.43063 5.05254 6.7859C5.09253 6.06637 5.54688 5.44653 6.20716 5.15784L11.1851 2.98129C11.7039 2.75447 12.2945 2.75815 12.8104 2.99143L17.6593 5.18396C18.2686 5.45949 18.7005 6.02024 18.7794 6.68432C18.971 8.29596 19.2208 11.3755 18.6347 13.2656Z" stroke="#4E5964" stroke-width="1.5"/>
<path d="M14.462 10.0601L12.4356 8.03373C12.1953 7.79342 11.8057 7.79342 11.5654 8.03373L9.53906 10.0601" stroke="#4E5964" stroke-width="1.5" stroke-linecap="round" stroke-linejoin="round"/>
<path d="M12 15.5991L12 8.21477" stroke="#4E5964" stroke-width="1.5" stroke-linecap="round" stroke-linejoin="round"/>
</svg>
