<svg width="24" height="24" viewBox="0 0 24 24" fill="none" xmlns="http://www.w3.org/2000/svg">
<path d="M14.462 10.0601L12.4356 8.03375C12.1953 7.79344 11.8057 7.79344 11.5654 8.03375L9.53906 10.0601M12 15.5991L12 8.21478" stroke="#4E5964" stroke-width="1.5" stroke-linecap="round" stroke-linejoin="round"/>
<path d="M18.5693 14.389C17.63 17.22 13.9583 19.7667 12.5522 20.6579C12.2124 20.8733 11.788 20.8733 11.4481 20.6579C10.0418 19.7668 6.36948 17.2203 5.43019 14.3892C4.74912 12.3364 5.06813 8.29874 5.11811 6.97649C5.1335 6.56934 5.38177 6.21043 5.75742 6.02788L11.5031 3.23616C11.8169 3.08366 12.1834 3.08366 12.4973 3.23614L18.2431 6.02768C18.6187 6.21022 18.867 6.56913 18.8824 6.97628C18.9324 8.29853 19.2504 12.3362 18.5693 14.389Z" stroke="#4E5964" stroke-width="1.5" stroke-linecap="round"/>
</svg>
