<svg width="24" height="24" viewBox="0 0 24 24" fill="none" xmlns="http://www.w3.org/2000/svg">
<path d="M18.6347 13.2657C17.8954 15.6494 15.0461 18.6983 13.3311 20.3768C12.5921 21.1 11.429 21.0796 10.7152 20.3317C9.11578 18.656 6.48553 15.6651 5.59114 13.2657C4.9112 11.4416 4.96114 8.43068 5.05254 6.78595C5.09253 6.06642 5.54688 5.44658 6.20716 5.15788L11.1851 2.98134C11.7039 2.75452 12.2945 2.7582 12.8104 2.99147L17.6593 5.184C18.2686 5.45954 18.7005 6.02028 18.7794 6.68437C18.971 8.29601 19.2208 11.3756 18.6347 13.2657Z" stroke="#4E5964" stroke-width="1.5"/>
<path d="M14.462 10.0601L12.4356 8.03373C12.1953 7.79342 11.8057 7.79342 11.5654 8.03373L9.53906 10.0601" stroke="#4E5964" stroke-width="1.5" stroke-linecap="round" stroke-linejoin="round"/>
<path d="M12 15.5991L12 8.21477" stroke="#4E5964" stroke-width="1.5" stroke-linecap="round" stroke-linejoin="round"/>
</svg>
