<svg width="24" height="24" viewBox="0 0 24 24" fill="none" xmlns="http://www.w3.org/2000/svg">
<circle cx="11.8971" cy="13.0758" r="4.70565" stroke="#4E5964" stroke-width="1.5" stroke-linecap="round" stroke-linejoin="round"/>
<path d="M10.5576 13.6997C10.6264 13.7184 10.6958 13.7352 10.7656 13.7515C10.7187 14.0528 10.6943 14.3617 10.6943 14.6763C10.6943 15.4456 10.8414 16.1807 11.1064 16.856C10.3417 18.2216 8.88247 19.145 7.20605 19.145C6.55815 19.145 5.94361 19.0046 5.3877 18.7563C5.68943 18.8041 5.98615 18.8306 6.26953 18.8306C8.57721 18.8304 10.6787 17.092 10.6787 14.6763C10.6787 14.3362 10.6357 14.01 10.5576 13.6997ZM15.9424 10.2661C15.7272 10.6185 15.4643 10.938 15.1631 11.2173C14.9201 11.3684 14.6932 11.5424 14.4854 11.7358C13.9942 12.0418 13.4398 12.2549 12.8457 12.3511C13.5112 11.2607 14.6316 10.4789 15.9424 10.2661ZM8.37012 10.3608C9.45104 10.6517 10.3685 11.3385 10.9609 12.2554C9.88011 11.9641 8.96219 11.278 8.37012 10.3608ZM6.61914 10.2476C6.66194 10.3496 6.70764 10.4502 6.75586 10.5493C6.59521 10.5323 6.43292 10.523 6.26953 10.5229C5.98618 10.523 5.68941 10.5485 5.3877 10.5962C5.77279 10.4242 6.18579 10.3045 6.61914 10.2476ZM17.6055 10.3091C17.9104 10.3746 18.203 10.4719 18.4814 10.5962C18.18 10.5486 17.8837 10.523 17.6006 10.5229C17.5696 10.5229 17.5387 10.5243 17.5078 10.5249C17.542 10.4538 17.574 10.3817 17.6055 10.3091ZM8.0459 6.12256C7.9982 6.42426 7.97267 6.72105 7.97266 7.00439C7.9727 7.63674 8.10358 8.25349 8.34277 8.81592C8.14147 8.77711 7.93647 8.74997 7.72852 8.73193C7.68264 8.47513 7.65723 8.21092 7.65723 7.94092C7.65723 7.2931 7.79768 6.67841 8.0459 6.12256ZM16.2061 6.12256C16.4544 6.67846 16.5957 7.29298 16.5957 7.94092C16.5957 8.20343 16.5708 8.46036 16.5273 8.71045C16.3271 8.71494 16.1295 8.72967 15.9346 8.75342C16.1573 8.2078 16.2802 7.61359 16.2803 7.00439C16.2803 6.72101 16.2538 6.4243 16.2061 6.12256ZM13.1748 14.6763C13.1748 14.3877 13.1529 14.1042 13.1133 13.8267C13.1715 13.817 13.2295 13.8068 13.2871 13.7954C13.2239 14.0768 13.1904 14.3712 13.1904 14.6763C13.1904 17.0921 15.2928 18.8306 17.6006 18.8306C17.8825 18.8306 18.1774 18.8046 18.4775 18.7573C17.9228 19.0044 17.3102 19.145 16.6641 19.145C14.9874 19.145 13.5263 18.2219 12.7617 16.856C13.0269 16.1805 13.1748 15.4458 13.1748 14.6763Z" stroke="#4E5964" stroke-width="1.5" stroke-linecap="round" stroke-linejoin="round"/>
<path d="M12.3369 12.9175H11.6094L11.9727 12.2856L12.3369 12.9175Z" fill="white" stroke="white" stroke-width="1.5"/>
</svg>
