<svg width="24" height="24" viewBox="0 0 24 24" fill="none" xmlns="http://www.w3.org/2000/svg">
<path d="M16.6743 6.14279C15.2669 5.3797 13.6628 4.9719 12 5.00151C8.41437 4.93765 5.10138 6.90783 3.446 10.0884C3.15344 10.6833 3.00088 11.3371 3 12C3.00088 12.6629 3.15344 13.3167 3.446 13.9116C4.05053 15.0731 4.87614 16.0732 5.85536 16.8718M18.6949 7.61375C19.4348 8.31956 20.0663 9.15147 20.554 10.0884C21.1487 11.2934 21.1487 12.7066 20.554 13.9116C18.8986 17.0922 15.5856 19.0623 12 18.9985C10.6125 19.0232 9.26583 18.7433 8.04024 18.2066M8.04024 18.2066C7.99396 18.1864 7.94785 18.1657 7.90192 18.1447L8.04024 18.2066Z" stroke="#4E5964" stroke-width="1.5" stroke-linecap="round" stroke-linejoin="round"/>
<path d="M9 12C9 10.3431 10.3431 9 12 9M14.9181 11.3009C14.9717 11.5252 15 11.7593 15 12C15 13.6569 13.6569 15 12 15C11.6868 15 11.3848 14.952 11.101 14.863" stroke="#4E5964" stroke-width="1.5" stroke-linecap="round"/>
<path d="M13.3537 9.3228C12.8078 9.04675 12.1905 8.9442 11.5847 9.02889C10.9788 9.11359 10.4133 9.38148 9.96401 9.79666C9.51471 10.2118 9.20307 10.7544 9.07088 11.3517C8.93869 11.9491 8.99226 12.5725 9.22442 13.1385" stroke="#4E5964" stroke-width="1.5"/>
<path d="M19.9731 3L2.88086 19.9663" stroke="#4E5964" stroke-width="1.5" stroke-linecap="round" stroke-linejoin="round"/>
</svg>
