<svg width="24" height="24" viewBox="0 0 24 24" fill="none" xmlns="http://www.w3.org/2000/svg">
<path fill-rule="evenodd" clip-rule="evenodd" d="M17.3839 4.55541C15.7543 3.68422 13.911 3.21898 12 3.25161C7.72543 3.17863 3.78975 5.59652 1.82635 9.47671L1.81893 9.49179C1.44543 10.2729 1.25112 11.1304 1.25 11.999V12.001C1.25112 12.8696 1.44543 13.7271 1.81893 14.5082L1.82635 14.5233C2.4447 15.7453 3.25867 16.8223 4.21724 17.7221L5.27839 16.661C4.4333 15.8753 3.7146 14.9304 3.16864 13.8537C2.89444 13.2774 2.75097 12.6434 2.75 12C2.75097 11.3566 2.89444 10.7226 3.16864 10.1463C4.88304 6.76525 8.30084 4.68409 11.9862 4.7516C11.9954 4.75177 12.0046 4.75177 12.0137 4.7516C13.5074 4.72424 14.9572 5.04985 16.2674 5.67192L17.3839 4.55541ZM6.45985 17.6008C8.07117 18.6908 9.98943 19.285 11.9862 19.2484C11.9954 19.2482 12.0046 19.2482 12.0137 19.2484C15.6993 19.3159 19.1172 17.2346 20.8315 13.8533C21.3895 12.685 21.3895 11.315 20.8315 10.1467C20.0599 8.62482 18.9432 7.36625 17.6122 6.44844L18.6881 5.37252C20.1268 6.41755 21.3316 7.81266 22.1736 9.47671L22.1806 9.49088C22.9398 11.0732 22.9398 12.9268 22.1806 14.5091L22.1736 14.5233C20.2102 18.4035 16.2745 20.8214 12 20.7484C9.58849 20.7896 7.28486 20.038 5.38235 18.6783L6.45985 17.6008Z" fill="#4E5964"/>
<path d="M19 2L2 19" stroke="#4E5964" stroke-width="1.5" stroke-linecap="round" stroke-linejoin="round"/>
<path fill-rule="evenodd" clip-rule="evenodd" d="M13.4137 8.52562C12.9774 8.34791 12.5002 8.25 12 8.25C9.92893 8.25 8.25 9.92893 8.25 12C8.25 12.5002 8.34791 12.9774 8.52562 13.4137L9.75726 12.1821C9.75245 12.122 9.75 12.0613 9.75 12C9.75 10.7574 10.7574 9.75 12 9.75C12.0613 9.75 12.122 9.75245 12.1821 9.75726L13.4137 8.52562ZM10.4396 13.621C10.8442 14.0105 11.3941 14.25 12 14.25C13.2426 14.25 14.25 13.2426 14.25 12C14.25 11.3941 14.0105 10.8442 13.621 10.4396L14.6818 9.37885C15.3427 10.0549 15.75 10.9799 15.75 12C15.75 14.0711 14.0711 15.75 12 15.75C10.9799 15.75 10.0549 15.3427 9.37885 14.6818L10.4396 13.621Z" fill="#4E5964"/>
</svg>
