<svg width="24" height="24" viewBox="0 0 24 24" fill="none" xmlns="http://www.w3.org/2000/svg">
<path d="M12 19.9983C15.984 20.0713 19.6651 17.8196 21.5044 14.1847C22.1652 12.8075 22.1652 11.1925 21.5044 9.81533C21.3626 9.53519 21.21 9.26327 21.047 9M12 19.9983C11.7868 20.0022 11.5745 19.9994 11.3633 19.9902M12 19.9983L11.3633 19.9902M21.047 9C20.8312 8.65115 20.5973 8.31748 20.3471 8M21.047 9L20.3471 8M20.3471 8C20.166 7.77017 19.9763 7.54882 19.7787 7.33634M19.7787 7.33634C19.5312 7.07016 19.2712 6.81789 19 6.58028M19.7787 7.33634L19 6.58028M19 6.58028L18.7953 6.40985M16 4.73667C14.7474 4.23459 13.3922 3.97622 12 4.00172C8.01597 3.92875 4.33486 6.18038 2.49555 9.81533C2.17048 10.4951 2.00097 11.2424 2 12C2.00097 12.7576 2.17048 13.5049 2.49555 14.1847C2.94057 15.0641 3.4934 15.8626 4.13225 16.5668M11.3633 19.9902C11.0733 19.9775 10.7853 19.9525 10.5 19.9155M10.5 19.9155C10.2157 19.8788 9.93414 19.8302 9.65583 19.7701M10.5 19.9155L9.65583 19.7701M9.65583 19.7701C9.31641 19.6969 8.98187 19.6066 8.6533 19.5M8.6533 19.5C8.50791 19.4528 8.36368 19.4024 8.22071 19.3489M8.6533 19.5L8.22071 19.3489M8.22071 19.3489C8.01891 19.2733 7.81962 19.1915 7.62312 19.1036M7.62312 19.1036C7.43634 19.02 7.25208 18.9309 7.07056 18.8364M7.62312 19.1036L7.07056 18.8364M7.07056 18.8364C6.87716 18.7357 6.68689 18.629 6.5 18.5163" stroke="#4E5964" stroke-width="1.5" stroke-linecap="round" stroke-linejoin="round"/>
<path d="M9 12C9 10.3431 10.3431 9 12 9" stroke="#4E5964" stroke-width="1.5"/>
<path d="M19 2L2 19" stroke="#4E5964" stroke-width="1.5" stroke-linecap="round" stroke-linejoin="round"/>
<path d="M11.739 14.2781C13.0625 14.4052 14.2335 13.4395 14.3606 12.116C14.3936 11.7725 14.3519 11.4393 14.2498 11.1322M11.739 14.2781C11.678 14.2722 11.6178 14.2641 11.5584 14.2539M11.739 14.2781L11.5584 14.2539M11.5584 14.2539C11.4442 14.2341 11.333 14.2064 11.2255 14.1714M11.2255 14.1714C11.1509 14.1471 11.078 14.1193 11.007 14.0882M11.2255 14.1714L11.007 14.0882M11.007 14.0882C10.9097 14.0455 10.816 13.9967 10.7263 13.9423M10.7263 13.9423C10.6169 13.8759 10.5134 13.8011 10.4168 13.7191L10.7263 13.9423ZM14.0338 10.6602C13.9706 10.5541 13.8995 10.4532 13.8213 10.3584L14.0338 10.6602ZM14.0338 10.6602C14.0819 10.7412 14.1255 10.8251 14.1642 10.9117M14.1642 10.9117C14.1962 10.9835 14.2248 11.057 14.2498 11.1322M14.1642 10.9117L14.2498 11.1322" stroke="#4E5964" stroke-width="1.5" stroke-linecap="square" stroke-linejoin="round"/>
</svg>
