<svg width="24" height="24" viewBox="0 0 24 24" fill="none" xmlns="http://www.w3.org/2000/svg">
<path d="M9.33333 16.2429V10.3395C9.33333 8.86677 10.5272 7.67286 12 7.67286V7.67286C13.4728 7.67286 14.6667 8.86677 14.6667 10.3395V14.5762C14.6667 15.4967 15.4129 16.2429 16.3333 16.2429V16.2429C17.2538 16.2429 18 15.4967 18 14.5762V10C18 6.68629 15.3137 4 12 4V4C8.68629 4 6 6.68629 6 10V15.6085C6 17.0842 6.54943 18.5072 7.54124 19.6V19.6" stroke="#4E5964" stroke-width="1.8" stroke-linecap="round"/>
<path d="M5.01943 21.4305C3.86309 20.8878 2.52477 19.1926 2.85405 16.6804" stroke="#4E5964" stroke-width="1.5" stroke-linecap="round"/>
<path d="M18.5 3C19.5774 3.47824 21.2549 5.17588 20.9999 7.50003" stroke="#4E5964" stroke-width="1.5" stroke-linecap="round"/>
<path d="M12 15.8V10.8" stroke="#4E5964" stroke-width="1.5" stroke-linecap="round"/>
</svg>
