<svg width="24" height="24" viewBox="0 0 24 24" fill="none" xmlns="http://www.w3.org/2000/svg">
<path d="M17 22H7C4.23858 22 2 19.7614 2 17V14.1429V6.28572V5.125C2 3.39911 3.39911 2 5.125 2H6.80329C8.39643 2 9.65863 3.14261 10.4926 4.5C10.9704 5.27755 11.2274 5.80006 12 6.28572C13.2086 7.0454 15.9485 7.20015 18.2552 7.17796C20.2675 7.1586 22 8.73761 22 10.75V12V17C22 19.7614 19.7614 22 17 22Z" stroke="#4E5964" stroke-width="1.5" stroke-linecap="round"/>
<path d="M2 11H22" stroke="#4E5964" stroke-width="1.5" stroke-linecap="round"/>
<path d="M15 15L17 15" stroke="#4E5964" stroke-width="1.5" stroke-linecap="round"/>
</svg>
