<svg width="24" height="24" viewBox="0 0 24 24" fill="none" xmlns="http://www.w3.org/2000/svg">
<path d="M14.8365 10.5099L14.17 10.984" stroke="#4E5964" stroke-width="1.5" stroke-linecap="round"/>
<path d="M5.83008 9.56201L6.49589 10.0158" stroke="#4E5964" stroke-width="1.5" stroke-linecap="round"/>
<path d="M19.9527 10.4922L13.8138 6.94794M14.6014 4.19307L12.1803 8.32036C11.9171 8.7691 11.3414 8.92192 10.8903 8.66281L10.4527 8.41147C9.99563 8.14898 9.84037 7.56414 10.107 7.10954L12.3086 3.35639C12.4429 3.12751 12.6669 2.96537 12.9263 2.90935L14.6922 2.52793C15.1017 2.43949 15.4162 2.88677 15.1945 3.24223L14.6014 4.19307Z" stroke="#4E5964" stroke-width="1.5" stroke-linecap="round"/>
<path d="M15.3105 13.8286H20.0508C20.453 13.8286 20.6641 14.2592 20.379 14.5429C19.5323 15.3855 17.8268 16.6731 15.3105 16.6731" stroke="#4E5964" stroke-width="1.5"/>
<path d="M9.60829 21.4137H5.66846C5.49565 21.4137 5.35556 21.2736 5.35556 21.1008C5.35556 20.9997 5.40613 20.9042 5.48697 20.8434C8.65489 18.4622 7.88957 14.4428 3.45513 13.8737C3.19963 13.8409 3 13.6289 3 13.3713C3 13.1002 3.21981 12.8804 3.49096 12.8804H10.0963H14.851C15.1128 12.8804 15.3251 13.0926 15.3251 13.3544L15.3259 16.7478C12.5011 17.1422 11.0934 18.0724 14.7169 20.8376C14.7994 20.9005 14.8499 21.0014 14.8467 21.1051C14.8413 21.2771 14.7003 21.4137 14.5283 21.4137H12.4667H11.5046H9.60829Z" stroke="#4E5964" stroke-width="1.5"/>
<path d="M12.4676 13.3545L12.4675 12.591C12.4674 12.1309 12.0943 11.7579 11.6341 11.7579H8.5601C8.09979 11.7579 7.72666 12.1311 7.72677 12.5914L7.72687 12.9753V13.3545" stroke="#4E5964" stroke-width="1.5"/>
</svg>
