<svg width="24" height="24" viewBox="0 0 24 24" fill="none" xmlns="http://www.w3.org/2000/svg">
<path d="M4 16.8857V7.5C4 5.01472 6.01472 3 8.5 3H16.5C18.9853 3 21 5.01472 21 7.5V17.0615C21 17.9477 20.7055 18.8087 20.1628 19.5092L20.0859 19.6085C19.6431 20.18 19.0382 20.6045 18.3502 20.8265C17.9939 20.9415 17.6219 21 17.2475 21H12.5" stroke="#4E5964" stroke-width="1.5"/>
<line x1="8.75" y1="7.25" x2="15.25" y2="7.25" stroke="#4E5964" stroke-width="1.5" stroke-linecap="round"/>
<line x1="8.75" y1="10.25" x2="13.25" y2="10.25" stroke="#4E5964" stroke-width="1.5" stroke-linecap="round"/>
<line x1="8.75" y1="13.25" x2="10.25" y2="13.25" stroke="#4E5964" stroke-width="1.5" stroke-linecap="round"/>
<path d="M3 19C3 17.8954 3.89543 17 5 17H15C16.1046 17 17 17.8954 17 19C17 20.1046 16.1046 21 15 21H5C3.89543 21 3 20.1046 3 19Z" stroke="#4E5964" stroke-width="1.5"/>
</svg>
