<svg width="24" height="24" viewBox="0 0 24 24" fill="none" xmlns="http://www.w3.org/2000/svg">
<path d="M3.05817 10.8734C2.43324 7.26794 6.99352 5.13172 9.53721 7.78729C10.9561 9.26857 13.3655 9.29391 14.7844 7.81263C17.267 5.22089 21.6313 7.45649 20.9233 10.9573L19.7484 16.7677C19.2507 19.2287 17.066 21.0001 14.5285 21.0001H9.43903C6.76683 21.0001 4.48337 19.0959 4.03186 16.491L3.05817 10.8734Z" stroke="#4E5964" stroke-width="1.5"/>
<path d="M6 14.5H10" stroke="#4E5964" stroke-width="1.5" stroke-linecap="round" stroke-linejoin="round"/>
<path d="M8 16.5V12.5" stroke="#4E5964" stroke-width="1.5" stroke-linecap="round" stroke-linejoin="round"/>
<path d="M17.765 14.2354C17.911 14.3814 17.911 14.6194 17.765 14.7654C17.619 14.9114 17.381 14.9114 17.235 14.7654C17.089 14.6194 17.089 14.3814 17.235 14.2354C17.381 14.0884 17.618 14.0884 17.765 14.2354" stroke="#4E5964" stroke-width="1.5" stroke-linecap="round" stroke-linejoin="round"/>
<path d="M13.765 14.2354C13.911 14.3814 13.911 14.6194 13.765 14.7654C13.619 14.9114 13.381 14.9114 13.235 14.7654C13.089 14.6194 13.089 14.3814 13.235 14.2354C13.381 14.0884 13.618 14.0884 13.765 14.2354" stroke="#4E5964" stroke-width="1.5" stroke-linecap="round" stroke-linejoin="round"/>
<path d="M15.765 12.2354C15.911 12.3814 15.911 12.6194 15.765 12.7654C15.619 12.9114 15.381 12.9114 15.235 12.7654C15.089 12.6194 15.089 12.3814 15.235 12.2354C15.381 12.0884 15.618 12.0884 15.765 12.2354" stroke="#4E5964" stroke-width="1.5" stroke-linecap="round" stroke-linejoin="round"/>
<path d="M15.765 16.2354C15.911 16.3814 15.911 16.6194 15.765 16.7654C15.619 16.9114 15.381 16.9114 15.235 16.7654C15.089 16.6194 15.089 16.3814 15.235 16.2354C15.381 16.0884 15.618 16.0884 15.765 16.2354" stroke="#4E5964" stroke-width="1.5" stroke-linecap="round" stroke-linejoin="round"/>
<path d="M15.6004 7.5V6.6C15.6004 4.61177 13.9886 3 12.0004 3C10.0122 3 8.40039 4.61178 8.40039 6.6" stroke="#4E5964" stroke-width="1.5"/>
</svg>
