<svg width="24" height="24" viewBox="0 0 24 24" fill="none" xmlns="http://www.w3.org/2000/svg">
<circle cx="12" cy="6" r="3" stroke="#4E5964" stroke-width="1.5"/>
<circle cx="19" cy="7" r="2" stroke="#4E5964" stroke-width="1.5"/>
<circle cx="5" cy="7" r="2" stroke="#4E5964" stroke-width="1.5"/>
<path d="M6.375 14.8125C6.375 13.2592 7.6342 12 9.1875 12V12H14.8125V12C16.3658 12 17.625 13.2592 17.625 14.8125V16.5C17.625 18.9853 15.6103 21 13.125 21H10.875C8.38972 21 6.375 18.9853 6.375 16.5V14.8125Z" stroke="#4E5964" stroke-width="1.5"/>
<path d="M4.8125 12V12C3.2592 12 2 13.2592 2 14.8125V18C2 19.6569 3.34315 21 5 21V21H5.5" stroke="#4E5964" stroke-width="1.5" stroke-linecap="round"/>
<path d="M19.1875 12V12C20.7408 12 22 13.2592 22 14.8125V18C22 19.6569 20.6569 21 19 21V21H18.5" stroke="#4E5964" stroke-width="1.5" stroke-linecap="round"/>
</svg>
