<svg width="24" height="24" viewBox="0 0 24 24" fill="none" xmlns="http://www.w3.org/2000/svg">
<path d="M18.6347 13.6406C17.8947 16.0266 15.0189 19.0791 13.2907 20.7565C12.5485 21.4769 11.385 21.4518 10.6742 20.7004C9.08795 19.0235 6.48442 16.037 5.59114 13.6406C4.9112 11.8165 4.96114 8.80563 5.05254 7.1609C5.09253 6.44137 5.54688 5.82153 6.20716 5.53284L11.1851 3.35629C11.7039 3.12947 12.2945 3.13315 12.8104 3.36643L17.6593 5.55896C18.2686 5.83449 18.7005 6.39524 18.7794 7.05932C18.971 8.67096 19.2208 11.7505 18.6347 13.6406Z" stroke="#4E5964" stroke-width="1.5"/>
<path d="M12.7432 15L12.0264 15.8936L11.6533 15.4941L11.2568 15H12.7432Z" stroke="#4E5964" stroke-width="8"/>
</svg>
