<svg width="24" height="24" viewBox="0 0 24 24" fill="none" xmlns="http://www.w3.org/2000/svg">
<rect x="3" y="2.72461" width="18" height="18" rx="9" stroke="#4E5964" stroke-width="1.5"/>
<path d="M15.4107 9.80103C15.5678 9.95807 15.5678 10.2141 15.4107 10.3711C15.2537 10.5282 14.9977 10.5282 14.8407 10.3711C14.6836 10.2141 14.6836 9.95807 14.8407 9.80103C14.9977 9.64291 15.2526 9.64291 15.4107 9.80103" stroke="#4E5964" stroke-width="1.5" stroke-linecap="round" stroke-linejoin="round"/>
<path d="M8.82286 9.80103C8.9799 9.95807 8.9799 10.2141 8.82286 10.3711C8.66582 10.5282 8.40982 10.5282 8.25277 10.3711C8.09573 10.2141 8.09573 9.95807 8.25277 9.80103C8.40982 9.64291 8.66474 9.64291 8.82286 9.80103" stroke="#4E5964" stroke-width="1.5" stroke-linecap="round" stroke-linejoin="round"/>
<path fill-rule="evenodd" clip-rule="evenodd" d="M8.31641 14.2913C8.31641 14.2913 9.69861 16.7246 12.0009 16.7246C14.3042 16.7246 15.6853 14.2913 15.6853 14.2913" stroke="#4E5964" stroke-width="1.5" stroke-linecap="round" stroke-linejoin="round"/>
<path d="M14.5879 6.72461C14.5879 6.72461 14.7644 6.72461 15.0585 6.72461C15.3527 6.72461 15.9997 6.72461 15.9997 6.72461" stroke="#4E5964" stroke-width="1.41176" stroke-linecap="round" stroke-linejoin="round"/>
<path d="M8 6.72461C8 6.72461 8.17654 6.72461 8.47059 6.72461C8.76477 6.72461 9.41176 6.72461 9.41176 6.72461" stroke="#4E5964" stroke-width="1.41176" stroke-linecap="round" stroke-linejoin="round"/>
</svg>
