<svg width="24" height="24" viewBox="0 0 24 24" fill="none" xmlns="http://www.w3.org/2000/svg">
<rect x="3" y="3" width="18" height="18" rx="4.5" stroke="#4E5964" stroke-width="1.5"/>
<path d="M7.272 15.716H6.252C6.084 15.716 6 15.632 6 15.464V8.252C6 8.084 6.084 8 6.252 8H7.272C7.44 8 7.524 8.084 7.524 8.252V11.072C7.524 11.16 7.572 11.204 7.668 11.204H9.696C9.784 11.204 9.828 11.16 9.828 11.072V8.252C9.828 8.084 9.912 8 10.08 8H11.1C11.268 8 11.352 8.084 11.352 8.252V15.464C11.352 15.632 11.268 15.716 11.1 15.716H10.08C9.912 15.716 9.828 15.632 9.828 15.464V12.656C9.828 12.568 9.784 12.524 9.696 12.524H7.668C7.572 12.524 7.524 12.568 7.524 12.656V15.464C7.524 15.632 7.44 15.716 7.272 15.716Z" fill="#4E5964"/>
<path d="M14.5701 14.396H15.8781C16.1341 14.396 16.3141 14.344 16.4181 14.24C16.5301 14.128 16.5861 13.944 16.5861 13.688V10.028C16.5861 9.772 16.5301 9.592 16.4181 9.488C16.3141 9.376 16.1341 9.32 15.8781 9.32H14.5701C14.4821 9.32 14.4381 9.364 14.4381 9.452V14.264C14.4381 14.352 14.4821 14.396 14.5701 14.396ZM12.9141 15.464V8.252C12.9141 8.084 12.9981 8 13.1661 8H16.1301C16.7541 8 17.2381 8.172 17.5821 8.516C17.9341 8.852 18.1101 9.332 18.1101 9.956V13.76C18.1101 14.384 17.9341 14.868 17.5821 15.212C17.2381 15.548 16.7541 15.716 16.1301 15.716H13.1661C12.9981 15.716 12.9141 15.632 12.9141 15.464Z" fill="#4E5964"/>
</svg>
