<svg width="24" height="24" viewBox="0 0 24 24" fill="none" xmlns="http://www.w3.org/2000/svg">
<rect x="3" y="3" width="18" height="18" rx="4.5" stroke="#4E5964" stroke-width="1.5"/>
<path d="M14.4893 8.72949C14.4137 8.76637 14.3373 8.81704 14.2666 8.8877C14.0591 9.09539 14.0195 9.34794 14.0195 9.50586V14.4941C14.0195 14.6521 14.0591 14.9046 14.2666 15.1123C14.3373 15.183 14.4137 15.2336 14.4893 15.2705H13.8975V8.72949H14.4893ZM16.9492 8.77344C17.1992 8.82799 17.3701 8.92869 17.4922 9.05078L17.498 9.05664L17.5049 9.0625C17.6876 9.23713 17.8262 9.52155 17.8262 10.0283V13.9717C17.8262 14.4149 17.72 14.6949 17.5664 14.8818L17.498 14.9561C17.3773 15.0739 17.2071 15.1716 16.958 15.2256C17.0849 15.1697 17.208 15.0937 17.3164 14.9854C17.633 14.6688 17.7041 14.242 17.7041 13.8975V10.1025C17.7041 9.77806 17.6389 9.3595 17.333 9.04785L17.335 9.04688C17.3287 9.0401 17.3208 9.03488 17.3145 9.02832C17.3082 9.02225 17.3033 9.01476 17.2969 9.00879L17.2949 9.00977C17.1889 8.90594 17.0723 8.82823 16.9492 8.77344Z" stroke="#4E5964" stroke-width="1.45801"/>
<path d="M10.8203 8.72949V15.2705H10.6982V12.8271C10.6982 12.6691 10.6578 12.4166 10.4502 12.209C10.3441 12.103 10.2261 12.0415 10.1152 12.0059C10.226 11.9702 10.3442 11.9088 10.4502 11.8027C10.6575 11.5952 10.6982 11.3435 10.6982 11.1855V8.72949H10.8203ZM6.85156 8.72949V11.1855C6.85165 11.3606 6.90216 11.6209 7.125 11.8252C7.22625 11.918 7.33582 11.973 7.43848 12.0059C7.33572 12.0387 7.22636 12.0946 7.125 12.1875C6.90206 12.3919 6.85161 12.6521 6.85156 12.8271V15.2705H6.72949V8.72949H6.85156Z" stroke="#4E5964" stroke-width="1.45801"/>
</svg>
