<svg width="24" height="24" viewBox="0 0 24 24" fill="none" xmlns="http://www.w3.org/2000/svg">
<path d="M3 16V9C3 5.13401 7.02944 2 12 2C16.9706 2 21 5.13401 21 9V16" stroke="#4E5964" stroke-width="1.5" stroke-linecap="round"/>
<path d="M8 14.4727C8 13.3681 7.10457 12.4727 6 12.4727V12.4727C4.89543 12.4727 4 13.3681 4 14.4727V16.1569C4 17.2614 4.89543 18.1569 6 18.1569V18.1569C7.10457 18.1569 8 17.2614 8 16.1569V14.4727Z" stroke="#4E5964" stroke-width="1.5"/>
<rect x="16" y="12.4727" width="4" height="5.68421" rx="2" stroke="#4E5964" stroke-width="1.5"/>
<path d="M12.75 19.6C12.75 19.1858 12.4142 18.85 12 18.85C11.5858 18.85 11.25 19.1858 11.25 19.6H12.75ZM11.25 19.6V21.7467H12.75V19.6H11.25ZM8.72727 22.75H11.7818V21.25H8.72727V22.75ZM5.25 18.5C5.25 19.4989 5.61283 20.5284 6.19562 21.317C6.77334 22.0989 7.65404 22.75 8.72727 22.75V21.25C8.29428 21.25 7.81134 20.9796 7.40198 20.4256C6.99769 19.8785 6.75 19.158 6.75 18.5H5.25ZM11.25 21.7467C11.25 21.6436 11.2858 21.5316 11.3678 21.4364C11.4511 21.3396 11.5953 21.25 11.7818 21.25V22.75C12.4178 22.75 12.75 22.1917 12.75 21.7467H11.25Z" fill="#4E5964"/>
</svg>
