<svg width="24" height="24" viewBox="0 0 24 24" fill="none" xmlns="http://www.w3.org/2000/svg">
<path fill-rule="evenodd" clip-rule="evenodd" d="M13.0958 5.32066C14.0032 4.30263 15.2143 3.74998 16.4561 3.75C16.9568 3.75001 17.4526 3.83988 17.9254 4.0139L19.0637 2.87561C18.2564 2.46895 17.3692 2.25001 16.4561 2.25C14.7687 2.24998 13.1697 2.99765 11.9998 4.29602C9.53449 1.55936 5.51924 1.5682 3.06391 4.32253L3.0639 4.32254C1.89451 5.63439 1.25 7.39695 1.25 9.21925C1.25 11.0415 1.89451 12.8041 3.0639 14.116L5.307 16.6323L6.36941 15.5699L4.18361 13.1178L3.62375 13.6169L4.18361 13.1178C3.27365 12.097 2.75 10.6958 2.75 9.21925C2.75 7.74267 3.27364 6.34148 4.1836 5.32067C6.05032 3.22663 9.03715 3.22662 10.9039 5.32064L10.9039 5.32067L11.4399 5.92205C11.5822 6.0817 11.7859 6.17301 11.9998 6.17301C12.2137 6.17302 12.4174 6.08172 12.5597 5.92207L13.0958 5.32066L12.5434 4.82829L13.0958 5.32066ZM7.36917 16.6915L6.30676 17.7539L8.37599 20.0752C9.32088 21.1352 10.6222 21.75 12 21.75C13.3778 21.75 14.6791 21.1352 15.624 20.0752L20.9361 14.1161L20.3762 13.617L20.9361 14.1161C22.1055 12.8042 22.75 11.0417 22.75 9.21936C22.75 7.39707 22.1055 5.63452 20.9361 4.32267C20.7461 4.10944 20.5445 3.91085 20.3329 3.72777L19.2687 4.79195C19.461 4.95105 19.6441 5.12752 19.8164 5.32075L19.8164 5.32077C20.7263 6.34158 21.25 7.74278 21.25 9.21936C21.25 10.6959 20.7263 12.0971 19.8164 13.1179L14.5043 19.0771L15.0641 19.5762L14.5043 19.0771C13.8238 19.8404 12.9207 20.25 12 20.25C11.0793 20.25 10.1761 19.8404 9.49571 19.0771L7.36917 16.6915Z" fill="#4E5964"/>
<path d="M20 1L3 18" stroke="#4E5964" stroke-width="1.5" stroke-linecap="round" stroke-linejoin="round"/>
</svg>
