<svg width="24" height="24" viewBox="0 0 24 24" fill="none" xmlns="http://www.w3.org/2000/svg">
<path d="M7.03518 16.289L6.52042 15.7186L4.46138 13.4372C3.52567 12.4005 3 10.9944 3 9.52822C3 8.06205 3.52567 6.65594 4.46138 5.6192C6.40986 3.46042 9.56889 3.46042 11.5174 5.6192L11.9998 6.15379L12.4823 5.6192C13.418 4.58243 14.6872 3.99998 16.0105 4C16.8919 4.00001 17.7492 4.25841 18.5 4.73733M20.3143 6.73136C20.3394 6.77871 20.3638 6.82645 20.3875 6.87457C20.7858 7.68105 21 8.59245 21 9.52832C21 10.9945 20.4743 12.4006 19.5386 13.4373L14.7577 18.7344C14.0263 19.5447 13.0343 20 12 20C10.9656 20 9.97366 19.5447 9.24227 18.7344L8.91086 18.3672L8.74516 18.1836L8.70374 18.1377" stroke="#4E5964" stroke-width="1.5" stroke-linecap="round" stroke-linejoin="round"/>
<path d="M20.5473 3L3.45508 19.9663" stroke="#4E5964" stroke-width="1.5" stroke-linecap="round" stroke-linejoin="round"/>
</svg>
