<svg width="24" height="24" viewBox="0 0 24 24" fill="none" xmlns="http://www.w3.org/2000/svg">
<path fill-rule="evenodd" clip-rule="evenodd" d="M19.5406 5.62443C20.4763 6.66116 21.002 8.06728 21.002 9.53345C21.002 10.9996 20.4763 12.4057 19.5406 13.4425L14.7597 18.7395C14.0283 19.5499 13.0363 20.0051 12.0019 20.0051C10.9676 20.0051 9.97561 19.5499 9.24422 18.7395L4.46333 13.4424C3.52763 12.4056 3.00195 10.9995 3.00195 9.53335C3.00195 8.06718 3.52763 6.66106 4.46333 5.62433C6.41181 3.46555 9.57084 3.46555 11.5193 5.62433L12.0018 6.15892L12.4843 5.62433C13.42 4.58756 14.6891 4.00511 16.0124 4.00513C17.3358 4.00515 18.6049 4.58763 19.5406 5.62443Z" stroke="#4E5964" stroke-width="1.5" stroke-linecap="round" stroke-linejoin="round"/>
</svg>
