<svg width="24" height="24" viewBox="0 0 24 24" fill="none" xmlns="http://www.w3.org/2000/svg">
<path d="M19.0758 3.73818C18.9932 3.68855 18.9096 3.64129 18.8251 3.59644C18.0913 3.20738 17.2832 3.00001 16.4561 3C14.9857 2.99998 13.5756 3.65523 12.5359 4.8216L11.9998 5.42301L11.4638 4.8216C9.29877 2.39297 5.78873 2.39297 3.62375 4.8216C2.58408 5.98793 2 7.56981 2 9.21925C2 10.8687 2.58408 12.4506 3.62375 13.6169L6.2798 16.5965M21.0245 5.70161L21.1247 5.86529C21.6918 6.85875 22 8.02123 22 9.21936C22 10.8688 21.4159 12.4507 20.3762 13.617L15.0641 19.5762C14.2515 20.4878 13.1493 21 12 21C10.8507 21 9.74851 20.4878 8.93585 19.5762L8.27184 18.8313L8.10583 18.645" stroke="#4E5964" stroke-width="1.5" stroke-linecap="round" stroke-linejoin="round"/>
<path d="M21 2L4 19" stroke="#4E5964" stroke-width="1.5" stroke-linecap="round" stroke-linejoin="round"/>
</svg>
