<svg width="24" height="25" viewBox="0 0 24 25" fill="none" xmlns="http://www.w3.org/2000/svg">
<path d="M7.03713 17.0133L6.52237 16.443L4.46333 14.1616C3.52763 13.1249 3.00195 11.7188 3.00195 10.2526C3.00195 8.78642 3.52763 7.3803 4.46333 6.34357C6.41181 4.18479 9.57084 4.18479 11.5193 6.34357L12.0018 6.87815L12.4843 6.34357C13.42 5.30679 14.6891 4.72435 16.0124 4.72437C16.8938 4.72438 17.7512 4.98277 18.502 5.46169M20.3162 7.45572C20.3413 7.50307 20.3657 7.55082 20.3895 7.59893C20.7878 8.40542 21.002 9.31682 21.002 10.2527C21.002 11.7189 20.4763 13.125 19.5406 14.1617L14.7597 19.4587C14.0283 20.2691 13.0363 20.7244 12.0019 20.7244C10.9676 20.7244 9.97561 20.2691 9.24422 19.4587L8.91282 19.0916L8.74712 18.908L8.70569 18.8621" stroke="#4E5964" stroke-width="1.5" stroke-linecap="round" stroke-linejoin="round"/>
<path d="M20.5492 3.72437L3.45703 20.6907" stroke="#4E5964" stroke-width="1.5" stroke-linecap="round" stroke-linejoin="round"/>
</svg>
