<svg width="24" height="24" viewBox="0 0 24 24" fill="none" xmlns="http://www.w3.org/2000/svg">
<path d="M3.00195 11.9961C3.00195 10.2515 3.72698 8.59694 4.98094 7.48003L8.48094 4.36255C10.5206 2.54582 13.4833 2.54581 15.523 4.36255L19.023 7.48002C20.2769 8.59693 21.002 10.2515 21.002 11.9961V15.1213C21.002 18.368 18.5395 21 15.502 21H8.50195C5.46439 21 3.00195 18.368 3.00195 15.1213V11.9961Z" stroke="#4E5964" stroke-width="1.5"/>
<path d="M11.9444 15.2594C11.6964 15.2594 11.4962 15.4613 11.4979 15.7076C11.4962 15.9557 11.6981 16.1576 11.9444 16.1576C12.1908 16.1576 12.3927 15.9557 12.3927 15.7093C12.3927 15.463 12.1925 15.2594 11.9444 15.2594" stroke="#4E5964" stroke-width="1.5" stroke-linecap="round" stroke-linejoin="round"/>
<path d="M14.5922 13.3235C13.042 11.7547 10.903 11.6949 9.26758 13.1748" stroke="#4E5964" stroke-width="1.5" stroke-linecap="round" stroke-linejoin="round"/>
<path d="M17.0024 11.3224C14.0495 8.33364 9.97489 8.21957 6.85938 11.0384" stroke="#4E5964" stroke-width="1.5" stroke-linecap="round" stroke-linejoin="round"/>
</svg>
