<svg width="24" height="24" viewBox="0 0 24 24" fill="none" xmlns="http://www.w3.org/2000/svg">
<rect x="3" y="3" width="18" height="18" rx="4.5" stroke="#4E5964" stroke-width="1.5"/>
<path d="M9.524 8.252V15.464C9.524 15.632 9.44 15.716 9.272 15.716H8.252C8.084 15.716 8 15.632 8 15.464V8.252C8 8.084 8.084 8 8.252 8H9.272C9.44 8 9.524 8.084 9.524 8.252Z" fill="#4E5964"/>
<path d="M11.9432 15.716H10.7912C10.6472 15.716 10.5992 15.632 10.6472 15.464L12.5432 8.252C12.5992 8.084 12.7192 8 12.9032 8H14.4992C14.6992 8 14.8192 8.084 14.8592 8.252L16.7552 15.464C16.8032 15.632 16.7552 15.716 16.6112 15.716H15.4592C15.3712 15.716 15.3112 15.7 15.2792 15.668C15.2472 15.628 15.2232 15.56 15.2072 15.464L14.8712 14.144H12.5312L12.1952 15.464C12.1792 15.56 12.1512 15.628 12.1112 15.668C12.0792 15.7 12.0232 15.716 11.9432 15.716ZM13.6832 9.452L12.8192 12.92H14.5952L13.7312 9.452H13.6832Z" fill="#4E5964"/>
</svg>
