<svg width="24" height="24" viewBox="0 0 24 24" fill="none" xmlns="http://www.w3.org/2000/svg">
<rect x="3" y="3" width="18" height="18" rx="4.5" stroke="#4E5964" stroke-width="1.5"/>
<line x1="0.75" y1="-0.75" x2="2.25" y2="-0.75" transform="matrix(-1 0 0 1 9 9)" stroke="#4E5964" stroke-width="1.5" stroke-linecap="round"/>
<line x1="0.75" y1="-0.75" x2="2.25" y2="-0.75" transform="matrix(-1 0 0 1 9 17)" stroke="#4E5964" stroke-width="1.5" stroke-linecap="round"/>
<line x1="0.75" y1="-0.75" x2="1.25" y2="-0.75" transform="matrix(-1 0 0 1 8 13)" stroke="#4E5964" stroke-width="1.5" stroke-linecap="round"/>
<path d="M15.5485 7.43873C16.1505 8.04517 16.1505 8.99815 15.5485 9.56127C14.9465 10.1244 14.0004 10.1677 13.4414 9.56127C12.8824 8.95483 12.8394 8.04517 13.3984 7.43873C13.9574 6.8323 14.9465 6.87561 15.5485 7.43873" stroke="#4E5964" stroke-width="1.5" stroke-linecap="round" stroke-linejoin="round"/>
<path d="M11 13.75C11 12.7835 11.7835 12 12.75 12V12H16.25V12C17.2165 12 18 12.7835 18 13.75V14.5C18 15.8807 16.8807 17 15.5 17H13.5C12.1193 17 11 15.8807 11 14.5V13.75Z" stroke="#4E5964" stroke-width="1.5"/>
</svg>
