<svg width="24" height="24" viewBox="0 0 24 24" fill="none" xmlns="http://www.w3.org/2000/svg">
<path d="M3 11.5C3 10.1193 4.11929 9 5.5 9V9H7.07692C7.58672 9 8 9.41328 8 9.92308V10.3462C8 10.6223 8.22386 10.8462 8.5 10.8462V10.8462H12H15.5V10.8462C15.7761 10.8462 16 10.6223 16 10.3462V9.92308C16 9.41328 16.4133 9 16.9231 9H18.5V9C19.8807 9 21 10.1193 21 11.5V16.5C21 18.9853 18.9853 21 16.5 21H7.5C5.01472 21 3 18.9853 3 16.5V11.5Z" stroke="#4E5964" stroke-width="1.5"/>
<path d="M14 16L12.4934 17.6583C12.2289 17.9494 11.7711 17.9494 11.5066 17.6583L10 16" stroke="#4E5964" stroke-width="1.5" stroke-linecap="round" stroke-linejoin="round"/>
<path d="M12 13.5L12 17" stroke="#4E5964" stroke-width="1.5" stroke-linecap="round" stroke-linejoin="round"/>
<path d="M5 6.5V4.67785C5 3.7512 5.89543 3 7 3H17C18.1046 3 19 3.7512 19 4.67785V6.5" stroke="#4E5964" stroke-width="1.5" stroke-linecap="round" stroke-linejoin="round"/>
<path d="M4 9.5V8.5C4 7.39543 4.89543 6.5 6 6.5H18C19.1046 6.5 20 7.39543 20 8.5V9.5" stroke="#4E5964" stroke-width="1.5" stroke-linecap="round" stroke-linejoin="round"/>
</svg>
