<svg width="24" height="24" viewBox="0 0 24 24" fill="none" xmlns="http://www.w3.org/2000/svg">
<path d="M6.84342 16.3392C5.6963 15.7593 4.72994 14.8682 4.0516 13.7648C3.37326 12.6614 3.00946 11.3888 3.00058 10.0884C2.9917 8.78787 3.33808 7.51032 4.00128 6.39748C4.66449 5.28464 5.61858 4.38003 6.75767 3.78405C7.89676 3.18806 9.1763 2.92401 10.4543 3.0212C11.7323 3.11839 12.9588 3.57301 13.9976 4.33462C15.0364 5.09622 15.847 6.13502 16.3393 7.33574" stroke="#4E5964" stroke-width="1.5" stroke-linecap="round"/>
<path d="M7.90684 13.8319C7.19104 13.4701 6.58803 12.914 6.16475 12.2255C5.74146 11.537 5.51445 10.7429 5.50891 9.93143C5.50337 9.11993 5.71951 8.32274 6.13335 7.62833C6.54719 6.93391 7.14254 6.36944 7.85333 5.99755C8.56413 5.62565 9.36256 5.46089 10.16 5.52153C10.9575 5.58217 11.7228 5.86586 12.3711 6.3411C13.0193 6.81634 13.5251 7.46456 13.8323 8.2138" stroke="#4E5964" stroke-width="1.5" stroke-linecap="round"/>
<path d="M14.0466 11.3824L13.6796 10.8361C13.4529 10.4988 12.9957 10.4091 12.6584 10.6358M14.0466 11.3824L15.796 13.9858M14.0466 11.3824L15.2037 10.6049C15.5232 10.3902 15.9563 10.4752 16.171 10.7947L16.5597 11.3733M16.5597 11.3733L17.4275 10.7901C17.9068 10.4681 18.5564 10.5955 18.8784 11.0748L20.6862 13.7652C21.1502 14.4557 21.3519 15.2894 21.2548 16.1156L21.2174 16.4344C21.0986 17.4448 20.5443 18.3529 19.6999 18.9203L16.9806 20.7476C16.4709 21.09 15.8294 21.1716 15.2503 20.9675L13.3833 20.3096L9.72333 19.1044C9.1076 18.9017 8.78012 18.2267 8.99364 17.6146C9.18424 17.0682 9.75483 16.7443 10.3202 16.8677L12.0809 17.2523C12.4507 17.333 12.7303 16.9218 12.5192 16.6075L8.33371 10.3787C8.06892 9.98464 8.17371 9.45053 8.56778 9.18574L8.93418 8.93953C9.2963 8.69621 9.7871 8.79251 10.0304 9.15462L11.5236 11.3767C11.6139 11.5112 11.8237 11.4468 11.8232 11.2848C11.823 11.2301 11.8501 11.1789 11.8956 11.1484L12.6584 10.6358M16.5597 11.3733L17.5316 12.8196M12.6584 10.6358L12.6906 10.6141" stroke="#4E5964" stroke-width="1.5"/>
<path d="M14.0591 15.1522L11.3379 11.1025" stroke="#4E5964" stroke-width="1.5" stroke-linecap="round"/>
<path d="M15.7962 13.9863L14.4355 11.9614" stroke="#4E5964" stroke-width="1.5" stroke-linecap="round"/>
<path d="M17.5305 12.8203L16.1699 10.7954" stroke="#4E5964" stroke-width="1.5" stroke-linecap="round"/>
</svg>
