<svg width="24" height="24" viewBox="0 0 24 24" fill="none" xmlns="http://www.w3.org/2000/svg">
<path d="M3 11.5054L6 8.50537H12H18L21 11.5054V18.5054C21 20.1622 19.6569 21.5054 18 21.5054H6C4.34315 21.5054 3 20.1622 3 18.5054V11.5054Z" stroke="#4E5964" stroke-width="1.5" stroke-linecap="round"/>
<path d="M21 4.31075C21 4.53363 20.9255 4.75012 20.7884 4.92584L18.3003 8.11514C18.1108 8.35803 17.8199 8.50003 17.5118 8.50003H6.48816C6.18009 8.50003 5.88921 8.35803 5.69972 8.11514L3.21156 4.92586C3.07446 4.75012 3 4.53362 3 4.31073L3.00002 3.00002L21 3.00003L21 4.31075Z" stroke="#4E5964" stroke-width="1.5"/>
<path d="M8.92135 3.76012L7.99999 3H16L15.0786 3.76012C14.8944 3.91212 14.6215 4 14.3337 4H9.6663C9.37851 4 9.10559 3.91212 8.92135 3.76012Z" stroke="#4E5964" stroke-width="1.5"/>
<path d="M21 12.5054H17.4366C17.2398 12.5054 17.0473 12.5635 16.8833 12.6724L15.1362 13.833C14.9722 13.9419 14.7798 14 14.5829 14H12.5H9.68664C9.48978 14 9.29729 13.9419 9.13332 13.833L7.38563 12.672C7.22201 12.5633 7.03002 12.5052 6.8336 12.505L3 12.5" stroke="#4E5964" stroke-width="1.5" stroke-linecap="round"/>
<path d="M12 17.5054V17.5" stroke="#4E5964" stroke-width="1.5" stroke-linecap="round"/>
<path d="M15 17.5054V17.5" stroke="#4E5964" stroke-width="1.5" stroke-linecap="round"/>
<path d="M9 17.5055V17.5" stroke="#4E5964" stroke-width="1.5" stroke-linecap="round"/>
</svg>
