<svg width="24" height="24" viewBox="0 0 24 24" fill="none" xmlns="http://www.w3.org/2000/svg">
<path d="M5.91797 17.7565V17.27" stroke="#4E5964" stroke-width="1.45946" stroke-linecap="round"/>
<path d="M8.83789 17.7565V17.27" stroke="#4E5964" stroke-width="1.45946" stroke-linecap="round"/>
<path d="M11.7559 17.7565V17.27" stroke="#4E5964" stroke-width="1.45946" stroke-linecap="round"/>
<path d="M3 13.2163V19.0541C3 20.1288 3.87123 21 4.94595 21H6.40541C6.67408 21 6.89189 20.7822 6.89189 20.5135C6.89189 20.2449 7.1097 20.0271 7.37838 20.0271H10.2973C10.566 20.0271 10.7838 20.2449 10.7838 20.5135C10.7838 20.7822 11.0016 21 11.2703 21H13.0541H14.1892H14.7568C15.1202 21 15.4687 20.8557 15.7257 20.5987L15.8108 20.5135L16.2973 20.0271L17.2703 19.0541L18.2663 18.0581C18.8745 17.4498 19.2162 16.6249 19.2162 15.7647V10.6217M3 13.2163H5.5946C6.04239 13.2163 6.40541 13.5793 6.40541 14.0271C6.40541 14.4749 6.76842 14.8379 7.21622 14.8379H11.2703C11.7181 14.8379 12.0811 14.4749 12.0811 14.0271C12.0811 13.5793 12.4441 13.2163 12.8919 13.2163H15.3243M3 13.2163L7.86487 10.6217M15.3243 13.2163L19.2162 10.6217M15.3243 13.2163V17.1081V19.0541V20.0271V20.5135M7.86487 10.6217H19.2162M7.86487 10.6217V14.1892M7.86487 10.6217L5.81062 8.35139L4.62162 7.21625L4.13514 6.64868L3.89189 6.3649C3.79631 6.25339 3.87554 6.08112 4.02241 6.08112H4.2973M19.2162 10.6217L20.6811 8.66848C20.9759 8.27538 21.0234 7.74944 20.8036 7.30993L20.027 5.75679L19.4595 4.62166L19.1757 4.05409L19.0338 3.7703L18.9628 3.62841M19.2162 10.6217L16.6216 6.08112M16.6216 6.08112H14.2703C13.9568 6.08112 13.7027 5.827 13.7027 5.51353C13.7027 5.20006 13.4486 4.94595 13.1351 4.94595H9.40542C9.09195 4.94595 8.83784 5.20006 8.83784 5.51353C8.83784 5.827 8.58372 6.08112 8.27025 6.08112H5.91892H4.78378H4.2973M16.6216 6.08112L18.0811 4.05409M6.89189 3L12.7297 3.00003L15.6486 3H17.1081H18.0811C18.385 3 18.6688 3.1519 18.8374 3.40479L18.8919 3.48652M4.21622 6.08112H4.2973" stroke="#4E5964" stroke-width="1.45946" stroke-linecap="round"/>
<path d="M6.89018 3C6.89018 3 4.63356 5.18882 3.97266 5.91892" stroke="#4E5964" stroke-width="1.45946" stroke-linecap="round"/>
</svg>
