<svg width="24" height="24" viewBox="0 0 24 24" fill="none" xmlns="http://www.w3.org/2000/svg">
<path d="M11.9512 3.84131L11.9512 2.99971" stroke="#4E5964" stroke-width="1.5" stroke-linecap="round"/>
<path d="M17.957 5.104L17.2132 5.84788" stroke="#4E5964" stroke-width="1.5" stroke-linecap="round"/>
<path d="M6.74414 6.2085L6.00027 5.46462" stroke="#4E5964" stroke-width="1.5" stroke-linecap="round"/>
<path d="M10 21C10 21 11.4742 21 12.4242 21C13.3742 21 14 21 14 21" stroke="#4E5964" stroke-width="1.5" stroke-linecap="round"/>
<path d="M11.7925 5.98491C11.1749 6.02459 10.5628 6.17631 9.98735 6.44006C9.98265 6.44221 9.97796 6.44437 9.97327 6.44654L9.8975 6.48126C8.13199 7.29047 7.00006 9.05446 7.00006 10.9966C7.00006 11.0135 7.00014 11.0305 7.00032 11.0474C7.00011 11.0664 7 11.0854 7 11.1045C7 11.9475 7.20733 12.7817 7.60454 13.5266L8.84527 15.8536C9.06868 16.2726 9.18553 16.7401 9.18553 17.2149V17.9649H10.6855V17.2149C10.6855 16.4939 10.5081 15.784 10.1689 15.1478L8.92814 12.8209C8.88846 12.7465 8.85145 12.6708 8.81715 12.5939L8.63269 11.9464C8.54982 11.6555 8.50497 11.3535 8.50044 11.048C8.52199 9.65688 9.3388 8.39291 10.6005 7.80909L10.6124 7.80365C11.0913 7.58414 11.6062 7.47437 12.1211 7.47437C12.1934 7.47437 12.2657 7.47653 12.338 7.48087C12.7799 7.50737 13.2181 7.61497 13.6298 7.80365L13.6416 7.80908C14.9034 8.39289 15.7202 9.65688 15.7417 11.048C15.7393 11.2112 15.7254 11.3734 15.7003 11.5334L15.6216 12.0355C15.55 12.3077 15.447 12.5716 15.3141 12.8209L14.0733 15.1478C13.7341 15.784 13.5567 16.4939 13.5567 17.2149V17.9649H15.0567V17.2149C15.0567 16.7401 15.1735 16.2726 15.3969 15.8536L16.6377 13.5266C16.8115 13.2006 16.949 12.8574 17.0486 12.5039L17.0661 12.5066L17.0927 12.3367C17.1917 11.9346 17.2422 11.5206 17.2422 11.1045C17.2422 11.0854 17.2421 11.0664 17.2419 11.0474C17.242 11.0305 17.2421 11.0135 17.2421 10.9966C17.2421 9.05446 16.1102 7.29047 14.3447 6.48126L14.2689 6.44654C14.2642 6.44437 14.2595 6.44221 14.2548 6.44006C13.5775 6.12959 12.8493 5.97436 12.1211 5.97437C12.0115 5.97437 11.9019 5.97788 11.7925 5.98491Z" fill="#4E5964"/>
<path d="M7.75 17.9744C7.75 17.9744 10.7327 17.9744 12.996 17.9744C15.2592 17.9744 16.75 17.9744 16.75 17.9744" stroke="#4E5964" stroke-width="1.5" stroke-linecap="round"/>
</svg>
