<svg width="24" height="24" viewBox="0 0 24 24" fill="none" xmlns="http://www.w3.org/2000/svg">
<path d="M11.9512 3.84131L11.9512 2.99971" stroke="#4E5964" stroke-width="1.5" stroke-linecap="round"/>
<path d="M17.957 5.104L17.2132 5.84788" stroke="#4E5964" stroke-width="1.5" stroke-linecap="round"/>
<path d="M6.74414 6.2085L6.00027 5.46462" stroke="#4E5964" stroke-width="1.5" stroke-linecap="round"/>
<path d="M10 21C10 21 11.4742 21 12.4242 21C13.3742 21 14 21 14 21" stroke="#4E5964" stroke-width="1.5" stroke-linecap="round"/>
<path d="M9.32436 17.6813V16.9668C9.32436 16.5144 9.21303 16.069 9.00019 15.6698L7.81813 13.4529C7.43971 12.7432 7.24219 11.9484 7.24219 11.1453C7.24219 11.1272 7.24229 11.109 7.24249 11.0909C7.24232 11.0748 7.24224 11.0587 7.24224 11.0425C7.24224 9.19224 8.32064 7.51167 10.0027 6.74074L10.0748 6.70765C10.0793 6.70559 10.0838 6.70353 10.0883 6.70148C10.6365 6.45021 11.2197 6.30567 11.8081 6.26786C11.9123 6.26116 12.0167 6.25781 12.1211 6.25781C12.8148 6.2578 13.5086 6.40569 14.1539 6.70148C14.1584 6.70353 14.1629 6.70559 14.1673 6.70765L14.2395 6.74074C15.9215 7.51167 16.9999 9.19224 16.9999 11.0425C16.9999 11.0587 16.9999 11.0748 16.9997 11.0909C16.9999 11.109 17 11.1272 17 11.1453C17 11.5417 16.9099 12.0954 16.8156 12.4785C16.7207 12.8153 16.5897 13.1423 16.4241 13.4529L15.242 15.6698C15.0292 16.069 14.9178 16.5144 14.9178 16.9668V17.6813" stroke="#4E5964" stroke-width="1.5" stroke-linecap="square"/>
<path d="M7.75 17.9744C7.75 17.9744 10.7327 17.9744 12.996 17.9744C15.2592 17.9744 16.75 17.9744 16.75 17.9744" stroke="#4E5964" stroke-width="1.5" stroke-linecap="round"/>
</svg>
