<svg width="24" height="24" viewBox="0 0 24 24" fill="none" xmlns="http://www.w3.org/2000/svg">
<path d="M11.9512 3.84155L11.9512 2.99995" stroke="#4E5964" stroke-width="1.5" stroke-linecap="round"/>
<path d="M17.957 5.10425L17.2132 5.84812" stroke="#4E5964" stroke-width="1.5" stroke-linecap="round"/>
<path d="M6.74414 6.20874L6.00027 5.46487" stroke="#4E5964" stroke-width="1.5" stroke-linecap="round"/>
<path d="M10 21C10 21 11.4742 21 12.4242 21C13.3742 21 14 21 14 21" stroke="#4E5964" stroke-width="1.5" stroke-linecap="round"/>
<path d="M11.7925 5.98515C11.1749 6.02484 10.5628 6.17655 9.98735 6.4403C9.98265 6.44245 9.97796 6.44461 9.97327 6.44678L9.8975 6.48151C8.13199 7.29071 7.00006 9.0547 7.00006 10.9968C7.00006 11.0138 7.00014 11.0307 7.00032 11.0476C7.00011 11.0667 7 11.0857 7 11.1047C7 11.9477 7.20733 12.7819 7.60454 13.5269L8.84527 15.8538C9.06868 16.2728 9.18553 16.7403 9.18553 17.2152V17.9652H10.6855V17.2152C10.6855 16.4942 10.5081 15.7843 10.1689 15.1481L8.92814 12.8211C8.88846 12.7467 8.85145 12.671 8.81715 12.5942L8.63269 11.9466C8.54982 11.6557 8.50497 11.3538 8.50044 11.0482C8.52199 9.65713 9.3388 8.39315 10.6005 7.80934L10.6124 7.8039C11.0913 7.58438 11.6062 7.47462 12.1211 7.47461C12.1934 7.47461 12.2657 7.47678 12.338 7.48111C12.7799 7.50762 13.2181 7.61521 13.6298 7.8039L13.6416 7.80933C14.9034 8.39314 15.7202 9.65712 15.7417 11.0482C15.7393 11.2114 15.7254 11.3736 15.7003 11.5336L15.6216 12.0357C15.55 12.3079 15.447 12.5718 15.3141 12.8211L14.0733 15.1481C13.7341 15.7843 13.5567 16.4942 13.5567 17.2152V17.9652H15.0567V17.2152C15.0567 16.7403 15.1735 16.2728 15.3969 15.8538L16.6377 13.5269C16.8115 13.2008 16.949 12.8576 17.0486 12.5041L17.0661 12.5068L17.0927 12.337C17.1917 11.9348 17.2422 11.5208 17.2422 11.1047C17.2422 11.0857 17.2421 11.0667 17.2419 11.0476C17.242 11.0307 17.2421 11.0138 17.2421 10.9968C17.2421 9.0547 16.1102 7.29071 14.3447 6.48151L14.2689 6.44678C14.2642 6.44461 14.2595 6.44245 14.2548 6.4403C13.5775 6.12983 12.8493 5.9746 12.1211 5.97461C12.0115 5.97461 11.9019 5.97812 11.7925 5.98515Z" fill="#4E5964"/>
<path d="M7.75 17.9746C7.75 17.9746 10.7327 17.9746 12.996 17.9746C15.2592 17.9746 16.75 17.9746 16.75 17.9746" stroke="#4E5964" stroke-width="1.5" stroke-linecap="round"/>
</svg>
