<svg width="24" height="25" viewBox="0 0 24 25" fill="none" xmlns="http://www.w3.org/2000/svg">
<path d="M10.6099 7.85585L13.5627 4.96108C13.7298 4.79508 13.9174 4.61011 14.1111 4.4198C15.0937 3.45426 16.575 3.0934 18.1623 3.42504L19.4193 3.68767C20.0199 3.81315 20.5492 4.35165 20.6637 4.95366L20.9033 6.21361C21.206 7.80464 20.8044 9.26389 19.8049 10.2121C19.6146 10.3926 19.4303 10.5685 19.2653 10.7282L16.3275 13.6726M10.6099 7.85585L4.80782 6.94131C4.23841 6.85263 3.69746 7.01295 3.32807 7.37987C2.86419 7.84065 2.89104 8.53028 3.43525 9.06859L6.33466 12.047L10.6099 7.85585ZM16.3275 13.6726L17.1356 19.4828C17.2138 20.053 17.0433 20.5902 16.6691 20.9522C16.1992 21.4069 15.4399 21.3254 14.9111 20.7721L12.0523 17.8637L16.3275 13.6726Z" stroke="#4E5964" stroke-width="1.58595"/>
<path d="M8.00195 19.9589L8.73211 19.2756" stroke="#4E5964" stroke-width="1.5" stroke-linecap="round"/>
<path d="M4.00195 15.9589L4.73211 15.2756" stroke="#4E5964" stroke-width="1.5" stroke-linecap="round"/>
<path d="M4.73438 19.246L6.19468 17.8794" stroke="#4E5964" stroke-width="1.5" stroke-linecap="round"/>
<ellipse cx="9.51512" cy="14.7736" rx="3.55048" ry="1.28715" transform="rotate(48.3478 9.51512 14.7736)" stroke="#4E5964" stroke-width="1.58595"/>
<path d="M14.002 5.27563L15.252 6.52563L16.502 7.77563" stroke="#4E5964" stroke-width="1.5" stroke-linecap="round"/>
</svg>
