<svg width="24" height="24" viewBox="0 0 24 24" fill="none" xmlns="http://www.w3.org/2000/svg">
<path d="M9.89844 14.2151C11.1083 14.5097 12.1973 14.3065 13.3362 13.7074" stroke="#4E5964" stroke-width="1.5" stroke-linecap="round"/>
<path d="M12.5371 10.093C13.7007 10.1201 14.6578 9.71945 15.5844 8.94982" stroke="#4E5964" stroke-width="1.5" stroke-linecap="round"/>
<path d="M9.23828 13.8044C8.46744 12.8664 8.22242 11.833 8.3364 10.5962" stroke="#4E5964" stroke-width="1.5" stroke-linecap="round"/>
<path d="M11.8535 9.85132C10.9676 9.15336 10.5445 8.26446 10.4105 7.11969" stroke="#4E5964" stroke-width="1.5" stroke-linecap="round"/>
<path d="M6.11797 8.60509C4.22123 12.2095 6.99056 16.7728 8.05275 18.3035C8.27731 18.6272 8.72231 18.74 9.14463 18.5824C11.0503 17.8714 16.2485 15.652 17.6845 12.1415C18.8318 9.33696 17.6156 5.59928 16.7941 3.63053C16.459 2.82746 15.4968 2.47959 14.5588 2.82266C12.13 3.71097 7.65506 5.68415 6.11797 8.60509Z" stroke="#4E5964" stroke-width="1.5"/>
<path d="M8.08711 21.7455C8.29803 15.6536 10.1818 10.6589 16.347 3.68584" stroke="#4E5964" stroke-width="1.5" stroke-linecap="round"/>
</svg>
