<svg width="24" height="24" viewBox="0 0 24 24" fill="none" xmlns="http://www.w3.org/2000/svg">
<path d="M17.3317 9.08725L9.2298 19.8834C9.17472 19.9568 9.08829 20 8.99652 20H8.95401C8.76131 20 8.62157 19.8164 8.67287 19.6307L10.7567 12.0857C10.8074 11.9023 10.6718 11.7203 10.4816 11.7164L6.75628 11.6399C6.53967 11.6355 6.40335 11.4048 6.50394 11.2129L10.2032 4.15625C10.2536 4.06018 10.3531 4 10.4616 4H14.7953C15.0289 4 15.1677 4.26085 15.0372 4.45458L12.3323 8.4713C12.1967 8.67254 12.3519 8.94163 12.5939 8.92522L17.0787 8.62119C17.3277 8.60431 17.4815 8.88764 17.3317 9.08725Z" stroke="#4E5964" stroke-width="1.3125" stroke-linecap="round"/>
</svg>
