<svg width="24" height="24" viewBox="0 0 24 24" fill="none" xmlns="http://www.w3.org/2000/svg">
<path fill-rule="evenodd" clip-rule="evenodd" d="M17.0257 8.11327C17.6496 8.82603 18 9.79273 18 10.8007C18 11.8087 17.6496 12.7754 17.0257 13.4882L13.8385 17.1299C13.3509 17.687 12.6896 18 12 18C11.3104 18 10.6491 17.687 10.1615 17.1299L6.97425 13.4881C6.35045 12.7753 6 11.8086 6 10.8007C6 9.79266 6.35045 8.82596 6.97425 8.1132C8.27324 6.62904 10.3793 6.62904 11.6783 8.1132L11.9999 8.48073L12.3215 8.1132C12.9454 7.40042 13.7914 6.99999 14.6737 7C15.5559 7.00001 16.4019 7.40047 17.0257 8.11327Z" stroke="#4E5964" stroke-width="1.5" stroke-linecap="round" stroke-linejoin="round"/>
<path d="M12 3.8999L12 2.9999" stroke="#4E5964" stroke-width="1.5" stroke-linecap="round"/>
<path d="M12 21L12 20.1" stroke="#4E5964" stroke-width="1.5" stroke-linecap="round"/>
<path d="M3.90039 12L3.00039 12" stroke="#4E5964" stroke-width="1.5" stroke-linecap="round"/>
<path d="M21 12L20.1 12" stroke="#4E5964" stroke-width="1.5" stroke-linecap="round"/>
<path d="M6.49609 17.3999L5.7006 18.1954" stroke="#4E5964" stroke-width="1.5" stroke-linecap="round"/>
<path d="M18.1953 4.80005L17.3998 5.59554" stroke="#4E5964" stroke-width="1.5" stroke-linecap="round"/>
<path d="M6.49609 5.59546L5.7006 4.79996" stroke="#4E5964" stroke-width="1.5" stroke-linecap="round"/>
<path d="M18.1953 18.1956L17.3998 17.4001" stroke="#4E5964" stroke-width="1.5" stroke-linecap="round"/>
</svg>
