<svg width="24" height="24" viewBox="0 0 24 24" fill="none" xmlns="http://www.w3.org/2000/svg">
<path d="M3.00195 11.4496C3.00195 10.0995 4.09637 9.00513 5.4464 9.00513H6.00195C7.65881 9.00513 9.00195 10.3483 9.00195 12.0051V14.5051V17.0051C9.00195 18.662 7.65881 20.0051 6.00195 20.0051H5.4464C4.09637 20.0051 3.00195 18.9107 3.00195 17.5607V17.5607V11.4496V11.4496Z" stroke="#4E5964" stroke-width="1.5"/>
<path d="M21.002 12.9362V17.0051C21.002 19.2143 19.2111 21.0051 17.002 21.0051H13.3997C11.9051 21.0051 10.5127 20.246 9.70308 18.9896C9.24537 18.2794 9.00195 17.4523 9.00195 16.6074V10.5003C9.00195 9.65834 9.23814 8.83332 9.68366 8.11895L11.002 6.00513L12.4529 3.82875C12.7959 3.3142 13.3734 3.00513 13.9918 3.00513C15.0739 3.00513 15.9249 3.92997 15.835 5.00831L15.6265 7.51031C15.5595 8.31499 16.1945 9.00513 17.002 9.00513H17.402C19.3902 9.00513 21.002 10.6169 21.002 12.6051V12.9362Z" stroke="#4E5964" stroke-width="1.5"/>
</svg>
