<svg width="24" height="24" viewBox="0 0 24 24" fill="none" xmlns="http://www.w3.org/2000/svg">
<path d="M12 11V17.6667M14 12.6667C13.852 12.0916 13.33 11.6667 12.7087 11.6667H12H11.3333C10.597 11.6667 10 12.2636 10 13C10 13.7364 10.597 14.3333 11.3333 14.3333H12L12.6667 14.3333C13.403 14.3333 14 14.9303 14 15.6667C14 16.403 13.403 17 12.6667 17H12H11.2913C10.67 17 10.148 16.5751 10 16" stroke="#4E5964" stroke-width="1.5" stroke-linecap="round" stroke-linejoin="round"/>
<path d="M9 6C11.2105 6 12.4737 6 15 6" stroke="#4E5964" stroke-width="1.5" stroke-linecap="round"/>
<path fill-rule="evenodd" clip-rule="evenodd" d="M3.00795 17.6166C2.79685 11.9964 6.81743 7.24939 12 7C17.1826 7.24939 21.2031 11.9964 20.9921 17.6166C20.9919 20.1294 19.1132 20.9997 16.7958 20.9999C14.4783 21.0001 13.9067 20.9999 12 20.9999C10.0933 20.9999 9.52171 21.0001 7.20424 20.9999C4.88676 20.9997 3.00812 20.1294 3.00795 17.6166Z" stroke="#4E5964" stroke-width="1.5" stroke-linecap="round" stroke-linejoin="round"/>
<path fill-rule="evenodd" clip-rule="evenodd" d="M10.6667 3H13.3333C13.7015 3 14 3.44772 14 4C14 4.79565 13.7893 5.55871 13.4142 6.12132C13.0391 6.68393 12.5304 7 12 7C10.8954 7 10 5.65685 10 4C10 3.44772 10.2985 3 10.6667 3Z" stroke="#4E5964" stroke-width="1.5" stroke-linecap="round" stroke-linejoin="round"/>
</svg>
