<svg width="24" height="24" viewBox="0 0 24 24" fill="none" xmlns="http://www.w3.org/2000/svg">
<path d="M17 5.25109C15.7295 3.86193 13.9587 3 12 3C8.13401 3 5 6.35786 5 10.5C5 12.3387 5.71602 14.205 6.70001 15.8441M18.4825 7.66476C18.5105 7.73809 18.5374 7.81199 18.5633 7.88646C18.6329 8.08706 18.6947 8.29171 18.7484 8.5C18.9124 9.13672 19 9.8074 19 10.5C19 15.6421 13.4 21 12 21C11.3386 21 9.73967 19.8041 8.23674 18C8.21035 17.9683 8.18399 17.9364 8.15766 17.9044" stroke="#4E5964" stroke-width="1.5" stroke-linecap="round"/>
<path d="M20.0922 3L3 19.9663" stroke="#4E5964" stroke-width="1.5" stroke-linecap="round" stroke-linejoin="round"/>
<path d="M14.7405 8.77988C14.5335 8.31484 14.2115 7.91013 13.8049 7.60384C13.3984 7.29755 12.9205 7.09976 12.4164 7.02908C11.9123 6.9584 11.3985 7.01716 10.9233 7.19983C10.4482 7.3825 10.0273 7.68307 9.7004 8.07325C9.37346 8.46343 9.15119 8.93038 9.05449 9.43016C8.9578 9.92994 8.98986 10.4461 9.14768 10.9301C9.30549 11.414 9.58386 11.8499 9.95657 12.1966" stroke="#4E5964" stroke-width="1.5"/>
</svg>
