<svg width="24" height="24" viewBox="0 0 24 24" fill="none" xmlns="http://www.w3.org/2000/svg">
<path fill-rule="evenodd" clip-rule="evenodd" d="M4.75 10.3333C4.75 6.11602 8.0245 2.75 12 2.75C13.954 2.75 15.7387 3.56318 17.0484 4.89094L18.1092 3.83017C16.5366 2.23626 14.3854 1.25 12 1.25C7.13895 1.25 3.25 5.3459 3.25 10.3333C3.25 12.5479 4.12437 14.7484 5.2931 16.6462L6.38605 15.5533C5.41595 13.898 4.75 12.0824 4.75 10.3333ZM7.2208 16.8399L6.14648 17.9142C6.36695 18.2156 6.59222 18.506 6.81927 18.7838C7.75048 19.9233 8.7393 20.8858 9.612 21.5706C10.0476 21.9124 10.4667 22.1948 10.8456 22.3957C11.1992 22.5831 11.6095 22.75 12 22.75C12.3905 22.75 12.8008 22.5831 13.1544 22.3957C13.5333 22.1948 13.9524 21.9124 14.388 21.5706C15.2607 20.8858 16.2495 19.9233 17.1807 18.7838C19.0241 16.5283 20.75 13.4447 20.75 10.3333C20.75 8.34076 20.1293 6.49049 19.0738 4.98686L17.9947 6.06593C18.7858 7.27823 19.25 8.74544 19.25 10.3333C19.25 12.9355 17.7759 15.6852 16.0193 17.8346C15.1505 18.8977 14.2393 19.7806 13.462 20.3905C13.0726 20.6961 12.7292 20.9234 12.4518 21.0704C12.3135 21.1438 12.2014 21.1918 12.116 21.2204C12.0435 21.2446 12.007 21.249 12 21.2498C11.993 21.249 11.9565 21.2446 11.884 21.2204C11.7986 21.1918 11.6865 21.1438 11.5482 21.0704C11.2708 20.9234 10.9274 20.6961 10.538 20.3905C9.7607 19.7806 8.84952 18.8977 7.98073 17.8346C7.71989 17.5154 7.46528 17.183 7.2208 16.8399Z" fill="#4E5964"/>
<path fill-rule="evenodd" clip-rule="evenodd" d="M14.6211 7.31819C13.9451 6.65732 13.0201 6.25 12 6.25C9.92893 6.25 8.25 7.92893 8.25 10C8.25 11.0201 8.65732 11.9451 9.31819 12.6211L10.379 11.5604C9.98949 11.1558 9.75 10.6059 9.75 10C9.75 8.75736 10.7574 7.75 12 7.75C12.6059 7.75 13.1558 7.98949 13.5604 8.37897L14.6211 7.31819ZM11.8179 12.2427C11.878 12.2475 11.9387 12.25 12 12.25C13.2426 12.25 14.25 11.2426 14.25 10C14.25 9.9387 14.2475 9.87798 14.2427 9.81792L15.4744 8.58628C15.6521 9.02257 15.75 9.49985 15.75 10C15.75 12.0711 14.0711 13.75 12 13.75C11.4999 13.75 11.0226 13.6521 10.5863 13.4744L11.8179 12.2427Z" fill="#4E5964"/>
<path d="M19 2L2 19" stroke="#4E5964" stroke-width="1.5" stroke-linecap="round" stroke-linejoin="round"/>
</svg>
