<svg width="24" height="25" viewBox="0 0 24 25" fill="none" xmlns="http://www.w3.org/2000/svg">
<path d="M17.002 5.97546C15.7314 4.58629 13.9606 3.72437 12.002 3.72437C8.13596 3.72437 5.00195 7.08223 5.00195 11.2244C5.00195 13.0631 5.71798 14.9294 6.70197 16.5684M18.4845 8.38913C18.5125 8.46245 18.5394 8.53636 18.5652 8.61082C18.6348 8.81142 18.6967 9.01608 18.7503 9.22437C18.9143 9.86108 19.002 10.5318 19.002 11.2244C19.002 16.3665 13.402 21.7244 12.002 21.7244C11.3405 21.7244 9.74162 20.5284 8.2387 18.7244C8.2123 18.6927 8.18594 18.6608 8.15961 18.6288" stroke="#4E5964" stroke-width="1.5" stroke-linecap="round"/>
<path d="M20.0942 3.72437L3.00195 20.6907" stroke="#4E5964" stroke-width="1.5" stroke-linecap="round" stroke-linejoin="round"/>
<path d="M14.7425 9.50425C14.5355 9.03921 14.2135 8.63449 13.8069 8.3282C13.4003 8.02191 12.9225 7.82412 12.4184 7.75344C11.9142 7.68277 11.4004 7.74153 10.9253 7.9242C10.4501 8.10687 10.0293 8.40744 9.70236 8.79761C9.37542 9.18779 9.15314 9.65475 9.05644 10.1545C8.95975 10.6543 8.99182 11.1705 9.14963 11.6544C9.30744 12.1384 9.58581 12.5743 9.95853 12.921" stroke="#4E5964" stroke-width="1.5"/>
</svg>
