<svg width="24" height="24" viewBox="0 0 24 24" fill="none" xmlns="http://www.w3.org/2000/svg">
<path d="M3 17.3077V14.0769C3 11.273 5.46243 9 8.5 9H12M4.5 19.4076C4.65677 19.5609 4.82378 19.7052 5 19.8395C5.95094 20.5645 7.17037 21 8.5 21H15.5C18.5376 21 21 18.727 21 15.9231V14.0769C21 11.273 18.5376 9 15.5 9H15" stroke="#4E5964" stroke-width="1.5" stroke-linecap="round"/>
<path d="M16.5 9V8" stroke="#4E5964" stroke-width="1.5" stroke-linecap="round"/>
<path fill-rule="evenodd" clip-rule="evenodd" d="M12 11.875C12.9665 11.875 13.75 12.6585 13.75 13.625C13.75 14.3227 13.3407 14.923 12.75 15.2041V16.625C12.75 17.0392 12.4142 17.375 12 17.375C11.5858 17.375 11.25 17.0392 11.25 16.625V15.2041C10.6593 14.923 10.25 14.3227 10.25 13.625C10.25 12.6585 11.0335 11.875 12 11.875ZM12 13.125C11.7239 13.125 11.5 13.3489 11.5 13.625C11.5 13.9011 11.7239 14.125 12 14.125C12.2761 14.125 12.5 13.9011 12.5 13.625C12.5 13.3489 12.2761 13.125 12 13.125Z" fill="#4E5964"/>
<path d="M19 2L2 19" stroke="#4E5964" stroke-width="1.5" stroke-linecap="round" stroke-linejoin="round"/>
<path d="M8 9V5.89286C8 4.29518 9.35865 3 11.0346 3H13.1044C14.3688 3 15.4497 3.7486 15.886 4.8062M15.886 4.8062C15.9311 4.91529 15.9692 5.02767 16 5.14286L15.886 4.8062Z" stroke="#4E5964" stroke-width="1.5" stroke-linecap="round"/>
</svg>
