<svg width="24" height="24" viewBox="0 0 24 24" fill="none" xmlns="http://www.w3.org/2000/svg">
<path d="M3 17.3077V14.0769C3 11.273 5.46243 9 8.5 9H12M4.5 19.4076C4.65677 19.5609 4.82378 19.7052 5 19.8395C5.95094 20.5645 7.17037 21 8.5 21H15.5C18.5376 21 21 18.727 21 15.9231V14.0769C21 11.273 18.5376 9 15.5 9H15" stroke="#4E5964" stroke-width="1.5" stroke-linecap="round"/>
<path d="M16.5 9V8" stroke="#4E5964" stroke-width="1.5" stroke-linecap="round"/>
<path d="M19 2L2 19" stroke="#4E5964" stroke-width="1.5" stroke-linecap="round" stroke-linejoin="round"/>
<path d="M8 9V5.89286C8 4.29518 9.35865 3 11.0346 3H13.1044C14.3688 3 15.4497 3.7486 15.886 4.8062M15.886 4.8062C15.9311 4.91529 15.9692 5.02767 16 5.14286L15.886 4.8062Z" stroke="#4E5964" stroke-width="1.5" stroke-linecap="round"/>
<path d="M13.3 13.85C13.3 14.4851 12.7851 15 12.15 15C11.5149 15 11 14.4851 11 13.85C11 13.2148 11.5149 12.7 12.15 12.7C12.7851 12.7 13.3 13.2148 13.3 13.85Z" stroke="#4E5964" stroke-width="1.5"/>
<path d="M12.1504 18V15.5" stroke="#4E5964" stroke-width="1.5" stroke-linecap="round"/>
</svg>
