<svg width="24" height="24" viewBox="0 0 24 24" fill="none" xmlns="http://www.w3.org/2000/svg">
<path d="M3 13.5C3 11.0147 5.01472 9 7.5 9H8.625H15.375H16.5C18.9853 9 21 11.0147 21 13.5V16.5C21 18.9853 18.9853 21 16.5 21H7.5C5.01472 21 3 18.9853 3 16.5V13.5Z" stroke="#4E5964" stroke-width="1.5"/>
<path d="M8 9V6C8 4.34315 9.34315 3 11 3V3H13.1516C14.7247 3 16 4.27525 16 5.84835V5.84835V9" stroke="#4E5964" stroke-width="1.5" stroke-linecap="round"/>
<path d="M12 15C12.5523 15 13 14.5523 13 14C13 13.4477 12.5523 13 12 13C11.4477 13 11 13.4477 11 14C11 14.5523 11.4477 15 12 15Z" stroke="#4E5964" stroke-width="1.5" stroke-miterlimit="10" stroke-linecap="round" stroke-linejoin="round"/>
<path d="M12 15L12 17" stroke="#4E5964" stroke-width="1.5" stroke-miterlimit="10" stroke-linecap="round" stroke-linejoin="round"/>
</svg>
