<svg width="24" height="24" viewBox="0 0 24 24" fill="none" xmlns="http://www.w3.org/2000/svg">
<path d="M12 15C12.5523 15 13 14.5523 13 14C13 13.4477 12.5523 13 12 13C11.4477 13 11 13.4477 11 14C11 14.5523 11.4477 15 12 15Z" fill="#00A881" stroke="#00A881" stroke-width="1.5" stroke-miterlimit="10" stroke-linecap="round" stroke-linejoin="round"/>
<path d="M12 15L12 17" stroke="#00A881" stroke-width="1.5" stroke-miterlimit="10" stroke-linecap="round" stroke-linejoin="round"/>
<path fill-rule="evenodd" clip-rule="evenodd" d="M13.6893 8.25H8.625H8.5C5.04822 8.25 2.25 11.0482 2.25 14.5V16.5C2.25 17.4343 2.45502 18.3208 2.82253 19.1168L3.97878 17.9606C3.83024 17.5004 3.75 17.0096 3.75 16.5V14.5C3.75 11.8766 5.87665 9.75 8.5 9.75H8.625H12.1893L13.6893 8.25ZM4.70438 19.3563C5.57126 20.5064 6.9488 21.25 8.5 21.25H15.5C18.1234 21.25 20.25 19.1234 20.25 16.5V14.5C20.25 11.8766 18.1234 9.75 15.5 9.75H15.375H14.3107L15.8034 8.25724C19.1143 8.4155 21.75 11.1499 21.75 14.5V16.5C21.75 19.9518 18.9518 22.75 15.5 22.75H8.5C6.53485 22.75 4.78153 21.843 3.63579 20.4249L4.70438 19.3563Z" fill="#00A881"/>
<path d="M19 2L2 19" stroke="#00A881" stroke-width="1.5" stroke-linecap="round" stroke-linejoin="round"/>
<path fill-rule="evenodd" clip-rule="evenodd" d="M15.75 5.32308C15.75 3.90201 14.598 2.75 13.1769 2.75H10.875C9.42525 2.75 8.25 3.92525 8.25 5.375V9C8.25 9.41421 7.91421 9.75 7.5 9.75C7.08579 9.75 6.75 9.41421 6.75 9V5.375C6.75 3.09683 8.59683 1.25 10.875 1.25H13.1769C15.2256 1.25 16.9211 2.76259 17.2074 4.73193L15.75 6.18934V5.32308ZM15.75 8.31066V9C15.75 9.41421 16.0858 9.75 16.5 9.75C16.9142 9.75 17.25 9.41421 17.25 9V6.81066L15.75 8.31066Z" fill="#00A881"/>
</svg>
