<svg width="24" height="24" viewBox="0 0 24 24" fill="none" xmlns="http://www.w3.org/2000/svg">
<path d="M3 13.5C3 11.0147 5.01472 9 7.5 9H8.625H15.375H16.5C18.9853 9 21 11.0147 21 13.5V16.5C21 18.9853 18.9853 21 16.5 21H7.5C5.01472 21 3 18.9853 3 16.5V13.5Z" stroke="#4E5964" stroke-width="1.5"/>
<path d="M8 9V6C8 4.34315 9.34315 3 11 3H13.1516C14.7247 3 16 4.27525 16 5.84835V9" stroke="#4E5964" stroke-width="1.5" stroke-linecap="round"/>
<path fill-rule="evenodd" clip-rule="evenodd" d="M12 11.875C12.9665 11.875 13.75 12.6585 13.75 13.625C13.75 14.3227 13.3407 14.923 12.75 15.2041V16.625C12.75 17.0392 12.4142 17.375 12 17.375C11.5858 17.375 11.25 17.0392 11.25 16.625V15.2041C10.6593 14.923 10.25 14.3227 10.25 13.625C10.25 12.6585 11.0335 11.875 12 11.875ZM12 13.125C11.7239 13.125 11.5 13.3489 11.5 13.625C11.5 13.9011 11.7239 14.125 12 14.125C12.2761 14.125 12.5 13.9011 12.5 13.625C12.5 13.3489 12.2761 13.125 12 13.125Z" fill="#4E5964"/>
</svg>
