<svg width="24" height="24" viewBox="0 0 24 24" fill="none" xmlns="http://www.w3.org/2000/svg">
<path d="M5.73633 20.0502C6.66931 20.648 7.77867 20.9946 8.969 20.9946H14.969C18.2827 20.9946 20.969 18.3083 20.969 14.9946V14.6196C20.969 11.9072 19.0491 9.64316 16.4941 9.1123" stroke="#4E5964" stroke-width="1.5" stroke-linecap="round"/>
<path d="M19 2L2 19M8 8.99989V5.89275C8 4.29507 9.35865 2.99989 11.0346 2.99989H13.1044C14.3688 2.99989 15.4497 3.74849 15.886 4.80609M15.886 4.80609C15.9311 4.91519 15.9692 5.02756 16 5.14275L15.886 4.80609ZM11.9935 8.99977H8.62439C5.51779 8.99977 2.99939 11.5182 2.99939 14.6248V14.9998C2.99939 15.8486 3.17564 16.6562 3.49353 17.388" stroke="#4E5964" stroke-width="1.5" stroke-linecap="round"/>
<path d="M12.1504 16.4946V13.9946" stroke="#4E5964" stroke-width="1.5" stroke-linecap="round"/>
</svg>
