<svg width="24" height="24" viewBox="0 0 24 24" fill="none" xmlns="http://www.w3.org/2000/svg">
<path d="M3 8.5C3 6.01472 5.01472 4 7.5 4H16.5C18.9853 4 21 6.01472 21 8.5V15.5C21 17.9853 18.9853 20 16.5 20H4C3.44772 20 3 19.5523 3 19V8.5Z" stroke="#4E5964" stroke-width="1.5"/>
<path d="M6.99805 10.5263V10.0556C6.99805 9.19645 7.69449 8.5 8.5536 8.5H9.33138C10.1905 8.5 10.8869 9.19645 10.8869 10.0556V10.5423C10.8869 11.1018 10.5865 11.6182 10.1001 11.8946L7.7849 13.2106C7.2985 13.4871 6.99805 14.0035 6.99805 14.563V15.5H10.8869" stroke="#4E5964" stroke-width="1.5" stroke-linecap="round" stroke-linejoin="round"/>
<path d="M17.5534 14.0641H12.8867L16.3435 8.5V15.5" stroke="#4E5964" stroke-width="1.5" stroke-linecap="round" stroke-linejoin="round"/>
</svg>
