<svg width="24" height="24" viewBox="0 0 24 24" fill="none" xmlns="http://www.w3.org/2000/svg">
<rect x="3" y="4" width="18" height="16" rx="4.5" stroke="#4E5964" stroke-width="1.5"/>
<path d="M8.19688 12.2C8.19688 12.8627 7.65962 13.4 6.99688 13.4C6.33413 13.4 5.79688 12.8627 5.79688 12.2C5.79688 11.5373 6.33413 11 6.99688 11C7.65962 11 8.19688 11.5373 8.19688 12.2Z" stroke="#4E5964" stroke-width="1.5"/>
<path d="M13.1988 12.2C13.1988 12.8627 12.6616 13.4 11.9988 13.4C11.3361 13.4 10.7988 12.8627 10.7988 12.2C10.7988 11.5373 11.3361 11 11.9988 11C12.6616 11 13.1988 11.5373 13.1988 12.2Z" stroke="#4E5964" stroke-width="1.5"/>
<path d="M18.1969 12.2C18.1969 12.8627 17.6596 13.4 16.9969 13.4C16.3341 13.4 15.7969 12.8627 15.7969 12.2C15.7969 11.5373 16.3341 11 16.9969 11C17.6596 11 18.1969 11.5373 18.1969 12.2Z" stroke="#4E5964" stroke-width="1.5"/>
</svg>
