<svg width="24" height="24" viewBox="0 0 24 24" fill="none" xmlns="http://www.w3.org/2000/svg">
<path d="M3.00195 8.5C3.00195 6.01472 5.01667 4 7.50195 4H16.502C18.9872 4 21.002 6.01472 21.002 8.5V15.5C21.002 17.9853 18.9872 20 16.502 20H4.00195C3.44967 20 3.00195 19.5523 3.00195 19V8.5Z" stroke="#4E5964" stroke-width="1.5"/>
<path d="M12.1239 12.4763C12.1239 11.5 12.3778 11.4254 12.8276 11.0517L13.4843 10.506C14.3535 9.78376 14.0898 8.53671 12.98 8.12175C12.7652 8.04145 12.5334 8 12.2991 8H12.1964C10.9844 8 10.002 8.84186 10.002 9.88034" stroke="#4E5964" stroke-width="1.5" stroke-linecap="round"/>
<path d="M12.6445 15.0828C12.6445 14.8066 12.4207 14.5828 12.1445 14.5828C11.8684 14.5828 11.6445 14.8066 11.6445 15.0828C11.6445 15.3589 11.8684 15.5828 12.1445 15.5828C12.4207 15.5828 12.6445 15.3589 12.6445 15.0828Z" stroke="#4E5964"/>
</svg>
