<svg width="24" height="24" viewBox="0 0 24 24" fill="none" xmlns="http://www.w3.org/2000/svg">
<path d="M2 9.5C2 6.46243 4.46243 4 7.5 4H16.5C19.5376 4 22 6.46243 22 9.5V14.5C22 17.5376 19.5376 20 16.5 20H3C2.44772 20 2 19.5523 2 19V9.5Z" stroke="#4E5964" stroke-width="1.5"/>
<path d="M12.1219 12.4763C12.1219 11.5 12.3758 11.4254 12.8256 11.0517L13.4823 10.506C14.3516 9.78376 14.0878 8.53671 12.978 8.12175C12.7633 8.04145 12.5314 8 12.2971 8H12.1945C10.9825 8 10 8.84186 10 9.88034" stroke="#4E5964" stroke-width="1.5" stroke-linecap="round"/>
<path d="M12.6426 15.082C12.6426 14.8059 12.4187 14.582 12.1426 14.582C11.8664 14.582 11.6426 14.8059 11.6426 15.082C11.6426 15.3582 11.8664 15.582 12.1426 15.582C12.4187 15.582 12.6426 15.3582 12.6426 15.082Z" stroke="#4E5964"/>
</svg>
