<svg width="24" height="24" viewBox="0 0 24 24" fill="none" xmlns="http://www.w3.org/2000/svg">
<path d="M3 8.5C3 6.01472 5.01472 4 7.5 4H16.5C18.9853 4 21 6.01472 21 8.5V15.5C21 17.9853 18.9853 20 16.5 20H4C3.44772 20 3 19.5523 3 19V8.5Z" stroke="#4E5964" stroke-width="1.5"/>
<path d="M12.1219 12.4763C12.1219 11.5 12.3758 11.4254 12.8256 11.0517L13.4823 10.506C14.3516 9.78376 14.0878 8.53671 12.978 8.12175C12.7633 8.04145 12.5314 8 12.2971 8H12.1945C10.9825 8 10 8.84186 10 9.88034" stroke="#4E5964" stroke-width="1.5" stroke-linecap="round"/>
<path d="M12.6426 15.0828C12.6426 14.8066 12.4187 14.5828 12.1426 14.5828C11.8664 14.5828 11.6426 14.8066 11.6426 15.0828C11.6426 15.3589 11.8664 15.5828 12.1426 15.5828C12.4187 15.5828 12.6426 15.3589 12.6426 15.0828Z" stroke="#4E5964"/>
</svg>
