<svg width="24" height="24" viewBox="0 0 24 24" fill="none" xmlns="http://www.w3.org/2000/svg">
<rect x="3" y="4" width="18" height="16" rx="4.5" stroke="#4E5964" stroke-width="1.5"/>
<path d="M7 10.25C7.9665 10.25 8.75 11.0335 8.75 12C8.75 12.9665 7.9665 13.75 7 13.75C6.0335 13.75 5.25 12.9665 5.25 12C5.25 11.0335 6.0335 10.25 7 10.25ZM7 11.5C6.72386 11.5 6.5 11.7239 6.5 12C6.5 12.2761 6.72386 12.5 7 12.5C7.27614 12.5 7.5 12.2761 7.5 12C7.5 11.7239 7.27614 11.5 7 11.5Z" fill="#4E5964"/>
<path d="M12 10.25C12.9665 10.25 13.75 11.0335 13.75 12C13.75 12.9665 12.9665 13.75 12 13.75C11.0335 13.75 10.25 12.9665 10.25 12C10.25 11.0335 11.0335 10.25 12 10.25ZM12 11.5C11.7239 11.5 11.5 11.7239 11.5 12C11.5 12.2761 11.7239 12.5 12 12.5C12.2761 12.5 12.5 12.2761 12.5 12C12.5 11.7239 12.2761 11.5 12 11.5Z" fill="#4E5964"/>
<path d="M17 10.25C17.9665 10.25 18.75 11.0335 18.75 12C18.75 12.9665 17.9665 13.75 17 13.75C16.0335 13.75 15.25 12.9665 15.25 12C15.25 11.0335 16.0335 10.25 17 10.25ZM17 11.5C16.7239 11.5 16.5 11.7239 16.5 12C16.5 12.2761 16.7239 12.5 17 12.5C17.2761 12.5 17.5 12.2761 17.5 12C17.5 11.7239 17.2761 11.5 17 11.5Z" fill="#4E5964"/>
</svg>
