<svg width="24" height="24" viewBox="0 0 24 24" fill="none" xmlns="http://www.w3.org/2000/svg">
<path d="M3.00195 8.5C3.00195 6.01472 5.01667 4 7.50195 4H16.502C18.9872 4 21.002 6.01472 21.002 8.5V15.5C21.002 17.9853 18.9872 20 16.502 20H4.00195C3.44967 20 3.00195 19.5523 3.00195 19V8.5Z" stroke="#4E5964" stroke-width="1.5"/>
<path d="M7.00195 10.6096C7.00195 9.72386 7.67651 9 8.50195 9C9.3274 9 10.002 9.72386 10.002 10.6096C10.002 12.4 7.63213 12.5905 7.10846 14.2953C7.00195 14.6476 7.2771 15 7.62325 15H10.002" stroke="#4E5964" stroke-width="1.5" stroke-linecap="round" stroke-linejoin="round"/>
<path d="M16.1094 15V9.55511C16.1094 9.30718 15.9514 9.0878 15.719 9.02105C15.4866 8.9543 15.2355 9.04966 15.1054 9.25944C14.436 10.3656 13.7108 11.6243 13.0787 12.7305C12.9764 12.9117 12.9764 13.1501 13.0787 13.3312C13.1809 13.5124 13.3762 13.6268 13.59 13.6268H17.002" stroke="#4E5964" stroke-width="1.5" stroke-linecap="round" stroke-linejoin="round"/>
</svg>
