<svg width="24" height="24" viewBox="0 0 24 24" fill="none" xmlns="http://www.w3.org/2000/svg">
<path d="M12 21L12 18" stroke="#4E5964" stroke-width="1.5" stroke-linecap="round"/>
<path d="M8.40039 21H15.6004" stroke="#4E5964" stroke-width="1.5" stroke-linecap="round"/>
<path d="M8 8H10" stroke="#4E5964" stroke-width="1.5" stroke-linecap="round"/>
<path d="M5 11.0813V11.1308C5 11.5996 5.04697 12.0575 5.13647 12.5M19 11V11.0813C19 14.9024 15.9024 18 12.0813 18H11.8692C10.2096 18 8.68737 17.4114 7.5 16.4316" stroke="#4E5964" stroke-width="1.5" stroke-linecap="round"/>
<path d="M18.5 2.5L4 16.5" stroke="#4E5964" stroke-width="1.5" stroke-linecap="round" stroke-linejoin="round"/>
<path d="M16.5 7.5V11C16.5 13.4853 14.4853 15.5 12 15.5C10.9555 15.5 9.99418 15.1442 9.23055 14.5471M7.5 13V7.5C7.5 5.01472 9.51472 3 12 3C13.5602 3 14.935 3.79401 15.7422 5" stroke="#4E5964" stroke-width="1.5" stroke-linecap="round"/>
</svg>
