<svg width="24" height="24" viewBox="0 0 24 24" fill="none" xmlns="http://www.w3.org/2000/svg">
<path d="M12 21L12 18" stroke="#4E5964" stroke-width="1.5" stroke-linecap="round"/>
<path d="M8.40039 21H15.6004" stroke="#4E5964" stroke-width="1.5" stroke-linecap="round"/>
<path d="M8 8H10" stroke="#4E5964" stroke-width="1.5" stroke-linecap="round"/>
<path fill-rule="evenodd" clip-rule="evenodd" d="M8.25 7.5C8.25 5.42893 9.92893 3.75 12 3.75C13.6752 3.75 15.0939 4.84845 15.575 6.36437L16.7268 5.21254C15.8767 3.45905 14.0795 2.25 12 2.25C9.10051 2.25 6.75 4.60051 6.75 7.5V11.5C6.75 12.5504 7.0585 13.5288 7.58985 14.3495L8.68488 13.2545C8.40726 12.731 8.25 12.1338 8.25 11.5V7.5ZM9.64345 14.4172L8.57855 15.4821C9.49746 16.2724 10.693 16.75 12 16.75C14.8995 16.75 17.25 14.3995 17.25 11.5V7.5C17.25 7.28006 17.2365 7.06328 17.2102 6.85045L15.75 8.31066V11.5C15.75 13.5711 14.0711 15.25 12 15.25C11.1073 15.25 10.2874 14.9381 9.64345 14.4172Z" fill="#4E5964"/>
<path fill-rule="evenodd" clip-rule="evenodd" d="M7.04438 14.895C6.23332 13.8569 5.75 12.5503 5.75 11.1308V11.0813C5.75 10.6671 5.41421 10.3313 5 10.3313C4.58579 10.3313 4.25 10.6671 4.25 11.0813V11.1308C4.25 12.9647 4.8979 14.6472 5.97729 15.962L7.04438 14.895ZM7.03795 17.0227C8.35277 18.1021 10.0353 18.75 11.8692 18.75H12.0813C16.3166 18.75 19.75 15.3166 19.75 11.0813V11C19.75 10.5858 19.4142 10.25 19 10.25C18.5858 10.25 18.25 10.5858 18.25 11V11.0813C18.25 14.4882 15.4882 17.25 12.0813 17.25H11.8692C10.4497 17.25 9.14315 16.7667 8.10504 15.9556L7.03795 17.0227Z" fill="#4E5964"/>
<path d="M19 2L2 19" stroke="#4E5964" stroke-width="1.5" stroke-linecap="round" stroke-linejoin="round"/>
</svg>
