<svg width="24" height="24" viewBox="0 0 24 24" fill="none" xmlns="http://www.w3.org/2000/svg">
<path d="M11.0352 4.67969L4.1734 13.2791" stroke="#4E5964" stroke-width="1.5" stroke-linecap="round"/>
<path d="M10.4008 5.62612L13.5372 9.55936C13.5569 9.58396 13.5244 9.6159 13.5001 9.59587L9.6228 6.39495L5.74549 3.19403C5.69668 3.15373 5.74787 3.0775 5.80364 3.10744L10.2309 5.48446C10.2965 5.51969 10.3543 5.56789 10.4008 5.62612Z" stroke="#4E5964" stroke-width="1.5" stroke-linecap="round"/>
<path d="M20.4781 14.9986L16.4863 20.4665C15.967 21.1778 14.9744 21.1778 14.4551 20.4665L10.4633 14.9986C10.0088 14.376 10.1161 13.4679 10.7006 12.9908L11.8819 12.0265C12.1064 11.8432 12.3795 11.7441 12.6602 11.7441H18.2812C18.5619 11.7441 18.835 11.8432 19.0595 12.0265L20.2408 12.9908C20.8253 13.4679 20.9326 14.376 20.4781 14.9986Z" stroke="#4E5964" stroke-width="1.5"/>
<line x1="10.1816" y1="14.2998" x2="20.7598" y2="14.2998" stroke="#4E5964" stroke-width="1.5"/>
<path d="M15.4707 14.3887V21" stroke="#4E5964" stroke-width="1.5"/>
<path d="M16 8.84131L16.1206 8.00007" stroke="#4E5964" stroke-width="1.5" stroke-linecap="round"/>
<path d="M10 10L10.7862 10.3226" stroke="#4E5964" stroke-width="1.5" stroke-linecap="round"/>
</svg>
