<svg width="24" height="24" viewBox="0 0 24 24" fill="none" xmlns="http://www.w3.org/2000/svg">
<path d="M5.34541 13.0441C3.99506 11.9513 3.78627 9.97076 4.87906 8.62041L7.2647 5.67253C8.35749 4.32218 10.338 4.11339 11.6884 5.20619L18.5552 10.7633C19.9056 11.8561 20.1144 13.8367 19.0216 15.187L16.6359 18.1349C15.5432 19.4852 13.5626 19.694 12.2123 18.6012L5.34541 13.0441Z" stroke="#4E5964" stroke-width="1.5"/>
<path d="M15.75 13C16.7165 13 17.5 13.7835 17.5 14.75C17.5 15.7165 16.7165 16.5 15.75 16.5C14.7835 16.5 14 15.7165 14 14.75C14 13.7835 14.7835 13 15.75 13ZM15.75 14.25C15.4739 14.25 15.25 14.4739 15.25 14.75C15.25 15.0261 15.4739 15.25 15.75 15.25C16.0261 15.25 16.25 15.0261 16.25 14.75C16.25 14.4739 16.0261 14.25 15.75 14.25Z" fill="#4E5964"/>
<path d="M7.34375 10.248L9.69288 7.34527" stroke="#4E5964" stroke-width="1.5" stroke-linecap="round"/>
<path d="M20.3802 8.96031L20.1543 5.56738" stroke="#4E5964" stroke-width="1.5" stroke-linecap="round" stroke-linejoin="round"/>
<path d="M3.62861 15.0002L3.91406 18.4731" stroke="#4E5964" stroke-width="1.5" stroke-linecap="round" stroke-linejoin="round"/>
<path d="M12.9998 2.6171C12.9998 2.6171 15.4271 3.58523 16.9186 4.89318C18.3231 6.12486 20.3803 8.96044 20.3803 8.96044" stroke="#4E5964" stroke-width="1.5" stroke-linecap="round" stroke-linejoin="round"/>
<path d="M11.2788 21.3858C11.2788 21.3858 8.51209 20.1584 6.95783 18.8381C5.53077 17.6258 3.62719 15 3.62719 15" stroke="#4E5964" stroke-width="1.5" stroke-linecap="round" stroke-linejoin="round"/>
</svg>
