<svg width="24" height="24" viewBox="0 0 24 24" fill="none" xmlns="http://www.w3.org/2000/svg">
<path d="M5 7.5C5 5.01472 7.01472 3 9.5 3H14.5C16.9853 3 19 5.01472 19 7.5V16.5C19 18.9853 16.9853 21 14.5 21H9.5C7.01472 21 5 18.9853 5 16.5V7.5Z" stroke="#4E5964" stroke-width="1.5"/>
<path d="M13.4 17.2C13.4 17.8627 12.8627 18.4 12.2 18.4C11.5373 18.4 11 17.8627 11 17.2C11 16.5373 11.5373 16 12.2 16C12.8627 16 13.4 16.5373 13.4 17.2Z" stroke="#4E5964" stroke-width="1.5"/>
<path d="M10 6L14 6" stroke="#4E5964" stroke-width="1.5" stroke-linecap="round"/>
</svg>
