<svg width="24" height="24" viewBox="0 0 24 24" fill="none" xmlns="http://www.w3.org/2000/svg">
<path d="M5 7C5 4.79086 6.79086 3 9 3H15C17.2091 3 19 4.79086 19 7V17C19 19.2091 17.2091 21 15 21H9C6.79086 21 5 19.2091 5 17V7Z" stroke="#4E5964" stroke-width="1.5"/>
<path d="M9 3L9.99049 4.54076C10.1745 4.82698 10.4914 5 10.8317 5H13.1683C13.5086 5 13.8255 4.82698 14.0095 4.54076L15 3" stroke="#4E5964" stroke-width="1.5"/>
<path d="M12 15.25C12.9665 15.25 13.75 16.0335 13.75 17C13.75 17.9665 12.9665 18.75 12 18.75C11.0335 18.75 10.25 17.9665 10.25 17C10.25 16.0335 11.0335 15.25 12 15.25ZM12 16.5C11.7239 16.5 11.5 16.7239 11.5 17C11.5 17.2761 11.7239 17.5 12 17.5C12.2761 17.5 12.5 17.2761 12.5 17C12.5 16.7239 12.2761 16.5 12 16.5Z" fill="#4E5964"/>
</svg>
