<svg width="24" height="24" viewBox="0 0 24 24" fill="none" xmlns="http://www.w3.org/2000/svg">
<path fill-rule="evenodd" clip-rule="evenodd" d="M11.5821 12.4193C9.45086 10.2309 9.34019 6.52456 10.6821 3.78037C10.7661 3.58059 10.7278 3.35035 10.5837 3.18848C10.4396 3.02662 10.2153 2.96194 10.0072 3.02221C8.40437 3.43537 6.94133 4.27003 5.76998 5.43956C2.14451 8.97163 2.06797 14.7739 5.599 18.4003C9.22503 21.9318 15.027 21.8558 18.5593 18.2305C19.7294 17.0599 20.5645 15.597 20.9776 13.9942C21.0382 13.7858 20.9734 13.5611 20.8112 13.4169C20.649 13.2727 20.4183 13.2347 20.2184 13.3193C17.4755 14.6606 13.7697 14.5493 11.5821 12.4193Z" stroke="#4E5964" stroke-width="1.5" stroke-linecap="round" stroke-linejoin="round"/>
</svg>
