<svg width="24" height="24" viewBox="0 0 24 24" fill="none" xmlns="http://www.w3.org/2000/svg">
<path d="M5 14.75C6.51878 14.75 7.75 13.5188 7.75 12H6.25C6.25 12.6904 5.69036 13.25 5 13.25V14.75ZM2.25 12C2.25 13.5188 3.48122 14.75 5 14.75V13.25C4.30964 13.25 3.75 12.6904 3.75 12H2.25ZM5 9.25C3.48122 9.25 2.25 10.4812 2.25 12H3.75C3.75 11.3096 4.30964 10.75 5 10.75V9.25ZM7.75 12C7.75 10.4812 6.51878 9.25 5 9.25V10.75C5.69036 10.75 6.25 11.3096 6.25 12H7.75ZM12 14.75C13.5188 14.75 14.75 13.5188 14.75 12H13.25C13.25 12.6904 12.6904 13.25 12 13.25V14.75ZM9.25 12C9.25 13.5188 10.4812 14.75 12 14.75V13.25C11.3096 13.25 10.75 12.6904 10.75 12H9.25ZM12 9.25C10.4812 9.25 9.25 10.4812 9.25 12H10.75C10.75 11.3096 11.3096 10.75 12 10.75V9.25ZM14.75 12C14.75 10.4812 13.5188 9.25 12 9.25V10.75C12.6904 10.75 13.25 11.3096 13.25 12H14.75ZM20.25 12C20.25 12.6904 19.6904 13.25 19 13.25V14.75C20.5188 14.75 21.75 13.5188 21.75 12H20.25ZM19 10.75C19.6904 10.75 20.25 11.3096 20.25 12H21.75C21.75 10.4812 20.5188 9.25 19 9.25V10.75ZM17.75 12C17.75 11.3096 18.3096 10.75 19 10.75V9.25C17.4812 9.25 16.25 10.4812 16.25 12H17.75ZM19 13.25C18.3096 13.25 17.75 12.6904 17.75 12H16.25C16.25 13.5188 17.4812 14.75 19 14.75V13.25Z" fill="#00A881"/>
</svg>
