<svg width="24" height="24" viewBox="0 0 24 24" fill="none" xmlns="http://www.w3.org/2000/svg">
<path d="M8.01711 19.2469C6.65598 18.5588 5.50934 17.5015 4.70445 16.1922C3.89956 14.883 3.46789 13.373 3.45735 11.8299C3.44681 10.2868 3.85782 8.77094 4.64475 7.45049C5.43168 6.13004 6.56376 5.05667 7.91536 4.34951C9.26696 3.64234 10.7852 3.32903 12.3016 3.44435C13.818 3.55966 15.2733 4.0991 16.506 5.00279C17.7386 5.90648 18.7004 7.13908 19.2845 8.5638" stroke="#4E5964" stroke-width="1.82622" stroke-linecap="round"/>
<path d="M20.4038 20.2314L19.8175 20.7929C19.3318 21.2579 18.5612 21.2412 18.0961 20.7556L16.0357 18.6038C15.5043 18.0489 14.5981 18.1188 14.1582 18.7487L14.1205 18.8027C13.5306 19.6473 12.2236 19.4231 11.949 18.4301L10.0473 11.5528C9.78884 10.6183 10.6733 9.77138 11.5957 10.07L18.3841 12.268C19.3643 12.5854 19.5317 13.9008 18.6623 14.4536L18.6067 14.4889C17.9584 14.9011 17.8493 15.8034 18.3806 16.3583L20.4411 18.5101C20.9061 18.9957 20.8894 19.7664 20.4038 20.2314Z" stroke="#4E5964" stroke-width="1.82622"/>
</svg>
