<svg width="25" height="24" viewBox="0 0 25 24" fill="none" xmlns="http://www.w3.org/2000/svg">
<path d="M9.07865 16.4684C8.1558 15.9972 7.37969 15.2757 6.83645 14.384C6.29321 13.4923 6.00409 12.4652 6.00117 11.4168C5.99825 10.3684 6.28165 9.33968 6.81991 8.44474C7.35818 7.54979 8.13025 6.82367 9.05047 6.34693C9.97068 5.8702 11.003 5.66151 12.033 5.74403C13.0629 5.82654 14.0501 6.19703 14.8851 6.81438C15.72 7.43173 16.3701 8.27179 16.763 9.24134" stroke="#4E5964" stroke-width="1.5" stroke-linecap="round" stroke-dasharray="5 20"/>
<path d="M17.5357 17.4233L17.1374 17.8047C16.8075 18.1207 16.2839 18.1093 15.9679 17.7794L14.568 16.3175C14.207 15.9405 13.5914 15.988 13.2925 16.4159L13.2669 16.4526C12.8661 17.0264 11.9781 16.8741 11.7916 16.1994L10.4995 11.527C10.324 10.8921 10.9248 10.3167 11.5515 10.5196L16.1636 12.0129C16.8295 12.2285 16.9433 13.1223 16.3526 13.4978L16.3148 13.5218C15.8744 13.8019 15.8002 14.4149 16.1612 14.7919L17.5611 16.2538C17.877 16.5837 17.8657 17.1073 17.5357 17.4233Z" stroke="#4E5964" stroke-width="1.5"/>
<rect x="3.02344" y="3.00049" width="18" height="18" rx="4.5" stroke="#4E5964" stroke-width="1.5"/>
</svg>
