<svg width="25" height="24" viewBox="0 0 25 24" fill="none" xmlns="http://www.w3.org/2000/svg">
<path d="M8.04054 19.2469C6.67942 18.5588 5.53278 17.5015 4.72789 16.1922C3.923 14.883 3.49133 13.373 3.48079 11.8299C3.47025 10.2868 3.88125 8.77094 4.66818 7.45049C5.45511 6.13004 6.5872 5.05667 7.93879 4.34951C9.29039 3.64234 10.8086 3.32903 12.3251 3.44435C13.8415 3.55966 15.2968 4.0991 16.5294 5.00279C17.762 5.90648 18.7238 7.13908 19.308 8.5638" stroke="#4E5964" stroke-width="1.82622" stroke-linecap="round"/>
<path d="M20.4272 20.2314L19.8409 20.7929C19.3553 21.2579 18.5846 21.2412 18.1196 20.7556L16.0591 18.6038C15.5277 18.0489 14.6216 18.1188 14.1817 18.7487L14.144 18.8027C13.554 19.6473 12.2471 19.4231 11.9725 18.4301L10.0707 11.5528C9.81228 10.6183 10.6967 9.77138 11.6191 10.07L18.4076 12.268C19.3877 12.5854 19.5551 13.9008 18.6857 14.4536L18.6302 14.4889C17.9818 14.9011 17.8727 15.8034 18.404 16.3583L20.4645 18.5101C20.9296 18.9957 20.9129 19.7664 20.4272 20.2314Z" stroke="#4E5964" stroke-width="1.82622"/>
</svg>
