<svg width="24" height="24" viewBox="0 0 24 24" fill="none" xmlns="http://www.w3.org/2000/svg">
<path d="M18.9082 13.7268C19.4725 13.368 19.8615 12.6217 19.8615 11.7526C19.8615 10.8835 19.4725 10.1367 18.9082 9.77344" stroke="#4E5964" stroke-width="1.5" stroke-linecap="round" stroke-linejoin="round"/>
<path d="M20.5454 15.2609C21.4234 14.4882 21.9999 13.2062 21.9999 11.7518C21.9999 10.2954 21.4225 9.01241 20.543 8.24023" stroke="#4E5964" stroke-width="1.5" stroke-linecap="round" stroke-linejoin="round"/>
<path d="M18.6151 2L2 19" stroke="#4E5964" stroke-width="1.5" stroke-linecap="round" stroke-linejoin="round"/>
<path d="M2.97656 12.2459V11.5963C2.97656 8.46507 5.29666 5.92672 8.15865 5.92672C8.15865 5.92672 8.15865 5.92672 8.15865 5.92672C8.15865 5.92672 8.56872 5.92672 9.25784 5.92672C9.94696 5.92672 10.6071 5.62336 11.0895 5.08499C11.572 4.54664 12.4211 3.59905 12.4211 3.59899C12.4211 3.59898 12.4211 3.59899 12.4211 3.59898C13.4623 2.43712 15.5298 3.07472 15.8201 4.57458M2.97656 12.2459C2.97656 12.4535 2.98679 12.6586 3.00673 12.8605M2.97656 12.2459L3.00673 12.8605M8.14681 17.9025H9.17452C9.91648 17.9025 10.6268 18.2314 11.1433 18.8142C11.6598 19.397 12.5016 20.3468 12.5016 20.3469C12.5016 20.3469 12.5016 20.3469 12.5016 20.3469C13.574 21.5569 15.3504 20.9738 15.7656 19.5132C15.8857 19.0906 15.8967 18.6425 15.9755 18.2103C16.6922 14.278 16.8658 11.5771 16.4008 8.10058M8.14681 17.9025C7.9776 17.9025 7.81029 17.8936 7.64525 17.8762M8.14681 17.9025L7.64525 17.8762M3.00673 12.8605C3.02352 13.0305 3.04719 13.1982 3.07743 13.3633M3.07743 13.3633C3.10425 13.5098 3.13624 13.6542 3.17318 13.7963M3.07743 13.3633L3.17318 13.7963M3.17318 13.7963C3.22149 13.9822 3.27828 14.1641 3.34304 14.3417M3.34304 14.3417C3.42588 14.5687 3.52177 14.7885 3.62971 15M3.34304 14.3417L3.62971 15M3.62971 15C3.72804 15.1926 3.83637 15.3783 3.95392 15.5562M3.95392 15.5562C4.05563 15.7102 4.16424 15.8583 4.27927 16M3.95392 15.5562L4.27927 16M4.27927 16C4.40394 16.1536 4.53614 16.2998 4.67525 16.4378L4.27927 16ZM7.64525 17.8762C7.49524 17.8604 7.34711 17.8376 7.20113 17.8081M7.64525 17.8762L7.20113 17.8081M7.20113 17.8081C7.012 17.7698 6.82647 17.7203 6.64515 17.6602" stroke="#4E5964" stroke-width="1.5" stroke-linecap="round"/>
</svg>
