<svg width="24" height="24" viewBox="0 0 24 24" fill="none" xmlns="http://www.w3.org/2000/svg">
<path d="M16.3195 11.5C16.3515 14.1397 16.1304 16.7818 15.6563 19.3896C15.528 20.0949 14.6769 20.3876 14.142 19.9103L11 17.107" stroke="#4E5964" stroke-width="1.5" stroke-linecap="round"/>
<path d="M8.83614 15.2499C8.4427 15.016 7.99863 14.8738 7.53722 14.8377L6.84374 14.7833C5.80297 14.7018 5 13.8334 5 12.7894L5 11.0834C5 9.97879 5.89543 9.08336 7 9.08336H7.40166C8.13833 9.08336 8.84924 8.81231 9.39892 8.32187L14.1422 4.08983C14.6771 3.61255 15.5282 3.90524 15.6565 4.61058C15.8802 5.84133 16.0476 7.07971 16.1587 8.32187" stroke="#4E5964" stroke-width="1.5" stroke-linecap="round"/>
<path d="M20 5L5.5 18.5" stroke="#4E5964" stroke-width="1.5" stroke-linecap="round" stroke-linejoin="round"/>
</svg>
