<svg width="24" height="24" viewBox="0 0 24 24" fill="none" xmlns="http://www.w3.org/2000/svg">
<path d="M18.9082 13.7268C19.4725 13.368 19.8615 12.6217 19.8615 11.7526C19.8615 10.8835 19.4725 10.1367 18.9082 9.77344" stroke="#4E5964" stroke-width="1.5" stroke-linecap="round" stroke-linejoin="round"/>
<path d="M20.5454 15.2609C21.4234 14.4882 21.9999 13.2062 21.9999 11.7518C21.9999 10.2954 21.4225 9.01241 20.543 8.24023" stroke="#4E5964" stroke-width="1.5" stroke-linecap="round" stroke-linejoin="round"/>
<path d="M2.97656 12.2459V11.5963C2.97656 8.46507 5.29666 5.92672 8.15865 5.92672C8.15865 5.92672 8.56872 5.92672 9.25784 5.92672C9.94696 5.92672 10.6071 5.62336 11.0895 5.08499C11.572 4.54662 12.4211 3.59899 12.4211 3.59899C13.4623 2.43712 15.5298 3.07472 15.8201 4.57458L16.1639 6.66179M2.97656 12.2459C2.97656 12.4535 2.98679 12.6586 3.00673 12.8605M2.97656 12.2459L3.00673 12.8605M3.00673 12.8605C3.02352 13.0305 3.04719 13.1982 3.07743 13.3633M3.07743 13.3633C3.10425 13.5098 3.13624 13.6542 3.17318 13.7963M3.07743 13.3633L3.17318 13.7963M3.17318 13.7963C3.22149 13.9822 3.27828 14.1641 3.34304 14.3417M3.34304 14.3417C3.42588 14.5687 3.52177 14.7885 3.62971 15M3.34304 14.3417L3.62971 15M3.62971 15C3.72804 15.1926 3.83637 15.3783 3.95392 15.5562M3.95392 15.5562C4.05563 15.7102 4.16424 15.8583 4.27927 16M3.95392 15.5562L4.27927 16M4.27927 16C4.40394 16.1536 4.53614 16.2998 4.67525 16.4378M4.27927 16C4.27927 16 4.52061 16.2668 4.67525 16.4378M4.67525 16.4378L5.6602 17.049M8.10371 17.9025H8.46065H9.17452C9.91648 17.9025 10.6268 18.2314 11.1433 18.8142C11.6598 19.397 12.5016 20.3469 12.5016 20.3469C13.574 21.5569 15.3504 20.9738 15.7656 19.5132C15.8857 19.0906 15.8966 18.6434 15.9754 18.2112C16.5686 14.9564 16.7898 12.5453 16.5849 9.83994L16.5637 9.62995" stroke="#4E5964" stroke-width="1.5" stroke-linecap="round"/>
<path d="M20.0922 3L3 19.9663" stroke="#4E5964" stroke-width="1.5" stroke-linecap="round" stroke-linejoin="round"/>
</svg>
