<svg width="24" height="24" viewBox="0 0 24 24" fill="none" xmlns="http://www.w3.org/2000/svg">
<path d="M19.3008 13.7268C19.8782 13.368 20.2762 12.6217 20.2762 11.7526C20.2762 10.8835 19.8782 10.1367 19.3008 9.77344" stroke="#00A881" stroke-width="1.5" stroke-linecap="round" stroke-linejoin="round"/>
<path d="M20.9751 15.2609C21.8735 14.4882 22.4634 13.2062 22.4634 11.7518C22.4634 10.2954 21.8725 9.01241 20.9727 8.24023" stroke="#00A881" stroke-width="1.5" stroke-linecap="round" stroke-linejoin="round"/>
<path d="M19 2L2 19" stroke="#00A881" stroke-width="1.5" stroke-linecap="round" stroke-linejoin="round"/>
<path d="M3 12.2459V11.5963C3 8.46507 5.37385 5.92672 8.30215 5.92672C8.30215 5.92672 8.30215 5.92672 8.30215 5.92672C8.30215 5.92672 8.72172 5.92672 9.4268 5.92672C10.1319 5.92672 10.8073 5.62336 11.3009 5.08499C11.7945 4.54664 12.6633 3.59905 12.6634 3.59899C12.6634 3.59898 12.6634 3.59899 12.6634 3.59898C13.7287 2.43712 15.844 3.07472 16.1411 4.57458M3 12.2459C3 12.4535 3.01047 12.6586 3.03086 12.8605M3 12.2459L3.03086 12.8605M8.29003 17.9025H9.34155C10.1007 17.9025 10.8275 18.2314 11.3559 18.8142C11.8844 19.397 12.7457 20.3468 12.7457 20.3469C12.7457 20.3469 12.7457 20.3469 12.7457 20.3469C13.8395 21.5531 15.649 20.9775 16.0812 19.5271C16.2095 19.0966 16.2205 18.6378 16.3028 18.1961C17.0338 14.2715 17.2105 11.5729 16.7353 8.10058M8.29003 17.9025C8.1169 17.9025 7.94571 17.8936 7.77685 17.8762M8.29003 17.9025L7.77685 17.8762M3.03086 12.8605C3.04804 13.0305 3.07226 13.1982 3.1032 13.3633M3.1032 13.3633C3.13065 13.5098 3.16338 13.6542 3.20117 13.7963M3.1032 13.3633L3.20117 13.7963M3.20117 13.7963C3.25061 13.9822 3.3087 14.1641 3.37497 14.3417M3.37497 14.3417C3.45972 14.5687 3.55784 14.7885 3.66828 15M3.37497 14.3417L3.66828 15M3.66828 15C3.76889 15.1926 3.87972 15.3783 4 15.5562M4 15.5562C4.10406 15.7102 4.21519 15.8583 4.33288 16M4 15.5562L4.33288 16M4.33288 16C4.46045 16.1536 4.59571 16.2998 4.73804 16.4378L4.33288 16ZM7.77685 17.8762C7.62337 17.8604 7.47181 17.8376 7.32245 17.8081M7.77685 17.8762L7.32245 17.8081M7.32245 17.8081C7.12892 17.7698 6.9391 17.7203 6.75358 17.6602" stroke="#00A881" stroke-width="1.5" stroke-linecap="round"/>
</svg>
