<svg width="24" height="24" viewBox="0 0 24 24" fill="none" xmlns="http://www.w3.org/2000/svg">
<path d="M18.3008 13.7268C18.8782 13.368 19.2762 12.6217 19.2762 11.7526C19.2762 10.8835 18.8782 10.1367 18.3008 9.77344" stroke="#4E5964" stroke-width="1.5" stroke-linecap="round" stroke-linejoin="round"/>
<path d="M19.9751 15.2609C20.8735 14.4882 21.4634 13.2062 21.4634 11.7518C21.4634 10.2954 20.8725 9.01241 19.9727 8.24023" stroke="#4E5964" stroke-width="1.5" stroke-linecap="round" stroke-linejoin="round"/>
<path fill-rule="evenodd" clip-rule="evenodd" d="M16.1181 5.82083C16.098 5.71538 16.0774 5.6091 16.0563 5.50194C16.0299 5.36767 16.0145 5.2503 15.9962 5.11176C15.9847 5.02456 15.9721 4.92898 15.9549 4.81551C15.9159 4.55692 15.857 4.24742 15.727 3.9388C15.3529 3.05029 14.5258 2.48839 13.6722 2.31168C12.81 2.1332 11.8118 2.32692 11.1106 3.09171L9.74812 4.57771C9.39078 4.96745 8.91328 5.17629 8.4268 5.17629H8.42268H8.41855H8.41444H8.41033H8.40623H8.40213H8.39804H8.39396H8.38989H8.38582H8.38176H8.3777H8.37365H8.36961H8.36557H8.36154H8.35752H8.3535H8.34949H8.34549H8.3415H8.33751H8.33352H8.32955H8.32558H8.32161H8.31766H8.31371H8.30977H8.30583H8.3019H8.29798H8.29406H8.29015H8.28625H8.28236H8.27847H8.27459H8.27071H8.26684H8.26298H8.25912H8.25528H8.25144H8.2476H8.24377H8.23995H8.23614H8.23233H8.22853H8.22474H8.22095H8.21717H8.2134H8.20963H8.20587H8.20212H8.19837H8.19463H8.1909H8.18718H8.18346H8.17975H8.17604H8.17235H8.16865H8.16497H8.16129H8.15762H8.15396H8.15031H8.14666H8.14302H8.13938H8.13575H8.13213H8.12852H8.12491H8.12131H8.11772H8.11413H8.11055H8.10698H8.10342H8.09986H8.09631H8.09276H8.08923H8.0857H8.08218H8.07866H8.07515H8.07165H8.06816H8.06467H8.06119H8.05772H8.05425H8.05079H8.04734H8.0439H8.04046H8.03703H8.03361H8.03019H8.02678H8.02338H8.01999H8.0166H8.01322H8.00985H8.00648H8.00312H7.99977H7.99643H7.99309H7.98976H7.98644H7.98313H7.97982H7.97652H7.97323H7.96994H7.96666H7.96339H7.96012H7.95687H7.95362H7.95038H7.94714H7.94391H7.94069H7.93748H7.93428H7.93108H7.92789H7.9247H7.92153H7.91836H7.9152H7.91204H7.9089H7.90576H7.90263H7.8995H7.89638H7.89327H7.89017H7.88708H7.88399H7.88091H7.87784H7.87477H7.87171H7.86866H7.86562H7.86259H7.85956H7.85654H7.85352H7.85052H7.84752H7.84453H7.84155H7.83857H7.83561H7.83265H7.82969H7.82675H7.82381H7.82088H7.81796H7.81504H7.81214H7.80924H7.80634H7.80346H7.80058H7.79771H7.79485H7.792H7.78915H7.78631H7.78348H7.78066H7.77784H7.77503H7.77223H7.76944H7.76665H7.76387H7.7611H7.75834H7.75559H7.75284H7.7501H7.74737H7.74465H7.74193H7.73922H7.73652H7.73383H7.73114H7.72847H7.7258H7.72313H7.72048H7.71783H7.71519H7.71256H7.70994H7.70733H7.70472H7.70212H7.69953H7.69694H7.69437H7.6918H7.68924H7.68669H7.68414H7.6816H7.67907H7.67655H7.67404H7.67154H7.66904H7.66655H7.66407H7.66159H7.65913H7.65667H7.65422H7.65178H7.64934H7.64692H7.6445H7.64209H7.63969H7.63729H7.6349H7.63253H7.63016H7.62779H7.62544H7.62309H7.62075H7.61842H7.6161H7.61379H7.61148H7.60918H7.60689H7.60461H7.60234H7.60007H7.59781H7.59556H7.59332H7.59109H7.58886H7.58664H7.58443H7.58223H7.58004H7.57785H7.57568H7.57351H7.57135H7.56919H7.56705H7.56491H7.56279H7.56067H7.55855H7.55645H7.55435H7.55227H7.55019H7.54812H7.54606H7.544H7.54195H7.53992H7.53789H7.53587H7.53385H7.53185H7.52985H7.52786H7.52588H7.52391H7.52195H7.51999H7.51804H7.51611H7.51418H7.51225H7.51034H7.50843H7.50654H7.50465H7.50277H7.5009H7.49903H7.49718H7.49533H7.49349H7.49166H7.48984H7.48803H7.48622H7.48443H7.48264H7.48086H7.47909H7.47732H7.47557H7.47382H7.47209H7.47036H7.46864H7.46692H7.46522H7.46352H7.46184H7.46016H7.45849H7.45683H7.45518H7.45353H7.4519H7.45027H7.44865H7.44704H7.44544H7.44384H7.44226H7.44068H7.43912H7.43756H7.43601H7.43447H7.43293H7.43141H7.42989H7.42839H7.42689H7.4254H7.42392H7.42244H7.42098H7.41952H7.41808H7.41664H7.41521H7.41379H7.41238H7.41097H7.40958H7.40819H7.40681H7.40544H7.40408H7.40273H7.40139H7.40006H7.39873H7.39742H7.39611H7.39481H7.39352H7.39224H7.39096H7.3897H7.38845H7.3872H7.38596H7.38473H7.38351H7.3823H7.3811H7.37991H7.37872H7.37755H7.37638H7.37522H7.37407H7.37293H7.3718H7.37068H7.36957H7.36846H7.36736H7.36628H7.3652H7.36413H7.36307H7.36202H7.36098H7.35994H7.35892H7.3579H7.3569H7.3559H7.35491H7.35393H7.35296H7.352H7.35104H7.3501H7.34917H7.34824H7.34732H7.34642H7.34552H7.34463H7.34375H7.34287H7.34201H7.34116H7.34031H7.33948H7.33865H7.33783H7.33703H7.33623H7.33544H7.33466H7.33388H7.33312H7.33237H7.33162H7.33089H7.33016H7.32944H7.32874H7.32804H7.32735H7.32667H7.326H7.32533H7.32468H7.32404H7.3234H7.32278H7.32216H7.32155H7.32096H7.32037H7.31979H7.31922H7.31866H7.31811H7.31756H7.31703H7.31651H7.31599H7.31549H7.31499H7.3145H7.31403H7.31356H7.3131H7.31265H7.31221H7.31178H7.31136H7.31095H7.31054H7.31015H7.30977H7.30939H7.30903H7.30867H7.30832H7.30799H7.30766H7.30734H7.30703H7.30673H7.30644H7.30616H7.30589H7.30563H7.30538H7.30513H7.3049H7.30468H7.30446H7.30426H7.30406H7.30387H7.3037H7.30353H7.30337H7.30323H7.30309H7.30296H7.30284H7.30273H7.30263H7.30254H7.30245H7.30238H7.30232H7.30227H7.30222H7.30219H7.30217H7.30215C3.9131 5.17629 1.25 8.09855 1.25 11.5959V12.2454C1.25 14.5593 2.4181 16.621 4.19105 17.7479L5.28981 16.6491C3.79954 15.8568 2.75 14.2049 2.75 12.2454V11.5959C2.75 8.83073 4.83461 6.67629 7.30215 6.67629H7.30217H7.30219H7.30222H7.30227H7.30232H7.30238H7.30245H7.30254H7.30263H7.30273H7.30284H7.30296H7.30309H7.30323H7.30337H7.30353H7.3037H7.30387H7.30406H7.30426H7.30446H7.30468H7.3049H7.30513H7.30538H7.30563H7.30589H7.30616H7.30644H7.30673H7.30703H7.30734H7.30766H7.30799H7.30832H7.30867H7.30903H7.30939H7.30977H7.31015H7.31054H7.31095H7.31136H7.31178H7.31221H7.31265H7.3131H7.31356H7.31403H7.3145H7.31499H7.31549H7.31599H7.31651H7.31703H7.31756H7.31811H7.31866H7.31922H7.31979H7.32037H7.32096H7.32155H7.32216H7.32278H7.3234H7.32404H7.32468H7.32533H7.326H7.32667H7.32735H7.32804H7.32874H7.32944H7.33016H7.33089H7.33162H7.33237H7.33312H7.33388H7.33466H7.33544H7.33623H7.33703H7.33783H7.33865H7.33948H7.34031H7.34116H7.34201H7.34287H7.34375H7.34463H7.34552H7.34642H7.34732H7.34824H7.34917H7.3501H7.35104H7.352H7.35296H7.35393H7.35491H7.3559H7.3569H7.3579H7.35892H7.35994H7.36098H7.36202H7.36307H7.36413H7.3652H7.36628H7.36736H7.36846H7.36957H7.37068H7.3718H7.37293H7.37407H7.37522H7.37638H7.37755H7.37872H7.37991H7.3811H7.3823H7.38351H7.38473H7.38596H7.3872H7.38845H7.3897H7.39096H7.39224H7.39352H7.39481H7.39611H7.39742H7.39873H7.40006H7.40139H7.40273H7.40408H7.40544H7.40681H7.40819H7.40958H7.41097H7.41238H7.41379H7.41521H7.41664H7.41808H7.41952H7.42098H7.42244H7.42392H7.4254H7.42689H7.42839H7.42989H7.43141H7.43293H7.43447H7.43601H7.43756H7.43912H7.44068H7.44226H7.44384H7.44544H7.44704H7.44865H7.45027H7.4519H7.45353H7.45518H7.45683H7.45849H7.46016H7.46184H7.46352H7.46522H7.46692H7.46864H7.47036H7.47209H7.47382H7.47557H7.47732H7.47909H7.48086H7.48264H7.48443H7.48622H7.48803H7.48984H7.49166H7.49349H7.49533H7.49718H7.49903H7.5009H7.50277H7.50465H7.50654H7.50843H7.51034H7.51225H7.51418H7.51611H7.51804H7.51999H7.52195H7.52391H7.52588H7.52786H7.52985H7.53185H7.53385H7.53587H7.53789H7.53992H7.54195H7.544H7.54606H7.54812H7.55019H7.55227H7.55435H7.55645H7.55855H7.56067H7.56279H7.56491H7.56705H7.56919H7.57135H7.57351H7.57568H7.57785H7.58004H7.58223H7.58443H7.58664H7.58886H7.59109H7.59332H7.59556H7.59781H7.60007H7.60234H7.60461H7.60689H7.60918H7.61148H7.61379H7.6161H7.61842H7.62075H7.62309H7.62544H7.62779H7.63016H7.63253H7.6349H7.63729H7.63969H7.64209H7.6445H7.64692H7.64934H7.65178H7.65422H7.65667H7.65913H7.66159H7.66407H7.66655H7.66904H7.67154H7.67404H7.67655H7.67907H7.6816H7.68414H7.68669H7.68924H7.6918H7.69437H7.69694H7.69953H7.70212H7.70472H7.70733H7.70994H7.71256H7.71519H7.71783H7.72048H7.72313H7.7258H7.72847H7.73114H7.73383H7.73652H7.73922H7.74193H7.74465H7.74737H7.7501H7.75284H7.75559H7.75834H7.7611H7.76387H7.76665H7.76944H7.77223H7.77503H7.77784H7.78066H7.78348H7.78631H7.78915H7.792H7.79485H7.79771H7.80058H7.80346H7.80634H7.80924H7.81214H7.81504H7.81796H7.82088H7.82381H7.82675H7.82969H7.83265H7.83561H7.83857H7.84155H7.84453H7.84752H7.85052H7.85352H7.85654H7.85956H7.86259H7.86562H7.86866H7.87171H7.87477H7.87784H7.88091H7.88399H7.88708H7.89017H7.89327H7.89638H7.8995H7.90263H7.90576H7.9089H7.91204H7.9152H7.91836H7.92153H7.9247H7.92789H7.93108H7.93428H7.93748H7.94069H7.94391H7.94714H7.95038H7.95362H7.95687H7.96012H7.96339H7.96666H7.96994H7.97323H7.97652H7.97982H7.98313H7.98644H7.98976H7.99309H7.99643H7.99977H8.00312H8.00648H8.00985H8.01322H8.0166H8.01999H8.02338H8.02678H8.03019H8.03361H8.03703H8.04046H8.0439H8.04734H8.05079H8.05425H8.05772H8.06119H8.06467H8.06816H8.07165H8.07515H8.07866H8.08218H8.0857H8.08923H8.09276H8.09631H8.09986H8.10342H8.10698H8.11055H8.11413H8.11772H8.12131H8.12491H8.12852H8.13213H8.13575H8.13938H8.14302H8.14666H8.15031H8.15396H8.15762H8.16129H8.16497H8.16865H8.17235H8.17604H8.17975H8.18346H8.18718H8.1909H8.19463H8.19837H8.20212H8.20587H8.20963H8.2134H8.21717H8.22095H8.22474H8.22853H8.23233H8.23614H8.23995H8.24377H8.2476H8.25144H8.25528H8.25912H8.26298H8.26684H8.27071H8.27459H8.27847H8.28236H8.28625H8.29015H8.29406H8.29798H8.3019H8.30583H8.30977H8.31371H8.31766H8.32161H8.32558H8.32955H8.33352H8.33751H8.3415H8.34549H8.34949H8.3535H8.35752H8.36154H8.36557H8.36961H8.37365H8.3777H8.38176H8.38582H8.38989H8.39396H8.39804H8.40213H8.40623H8.41033H8.41444H8.41855H8.42268H8.4268C9.35049 6.67629 10.2239 6.27842 10.8537 5.59141L12.2162 4.10541L11.6634 3.59856L12.2162 4.10541C12.4947 3.80166 12.9203 3.68783 13.3681 3.78054C13.8245 3.87502 14.1939 4.16304 14.3446 4.52093C14.4014 4.65591 14.4384 4.81866 14.4717 5.0395C14.4804 5.09666 14.4897 5.16587 14.4998 5.24168C14.5227 5.41211 14.55 5.61592 14.5845 5.79137C14.6743 6.24799 14.7548 6.68735 14.826 7.11287L16.1181 5.82083ZM16.4264 7.6338L15.0882 8.97206C15.4256 11.9972 15.2277 14.5029 14.5655 18.0578C14.5298 18.2498 14.5049 18.452 14.4835 18.6254L14.4835 18.6254C14.4773 18.6758 14.4714 18.7239 14.4656 18.7684C14.4375 18.9841 14.4087 19.1574 14.3625 19.3125C14.0728 20.2845 12.9466 20.5543 12.3013 19.8426L10.9115 18.31C10.2467 17.5769 9.3209 17.152 8.34155 17.152H7.29003C7.16703 17.152 7.04498 17.1467 6.9241 17.1361L5.64673 18.4135C6.16758 18.5688 6.71846 18.652 7.29003 18.652H8.34155C8.8805 18.652 9.40817 18.8851 9.80032 19.3176L11.1901 20.8502C12.7324 22.551 15.2252 21.6697 15.8 19.7409C15.8821 19.4654 15.9229 19.1938 15.9531 18.9617C15.9617 18.8955 15.9693 18.8337 15.9765 18.7752C15.9966 18.6129 16.0136 18.4749 16.0402 18.3325C16.8098 14.2004 16.977 11.372 16.4264 7.6338Z" fill="#4E5964"/>
<path d="M19 2L2 19" stroke="#4E5964" stroke-width="1.5" stroke-linecap="round" stroke-linejoin="round"/>
</svg>
