<svg width="24" height="24" viewBox="0 0 24 24" fill="none" xmlns="http://www.w3.org/2000/svg">
<path d="M21 7.5C21 5.01472 18.9853 3 16.5 3H7.5C5.01472 3 3 5.01472 3 7.5V16.5C3 18.9853 5.01472 21 7.5 21H16.5C18.9853 21 21 18.9853 21 16.5V7.5Z" stroke="#4E5964" stroke-width="1.5"/>
<path d="M15.749 11.8863L13.4377 9.15262C13.0949 8.7471 12.483 8.75473 12.1496 9.16867L11.4962 9.98014C11.1052 10.4657 10.3612 10.3764 10.088 9.811L9.09949 7.76493C9.01753 7.5953 8.88462 7.45775 8.72071 7.37293L8 7M14.3686 11.7512L15.7596 12L16 10.5604" stroke="#4E5964" stroke-width="1.5" stroke-linecap="round" stroke-linejoin="round"/>
<path d="M16 17.4167L16 15.4167" stroke="#4E5964" stroke-width="1.5" stroke-linecap="round"/>
<path d="M12 17.4167L12 14" stroke="#4E5964" stroke-width="1.5" stroke-linecap="round"/>
<path d="M8 17.4167L8 11.5" stroke="#4E5964" stroke-width="1.5" stroke-linecap="round"/>
</svg>
