<svg width="24" height="24" viewBox="0 0 24 24" fill="none" xmlns="http://www.w3.org/2000/svg">
<path d="M14 20C14 20 13.6667 21 12 21C10.3333 21 10 20 10 20" stroke="#4E5964" stroke-width="1.5" stroke-linecap="round" stroke-linejoin="round"/>
<path fill-rule="evenodd" clip-rule="evenodd" d="M18.4286 9.27327V9.23338V9.23338C18.4286 5.79131 15.5499 3 12 3V3C8.45014 3 5.57143 5.79131 5.57143 9.23338V9.23338V9.27327V12.3551C5.57143 12.759 5.33614 13.1267 4.96457 13.3075L4.31786 13.6204C3.51043 14.0131 3 14.8135 3 15.6887V15.6887C3 16.9653 4.06714 18 5.38371 18H18.6163C19.9329 18 21 16.9653 21 15.6887V15.6887C21 14.8135 20.4896 14.0131 19.6821 13.6217L19.0354 13.3088C18.6639 13.1267 18.4286 12.759 18.4286 12.3551V9.27327Z" stroke="#4E5964" stroke-width="1.5" stroke-linecap="round" stroke-linejoin="round"/>
<path d="M20.3763 5.58175C20.3763 5.58175 21.5586 5.83423 21.7583 7.67598C21.9579 9.51773 20.8555 10.002 20.8555 10.002" stroke="#4E5964" stroke-width="1.5" stroke-linecap="round" stroke-linejoin="round"/>
<path d="M3.3503 5.49345C3.3503 5.49345 2.18594 5.81464 2.10183 7.6647C2.01772 9.51476 3.14844 9.93359 3.14844 9.93359" stroke="#4E5964" stroke-width="1.5" stroke-linecap="round" stroke-linejoin="round"/>
</svg>
