<svg width="24" height="24" viewBox="0 0 24 24" fill="none" xmlns="http://www.w3.org/2000/svg">
<path d="M14 21C14 21 13.6667 22 12 22C10.3333 22 10 21 10 21" stroke="#00A881" stroke-width="1.5" stroke-linecap="round" stroke-linejoin="round"/>
<path d="M18.4286 8.64894V8.69149V11.9787C18.4286 12.4096 18.6639 12.8019 19.0354 12.996L19.6821 13.3298C20.4896 13.7473 21 14.6011 21 15.5346C21 16.8963 19.9329 18 18.6163 18H12H8.69186H7.03779H6.62427M18.4286 8.64894C18.4286 8.49299 18.4234 8.3383 18.4132 8.18503M18.4286 8.64894L18.4132 8.18503M18.4132 8.18503C18.4021 8.01847 18.385 7.85359 18.3623 7.69063M18.3623 7.69063C18.3427 7.55018 18.3188 7.41116 18.2908 7.2737M18.3623 7.69063L18.2908 7.2737M18.2908 7.2737C18.2637 7.14042 18.2328 7.0086 18.198 6.87839L18.1337 6.66547M16.6265 4.03298C15.4573 2.77964 13.8165 2 12 2C8.45014 2 5.57143 4.97739 5.57143 8.64894V8.69149V11.9787C5.57143 12.4096 5.33614 12.8019 4.96457 12.9947L4.31786 13.3285C3.51043 13.7473 3 14.6011 3 15.5346C3 16.2226 3.27243 16.8448 3.71182 17.292" stroke="#00A881" stroke-width="1.5" stroke-linecap="round" stroke-linejoin="round"/>
<path d="M20.3783 4.58175C20.3783 4.58175 21.5606 4.83423 21.7602 6.67598C21.9599 8.51773 20.8574 9.00195 20.8574 9.00195" stroke="#00A881" stroke-width="1.5" stroke-linecap="round" stroke-linejoin="round"/>
<path d="M3.3503 4.49345C3.3503 4.49345 2.18594 4.81464 2.10183 6.6647C2.01772 8.51476 3.14844 8.93359 3.14844 8.93359" stroke="#00A881" stroke-width="1.5" stroke-linecap="round" stroke-linejoin="round"/>
<path d="M19 2L2 19" stroke="#00A881" stroke-width="1.5" stroke-linecap="round" stroke-linejoin="round"/>
</svg>
