<svg width="24" height="24" viewBox="0 0 24 24" fill="none" xmlns="http://www.w3.org/2000/svg">
<path d="M14 21C14 21 13.6667 22 12 22C10.3333 22 10 21 10 21" stroke="#4E5964" stroke-width="1.5" stroke-linecap="round" stroke-linejoin="round"/>
<path fill-rule="evenodd" clip-rule="evenodd" d="M12 1.25C8.0123 1.25 4.82143 4.58721 4.82143 8.64894V8.69149V11.9787C4.82143 12.1377 4.73506 12.2686 4.61963 12.3287L4.61912 12.329L3.97388 12.662L3.97248 12.6627C2.90869 13.2146 2.25 14.3299 2.25 15.5346C2.25 16.6615 2.82069 17.669 3.69481 18.2445L4.80214 17.1372C4.19637 16.894 3.75 16.2816 3.75 15.5346C3.75 14.8725 4.11194 14.2805 4.66272 13.9945L4.66324 13.9942L5.30854 13.6612L5.31002 13.6604C5.93748 13.3348 6.32143 12.6812 6.32143 11.9787V8.69149V8.64894C6.32143 5.36758 8.88798 2.75 12 2.75C13.9192 2.75 15.6309 3.74548 16.6611 5.27822L17.7371 4.20219C16.431 2.4133 14.3544 1.25 12 1.25ZM18.5167 5.54394L17.3616 6.69905C17.5668 7.30827 17.6786 7.96415 17.6786 8.64894V8.69149V11.9787C17.6786 12.6817 18.0627 13.334 18.6881 13.6607L18.6915 13.6625L19.3376 13.996C19.8877 14.2805 20.25 14.8721 20.25 15.5346C20.25 16.5061 19.495 17.25 18.6163 17.25H6.81066L5.31149 18.7492C5.33549 18.7497 5.35957 18.75 5.38371 18.75H18.6163C20.3707 18.75 21.75 17.2865 21.75 15.5346C21.75 14.3301 21.0914 13.2142 20.0267 12.6636L20.0261 12.6633L19.3828 12.3313L19.3816 12.3307C19.2644 12.2689 19.1786 12.137 19.1786 11.9787V8.69149V8.64894C19.1786 7.54258 18.9418 6.48998 18.5167 5.54394Z" fill="#4E5964"/>
<path d="M19 2L2 19" stroke="#4E5964" stroke-width="1.5" stroke-linecap="round" stroke-linejoin="round"/>
</svg>
