<svg width="24" height="24" viewBox="0 0 24 24" fill="none" xmlns="http://www.w3.org/2000/svg">
<path d="M20.0942 3L3.00195 19.9663" stroke="#4E5964" stroke-width="1.5" stroke-linecap="round" stroke-linejoin="round"/>
<path d="M14.002 20C14.002 20 13.6686 21 12.002 21C10.3353 21 10.002 20 10.002 20" stroke="#4E5964" stroke-width="1.5" stroke-linecap="round" stroke-linejoin="round"/>
<path d="M18.4305 9.23338V9.27327V12.3551C18.4305 12.759 18.6658 13.1267 19.0374 13.3088L19.6841 13.6217C20.4915 14.0131 21.002 14.8135 21.002 15.6887C21.002 16.9653 19.9348 18 18.6182 18H12.002H8.69381H7.86677M18.4305 9.23338C18.4305 9.08718 18.4253 8.94215 18.4151 8.79846M18.4305 9.23338L18.4151 8.79846M18.4151 8.79846C18.404 8.64231 18.387 8.48774 18.3642 8.33496M18.3642 8.33496C18.3446 8.2033 18.3208 8.07296 18.2928 7.94409L18.3642 8.33496ZM3.71378 17.3362C3.27439 16.917 3.00195 16.3337 3.00195 15.6887C3.00195 14.8135 3.51238 14.0131 4.31981 13.6204L4.96652 13.3075C5.3381 13.1267 5.57338 12.759 5.57338 12.3551V9.27327V9.23338C5.57338 5.79131 8.4521 3 12.002 3C13.8185 3 15.3327 3.32499 16.502 4.5L17.002 5" stroke="#4E5964" stroke-width="1.5" stroke-linecap="round" stroke-linejoin="round"/>
<path d="M5.57125 9.23338V9.27327V12.3551C5.57125 12.759 5.33597 13.1267 4.96439 13.3088L4.31768 13.6217C3.51025 14.0131 2.99982 14.8135 2.99982 15.6887C2.99982 16.7738 3.77082 17.6841 4.81065 17.9328M5.57125 9.23338C5.57125 9.08718 5.57644 8.94215 5.58666 8.79846M5.57125 9.23338L5.58666 8.79846M5.58666 8.79846C5.59777 8.64231 5.6148 8.48774 5.63756 8.33496M5.63756 8.33496C5.65717 8.2033 5.68102 8.07296 5.70898 7.94409L5.63756 8.33496Z" stroke="#4E5964" stroke-width="1.5" stroke-linecap="round" stroke-linejoin="round"/>
<path d="M20.3802 5.58175C20.3802 5.58175 21.5625 5.83423 21.7622 7.67598C21.9618 9.51773 20.8594 10.002 20.8594 10.002" stroke="#4E5964" stroke-width="1.5" stroke-linecap="round" stroke-linejoin="round"/>
<path d="M3.35226 5.49345C3.35226 5.49345 2.18789 5.81464 2.10378 7.6647C2.01967 9.51476 3.15039 9.93359 3.15039 9.93359" stroke="#4E5964" stroke-width="1.5" stroke-linecap="round" stroke-linejoin="round"/>
</svg>
