<svg width="24" height="24" viewBox="0 0 24 24" fill="none" xmlns="http://www.w3.org/2000/svg">
<path d="M14 21C14 21 13.6667 22 12 22C10.3333 22 10 21 10 21" stroke="#4E5964" stroke-width="1.5" stroke-linecap="round" stroke-linejoin="round"/>
<path fill-rule="evenodd" clip-rule="evenodd" d="M18.4286 8.69149V8.64894V8.64894C18.4286 4.97739 15.5499 2 12 2V2C8.45014 2 5.57143 4.97739 5.57143 8.64894V8.64894V8.69149V11.9787C5.57143 12.4096 5.33614 12.8019 4.96457 12.9947L4.31786 13.3285C3.51043 13.7473 3 14.6011 3 15.5346V15.5346C3 16.8963 4.06714 18 5.38371 18H18.6163C19.9329 18 21 16.8963 21 15.5346V15.5346C21 14.6011 20.4896 13.7473 19.6821 13.3298L19.0354 12.996C18.6639 12.8019 18.4286 12.4096 18.4286 11.9787V8.69149Z" stroke="#4E5964" stroke-width="1.5" stroke-linecap="round" stroke-linejoin="round"/>
<path d="M20.3783 4.58175C20.3783 4.58175 21.5606 4.83423 21.7602 6.67598C21.9599 8.51773 20.8574 9.00195 20.8574 9.00195" stroke="#4E5964" stroke-width="1.5" stroke-linecap="round" stroke-linejoin="round"/>
<path d="M3.3503 4.49345C3.3503 4.49345 2.18594 4.81464 2.10183 6.6647C2.01772 8.51476 3.14844 8.93359 3.14844 8.93359" stroke="#4E5964" stroke-width="1.5" stroke-linecap="round" stroke-linejoin="round"/>
</svg>
