<svg width="24" height="24" viewBox="0 0 24 24" fill="none" xmlns="http://www.w3.org/2000/svg">
<path d="M1.99805 21.0015L21.9996 21.0015" stroke="#4E5964" stroke-width="1.50012" stroke-linecap="round"/>
<path d="M21.0012 21.0012L18.4029 8.00987C18.1692 6.84122 17.1431 6 15.9513 6H11.0712C9.86986 6 8.83834 6.85442 8.6147 8.03476L7.57907 13.5006L6 21.0012" stroke="#4E5964" stroke-width="1.50012"/>
<path d="M3 21.0013L4.39434 11.2875C4.50035 10.5489 5.13308 10.0005 5.87924 10.0005H6.75029C7.25496 10.0005 7.71013 10.3039 7.90423 10.7698L8.00039 11.0006" stroke="#4E5964" stroke-width="1.50012"/>
<path d="M14 3C14 3 14 3.33336 14 4.00008" stroke="#4E5964" stroke-width="1.50012" stroke-linecap="round" stroke-linejoin="round"/>
<path d="M11 3.5C11 3.5 11 3.5 11 4" stroke="#4E5964" stroke-width="1.50012" stroke-linecap="round" stroke-linejoin="round"/>
<path d="M17 3.5V4" stroke="#4E5964" stroke-width="1.50012" stroke-linecap="round" stroke-linejoin="round"/>
<path d="M15.5345 14.0596H16.404C16.5848 14.0608 16.7553 14.1436 16.8681 14.2847C16.9809 14.4259 17.0239 14.6105 16.9852 14.787C16.8261 15.5461 16.4232 16.2323 15.8378 16.741C15.7031 16.8517 15.5263 16.897 15.3549 16.8648C15.1836 16.8326 15.0353 16.7262 14.95 16.5741L14.5117 15.8151" stroke="#4E5964" stroke-width="1.5" stroke-linecap="round" stroke-linejoin="round"/>
<circle cx="13.5" cy="14.041" r="1.5" stroke="#4E5964" stroke-width="1.5" stroke-linecap="round" stroke-linejoin="round"/>
<path d="M12.4874 15.8151L12.0492 16.5741C11.9638 16.7262 11.8155 16.8326 11.6442 16.8648C11.4728 16.897 11.296 16.8517 11.1613 16.741C10.5759 16.2323 10.173 15.5461 10.0139 14.787C9.97521 14.6105 10.0183 14.4259 10.1311 14.2847C10.2439 14.1436 10.4144 14.0608 10.5951 14.0596H11.4647" stroke="#4E5964" stroke-width="1.5" stroke-linecap="round" stroke-linejoin="round"/>
<path d="M12.4843 12.2649L12.0456 11.505C11.9567 11.3554 11.9384 11.1742 11.9958 11.0099C12.0531 10.8456 12.1802 10.7151 12.3429 10.6534C13.0915 10.3948 13.9051 10.3948 14.6537 10.6534C14.8164 10.7151 14.9435 10.8456 15.0008 11.0099C15.0582 11.1742 15.0399 11.3554 14.951 11.505L14.5122 12.2649" stroke="#4E5964" stroke-width="1.5" stroke-linecap="round" stroke-linejoin="round"/>
</svg>
