<svg width="24" height="24" viewBox="0 0 24 24" fill="none" xmlns="http://www.w3.org/2000/svg">
<path d="M1.99805 21.0012L21.9996 21.0012" stroke="#4E5964" stroke-width="1.50012" stroke-linecap="round"/>
<path d="M21.0012 21.0012L18.4029 8.00987C18.1692 6.84122 17.1431 6 15.9513 6H11.0712C9.86986 6 8.83834 6.85442 8.6147 8.03476L7.57907 13.5006L6 21.0012" stroke="#4E5964" stroke-width="1.50012"/>
<path d="M3 21.0011L4.39434 11.2872C4.50035 10.5486 5.13308 10.0002 5.87924 10.0002H6.75029C7.25496 10.0002 7.71013 10.3037 7.90423 10.7695L8.00039 11.0003" stroke="#4E5964" stroke-width="1.50012"/>
<path d="M14 2.99976C14 2.99976 14 3.33312 14 3.99983" stroke="#4E5964" stroke-width="1.50012" stroke-linecap="round" stroke-linejoin="round"/>
<path d="M11 3.49976C11 3.49976 11 3.49976 11 3.99976" stroke="#4E5964" stroke-width="1.50012" stroke-linecap="round" stroke-linejoin="round"/>
<path d="M17 3.49976V3.99976" stroke="#4E5964" stroke-width="1.50012" stroke-linecap="round" stroke-linejoin="round"/>
<path d="M15.5345 14.0598H16.404C16.5848 14.0611 16.7553 14.1438 16.8681 14.285C16.9809 14.4262 17.0239 14.6107 16.9852 14.7873C16.8261 15.5463 16.4232 16.2325 15.8378 16.7412C15.7031 16.8519 15.5263 16.8973 15.3549 16.8651C15.1836 16.8329 15.0353 16.7264 14.95 16.5744L14.5117 15.8153" stroke="#4E5964" stroke-width="1.5" stroke-linecap="round" stroke-linejoin="round"/>
<circle cx="13.5" cy="14.041" r="1.5" stroke="#4E5964" stroke-width="1.5" stroke-linecap="round" stroke-linejoin="round"/>
<path d="M12.4874 15.8153L12.0492 16.5744C11.9638 16.7264 11.8155 16.8329 11.6442 16.8651C11.4728 16.8973 11.296 16.8519 11.1613 16.7412C10.5759 16.2325 10.173 15.5463 10.0139 14.7873C9.97521 14.6107 10.0183 14.4262 10.1311 14.285C10.2439 14.1438 10.4144 14.0611 10.5951 14.0598H11.4647" stroke="#4E5964" stroke-width="1.5" stroke-linecap="round" stroke-linejoin="round"/>
<path d="M12.4843 12.2651L12.0456 11.5052C11.9567 11.3557 11.9384 11.1744 11.9958 11.0102C12.0531 10.8459 12.1802 10.7154 12.3429 10.6537C13.0915 10.3951 13.9051 10.3951 14.6537 10.6537C14.8164 10.7154 14.9435 10.8459 15.0008 11.0102C15.0582 11.1744 15.0399 11.3557 14.951 11.5052L14.5122 12.2652" stroke="#4E5964" stroke-width="1.5" stroke-linecap="round" stroke-linejoin="round"/>
</svg>
