<svg width="24" height="24" viewBox="0 0 24 24" fill="none" xmlns="http://www.w3.org/2000/svg">
<path d="M15.6225 4.04246C17.5176 4.86213 19.0675 6.29942 20.011 8.11209C20.9545 9.92476 21.2338 12.002 20.802 13.9936C20.3701 15.9853 19.2535 17.7696 17.6403 19.0458C16.027 20.322 14.0158 21.0121 11.9456 20.9998C9.87546 20.9875 7.87289 20.2736 6.27543 18.9783C4.67798 17.6829 3.58333 15.8855 3.17597 13.8889C2.76861 11.8922 3.07346 9.81851 4.03913 8.01718C5.00479 6.21586 6.57224 4.79709 8.47729 4" stroke="#4E5964" stroke-width="1.42105" stroke-linecap="round"/>
<path d="M12 6.5V3" stroke="#4E5964" stroke-width="1.5" stroke-linecap="round"/>
<path d="M7.82183 10.5H6.71072C6.09707 10.5 5.59961 10.9975 5.59961 11.6111V14.3889C5.59961 15.0025 6.09707 15.5 6.71072 15.5H7.82183C8.43548 15.5 8.93294 15.0025 8.93294 14.3889V11.6111C8.93294 10.9975 8.43548 10.5 7.82183 10.5Z" stroke="#4E5964" stroke-width="1.5" stroke-linecap="round" stroke-linejoin="round"/>
<path d="M13.9661 10.5H10.6328V15.5" stroke="#4E5964" stroke-width="1.5" stroke-linecap="round" stroke-linejoin="round"/>
<path d="M13.2713 13H10.9102" stroke="#4E5964" stroke-width="1.5" stroke-linecap="round" stroke-linejoin="round"/>
<path d="M18.9974 10.5H15.6641V15.5" stroke="#4E5964" stroke-width="1.5" stroke-linecap="round" stroke-linejoin="round"/>
<path d="M18.3025 13H15.9414" stroke="#4E5964" stroke-width="1.5" stroke-linecap="round" stroke-linejoin="round"/>
</svg>
