<svg width="24" height="24" viewBox="0 0 24 24" fill="none" xmlns="http://www.w3.org/2000/svg">
<circle cx="7" cy="4.5" r="1.5" stroke="#4E5964" stroke-width="1.5"/>
<circle cx="17" cy="11.5" r="1.5" stroke="#4E5964" stroke-width="1.5"/>
<path d="M16 4C16 4 18.7802 3.47526 20 5C20.9758 6.21979 21 7 21 7" stroke="#4E5964" stroke-width="1.5" stroke-linecap="round"/>
<path d="M16 5L15 4L16 3" stroke="#4E5964" stroke-width="1.5" stroke-linecap="round" stroke-linejoin="round"/>
<path d="M8 20C8 20 5.21979 20.5247 4 19C3.02417 17.7802 3 17 3 17" stroke="#4E5964" stroke-width="1.5" stroke-linecap="round"/>
<path d="M8 19L9 20L8 21" stroke="#4E5964" stroke-width="1.5" stroke-linecap="round" stroke-linejoin="round"/>
<path d="M3 10.1818C3 8.97683 3.89543 8 5 8H9C10.1046 8 11 8.97683 11 10.1818V11C11 12.6569 9.76878 14 8.25 14H5.75C4.23122 14 3 12.6569 3 11V10.1818Z" stroke="#4E5964" stroke-width="1.5"/>
<path d="M13 17.1818C13 15.9768 13.8954 15 15 15H19C20.1046 15 21 15.9768 21 17.1818V18C21 19.6569 19.7688 21 18.25 21H15.75C14.2312 21 13 19.6569 13 18V17.1818Z" stroke="#4E5964" stroke-width="1.5"/>
</svg>
