<svg width="24" height="24" viewBox="0 0 24 24" fill="none" xmlns="http://www.w3.org/2000/svg">
<path d="M17 8.35714C17 12.0301 13 15.8571 12 15.8571C11 15.8571 7 12.0301 7 8.35714C7 5.39847 9.23858 3 12 3C14.7614 3 17 5.39847 17 8.35714Z" stroke="#4E5964" stroke-width="1.5"/>
<circle cx="12.0003" cy="8.00003" r="2.14286" stroke="#4E5964" stroke-width="1.5"/>
<path d="M17.5556 15H18.3858C19.2224 15 19.9707 15.5208 20.2612 16.3054L21.002 18.3054C21.4858 19.6116 20.5195 21 19.1265 21H12" stroke="#4E5964" stroke-width="1.5" stroke-linecap="round"/>
<path d="M6.44444 15H5.61425C4.77758 15 4.02934 15.5208 3.73875 16.3054L2.99801 18.3054C2.51421 19.6116 3.48055 21 4.87351 21H12" stroke="#4E5964" stroke-width="1.5" stroke-linecap="round"/>
</svg>
