<svg width="24" height="24" viewBox="0 0 24 24" fill="none" xmlns="http://www.w3.org/2000/svg">
<path d="M6 9.5V6.5C6 6.02656 5.296 5.61183 4.99298 5.32232C4.18008 4.54567 3 5.26029 3 6.53034V14.4305C3 16.2881 5.03812 17.8701 6.0773 18.556C6.4334 18.791 6.6715 19.2426 6.6715 19.7416C6.6715 20.4366 7.12724 21 7.68943 21H9.22222C10.2041 21 11 20.016 11 18.8023V16.6884C11 16.0636 10.7849 15.4683 10.4085 15.0514L6 9.5ZM6 9.5V13.5" stroke="#4E5964" stroke-width="1.5" stroke-linecap="round"/>
<path d="M18 9.5V6.5C18 6.02656 18.704 5.61183 19.007 5.32232C19.8199 4.54567 21 5.26029 21 6.53034V14.4305C21 16.2881 18.9619 17.8701 17.9227 18.556C17.5666 18.791 17.3285 19.2426 17.3285 19.7416C17.3285 20.4366 16.8728 21 16.3106 21H14.7778C13.7959 21 13 20.016 13 18.8023V16.6884C13 16.0636 13.2151 15.4683 13.5915 15.0514L18 9.5ZM18 9.5V13.5" stroke="#4E5964" stroke-width="1.5" stroke-linecap="round"/>
<path d="M12 3V10" stroke="#4E5964" stroke-width="1.5" stroke-linecap="round"/>
<path d="M10 5H14" stroke="#4E5964" stroke-width="1.5" stroke-linecap="round"/>
</svg>
