<svg width="25" height="24" viewBox="0 0 25 24" fill="none" xmlns="http://www.w3.org/2000/svg">
<path d="M10.0332 15.0022C10.7266 15.0023 13.3406 15.0029 14.0331 15.0031" stroke="#4E5964" stroke-width="1.5"/>
<path d="M3.0332 11.0007C5.55904 11.0013 18.51 11.0041 21.0327 11.0047" stroke="#4E5964" stroke-width="1.5" stroke-linecap="round"/>
<circle cx="17.2823" cy="16.7536" r="3.74989" stroke="#4E5964" stroke-width="1.5"/>
<path d="M18.8854 17.0216C19.0794 16.288 18.6419 15.536 17.9082 15.342" stroke="#4E5964" stroke-width="1.5" stroke-linecap="round"/>
<circle cx="6.78227" cy="16.7514" r="3.74989" stroke="#4E5964" stroke-width="1.5"/>
<path d="M19.0334 11.0043L18.2791 5.45346C18.0158 3.51585 16.352 2.44141 14.9536 3.30586L13.0612 4.47565C12.4136 4.87596 11.6559 4.87579 11.0085 4.47521L9.11661 3.30458C7.71855 2.43952 6.05432 3.51323 5.79016 5.45072L5.0334 11.0012" stroke="#4E5964" stroke-width="1.5"/>
</svg>
