<svg width="24" height="24" viewBox="0 0 24 24" fill="none" xmlns="http://www.w3.org/2000/svg">
<path d="M10.0039 15.0022C10.6973 15.0023 13.3113 15.0029 14.0038 15.0031" stroke="#4E5964" stroke-width="1.5"/>
<path d="M3.00391 11.0007C5.52974 11.0013 18.4807 11.0041 21.0034 11.0047" stroke="#4E5964" stroke-width="1.5" stroke-linecap="round"/>
<circle cx="17.253" cy="16.7536" r="3.74989" stroke="#4E5964" stroke-width="1.5"/>
<path d="M18.8562 17.0216C19.0501 16.288 18.6126 15.536 17.8789 15.342" stroke="#4E5964" stroke-width="1.5" stroke-linecap="round"/>
<circle cx="6.75297" cy="16.7514" r="3.74989" stroke="#4E5964" stroke-width="1.5"/>
<path d="M19.0041 11.0043L18.2498 5.45346C17.9865 3.51585 16.3227 2.44141 14.9243 3.30586L13.0319 4.47565C12.3843 4.87596 11.6266 4.87579 10.9792 4.47521L9.08731 3.30458C7.68925 2.43952 6.02503 3.51323 5.76087 5.45072L5.00411 11.0012" stroke="#4E5964" stroke-width="1.5"/>
</svg>
