<svg width="24" height="24" viewBox="0 0 24 24" fill="none" xmlns="http://www.w3.org/2000/svg">
<rect x="3" y="3" width="18" height="18" rx="4.5" stroke="#4E5964" stroke-width="1.5"/>
<path d="M12.5508 13.2393L12.625 13.3936L13.626 15.4805H13.5205L12.3174 12.8818L12.2021 12.6328C12.3161 12.6245 12.4338 12.6085 12.5508 12.5781V13.2393ZM10.3604 8.75C10.2824 8.78796 10.2038 8.84012 10.1309 8.91309C9.91713 9.12681 9.87598 9.38629 9.87598 9.54883V11.75C9.87598 11.9125 9.91713 12.173 10.1309 12.3867C10.2013 12.457 10.2773 12.5073 10.3525 12.5449C10.2868 12.578 10.2202 12.621 10.1572 12.6787C9.92776 12.8891 9.87598 13.1578 9.87598 13.3379V15.4805H9.75V8.75H10.3604ZM12.7451 8.78906C13.0227 8.84368 13.2143 8.95184 13.3525 9.08691C13.5473 9.2773 13.6904 9.57888 13.6904 10.0996V11.0977C13.6904 11.4841 13.6134 11.7433 13.5098 11.918C13.4308 12.051 13.3169 12.1636 13.1484 12.2568C13.4743 11.9422 13.5645 11.5224 13.5645 11.1611V10.1631C13.5644 9.84226 13.4975 9.46728 13.251 9.16406L13.1338 9.03906L13.0068 8.93457C12.9233 8.87476 12.8353 8.82693 12.7451 8.78906Z" stroke="#4E5964" stroke-width="1.5"/>
</svg>
