<svg width="24" height="24" viewBox="0 0 24 24" fill="none" xmlns="http://www.w3.org/2000/svg">
<path d="M10.4384 8.47143L7.19854 2.75231C5.69158 3.60497 4.43548 4.83912 3.55639 6.33082C2.6773 7.82253 2.20616 9.51927 2.19029 11.2507L8.76892 11.3079C8.77357 10.7301 8.93032 10.1638 9.22339 9.66584C9.51646 9.16791 9.93551 8.75596 10.4384 8.47143ZM10.4168 14.2367L7.07797 19.8986C8.57056 20.7777 10.2683 21.2485 12.0004 21.2635C13.7326 21.2786 15.4383 20.8374 16.9459 19.9844L13.7061 14.2653C13.2035 14.5496 12.635 14.6967 12.0576 14.6916C11.4802 14.6866 10.9143 14.5297 10.4168 14.2367ZM13.7277 8.50004L17.0665 2.83813C18.5584 3.71687 19.7928 4.97268 20.6458 6.47944C21.4989 7.98621 21.9404 9.69088 21.9262 11.4223L15.3475 11.3651C15.3529 10.7873 15.2061 10.2184 14.9217 9.7154C14.6373 9.21245 14.2255 8.79327 13.7277 8.50004Z" stroke="#4E5964" stroke-width="1.5" stroke-linecap="round" stroke-linejoin="round"/>
<path d="M12.0703 10.2412C12.7268 10.2412 13.2596 10.7732 13.2598 11.4297C13.2598 12.0863 12.7269 12.6191 12.0703 12.6191C11.4138 12.619 10.8818 12.0862 10.8818 11.4297C10.882 10.7733 11.4139 10.2414 12.0703 10.2412Z" fill="#4E5964" stroke="#4E5964" stroke-width="1.48212"/>
</svg>
