<svg width="24" height="24" viewBox="0 0 24 24" fill="none" xmlns="http://www.w3.org/2000/svg">
<path d="M18.5 18C18.5 16.067 17.433 15 15.5 15H8.5C6.567 15 5.5 16.567 5.5 18.5" stroke="#4E5964" stroke-width="1.5"/>
<circle cx="12" cy="10" r="3" stroke="#4E5964" stroke-width="1.5"/>
<path d="M15 4.49683L17.9937 4.49683" stroke="#4E5964" stroke-width="1.5" stroke-linecap="round" stroke-linejoin="round"/>
<path d="M16.4961 5.99368L16.4961 3" stroke="#4E5964" stroke-width="1.5" stroke-linecap="round" stroke-linejoin="round"/>
<path d="M19.2781 6.70578C20.4959 8.37992 21.0993 10.4227 20.9867 12.4899C20.874 14.557 20.0521 16.5221 18.6595 18.054C17.267 19.5858 15.3889 20.5908 13.3418 20.8994C11.2947 21.2081 9.20382 20.8015 7.4215 19.7484C5.63919 18.6952 4.27444 17.0598 3.55728 15.1178C2.84012 13.1757 2.81439 11.0458 3.48444 9.08706C4.15449 7.12827 5.47934 5.46037 7.2357 4.36446C8.99205 3.26856 11.0725 2.81166 13.1265 3.07077" stroke="#4E5964" stroke-width="1.5" stroke-linecap="round"/>
</svg>
