<svg width="24" height="24" viewBox="0 0 24 24" fill="none" xmlns="http://www.w3.org/2000/svg">
<path d="M11.4398 3.44385H12.4676C12.8835 3.44385 13.2383 3.74446 13.3067 4.15461L13.5293 5.4905C13.5811 5.80128 13.8005 6.05798 14.0994 6.15762L14.5183 6.29725C14.7539 6.37578 15.012 6.34744 15.2249 6.21969L16.4465 5.48675C16.7811 5.28594 17.2096 5.33868 17.4856 5.61467L18.2475 6.37666C18.5235 6.65265 18.5763 7.08107 18.3755 7.41576L17.7182 8.51121C17.5491 8.79308 17.5575 9.14716 17.7398 9.42067L18.1453 10.0289C18.2408 10.172 18.3774 10.2829 18.5371 10.3468L19.8837 10.8854C20.2066 11.0146 20.4184 11.3274 20.4184 11.6752V12.3752M3.40625 11.0993V11.9499" stroke="#4E5964" stroke-width="1.41768" stroke-linecap="round"/>
<path d="M13.1882 20.4565H11.357C10.9412 20.4565 10.5863 20.1559 10.5179 19.7458L10.2953 18.4099C10.2435 18.0991 10.0241 17.8424 9.72524 17.7428L9.30634 17.6031C9.07077 17.5246 8.81264 17.5529 8.59972 17.6807L7.37816 18.4136C7.04347 18.6145 6.61506 18.5617 6.33906 18.2857L5.57707 17.5237C5.30108 17.2477 5.24834 16.8193 5.44916 16.4846L6.18209 15.2631C6.30984 15.0501 6.33818 14.792 6.25965 14.5565L6.09256 14.0552C6.0079 13.8012 5.80858 13.6019 5.55459 13.5172L3.98787 12.995C3.64053 12.8792 3.40625 12.5541 3.40625 12.188V12.1631M20.4184 12.8011V11.9505" stroke="#4E5964" stroke-width="1.41768" stroke-linecap="round"/>
<path fill-rule="evenodd" clip-rule="evenodd" d="M7.34258 4.11354C8.33705 4.03078 9.31545 4.37968 10.0232 5.07643L10.0516 5.10475C10.8232 5.89962 11.1272 6.97092 10.9822 7.99537C11.0031 8.01181 11.0255 8.02784 11.0447 8.04713L16.0272 13.054C17.0651 12.9 18.1537 13.2093 18.9559 13.9954C18.9593 13.9987 18.9642 14.0027 18.9676 14.0061L18.9842 14.0227C19.6781 14.7343 20.0218 15.7154 19.9344 16.7102L19.9334 16.7258L19.9002 16.8987C19.7973 17.2948 19.5037 17.6206 19.1131 17.76C18.6655 17.9193 18.1606 17.8092 17.824 17.4622L17.1141 16.7346L16.6785 17.1585L17.3875 17.887C17.6832 18.1891 17.7951 18.6153 17.7039 19.0139L17.6512 19.1829L17.576 19.343C17.3767 19.699 17.0116 19.9412 16.5965 19.9768H16.5809C15.5835 20.0382 14.611 19.6685 13.9178 18.9553C13.9144 18.9516 13.9124 18.9453 13.909 18.9417C13.904 18.9369 13.8972 18.933 13.8924 18.928C13.1087 18.0851 12.8345 16.9545 13.0438 15.8987C13.0235 15.8827 13.0019 15.8676 12.9832 15.8489L8.1541 10.9963C7.08851 11.2127 5.94578 10.9363 5.09844 10.1409C5.09331 10.1359 5.0888 10.1293 5.08379 10.1243C5.08002 10.1209 5.07475 10.1181 5.0711 10.1145C4.36201 9.41848 3.99625 8.4456 4.06231 7.44947L4.06328 7.43483C4.1061 6.96074 4.41846 6.55283 4.86113 6.38405C5.30501 6.2152 5.81225 6.31395 6.15606 6.65358L6.15703 6.6526L6.87969 7.36549L7.30449 6.93287L6.58184 6.22096C6.23635 5.88303 6.12869 5.3776 6.28985 4.93092C6.43104 4.54122 6.75686 4.24678 7.15313 4.14576L7.32695 4.11647L7.34258 4.11354ZM8.60332 6.35377C8.92905 6.67404 8.91219 7.18267 8.61113 7.48951L7.45977 8.66041C7.15813 8.96719 6.649 8.9936 6.32305 8.67311L5.37871 7.74537C5.39507 8.28646 5.61571 8.79689 5.99688 9.17115L5.99981 9.17506L6.00371 9.17701C6.65163 9.78514 7.60336 9.90509 8.39629 9.53151L14.5086 15.6448C14.1394 16.434 14.2584 17.3802 14.8602 18.0276L14.8621 18.0305L14.866 18.0335C15.2394 18.4175 15.7503 18.6409 16.2928 18.6594L15.368 17.7092C15.0491 17.3817 15.0764 16.8718 15.3846 16.5715L16.5623 15.4251C16.8705 15.1254 17.3801 15.1109 17.699 15.4378L18.6248 16.3889C18.6212 15.9228 18.4661 15.4759 18.1854 15.1165L18.0359 14.9456L18.0301 14.9397C17.3995 14.3218 16.4587 14.1781 15.6609 14.5247L9.51348 8.37623C9.853 7.58475 9.711 6.65346 9.10137 6.02565L9.09551 6.01979C8.71469 5.64477 8.20058 5.4321 7.65899 5.42506L8.60332 6.35377Z" fill="#4E5964"/>
<path d="M10.9047 15.6491C10.0589 15.5039 9.28148 15.0929 8.68536 14.4756C8.08924 13.8583 7.70548 13.0671 7.58984 12.2168" stroke="#4E5964" stroke-width="1.41768" stroke-linecap="round"/>
<path d="M15.9327 11.315C15.8125 10.4653 15.4245 9.6761 14.8251 9.06203C14.2257 8.44797 13.4461 8.04105 12.5996 7.90039" stroke="#4E5964" stroke-width="1.41768" stroke-linecap="round"/>
</svg>
