<svg width="24" height="24" viewBox="0 0 24 24" fill="none" xmlns="http://www.w3.org/2000/svg">
<path d="M11.5599 6.3335C11.6985 5.88883 12.3015 5.88883 12.4401 6.3335L12.8311 7.58876C12.893 7.78762 13.0707 7.92226 13.2711 7.92226H14.5364C14.9846 7.92226 15.171 8.52055 14.8084 8.79536L13.7847 9.57116C13.6226 9.69406 13.5547 9.91191 13.6166 10.1108L14.0076 11.366C14.1462 11.8107 13.6582 12.1805 13.2956 11.9056L12.272 11.1298C12.1098 11.0069 11.8902 11.0069 11.728 11.1298L10.7044 11.9056C10.3418 12.1805 9.85385 11.8107 9.99236 11.366L10.3834 10.1108C10.4453 9.91191 10.3774 9.69406 10.2153 9.57116L9.19162 8.79536C8.829 8.52055 9.01536 7.92226 9.46358 7.92226H10.7289C10.9293 7.92226 11.107 7.78762 11.1689 7.58876L11.5599 6.3335Z" stroke="#4E5964" stroke-width="1.5"/>
<path d="M20 15L4 15" stroke="#4E5964" stroke-width="1.5" stroke-linecap="square"/>
<path d="M4 18.8691V7.5C4 5.01472 6.01472 3 8.5 3H15.5C17.9853 3 20 5.01472 20 7.5V18.8691C20 20.5682 18.037 21.5816 16.5714 20.6391L15.0857 19.5643C13.2571 18.2413 10.7429 18.2413 8.91429 19.5643L7.42857 20.6391C5.96303 21.5816 4 20.5682 4 18.8691Z" stroke="#4E5964" stroke-width="1.5" stroke-linecap="round"/>
</svg>
