<svg width="24" height="24" viewBox="0 0 24 24" fill="none" xmlns="http://www.w3.org/2000/svg">
<path d="M3.00195 7V17C3.00195 19.2091 4.79281 21 7.00195 21H12.002C13.1065 21 14.002 20.1046 14.002 19V18C14.002 17.4477 14.4497 17 15.002 17C15.5542 17 16.002 17.4477 16.002 18V19C16.002 20.1046 16.8974 21 18.002 21H18.502C19.8827 21 21.002 19.8807 21.002 18.5V12V5.5C21.002 4.11929 19.8827 3 18.502 3H18.002C16.8974 3 16.002 3.89543 16.002 5V6C16.002 6.55228 15.5542 7 15.002 7C14.4497 7 14.002 6.55228 14.002 6V5C14.002 3.89543 13.1065 3 12.002 3H7.00195C4.79281 3 3.00195 4.79086 3.00195 7Z" stroke="#4E5964" stroke-width="1.5" stroke-linecap="round"/>
<path d="M15.002 11L15.002 9" stroke="#4E5964" stroke-width="1.5" stroke-linecap="round"/>
<path d="M15.002 15L15.002 13" stroke="#4E5964" stroke-width="1.5" stroke-linecap="round"/>
<line x1="6.75195" y1="10.25" x2="11.252" y2="10.25" stroke="#4E5964" stroke-width="1.5" stroke-linecap="round"/>
<line x1="6.75195" y1="13.25" x2="8.25195" y2="13.25" stroke="#4E5964" stroke-width="1.5" stroke-linecap="round"/>
</svg>
