<svg width="24" height="24" viewBox="0 0 24 24" fill="none" xmlns="http://www.w3.org/2000/svg">
<path d="M11.3548 5.18014L10.4381 2.39375C10.3743 2.19971 10.5188 2 10.7231 2H13.2973C13.4966 2 13.6405 2.19075 13.5858 2.38239L13.2114 3.69319L12.79 5.16878C12.7532 5.29758 12.6355 5.38639 12.5015 5.38639H11.6397C11.5102 5.38639 11.3952 5.30321 11.3548 5.18014Z" stroke="#4E5964" stroke-width="1.5"/>
<path d="M10.3843 3C8.44515 3.40404 6.72321 4.52028 5.55146 6.13285C4.3797 7.74542 3.84139 9.73974 4.04062 11.7301C4.23986 13.7205 5.16248 15.5655 6.63007 16.9083C8.09766 18.2512 10.0059 18.9964 11.9858 19C13.9658 19.0035 15.8766 18.2651 17.3489 16.9275C18.8212 15.5899 19.7503 13.7482 19.9565 11.7586C20.1627 9.76892 19.6314 7.77269 18.4653 6.15594C17.2992 4.5392 15.5811 3.4168 13.6435 3.00583" stroke="#4E5964" stroke-width="1.5"/>
<path d="M13.4142 9.58578C13.9862 10.1578 14.1573 11.018 13.8477 11.7654C13.5382 12.5127 12.8089 13 12 13C11.1911 13 10.4618 12.5127 10.1523 11.7654C9.84274 11.018 10.0138 10.1578 10.5858 9.58578C11.3669 8.80474 12.6331 8.80474 13.4142 9.58578" stroke="#4E5964" stroke-width="1.5" stroke-linecap="round" stroke-linejoin="round"/>
<path d="M11.1545 9.61921L7.9249 4.5414" stroke="#4E5964" stroke-width="1.5"/>
<path d="M12.8491 9.61885L16.0785 4.53978" stroke="#4E5964" stroke-width="1.5"/>
<path d="M11.1546 13.0056L7.92584 18.0858" stroke="#4E5964" stroke-width="1.5"/>
<path d="M12.8477 13.0061L16.0787 18.0853" stroke="#4E5964" stroke-width="1.5"/>
<path d="M9 18V21M15 18V21" stroke="#4E5964" stroke-width="1.5"/>
<rect x="6" y="21" width="12" height="1.5" rx="0.75" fill="#4E5964"/>
<path d="M4.5 11.3125H9.88622" stroke="#4E5964" stroke-width="1.5"/>
<path d="M14.1191 11.3125H19.622" stroke="#4E5964" stroke-width="1.5"/>
</svg>
