<svg width="24" height="24" viewBox="0 0 24 24" fill="none" xmlns="http://www.w3.org/2000/svg">
<path d="M3 11.9961C3 10.2515 3.72503 8.59694 4.97899 7.48003L8.47898 4.36255C10.5186 2.54582 13.4814 2.54581 15.521 4.36255L19.021 7.48002C20.275 8.59693 21 10.2515 21 11.9961V15.1213C21 18.368 18.5376 21 15.5 21H8.5C5.46244 21 3 18.368 3 15.1213V11.9961Z" stroke="#4E5964" stroke-width="1.5"/>
<path d="M8 13.4446C8 12.0639 9.11929 10.9446 10.5 10.9446H13.5C14.8807 10.9446 16 12.0639 16 13.4446V14.4446C16 15.8253 14.8807 16.9446 13.5 16.9446H10.5C9.11929 16.9446 8 15.8253 8 14.4446V13.4446Z" stroke="#4E5964" stroke-width="1.5"/>
<path d="M10 10.9445V9.5C10 8.67157 10.6716 8 11.5 8H12.5C13.3284 8 14 8.67157 14 9.5V9.97692V10.9445" stroke="#4E5964" stroke-width="1.5" stroke-linecap="round"/>
<path d="M11.9996 13.7443C12.2205 13.7443 12.3996 13.5652 12.3996 13.3443C12.3996 13.1234 12.2205 12.9443 11.9996 12.9443C11.7787 12.9443 11.5996 13.1234 11.5996 13.3443C11.5996 13.5652 11.7787 13.7443 11.9996 13.7443Z" stroke="#4E5964" stroke-width="1.5" stroke-miterlimit="10" stroke-linecap="round" stroke-linejoin="round"/>
<path d="M12.75 14.4443L12.75 13.6943L11.25 13.6943L11.25 14.4443L12 14.4443L12.75 14.4443ZM11.25 14.9443C11.25 15.3585 11.5858 15.6943 12 15.6943C12.4142 15.6943 12.75 15.3585 12.75 14.9443L12 14.9443L11.25 14.9443ZM12 14.4443L11.25 14.4443L11.25 14.9443L12 14.9443L12.75 14.9443L12.75 14.4443L12 14.4443Z" fill="#4E5964"/>
</svg>
