<svg width="24" height="24" viewBox="0 0 24 24" fill="none" xmlns="http://www.w3.org/2000/svg">
<path d="M3 11.9961C3 10.2515 3.72503 8.59694 4.97899 7.48003L8.47898 4.36255C10.5186 2.54582 13.4814 2.54581 15.521 4.36255L19.021 7.48002C20.275 8.59693 21 10.2515 21 11.9961V15.1213C21 18.368 18.5376 21 15.5 21H8.5C5.46244 21 3 18.368 3 15.1213V11.9961Z" stroke="#4E5964" stroke-width="1.5" stroke-linecap="round"/>
<path d="M10 10.9445V9.5C10 8.67157 10.6716 8 11.5 8H12.5C13.3284 8 14 8.67157 14 9.5V10.9445M13.5 10.9446H10.5C9.11929 10.9446 8 12.0639 8 13.4446V14.4446C8 15.8253 9.11929 16.9446 10.5 16.9446H13.5C14.8807 16.9446 16 15.8253 16 14.4446V13.4446C16 12.0639 14.8807 10.9446 13.5 10.9446Z" stroke="#4E5964" stroke-width="1.5" stroke-linecap="round"/>
<path d="M12 13.9946L12 14.4946" stroke="#4E5964" stroke-width="1.5" stroke-miterlimit="10" stroke-linecap="round" stroke-linejoin="round"/>
</svg>
