<svg width="24" height="24" viewBox="0 0 24 24" fill="none" xmlns="http://www.w3.org/2000/svg">
<path d="M3 11.9961C3 10.2515 3.72503 8.59694 4.97899 7.48003L8.47898 4.36255C10.5186 2.54582 13.4814 2.54581 15.521 4.36255L19.021 7.48002C20.275 8.59693 21 10.2515 21 11.9961V15.1213C21 18.368 18.5376 21 15.5 21H8.5C5.46244 21 3 18.368 3 15.1213V11.9961Z" stroke="#4E5964" stroke-width="1.5"/>
<path d="M15.7844 13.5255C16.1871 12.4089 15.9256 10.4968 15.7998 9.75156C15.7655 9.54846 15.6646 9.36344 15.5087 9.22887C15.4975 9.21922 15.4866 9.20993 15.4762 9.2012C14.3838 8.28569 13.4477 8.00252 12.015 8C10.575 7.99747 9.66499 8.32087 8.53401 9.2012L8.50162 9.22678C8.33224 9.36214 8.22094 9.5558 8.18458 9.76955C8.0579 10.514 7.81281 12.3571 8.24566 13.5255C8.59734 14.4749 8.91602 15.0127 9.65916 15.6877C10.4273 16.3853 10.9864 16.8889 12.015 16.8889C13.0436 16.8889 13.6027 16.3853 14.3708 15.6877C15.114 15.0127 15.4408 14.478 15.7844 13.5255Z" stroke="#4E5964" stroke-width="1.5"/>
<path d="M11.9991 11.8889C12.2446 11.8889 12.4436 11.6899 12.4436 11.4444C12.4436 11.199 12.2446 11 11.9991 11C11.7537 11 11.5547 11.199 11.5547 11.4444C11.5547 11.6899 11.7537 11.8889 11.9991 11.8889Z" stroke="#4E5964" stroke-width="1.5" stroke-miterlimit="10" stroke-linecap="round" stroke-linejoin="round"/>
<path d="M12.75 12.5L12.75 11.75L11.25 11.75L11.25 12.5L12 12.5L12.75 12.5ZM11.25 13.7778C11.25 14.192 11.5858 14.5278 12 14.5278C12.4142 14.5278 12.75 14.192 12.75 13.7778L12 13.7778L11.25 13.7778ZM12 12.5L11.25 12.5L11.25 13.7778L12 13.7778L12.75 13.7778L12.75 12.5L12 12.5Z" fill="#4E5964"/>
</svg>
