<svg width="24" height="24" viewBox="0 0 24 24" fill="none" xmlns="http://www.w3.org/2000/svg">
<path d="M8.25 21H15.75C16.9926 21 18 19.9926 18 18.75V16.3906C18 15.5383 17.5185 14.7592 16.7562 14.3781L15 13.5L13.8147 12.8415C13.4353 12.6307 13.2 12.2308 13.2 11.7968C13.2 11.3143 13.4901 10.8791 13.9355 10.6936L16.6154 9.57692C17.4538 9.22757 18 8.40833 18 7.5V5.25C18 4.00736 16.9926 3 15.75 3H8.25C7.00736 3 6 4.00736 6 5.25V7.5C6 8.40833 6.54616 9.22757 7.38462 9.57692L10.0645 10.6936C10.5099 10.8791 10.8 11.3143 10.8 11.7968C10.8 12.2308 10.5647 12.6307 10.1853 12.8415L9 13.5L7.24377 14.3781C6.4815 14.7592 6 15.5383 6 16.3906V18.75C6 19.9926 7.00736 21 8.25 21Z" stroke="#4E5964" stroke-width="1.5"/>
<path d="M9 18.2761C9 18.0983 9.06541 17.9267 9.18377 17.7941L11.2119 15.521C11.6319 15.0503 12.3681 15.0503 12.7881 15.521L14.8651 17.8488C14.952 17.9462 15 18.0722 15 18.2027C15 18.6431 14.643 19 14.2027 19H9.72397C9.32413 19 9 18.6759 9 18.2761Z" stroke="#4E5964" stroke-width="1.5"/>
<path d="M12 8L12 9" stroke="#4E5964" stroke-width="1.5" stroke-linecap="round"/>
</svg>
