<svg width="24" height="24" viewBox="0 0 24 24" fill="none" xmlns="http://www.w3.org/2000/svg">
<path d="M18 3L3 18" stroke="white" stroke-width="1.5" stroke-linecap="round" stroke-linejoin="round"/>
<path fill-rule="evenodd" clip-rule="evenodd" d="M9.1875 1.25C5.30444 1.25 2.25 4.6236 2.25 8.66557V19.6893L3.75 18.1893V8.66557C3.75 5.34495 6.23604 2.75 9.1875 2.75H14.8125C16.0082 2.75 17.1275 3.17587 18.036 3.90333L19.1032 2.83613C17.9293 1.8456 16.4441 1.25 14.8125 1.25H9.1875ZM20.1421 3.91852L19.0725 4.98819C19.8068 5.9908 20.25 7.2635 20.25 8.66557V20.1788C20.25 20.6491 20.0071 20.9853 19.7115 21.1445C19.4221 21.3003 19.0759 21.2958 18.7713 21.0497L14.9259 17.9428C13.1964 16.5455 10.8036 16.5455 9.07411 17.9428L5.22866 21.0497C4.92413 21.2958 4.57785 21.3003 4.28849 21.1445C4.02 20.9999 3.79496 20.7092 3.75597 20.3047L2.58127 21.4794C2.81761 21.9032 3.16572 22.2435 3.57716 22.4651C4.35968 22.8866 5.3634 22.8693 6.17134 22.2165L10.0168 19.1096C11.1964 18.1565 12.8036 18.1565 13.9832 19.1096L17.8287 22.2165C18.6366 22.8693 19.6403 22.8866 20.4228 22.4651C21.1991 22.0469 21.75 21.2065 21.75 20.1788V8.66557C21.75 6.87315 21.1493 5.21216 20.1421 3.91852Z" fill="#4E5964"/>
<path d="M19 2L2 19" stroke="#4E5964" stroke-width="1.5" stroke-linecap="round" stroke-linejoin="round"/>
</svg>
