<svg width="24" height="25" viewBox="0 0 24 25" fill="none" xmlns="http://www.w3.org/2000/svg">
<path d="M4.00195 18.7244V9.72337C4.00195 6.41021 6.46439 3.72437 9.50195 3.72437H14.502C15.7352 3.72437 16.8736 4.16706 17.7909 4.91469M4.42272 21.2244C4.9166 21.7751 5.75083 21.9268 6.40195 21.3942L9.82014 18.5979C11.1131 17.5403 12.8908 17.5403 14.1838 18.5979L17.602 21.3942C18.5908 22.2031 20.002 21.4335 20.002 20.0853V9.72337C20.002 8.71213 19.7726 7.75932 19.3674 6.92349C19.3451 6.87752 19.3223 6.83191 19.299 6.78666C19.2714 6.73309 19.243 6.68003 19.2139 6.62749" stroke="#4E5964" stroke-width="1.5" stroke-linecap="round"/>
<path d="M19.0942 3.72437L2.00195 20.6907" stroke="#4E5964" stroke-width="1.5" stroke-linecap="round" stroke-linejoin="round"/>
</svg>
