<svg width="24" height="24" viewBox="0 0 24 24" fill="none" xmlns="http://www.w3.org/2000/svg">
<path d="M4 18V8.99901C4 5.68585 6.46243 3 9.5 3H14.5C15.7332 3 16.8716 3.44269 17.7889 4.19033M4.42077 20.5C4.91465 21.0507 5.74887 21.2025 6.4 20.6698L9.81818 17.8736C11.1111 16.8159 12.8889 16.8159 14.1818 17.8736L17.6 20.6698C18.5889 21.4787 20 20.7092 20 19.3609V8.99901C20 7.98776 19.7706 7.03495 19.3655 6.19912C19.3432 6.15315 19.3204 6.10754 19.297 6.06229C19.2694 6.00872 19.2411 5.95566 19.212 5.90313" stroke="#4E5964" stroke-width="1.5" stroke-linecap="round"/>
<path d="M19.0922 3L2 19.9663" stroke="#4E5964" stroke-width="1.5" stroke-linecap="round" stroke-linejoin="round"/>
</svg>
