<svg width="24" height="24" viewBox="0 0 24 24" fill="none" xmlns="http://www.w3.org/2000/svg">
<path d="M21 8.66557V20.1788C21 21.6768 19.4125 22.5319 18.3 21.6331L14.4545 18.5262C13 17.351 11 17.351 9.54545 18.5262L5.7 21.6331C4.81926 22.3447 3.64074 21.957 3.188 21.0212M21 8.66557C21 8.51068 20.9951 8.35702 20.9854 8.20477M21 8.66557L20.9854 8.20477M20.9854 8.20477C20.9747 8.03528 20.9581 7.86753 20.9358 7.70176M20.9358 7.70176C20.9267 7.63417 20.9167 7.56691 20.9057 7.5M20.9358 7.70176L20.9057 7.5M20.9057 7.5C20.874 7.30623 20.8345 7.11535 20.7876 6.92775M20.7876 6.92775C20.7515 6.78316 20.7109 6.64052 20.6661 6.5M20.7876 6.92775L20.6661 6.5M20.6661 6.5C20.616 6.34268 20.5605 6.18802 20.5 6.03627M20.5 6.03627C20.4381 5.88119 20.371 5.72916 20.2988 5.58042M20.5 6.03627L20.2988 5.58042M20.2988 5.58042C20.2186 5.4154 20.1323 5.25444 20.04 5.09791M20.04 5.09791C19.9477 4.94129 19.8495 4.78911 19.7458 4.64172M20.04 5.09791L19.7458 4.64172M19.7458 4.64172C19.6336 4.48235 19.8706 4.73692 19.7458 4.58921M17.8589 2.86253C18.0455 2.97644 18.226 3.10049 18.3999 3.23398L17.8589 2.86253ZM17.8589 2.86253C17.7416 2.79091 17.6219 2.7233 17.5 2.65988C16.6872 2.23702 15.7756 2 14.8125 2H9.1875C5.77024 2 3 4.98428 3 8.66557V14.4222V17.3005V18.0201" stroke="#00A881" stroke-width="1.5" stroke-linecap="round"/>
<path d="M19 2L2 19" stroke="#00A881" stroke-width="1.5" stroke-linecap="round" stroke-linejoin="round"/>
</svg>
