<svg width="24" height="24" viewBox="0 0 24 24" fill="none" xmlns="http://www.w3.org/2000/svg">
<path d="M21.0008 9.3V7.2V7.2C21.0008 4.8804 19.1204 3 16.8008 3H16.2008H13.8008" stroke="#4E5964" stroke-width="1.5" stroke-linecap="round"/>
<path d="M21.0008 13.8V16.8194C21.0008 19.1283 19.129 21 16.8201 21H13.8008" stroke="#4E5964" stroke-width="1.5" stroke-linecap="round"/>
<path d="M3.00078 9.3V7.2V7.2C3.00078 4.8804 4.88119 3 7.20078 3V3H9.30078" stroke="#4E5964" stroke-width="1.5" stroke-linecap="round"/>
<path d="M2.99922 13.8V16.8194V16.8194C2.99922 19.1283 4.87096 21 7.17986 21H7.79922H10.1992" stroke="#4E5964" stroke-width="1.5" stroke-linecap="round"/>
<path d="M17.7892 6.14617L17.7891 8.75806" stroke="#4E5964" stroke-width="1.5" stroke-linecap="round" stroke-linejoin="round"/>
<path d="M17.7888 6.14624L15.0957 6.14624" stroke="#4E5964" stroke-width="1.5" stroke-linecap="round" stroke-linejoin="round"/>
<path d="M14.6994 9.3L17.7882 6.14621" stroke="#4E5964" stroke-width="1.5" stroke-linecap="round" stroke-linejoin="round"/>
<path d="M6.10537 6.14617L6.10543 8.75806" stroke="#4E5964" stroke-width="1.5" stroke-linecap="round" stroke-linejoin="round"/>
<path d="M6.10568 6.14624L8.79883 6.14624" stroke="#4E5964" stroke-width="1.5" stroke-linecap="round" stroke-linejoin="round"/>
<path d="M9.301 9.34081L6.10665 6.14636" stroke="#4E5964" stroke-width="1.5" stroke-linecap="round" stroke-linejoin="round"/>
<path d="M17.7892 17.7679L17.7891 15.156" stroke="#4E5964" stroke-width="1.5" stroke-linecap="round" stroke-linejoin="round"/>
<path d="M17.7888 17.7678L15.0957 17.7678" stroke="#4E5964" stroke-width="1.5" stroke-linecap="round" stroke-linejoin="round"/>
<path d="M14.6993 14.7L17.7882 17.7679" stroke="#4E5964" stroke-width="1.5" stroke-linecap="round" stroke-linejoin="round"/>
<path d="M6.10537 17.7679L6.10543 15.156" stroke="#4E5964" stroke-width="1.5" stroke-linecap="round" stroke-linejoin="round"/>
<path d="M6.10568 17.7678L8.79883 17.7678" stroke="#4E5964" stroke-width="1.5" stroke-linecap="round" stroke-linejoin="round"/>
</svg>
