<svg width="24" height="24" viewBox="0 0 24 24" fill="none" xmlns="http://www.w3.org/2000/svg">
<path d="M20.2618 16H6.12146C4.39752 16 3 17.1193 3 18.5C3 19.8807 4.39752 21 6.12146 21H9.65654H13.1916H20.2618C21.0133 21 21.2827 20.2048 20.6343 19.9005C19.2982 19.2735 19.2982 17.7265 20.6343 17.0995C21.2827 16.7952 21.0133 16 20.2618 16Z" stroke="#4E5964" stroke-width="1.5"/>
<path d="M2.25 18C2.25 18.4142 2.58579 18.75 3 18.75C3.41421 18.75 3.75 18.4142 3.75 18H2.25ZM17.4205 2.25H6.57954V3.75H17.4205V2.25ZM2.25 6.57955V18H3.75V6.57955H2.25ZM21.75 16.5V6.57955H20.25V16.5H21.75ZM6.57954 2.25C4.1884 2.25 2.25 4.1884 2.25 6.57955H3.75C3.75 5.01683 5.01683 3.75 6.57954 3.75V2.25ZM17.4205 3.75C18.9832 3.75 20.25 5.01683 20.25 6.57955H21.75C21.75 4.1884 19.8116 2.25 17.4205 2.25V3.75Z" fill="#4E5964"/>
<path d="M12 6V13" stroke="#4E5964" stroke-width="1.5" stroke-linecap="round"/>
<path d="M10 8H14" stroke="#4E5964" stroke-width="1.5" stroke-linecap="round"/>
</svg>
