<svg width="24" height="24" viewBox="0 0 24 24" fill="none" xmlns="http://www.w3.org/2000/svg">
<path d="M10 5L21 5L10 5Z" fill="#4E5964"/>
<path d="M10 5L21 5" stroke="#4E5964" stroke-width="1.5" stroke-linecap="round"/>
<path d="M16 12L21 12L16 12Z" fill="#4E5964"/>
<path d="M16 11.25L15.25 11.25L15.25 12.75L16 12.75L16 11.25ZM21 12.75C21.4142 12.75 21.75 12.4142 21.75 12C21.75 11.5858 21.4142 11.25 21 11.25L21 12.75ZM16 12.75L21 12.75L21 11.25L16 11.25L16 12.75Z" fill="#4E5964"/>
<path d="M10 19L21 19L10 19Z" fill="#4E5964"/>
<path d="M10 19L21 19" stroke="#4E5964" stroke-width="1.5" stroke-linecap="round"/>
<path d="M3 5L5 5L3 5Z" fill="#4E5964"/>
<path d="M3 4.25C2.58579 4.25 2.25 4.58579 2.25 5C2.25 5.41421 2.58579 5.75 3 5.75L3 4.25ZM5 5.75L5.75 5.75L5.75 4.25L5 4.25L5 5.75ZM3 5.75L5 5.75L5 4.25L3 4.25L3 5.75Z" fill="#4E5964"/>
<path d="M3 12L11 12L3 12Z" fill="#4E5964"/>
<path d="M3 12L11 12" stroke="#4E5964" stroke-width="1.5" stroke-linecap="round"/>
<path d="M3 19L5 19L3 19Z" fill="#4E5964"/>
<path d="M3 19L5 19" stroke="#4E5964" stroke-width="1.5" stroke-linecap="round"/>
<rect x="12" y="10" width="3" height="4" rx="0.9" stroke="#4E5964" stroke-width="1.5"/>
<rect x="6" y="17" width="3" height="4" rx="0.9" stroke="#4E5964" stroke-width="1.5"/>
<rect x="6" y="3" width="3" height="4" rx="0.9" stroke="#4E5964" stroke-width="1.5"/>
</svg>
