<svg width="24" height="24" viewBox="0 0 24 24" fill="none" xmlns="http://www.w3.org/2000/svg">
<circle cx="12" cy="12" r="4" stroke="#4E5964" stroke-width="1.5"/>
<path d="M10.4959 4.20228C10.858 2.59924 13.142 2.59924 13.5041 4.20228L13.632 4.7684C13.8667 5.80733 15.0589 6.30116 15.9595 5.73247L16.4502 5.42259C17.8398 4.54511 19.4549 6.16021 18.5774 7.54977L18.2675 8.0405C17.6988 8.94107 18.1927 10.1333 19.2316 10.368L19.7977 10.4959C21.4008 10.858 21.4008 13.142 19.7977 13.5041L19.2316 13.632C18.1927 13.8667 17.6988 15.0589 18.2675 15.9595L18.5774 16.4502C19.4549 17.8398 17.8398 19.4549 16.4502 18.5774L15.9595 18.2675C15.0589 17.6988 13.8667 18.1927 13.632 19.2316L13.5041 19.7977C13.142 21.4008 10.858 21.4008 10.4959 19.7977L10.368 19.2316C10.1333 18.1927 8.94107 17.6988 8.0405 18.2675L7.54977 18.5774C6.16021 19.4549 4.54512 17.8398 5.42259 16.4502L5.73247 15.9595C6.30116 15.0589 5.80732 13.8667 4.76839 13.632L4.20228 13.5041C2.59924 13.142 2.59924 10.858 4.20228 10.4959L4.7684 10.368C5.80733 10.1333 6.30116 8.94107 5.73247 8.0405L5.42259 7.54977C4.54511 6.1602 6.16021 4.54512 7.54977 5.42259L8.0405 5.73247C8.94107 6.30116 10.1333 5.80732 10.368 4.76839L10.4959 4.20228Z" stroke="#4E5964" stroke-width="1.5"/>
</svg>
