<svg width="24" height="24" viewBox="0 0 24 24" fill="none" xmlns="http://www.w3.org/2000/svg">
<path d="M14.1974 5.14514C15.9807 5.67481 17.5134 6.82957 18.5143 8.39768C19.5153 9.96579 19.9174 11.8422 19.647 13.6827C19.5964 14.0273 19.5228 14.3663 19.4275 14.6977M9.8382 5.13203C8.05171 5.65097 6.51215 6.79649 5.5018 8.35855C4.49145 9.92061 4.07803 11.7945 4.33734 13.6367C4.42046 14.2272 4.57092 14.8018 4.7832 15.3502M7.71539 19C8.97099 19.8343 10.4501 20.2877 11.9722 20.2923C13.6302 20.2973 15.2403 19.7695 16.5689 18.7952M7.71539 19C7.43645 18.8146 7.16853 18.6105 6.91363 18.3883L7.71539 19ZM16.5689 18.7952C16.731 18.6763 16.8889 18.5508 17.0422 18.4187L16.5689 18.7952ZM19.4275 14.6977C19.3365 15.0139 19.2256 15.3231 19.0959 15.6237L19.4275 14.6977Z" stroke="#4E5964" stroke-width="1.5" stroke-linecap="round"/>
<path d="M13.4142 3.58578C13.9862 4.15778 14.1573 5.01801 13.8477 5.76536C13.5382 6.51271 12.8089 7 12 7C11.1911 7 10.4618 6.51271 10.1523 5.76536C9.84274 5.01801 10.0138 4.15778 10.5858 3.58578C11.3669 2.80474 12.6331 2.80474 13.4142 3.58578" stroke="#4E5964" stroke-width="1.5" stroke-linecap="round" stroke-linejoin="round"/>
<path d="M7.41417 15.5858C7.98615 16.1578 8.15726 17.018 7.84771 17.7654C7.53815 18.5127 6.8089 19 6 19C5.1911 19 4.46185 18.5127 4.15229 17.7654C3.84274 17.018 4.01385 16.1578 4.58583 15.5858C5.36686 14.8047 6.63314 14.8047 7.41417 15.5858" stroke="#4E5964" stroke-width="1.5" stroke-linecap="round" stroke-linejoin="round"/>
<path d="M19.4142 15.5858C19.9862 16.1578 20.1573 17.018 19.8477 17.7654C19.5382 18.5127 18.8089 19 18 19C17.1911 19 16.4618 18.5127 16.1523 17.7654C15.8427 17.018 16.0138 16.1578 16.5858 15.5858C17.3669 14.8047 18.6331 14.8047 19.4142 15.5858" stroke="#4E5964" stroke-width="1.5" stroke-linecap="round" stroke-linejoin="round"/>
</svg>
