<svg width="24" height="24" viewBox="0 0 24 24" fill="none" xmlns="http://www.w3.org/2000/svg">
<path d="M18.6447 13.6406C17.7687 16.3635 14.4471 19.1863 13.0525 20.279C12.6818 20.5694 12.173 20.5791 11.7918 20.3028C10.3216 19.237 6.73951 16.4278 5.66176 13.6406C4.88583 11.634 4.96984 8.50558 5.04978 7.17024C5.07361 6.77204 5.31759 6.42653 5.67787 6.25526L11.4985 3.48841C11.815 3.33796 12.1832 3.34179 12.4965 3.4988L18.0585 6.28623C18.3675 6.44109 18.5891 6.72637 18.6483 7.06692C18.8678 8.33068 19.3177 11.5487 18.6447 13.6406Z" stroke="#4E5964" stroke-width="1.5"/>
<path d="M11.5234 5.79785L7.21875 7.9502C7.18085 8.35818 7.12018 9.18718 7.14746 10.1172C7.17873 11.1826 7.32394 12.311 7.69922 13.0977C8.16225 14.068 9.04106 15.1356 9.96387 16.0889C10.6671 16.8153 11.3754 17.4558 11.9023 17.9092L11.5234 5.79785Z" fill="#4E5964" stroke="#4E5964"/>
</svg>
