<svg width="24" height="24" viewBox="0 0 24 24" fill="none" xmlns="http://www.w3.org/2000/svg">
<path d="M12.0338 2.00003C8.79377 1.99433 6.74623 2.72198 4.20153 4.70273V4.70273C3.76898 5.03942 3.49043 5.53049 3.40019 6.07115C3.11156 7.80043 2.59575 11.8492 3.55273 14.4324C3.96958 15.5577 4.36583 16.426 4.89195 17.2179M12.0338 2.00003C12.6467 2.00111 13.2193 2.02502 13.7615 2.0772M12.0338 2.00003L13.7615 2.0772M20.4222 5.24327C20.4222 5.24327 21.6581 11.2626 20.5148 14.4324C19.7419 16.5754 19.0065 17.7787 17.3344 19.2973C15.6061 20.867 14.3481 22 12.0338 22C9.7194 22 8.4614 20.867 6.73312 19.2973M13.7615 2.0772C14.3749 2.13623 14.9495 2.23143 15.5 2.37069M15.5 2.37069C15.814 2.45012 16.1201 2.54388 16.4211 2.65344M15.5 2.37069L16.4211 2.65344M16.4211 2.65344C16.647 2.73567 16.87 2.82678 17.0912 2.92741M17.0912 2.92741C17.3529 3.04645 17.6122 3.1788 17.8709 3.32549L17.0912 2.92741Z" stroke="#4E5964" stroke-width="1.5" stroke-linecap="round"/>
<path d="M19.8164 1.82079L3.18311 19.1797" stroke="#4E5964" stroke-width="1.5" stroke-linecap="round" stroke-linejoin="round"/>
</svg>
