<svg width="24" height="24" viewBox="0 0 24 24" fill="none" xmlns="http://www.w3.org/2000/svg">
<path d="M19.5687 14.1892C20.3599 11.9681 19.8693 8.1926 19.6131 6.6293C19.5371 6.1652 19.311 5.73671 18.9524 5.43243C16.7675 3.57853 14.8954 3.0051 12.03 3C9.15002 2.99487 7.32998 3.64976 5.06803 5.43243C4.68326 5.73567 4.43634 6.17558 4.35656 6.65894C4.10016 8.21242 3.63974 11.8618 4.49131 14.1892C5.19468 16.1116 5.83204 17.2008 7.31832 18.5676C8.85458 19.9803 9.9728 21 12.03 21C14.0872 21 15.2054 19.9803 16.7417 18.5676C18.228 17.2008 18.8816 16.1179 19.5687 14.1892Z" stroke="#4E5964" stroke-width="1.5"/>
<path d="M14.5608 12C15.7516 11.6084 16.476 10.2964 15.6382 9.02535C15.1007 8.20993 14.0403 8 13.0637 8H8M14.5608 12H9M14.5608 12C15.6461 12.5439 16.4785 13.8645 15.5095 15.1471C15.0057 15.814 14.1153 16 13.2795 16H9.5C9.22386 16 9 15.7761 9 15.5V12M9 12V11" stroke="#4E5964" stroke-width="1.5" stroke-linecap="round"/>
<path d="M12.75 18L12.75 17.25L11.25 17.25L11.25 18L12 18L12.75 18ZM11.25 19C11.25 19.4142 11.5858 19.75 12 19.75C12.4142 19.75 12.75 19.4142 12.75 19L12 19L11.25 19ZM12 18L11.25 18L11.25 19L12 19L12.75 19L12.75 18L12 18Z" fill="#4E5964"/>
<path d="M12.75 5C12.75 4.58579 12.4142 4.25 12 4.25C11.5858 4.25 11.25 4.58579 11.25 5L12 5L12.75 5ZM11.25 6L11.25 6.75L12.75 6.75L12.75 6L12 6L11.25 6ZM12 5L11.25 5L11.25 6L12 6L12.75 6L12.75 5L12 5Z" fill="#4E5964"/>
</svg>
