<svg width="24" height="24" viewBox="0 0 24 24" fill="none" xmlns="http://www.w3.org/2000/svg">
<path d="M12.03 3.00003C9.15002 2.9949 7.32998 3.64979 5.06803 5.43246V5.43246C4.68326 5.7357 4.43634 6.1756 4.35656 6.65896C4.10016 8.21245 3.63974 11.8618 4.49131 14.1892C4.86185 15.2019 5.21407 15.9834 5.68173 16.6961M12.03 3.00003C12.5749 3.001 13.0838 3.02252 13.5658 3.06948M12.03 3.00003L13.5658 3.06948M13.5658 3.06948C14.111 3.12261 14.6218 3.20829 15.1111 3.33362M15.1111 3.33362C15.3902 3.40511 15.6623 3.4895 15.9299 3.5881M15.1111 3.33362L15.9299 3.5881M15.9299 3.5881C16.1307 3.6621 16.3289 3.7441 16.5255 3.83467M16.5255 3.83467C16.7582 3.94181 17.77 4.36798 18 4.5L16.5255 3.83467ZM7.59216 18.8189C7.59216 18.8189 7.78061 18.9907 7.87314 19.0738C9.14635 20.2175 10.2279 21 12.03 21C14.0872 21 15.2054 19.9803 16.7417 18.5676C18.228 17.2008 18.8816 16.1179 19.5687 14.1892C20.303 12.128 19.9333 8.72824 19.6715 7" stroke="#4E5964" stroke-width="1.5" stroke-linecap="round"/>
<path d="M20.5469 2.51675L3.45473 19.4831" stroke="#4E5964" stroke-width="1.5" stroke-linecap="round" stroke-linejoin="round"/>
</svg>
