<svg width="24" height="24" viewBox="0 0 24 24" fill="none" xmlns="http://www.w3.org/2000/svg">
<path fill-rule="evenodd" clip-rule="evenodd" d="M4.66224 5.29458C5.89214 4.33724 6.9682 3.70897 8.10294 3.31497C9.23696 2.92123 10.4705 2.74728 12.0325 2.75003C13.5962 2.75278 14.8411 2.90893 15.9748 3.29166C16.5907 3.49954 17.1861 3.77849 17.7907 4.14873L18.8776 3.06177C18.0878 2.54537 17.2952 2.15421 16.4546 1.87045C15.1149 1.41821 13.6949 1.25295 12.0351 1.25003C10.3571 1.24708 8.94686 1.43411 7.61094 1.89796C6.27573 2.36155 5.05568 3.08748 3.74088 4.1109C3.15045 4.57047 2.77966 5.23349 2.66045 5.94768C2.51304 6.83088 2.30647 8.31192 2.25971 9.90964C2.21343 11.4906 2.32031 13.2646 2.84946 14.693C3.288 15.8768 3.71318 16.8043 4.28295 17.6564L5.36821 16.5712C4.94928 15.8934 4.61395 15.138 4.25605 14.1719C3.82823 13.0171 3.71453 11.4751 3.75906 9.95353C3.80311 8.44872 3.99877 7.04072 4.13999 6.19463C4.20126 5.8275 4.38756 5.50838 4.66224 5.29458ZM6.27728 17.7834L5.21536 18.8454C5.51427 19.1754 5.8487 19.5072 6.2289 19.8525L6.27088 19.8907C7.96584 21.4302 9.41886 22.75 12.0338 22.75C14.6487 22.75 16.1017 21.4302 17.7967 19.8906L17.8387 19.8525C19.6137 18.2404 20.4119 16.9283 21.2203 14.6869C21.7162 13.3122 21.7945 11.5277 21.7313 9.93315C21.6671 8.31709 21.4524 6.80107 21.3055 5.91486C21.1929 5.23534 20.8556 4.59087 20.3032 4.12791C20.2354 4.0711 20.1678 4.01527 20.1003 3.96039L19.0335 5.02718C19.1348 5.10791 19.2368 5.19134 19.3397 5.27756C19.5935 5.49027 19.7663 5.80187 19.8257 6.16012C19.9672 7.01389 20.1717 8.46258 20.2324 9.99262C20.294 11.5441 20.2028 13.0872 19.8093 14.178C19.0719 16.2226 18.3993 17.317 16.8302 18.7421C15.0867 20.3256 14.026 21.25 12.0338 21.25C10.0416 21.25 8.9809 20.3256 7.23739 18.7421C6.87219 18.4105 6.55642 18.0963 6.27728 17.7834Z" fill="#4E5964"/>
<path d="M19 2L2 19" stroke="#4E5964" stroke-width="1.5" stroke-linecap="round" stroke-linejoin="round"/>
</svg>
