<svg width="24" height="24" viewBox="0 0 24 24" fill="none" xmlns="http://www.w3.org/2000/svg">
<path d="M18.6447 13.6406C17.7687 16.3635 14.4471 19.1863 13.0525 20.279C12.6818 20.5694 12.173 20.5791 11.7918 20.3028C10.3216 19.237 6.73951 16.4278 5.66176 13.6406C4.88583 11.634 4.96984 8.50558 5.04978 7.17024C5.07361 6.77204 5.31759 6.42653 5.67787 6.25526L11.4985 3.48841C11.815 3.33796 12.1832 3.34179 12.4965 3.4988L18.0585 6.28623C18.3675 6.44109 18.5891 6.72637 18.6483 7.06692C18.8678 8.33068 19.3177 11.5487 18.6447 13.6406Z" stroke="#4E5964" stroke-width="1.5"/>
<path d="M7.24769 13.3124C6.40331 11.5424 6.6633 8.45006 6.7342 7.7628C6.74322 7.67536 6.79667 7.60127 6.87529 7.56197L11.6201 5.18982C11.7947 5.10256 12 5.22948 12 5.42461V17.7694C12 17.9788 11.771 18.1015 11.6016 17.9784C10.6483 17.2853 8.24093 15.3944 7.24769 13.3124Z" fill="#4E5964"/>
</svg>
