<svg width="24" height="24" viewBox="0 0 24 24" fill="none" xmlns="http://www.w3.org/2000/svg">
<path d="M15.7422 19.0415V16.466C15.7827 16.2968 15.8736 16.1386 16.0066 16.0059C16.1395 15.8732 16.3103 15.7701 16.5035 15.706L17.4285 15.3994C17.8924 15.2456 18.29 14.9801 18.5702 14.6371C18.8503 14.2942 19 13.8896 19 13.4754V10.2699C19 6.84451 15.6223 3.99386 11.4863 4.00001C7.35039 4.00616 4 6.7872 4 10.2168V13.4764C4.00002 13.8905 4.14974 14.2952 4.42984 14.6381C4.70995 14.981 5.1076 15.2465 5.57148 15.4004L6.49648 15.707C6.68953 15.771 6.86025 15.874 6.99318 16.0065C7.12612 16.139 7.21708 16.2969 7.25781 16.466V19.0415" stroke="#4E5964" stroke-width="1.5" stroke-miterlimit="10" stroke-linecap="round"/>
<path d="M10.4277 15.9651L11.4992 14.3413L12.5706 15.9651L11.4992 15.9651L10.4277 15.9651Z" stroke="#4E5964" stroke-width="1.5" stroke-linecap="round" stroke-linejoin="round"/>
<path d="M8.5 12.7715C9.32843 12.7715 10 12.0921 10 11.254C10 10.4159 9.32843 8.77148 8.5 8.77148C7.67157 8.77148 6.5 9.96226 6.5 10.8004C6.5 11.6385 7.67157 12.7715 8.5 12.7715Z" fill="#4E5964" stroke="#4E5964" stroke-miterlimit="10" stroke-linecap="round"/>
<path d="M14.5 12.7715C15.3284 12.7715 16.5 11.6385 16.5 10.8004C16.5 9.96226 15.3284 8.77148 14.5 8.77148C13.6716 8.77148 13 10.4159 13 11.254C13 12.0921 13.6716 12.7715 14.5 12.7715Z" fill="#4E5964" stroke="#4E5964" stroke-miterlimit="10" stroke-linecap="round"/>
<path d="M11.5003 19.5542V20.5798M9.35742 19.5542V20.5798M13.6431 19.5542V20.5798" stroke="#4E5964" stroke-width="1.5" stroke-linecap="round" stroke-linejoin="round"/>
</svg>
