<svg width="24" height="24" viewBox="0 0 24 24" fill="none" xmlns="http://www.w3.org/2000/svg">
<path d="M3 15L5.75 15L9 15" stroke="#4E5964" stroke-width="1.5" stroke-linecap="round"/>
<path d="M21 20.0014C20.5234 20.7162 19.9149 21.0304 19.0752 20.9953C18.2978 20.9627 18.1085 19.9766 17.3308 20.0014C16.5939 20.0248 16.4407 20.9229 15.7068 20.9953C14.8281 21.0818 14.5432 19.9557 13.6617 20.0014C12.864 20.0427 12.6557 20.9841 11.8571 20.9953M13.6857 20.0014C12.7714 19.9971 12.6006 21.0304 11.7609 20.9953C10.9835 20.9627 10.7942 19.9766 10.0165 20.0014C9.27966 20.0248 9.12638 20.9229 8.39248 20.9953C7.51379 21.0818 7.22894 19.9557 6.34737 20.0014C5.5497 20.0427 5.34145 20.9841 4.54286 20.9953C3.74426 21.0064 3 20 3 20" stroke="#4E5964" stroke-width="1.5" stroke-linecap="round"/>
<path d="M15.5 15L19.6667 15L21 15" stroke="#4E5964" stroke-width="1.5" stroke-linecap="round"/>
<circle cx="12" cy="15" r="1" stroke="#4E5964" stroke-width="1.5" stroke-linecap="round"/>
<path d="M12.041 13.9879V10.6069" stroke="#4E5964" stroke-width="1.5" stroke-linecap="round"/>
<path d="M11.9441 17.9985C11.3198 17.9789 10.7175 17.7703 10.221 17.4019C9.72447 17.0335 9.35862 16.5237 9.17443 15.9435C8.99025 15.3632 8.99692 14.7416 9.19351 14.1653C9.37151 13.6434 9.45229 13.5648 9.5 13M9.5 13C9.50498 12.941 9.50526 12.5651 9.5 12.5M9.5 13V12.5M9.5 12.5V5.08333C9.5 3.93274 10.7606 3 11.9441 3M12.0559 17.9985C12.6802 17.9789 13.2825 17.7703 13.779 17.4019C14.2755 17.0335 14.6414 16.5237 14.8256 15.9435C15.0098 15.3632 15.0031 14.7416 14.8065 14.1653C14.6285 13.6434 14.5477 13.5648 14.5 13M14.5 13C14.495 12.941 14.4947 12.5651 14.5 12.5M14.5 13V12.5M14.5 12.5V10M13.6622 17.5114C13.1423 17.8478 12.5273 18.0181 11.9031 17.9985M11.9169 3H12.0559C13.2394 3 14.5 3.93274 14.5 5.08333V7.53125" stroke="#4E5964" stroke-width="1.5" stroke-linecap="round"/>
</svg>
