<svg width="24" height="24" viewBox="0 0 24 24" fill="none" xmlns="http://www.w3.org/2000/svg">
<path d="M3 15L5.75 15L9 15" stroke="#4E5964" stroke-width="1.5" stroke-linecap="round"/>
<path d="M21 20.0014C20.5234 20.7162 19.9149 21.0304 19.0752 20.9953C18.2978 20.9627 18.1085 19.9766 17.3308 20.0014C16.5939 20.0248 16.4407 20.9229 15.7068 20.9953C14.8281 21.0818 14.5432 19.9557 13.6617 20.0014C12.864 20.0427 12.6557 20.9841 11.8571 20.9953M13.6857 20.0014C12.7714 19.9971 12.6006 21.0304 11.7609 20.9953C10.9835 20.9627 10.7942 19.9766 10.0165 20.0014C9.27966 20.0248 9.12638 20.9229 8.39248 20.9953C7.51379 21.0818 7.22894 19.9557 6.34737 20.0014C5.5497 20.0427 5.34145 20.9841 4.54286 20.9953C3.74426 21.0064 3 20 3 20" stroke="#4E5964" stroke-width="1.5" stroke-linecap="round"/>
<path d="M15.5 15L19.6667 15L21 15" stroke="#4E5964" stroke-width="1.5" stroke-linecap="round"/>
<circle cx="12" cy="15" r="1" stroke="#4E5964" stroke-width="1.5"/>
<path d="M12.041 13.9879V10.6069" stroke="#4E5964" stroke-width="1.5" stroke-linecap="round"/>
<path d="M11.9205 18.7481C12.3345 18.7611 12.6807 18.436 12.6937 18.022C12.7067 17.608 12.3817 17.2619 11.9676 17.2488L11.9441 17.9985L11.9205 18.7481ZM10.221 17.4019L9.77407 18.0042H9.77407L10.221 17.4019ZM9.17443 15.9435L9.88928 15.7165H9.88928L9.17443 15.9435ZM9.19351 14.1653L8.48367 13.9231L8.48367 13.9231L9.19351 14.1653ZM10.2476 12.4396C10.2142 12.0267 9.85247 11.7191 9.4396 11.7524C9.02673 11.7858 8.71908 12.1475 8.75244 12.5604L9.5 12.5L10.2476 12.4396ZM11.9441 17.9985L11.9676 17.2488C11.4946 17.234 11.0402 17.0759 10.6679 16.7996L10.221 17.4019L9.77407 18.0042C10.3947 18.4647 11.1451 18.7237 11.9205 18.7481L11.9441 17.9985ZM10.221 17.4019L10.6679 16.7996C10.2958 16.5235 10.025 16.1441 9.88928 15.7165L9.17443 15.9435L8.45959 16.1704C8.69223 16.9033 9.15316 17.5435 9.77407 18.0042L10.221 17.4019ZM9.17443 15.9435L9.88928 15.7165C9.75364 15.2892 9.75851 14.832 9.90335 14.4074L9.19351 14.1653L8.48367 13.9231C8.23532 14.6512 8.22686 15.4372 8.45959 16.1704L9.17443 15.9435ZM9.19351 14.1653L9.90335 14.4074C10.0581 13.9536 10.1895 13.7473 10.2473 13.0631L9.5 13L8.75266 12.9369C8.73201 13.1814 8.70751 13.2859 8.67952 13.3758C8.66236 13.4309 8.64127 13.4885 8.60692 13.5808C8.57375 13.6699 8.53194 13.7816 8.48367 13.9231L9.19351 14.1653ZM9.5 13L10.2473 13.0631C10.2532 12.9942 10.2538 12.8459 10.2538 12.7525C10.2539 12.6574 10.2532 12.51 10.2476 12.4396L9.5 12.5L8.75244 12.5604C8.75141 12.5477 8.75158 12.5441 8.75203 12.5597C8.75237 12.5711 8.75271 12.5873 8.75299 12.6078C8.75357 12.6486 8.75386 12.6998 8.75384 12.7521C8.75382 12.8043 8.7535 12.8552 8.75292 12.8953C8.75263 12.9155 8.7523 12.9312 8.75197 12.9421C8.7515 12.9581 8.75138 12.9521 8.75266 12.9369L9.5 13ZM11.9441 3V2.25C11.1662 2.25 10.3906 2.55159 9.80473 3.02857C9.21934 3.50515 8.75 4.22235 8.75 5.08333H9.5H10.25C10.25 4.79372 10.411 4.46926 10.7518 4.19182C11.092 3.91478 11.5385 3.75 11.9441 3.75V3ZM9.5 13H10.25V9H9.5H8.75V13H9.5ZM9.5 9H10.25V5.08333H9.5H8.75V9H9.5Z" fill="#4E5964"/>
<path d="M12.0559 17.9985C12.6802 17.9789 13.2825 17.7703 13.779 17.4019C14.2755 17.0335 14.6414 16.5237 14.8256 15.9435C15.0098 15.3632 15.0031 14.7416 14.8065 14.1653C14.6285 13.6434 14.5477 13.5648 14.5 13M14.5 13C14.495 12.941 14.4947 12.5651 14.5 12.5M14.5 13V11V10M13.6622 17.5114C13.1423 17.8478 12.5273 18.0181 11.9031 17.9985M11.9169 3H12.0559C13.2394 3 14.5 3.93274 14.5 5.08333V7.04167V7.53125" stroke="#4E5964" stroke-width="1.5" stroke-linecap="round"/>
</svg>
