<svg width="24" height="24" viewBox="0 0 24 24" fill="none" xmlns="http://www.w3.org/2000/svg">
<path d="M3 15.9893H8M16 15.9893H21" stroke="#4E5964" stroke-width="1.5" stroke-linecap="round"/>
<path d="M12 16.9946L12 9.33423" stroke="#4E5964" stroke-width="1.5" stroke-linecap="round"/>
<path d="M11.9834 3.25635C13.5085 3.2472 14.7498 4.4813 14.75 6.00635V13.2485C14.7501 13.3976 14.8053 13.587 14.9414 13.8647C15.0082 14.0012 15.0827 14.1359 15.168 14.2935C15.2493 14.4438 15.341 14.6143 15.4199 14.7896C15.7656 15.5575 15.8426 16.4197 15.6387 17.2368C15.4347 18.054 14.961 18.7789 14.2949 19.2944C13.6289 19.8098 12.8089 20.0861 11.9668 20.0786C11.1246 20.0712 10.3092 19.7806 9.65234 19.2534C8.99557 18.7262 8.53515 17.993 8.3457 17.1724C8.15628 16.3517 8.24918 15.4908 8.6084 14.729C8.68523 14.5661 8.77357 14.4057 8.85156 14.2651C8.93355 14.1173 9.00556 13.989 9.06934 13.8608C9.20061 13.5971 9.25 13.4236 9.25 13.2964V6.00635C9.25022 4.49422 10.4713 3.26547 11.9834 3.25635Z" stroke="#4E5964" stroke-width="1.5" stroke-linecap="round"/>
<path d="M19.5 4.82886L17.5 4.82886M19.5 8.82886H17.5M19.5 12.8289H17.5" stroke="#4E5964" stroke-width="1.5" stroke-linecap="round"/>
<path d="M21 19.996C20.5234 20.7108 19.9149 21.025 19.0752 20.9899C18.2978 20.9573 18.1085 19.9712 17.3308 19.996C16.5939 20.0194 16.4407 20.9176 15.7068 20.9899C14.8281 21.0764 14.5673 19.9503 13.6857 19.996C12.7714 19.9917 12.6006 21.025 11.7609 20.9899C10.9835 20.9573 10.7942 19.9712 10.0165 19.996C9.27966 20.0194 9.12638 20.9176 8.39248 20.9899C7.51379 21.0764 7.22894 19.9503 6.34737 19.996C5.5497 20.0373 5.34145 20.9788 4.54286 20.9899C3.74426 21.001 3 19.9946 3 19.9946" stroke="#4E5964" stroke-width="1.5" stroke-linecap="round"/>
</svg>
