<svg width="24" height="25" viewBox="0 0 24 25" fill="none" xmlns="http://www.w3.org/2000/svg">
<path d="M14.4951 8.49064L13.3221 4.72486C12.9066 3.39087 11.0973 3.39087 10.6818 4.72486L9.50879 8.49064C9.32296 9.08722 8.79 9.49113 8.18864 9.49113H4.3927C3.04803 9.49113 2.48894 11.286 3.5768 12.1105L6.64778 14.4378C7.13429 14.8065 7.33787 15.4601 7.15204 16.0567L7.00541 16.5274M17.476 9.49113H17.7132H19.6112C20.9559 9.49113 21.515 11.286 20.4271 12.1105L17.3561 14.4378C16.8696 14.8065 16.666 15.4601 16.8519 16.0567L18.0249 19.8224C18.4404 21.1564 16.9767 22.2657 15.8888 21.4413L12.8179 19.1139C12.3313 18.7452 11.6726 18.7452 11.1861 19.1139L8.11507 21.4413C7.35355 22.0184 6.40785 21.6479 6.05153 20.9162" stroke="#4E5964" stroke-width="1.5" stroke-linecap="round"/>
<path d="M19.975 3.72437L2.88281 20.6907" stroke="#4E5964" stroke-width="1.5" stroke-linecap="round" stroke-linejoin="round"/>
</svg>
