<svg width="24" height="24" viewBox="0 0 24 24" fill="none" xmlns="http://www.w3.org/2000/svg">
<path d="M10.6818 4.00562C11.0973 2.67163 12.9066 2.67163 13.3221 4.00562L14.4951 7.7714C14.6809 8.36798 15.2139 8.77189 15.8153 8.77189H19.6112C20.9559 8.77189 21.515 10.5668 20.4271 11.3912L17.3561 13.7186C16.8696 14.0873 16.666 14.7408 16.8519 15.3374L18.0249 19.1032C18.4404 20.4372 16.9767 21.5465 15.8888 20.722L12.8178 18.3947C12.3313 18.0259 11.6726 18.0259 11.1861 18.3947L8.11507 20.722C7.02721 21.5465 5.5635 20.4372 5.97903 19.1032L7.15204 15.3374C7.33787 14.7408 7.13429 14.0873 6.64778 13.7186L3.5768 11.3912C2.48894 10.5668 3.04803 8.77189 4.3927 8.77189H8.18864C8.79 8.77189 9.32296 8.36798 9.50879 7.7714L10.6818 4.00562Z" stroke="#4E5964" stroke-width="1.5"/>
</svg>
