<svg width="24" height="24" viewBox="0 0 24 24" fill="none" xmlns="http://www.w3.org/2000/svg">
<path fill-rule="evenodd" clip-rule="evenodd" d="M14.1822 2.88861C13.5016 0.703795 10.497 0.703799 9.8164 2.88861L8.51306 7.07281C8.39896 7.43911 8.08483 7.65752 7.76229 7.65752H3.54458C2.41568 7.65752 1.63336 8.42393 1.36168 9.29613C1.09061 10.1663 1.29354 11.24 2.18502 11.9156L5.59722 14.5016C5.87802 14.7144 6.00993 15.1087 5.89444 15.4795L5.63896 16.2997L7.35493 14.5837C7.22276 14.0852 6.93179 13.6309 6.50323 13.3061L3.09103 10.7201C2.77377 10.4797 2.68293 10.0982 2.79381 9.74222C2.90407 9.38825 3.17939 9.15752 3.54458 9.15752H7.76229C8.77609 9.15752 9.64633 8.47834 9.94519 7.51891L11.2485 3.33471C11.4914 2.5551 12.5072 2.5551 12.7501 3.33471L14.0534 7.51891C14.0818 7.61018 14.1154 7.69892 14.1539 7.78478L15.3384 6.60028L14.1822 2.88861ZM16.4024 7.65752L15.1718 8.88819C15.4907 9.06057 15.8533 9.15752 16.2363 9.15752H20.454C20.8192 9.15752 21.0945 9.38825 21.2048 9.74222C21.3157 10.0982 21.2248 10.4797 20.9076 10.7201L17.4954 13.3061C16.695 13.9127 16.3746 14.9707 16.672 15.9256L17.9754 20.1098C18.1048 20.5252 17.9469 20.884 17.6782 21.0877C17.4141 21.2879 17.0768 21.3195 16.7711 21.0877L13.3589 18.5017C12.5504 17.889 11.4482 17.889 10.6397 18.5017L7.22754 21.0877C6.92177 21.3195 6.58453 21.2879 6.32044 21.0877C6.05168 20.884 5.89383 20.5252 6.02322 20.1098L6.96111 17.0989L4.67924 19.3807L4.59109 19.6637C4.2588 20.7305 4.68327 21.7291 5.41444 22.2832C6.15028 22.8409 7.23059 22.9675 8.13355 22.2832L11.5457 19.6972C11.8184 19.4906 12.1802 19.4906 12.4529 19.6972L15.8651 22.2832C16.768 22.9675 17.8483 22.8409 18.5842 22.2832C19.3153 21.7291 19.7398 20.7305 19.4075 19.6637L18.1042 15.4795C17.9887 15.1087 18.1206 14.7144 18.4014 14.5016L21.8136 11.9156C22.7051 11.24 22.908 10.1663 22.6369 9.29612C22.3652 8.42393 21.5829 7.65752 20.454 7.65752H16.4024Z" fill="#4E5964"/>
<path d="M19 2L2 19" stroke="#4E5964" stroke-width="1.5" stroke-linecap="round" stroke-linejoin="round"/>
</svg>
