<svg width="24" height="24" viewBox="0 0 24 24" fill="none" xmlns="http://www.w3.org/2000/svg">
<path d="M16.237 8.40752H20.4547C21.9488 8.40752 22.57 10.4018 21.3613 11.3179L17.9491 13.9039C17.4085 14.3135 17.1823 15.0397 17.3888 15.7025L18.6921 19.8868C19.1538 21.369 17.5275 22.6015 16.3188 21.6855L12.9066 19.0995C12.366 18.6898 11.634 18.6898 11.0934 19.0995L7.68125 21.6855C6.47251 22.6015 4.84616 21.369 5.30786 19.8868L5.63369 18.8407M16.237 8.40752C16.1567 8.40752 16.0775 8.40104 16 8.38849M16.237 8.40752L16 8.38849M14.4443 6.24981L14.1185 5.20376L13.7927 4.15771L13.4668 3.11166C13.0051 1.62945 10.9949 1.62945 10.5332 3.11166L9.22982 7.29586C9.02334 7.95872 8.43116 8.40752 7.76299 8.40752H3.54528C2.05119 8.40752 1.42999 10.4018 2.63872 11.3179L6.05092 13.9039C6.22864 14.0385 6.37238 14.2074 6.47793 14.397C6.53291 14.4958 6.57754 14.6002 6.6112 14.7083M16 8.38849C15.9278 8.37681 15.8571 8.35988 15.7882 8.33802L16 8.38849Z" stroke="#00A881" stroke-width="1.5"/>
<path d="M19 2L2 19" stroke="#00A881" stroke-width="1.5" stroke-linecap="round" stroke-linejoin="round"/>
</svg>
