<svg width="24" height="24" viewBox="0 0 24 24" fill="none" xmlns="http://www.w3.org/2000/svg">
<path d="M14.4932 7.76627L13.3201 4.00049C12.9046 2.6665 11.0954 2.6665 10.6798 4.00049L9.50684 7.76627C9.32101 8.36285 8.78804 8.76676 8.18669 8.76676H4.39075C3.04607 8.76676 2.48699 10.5616 3.57485 11.3861L6.64583 13.7135C7.13234 14.0822 7.33591 14.7357 7.15008 15.3323L7.00346 15.803M17.474 8.76676H17.7113H19.6092C20.9539 8.76676 21.513 10.5616 20.4251 11.3861L17.3542 13.7135C16.8677 14.0822 16.6641 14.7357 16.8499 15.3323L18.0229 19.0981C18.4385 20.4321 16.9747 21.5414 15.8869 20.7169L12.8159 18.3895C12.3294 18.0208 11.6706 18.0208 11.1841 18.3895L8.11312 20.7169C7.3516 21.294 6.4059 20.9236 6.04958 20.1918" stroke="#4E5964" stroke-width="1.5" stroke-linecap="round"/>
<path d="M19.9731 3L2.88086 19.9663" stroke="#4E5964" stroke-width="1.5" stroke-linecap="round" stroke-linejoin="round"/>
</svg>
