<svg width="24" height="24" viewBox="0 0 24 24" fill="none" xmlns="http://www.w3.org/2000/svg">
<path d="M21 7.63559V16.5C21 18.9853 18.9853 21 16.5 21H7.5C5.01472 21 3 18.9853 3 16.5V7.5C3 5.01472 5.01472 3 7.5 3H15" stroke="#4E5964" stroke-width="1.5" stroke-linecap="round"/>
<line x1="6.75" y1="9.25" x2="8.25" y2="9.25" stroke="#4E5964" stroke-width="1.5" stroke-linecap="round"/>
<line x1="6.75" y1="6.25" x2="11.25" y2="6.25" stroke="#4E5964" stroke-width="1.5" stroke-linecap="round"/>
<path d="M15.6715 3.09666L20.884 7.44046C21.1318 7.64694 20.9563 8 20.6059 8H15.3933C15.1761 8 15 7.85325 15 7.67223V3.32843C15 3.03642 15.4237 2.89017 15.6715 3.09666Z" stroke="#4E5964" stroke-width="1.5"/>
<path d="M9.74 18.43H8.65C8.12333 18.43 7.71667 18.29 7.43 18.01C7.14333 17.73 7 17.3267 7 16.8V13.63C7 13.1033 7.14333 12.7 7.43 12.42C7.71667 12.14 8.12333 12 8.65 12H9.74C10.26 12 10.6633 12.1433 10.95 12.43C11.2433 12.71 11.39 13.11 11.39 13.63V14.1C11.39 14.2467 11.3167 14.32 11.17 14.32H10.33C10.19 14.32 10.12 14.2467 10.12 14.1V13.69C10.12 13.4767 10.0733 13.3267 9.98 13.24C9.89333 13.1467 9.74333 13.1 9.53 13.1H8.85C8.64333 13.1 8.49333 13.1467 8.4 13.24C8.31333 13.3267 8.27 13.4767 8.27 13.69V16.74C8.27 16.9533 8.31333 17.1067 8.4 17.2C8.49333 17.2867 8.64333 17.33 8.85 17.33H9.53C9.74333 17.33 9.89333 17.2867 9.98 17.2C10.0733 17.1067 10.12 16.9533 10.12 16.74V16.33C10.12 16.1833 10.19 16.11 10.33 16.11H11.17C11.3167 16.11 11.39 16.1833 11.39 16.33V16.8C11.39 17.32 11.2433 17.7233 10.95 18.01C10.6633 18.29 10.26 18.43 9.74 18.43Z" fill="#4E5964"/>
<path d="M15.1209 18.43H14.0309C13.5042 18.43 13.0975 18.29 12.8109 18.01C12.5242 17.73 12.3809 17.3267 12.3809 16.8V13.63C12.3809 13.1033 12.5242 12.7 12.8109 12.42C13.0975 12.14 13.5042 12 14.0309 12H15.1209C15.6409 12 16.0442 12.1433 16.3309 12.43C16.6242 12.71 16.7709 13.11 16.7709 13.63V14.1C16.7709 14.2467 16.6975 14.32 16.5509 14.32H15.7109C15.5709 14.32 15.5009 14.2467 15.5009 14.1V13.69C15.5009 13.4767 15.4542 13.3267 15.3609 13.24C15.2742 13.1467 15.1242 13.1 14.9109 13.1H14.2309C14.0242 13.1 13.8742 13.1467 13.7809 13.24C13.6942 13.3267 13.6509 13.4767 13.6509 13.69V16.74C13.6509 16.9533 13.6942 17.1067 13.7809 17.2C13.8742 17.2867 14.0242 17.33 14.2309 17.33H14.9109C15.1242 17.33 15.2742 17.2867 15.3609 17.2C15.4542 17.1067 15.5009 16.9533 15.5009 16.74V16.33C15.5009 16.1833 15.5709 16.11 15.7109 16.11H16.5509C16.6975 16.11 16.7709 16.1833 16.7709 16.33V16.8C16.7709 17.32 16.6242 17.7233 16.3309 18.01C16.0442 18.29 15.6409 18.43 15.1209 18.43Z" fill="#4E5964"/>
</svg>
