<svg width="24" height="24" viewBox="0 0 24 24" fill="none" xmlns="http://www.w3.org/2000/svg">
<path d="M21 7.63559V16.5C21 18.9853 18.9853 21 16.5 21H7.5C5.01472 21 3 18.9853 3 16.5V7.5C3 5.01472 5.01472 3 7.5 3H15" stroke="#4E5964" stroke-width="1.5" stroke-linecap="round"/>
<line x1="6.75" y1="9.25" x2="8.25" y2="9.25" stroke="#4E5964" stroke-width="1.5" stroke-linecap="round"/>
<line x1="6.75" y1="6.25" x2="11.25" y2="6.25" stroke="#4E5964" stroke-width="1.5" stroke-linecap="round"/>
<path d="M15.6715 3.09666L20.884 7.44046C21.1318 7.64694 20.9563 8 20.6059 8H15.3933C15.1761 8 15 7.85325 15 7.67223V3.32843C15 3.03642 15.4237 2.89017 15.6715 3.09666Z" stroke="#4E5964" stroke-width="1.5"/>
<path d="M11.2012 14.5V13.8333C11.2012 13.097 10.6042 12.5 9.86784 12.5H8.53451C7.79813 12.5 7.20117 13.097 7.20117 13.8333V17.1667C7.20117 17.903 7.79813 18.5 8.53451 18.5H9.86784C10.6042 18.5 11.2012 17.903 11.2012 17.1667V17" stroke="#4E5964" stroke-width="1.5" stroke-linecap="round" stroke-linejoin="round"/>
<path d="M17.2012 14.5V13.8333C17.2012 13.097 16.6042 12.5 15.8678 12.5H14.5345C13.7981 12.5 13.2012 13.097 13.2012 13.8333V17.1667C13.2012 17.903 13.7981 18.5 14.5345 18.5H15.8678C16.6042 18.5 17.2012 17.903 17.2012 17.1667V17" stroke="#4E5964" stroke-width="1.5" stroke-linecap="round" stroke-linejoin="round"/>
</svg>
