<svg width="24" height="24" viewBox="0 0 24 24" fill="none" xmlns="http://www.w3.org/2000/svg">
<path d="M12 21C16.9706 21 21 16.9706 21 12C21 7.02944 16.9706 3 12 3C7.02944 3 3 7.02944 3 12C3 16.9706 7.02944 21 12 21Z" stroke="#4E5964" stroke-width="1.5" stroke-miterlimit="10" stroke-linecap="round" stroke-linejoin="round"/>
<path d="M9.288 15.716H7.98C7.348 15.716 6.86 15.548 6.516 15.212C6.172 14.876 6 14.392 6 13.76V9.956C6 9.324 6.172 8.84 6.516 8.504C6.86 8.168 7.348 8 7.98 8H9.288C9.912 8 10.396 8.172 10.74 8.516C11.092 8.852 11.268 9.332 11.268 9.956V10.52C11.268 10.696 11.18 10.784 11.004 10.784H9.996C9.828 10.784 9.744 10.696 9.744 10.52V10.028C9.744 9.772 9.688 9.592 9.576 9.488C9.472 9.376 9.292 9.32 9.036 9.32H8.22C7.972 9.32 7.792 9.376 7.68 9.488C7.576 9.592 7.524 9.772 7.524 10.028V13.688C7.524 13.944 7.576 14.128 7.68 14.24C7.792 14.344 7.972 14.396 8.22 14.396H9.036C9.292 14.396 9.472 14.344 9.576 14.24C9.688 14.128 9.744 13.944 9.744 13.688V13.196C9.744 13.02 9.828 12.932 9.996 12.932H11.004C11.18 12.932 11.268 13.02 11.268 13.196V13.76C11.268 14.384 11.092 14.868 10.74 15.212C10.396 15.548 9.912 15.716 9.288 15.716Z" fill="#4E5964"/>
<path d="M15.745 15.716H14.437C13.805 15.716 13.317 15.548 12.973 15.212C12.629 14.876 12.457 14.392 12.457 13.76V9.956C12.457 9.324 12.629 8.84 12.973 8.504C13.317 8.168 13.805 8 14.437 8H15.745C16.369 8 16.853 8.172 17.197 8.516C17.549 8.852 17.725 9.332 17.725 9.956V10.52C17.725 10.696 17.637 10.784 17.461 10.784H16.453C16.285 10.784 16.201 10.696 16.201 10.52V10.028C16.201 9.772 16.145 9.592 16.033 9.488C15.929 9.376 15.749 9.32 15.493 9.32H14.677C14.429 9.32 14.249 9.376 14.137 9.488C14.033 9.592 13.981 9.772 13.981 10.028V13.688C13.981 13.944 14.033 14.128 14.137 14.24C14.249 14.344 14.429 14.396 14.677 14.396H15.493C15.749 14.396 15.929 14.344 16.033 14.24C16.145 14.128 16.201 13.944 16.201 13.688V13.196C16.201 13.02 16.285 12.932 16.453 12.932H17.461C17.637 12.932 17.725 13.02 17.725 13.196V13.76C17.725 14.384 17.549 14.868 17.197 15.212C16.853 15.548 16.369 15.716 15.745 15.716Z" fill="#4E5964"/>
</svg>
