<svg width="24" height="24" viewBox="0 0 24 24" fill="none" xmlns="http://www.w3.org/2000/svg">
<path d="M18 12C18 8.68629 15.3137 6 12 6C8.68629 6 6 8.68629 6 12" stroke="#4E5964" stroke-width="1.5"/>
<path d="M11.9961 2.84155L11.9961 1.99995" stroke="#4E5964" stroke-width="1.5" stroke-linecap="round"/>
<path d="M18.7441 5L18.0003 5.74387" stroke="#4E5964" stroke-width="1.5" stroke-linecap="round"/>
<path d="M5.74414 5.7439L5.00027 5.00002" stroke="#4E5964" stroke-width="1.5" stroke-linecap="round"/>
<path d="M3 14C3 14 10.2975 14 15 14C19.7025 14 21 14 21 14" stroke="#4E5964" stroke-width="1.5" stroke-linecap="round"/>
<path d="M7 17C7 17 11.0541 17 13.6667 17C16.2792 17 17 17 17 17" stroke="#4E5964" stroke-width="1.5" stroke-linecap="round"/>
<path d="M13 20.0301L12.0153 21L11 20" stroke="#4E5964" stroke-width="1.5" stroke-linecap="round" stroke-linejoin="round"/>
</svg>
