<svg width="24" height="24" viewBox="0 0 24 24" fill="none" xmlns="http://www.w3.org/2000/svg">
<path d="M4 7C4 4.79086 5.79086 3 8 3H16C18.2091 3 20 4.79086 20 7V17C20 19.2091 18.2091 21 16 21H8C5.79086 21 4 19.2091 4 17V7Z" stroke="#4E5964" stroke-width="1.5"/>
<path d="M12 16.25C12.9665 16.25 13.75 17.0335 13.75 18C13.75 18.9665 12.9665 19.75 12 19.75C11.0335 19.75 10.25 18.9665 10.25 18C10.25 17.0335 11.0335 16.25 12 16.25ZM12 17.5C11.7239 17.5 11.5 17.7239 11.5 18C11.5 18.2761 11.7239 18.5 12 18.5C12.2761 18.5 12.5 18.2761 12.5 18C12.5 17.7239 12.2761 17.5 12 17.5Z" fill="#4E5964"/>
<path d="M4 15L20 15" stroke="#4E5964" stroke-width="1.5" stroke-linecap="round"/>
<path d="M11 6L13 6" stroke="#4E5964" stroke-width="1.5" stroke-linecap="round"/>
</svg>
