<svg width="24" height="24" viewBox="0 0 24 24" fill="none" xmlns="http://www.w3.org/2000/svg">
<path d="M4 7.5C4 5.01472 6.01472 3 8.5 3H15.5C17.9853 3 20 5.01472 20 7.5V16.5C20 18.9853 17.9853 21 15.5 21H8.5C6.01472 21 4 18.9853 4 16.5V7.5Z" stroke="#4E5964" stroke-width="1.5"/>
<path d="M13.4 17.1C13.4 17.7628 12.8627 18.3 12.2 18.3C11.5373 18.3 11 17.7628 11 17.1C11 16.4373 11.5373 15.9 12.2 15.9C12.8627 15.9 13.4 16.4373 13.4 17.1Z" stroke="#4E5964" stroke-width="1.5"/>
<path d="M10 6L14 6" stroke="#4E5964" stroke-width="1.5" stroke-linecap="round"/>
</svg>
