<svg width="24" height="24" viewBox="0 0 24 24" fill="none" xmlns="http://www.w3.org/2000/svg">
<path d="M4 7.5C4 5.01472 6.01472 3 8.5 3H15.5C17.9853 3 20 5.01472 20 7.5V16.5C20 18.9853 17.9853 21 15.5 21H8.5C6.01472 21 4 18.9853 4 16.5V7.5Z" stroke="#4E5964" stroke-width="1.5"/>
<path d="M12 15.25C12.9665 15.25 13.75 16.0335 13.75 17C13.75 17.9665 12.9665 18.75 12 18.75C11.0335 18.75 10.25 17.9665 10.25 17C10.25 16.0335 11.0335 15.25 12 15.25ZM12 16.5C11.7239 16.5 11.5 16.7239 11.5 17C11.5 17.2761 11.7239 17.5 12 17.5C12.2761 17.5 12.5 17.2761 12.5 17C12.5 16.7239 12.2761 16.5 12 16.5Z" fill="#4E5964"/>
<path d="M10 6L14 6" stroke="#4E5964" stroke-width="1.5" stroke-linecap="round"/>
</svg>
