<svg width="24" height="25" viewBox="0 0 24 25" fill="none" xmlns="http://www.w3.org/2000/svg">
<path d="M8.35571 7.7369L7.28583 7.44027C6.45149 7.20895 6.27192 6.10538 6.99253 5.63786C7.11144 5.56072 7.24574 5.50997 7.38646 5.48901L11.3174 4.9034M16.5807 19.7862L16.1291 11.0998C16.1127 10.7839 16.2133 10.4733 16.4117 10.2273L20.8592 4.71149C21.1645 4.33287 20.954 3.76473 20.4751 3.67515L16.9836 3.022C16.5208 2.93541 16.0481 3.10831 15.7512 3.47282L6.64114 14.6564C6.44654 14.8952 6.17241 15.0561 5.86871 15.1096L3.87903 15.4603C3.30071 15.5622 2.91551 16.1136 3.01866 16.692C3.06957 16.9774 3.2348 17.23 3.47611 17.3912L6.29357 19.2732C6.81913 19.6242 7.52107 19.5426 7.95039 19.0806L11.1481 15.639C11.8442 14.8899 13.0959 15.2159 13.3409 16.2103L14.3037 20.118C14.5476 21.1076 15.8593 21.3232 16.4036 20.4631C16.5312 20.2614 16.5931 20.0249 16.5807 19.7862Z" stroke="#4E5964" stroke-width="1.5" stroke-linecap="round"/>
</svg>
