<svg width="24" height="24" viewBox="0 0 24 24" fill="none" xmlns="http://www.w3.org/2000/svg">
<path d="M12.4696 8.29056C11.3651 7.97957 10.1875 8.05467 9.13151 8.50343C8.07548 8.95219 7.20412 9.74777 6.6614 10.7587C6.11868 11.7697 5.93706 12.9356 6.14655 14.0637C6.35604 15.1918 6.94411 16.2148 7.8136 16.9635C8.68309 17.7122 9.78198 18.1419 10.9287 18.1816C12.0755 18.2214 13.2014 17.8687 14.1207 17.1819C15.0399 16.4952 15.6973 15.5154 15.9843 14.4044C16.2269 13.4657 16.1927 12.4807 15.8918 11.5668" stroke="#4E5964" stroke-width="1.5" stroke-linecap="round"/>
<circle cx="11.1049" cy="13.1436" r="1.02194" transform="rotate(-26.9918 11.1049 13.1436)" stroke="#4E5964" stroke-width="1.41283"/>
<path d="M11.2841 12.9656L17.3633 6.3999" stroke="#4E5964" stroke-width="1.5" stroke-linecap="round"/>
<path d="M17.6834 6.05462L17.5729 3.18146C17.5664 3.01376 17.3605 2.93757 17.2464 3.06072L14.4349 6.0972C14.3864 6.14956 14.3717 6.22481 14.3969 6.29158L15.0824 8.11181C15.0928 8.13928 15.1094 8.16395 15.131 8.18386L15.7589 8.76336C15.7804 8.78312 15.8061 8.79765 15.834 8.80579L17.7019 9.34958C17.7704 9.36952 17.8443 9.34905 17.8928 9.29669L20.7043 6.26021C20.8183 6.13707 20.7265 5.93754 20.5588 5.94399L17.6857 6.05452" stroke="#4E5964" stroke-width="1.5" stroke-linecap="round"/>
<path d="M12.1834 5.35919C10.5262 5.12934 8.83901 5.4344 7.36727 6.22995C5.89554 7.0255 4.71614 8.27002 4.00075 9.78233C3.28535 11.2947 3.07131 12.9958 3.38979 14.6382C3.70826 16.2806 4.54262 17.7785 5.77142 18.9138C7.00021 20.0492 8.55929 20.7627 10.2217 20.9505C11.8841 21.1383 13.5631 20.7906 15.0142 19.9581C16.4653 19.1255 17.6128 17.8515 18.2897 16.3216C18.9666 14.7916 19.1375 13.0856 18.7775 11.4518" stroke="#4E5964" stroke-width="1.5" stroke-linecap="round"/>
</svg>
