<svg width="24" height="24" viewBox="0 0 24 24" fill="none" xmlns="http://www.w3.org/2000/svg">
<circle cx="11.5" cy="17.5" r="1.5" stroke="#4E5964" stroke-width="1.5"/>
<path d="M9 14.5C9.06488 15.326 8.40727 15.7067 8.17791 16.3983C7.94855 17.0899 7.94077 17.8359 8.15565 18.5322C8.37054 19.2284 8.79737 19.8402 9.37662 20.2823C9.95586 20.7244 10.6586 20.9746 11.3869 20.9982C12.1152 21.0217 12.8327 20.8174 13.4393 20.4136C14.0459 20.0099 14.5113 19.4269 14.7707 18.746C15.0301 18.0651 15.0705 17.3201 14.8863 16.6152C14.7021 15.9102 14 15.8707 14 15V11.5M9 14.723V5.5C9 4.11929 10.1193 3 11.5 3C12.8807 3 14 4.11929 14 5.5L14 6.5" stroke="#4E5964" stroke-width="1.5"/>
<path d="M11.5 16V12" stroke="#4E5964" stroke-width="1.5" stroke-linecap="round"/>
<path d="M14 12L14 10" stroke="#4E5964" stroke-width="1.5" stroke-linecap="round"/>
<path d="M14 7.5V6" stroke="#4E5964" stroke-width="1.5" stroke-linecap="round"/>
</svg>
