<svg width="24" height="24" viewBox="0 0 24 24" fill="none" xmlns="http://www.w3.org/2000/svg">
<path d="M4 9.5C4 6.46243 6.46243 4 9.5 4H16.5C19.5376 4 22 6.46243 22 9.5V16.5C22 19.5376 19.5376 22 16.5 22H9.5C6.46243 22 4 19.5376 4 16.5V9.5Z" stroke="#4E5964" stroke-width="1.5"/>
<path d="M13.1172 9.1875V13.8029" stroke="#4E5964" stroke-width="1.5" stroke-linecap="round" stroke-linejoin="round"/>
<path d="M13.7 14.1C13.7 14.4314 13.4314 14.7 13.1 14.7C12.7686 14.7 12.5 14.4314 12.5 14.1C12.5 13.7686 12.7686 13.5 13.1 13.5C13.4314 13.5 13.7 13.7686 13.7 14.1Z" stroke="#4E5964"/>
<path d="M2.26207 4.37533L4.97413 1.99947" stroke="#4E5964" stroke-width="1.5" stroke-linecap="round"/>
</svg>
