<svg width="24" height="24" viewBox="0 0 24 24" fill="none" xmlns="http://www.w3.org/2000/svg">
<path d="M3 9.19444C3 6.32563 5.46243 4 8.5 4H15.5C18.5376 4 21 6.32563 21 9.19444V15.8056C21 18.6744 18.5376 21 15.5 21H8.5C5.46243 21 3 18.6744 3 15.8056V9.19444Z" stroke="#4E5964" stroke-width="1.5"/>
<path d="M12.1172 9.1875V13.8029" stroke="#4E5964" stroke-width="1.5" stroke-linecap="round" stroke-linejoin="round"/>
<path d="M12.0996 13.5C12.4309 13.5 12.7 13.7684 12.7002 14.0996C12.7002 14.431 12.431 14.7002 12.0996 14.7002C11.7684 14.7 11.5 14.4309 11.5 14.0996C11.5002 13.7685 11.7685 13.5002 12.0996 13.5Z" stroke="#4E5964"/>
<path d="M2.26207 4.37582L4.97413 1.99996" stroke="#4E5964" stroke-width="1.5" stroke-linecap="round"/>
</svg>
