<svg width="24" height="24" viewBox="0 0 24 24" fill="none" xmlns="http://www.w3.org/2000/svg">
<path d="M17.7764 8.8667V15.3647H17.6924V9.24658H16.6514L16.7666 8.8667H17.7764ZM12.8809 8.8667L12.9912 9.23486H11.9434V15.3647H11.8594V8.8667H12.8809ZM15.1162 13.4019L15.0459 13.6343H14.6123L14.54 13.4019H15.1162Z" stroke="#4E5964" stroke-width="1.44825"/>
<path d="M8.12207 8.8667C8.05476 8.89923 7.98644 8.94233 7.92188 9.00146C7.70043 9.20445 7.64946 9.46329 7.64941 9.63721V15.3647H7.52832V9.63721C7.52828 9.4803 7.48833 9.23014 7.28223 9.02393C7.21207 8.95377 7.1365 8.90332 7.06152 8.8667H8.12207Z" stroke="#4E5964" stroke-width="1.44825"/>
<rect x="3" y="3" width="18" height="18" rx="4.5" stroke="#4E5964" stroke-width="1.5"/>
</svg>
