<svg width="24" height="24" viewBox="0 0 24 24" fill="none" xmlns="http://www.w3.org/2000/svg">
<rect x="3" y="3" width="18" height="18" rx="4.5" stroke="#4E5964" stroke-width="1.5"/>
<path d="M8.024 15.716H7.016C6.84 15.716 6.752 15.632 6.752 15.464V9.452C6.752 9.364 6.708 9.32 6.62 9.32H5.252C5.084 9.32 5 9.236 5 9.068V8.252C5 8.084 5.084 8 5.252 8H9.788C9.956 8 10.04 8.084 10.04 8.252V9.068C10.04 9.236 9.956 9.32 9.788 9.32H8.42C8.324 9.32 8.276 9.364 8.276 9.452V15.464C8.276 15.632 8.192 15.716 8.024 15.716Z" fill="#4E5964"/>
<path d="M16.0803 8H17.8563C18.0243 8 18.1083 8.084 18.1083 8.252V15.464C18.1083 15.632 18.0243 15.716 17.8563 15.716H16.8723C16.7043 15.716 16.6203 15.632 16.6203 15.464V9.776H16.5723L15.3483 13.796C15.3003 13.956 15.2003 14.036 15.0483 14.036H14.0403C13.8883 14.036 13.7883 13.956 13.7403 13.796L12.4923 9.764H12.4443V15.464C12.4443 15.56 12.4283 15.628 12.3963 15.668C12.3643 15.7 12.2963 15.716 12.1923 15.716H11.2083C11.0403 15.716 10.9563 15.632 10.9563 15.464V8.252C10.9563 8.084 11.0403 8 11.2083 8H12.9963C13.1083 8 13.1843 8.056 13.2243 8.168L14.4963 12.404H14.5683L15.8523 8.168C15.8763 8.056 15.9523 8 16.0803 8Z" fill="#4E5964"/>
</svg>
