<svg width="24" height="24" viewBox="0 0 24 24" fill="none" xmlns="http://www.w3.org/2000/svg">
<path d="M20 8H13.12H9.94667H6.77333H4" stroke="#4E5964" stroke-width="1.5" stroke-linecap="round"/>
<path d="M7 6V6C7 4.34315 8.34315 3 10 3H14C15.6569 3 17 4.34315 17 6V6" stroke="#4E5964" stroke-width="1.5" stroke-linecap="round"/>
<path d="M8.99998 17L9 13" stroke="#4E5964" stroke-width="1.5" stroke-linecap="round"/>
<path d="M15 17L15 13" stroke="#4E5964" stroke-width="1.5" stroke-linecap="round"/>
<path d="M12 17L12 13" stroke="#4E5964" stroke-width="1.5" stroke-linecap="round"/>
<path d="M19 8C19 9.21739 19 11.0957 19 12.8657V16.0362C19 19.3299 17.0848 22 14.7222 22H9.27779C6.91524 22 5.00001 19.3299 5.00001 16.0362V12.8657C5.00001 11.0957 5 9.21739 5 8" stroke="#4E5964" stroke-width="1.5"/>
</svg>
