<svg width="24" height="24" viewBox="0 0 24 24" fill="none" xmlns="http://www.w3.org/2000/svg">
<path d="M3 12C3 11.4477 3.44772 11 4 11H20C20.5523 11 21 11.4477 21 12V17.5C21 19.433 19.433 21 17.5 21H6.5C4.567 21 3 19.433 3 17.5V12Z" stroke="#4E5964" stroke-width="1.5"/>
<path d="M12 16C12.5523 16 13 15.5523 13 15C13 14.4477 12.5523 14 12 14C11.4477 14 11 14.4477 11 15C11 15.5523 11.4477 16 12 16Z" stroke="#4E5964" stroke-width="1.5" stroke-miterlimit="10" stroke-linecap="round" stroke-linejoin="round"/>
<path d="M12 16L12 18" stroke="#4E5964" stroke-width="1.5" stroke-miterlimit="10" stroke-linecap="round" stroke-linejoin="round"/>
<path d="M4.5 11L3.77755 7.62859C3.37737 5.76105 4.80103 4 6.71096 4H17.289C19.199 4 20.6226 5.76105 20.2224 7.62859L19.5 11" stroke="#4E5964" stroke-width="1.5" stroke-linecap="round"/>
<path d="M10 3.99977L10.7071 3.40065C11.4531 2.7685 12.5469 2.7685 13.2929 3.40065L14 3.99977" stroke="#4E5964" stroke-width="1.5" stroke-linecap="round"/>
<path d="M6 10.2354C6 10.2354 6.36666 9.15573 7.09091 8.95586C7.49265 8.84499 7.77765 9.0612 8.18182 8.95586C8.75339 8.80689 8.70115 8.25184 9.27273 8.10286C9.67689 7.99752 9.95947 8.2082 10.3636 8.10286C10.9352 7.95389 10.8638 7.34226 11.4545 7.24987C11.6634 7.2172 12 7.24987 12 7.24987" stroke="#4E5964" stroke-width="1.51" stroke-linecap="round"/>
<path d="M18 10.2354C18 10.2354 17.6333 9.15931 16.9091 8.9601C16.5074 8.8496 16.2223 9.06509 15.8182 8.9601C15.2466 8.81162 15.2988 8.25842 14.7273 8.10994C14.3231 8.00494 14.0405 8.21493 13.6364 8.10994C13.0648 7.96146 13.1362 7.35185 12.5455 7.25977C12.3366 7.22721 12.2089 7.22721 12 7.25977" stroke="#4E5964" stroke-width="1.51" stroke-linecap="round"/>
<line x1="3.75" y1="15.25" x2="6.25" y2="15.25" stroke="#4E5964" stroke-width="1.5" stroke-linecap="round"/>
<line x1="17.75" y1="15.25" x2="20.25" y2="15.25" stroke="#4E5964" stroke-width="1.5" stroke-linecap="round"/>
</svg>
