<svg width="24" height="24" viewBox="0 0 24 24" fill="none" xmlns="http://www.w3.org/2000/svg">
<path d="M5.50195 18.9979C4.12124 18.9979 3.00195 17.8786 3.00195 16.4979L3.00195 12.9764L13.002 12.9764V8.46021L19.002 8.46021L21.002 11.9728V17.9979C21.002 18.5502 20.5542 18.9979 20.002 18.9979" stroke="#4E5964" stroke-width="1.5" stroke-linecap="square" stroke-linejoin="round"/>
<path d="M11.002 5.95117H5.00195" stroke="#4E5964" stroke-width="1.5" stroke-linecap="round"/>
<path d="M15.0026 8.20586V5.00513C15.0026 3.90056 14.1072 3.00513 13.0026 3.00513H6.99414" stroke="#4E5964" stroke-width="1.5" stroke-linecap="round"/>
<path d="M20.502 12.9763H13.002" stroke="#4E5964" stroke-width="1.5" stroke-linecap="round"/>
<path d="M6.00195 8.96191H3.00195" stroke="#4E5964" stroke-width="1.5" stroke-linecap="round"/>
<path d="M10.002 18.998H15.002" stroke="#4E5964" stroke-width="1.5"/>
<path d="M18.4161 17.579C18.9881 18.153 19.1592 19.0162 18.8497 19.7661C18.5401 20.5161 17.8109 21.0051 17.002 21.0051C16.193 21.0051 15.4638 20.5161 15.1542 19.7661C14.8447 19.0162 15.0158 18.153 15.5879 17.579C15.9627 17.2024 16.4715 16.9907 17.002 16.9907C17.5324 16.9907 18.0412 17.2024 18.4161 17.579" stroke="#4E5964" stroke-width="1.5" stroke-linecap="round" stroke-linejoin="round"/>
<path d="M9.41605 17.579C9.98807 18.153 10.1592 19.0162 9.84968 19.7661C9.54014 20.5161 8.81087 21.0051 8.00195 21.0051C7.19303 21.0051 6.46377 20.5161 6.15423 19.7661C5.84469 19.0162 6.01583 18.153 6.58785 17.579C6.96274 17.2024 7.47147 16.9907 8.00195 16.9907C8.53244 16.9907 9.04116 17.2024 9.41605 17.579" stroke="#4E5964" stroke-width="1.5" stroke-linecap="round" stroke-linejoin="round"/>
</svg>
