<svg width="24" height="24" viewBox="0 0 24 24" fill="none" xmlns="http://www.w3.org/2000/svg">
<path d="M18.4141 17.5862C18.9861 18.1581 19.1573 19.0182 18.8477 19.7655C18.5382 20.5128 17.8089 21 17 21C16.1911 21 15.4618 20.5128 15.1523 19.7655C14.8427 19.0182 15.0139 18.1581 15.5859 17.5862C15.9608 17.2109 16.4695 17 17 17C17.5305 17 18.0392 17.2109 18.4141 17.5862" stroke="#4E5964" stroke-width="1.5" stroke-linecap="round" stroke-linejoin="round"/>
<path d="M9.4141 17.5862C9.98612 18.1581 10.1573 19.0182 9.84772 19.7655C9.53818 20.5128 8.80892 21 8 21C7.19108 21 6.46182 20.5128 6.15228 19.7655C5.84273 19.0182 6.01388 18.1581 6.5859 17.5862C6.96079 17.2109 7.46952 17 8 17C8.53048 17 9.03921 17.2109 9.4141 17.5862" stroke="#4E5964" stroke-width="1.5" stroke-linecap="round" stroke-linejoin="round"/>
<path d="M19 19L20 19C20.5523 19 21 18.5523 21 18L21 12L19 8.50001L13 8.5L13 13L3 13L3 16C3 17.6569 4.34314 19 6 19V19" stroke="#4E5964" stroke-width="1.5" stroke-linecap="round" stroke-linejoin="round"/>
<path d="M7 2.25C6.58579 2.25 6.25 2.58579 6.25 3C6.25 3.41421 6.58579 3.75 7 3.75V2.25ZM15.75 8.5V5H14.25V8.5H15.75ZM13 2.25H7V3.75H13V2.25ZM15.75 5C15.75 3.48122 14.5188 2.25 13 2.25V3.75C13.6904 3.75 14.25 4.30964 14.25 5H15.75Z" fill="#4E5964"/>
<path d="M15 8.5V5C15 3.89543 14.1046 3 13 3H7" stroke="#4E5964" stroke-width="1.5" stroke-linecap="round"/>
<path d="M11 6H5" stroke="#4E5964" stroke-width="1.5" stroke-linecap="round"/>
<path d="M20.5 13H13" stroke="#4E5964" stroke-width="1.5" stroke-linecap="round"/>
<path d="M6 9H3" stroke="#4E5964" stroke-width="1.5" stroke-linecap="round"/>
<path d="M10 19.5H15" stroke="#4E5964" stroke-width="1.5"/>
</svg>
