<svg width="24" height="24" viewBox="0 0 24 24" fill="none" xmlns="http://www.w3.org/2000/svg">
<path d="M18.6347 13.2654C17.8957 15.6483 15.0482 18.7018 13.333 20.3844C12.5934 21.1098 11.4278 21.0894 10.7134 20.3392C9.11387 18.6594 6.48521 15.664 5.59114 13.2654C4.9112 11.4413 4.96114 8.43044 5.05254 6.78571C5.09253 6.06618 5.54688 5.44634 6.20716 5.15764L11.1851 2.9811C11.7039 2.75428 12.2945 2.75796 12.8104 2.99123L17.6593 5.18377C18.2686 5.4593 18.7005 6.02004 18.7794 6.68413C18.971 8.29577 19.2208 11.3753 18.6347 13.2654Z" stroke="#4E5964" stroke-width="1.5"/>
<path d="M9.53804 13.1372L11.5644 15.1635C11.8047 15.4038 12.1943 15.4038 12.4346 15.1635L14.4609 13.1372" stroke="#4E5964" stroke-width="1.5" stroke-linecap="round" stroke-linejoin="round"/>
<path d="M12 7.59814L12 14.9825" stroke="#4E5964" stroke-width="1.5" stroke-linecap="round" stroke-linejoin="round"/>
</svg>
