<svg width="24" height="24" viewBox="0 0 24 24" fill="none" xmlns="http://www.w3.org/2000/svg">
<path d="M9.53711 13.1372L11.5634 15.1635C11.8037 15.4038 12.1934 15.4038 12.4337 15.1635L14.46 13.1372M11.9991 7.59814L11.9991 14.9825" stroke="#4E5964" stroke-width="1.5" stroke-linecap="round" stroke-linejoin="round"/>
<path d="M18.5693 14.389C17.63 17.22 13.9583 19.7667 12.5522 20.6579C12.2124 20.8733 11.788 20.8733 11.4481 20.6579C10.0418 19.7668 6.36948 17.2203 5.43019 14.3892C4.74912 12.3364 5.06813 8.29874 5.11811 6.97649C5.1335 6.56934 5.38177 6.21043 5.75742 6.02788L11.5031 3.23616C11.8169 3.08366 12.1834 3.08366 12.4973 3.23614L18.2431 6.02768C18.6187 6.21022 18.867 6.56913 18.8824 6.97628C18.9324 8.29853 19.2504 12.3362 18.5693 14.389Z" stroke="#4E5964" stroke-width="1.5" stroke-linecap="round"/>
</svg>
