<svg width="24" height="24" viewBox="0 0 24 24" fill="none" xmlns="http://www.w3.org/2000/svg">
<path d="M8.32895 12H7.26316H6.3C4.47746 12 3 13.4775 3 15.3V17.2263C3 19.0489 4.47746 20.5263 6.3 20.5263H16.7526C18.5752 20.5263 20.0526 19.0489 20.0526 17.2263V15.3C20.0526 13.4775 18.5752 12 16.7526 12H15.7895H14.7237" stroke="#4E5964" stroke-width="1.5" stroke-linecap="round"/>
<rect x="7.73633" y="14.8423" width="7.57895" height="2.84211" rx="1" stroke="#4E5964" stroke-width="1.5"/>
<path d="M10.6062 4.18242C11.1138 3.67474 11.9369 3.67474 12.4446 4.18242L14.6062 6.34395C15.1138 6.85163 15.1138 7.67474 14.6062 8.18242L12.4446 10.3439C11.9369 10.8516 11.1138 10.8516 10.6062 10.3439L8.44463 8.18242C7.93695 7.67474 7.93695 6.85163 8.44463 6.34394L10.6062 4.18242Z" stroke="#4E5964" stroke-width="1.5"/>
<path d="M17.2105 5.36865L19.1053 3.47392L21 5.36865" stroke="#4E5964" stroke-width="1.5" stroke-linecap="round" stroke-linejoin="round"/>
<path d="M19.1055 7.26318V3.47371" stroke="#4E5964" stroke-width="1.5" stroke-linecap="round" stroke-linejoin="round"/>
</svg>
