<svg width="24" height="24" viewBox="0 0 24 24" fill="none" xmlns="http://www.w3.org/2000/svg">
<path d="M3.78126 8.00001C3.78126 5.79087 5.57212 4 7.78126 4H16.9996C19.2087 4 20.9996 5.79086 20.9996 8V16C20.9996 18.2091 19.2087 20 16.9996 20H7.78129C5.57215 20 3.78129 18.2091 3.78129 16L3.78126 8.00001Z" stroke="#4E5964" stroke-width="1.5"/>
<path d="M16.7406 13.9076C15.6871 15.0179 13.933 15.0639 12.8227 14.0104C11.7125 12.9569 11.6665 11.2028 12.72 10.0925C13.7735 8.98225 15.5276 8.93624 16.6378 9.98975C17.7481 11.0433 17.7941 12.7974 16.7406 13.9076Z" stroke="#4E5964" stroke-width="1.5"/>
<path d="M7 9L7 12L7 15" stroke="#4E5964" stroke-width="1.5" stroke-miterlimit="10" stroke-linecap="round" stroke-linejoin="round"/>
<path d="M3 14L3 16" stroke="#4E5964" stroke-width="1.5" stroke-miterlimit="10" stroke-linecap="round" stroke-linejoin="round"/>
<path d="M3 8L3 10" stroke="#4E5964" stroke-width="1.5" stroke-miterlimit="10" stroke-linecap="round" stroke-linejoin="round"/>
<path d="M18 15.2635L17.1829 14.4477L16.7743 14.0397M11.4629 8.73657L12.28 9.55244L12.6886 9.96038" stroke="#4E5964" stroke-width="1.5" stroke-linecap="round"/>
<path d="M17.9938 8.73145L17.1779 9.54858L16.77 9.95715M11.4668 15.2686L12.2827 14.4514L12.6906 14.0428" stroke="#4E5964" stroke-width="1.5" stroke-linecap="round"/>
</svg>
