<svg width="24" height="24" viewBox="0 0 24 24" fill="none" xmlns="http://www.w3.org/2000/svg">
<path d="M18.0508 8.60916L20.0607 6.56132C20.8403 5.76606 21.9991 6.46879 21.9991 7.73612V16.5202C21.9991 17.7876 20.8403 18.4903 20.0607 17.695L18.0508 15.6472" stroke="#4E5964" stroke-width="1.5" stroke-linecap="round" stroke-linejoin="round"/>
<ellipse cx="7.68766" cy="9.66925" rx="1.48062" ry="1.47589" stroke="#4E5964" stroke-width="1.5"/>
<path d="M10.1545 16.0645L8.67383 16.0645" stroke="#4E5964" stroke-width="1.5" stroke-linecap="round" stroke-linejoin="round"/>
<path d="M17.2989 3.99921L2.1693 19.4179" stroke="#4E5964" stroke-width="1.5" stroke-linecap="round" stroke-linejoin="round"/>
<path d="M17.2989 3.99921L2.1693 19.4179" stroke="#4E5964" stroke-width="1.5" stroke-linecap="round" stroke-linejoin="round"/>
<path d="M3.28388 17.7558C2.63829 16.8654 2.25781 15.7715 2.25781 14.5891V9.66942C2.25781 6.68067 4.68844 4.25781 7.68677 4.25781H12.6222C13.8427 4.25781 14.9692 4.6593 15.8759 5.33702M5.41875 19.5072C6.10891 19.824 6.87714 20.0007 7.68677 20.0007H12.6222C15.6205 20.0007 18.0511 17.5778 18.0511 14.5891V9.66942C18.0511 8.77763 17.8347 7.93623 17.4514 7.19455" stroke="#4E5964" stroke-width="1.5" stroke-linecap="round"/>
</svg>
