<svg width="24" height="24" viewBox="0 0 24 24" fill="none" xmlns="http://www.w3.org/2000/svg">
<path d="M18 8.42351L20.0362 6.34222C20.826 5.53396 22 6.24817 22 7.5362V16.4638C22 17.7518 20.826 18.466 20.0362 17.6578L18 15.5765" stroke="#F50800" stroke-width="1.5" stroke-linecap="round" stroke-linejoin="round"/>
<circle cx="7.5" cy="9.5" r="1.5" stroke="#F50800" stroke-width="1.5"/>
<path d="M10 16L7 16" stroke="#F50800" stroke-width="1.5" stroke-linecap="round" stroke-linejoin="round"/>
<path fill-rule="evenodd" clip-rule="evenodd" d="M16.889 5.05036C15.7604 3.9371 14.2105 3.25 12.5 3.25H7.5C4.04822 3.25 1.25 6.04822 1.25 9.5V14.5C1.25 16.2105 1.9371 17.7604 3.05036 18.889L4.11105 17.8283C3.26923 16.9712 2.75 15.7962 2.75 14.5V9.5C2.75 6.87665 4.87665 4.75 7.5 4.75H12.5C13.7962 4.75 14.9712 5.26923 15.8283 6.11105L16.889 5.05036ZM5.33277 18.7279C5.98254 19.0616 6.71927 19.25 7.5 19.25H12.5C15.1234 19.25 17.25 17.1234 17.25 14.5V9.5C17.25 8.71927 17.0616 7.98254 16.7279 7.33277L17.8286 6.23205C18.413 7.1829 18.75 8.30209 18.75 9.5V14.5C18.75 17.9518 15.9518 20.75 12.5 20.75H7.5C6.30209 20.75 5.1829 20.413 4.23205 19.8286L5.33277 18.7279Z" fill="#F50800"/>
<path d="M17.2373 3.73864L1.90979 19.4092" stroke="#F50800" stroke-width="1.5" stroke-linecap="round" stroke-linejoin="round"/>
</svg>
