<svg width="24" height="24" viewBox="0 0 24 24" fill="none" xmlns="http://www.w3.org/2000/svg">
<path d="M18 8.42351L20.0362 6.34222C20.826 5.53396 22 6.24817 22 7.5362V16.4638C22 17.7518 20.826 18.466 20.0362 17.6578L18 15.5765" stroke="#4E5964" stroke-width="1.5" stroke-linecap="round" stroke-linejoin="round"/>
<circle cx="7.5" cy="9.5" r="1.5" stroke="#4E5964" stroke-width="1.5"/>
<path d="M10 16L8.5 16" stroke="#4E5964" stroke-width="1.5" stroke-linecap="round" stroke-linejoin="round"/>
<path d="M17.2373 3.73864L1.90979 19.4092" stroke="#4E5964" stroke-width="1.5" stroke-linecap="round" stroke-linejoin="round"/>
<path d="M17.2373 3.73864L1.90979 19.4092" stroke="#4E5964" stroke-width="1.5" stroke-linecap="round" stroke-linejoin="round"/>
<path d="M3.03949 17.7184C2.38546 16.8136 2 15.7018 2 14.5V9.5C2 6.46243 4.46243 4 7.5 4H12.5C13.7365 4 14.8777 4.40805 15.7963 5.09684M5.2023 19.4985C5.90149 19.8205 6.67978 20 7.5 20H12.5C15.5376 20 18 17.5376 18 14.5V9.5C18 8.59365 17.7808 7.73851 17.3924 6.9847" stroke="#4E5964" stroke-width="1.5" stroke-linecap="round"/>
</svg>
