<svg width="24" height="24" viewBox="0 0 24 24" fill="none" xmlns="http://www.w3.org/2000/svg">
<path d="M19 14C19.592 13.637 20 12.8819 20 12.0025C20 11.1232 19.592 10.3675 19 10" stroke="#4E5964" stroke-width="1.5" stroke-linecap="round" stroke-linejoin="round"/>
<path d="M4 11.0833C4 9.97877 4.89543 9.08334 6 9.08334L6.40166 9.08334C7.13833 9.08334 7.84924 8.81229 8.39892 8.32186L13.1422 4.08981C13.6771 3.61253 14.5282 3.90522 14.6565 4.61056C15.5449 9.4968 15.5449 14.5032 14.6565 19.3894C14.5282 20.0948 13.6771 20.3875 13.1422 19.9102L8.30008 15.59C7.81053 15.1532 7.19129 14.8889 6.53722 14.8376L5.84374 14.7833C4.80296 14.7017 4 13.8334 4 12.7894L4 11.0833Z" stroke="#4E5964" stroke-width="1.5" stroke-linecap="round"/>
</svg>
