<svg width="24" height="24" viewBox="0 0 24 24" fill="none" xmlns="http://www.w3.org/2000/svg">
<path d="M3 11.078C3 9.9734 3.89543 9.07797 5 9.07797L5.40166 9.07797C6.13833 9.07797 6.84924 8.80692 7.39892 8.31649L12.1422 4.08444C12.6771 3.60716 13.5282 3.89985 13.6565 4.60519C14.5449 9.49143 14.5449 14.4978 13.6565 19.3841C13.5282 20.0894 12.6771 20.3821 12.1422 19.9048L7.30008 15.5846C6.81053 15.1478 6.19129 14.8835 5.53722 14.8323L4.84374 14.7779C3.80296 14.6964 3 13.828 3 12.784L3 11.078Z" stroke="#4E5964" stroke-width="1.5" stroke-linecap="round"/>
<path d="M18.0005 12.9945L21.0352 10.0295" stroke="#4E5964" stroke-width="1.5" stroke-miterlimit="10" stroke-linecap="round" stroke-linejoin="round"/>
<path d="M21.0003 13.0293L18.0354 9.9947" stroke="#4E5964" stroke-width="1.5" stroke-miterlimit="10" stroke-linecap="round" stroke-linejoin="round"/>
</svg>
