<svg width="24" height="24" viewBox="0 0 24 24" fill="none" xmlns="http://www.w3.org/2000/svg">
<path d="M18.2988 13.9768C18.8762 13.618 19.2742 12.8717 19.2742 12.0026C19.2742 11.1335 18.8762 10.3867 18.2988 10.0234" stroke="#4E5964" stroke-width="1.5" stroke-linecap="round" stroke-linejoin="round"/>
<path d="M20.5103 15.5109C21.4087 14.7382 21.9985 13.4562 21.9985 12.0018C21.9985 10.5454 21.4077 9.26241 20.5078 8.49023" stroke="#4E5964" stroke-width="1.5" stroke-linecap="round" stroke-linejoin="round"/>
<path d="M10.3009 5.08499C10.7945 4.54663 11.6633 3.59903 11.6634 3.59899C11.6634 3.59898 11.6634 3.59899 11.6634 3.59898C12.6431 2.53046 14.5109 2.98389 15.0358 4.23029C15.2226 4.6739 15.2276 5.1748 15.3204 5.64709C16.2616 10.433 16.1964 13.3984 15.3029 18.1956C15.2206 18.6372 15.2095 19.0966 15.0812 19.5271C14.649 20.9775 12.8395 21.5531 11.7457 20.3469C11.7457 20.3469 11.7457 20.3469 11.7457 20.3469C11.7457 20.3468 10.8844 19.397 10.3559 18.8142C9.82746 18.2314 9.1007 17.9025 8.34155 17.9025H7.29003C4.36843 17.9025 2 15.3699 2 12.2459V11.5963C2 8.46507 4.37385 5.92672 7.30215 5.92672C7.30215 5.92672 7.30215 5.92672 7.30215 5.92672C7.30215 5.92672 7.72172 5.92672 8.4268 5.92672C9.13189 5.92672 9.80732 5.62336 10.3009 5.08499Z" stroke="#4E5964" stroke-width="1.5"/>
</svg>
