<svg width="24" height="24" viewBox="0 0 24 24" fill="none" xmlns="http://www.w3.org/2000/svg">
<path d="M17.3613 11.4866L21.604 11.4782M19.4868 13.6037L19.4785 9.36108" stroke="#4E5964" stroke-width="1.5" stroke-miterlimit="10" stroke-linecap="round" stroke-linejoin="round"/>
<path d="M10.1151 5.08499C10.5382 4.54662 11.2829 3.59899 11.2829 3.59899C12.143 2.50454 13.8018 3.00678 14.2042 4.32237C14.3253 4.71828 14.3317 5.14196 14.4011 5.55012C15.2301 10.4237 15.1728 13.4034 14.3878 18.287C14.3265 18.6684 14.3154 19.0598 14.2337 19.4373C13.9055 20.9533 12.3101 21.5777 11.3535 20.3469C11.3535 20.3469 10.6152 19.397 10.1622 18.8142C9.70925 18.2314 9.08632 17.9025 8.43562 17.9025H7.53431C5.03008 17.9025 3 15.3699 3 12.2459V11.5963C3 8.46507 5.03473 5.92672 7.5447 5.92672C7.5447 5.92672 7.90433 5.92672 8.50869 5.92672C9.11305 5.92672 9.69199 5.62336 10.1151 5.08499Z" stroke="#4E5964" stroke-width="1.5"/>
</svg>
