<svg width="24" height="24" viewBox="0 0 24 24" fill="none" xmlns="http://www.w3.org/2000/svg">
<path d="M17 14C17.592 13.637 18 12.8819 18 12.0025C18 11.1232 17.592 10.3675 17 10" stroke="#4E5964" stroke-width="1.5" stroke-linecap="round" stroke-linejoin="round"/>
<path d="M19.0033 16C20.2087 15.1195 21 13.6587 21 12.0014C21 10.3419 20.2073 8.87989 19 8" stroke="#4E5964" stroke-width="1.5" stroke-linecap="round" stroke-linejoin="round"/>
<path d="M3 11.0833C3 9.97877 3.89543 9.08334 5 9.08334L5.40166 9.08334C6.13833 9.08334 6.84924 8.8123 7.39892 8.32186L12.1422 4.08982C12.6771 3.61253 13.5282 3.90522 13.6565 4.61056C14.5449 9.4968 14.5449 14.5032 13.6565 19.3894C13.5282 20.0948 12.6771 20.3875 12.1422 19.9102L7.30008 15.59C6.81053 15.1532 6.19129 14.8889 5.53722 14.8376L4.84374 14.7833C3.80296 14.7017 3 13.8334 3 12.7894L3 11.0833Z" stroke="#4E5964" stroke-width="1.5" stroke-linecap="round"/>
</svg>
