<svg width="24" height="24" viewBox="0 0 24 24" fill="none" xmlns="http://www.w3.org/2000/svg">
<path d="M10.2016 5.08499C10.6893 4.54664 11.5477 3.59905 11.5478 3.59899C11.5478 3.59898 11.5478 3.59899 11.5478 3.59898C12.5177 2.52834 14.3686 2.9857 14.8829 4.23771C15.0637 4.67775 15.0687 5.1721 15.1595 5.63907C16.0915 10.4322 16.0269 13.3988 15.1423 18.2031C15.0619 18.6398 15.0508 19.0934 14.9269 19.5198C14.5037 20.9756 12.7116 21.5551 11.6291 20.3469C11.6291 20.3469 11.6291 20.3469 11.6291 20.3469C11.6291 20.3468 10.7781 19.397 10.2559 18.8142C9.7338 18.2314 9.01575 17.9025 8.26568 17.9025H7.22674C4.34009 17.9025 2 15.3699 2 12.2459V11.5963C2 8.46507 4.34545 5.92672 7.23871 5.92672C7.23871 5.92672 7.23871 5.92672 7.23871 5.92672C7.23871 5.92672 7.65326 5.92672 8.34991 5.92672C9.04656 5.92672 9.71391 5.62336 10.2016 5.08499Z" stroke="#4E5964" stroke-width="1.5"/>
<path d="M17.8081 12.1262L22 12.1152" stroke="#4E5964" stroke-width="1.5" stroke-miterlimit="10" stroke-linecap="round" stroke-linejoin="round"/>
</svg>
