<svg width="24" height="24" viewBox="0 0 24 24" fill="none" xmlns="http://www.w3.org/2000/svg">
<path d="M13.1151 5.08499C13.5382 4.54662 14.2829 3.59899 14.2829 3.59899C15.143 2.50454 16.8018 3.00678 17.2042 4.32237C17.3253 4.71828 17.3317 5.14196 17.4011 5.55012C18.2301 10.4237 18.1728 13.4034 17.3878 18.287C17.3265 18.6684 17.3154 19.0598 17.2337 19.4373C16.9055 20.9533 15.3101 21.5777 14.3535 20.3469C14.3535 20.3469 13.6152 19.397 13.1622 18.8142C12.7092 18.2314 12.0863 17.9025 11.4356 17.9025H10.5343C8.03008 17.9025 6 15.3699 6 12.2459V11.5963C6 8.46507 8.03473 5.92672 10.5447 5.92672C10.5447 5.92672 10.9043 5.92672 11.5087 5.92672C12.113 5.92672 12.692 5.62336 13.1151 5.08499Z" stroke="#4E5964" stroke-width="1.5"/>
</svg>
