<svg width="24" height="24" viewBox="0 0 24 24" fill="none" xmlns="http://www.w3.org/2000/svg">
<path d="M3 12.5C3 10.0147 5.01472 8 7.5 8H15.5H16.5C18.9853 8 21 10.0147 21 12.5V16.5C21 18.9853 18.9853 21 16.5 21H7.5C5.01472 21 3 18.9853 3 16.5V12.875V12.5Z" stroke="#4E5964" stroke-width="1.5"/>
<path d="M21 14H18C16.8954 14 16 14.8954 16 16C16 17.1046 16.8954 18 18 18H18.1429H20.5" stroke="#4E5964" stroke-width="1.5"/>
<path d="M18 16H18.5" stroke="#4E5964" stroke-width="1.5" stroke-miterlimit="10" stroke-linecap="round" stroke-linejoin="round"/>
<path d="M3 14V10.3303C3 7.91999 4.45281 5.76829 6.63275 4.94998L11.6605 3.06266C12.3123 2.81799 13 3.32022 13 4.04091V7.5" stroke="#4E5964" stroke-width="1.5" stroke-linecap="round" stroke-linejoin="round"/>
<path d="M11 14.2937C11 13.966 10.9012 13.6518 10.7253 13.4202L9.16261 11.3617C8.98677 11.1301 8.74829 11 8.49965 11C8.251 11 8.01256 11.1302 7.83676 11.3619L6.27451 13.421C6.09871 13.6527 6 13.967 6 14.2946M11 14.2937C11 14.6213 10.9013 14.9355 10.7255 15.1672L9.16261 17.5882C8.98682 17.8199 8.74865 18 8.5 18C8.25135 18 8.01261 17.8199 7.83676 17.5882L6.27469 15.168C6.09885 14.9364 6 14.6222 6 14.2946M11 14.2937L9.0949 15.1176C8.71505 15.2818 8.28422 15.2819 7.90435 15.1177L6 14.2946" stroke="#4E5964" stroke-width="1.5" stroke-linecap="round" stroke-linejoin="round"/>
</svg>
