<svg width="24" height="24" viewBox="0 0 24 24" fill="none" xmlns="http://www.w3.org/2000/svg">
<path d="M21 7.63559V16.5C21 18.9853 18.9853 21 16.5 21H7.5C5.01472 21 3 18.9853 3 16.5V7.5C3 5.01472 5.01472 3 7.5 3H15" stroke="#4E5964" stroke-width="1.5" stroke-linecap="round"/>
<path d="M15.6715 3.09666L20.884 7.44046C21.1318 7.64694 20.9563 8 20.6059 8H15.3933C15.1761 8 15 7.85325 15 7.67223V3.32843C15 3.03642 15.4237 2.89017 15.6715 3.09666Z" stroke="#4E5964" stroke-width="1.5"/>
<path d="M8 9L8 3" stroke="#4E5964" stroke-width="1.5" stroke-linecap="round"/>
<path d="M8 5H7" stroke="#4E5964" stroke-width="1.5" stroke-linecap="round"/>
<path d="M9 6H8" stroke="#4E5964" stroke-width="1.5" stroke-linecap="round"/>
<path d="M8 7H7" stroke="#4E5964" stroke-width="1.5" stroke-linecap="round"/>
<path d="M9 8H8" stroke="#4E5964" stroke-width="1.5" stroke-linecap="round"/>
<path d="M6 18.22V17.62C6 17.4 6.04333 17.2367 6.13 17.13L8.78 13.22V13.18H6.39C6.25 13.18 6.18 13.11 6.18 12.97V12.21C6.18 12.07 6.25 12 6.39 12H9.94C10.0733 12 10.14 12.07 10.14 12.21V13.07C10.14 13.27 10.09 13.4433 9.99 13.59L7.5 17.21V17.25H10.04C10.1733 17.25 10.24 17.3133 10.24 17.44V18.2C10.24 18.3533 10.1733 18.43 10.04 18.43H6.21C6.07 18.43 6 18.36 6 18.22Z" fill="#4E5964"/>
<path d="M12.7048 12.21V18.22C12.7048 18.36 12.6348 18.43 12.4948 18.43H11.6448C11.5048 18.43 11.4348 18.36 11.4348 18.22V12.21C11.4348 12.07 11.5048 12 11.6448 12H12.4948C12.6348 12 12.7048 12.07 12.7048 12.21Z" fill="#4E5964"/>
<path d="M15.1109 18.43H14.2609C14.1209 18.43 14.0509 18.36 14.0509 18.22V12.21C14.0509 12.07 14.1209 12 14.2609 12H16.7009C17.2209 12 17.6242 12.1433 17.9109 12.43C18.1975 12.71 18.3409 13.11 18.3409 13.63V14.59C18.3409 15.11 18.1975 15.5133 17.9109 15.8C17.6242 16.08 17.2209 16.22 16.7009 16.22H15.4409C15.3609 16.22 15.3209 16.2567 15.3209 16.33V18.22C15.3209 18.36 15.2509 18.43 15.1109 18.43ZM15.4309 15.11H16.4909C16.7042 15.11 16.8542 15.0667 16.9409 14.98C17.0275 14.8867 17.0709 14.7367 17.0709 14.53V13.69C17.0709 13.4767 17.0275 13.3267 16.9409 13.24C16.8542 13.1467 16.7042 13.1 16.4909 13.1H15.4309C15.3575 13.1 15.3209 13.1367 15.3209 13.21V15C15.3209 15.0733 15.3575 15.11 15.4309 15.11Z" fill="#4E5964"/>
</svg>
