<svg width="24" height="24" viewBox="0 0 24 24" fill="none" xmlns="http://www.w3.org/2000/svg">
<path d="M21 7.63559V16.5C21 18.9853 18.9853 21 16.5 21H7.5C5.01472 21 3 18.9853 3 16.5V7.5C3 5.01472 5.01472 3 7.5 3H15" stroke="#4E5964" stroke-width="1.5" stroke-linecap="round"/>
<path d="M15.6715 3.09666L20.884 7.44046C21.1318 7.64694 20.9563 8 20.6059 8H15.3933C15.1761 8 15 7.85325 15 7.67223V3.32843C15 3.03642 15.4237 2.89017 15.6715 3.09666Z" stroke="#4E5964" stroke-width="1.5"/>
<path d="M8 9L8 3" stroke="#4E5964" stroke-width="1.5" stroke-linecap="round"/>
<path d="M8 5H7" stroke="#4E5964" stroke-width="1.5" stroke-linecap="round"/>
<path d="M9 6H8" stroke="#4E5964" stroke-width="1.5" stroke-linecap="round"/>
<path d="M8 7H7" stroke="#4E5964" stroke-width="1.5" stroke-linecap="round"/>
<path d="M9 8H8" stroke="#4E5964" stroke-width="1.5" stroke-linecap="round"/>
<path d="M6.50391 12.5H9.83724L6.50391 18.5H9.83724" stroke="#4E5964" stroke-width="1.5" stroke-linecap="round" stroke-linejoin="round"/>
<path d="M11.8379 12.5V18.5" stroke="#4E5964" stroke-width="1.5" stroke-linecap="round" stroke-linejoin="round"/>
<path d="M13.8379 18.5V12.5H16.5046C17.2409 12.5 17.8379 13.097 17.8379 13.8333V14.7342C17.8379 15.4706 17.2409 16.0676 16.5046 16.0676H14.2379" stroke="#4E5964" stroke-width="1.5" stroke-linecap="round" stroke-linejoin="round"/>
</svg>
